<?xml version="1.0" encoding="UTF-8"?>
<svg width="44px" height="44px" viewBox="0 0 44 44" version="1.1" xmlns="http://www.w3.org/2000/svg" xmlns:xlink="http://www.w3.org/1999/xlink">
    <!-- Generator: Sketch 42 (36781) - http://www.bohemiancoding.com/sketch -->
    <title>Emoji_Happy</title>
    <desc>Created with Sketch.</desc>
    <defs></defs>
    <g id="Symbols" stroke="none" stroke-width="1" fill="none" fill-rule="evenodd">
        <g id="Emoji_Happy" fill-rule="nonzero">
            <g id="1f603">
                <g id="Group">
                    <circle id="Oval" fill="#FFDD67" cx="22" cy="22" r="22"></circle>
                    <circle id="Oval" fill="#664E27" cx="13.5666667" cy="16.5" r="3.66666667"></circle>
                    <ellipse id="Oval" fill="#664E27" cx="30.4333333" cy="16.5" rx="3.66666667" ry="3.66666667"></ellipse>
                    <path d="M34.4674,26.4366667 C34.4674,25.8478 34.1190667,25.1108 33.1312667,24.9216 C30.5902667,24.4361333 26.8378,23.9367333 21.9992667,23.9367333 C17.1629333,23.9367333 13.409,24.4361333 10.8694667,24.9216 C9.87946667,25.1108 9.53333333,25.8478 9.53333333,26.4366667 C9.53333333,31.7687333 13.6480667,37.1367333 22,37.1367333 C30.3512,37.1367333 34.4674,31.7687333 34.4674,26.4366667 Z" id="Shape" fill="#664E27"></path>
                    <path d="M31.306,26.6075333 C29.6963333,26.3376667 26.2914667,25.8646667 22,25.8646667 C17.7078,25.8646667 14.3029333,26.3376667 12.6932667,26.6075333 C11.7443333,26.7674 11.6864,27.1524 11.7524,27.6972667 C11.792,28.0214 11.8528667,28.4122667 11.9467333,28.8361333 C12.0508667,29.3054667 12.1388667,29.5225333 12.8751333,29.4345333 C14.2831333,29.2666 29.7176,29.2666 31.1263333,29.4345333 C31.8626,29.5218 31.9498667,29.3047333 32.0547333,28.8361333 C32.1478667,28.4122667 32.2094667,28.0221333 32.2483333,27.6972667 C32.3128667,27.1524 32.2556667,26.7674 31.306,26.6075333 Z" id="Shape" fill="#FFFFFF"></path>
                </g>
            </g>
        </g>
    </g>
</svg>