<?xml version="1.0" encoding="UTF-8" standalone="no"?>
<svg width="30px" height="30px" viewBox="0 0 30 30" version="1.1" xmlns="http://www.w3.org/2000/svg" xmlns:xlink="http://www.w3.org/1999/xlink">
    <!-- Generator: Sketch 42 (36781) - http://www.bohemiancoding.com/sketch -->
    <title>icon_share</title>
    <desc>Created with Sketch.</desc>
    <defs></defs>
    <g id="Symbols" stroke="none" stroke-width="1" fill="none" fill-rule="evenodd">
        <g id="icon_share" fill="#FFFFFF">
            <path d="M21.9113557,15.1978718 C21.9322696,15.1224127 21.9479732,15.0456071 21.9583557,14.9679971 C21.9740723,14.8987703 21.9857586,14.8286908 21.9933557,14.7581116 C21.9933557,14.7381225 22.0003557,14.7281279 22.0003557,14.7181334 C22.0003557,14.7081388 21.9943557,14.6981443 21.9943557,14.6881497 C21.9878961,14.613919 21.9751844,14.540365 21.9563557,14.4682696 C21.9481341,14.3937521 21.9330706,14.3201486 21.9113557,14.2483895 C21.9033557,14.2284004 21.8993557,14.1984168 21.8903557,14.1784277 C21.8566771,14.1160486 21.818929,14.0559515 21.7773557,13.9985257 C21.7773557,13.9985257 21.7773557,13.9985257 21.7773557,13.9885312 C21.7504194,13.9335615 21.7203707,13.8801707 21.6873557,13.8286184 L17.2073557,8.4415558 C17.0014913,8.18104152 16.6939237,8.02102849 16.3623266,8.00192668 C16.0307295,7.98282487 15.7068043,8.10646046 15.4723557,8.3416103 C14.96653,8.85287496 14.9273007,9.66288409 15.3813557,10.2205858 L18.0133557,13.3888582 L13.5693557,13.3888582 C13.5493557,13.3888582 13.5343557,13.3988527 13.5143557,13.3988527 C9.7439953,13.6885202 6.87263269,16.8977564 7.00435574,20.6748853 C6.96951603,21.1360374 7.19594115,21.5778653 7.5907279,21.8190851 C7.98551465,22.060305 8.48219682,22.060305 8.87698358,21.8190851 C9.27177033,21.5778653 9.49819545,21.1360374 9.46335574,20.6748853 C9.37259078,18.2238681 11.2804808,16.1602354 13.7323557,16.0574031 L18.0133557,16.0574031 L15.3803557,19.2256755 C14.9265682,19.7836268 14.9662292,20.5936487 15.4723557,21.104651 C15.6909677,21.3221883 15.986867,21.4443644 16.2953557,21.4444657 C16.6500891,21.4413449 16.9848997,21.2800783 17.2083557,21.0047055 L21.6883557,15.6076483 C21.7251808,15.554226 21.7566654,15.4973168 21.7823557,15.437741 C21.8251234,15.3815255 21.8622996,15.3212726 21.8933557,15.2578391 C21.8993557,15.23785 21.9033557,15.2178609 21.9113557,15.1978718 Z" id="Shape_15_copy_4"></path>
        </g>
    </g>
</svg>