<?xml version="1.0" encoding="UTF-8"?>
<svg width="81px" height="140px" viewBox="0 0 81 140" version="1.1" xmlns="http://www.w3.org/2000/svg" xmlns:xlink="http://www.w3.org/1999/xlink">
    <!-- Generator: Sketch 42 (36781) - http://www.bohemiancoding.com/sketch -->
    <title>Illustration_Rocks</title>
    <desc>Created with Sketch.</desc>
    <defs></defs>
    <g id="Symbols" stroke="none" stroke-width="1" fill="none" fill-rule="evenodd">
        <g id="Illustration_Rocks" fill-rule="nonzero" fill="#F6F2DD">
            <g id="Icon---You-Rock">
                <path d="M35.8017259,75.3532995 C35.7592386,78.2575127 34.1159391,80.7697462 31.5392893,82.0690355 C29.0572081,83.3230964 25.8295431,82.9146701 23.6777665,81.1850254 C21.8718538,79.7301055 20.8315768,77.5283542 20.8544162,75.2093909 L20.8544162,72.3421827 L20.8544162,49.810203 C20.8544162,48.2135025 21.1285279,46.7291878 21.9508629,45.3325888 C23.4406599,42.8326904 26.2777157,41.5772589 29.1229949,41.8020305 C31.847665,42.0172081 34.3311168,44.01 35.2973604,46.533198 C35.7688325,47.7667005 35.7962437,49.000203 35.7962437,50.2940102 L35.7962437,73.0809137 L35.7962437,75.3532995 C35.7962437,77.1213198 38.5373604,77.1213198 38.5373604,75.3532995 L38.5373604,54.9319797 L38.5373604,50.4091371 C38.5373604,49.0865482 38.5113198,47.7927411 38.1659391,46.4975635 C37.3134518,43.3027919 34.8587817,40.8316751 31.8271066,39.6447716 C28.7954315,38.457868 25.1470051,38.9992386 22.4963452,40.8522335 C19.7779097,42.7685122 18.1461138,45.8745338 18.1105584,49.2003046 C18.0995939,49.9047716 18.1105584,50.6106091 18.1105584,51.3150761 L18.1105584,63.2101523 L18.1105584,74.1746193 C18.1105584,75.4972081 18.1352284,76.7910152 18.4819797,78.0848223 C19.334467,81.2741117 21.7918782,83.7370051 24.8208122,84.9170558 C27.8497462,86.0971066 31.4995431,85.5598477 34.1515736,83.7054822 C36.8700091,81.7892035 38.501805,78.6831819 38.5373604,75.3574112 C38.5702538,73.5852792 35.8277665,73.5880203 35.8017259,75.3532995 Z" id="Shape"></path>
                <path d="M39.2445685,113.035431 C40.453401,100.744264 51.1574619,89.205533 63.8735025,89.1068528 C64.5807107,89.1068528 65.2892893,89.1397462 65.9937563,89.2027919 C67.4246193,89.3316244 67.7631472,87.3210152 66.6790355,86.6480711 L50.2268528,76.3908122 L49.9650761,76.2277157 L50.4571066,78.1026396 L50.4721827,78.0793401 C50.8833503,77.4255838 50.5969036,76.5977665 49.9801523,76.2044162 C47.4829949,74.6090863 46.2549746,71.8062944 46.545533,68.9020812 C46.8306091,66.0526904 49.0481726,63.6076142 51.7207614,62.7537563 C53.9040609,62.0561421 56.1682234,62.4604569 58.1048223,63.6528426 L61.3311168,65.6374112 L72.1091878,72.266802 L74.5761929,73.7826396 C77.0075635,75.2779188 78.1396447,77.8737563 78.1396447,80.6505076 C78.1396447,87.4265482 78.064264,94.2039594 78.0258883,100.98 C78.0258883,101.922944 78.0258883,102.867259 78.0025888,103.808832 C77.9228436,106.748893 77.4310462,109.663231 76.5415736,112.46665 C74.8119289,118.005076 71.5020305,122.954162 67.2793401,126.913706 C58.1116751,135.508477 44.7788832,138.837563 32.5411675,136.463756 C20.7091371,134.170812 10.129797,126.45868 5.26705584,115.309188 C3.51685279,111.292081 2.71507614,106.907665 2.73426396,102.541066 C2.7406599,101.110203 2.74705584,99.6793401 2.75345178,98.2484772 L2.84390863,77.7106599 L2.96177665,50.7997462 C2.99375635,43.5330457 3.02573604,36.2658883 3.05771574,28.9982741 L3.0851269,22.9047716 L1.71456853,24.2753299 L1.7419797,24.2753299 C2.4955144,24.2671749 3.10438302,23.6583063 3.11253807,22.9047716 C3.17514013,18.7950238 6.51303175,15.4900238 10.623198,15.4681218 C14.7348731,15.4407107 18.0338071,18.9356345 18.0598477,22.9787817 C18.0680028,23.7323164 18.6768714,24.3411851 19.4304061,24.3493401 L19.4591878,24.3493401 L18.0886294,22.9787817 L18.0886294,42.5489848 L18.0886294,53.9945178 C18.0886294,55.7625381 20.8297462,55.7625381 20.8297462,53.9945178 L20.8297462,34.4243147 L20.8297462,22.9787817 C20.8223187,22.2249413 20.2130283,21.6156509 19.4591878,21.6082234 L19.4304061,21.6082234 L20.8009645,22.9787817 C20.7532993,17.3654804 16.2360066,12.8153391 10.623198,12.7270051 C5.01624365,12.643401 0.453654822,17.3869036 0.37142132,22.9047716 L1.7419797,21.5342132 L1.71456853,21.5342132 C0.96072806,21.5416407 0.351437691,22.1509311 0.344010152,22.9047716 C0.328477157,26.4481218 0.312944162,29.9914721 0.297411168,33.5348223 C0.26177665,41.6128934 0.226598985,49.6909645 0.191878173,57.7690355 C0.153502538,66.5552284 0.115126904,75.3414213 0.076751269,84.1276142 L0.00274111675,101.122538 C-0.00685279188,103.315431 0.0397461929,105.476802 0.338527919,107.651878 C1.15401015,113.574061 3.57441624,119.21802 7.1913198,123.972487 C14.9637563,134.207817 27.4838071,139.862741 40.2327411,139.944975 C52.9816751,140.027208 65.5702538,134.373655 73.4002538,124.238376 C77.0500508,119.514061 79.5156853,113.889289 80.3805076,107.973959 C80.8574619,104.71203 80.7711168,101.417208 80.7916751,98.1319797 C80.8163452,93.8275127 80.8405584,89.5235025 80.8643147,85.2199492 C80.8716244,83.9179188 80.878934,82.6158883 80.8862437,81.3138579 C80.8985787,79.2059391 80.6491371,77.2419289 79.6678173,75.3368528 C78.0231472,72.1530457 74.5104061,70.5179695 71.5897462,68.719797 L61.0062944,62.2206091 C59.9660406,61.5805584 58.9504569,60.9048731 57.8170051,60.4320305 C54.8017766,59.1724873 51.2862944,59.5206091 48.5218782,61.2379188 C45.6245178,63.0374619 43.8811675,66.2527919 43.752335,69.6325888 C43.6235025,73.0123858 45.325736,76.1167005 47.9558376,78.1300508 C48.1600508,78.287665 48.376599,78.4288325 48.5945178,78.5672589 L48.1024873,76.692335 L48.0874112,76.7156345 C47.6858376,77.3639086 47.9585787,78.2040609 48.5794416,78.5905584 L65.0412183,88.8505584 L65.3029949,89.0136548 L65.9882741,86.458934 C52.556802,85.2501015 40.6027919,95.9541624 37.2915228,108.464619 C36.9047797,109.96313 36.6389514,111.490268 36.496599,113.03132 C36.4239594,113.775533 37.1818782,114.401878 37.8671574,114.401878 C38.668934,114.401878 39.1650761,113.774162 39.2377157,113.03132 L39.2445685,113.035431 Z" id="Shape"></path>
                <path d="M56.2216751,61.0816751 L56.2216751,49.2016751 C56.2216751,47.4336548 53.4805584,47.4336548 53.4805584,49.2016751 L53.4805584,61.0816751 C53.4805584,62.8496954 56.2216751,62.8496954 56.2216751,61.0816751 Z" id="Shape"></path>
                <path d="M52.3046193,79.3608122 C50.5736118,82.008985 47.3762773,83.2986385 44.292335,82.5925888 C41.5101015,81.9539086 39.3980711,79.7390863 38.7264975,76.9952284 C38.4825381,75.9974619 38.5442132,74.9393909 38.5442132,73.9169543 L38.5442132,69.1775635 L38.5442132,56.0503553 C38.5442132,53.531269 38.3811168,50.9532487 38.5798477,48.4382741 C38.7950254,45.7136041 40.7878173,43.2301523 43.3123858,42.2625381 C46.029349,41.2332688 49.0957679,41.8517734 51.2013198,43.8537563 C52.8240609,45.3970051 53.4901523,47.4596954 53.4901523,49.6525888 L53.4901523,55.0388832 L53.4901523,61.0775635 C53.4901523,62.8455838 56.231269,62.8455838 56.231269,61.0775635 L56.231269,50.8669036 C56.231269,49.0180203 56.2134518,47.2129949 55.502132,45.4614213 C54.2686287,42.4119904 51.658388,40.1309555 48.4711675,39.3172081 C42.1378173,37.7122843 35.8030964,42.7353807 35.8030964,49.2318274 L35.8030964,57.2975635 L35.8030964,70.317868 C35.8030964,73.1617766 35.441269,76.4250761 36.5322335,79.1086294 C37.8822335,82.4253807 40.9111675,84.8937563 44.4814721,85.4022335 C48.4985224,85.9794092 52.4826687,84.1579627 54.6743147,80.742335 C55.6391878,79.2566497 53.2653807,77.8860914 52.3046193,79.3608122 Z" id="Shape"></path>
                <path d="M73.9101015,70.9250254 L73.9101015,50.6942132 C73.9101015,45.0146193 73.9132995,39.3350254 73.9196954,33.6554315 L73.9196954,11.0549239 C73.9196954,9.37187817 73.7195939,7.75324873 73.0480203,6.18670051 C71.785736,3.24411168 69.1186294,1.04847716 66.0184264,0.293299492 C59.6494416,-1.27050761 53.2352284,3.79233503 53.2845685,10.3490863 C53.3037563,12.9531472 53.3243147,27.9086802 53.3435025,30.5182234 C53.3901015,36.7734518 53.4357868,43.0286802 53.4805584,49.2839086 C53.494264,51.0505584 56.2353807,51.0519289 56.2216751,49.2839086 C56.1709645,42.4996447 56.1202538,23.372132 56.0695431,16.587868 L56.0339086,11.8196954 C56.0270558,10.8863452 55.9667513,9.92147208 56.1325888,9.00045685 C56.6485363,6.20653504 58.6677418,3.92728038 61.3790863,3.07827411 C64.154467,2.21071066 67.1505076,3.08649746 69.1432995,5.16015228 C70.5426396,6.61705584 71.1772081,8.56736041 71.1758376,10.5560406 L71.1758376,13.7891878 C71.1758376,17.9762437 71.1758376,34.5051777 71.1676142,38.6922335 L71.1676142,54.2960406 L71.1676142,70.9318782 C71.1676142,72.6998985 73.908731,72.6998985 73.908731,70.9318782 L73.9101015,70.9250254 Z" id="Shape"></path>
            </g>
        </g>
    </g>
</svg>