<?xml version="1.0" encoding="UTF-8"?>
<svg width="301px" height="125px" viewBox="0 0 301 125" version="1.1" xmlns="http://www.w3.org/2000/svg" xmlns:xlink="http://www.w3.org/1999/xlink">
    <!-- Generator: Sketch 42 (36781) - http://www.bohemiancoding.com/sketch -->
    <title>Logo_ResidencyProgram</title>
    <desc>Created with Sketch.</desc>
    <defs></defs>
    <g id="Symbols" stroke="none" stroke-width="1" fill="none" fill-rule="evenodd">
        <g id="Logo_ResidencyProgram" fill="#0000FF">
            <g id="flattened">
                <g id="residency" transform="translate(68.000000, 26.000000)">
                    <path d="M37.2034409,46.1710781 C36.1323155,47.5397383 34.7785523,48.5959711 33.1421108,49.3398082 C31.5056692,50.0836452 29.8097461,50.4555582 28.0542907,50.4555582 C26.3880956,50.4555582 24.8186229,50.1877809 23.3458255,49.6522182 C21.8730281,49.1166555 20.5936476,48.3505148 19.5076455,47.3537731 C18.4216433,46.3570314 17.5662435,45.1594717 16.9414204,43.761058 C16.3165973,42.3626443 16.0041904,40.8006099 16.0041904,39.0749079 C16.0041904,37.3492059 16.3165973,35.7871715 16.9414204,34.3887578 C17.5662435,32.9903441 18.4216433,31.7927844 19.5076455,30.7960427 C20.5936476,29.799301 21.8730281,29.0331603 23.3458255,28.4975977 C24.8186229,27.962035 26.3880956,27.6942576 28.0542907,27.6942576 C29.6014718,27.6942576 31.0073027,27.962035 32.2718258,28.4975977 C33.5363488,29.0331603 34.6074581,29.799301 35.4851858,30.7960427 C36.3629136,31.7927844 37.0397952,32.9903441 37.5158509,34.3887578 C37.9919066,35.7871715 38.2299309,37.3492059 38.2299309,39.0749079 L38.2299309,41.172518 L22.6986905,41.172518 C22.9664719,42.4519177 23.5466561,43.4709592 24.4392606,44.229673 C25.3318651,44.9883868 26.4327274,45.3677381 27.7418807,45.3677381 C28.8427595,45.3677381 29.7725419,45.1222755 30.5312557,44.631343 C31.2899695,44.1404106 31.9519746,43.5081586 32.5172908,42.734568 L37.2034409,46.1710781 Z M31.5354307,36.6202579 C31.5651842,35.4896255 31.1932713,34.5226518 30.4196807,33.7193078 C29.6460902,32.9159637 28.6493634,32.5142978 27.4294706,32.5142978 C26.6856336,32.5142978 26.0310668,32.6333099 25.4657506,32.8713378 C24.9004344,33.1093656 24.4169476,33.4143342 24.0152756,33.7862528 C23.6136035,34.1581713 23.3011967,34.5895903 23.0780455,35.0805228 C22.8548944,35.5714553 22.728444,36.0846952 22.6986905,36.6202579 L31.5354307,36.6202579 Z M53.5116912,34.6119078 C52.5298263,33.392015 51.2355692,32.7820778 49.6288811,32.7820778 C49.0635649,32.7820778 48.5131338,32.9159664 47.9775711,33.1837478 C47.4420084,33.4515291 47.1742311,33.9127012 47.1742311,34.5672778 C47.1742311,35.1028405 47.4494466,35.4970682 47.9998861,35.7499728 C48.5503255,36.0028774 49.2495219,36.2260252 50.0974961,36.4194228 C50.9454704,36.6128205 51.852938,36.8210917 52.8199262,37.0442429 C53.7869144,37.267394 54.694382,37.6169922 55.5423563,38.0930479 C56.3903305,38.5691036 57.0895269,39.2162322 57.6399663,40.0344529 C58.1904057,40.8526737 58.4656213,41.9460978 58.4656213,43.314758 C58.4656213,44.7131717 58.1606527,45.8661019 57.5507063,46.7735831 C56.9407599,47.6810643 56.1597427,48.4100137 55.2076312,48.9604531 C54.2555198,49.5108926 53.1844105,49.8976821 51.9942712,50.1208332 C50.8041319,50.3439843 49.6288869,50.4555582 48.4685011,50.4555582 C46.9510735,50.4555582 45.4187921,50.2398487 43.871611,49.8084232 C42.3244299,49.3769977 41.0152963,48.610857 39.9441709,47.5099781 L44.005501,43.002348 C44.6303241,43.7759386 45.3220822,44.363561 46.080796,44.765233 C46.8395098,45.1669051 47.7246627,45.3677381 48.7362811,45.3677381 C49.5098716,45.3677381 50.209068,45.2561642 50.8338911,45.0330131 C51.4587143,44.8098619 51.7711212,44.4007577 51.7711212,43.805688 C51.7711212,43.2403718 51.4959056,42.8163911 50.9454661,42.533733 C50.3950267,42.2510749 49.6958304,42.0130506 48.8478561,41.819653 C47.9998818,41.6262553 47.0924142,41.4179841 46.125426,41.194833 C45.1584378,40.9716818 44.2509702,40.6369602 43.402996,40.1906579 C42.5550217,39.7443557 41.8558253,39.1121037 41.3053859,38.2938829 C40.7549465,37.4756621 40.4797309,36.382238 40.4797309,35.0135778 C40.4797309,33.7341781 40.74007,32.6333157 41.2607559,31.7109577 C41.7814419,30.7885998 42.4657617,30.0298973 43.313736,29.4348277 C44.1617102,28.839758 45.1361222,28.4009007 46.237001,28.1182426 C47.3378799,27.8355846 48.4536188,27.6942576 49.5842511,27.6942576 C51.0124183,27.6942576 52.4554406,27.9025289 53.9133612,28.3190777 C55.3712819,28.7356264 56.6060329,29.4794523 57.6176513,30.5505777 L53.5116912,34.6119078 Z M60.9385713,28.2298176 L67.6330715,28.2298176 L67.6330715,49.9199982 L60.9385713,49.9199982 L60.9385713,28.2298176 Z M60.4030113,21.4014275 C60.4030113,20.3303021 60.7823625,19.4153962 61.5410763,18.6566824 C62.2997901,17.8979686 63.214696,17.5186174 64.2858214,17.5186174 C65.3569468,17.5186174 66.2718527,17.8979686 67.0305665,18.6566824 C67.7892803,19.4153962 68.1686315,20.3303021 68.1686315,21.4014275 C68.1686315,22.4725529 67.7892803,23.3874587 67.0305665,24.1461726 C66.2718527,24.9048864 65.3569468,25.2842376 64.2858214,25.2842376 C63.214696,25.2842376 62.2997901,24.9048864 61.5410763,24.1461726 C60.7823625,23.3874587 60.4030113,22.4725529 60.4030113,21.4014275 Z M94.1615921,49.9199982 L88.0026519,49.9199982 L88.0026519,47.0636781 L87.9133919,47.0636781 C87.6456106,47.4504734 87.2960124,47.8447011 86.8645869,48.2463731 C86.4331614,48.6480451 85.9273598,49.0125198 85.3471668,49.3398082 C84.7669739,49.6670965 84.1272836,49.9348738 83.4280768,50.1431482 C82.72887,50.3514226 82.0073588,50.4555582 81.2635217,50.4555582 C79.6568337,50.4555582 78.1989349,50.1803426 76.8897816,49.6299032 C75.5806284,49.0794637 74.4574513,48.3058848 73.5202166,47.3091431 C72.5829819,46.3124014 71.8614707,45.1297182 71.3556615,43.761058 C70.8498523,42.3923978 70.5969515,40.8898695 70.5969515,39.2534279 C70.5969515,37.7360003 70.8275375,36.2855398 71.2887165,34.9020028 C71.7498955,33.5184659 72.4044623,32.2911531 73.2524366,31.2200277 C74.1004108,30.1489023 75.1343288,29.2935025 76.3542216,28.6538027 C77.5741144,28.0141028 78.9576306,27.6942576 80.5048117,27.6942576 C81.9032254,27.6942576 83.2049208,27.9099672 84.4099368,28.3413927 C85.6149529,28.7728182 86.6042413,29.5092058 87.3778319,30.5505777 L87.4670919,30.5505777 L87.4670919,16.1797174 L94.1615921,16.1797174 L94.1615921,49.9199982 Z M88.0026519,39.0749079 C88.0026519,37.4384664 87.5340416,36.1144562 86.5968069,35.1028378 C85.6595722,34.0912194 84.3430003,33.5854178 82.6470518,33.5854178 C80.9511033,33.5854178 79.6345314,34.0912194 78.6972967,35.1028378 C77.760062,36.1144562 77.2914517,37.4384664 77.2914517,39.0749079 C77.2914517,40.7113495 77.760062,42.0353596 78.6972967,43.046978 C79.6345314,44.0585964 80.9511033,44.564398 82.6470518,44.564398 C84.3430003,44.564398 85.6595722,44.0585964 86.5968069,43.046978 C87.5340416,42.0353596 88.0026519,40.7113495 88.0026519,39.0749079 Z M118.994173,46.1710781 C117.923047,47.5397383 116.569284,48.5959711 114.932842,49.3398082 C113.296401,50.0836452 111.600478,50.4555582 109.845022,50.4555582 C108.178827,50.4555582 106.609355,50.1877809 105.136557,49.6522182 C103.66376,49.1166555 102.384379,48.3505148 101.298377,47.3537731 C100.212375,46.3570314 99.3569752,45.1594717 98.7321521,43.761058 C98.107329,42.3626443 97.7949221,40.8006099 97.7949221,39.0749079 C97.7949221,37.3492059 98.107329,35.7871715 98.7321521,34.3887578 C99.3569752,32.9903441 100.212375,31.7927844 101.298377,30.7960427 C102.384379,29.799301 103.66376,29.0331603 105.136557,28.4975977 C106.609355,27.962035 108.178827,27.6942576 109.845022,27.6942576 C111.392203,27.6942576 112.798034,27.962035 114.062557,28.4975977 C115.32708,29.0331603 116.39819,29.799301 117.275918,30.7960427 C118.153645,31.7927844 118.830527,32.9903441 119.306583,34.3887578 C119.782638,35.7871715 120.020663,37.3492059 120.020663,39.0749079 L120.020663,41.172518 L104.489422,41.172518 C104.757204,42.4519177 105.337388,43.4709592 106.229992,44.229673 C107.122597,44.9883868 108.223459,45.3677381 109.532612,45.3677381 C110.633491,45.3677381 111.563274,45.1222755 112.321987,44.631343 C113.080701,44.1404106 113.742706,43.5081586 114.308022,42.734568 L118.994173,46.1710781 Z M113.326162,36.6202579 C113.355916,35.4896255 112.984003,34.5226518 112.210412,33.7193078 C111.436822,32.9159637 110.440095,32.5142978 109.220202,32.5142978 C108.476365,32.5142978 107.821798,32.6333099 107.256482,32.8713378 C106.691166,33.1093656 106.207679,33.4143342 105.806007,33.7862528 C105.404335,34.1581713 105.091928,34.5895903 104.868777,35.0805228 C104.645626,35.5714553 104.519176,36.0846952 104.489422,36.6202579 L113.326162,36.6202579 Z M123.029173,28.2298176 L129.455893,28.2298176 L129.455893,31.1753977 L129.545153,31.1753977 C129.753427,30.758849 130.050958,30.3423064 130.437753,29.9257577 C130.824548,29.5092089 131.28572,29.137296 131.821283,28.8100077 C132.356846,28.4827194 132.966783,28.214942 133.651113,28.0066676 C134.335443,27.7983933 135.079269,27.6942576 135.882613,27.6942576 C137.578561,27.6942576 138.947201,27.9545967 139.988573,28.4752827 C141.029945,28.9959686 141.840715,29.7174797 142.420908,30.6398377 C143.001101,31.5621957 143.395329,32.6481815 143.603603,33.8978278 C143.811877,35.1474741 143.916013,36.5012372 143.916013,37.9591579 L143.916013,49.9199982 L137.221513,49.9199982 L137.221513,39.2980579 C137.221513,38.6732348 137.199198,38.0261062 137.154568,37.3566529 C137.109938,36.6871995 136.976049,36.069824 136.752898,35.5045078 C136.529747,34.9391917 136.187587,34.4780196 135.726408,34.1209778 C135.265229,33.763936 134.603224,33.5854178 133.740373,33.5854178 C132.877522,33.5854178 132.178326,33.7416212 131.642763,34.0540328 C131.1072,34.3664444 130.698096,34.7829869 130.415438,35.3036728 C130.13278,35.8243588 129.946823,36.4119812 129.857563,37.0665579 C129.768302,37.7211345 129.723673,38.4054543 129.723673,39.1195379 L129.723673,49.9199982 L123.029173,49.9199982 L123.029173,28.2298176 Z M162.277244,35.2367278 C161.949955,34.7606721 161.488783,34.3664444 160.893713,34.0540328 C160.298644,33.7416212 159.658954,33.5854178 158.974623,33.5854178 C157.278675,33.5854178 155.962103,34.0912194 155.024868,35.1028378 C154.087634,36.1144562 153.619023,37.4384664 153.619023,39.0749079 C153.619023,40.7113495 154.087634,42.0353596 155.024868,43.046978 C155.962103,44.0585964 157.278675,44.564398 158.974623,44.564398 C159.71846,44.564398 160.358151,44.4007563 160.893713,44.073468 C161.429276,43.7461797 161.890448,43.3593902 162.277244,42.913088 L166.695614,47.5546081 C165.654242,48.6257335 164.426929,49.3769977 163.013639,49.8084232 C161.600348,50.2398487 160.254023,50.4555582 158.974623,50.4555582 C157.308428,50.4555582 155.738956,50.1877809 154.266158,49.6522182 C152.793361,49.1166555 151.51398,48.3505148 150.427978,47.3537731 C149.341976,46.3570314 148.486576,45.1594717 147.861753,43.761058 C147.23693,42.3626443 146.924523,40.8006099 146.924523,39.0749079 C146.924523,37.3492059 147.23693,35.7871715 147.861753,34.3887578 C148.486576,32.9903441 149.341976,31.7927844 150.427978,30.7960427 C151.51398,29.799301 152.793361,29.0331603 154.266158,28.4975977 C155.738956,27.962035 157.308428,27.6942576 158.974623,27.6942576 C160.254023,27.6942576 161.600348,27.9099672 163.013639,28.3413927 C164.426929,28.7728182 165.654242,29.5240823 166.695614,30.5952077 L162.277244,35.2367278 Z M182.549214,53.4457683 C182.102912,54.6061541 181.671493,55.6326338 181.254944,56.5252383 C180.838395,57.4178428 180.310279,58.169107 179.670579,58.7790534 C179.030879,59.3889998 178.220109,59.8501718 177.238244,60.1625834 C176.256379,60.474995 174.962122,60.6311984 173.355434,60.6311984 C171.629732,60.6311984 169.963562,60.3634211 168.356874,59.8278584 L169.249474,54.3383683 C170.261092,54.7846705 171.302448,55.0078183 172.373574,55.0078183 C173.117411,55.0078183 173.727348,54.9259974 174.203404,54.7623533 C174.679459,54.5987091 175.073687,54.3606848 175.386099,54.0482733 C175.69851,53.7358617 175.958849,53.3565105 176.167124,52.9102082 C176.375398,52.463906 176.598546,51.9432279 176.836574,51.3481582 L177.327504,50.0985182 L167.821314,28.2298176 L175.051374,28.2298176 L180.630124,42.556048 L180.719384,42.556048 L185.494794,28.2298176 L192.367814,28.2298176 L182.549214,53.4457683 Z M27.4294706,66.1498158 L34.1239708,66.1498158 L34.1239708,69.6309559 L34.2132308,69.6309559 C34.9273144,68.2920492 35.7752759,67.2878842 36.7571409,66.6184308 C37.7390058,65.9489775 38.9737568,65.6142558 40.461431,65.6142558 C40.8482262,65.6142558 41.2350157,65.6291323 41.621811,65.6588858 C42.0086063,65.6886393 42.3656427,65.7481454 42.692931,65.8374058 L42.692931,71.951716 C42.2168753,71.8029485 41.748265,71.6913747 41.287086,71.6169909 C40.825907,71.5426072 40.3424201,71.5054159 39.8366109,71.5054159 C38.5572112,71.5054159 37.5456079,71.6839342 36.8017709,72.040976 C36.0579338,72.3980178 35.4851878,72.8963811 35.0835158,73.536081 C34.6818438,74.1757809 34.4215047,74.9419216 34.3024908,75.8345261 C34.1834769,76.7271305 34.1239708,77.7089807 34.1239708,78.7801061 L34.1239708,87.8399963 L27.4294706,87.8399963 L27.4294706,66.1498158 Z M42.934381,76.9949061 C42.934381,75.2692041 43.2467878,73.7071697 43.871611,72.308756 C44.4964341,70.9103423 45.3518339,69.7127826 46.437836,68.7160409 C47.5238382,67.7192992 48.8032187,66.9531585 50.2760161,66.4175958 C51.7488135,65.8820331 53.3182862,65.6142558 54.9844812,65.6142558 C56.6506763,65.6142558 58.220149,65.8820331 59.6929464,66.4175958 C61.1657438,66.9531585 62.4451243,67.7192992 63.5311264,68.7160409 C64.6171286,69.7127826 65.4725284,70.9103423 66.0973515,72.308756 C66.7221746,73.7071697 67.0345815,75.2692041 67.0345815,76.9949061 C67.0345815,78.7206081 66.7221746,80.2826425 66.0973515,81.6810562 C65.4725284,83.0794699 64.6171286,84.2770296 63.5311264,85.2737713 C62.4451243,86.270513 61.1657438,87.0366536 59.6929464,87.5722163 C58.220149,88.107779 56.6506763,88.3755564 54.9844812,88.3755564 C53.3182862,88.3755564 51.7488135,88.107779 50.2760161,87.5722163 C48.8032187,87.0366536 47.5238382,86.270513 46.437836,85.2737713 C45.3518339,84.2770296 44.4964341,83.0794699 43.871611,81.6810562 C43.2467878,80.2826425 42.934381,78.7206081 42.934381,76.9949061 Z M49.6288811,76.9949061 C49.6288811,78.6313476 50.0974914,79.9553578 51.0347261,80.9669762 C51.9719609,81.9785946 53.2885327,82.4843962 54.9844812,82.4843962 C56.6804298,82.4843962 57.9970016,81.9785946 58.9342363,80.9669762 C59.871471,79.9553578 60.3400814,78.6313476 60.3400814,76.9949061 C60.3400814,75.3584645 59.871471,74.0344544 58.9342363,73.022836 C57.9970016,72.0112176 56.6804298,71.5054159 54.9844812,71.5054159 C53.2885327,71.5054159 51.9719609,72.0112176 51.0347261,73.022836 C50.0974914,74.0344544 49.6288811,75.3584645 49.6288811,76.9949061 Z M92.6705021,86.0101663 C92.6705021,90.1161469 91.6365841,93.2327775 89.568717,95.3601515 C87.50085,97.4875255 84.3544663,98.5511966 80.1294718,98.5511966 C78.1954954,98.5511966 76.2913011,98.3354871 74.4168316,97.9040616 C72.5423622,97.4726361 70.8166861,96.6321128 69.2397515,95.3824665 L72.9440416,89.8483464 C73.9854135,90.7111974 75.0788376,91.3955172 76.2243467,91.9013264 C77.3698558,92.4071356 78.6269216,92.6600365 79.9955818,92.6600365 C82.0485721,92.6600365 83.5585387,92.1616731 84.5255269,91.1649314 C85.4925151,90.1681897 85.9760019,88.8962474 85.9760019,87.3490663 L85.9760019,85.2514563 L85.8867419,85.2514563 C85.1131514,86.2928282 84.1536159,87.0292158 83.0081069,87.4606413 C81.8625978,87.8920668 80.7840502,88.1077763 79.7724318,88.1077763 C78.1657437,88.1077763 76.7078449,87.8325608 75.3986917,87.2821213 C74.0895384,86.7316819 72.9663613,85.9581029 72.0291266,84.9613613 C71.0918919,83.9646196 70.3703807,82.7819364 69.8645715,81.4132762 C69.3587623,80.044616 69.1058615,78.5420876 69.1058615,76.9056461 C69.1058615,75.4774789 69.3364476,74.0790862 69.7976265,72.710426 C70.2588055,71.3417658 70.9133723,70.1367678 71.7613466,69.0953959 C72.6093208,68.054024 73.6432389,67.2135007 74.8631317,66.5738008 C76.0830245,65.9341009 77.4665406,65.6142558 79.0137218,65.6142558 C79.9658332,65.6142558 80.8361095,65.7183914 81.6245768,65.9266658 C82.4130441,66.1349402 83.1196787,66.4027175 83.7445019,66.7300058 C84.369325,67.0572941 84.9048797,67.4217688 85.3511819,67.8234409 C85.7974841,68.2251129 86.1545206,68.6193406 86.4223019,69.0061359 L86.5115619,69.0061359 L86.5115619,66.1498158 L92.6705021,66.1498158 L92.6705021,86.0101663 Z M75.8003617,76.8610161 C75.8003617,77.5750997 75.9342503,78.2519812 76.2020317,78.8916811 C76.469813,79.531381 76.8491642,80.0966887 77.3400967,80.5876212 C77.8310292,81.0785536 78.3963369,81.4727814 79.0360368,81.7703162 C79.6757366,82.067851 80.3823713,82.2166162 81.1559618,82.2166162 C81.8997989,82.2166162 82.5989952,82.067851 83.2535719,81.7703162 C83.9081485,81.4727814 84.4808944,81.0785536 84.9718269,80.5876212 C85.4627594,80.0966887 85.8421106,79.531381 86.1098919,78.8916811 C86.3776733,78.2519812 86.5115619,77.5750997 86.5115619,76.8610161 C86.5115619,76.1469325 86.3776733,75.4700509 86.1098919,74.830351 C85.8421106,74.1906511 85.4627594,73.6253435 84.9718269,73.134411 C84.4808944,72.6434785 83.9081485,72.2492508 83.2535719,71.951716 C82.5989952,71.6541811 81.8997989,71.5054159 81.1559618,71.5054159 C80.3823713,71.5054159 79.6757366,71.6541811 79.0360368,71.951716 C78.3963369,72.2492508 77.8310292,72.6434785 77.3400967,73.134411 C76.8491642,73.6253435 76.469813,74.1906511 76.2020317,74.830351 C75.9342503,75.4700509 75.8003617,76.1469325 75.8003617,76.8610161 Z M96.9732821,66.1498158 L103.667782,66.1498158 L103.667782,69.6309559 L103.757042,69.6309559 C104.471126,68.2920492 105.319087,67.2878842 106.300952,66.6184308 C107.282817,65.9489775 108.517568,65.6142558 110.005242,65.6142558 C110.392038,65.6142558 110.778827,65.6291323 111.165622,65.6588858 C111.552418,65.6886393 111.909454,65.7481454 112.236742,65.8374058 L112.236742,71.951716 C111.760687,71.8029485 111.292076,71.6913747 110.830897,71.6169909 C110.369718,71.5426072 109.886232,71.5054159 109.380422,71.5054159 C108.101023,71.5054159 107.089419,71.6839342 106.345582,72.040976 C105.601745,72.3980178 105.028999,72.8963811 104.627327,73.536081 C104.225655,74.1757809 103.965316,74.9419216 103.846302,75.8345261 C103.727288,76.7271305 103.667782,77.7089807 103.667782,78.7801061 L103.667782,87.8399963 L96.9732821,87.8399963 L96.9732821,66.1498158 Z M127.697023,85.1175663 L127.607763,85.1175663 C126.863926,86.2779521 125.874637,87.1110371 124.639868,87.6168463 C123.405098,88.1226555 122.103403,88.3755564 120.734743,88.3755564 C119.723124,88.3755564 118.748712,88.2342294 117.811478,87.9515713 C116.874243,87.6689133 116.048596,87.2449325 115.334513,86.6796163 C114.620429,86.1143001 114.055121,85.4151038 113.638572,84.5820063 C113.222024,83.7489087 113.013752,82.7819351 113.013752,81.6810562 C113.013752,80.4314099 113.244338,79.3751771 113.705517,78.5123261 C114.166696,77.6494751 114.79151,76.9354022 115.579978,76.3700861 C116.368445,75.8047699 117.268474,75.3659126 118.280093,75.053501 C119.291711,74.7410895 120.340506,74.5105034 121.426508,74.361736 C122.51251,74.2129686 123.598496,74.1237095 124.684498,74.093956 C125.7705,74.0642025 126.774665,74.049326 127.697023,74.049326 C127.697023,72.8591867 127.273042,71.9145278 126.425068,71.2153209 C125.577094,70.5161141 124.572929,70.1665159 123.412543,70.1665159 C122.311664,70.1665159 121.307499,70.3971019 120.400018,70.8582809 C119.492536,71.3194599 118.681766,71.9517119 117.967683,72.755056 L114.397282,69.0953959 C115.646929,67.9350101 117.104828,67.0647337 118.771023,66.4845408 C120.437218,65.9043479 122.162894,65.6142558 123.948103,65.6142558 C125.911833,65.6142558 127.525935,65.8597184 128.790458,66.3506508 C130.054981,66.8415833 131.066584,67.5630944 131.825298,68.5152059 C132.584012,69.4673173 133.112128,70.635124 133.409663,72.018661 C133.707198,73.4021979 133.855963,75.0014236 133.855963,76.8163861 L133.855963,87.8399963 L127.697023,87.8399963 L127.697023,85.1175663 Z M126.045713,78.3338061 C125.539904,78.3338061 124.907652,78.3561209 124.148938,78.4007511 C123.390224,78.4453813 122.661275,78.5718317 121.962068,78.7801061 C121.262861,78.9883805 120.6678,79.3007874 120.176868,79.7173361 C119.685935,80.1338849 119.440473,80.7140691 119.440473,81.4579062 C119.440473,82.2612502 119.782633,82.856311 120.466963,83.2431062 C121.151293,83.6299015 121.865366,83.8232962 122.609203,83.8232962 C123.263779,83.8232962 123.896031,83.7340371 124.505978,83.5555162 C125.115924,83.3769953 125.658917,83.1240945 126.134973,82.7968062 C126.611028,82.4695179 126.99038,82.0529754 127.273038,81.5471662 C127.555696,81.041357 127.697023,80.4462962 127.697023,79.7619661 L127.697023,78.3338061 L126.045713,78.3338061 Z M136.998363,66.1498158 L143.425083,66.1498158 L143.425083,69.0953959 L143.514343,69.0953959 C143.722617,68.6788471 144.020148,68.2623046 144.406943,67.8457559 C144.793738,67.4292071 145.25491,67.0572941 145.790473,66.7300058 C146.326036,66.4027175 146.935973,66.1349402 147.620303,65.9266658 C148.304633,65.7183914 149.048459,65.6142558 149.851803,65.6142558 C151.369231,65.6142558 152.715556,65.9266627 153.890818,66.5514858 C155.066081,67.176309 155.951234,68.1581592 156.546303,69.4970659 C157.319894,68.0986522 158.257115,67.1019255 159.357993,66.5068558 C160.458872,65.9117862 161.812636,65.6142558 163.419324,65.6142558 C164.877244,65.6142558 166.104557,65.8597184 167.101299,66.3506508 C168.09804,66.8415833 168.886496,67.5110266 169.466689,68.3590009 C170.046882,69.2069751 170.463424,70.2037019 170.716329,71.3492109 C170.969233,72.49472 171.095684,73.7220328 171.095684,75.031186 L171.095684,87.8399963 L164.401184,87.8399963 L164.401184,75.209706 C164.401184,74.1980876 164.185474,73.3278113 163.754049,72.598851 C163.322623,71.8698906 162.556482,71.5054159 161.455604,71.5054159 C160.682013,71.5054159 160.034884,71.6318664 159.514198,71.884771 C158.993513,72.1376756 158.57697,72.4872737 158.264558,72.933576 C157.952147,73.3798782 157.728999,73.9005564 157.595108,74.495626 C157.461218,75.0906957 157.394273,75.7155094 157.394273,76.3700861 L157.394273,87.8399963 L150.699773,87.8399963 L150.699773,76.3700861 C150.699773,75.9832908 150.684897,75.5072422 150.655143,74.941926 C150.62539,74.3766099 150.521254,73.8410552 150.342733,73.335246 C150.164212,72.8294368 149.87412,72.3980178 149.472448,72.040976 C149.070776,71.6839342 148.483154,71.5054159 147.709563,71.5054159 C146.846712,71.5054159 146.147516,71.6616194 145.611953,71.974031 C145.07639,72.2864425 144.667286,72.702985 144.384628,73.223671 C144.10197,73.7443569 143.916014,74.3319794 143.826753,74.986556 C143.737493,75.6411327 143.692863,76.3254525 143.692863,77.0395361 L143.692863,87.8399963 L136.998363,87.8399963 L136.998363,66.1498158 Z" id="residency-program"></path>
                    <path d="M7.14915022,66.1848769 L7.14915022,69.0061359 L7.23841022,69.0061359 C7.50619157,68.6193406 7.85578975,68.2251129 8.28721525,67.8234409 C8.71864075,67.4217688 9.22444237,67.0572941 9.80463528,66.7300058 C10.3848282,66.4027175 11.0170802,66.1349402 11.7014103,65.9266658 C12.3857404,65.7183914 13.1146898,65.6142558 13.8882804,65.6142558 C15.4949685,65.6142558 16.9528672,65.8894714 18.2620205,66.4399108 C19.5711737,66.9903503 20.6943509,67.7639292 21.6315856,68.7606709 C22.5688203,69.7574126 23.2903314,70.9400958 23.7961406,72.308756 C24.3019498,73.6774162 24.5548506,75.1799445 24.5548506,76.8163861 C24.5548506,78.3338137 24.3242646,79.7842742 23.8630856,81.1678112 C23.4019066,82.5513481 22.7473398,83.7786609 21.8993656,84.8497863 C21.0513913,85.9209116 20.0174733,86.7763114 18.7975805,87.4160113 C17.5776877,88.0557112 16.1941715,88.3755564 14.6469904,88.3755564 C13.2485767,88.3755564 11.9468814,88.1598468 10.7418653,87.7284213 C9.53684925,87.2969958 8.54756079,86.5606082 7.77397023,85.5192363 L7.68471023,85.5192363 L7.68471023,98.0156366 L0.990210072,98.0156366 L0.990210072,68.0799354 L7.14915022,66.1848769 Z M7.14915022,76.9949061 C7.14915022,78.6313476 7.61776054,79.9553578 8.55499525,80.9669762 C9.49222996,81.9785946 10.8088018,82.4843962 12.5047503,82.4843962 C14.2006989,82.4843962 15.5172707,81.9785946 16.4545054,80.9669762 C17.3917402,79.9553578 17.8603505,78.6313476 17.8603505,76.9949061 C17.8603505,75.3584645 17.3917402,74.0344544 16.4545054,73.022836 C15.5172707,72.0112176 14.2006989,71.5054159 12.5047503,71.5054159 C10.8088018,71.5054159 9.49222996,72.0112176 8.55499525,73.022836 C7.61776054,74.0344544 7.14915022,75.3584645 7.14915022,76.9949061 Z" id="Combined-Shape"></path>
                    <path d="M7.00309264,28.2298176 L7.05989022,28.2298176 L7.05989022,31.7109577 L7.14915022,31.7109577 C7.86323381,30.372051 8.71119535,29.367886 9.69306028,28.6984327 C10.6749252,28.0289793 11.9096762,27.6942576 13.3973504,27.6942576 C13.7841456,27.6942576 14.1709351,27.7091342 14.5577304,27.7388876 C14.9445257,27.7686411 15.3015621,27.8281472 15.6288504,27.9174076 L15.6288504,34.0317178 C15.1527947,33.8829504 14.6841844,33.7713765 14.2230054,33.6969928 C13.7618264,33.6226091 13.2783396,33.5854178 12.7725304,33.5854178 C11.4931306,33.5854178 10.4815274,33.763936 9.73769028,34.1209778 C8.99385321,34.4780196 8.42110726,34.9763829 8.01943524,35.6160828 C7.61776322,36.2557827 7.35742415,37.0219234 7.23841022,37.9145279 C7.11939629,38.8071324 7.05989022,39.7889826 7.05989022,40.860108 L7.05989022,49.9199982 L0.365390057,49.9199982 L0.365390057,30.2721877 L7.00309264,28.2298176 Z" id="Combined-Shape"></path>
                </g>
                <g id="lab-logo">
                    <path d="M218.404741,29.1950934 C217.959025,29.1950934 217.597821,28.8154811 217.597821,28.3497587 L217.597821,22.8253695 L217.597821,2.42575871 L213.050356,2.42575871 L213.050356,28.3497587 C213.050356,31.1525828 215.030032,33.4617896 217.597821,33.8729352 C217.8502,33.914171 218.103738,33.9505556 218.365379,33.954194 L218.365379,33.9590453 L219.578654,33.9590453 L219.578654,29.1950934 L218.404741,29.1950934 Z" id="Fill-1"></path>
                    <path d="M233.182496,29.7140585 C229.010127,29.7140585 225.614579,26.1774791 225.614579,21.8307369 C225.614579,17.4839946 229.010127,13.9474152 233.182496,13.9474152 C237.354864,13.9474152 240.750412,17.4839946 240.750412,21.8307369 C240.750412,26.1774791 237.354864,29.7140585 233.182496,29.7140585 L233.182496,29.7140585 Z M240.750412,9.70254972 L240.750412,11.861367 C238.668859,10.135526 236.042026,9.09614036 233.182496,9.09614036 C226.455073,9.09614036 220.98376,14.8085165 220.98376,21.8307369 C220.98376,28.8529572 226.455073,34.5653334 233.182496,34.5653334 C236.042026,34.5653334 238.668859,33.5259477 240.750412,31.8001067 L240.750412,33.958924 L245.381231,33.958924 L245.381231,9.70254972 L240.750412,9.70254972 Z" id="Fill-3"></path>
                    <path d="M261.052155,29.7140585 C256.879787,29.7140585 253.485396,26.1774791 253.485396,21.8307369 C253.485396,17.4839946 256.879787,13.9474152 261.052155,13.9474152 C265.224523,13.9474152 268.620071,17.4839946 268.620071,21.8307369 C268.620071,26.1774791 265.224523,29.7140585 261.052155,29.7140585 M261.052155,9.09614036 C258.193782,9.09614036 255.566949,10.135526 253.485396,11.861367 L253.485396,2.42563743 L248.854577,2.42563743 L248.854577,33.958924 L253.485396,33.958924 L253.485396,31.8001067 C255.566949,33.5259477 258.193782,34.5653334 261.052155,34.5653334 C267.779577,34.5653334 273.25089,28.8529572 273.25089,21.8307369 C273.25089,14.8085165 267.779577,9.09614036 261.052155,9.09614036" id="Fill-5"></path>
                    <path d="M95.8036867,10.3842751 C92.5667441,10.3842751 90.4134131,11.5631349 88.8400923,14.4848152 C87.6708105,11.7038219 85.2257379,10.3842751 82.1682395,10.3842751 C78.8873041,10.3842751 76.4028696,12.2702082 75.7696051,14.0603286 L75.7696051,10.3842751 L68.8071684,12.3635953 L68.8071684,33.8862762 L75.7696051,33.8862762 L75.7696051,22.4493957 C75.7696051,19.4792027 76.2604719,16.6048223 79.7671598,16.6048223 C82.8674932,16.6048223 82.7308841,20.0443762 82.7308841,21.7411096 L82.7308841,33.8862762 L89.6921631,33.8862762 L89.6921631,21.7411096 C89.6921631,18.9140291 90.6333771,16.6048223 93.7360259,16.6048223 C95.9379805,16.6048223 96.6545997,18.3949427 96.6545997,20.5161627 L96.6545997,33.8862762 L103.617036,33.8862762 L103.617036,20.3269629 C103.617036,14.767402 101.735766,10.3842751 95.8036867,10.3842751" id="Fill-7"></path>
                    <polygon id="Fill-9" points="167.808989 10.6809306 162.680357 25.9309131 162.591214 25.9309131 157.058542 10.6809306 149.770791 10.6809306 158.812465 33.885791 165.963608 33.885791 174.600086 10.6809306"></polygon>
                    <path d="M185.19239,10.3105357 C178.445286,10.3105357 173.078167,15.0223364 173.078167,22.3271436 C173.078167,29.6307379 178.491595,34.3437514 185.238698,34.3437514 C188.747701,34.3437514 192.308801,32.6931051 194.467921,29.8199376 L189.749116,26.191184 C188.624985,27.7921047 187.141965,29.0024978 184.936537,29.0024978 C182.327071,29.0024978 180.396019,27.2560388 179.857686,24.6036043 L195.384823,24.6036043 L195.384823,22.3271436 C195.384823,15.0223364 191.490304,10.3105357 185.19239,10.3105357 L185.19239,10.3105357 Z M179.857686,19.2999481 C180.03713,17.3109254 181.656759,14.9641211 184.625115,14.9641211 C187.053979,14.9641211 188.80906,17.3109254 188.763909,19.2999481 L179.857686,19.2999481 Z" id="Fill-11"></path>
                    <path d="M203.613094,25.5094586 L203.613094,0.000242563743 L197.283922,1.41317637 L197.283922,26.3487291 C197.283922,32.1993666 201.436609,33.7784566 203.90252,33.7784566 C204.996551,33.7784566 206.143837,33.5128493 206.777101,33.0495525 L206.777101,27.4863531 C205.51173,28.0964009 203.613094,27.0970383 203.613094,25.5094586" id="Fill-13"></path>
                    <path d="M139.477406,10.3100506 C134.479594,10.3100506 130.226187,12.8969929 128.354178,17.204925 C126.481012,12.8969929 122.226446,10.3100506 117.23095,10.3100506 C110.482689,10.3100506 105.085469,15.0230641 105.085469,22.3266584 C105.085469,29.6302527 110.482689,34.3432663 117.23095,34.3432663 C122.226446,34.3432663 126.481012,31.7563239 128.354178,27.4483919 C130.226187,31.7563239 134.479594,34.3432663 139.477406,34.3432663 C146.224509,34.3432663 151.622887,29.6302527 151.622887,22.3266584 C151.622887,15.0230641 146.224509,10.3100506 139.477406,10.3100506 M117.23095,28.4550314 C113.758994,28.4550314 111.515362,26.0487991 111.515362,22.3266584 C111.515362,18.6045178 113.758994,16.1994983 117.23095,16.1994983 C120.701749,16.1994983 122.945381,18.6045178 122.945381,22.3266584 C122.945381,26.0487991 120.701749,28.4550314 117.23095,28.4550314 M139.477406,28.4550314 C136.006607,28.4550314 133.764133,26.0487991 133.764133,22.3266584 C133.764133,18.6045178 136.006607,16.1994983 139.477406,16.1994983 C142.948205,16.1994983 145.190679,18.6045178 145.190679,22.3266584 C145.190679,26.0487991 142.948205,28.4550314 139.477406,28.4550314" id="Fill-15"></path>
                    <path d="M41.8940049,3.64767357 C37.2979168,3.64767357 33.1070254,5.45962473 29.9337566,8.43709467 C26.75933,5.45962473 22.5684386,3.64767357 17.9735082,3.64767357 C8.06587054,3.64767357 0.0325569134,12.0622098 0.0325569134,22.4415124 C0.0325569134,32.8220277 8.06587054,41.2353512 17.9735082,41.2353512 C22.5684386,41.2353512 26.75933,39.4246128 29.9337566,36.4459301 C33.1070254,39.4246128 37.2979168,41.2353512 41.8940049,41.2353512 C51.8016426,41.2353512 59.8349562,32.8220277 59.8349562,22.4415124 C59.8349562,12.0622098 51.8016426,3.64767357 41.8940049,3.64767357 M49.9632073,24.3820223 C49.933107,24.4135556 41.5455357,33.1967887 41.5455357,33.1967887 C40.5070745,34.2846871 38.822614,34.278623 37.7841528,33.1907246 C36.7456916,32.1028262 36.7456916,30.3308981 37.7841528,29.2417869 L41.5617436,25.26738 L12.844876,25.26738 C11.3757486,25.26738 10.185628,24.1540124 10.185628,22.6149454 C10.185628,21.0770913 11.3757486,19.9637237 12.844876,19.9637237 L41.7597111,19.9637237 L37.7841528,15.6824737 C36.7456916,14.5945753 36.7456916,12.7134935 37.7841528,11.6255951 C38.822614,10.5376967 40.5070745,10.5376967 41.544378,11.6255951 L49.9632073,20.4452128 C51.0016686,21.5331111 51.0016686,23.2929111 49.9632073,24.3820223" id="Fill-17"></path>
                </g>
            </g>
        </g>
    </g>
</svg>