<?xml version="1.0" encoding="UTF-8" standalone="no"?>
<svg width="610px" height="271px"  viewport="0 0 610 271" version="1.1" xmlns="http://www.w3.org/2000/svg" xmlns:xlink="http://www.w3.org/1999/xlink">
<path id="65" stroke-linecap="round" stroke="#6566CC" stroke-width="5" fill="none" moovel_name="San Francisco Bay Railroad" moovel_neighborhood="Central Waterfront" moovel_area="2171.41" moovel_length="473.67" d="M6,2 L22.5,1.5 L81,1 L153.5,0.5 L368.5,1 L379,1.5 " />
<path id="66" stroke-linecap="round" stroke="#6566CC" stroke-width="5" fill="none" moovel_name="San Francisco Bay Railroad" moovel_neighborhood="Central Waterfront" moovel_area="266.41" moovel_length="58.11" d="M381.5,2.5 L427,2.5 " />
<path id="67" stroke-linecap="round" stroke="#6566CC" stroke-width="5" fill="none" moovel_name="San Francisco Bay Railroad" moovel_neighborhood="Central Waterfront" moovel_area="3293.98" moovel_length="718.55" d="M429,2 L439,1.5 L471,1 L534.5,0.5 L568,1 L568,1.5 L568,2 L568.5,3 L568.5,4.5 L568.5,5.5 L568.5,7 L568.5,8 L568,9 L568,9.5 L567.5,10 L519.5,10.5 L398.5,11 L180.5,10.5 L154.5,10 L153,9.5 " />
<path id="68" stroke-linecap="round" stroke="#6566CC" stroke-width="5" fill="none" moovel_name="San Francisco Bay Railroad" moovel_neighborhood="Central Waterfront" moovel_area="649.16" moovel_length="141.61" d="M150.5,8 L133,7.5 L44.5,8 L39.5,8 " />
<path id="69" stroke-linecap="round" stroke="#6566CC" stroke-width="5" fill="none" moovel_name="San Francisco Bay Railroad" moovel_neighborhood="Central Waterfront" moovel_area="1625.08" moovel_length="312.49" d="M37,8.5 L4,9 L3.5,9.5 L3,10 L3,10.5 L3,11 L3,12 L3,12.5 L3.5,13 L4,13.5 L210.5,13.5 " />
<path id="70" stroke-linecap="round" stroke="#6566CC" stroke-width="5" fill="none" moovel_name="San Francisco Bay Railroad" moovel_neighborhood="Central Waterfront" moovel_area="2373.50" moovel_length="456.41" d="M213,14 L221,13.5 L568.5,14 L569.5,14.5 L570,15 L570.5,15.5 L570.5,16.5 L570.5,17.5 " />
<path id="71" stroke-linecap="round" stroke="#6566CC" stroke-width="5" fill="none" moovel_name="San Francisco Bay Railroad" moovel_neighborhood="Central Waterfront" moovel_area="1698.74" moovel_length="326.66" d="M568.5,19.5 L378,19 L311.5,19 " />
<path id="72" stroke-linecap="round" stroke="#6566CC" stroke-width="5" fill="none" moovel_name="San Francisco Bay Railroad" moovel_neighborhood="Central Waterfront" moovel_area="2077.02" moovel_length="399.40" d="M309,19.5 L219,19 L3,19.5 L2.5,20.5 L2.5,21 L2.5,22 L2.5,23 L2.5,23.5 L3.5,24 L4,24.5 L4.5,25 L7,25 " />
<path id="73" stroke-linecap="round" stroke="#6566CC" stroke-width="5" fill="none" moovel_name="San Francisco Bay Railroad" moovel_neighborhood="Central Waterfront" moovel_area="4547.41" moovel_length="874.44" d="M10,25.5 L11.5,26 L91,26.5 L289,27 L467.5,27.5 L569,28 L570,28.5 L570.5,29 L570.5,29.5 L571,30 L570.5,30.5 L570,31.5 L569.5,32 L568,32.5 L511.5,32 L444.5,32 " />
<path id="74" stroke-linecap="round" stroke="#6566CC" stroke-width="5" fill="none" moovel_name="San Francisco Bay Railroad" moovel_neighborhood="Central Waterfront" moovel_area="1064.76" moovel_length="204.75" d="M442,31.5 L396.5,32 L294.5,31.5 L281.5,31.5 " />
<path id="75" stroke-linecap="round" stroke="#6566CC" stroke-width="5" fill="none" moovel_name="San Francisco Bay Railroad" moovel_neighborhood="Central Waterfront" moovel_area="1531.64" moovel_length="294.53" d="M279,31 L47,31 " />
<path id="76" stroke-linecap="round" stroke="#6566CC" stroke-width="5" fill="none" moovel_name="San Francisco Bay Railroad" moovel_neighborhood="Central Waterfront" moovel_area="1950.87" moovel_length="375.14" d="M44.5,31 L3.5,31.5 L2.5,32 L2,33 L2,34 L2,35 L2.5,35.5 L3,36.5 L3.5,37 L4.5,37.5 L252.5,37.5 " />
<path id="77" stroke-linecap="round" stroke="#6566CC" stroke-width="5" fill="none" moovel_name="San Francisco Bay Railroad" moovel_neighborhood="Central Waterfront" moovel_area="1541.98" moovel_length="296.51" d="M255,37 L259.5,37.5 L488,37 " />
<path id="78" stroke-linecap="round" stroke="#6566CC" stroke-width="5" fill="none" moovel_name="San Francisco Bay Railroad" moovel_neighborhood="Central Waterfront" moovel_area="1883.48" moovel_length="362.18" d="M491,37 L569,37.5 L570,38 L570,39 L570.5,39.5 L570,40.5 L570,41 L569.5,42 L569,42.5 L562,43 L551,42.5 L371.5,43 L368,43 " />
<path id="79" stroke-linecap="round" stroke="#6566CC" stroke-width="5" fill="none" moovel_name="San Francisco Bay Railroad" moovel_neighborhood="Central Waterfront" moovel_area="1288.52" moovel_length="247.77" d="M366,43 L171,43 " />
<path id="80" stroke-linecap="round" stroke="#6566CC" stroke-width="5" fill="none" moovel_name="San Francisco Bay Railroad" moovel_neighborhood="Central Waterfront" moovel_area="1088.88" moovel_length="209.38" d="M169,43 L4.5,43 " />
<path id="81" stroke-linecap="round" stroke="#6566CC" stroke-width="5" fill="none" moovel_name="San Francisco Bay Railroad" moovel_neighborhood="Central Waterfront" moovel_area="7856.38" moovel_length="1510.74" d="M2.5,44 L2.5,45 L2,46 L2.5,46.5 L2.5,47.5 L3,48 L4,48.5 L4.5,49 L17.5,49.5 L107,50 L451.5,50.5 L570,51 L571,51.5 L571.5,52 L571.5,52.5 L571,53 L570.5,53.5 L569.5,54 L457,53.5 L254.5,53 L3,54 L2,54.5 L2,55.5 L1.5,56.5 L1.5,57.5 L2,58.5 L2.5,59.5 L3.5,60 L4.5,60.5 L34.5,60 L49,60 " />
<path id="82" stroke-linecap="round" stroke="#6566CC" stroke-width="5" fill="none" moovel_name="San Francisco Bay Railroad" moovel_neighborhood="Central Waterfront" moovel_area="177.43" moovel_length="34.12" d="M51,60 L77,60 " />
<path id="83" stroke-linecap="round" stroke="#6566CC" stroke-width="5" fill="none" moovel_name="San Francisco Bay Railroad" moovel_neighborhood="Central Waterfront" moovel_area="833.85" moovel_length="160.34" d="M79.5,60 L205,60 " />
<path id="84" stroke-linecap="round" stroke="#6566CC" stroke-width="5" fill="none" moovel_name="San Francisco Bay Railroad" moovel_neighborhood="Central Waterfront" moovel_area="666.21" moovel_length="128.11" d="M207.5,60 L210.5,59.5 L306,60 L307.5,60 " />
<path id="85" stroke-linecap="round" stroke="#6566CC" stroke-width="5" fill="none" moovel_name="San Francisco Bay Railroad" moovel_neighborhood="Central Waterfront" moovel_area="6337.20" moovel_length="1218.61" d="M310,60 L312,59.5 L367.5,59 L458,58.5 L539.5,58 L568,58.5 L568.5,59 L568.5,60 L569,61 L569,62 L569,63 L569,64 L568.5,65 L568.5,66 L568,66.5 L517,67 L433,67.5 L349.5,68 L251.5,68.5 L126,69 L4,69.5 L3.5,70 L3.5,70.5 L3.5,71 L3.5,71.5 L3.5,72 L4,72.5 L5,73 L82,72.5 L128.5,72.5 " />
<path id="86" stroke-linecap="round" stroke="#6566CC" stroke-width="5" fill="none" moovel_name="San Francisco Bay Railroad" moovel_neighborhood="Central Waterfront" moovel_area="523.52" moovel_length="100.67" d="M131,71.5 L138.5,71 L158,71.5 L172.5,72 L207.5,71.5 L209.5,71.5 " />
<path id="87" stroke-linecap="round" stroke="#6566CC" stroke-width="5" fill="none" moovel_name="San Francisco Bay Railroad" moovel_neighborhood="Central Waterfront" moovel_area="641.28" moovel_length="123.31" d="M212.5,71.5 L223,71 L252.5,71.5 L260.5,72 L306.5,71.5 L309,71.5 " />
<path id="88" stroke-linecap="round" stroke="#6566CC" stroke-width="5" fill="none" moovel_name="San Francisco Bay Railroad" moovel_neighborhood="Central Waterfront" moovel_area="749.89" moovel_length="144.20" d="M311,71.5 L314,72 L373.5,71.5 L382,71 L420,71.5 L424,71.5 " />
<path id="89" stroke-linecap="round" stroke="#6566CC" stroke-width="5" fill="none" moovel_name="San Francisco Bay Railroad" moovel_neighborhood="Central Waterfront" moovel_area="3605.77" moovel_length="693.37" d="M426,71.5 L428.5,71 L469.5,70.5 L544,70 L568,70.5 L568.5,71.5 L569,72.5 L569,73.5 L569,74.5 L569,75.5 L568.5,76.5 L568.5,77.5 L568,78 L567.5,78.5 L521.5,79 L432,79.5 L171.5,79 " />
<path id="90" stroke-linecap="round" stroke="#6566CC" stroke-width="5" fill="none" moovel_name="San Francisco Bay Railroad" moovel_neighborhood="Central Waterfront" moovel_area="1141.05" moovel_length="219.42" d="M168.5,77 L63.5,77.5 L3.5,78 L3,78.5 L3,79 L2.5,80 L2.5,80.5 L3,81.5 L3.5,82 L4,82.5 L4.5,83 L5.5,83 " />
<path id="91" stroke-linecap="round" stroke="#6566CC" stroke-width="5" fill="none" moovel_name="San Francisco Bay Railroad" moovel_neighborhood="Central Waterfront" moovel_area="777.61" moovel_length="149.53" d="M7.5,83 L17.5,83.5 L121,83 L124.5,83 " />
<path id="92" stroke-linecap="round" stroke="#6566CC" stroke-width="5" fill="none" moovel_name="San Francisco Bay Railroad" moovel_neighborhood="Central Waterfront" moovel_area="4928.14" moovel_length="947.65" d="M127.5,83.5 L161.5,84 L251,84.5 L340.5,85 L429.5,85.5 L519.5,86 L570.5,86.5 L572,87 L572,87.5 L571.5,88 L569.5,88.5 L509.5,88 L270,88.5 L269.5,88.5 " />
<path id="93" stroke-linecap="round" stroke="#6566CC" stroke-width="5" fill="none" moovel_name="San Francisco Bay Railroad" moovel_neighborhood="Central Waterfront" moovel_area="566.97" moovel_length="109.03" d="M267,89 L261.5,89.5 L185.5,89 L181.5,89 " />
<path id="94" stroke-linecap="round" stroke="#6566CC" stroke-width="5" fill="none" moovel_name="San Francisco Bay Railroad" moovel_neighborhood="Central Waterfront" moovel_area="1634.03" moovel_length="314.22" d="M179.5,89 L166.5,89.5 L74.5,90 L4,90.5 L4,91 L3.5,91.5 L3.5,92 L3.5,92.5 L3.5,93 L4.5,93.5 L5.5,94 L28,93.5 L30.5,94 L69,94.5 L69.5,94.5 " />
<path id="95" stroke-linecap="round" stroke="#6566CC" stroke-width="5" fill="none" moovel_name="San Francisco Bay Railroad" moovel_neighborhood="Central Waterfront" moovel_area="3014.68" moovel_length="579.71" d="M71.5,95 L84.5,95.5 L186,96 L520,95.5 L528.5,95 " />
<path id="96" stroke-linecap="round" stroke="#6566CC" stroke-width="5" fill="none" moovel_name="San Francisco Bay Railroad" moovel_neighborhood="Central Waterfront" moovel_area="7027.24" moovel_length="1351.30" d="M531,94 L543.5,93.5 L568.5,94 L568.5,94.5 L569,95 L569,96 L569.5,97 L569,98.5 L569,99.5 L568.5,100 L568.5,101 L568,101.5 L525,102 L462,102.5 L399.5,103 L327.5,103.5 L146.5,104 L62.5,104.5 L4,105 L4,105.5 L3.5,106 L3.5,106.5 L4,107 L4,107.5 L4.5,108 L100,108.5 L226.5,108 L286,107.5 L338.5,107 L392,106.5 L439,106 L454,105.5 L454.5,105.5 " />
<path id="97" stroke-linecap="round" stroke="#6566CC" stroke-width="5" fill="none" moovel_name="San Francisco Bay Railroad" moovel_neighborhood="Central Waterfront" moovel_area="17305.01" moovel_length="3327.66" d="M457,106 L458,106.5 L497.5,107 L569,107.5 L570.5,108 L571,108.5 L571.5,109 L571.5,109.5 L571,110 L570.5,110.5 L568.5,111 L545.5,110.5 L405.5,110 L254.5,109.5 L104,109 L3,109.5 L2,110.5 L1.5,111.5 L1,112.5 L1,113.5 L1.5,115 L2,116 L2.5,116.5 L3.5,117.5 L34,118 L178,118.5 L321,119 L464,119.5 L569.5,120 L572,120.5 L572,121 L571.5,121.5 L569.5,122 L536.5,121.5 L400,121 L263.5,120.5 L127,120 L3,120.5 L2,121.5 L1,122.5 L0.5,123.5 L0.5,125 L1,126 L1.5,127 L2.5,128 L3.5,129 L27.5,129.5 L170.5,130 L321,130.5 L472.5,131 L570,131.5 L571.5,132 L571.5,132.5 L571.5,133 L571,133.5 L570.5,134 L567.5,134.5 L557,134 L412.5,133.5 L350.5,134 L345.5,134.5 " />
<path id="98" stroke-linecap="round" stroke="#6566CC" stroke-width="5" fill="none" moovel_name="San Francisco Bay Railroad" moovel_neighborhood="Central Waterfront" moovel_area="17247.71" moovel_length="3316.64" d="M343,134.5 L317.5,134 L226,133.5 L122,133 L7.5,132.5 L4,133 L3,133.5 L2,134.5 L1.5,135.5 L1.5,136.5 L1.5,137.5 L1.5,138.5 L2,139.5 L3,140 L4,140.5 L5,141 L85.5,141.5 L222.5,142 L358,142.5 L495.5,143 L570,143.5 L571.5,144 L572,144.5 L571.5,145 L570,145.5 L475,145 L345,144.5 L215,144 L84,143.5 L3.5,144 L2.5,144.5 L1.5,145.5 L1,146.5 L0.5,148 L0.5,149 L1,150.5 L2,151.5 L3,152 L4,152.5 L5.5,153 L135.5,153.5 L286.5,154 L437.5,154.5 L569.5,155 L571.5,155.5 L572,156 L571.5,156.5 L570.5,157 L454.5,156.5 L275.5,156 L97.5,155.5 L12,156 L10.5,156 " />
<path id="99" stroke-linecap="round" stroke="#6566CC" stroke-width="5" fill="none" moovel_name="San Francisco Bay Railroad" moovel_neighborhood="Central Waterfront" moovel_area="790.75" moovel_length="152.06" d="M8,158 L3.5,158.5 L3,159 L2.5,160 L2.5,160.5 L2.5,161.5 L3,162 L3.5,163 L4,163.5 L113,163.5 " />
<path id="100" stroke-linecap="round" stroke="#6566CC" stroke-width="5" fill="none" moovel_name="San Francisco Bay Railroad" moovel_neighborhood="Central Waterfront" moovel_area="159.24" moovel_length="30.62" d="M115.5,163.5 L138.5,163.5 " />
<path id="101" stroke-linecap="round" stroke="#6566CC" stroke-width="5" fill="none" moovel_name="San Francisco Bay Railroad" moovel_neighborhood="Central Waterfront" moovel_area="875.11" moovel_length="168.28" d="M141.5,163.5 L146,164 L261.5,163.5 L273.5,163.5 " />
<path id="102" stroke-linecap="round" stroke="#6566CC" stroke-width="5" fill="none" moovel_name="San Francisco Bay Railroad" moovel_neighborhood="Central Waterfront" moovel_area="214.33" moovel_length="41.21" d="M275.5,163.5 L307.5,163.5 " />
<path id="103" stroke-linecap="round" stroke="#6566CC" stroke-width="5" fill="none" moovel_name="San Francisco Bay Railroad" moovel_neighborhood="Central Waterfront" moovel_area="1083.09" moovel_length="208.27" d="M309.5,163.5 L359.5,164 L473,164 " />
<path id="104" stroke-linecap="round" stroke="#6566CC" stroke-width="5" fill="none" moovel_name="San Francisco Bay Railroad" moovel_neighborhood="Central Waterfront" moovel_area="219.86" moovel_length="42.28" d="M475,163.5 L489,163 L496,163.5 L507.5,163.5 " />
<path id="105" stroke-linecap="round" stroke="#6566CC" stroke-width="5" fill="none" moovel_name="San Francisco Bay Railroad" moovel_neighborhood="Central Waterfront" moovel_area="1888.58" moovel_length="363.16" d="M510,163.5 L512,164 L570,164.5 L570.5,165 L570.5,166 L570.5,166.5 L570.5,167 L570,168 L569.5,168.5 L568,169 L348.5,169 " />
<path id="106" stroke-linecap="round" stroke="#6566CC" stroke-width="5" fill="none" moovel_name="San Francisco Bay Railroad" moovel_neighborhood="Central Waterfront" moovel_area="1272.28" moovel_length="244.65" d="M346,169.5 L345.5,169 L154,169 " />
<path id="107" stroke-linecap="round" stroke="#6566CC" stroke-width="5" fill="none" moovel_name="San Francisco Bay Railroad" moovel_neighborhood="Central Waterfront" moovel_area="521.96" moovel_length="100.37" d="M151.5,169.5 L130,170 L113.5,169.5 L73,169.5 " />
<path id="108" stroke-linecap="round" stroke="#6566CC" stroke-width="5" fill="none" moovel_name="San Francisco Bay Railroad" moovel_neighborhood="Central Waterfront" moovel_area="685.51" moovel_length="131.82" d="M71,169.5 L5,170 L4,170.5 L3,171.5 L3,172 L3,172.5 L3,173.5 L3.5,174 L4,174.5 L25,175 L34.5,175 " />
<path id="109" stroke-linecap="round" stroke="#6566CC" stroke-width="5" fill="none" moovel_name="San Francisco Bay Railroad" moovel_neighborhood="Central Waterfront" moovel_area="663.61" moovel_length="127.61" d="M36.5,175 L39,175.5 L136.5,175 " />
<path id="110" stroke-linecap="round" stroke="#6566CC" stroke-width="5" fill="none" moovel_name="San Francisco Bay Railroad" moovel_neighborhood="Central Waterfront" moovel_area="1008.36" moovel_length="193.90" d="M139.5,175 L141,175.5 L289,175 L291.5,175 " />
<path id="111" stroke-linecap="round" stroke="#6566CC" stroke-width="5" fill="none" moovel_name="San Francisco Bay Railroad" moovel_neighborhood="Central Waterfront" moovel_area="1240.90" moovel_length="238.62" d="M294,175 L306,174.5 L475,175 L481.5,175 " />
<path id="112" stroke-linecap="round" stroke="#6566CC" stroke-width="5" fill="none" moovel_name="San Francisco Bay Railroad" moovel_neighborhood="Central Waterfront" moovel_area="537.60" moovel_length="103.38" d="M484,175 L502,174.5 L560.5,175 L565,175 " />
<path id="113" stroke-linecap="round" stroke="#6566CC" stroke-width="5" fill="none" moovel_name="San Francisco Bay Railroad" moovel_neighborhood="Central Waterfront" moovel_area="832.25" moovel_length="160.04" d="M567,175 L569,175.5 L569.5,176 L570,177 L570,177.5 L570,178.5 L570,179 L569.5,180 L569,180.5 L568.5,181 L506.5,181.5 L458.5,181 L451.5,181 " />
<path id="114" stroke-linecap="round" stroke="#6566CC" stroke-width="5" fill="none" moovel_name="San Francisco Bay Railroad" moovel_neighborhood="Central Waterfront" moovel_area="961.31" moovel_length="184.85" d="M449.5,180.5 L304,180.5 " />
<path id="115" stroke-linecap="round" stroke="#6566CC" stroke-width="5" fill="none" moovel_name="San Francisco Bay Railroad" moovel_neighborhood="Central Waterfront" moovel_area="1792.79" moovel_length="344.74" d="M301.5,181 L233.5,180.5 L30.5,180.5 " />
<path id="116" stroke-linecap="round" stroke="#6566CC" stroke-width="5" fill="none" moovel_name="San Francisco Bay Railroad" moovel_neighborhood="Central Waterfront" moovel_area="467.27" moovel_length="89.85" d="M28,180.5 L3.5,181 L3,181.5 L2.5,182 L2,183 L2,184 L2.5,184.5 L2.5,185.5 L3,186 L4,186.5 L4.5,187 L42.5,186.5 L44,186.5 " />
<path id="117" stroke-linecap="round" stroke="#6566CC" stroke-width="5" fill="none" moovel_name="San Francisco Bay Railroad" moovel_neighborhood="Central Waterfront" moovel_area="573.87" moovel_length="110.35" d="M46.5,186.5 L81,186 L123,186.5 L133,186.5 " />
<path id="118" stroke-linecap="round" stroke="#6566CC" stroke-width="5" fill="none" moovel_name="San Francisco Bay Railroad" moovel_neighborhood="Central Waterfront" moovel_area="2653.81" moovel_length="510.31" d="M135,187 L165.5,187.5 L528,187 L537,187 " />
<path id="119" stroke-linecap="round" stroke="#6566CC" stroke-width="5" fill="none" moovel_name="San Francisco Bay Railroad" moovel_neighborhood="Central Waterfront" moovel_area="1568.25" moovel_length="301.57" d="M539,186.5 L541,186 L568.5,186.5 L569,187 L569.5,187.5 L569.5,188.5 L569.5,189.5 L569.5,190.5 L569.5,191 L569,192 L568.5,192.5 L568,193 L522,193.5 L480,193 L368,192.5 " />
<path id="120" stroke-linecap="round" stroke="#6566CC" stroke-width="5" fill="none" moovel_name="San Francisco Bay Railroad" moovel_neighborhood="Central Waterfront" moovel_area="1095.94" moovel_length="210.74" d="M365.5,192.5 L324,193 L291,192.5 L199.5,192.5 " />
<path id="121" stroke-linecap="round" stroke="#6566CC" stroke-width="5" fill="none" moovel_name="San Francisco Bay Railroad" moovel_neighborhood="Central Waterfront" moovel_area="1424.02" moovel_length="273.83" d="M197,192.5 L4,193 L3.5,193.5 L3,194 L2.5,195 L2.5,195.5 L2.5,196.5 L3,197 L3.5,197.5 L4,198 L5,198.5 L20,198.5 " />
<path id="122" stroke-linecap="round" stroke="#6566CC" stroke-width="5" fill="none" moovel_name="San Francisco Bay Railroad" moovel_neighborhood="Central Waterfront" moovel_area="1194.65" moovel_length="229.73" d="M22.5,198.5 L40,199 L190.5,198.5 L203,198.5 " />
<path id="123" stroke-linecap="round" stroke="#6566CC" stroke-width="5" fill="none" moovel_name="San Francisco Bay Railroad" moovel_neighborhood="Central Waterfront" moovel_area="1473.95" moovel_length="283.43" d="M205.5,198 L207.5,197.5 L262,197 L310.5,197.5 L428.5,198 " />
<path id="124" stroke-linecap="round" stroke="#6566CC" stroke-width="5" fill="none" moovel_name="San Francisco Bay Railroad" moovel_neighborhood="Central Waterfront" moovel_area="533.39" moovel_length="102.57" d="M431,198 L511,198 " />
<path id="125" stroke-linecap="round" stroke="#6566CC" stroke-width="5" fill="none" moovel_name="San Francisco Bay Railroad" moovel_neighborhood="Central Waterfront" moovel_area="1903.01" moovel_length="365.94" d="M514,198 L516,198.5 L568.5,199 L570,199.5 L570.5,200 L571,200.5 L571,201.5 L570.5,202 L570,202.5 L569.5,203 L350,203.5 L342,203.5 " />
<path id="126" stroke-linecap="round" stroke="#6566CC" stroke-width="5" fill="none" moovel_name="San Francisco Bay Railroad" moovel_neighborhood="Central Waterfront" moovel_area="737.68" moovel_length="141.85" d="M339.5,204 L335,204.5 L231.5,204 L228.5,204 " />
<path id="127" stroke-linecap="round" stroke="#6566CC" stroke-width="5" fill="none" moovel_name="San Francisco Bay Railroad" moovel_neighborhood="Central Waterfront" moovel_area="2959.82" moovel_length="569.16" d="M226,203.5 L3.5,204 L3,204.5 L2.5,205.5 L2,206 L2,207 L2.5,208 L3,209 L3.5,209.5 L4,210 L223.5,209.5 L224,209.5 " />
<path id="128" stroke-linecap="round" stroke="#6566CC" stroke-width="5" fill="none" moovel_name="San Francisco Bay Railroad" moovel_neighborhood="Central Waterfront" moovel_area="3766.38" moovel_length="724.25" d="M226,209.5 L229.5,209 L569,209.5 L569.5,210 L570,210.5 L570,211.5 L570,212.5 L570,213 L570,214 L569.5,214.5 L568.5,215 L498,214.5 L390.5,215 L347,215 " />
<path id="129" stroke-linecap="round" stroke="#6566CC" stroke-width="5" fill="none" moovel_name="San Francisco Bay Railroad" moovel_neighborhood="Central Waterfront" moovel_area="939.64" moovel_length="180.69" d="M345,215 L333.5,214.5 L213.5,215 L203,215 " />
<path id="130" stroke-linecap="round" stroke="#6566CC" stroke-width="5" fill="none" moovel_name="San Francisco Bay Railroad" moovel_neighborhood="Central Waterfront" moovel_area="3416.94" moovel_length="657.06" d="M200.5,215 L186.5,214.5 L3.5,215 L2.5,215.5 L2,216.5 L1.5,217.5 L1.5,218.5 L2,219.5 L2.5,220.5 L3,221 L4,221.5 L5,222 L318.5,221.5 L319,221.5 " />
<path id="131" stroke-linecap="round" stroke="#6566CC" stroke-width="5" fill="none" moovel_name="San Francisco Bay Railroad" moovel_neighborhood="Central Waterfront" moovel_area="423.46" moovel_length="81.43" d="M321,221 L384.5,221 " />
<path id="132" stroke-linecap="round" stroke="#6566CC" stroke-width="5" fill="none" moovel_name="San Francisco Bay Railroad" moovel_neighborhood="Central Waterfront" moovel_area="2649.41" moovel_length="509.47" d="M386.5,221 L510.5,221.5 L569.5,222 L570,222.5 L570.5,223.5 L570.5,224 L570.5,225 L570,225.5 L569.5,226 L569,226.5 L568,227 L477.5,226.5 L356,226.5 " />
<path id="133" stroke-linecap="round" stroke="#6566CC" stroke-width="5" fill="none" moovel_name="San Francisco Bay Railroad" moovel_neighborhood="Central Waterfront" moovel_area="7183.85" moovel_length="1381.42" d="M353.5,226.5 L330,226 L251,225.5 L166,225 L81,224.5 L2.5,225 L2,226 L1.5,227 L1,228.5 L1,229.5 L1.5,230.5 L2,231.5 L3,232.5 L4,233 L11.5,233.5 L104.5,234 L196.5,234.5 L309,235 L480,235.5 L570.5,236 L571.5,236.5 L571.5,237 L571.5,237.5 L570.5,238 L569.5,238.5 L484,238 L411.5,238.5 L406,238.5 " />
<path id="134" stroke-linecap="round" stroke="#6566CC" stroke-width="5" fill="none" moovel_name="San Francisco Bay Railroad" moovel_neighborhood="Central Waterfront" moovel_area="371.75" moovel_length="71.48" d="M403.5,238.5 L383.5,239 L370,238.5 L348,238.5 " />
<path id="135" stroke-linecap="round" stroke="#6566CC" stroke-width="5" fill="none" moovel_name="San Francisco Bay Railroad" moovel_neighborhood="Central Waterfront" moovel_area="679.51" moovel_length="130.67" d="M345,238.5 L243,238.5 " />
<path id="136" stroke-linecap="round" stroke="#6566CC" stroke-width="5" fill="none" moovel_name="San Francisco Bay Railroad" moovel_neighborhood="Central Waterfront" moovel_area="293.30" moovel_length="56.40" d="M240,238.5 L196.5,238.5 " />
<path id="137" stroke-linecap="round" stroke="#6566CC" stroke-width="5" fill="none" moovel_name="San Francisco Bay Railroad" moovel_neighborhood="Central Waterfront" moovel_area="787.15" moovel_length="151.36" d="M194.5,238.5 L156.5,238 L75.5,238 " />
<path id="138" stroke-linecap="round" stroke="#6566CC" stroke-width="5" fill="none" moovel_name="San Francisco Bay Railroad" moovel_neighborhood="Central Waterfront" moovel_area="1276.63" moovel_length="245.49" d="M73.5,238.5 L49.5,239 L3.5,239.5 L3,240 L3,241 L3,241.5 L3,242 L3.5,242.5 L4,243 L4.5,243.5 L58.5,244 L121,244 " />
<path id="139" stroke-linecap="round" stroke="#6566CC" stroke-width="5" fill="none" moovel_name="San Francisco Bay Railroad" moovel_neighborhood="Central Waterfront" moovel_area="364.79" moovel_length="70.15" d="M123.5,244.5 L178.5,244 " />
<path id="140" stroke-linecap="round" stroke="#6566CC" stroke-width="5" fill="none" moovel_name="San Francisco Bay Railroad" moovel_neighborhood="Central Waterfront" moovel_area="4441.09" moovel_length="854.00" d="M180.5,244 L182,243.5 L209.5,243 L568.5,243.5 L569,244 L569,245 L569.5,246 L569.5,247 L569.5,248 L569,249 L568.5,249.5 L568.5,250 L568,250.5 L290,250 " />
</svg>
