<?xml version="1.0" encoding="UTF-8" standalone="no"?>
<svg width="603px" height="260px"  viewport="0 0 603 260" version="1.1" xmlns="http://www.w3.org/2000/svg" xmlns:xlink="http://www.w3.org/1999/xlink">
<path id="65" stroke-linecap="round" stroke="#6566CC" stroke-width="4.227429320662058" fill="none" moovel_neighborhood="Central Waterfront" moovel_area="2171.41" moovel_cumulative_area="2171.41" moovel_length="473.67" d="M16.5,5 L122.5,4.5 L363.5,5 " />
<path id="66" stroke-linecap="round" stroke="#6566CC" stroke-width="4.227429320662058" fill="none" moovel_neighborhood="Central Waterfront" moovel_area="266.41" moovel_cumulative_area="2437.82" moovel_length="58.11" d="M370,5 L411.5,5 " />
<path id="67" stroke-linecap="round" stroke="#6566CC" stroke-width="4.227429320662058" fill="none" moovel_neighborhood="Central Waterfront" moovel_area="3293.98" moovel_cumulative_area="5731.80" moovel_length="718.55" d="M417.5,5 L483.5,4.5 L592,5 L593,6.5 L593,8 L593,9.5 L592,11 L591,11.5 L250,11.5 " />
<path id="68" stroke-linecap="round" stroke="#6566CC" stroke-width="4.227429320662058" fill="none" moovel_neighborhood="Central Waterfront" moovel_area="649.16" moovel_cumulative_area="6380.96" moovel_length="141.61" d="M243.5,11 L141,11 " />
<path id="69" stroke-linecap="round" stroke="#6566CC" stroke-width="4.227429320662058" fill="none" moovel_name="Caltrain" moovel_neighborhood="Mission Bay" moovel_area="1625.08" moovel_cumulative_area="8006.04" moovel_length="312.49" d="M135,11 L39,11.5 L13,12 L12.5,13 L12,14.5 L12.5,16 L14,16.5 L15,17 L114.5,17 " />
<path id="70" stroke-linecap="round" stroke="#6566CC" stroke-width="4.227429320662058" fill="none" moovel_name="Caltrain" moovel_neighborhood="Mission Bay" moovel_area="2373.50" moovel_cumulative_area="10379.54" moovel_length="456.41" d="M120.5,17 L454.5,17 " />
<path id="71" stroke-linecap="round" stroke="#6566CC" stroke-width="4.227429320662058" fill="none" moovel_name="Caltrain" moovel_neighborhood="Mission Bay" moovel_area="1698.74" moovel_cumulative_area="12078.28" moovel_length="326.66" d="M461.5,17 L592,17.5 L593,18.5 L593.5,20 L593.5,21 L592.5,22.5 L591.5,23 L490.5,23 " />
<path id="72" stroke-linecap="round" stroke="#6566CC" stroke-width="4.227429320662058" fill="none" moovel_name="Caltrain" moovel_neighborhood="Mission Bay" moovel_area="2077.02" moovel_cumulative_area="14155.30" moovel_length="399.40" d="M484,23 L348,22.5 L191.5,22.5 " />
<path id="73" stroke-linecap="round" stroke="#6566CC" stroke-width="4.227429320662058" fill="none" moovel_neighborhood="Little Hollywood" moovel_area="4547.41" moovel_cumulative_area="18702.71" moovel_length="874.44" d="M184.5,23 L102.5,22.5 L14,23 L12.5,24 L12,25 L12,26.5 L12.5,28 L14,28.5 L15.5,29 L410.5,29.5 L478,29.5 " />
<path id="74" stroke-linecap="round" stroke="#6566CC" stroke-width="4.227429320662058" fill="none" moovel_name="Caltrain" moovel_neighborhood="Mission Bay" moovel_area="1064.76" moovel_cumulative_area="19767.47" moovel_length="204.75" d="M484.5,29 L593,30 L593.5,31 L593.5,32.5 L593,34 L592,34.5 L590.5,35 L557,35 " />
<path id="75" stroke-linecap="round" stroke="#6566CC" stroke-width="4.227429320662058" fill="none" moovel_name="Caltrain" moovel_neighborhood="Mission Bay" moovel_area="1531.64" moovel_cumulative_area="21299.11" moovel_length="294.53" d="M550.5,35 L335,35 " />
<path id="76" stroke-linecap="round" stroke="#6566CC" stroke-width="4.227429320662058" fill="none" moovel_name="Caltrain" moovel_neighborhood="Mission Bay" moovel_area="1950.87" moovel_cumulative_area="23249.98" moovel_length="375.14" d="M328.5,35 L267,34.5 L54,34.5 " />
<path id="77" stroke-linecap="round" stroke="#6566CC" stroke-width="4.227429320662058" fill="none" moovel_name="Caltrain" moovel_neighborhood="Mission Bay" moovel_area="1541.98" moovel_cumulative_area="24791.96" moovel_length="296.51" d="M47.5,35 L13,35.5 L12,37 L12,38.5 L12.5,40 L14,40.5 L15,41 L190,41 " />
<path id="78" stroke-linecap="round" stroke="#6566CC" stroke-width="4.227429320662058" fill="none" moovel_name="Caltrain" moovel_neighborhood="Mission Bay" moovel_area="1883.48" moovel_cumulative_area="26675.44" moovel_length="362.18" d="M196,41 L461,41 " />
<path id="79" stroke-linecap="round" stroke="#6566CC" stroke-width="4.227429320662058" fill="none" moovel_name="Caltrain" moovel_neighborhood="Mission Bay" moovel_area="1288.52" moovel_cumulative_area="27963.96" moovel_length="247.77" d="M467,41 L592.5,41.5 L593.5,42.5 L593.5,44 L593.5,45.5 L592.5,46.5 L591,47 L543,47 " />
<path id="80" stroke-linecap="round" stroke="#6566CC" stroke-width="4.227429320662058" fill="none" moovel_name="Caltrain" moovel_neighborhood="Mission Bay" moovel_area="1088.88" moovel_cumulative_area="29052.84" moovel_length="209.38" d="M537,47 L384.5,47 " />
<path id="81" stroke-linecap="round" stroke="#6566CC" stroke-width="4.227429320662058" fill="none" moovel_name="San Francisco Bay Railroad" moovel_neighborhood="Central Waterfront" moovel_area="7856.38" moovel_cumulative_area="36909.22" moovel_length="1510.74" d="M377.5,46.5 L13,47.5 L12,48.5 L12,50.5 L12.5,51.5 L14,52.5 L15.5,53 L593,54 L594,55 L594,56 L593.5,57 L592.5,58 L591,58.5 L437.5,58.5 " />
<path id="82" stroke-linecap="round" stroke="#6566CC" stroke-width="4.227429320662058" fill="none" moovel_name="San Francisco Bay Railroad" moovel_neighborhood="Central Waterfront" moovel_area="177.43" moovel_cumulative_area="37086.65" moovel_length="34.12" d="M430.5,58.5 L424,59 L410,58.5 L407,58.5 " />
<path id="83" stroke-linecap="round" stroke="#6566CC" stroke-width="4.227429320662058" fill="none" moovel_name="San Francisco Bay Railroad" moovel_neighborhood="Central Waterfront" moovel_area="833.85" moovel_cumulative_area="37920.50" moovel_length="160.34" d="M400.5,58.5 L284,58.5 " />
<path id="84" stroke-linecap="round" stroke="#6566CC" stroke-width="4.227429320662058" fill="none" moovel_name="Union Pacific Railroad" moovel_neighborhood="Central Waterfront" moovel_area="666.21" moovel_cumulative_area="38586.71" moovel_length="128.11" d="M277,59 L184.5,58.5 " />
<path id="85" stroke-linecap="round" stroke="#6566CC" stroke-width="4.227429320662058" fill="none" moovel_name="Union Pacific Railroad" moovel_neighborhood="Central Waterfront" moovel_area="6337.20" moovel_cumulative_area="44923.91" moovel_length="1218.61" d="M178,59 L14,59.5 L13,60 L12.5,61.5 L12.5,62.5 L13.5,64 L14.5,64.5 L166,64 L427,63.5 L592.5,64 L593,65 L593.5,66.5 L593.5,68 L592.5,69 L591.5,70 L482,70.5 L453,70.5 " />
<path id="86" stroke-linecap="round" stroke="#6566CC" stroke-width="4.227429320662058" fill="none" moovel_name="San Francisco Bay Railroad" moovel_neighborhood="Central Waterfront" moovel_area="523.52" moovel_cumulative_area="45447.43" moovel_length="100.67" d="M446.5,70.5 L374,70.5 " />
<path id="87" stroke-linecap="round" stroke="#6566CC" stroke-width="4.227429320662058" fill="none" moovel_name="San Francisco Bay Railroad" moovel_neighborhood="Central Waterfront" moovel_area="641.28" moovel_cumulative_area="46088.71" moovel_length="123.31" d="M367,70.5 L278,70.5 " />
<path id="88" stroke-linecap="round" stroke="#6566CC" stroke-width="4.227429320662058" fill="none" moovel_name="San Francisco Bay Railroad" moovel_neighborhood="Central Waterfront" moovel_area="749.89" moovel_cumulative_area="46838.60" moovel_length="144.20" d="M271.5,70.5 L167,70.5 " />
<path id="89" stroke-linecap="round" stroke="#6566CC" stroke-width="4.227429320662058" fill="none" moovel_name="San Francisco Bay Railroad" moovel_neighborhood="Central Waterfront" moovel_area="3605.77" moovel_cumulative_area="50444.37" moovel_length="693.37" d="M160.5,70.5 L145,71 L14,71.5 L13,72.5 L12.5,73.5 L12.5,75 L13.5,76 L14.5,76.5 L93,76 L368.5,76 " />
<path id="90" stroke-linecap="round" stroke="#6566CC" stroke-width="4.227429320662058" fill="none" moovel_name="San Francisco Bay Railroad" moovel_neighborhood="Central Waterfront" moovel_area="1141.05" moovel_cumulative_area="51585.42" moovel_length="219.42" d="M375,76.5 L535,76.5 " />
<path id="91" stroke-linecap="round" stroke="#6566CC" stroke-width="4.227429320662058" fill="none" moovel_name="San Francisco Bay Railroad" moovel_neighborhood="Central Waterfront" moovel_area="777.61" moovel_cumulative_area="52363.03" moovel_length="149.53" d="M541.5,76.5 L593,77.5 L593.5,78.5 L594,80 L593,81.5 L592,82 L590.5,82.5 L540.5,82.5 " />
<path id="92" stroke-linecap="round" stroke="#6566CC" stroke-width="4.227429320662058" fill="none" moovel_name="San Francisco Bay Railroad" moovel_neighborhood="Central Waterfront" moovel_area="4928.14" moovel_cumulative_area="57291.17" moovel_length="947.65" d="M534,82.5 L434.5,82 L174,81.5 L13.5,82 L12.5,83 L12,84 L12,85.5 L12.5,87 L13.5,88 L85.5,88.5 L182.5,88.5 " />
<path id="93" stroke-linecap="round" stroke="#6566CC" stroke-width="4.227429320662058" fill="none" moovel_neighborhood="Hunters Point" moovel_area="566.97" moovel_cumulative_area="57858.14" moovel_length="109.03" d="M189,88.5 L268,88.5 " />
<path id="94" stroke-linecap="round" stroke="#6566CC" stroke-width="4.227429320662058" fill="none" moovel_neighborhood="Hunters Point" moovel_area="1634.03" moovel_cumulative_area="59492.17" moovel_length="314.22" d="M274.5,88.5 L378.5,88 L504,88.5 " />
<path id="95" stroke-linecap="round" stroke="#6566CC" stroke-width="4.227429320662058" fill="none" moovel_neighborhood="Hunters Point" moovel_area="3014.68" moovel_cumulative_area="62506.85" moovel_length="579.71" d="M510,88.5 L571.5,89 L593.5,90 L594,91.5 L593.5,92.5 L592.5,93.5 L591.5,94 L255.5,94.5 " />
<path id="96" stroke-linecap="round" stroke="#6566CC" stroke-width="4.227429320662058" fill="none" moovel_neighborhood="Hunters Point" moovel_area="7027.24" moovel_cumulative_area="69534.09" moovel_length="1351.30" d="M249,94.5 L192,95 L14,95.5 L13,96.5 L12.5,97.5 L13,98.5 L13.5,99.5 L14.5,100 L573,99.5 L591.5,100 L593,100.5 L594,101.5 L594,103 L593.5,104 L592,105 L546.5,105.5 L426.5,105.5 " />
<path id="97" stroke-linecap="round" stroke="#6566CC" stroke-width="4.227429320662058" fill="none" moovel_name="Caltrain" moovel_neighborhood="Little Hollywood" moovel_area="17305.01" moovel_cumulative_area="86839.10" moovel_length="3327.66" d="M420,106.5 L408,106 L133.5,105.5 L13,106.5 L12,107.5 L12,109.5 L12.5,110.5 L13.5,112 L99,112.5 L384.5,113 L592,113.5 L593.5,114 L594,115.5 L594,116.5 L593,117.5 L591.5,118 L590,118.5 L556.5,118 L269.5,117.5 L12.5,118.5 L11.5,120 L12,122 L13,123 L14.5,124 L90.5,124.5 L329,125 L568,125.5 L593,126 L594,127 L594,128.5 L593,129.5 L592,130.5 L394.5,130 L313.5,130 " />
<path id="98" stroke-linecap="round" stroke="#6566CC" stroke-width="4.227429320662058" fill="none" moovel_name="Caltrain" moovel_neighborhood="Little Hollywood" moovel_area="17247.71" moovel_cumulative_area="104086.81" moovel_length="3316.64" d="M307.5,130 L88,129.5 L14,130 L12.5,131 L12,132.5 L12,134 L13,135 L14,136 L72.5,136.5 L332.5,137 L592,137.5 L593.5,138 L594,139.5 L594,140.5 L593,141.5 L591.5,142.5 L471,142 L209.5,141.5 L13,142 L12,143.5 L11.5,145 L12,146.5 L13,147.5 L15,148 L84.5,148.5 L441.5,149 L592.5,149.5 L593.5,150.5 L594,151.5 L593.5,153 L592.5,154 L209.5,154 " />
<path id="99" stroke-linecap="round" stroke="#6566CC" stroke-width="4.227429320662058" fill="none" moovel_neighborhood="Mission Bay" moovel_area="790.75" moovel_cumulative_area="104877.56" moovel_length="152.06" d="M203.5,154 L93,154 " />
<path id="100" stroke-linecap="round" stroke="#6566CC" stroke-width="4.227429320662058" fill="none" moovel_neighborhood="Mission Bay" moovel_area="159.24" moovel_cumulative_area="105036.80" moovel_length="30.62" d="M87,154 L65.5,154 " />
<path id="101" stroke-linecap="round" stroke="#6566CC" stroke-width="4.227429320662058" fill="none" moovel_neighborhood="Mission Bay" moovel_area="875.11" moovel_cumulative_area="105911.91" moovel_length="168.28" d="M59,154 L13.5,154.5 L12.5,155.5 L12,157 L12.5,158.5 L13.5,159.5 L14.5,160 L84,160 " />
<path id="102" stroke-linecap="round" stroke="#6566CC" stroke-width="4.227429320662058" fill="none" moovel_neighborhood="Mission Bay" moovel_area="214.33" moovel_cumulative_area="106126.24" moovel_length="41.21" d="M91,160 L120,160 " />
<path id="103" stroke-linecap="round" stroke="#6566CC" stroke-width="4.227429320662058" fill="none" moovel_neighborhood="Mission Bay" moovel_area="1083.09" moovel_cumulative_area="107209.33" moovel_length="208.27" d="M126.5,160 L278,160 " />
<path id="104" stroke-linecap="round" stroke="#6566CC" stroke-width="4.227429320662058" fill="none" moovel_neighborhood="Mission Bay" moovel_area="219.86" moovel_cumulative_area="107429.19" moovel_length="42.28" d="M285,160 L315,160 " />
<path id="105" stroke-linecap="round" stroke="#6566CC" stroke-width="4.227429320662058" fill="none" moovel_neighborhood="Mission Bay" moovel_area="1888.58" moovel_cumulative_area="109317.77" moovel_length="363.16" d="M321,160 L587,160 " />
<path id="106" stroke-linecap="round" stroke="#6566CC" stroke-width="4.227429320662058" fill="none" moovel_neighborhood="Mission Bay" moovel_area="1272.28" moovel_cumulative_area="110590.05" moovel_length="244.65" d="M593,161 L593.5,162 L593.5,163.5 L593,164.5 L592,165.5 L591,166 L419,166 " />
<path id="107" stroke-linecap="round" stroke="#6566CC" stroke-width="4.227429320662058" fill="none" moovel_neighborhood="Mission Bay" moovel_area="521.96" moovel_cumulative_area="111112.01" moovel_length="100.37" d="M412.5,166 L340,166 " />
<path id="108" stroke-linecap="round" stroke="#6566CC" stroke-width="4.227429320662058" fill="none" moovel_neighborhood="Mission Bay" moovel_area="685.51" moovel_cumulative_area="111797.52" moovel_length="131.82" d="M334,166 L238.5,166 " />
<path id="109" stroke-linecap="round" stroke="#6566CC" stroke-width="4.227429320662058" fill="none" moovel_neighborhood="Mission Bay" moovel_area="663.61" moovel_cumulative_area="112461.13" moovel_length="127.61" d="M232,166 L139.5,166 " />
<path id="110" stroke-linecap="round" stroke="#6566CC" stroke-width="4.227429320662058" fill="none" moovel_neighborhood="Mission Bay" moovel_area="1008.36" moovel_cumulative_area="113469.49" moovel_length="193.90" d="M133.5,166 L13,167 L12,168.5 L12,169.5 L13,171 L14,172 L28.5,172 " />
<path id="111" stroke-linecap="round" stroke="#6566CC" stroke-width="4.227429320662058" fill="none" moovel_neighborhood="Mission Bay" moovel_area="1240.90" moovel_cumulative_area="114710.39" moovel_length="238.62" d="M35,172 L209.5,172 " />
<path id="112" stroke-linecap="round" stroke="#6566CC" stroke-width="4.227429320662058" fill="none" moovel_neighborhood="Mission Bay" moovel_area="537.60" moovel_cumulative_area="115247.99" moovel_length="103.38" d="M216,172 L290.5,172 " />
<path id="113" stroke-linecap="round" stroke="#6566CC" stroke-width="4.227429320662058" fill="none" moovel_neighborhood="Mission Bay" moovel_area="832.25" moovel_cumulative_area="116080.24" moovel_length="160.04" d="M297.5,172 L414,172 " />
<path id="114" stroke-linecap="round" stroke="#6566CC" stroke-width="4.227429320662058" fill="none" moovel_neighborhood="Mission Bay" moovel_area="961.31" moovel_cumulative_area="117041.55" moovel_length="184.85" d="M420,172 L555,172 " />
<path id="115" stroke-linecap="round" stroke="#6566CC" stroke-width="4.227429320662058" fill="none" moovel_neighborhood="Mission Bay" moovel_area="1792.79" moovel_cumulative_area="118834.34" moovel_length="344.74" d="M561.5,172 L593,173 L593.5,174 L593.5,175.5 L593,177 L592,177.5 L590.5,178 L537,177.5 L480.5,178 L377.5,178 " />
<path id="116" stroke-linecap="round" stroke="#6566CC" stroke-width="4.227429320662058" fill="none" moovel_neighborhood="Mission Bay" moovel_area="467.27" moovel_cumulative_area="119301.61" moovel_length="89.85" d="M370.5,178 L338,177.5 L326,178 L306,178 " />
<path id="117" stroke-linecap="round" stroke="#6566CC" stroke-width="4.227429320662058" fill="none" moovel_neighborhood="Mission Bay" moovel_area="573.87" moovel_cumulative_area="119875.48" moovel_length="110.35" d="M299.5,178 L219.5,178 " />
<path id="118" stroke-linecap="round" stroke="#6566CC" stroke-width="4.227429320662058" fill="none" moovel_neighborhood="Mission Bay" moovel_area="2653.81" moovel_cumulative_area="122529.29" moovel_length="510.31" d="M213.5,178 L209.5,177.5 L13,178.5 L12,179.5 L12,181 L12.5,182.5 L13.5,183.5 L15,184 L181.5,184 " />
<path id="119" stroke-linecap="round" stroke="#6566CC" stroke-width="4.227429320662058" fill="none" moovel_neighborhood="Mission Bay" moovel_area="1568.25" moovel_cumulative_area="124097.54" moovel_length="301.57" d="M187.5,183.5 L408,183.5 " />
<path id="120" stroke-linecap="round" stroke="#6566CC" stroke-width="4.227429320662058" fill="none" moovel_neighborhood="Mission Bay" moovel_area="1095.94" moovel_cumulative_area="125193.48" moovel_length="210.74" d="M414,184 L419.5,183.5 L567.5,183.5 " />
<path id="121" stroke-linecap="round" stroke="#6566CC" stroke-width="4.227429320662058" fill="none" moovel_neighborhood="Mission Bay" moovel_area="1424.02" moovel_cumulative_area="126617.50" moovel_length="273.83" d="M574,184 L576.5,183.5 L592,184 L593,184.5 L593.5,186 L593.5,187.5 L593,188.5 L592,189.5 L590.5,190 L417,190 " />
<path id="122" stroke-linecap="round" stroke="#6566CC" stroke-width="4.227429320662058" fill="none" moovel_neighborhood="Mission Bay" moovel_area="1194.65" moovel_cumulative_area="127812.15" moovel_length="229.73" d="M410.5,189.5 L242.5,189.5 " />
<path id="123" stroke-linecap="round" stroke="#6566CC" stroke-width="4.227429320662058" fill="none" moovel_name="Union Pacific Railroad" moovel_neighborhood="Central Waterfront" moovel_area="1473.95" moovel_cumulative_area="129286.10" moovel_length="283.43" d="M236,190 L29,190 " />
<path id="124" stroke-linecap="round" stroke="#6566CC" stroke-width="4.227429320662058" fill="none" moovel_name="San Francisco Bay Railroad" moovel_neighborhood="Central Waterfront" moovel_area="533.39" moovel_cumulative_area="129819.49" moovel_length="102.57" d="M22,189.5 L15,190 L12.5,191 L12,192.5 L12.5,194 L13.5,195 L14.5,195.5 L72.5,195.5 " />
<path id="125" stroke-linecap="round" stroke="#6566CC" stroke-width="4.227429320662058" fill="none" moovel_name="San Francisco Bay Railroad" moovel_neighborhood="Central Waterfront" moovel_area="1903.01" moovel_cumulative_area="131722.50" moovel_length="365.94" d="M79.5,195.5 L86.5,196 L347,196 " />
<path id="126" stroke-linecap="round" stroke="#6566CC" stroke-width="4.227429320662058" fill="none" moovel_name="San Francisco Bay Railroad" moovel_neighborhood="Central Waterfront" moovel_area="737.68" moovel_cumulative_area="132460.18" moovel_length="141.85" d="M353.5,195.5 L456.5,195.5 " />
<path id="127" stroke-linecap="round" stroke="#6566CC" stroke-width="4.227429320662058" fill="none" moovel_name="San Francisco Bay Railroad" moovel_neighborhood="Central Waterfront" moovel_area="2959.82" moovel_cumulative_area="135420.00" moovel_length="569.16" d="M463,195.5 L465.5,196 L593,197 L594,198 L593.5,199.5 L593,201 L591.5,201.5 L310.5,201.5 " />
<path id="128" stroke-linecap="round" stroke="#6566CC" stroke-width="4.227429320662058" fill="none" moovel_name="San Francisco Bay Railroad" moovel_neighborhood="Central Waterfront" moovel_area="3766.38" moovel_cumulative_area="139186.38" moovel_length="724.25" d="M304,201.5 L297,202 L13.5,202.5 L12.5,203.5 L12,205 L12.5,206.5 L13.5,207.5 L15,208 L119,207.5 L248,207.5 " />
<path id="129" stroke-linecap="round" stroke="#6566CC" stroke-width="4.227429320662058" fill="none" moovel_name="San Francisco Bay Railroad" moovel_neighborhood="Central Waterfront" moovel_area="939.64" moovel_cumulative_area="140126.02" moovel_length="180.69" d="M254,207.5 L267,208 L383,207.5 L385.5,207.5 " />
<path id="130" stroke-linecap="round" stroke="#6566CC" stroke-width="4.227429320662058" fill="none" moovel_name="San Francisco Bay Railroad" moovel_neighborhood="Central Waterfront" moovel_area="3416.94" moovel_cumulative_area="143542.96" moovel_length="657.06" d="M391.5,207.5 L407.5,208 L593.5,209 L594,210 L594,211.5 L593,212.5 L591.5,213.5 L317.5,213.5 " />
<path id="131" stroke-linecap="round" stroke="#6566CC" stroke-width="4.227429320662058" fill="none" moovel_name="San Francisco Bay Railroad" moovel_neighborhood="Central Waterfront" moovel_area="423.46" moovel_cumulative_area="143966.42" moovel_length="81.43" d="M310.5,213.5 L252,213.5 " />
<path id="132" stroke-linecap="round" stroke="#6566CC" stroke-width="4.227429320662058" fill="none" moovel_name="San Francisco Bay Railroad" moovel_neighborhood="Central Waterfront" moovel_area="2649.41" moovel_cumulative_area="146615.83" moovel_length="509.47" d="M245,213.5 L13,214.5 L12.5,215.5 L12,217 L12.5,218.5 L14,219 L15.5,219.5 L149,219.5 " />
<path id="133" stroke-linecap="round" stroke="#6566CC" stroke-width="4.227429320662058" fill="none" moovel_name="San Francisco Bay Railroad" moovel_neighborhood="Central Waterfront" moovel_area="7183.85" moovel_cumulative_area="153799.68" moovel_length="1381.42" d="M156,219.5 L217.5,220 L428,220.5 L593,221 L594,222.5 L594,223.5 L593.5,224.5 L592.5,225.5 L590.5,226 L561.5,225.5 L357.5,225 L152.5,224.5 L20.5,224.5 " />
<path id="134" stroke-linecap="round" stroke="#6566CC" stroke-width="4.227429320662058" fill="none" moovel_name="San Francisco Bay Railroad" moovel_neighborhood="Central Waterfront" moovel_area="371.75" moovel_cumulative_area="154171.43" moovel_length="71.48" d="M14,226 L13,226.5 L12,228 L12.5,229 L13,230.5 L14,231 L15.5,231.5 L58,231.5 " />
<path id="135" stroke-linecap="round" stroke="#6566CC" stroke-width="4.227429320662058" fill="none" moovel_name="San Francisco Bay Railroad" moovel_neighborhood="Central Waterfront" moovel_area="679.51" moovel_cumulative_area="154850.94" moovel_length="130.67" d="M65,231.5 L160,231.5 " />
<path id="136" stroke-linecap="round" stroke="#6566CC" stroke-width="4.227429320662058" fill="none" moovel_name="San Francisco Bay Railroad" moovel_neighborhood="Central Waterfront" moovel_area="293.30" moovel_cumulative_area="155144.24" moovel_length="56.40" d="M166.5,231.5 L206.5,231.5 " />
<path id="137" stroke-linecap="round" stroke="#6566CC" stroke-width="4.227429320662058" fill="none" moovel_name="Caltrain" moovel_neighborhood="Mission Bay" moovel_area="787.15" moovel_cumulative_area="155931.39" moovel_length="151.36" d="M212.5,231.5 L322.5,231.5 " />
<path id="138" stroke-linecap="round" stroke="#6566CC" stroke-width="4.227429320662058" fill="none" moovel_name="Caltrain" moovel_neighborhood="Mission Bay" moovel_area="1276.63" moovel_cumulative_area="157208.02" moovel_length="245.49" d="M329,231.5 L508,231.5 " />
<path id="139" stroke-linecap="round" stroke="#6566CC" stroke-width="4.227429320662058" fill="none" moovel_neighborhood="Central Waterfront" moovel_area="364.79" moovel_cumulative_area="157572.81" moovel_length="70.15" d="M514,231.5 L564,231.5 " />
<path id="140" stroke-linecap="round" stroke="#6566CC" stroke-width="4.227429320662058" fill="none" moovel_name="San Francisco Bay Railroad" moovel_neighborhood="Central Waterfront" moovel_area="4441.09" moovel_cumulative_area="162013.90" moovel_length="854.00" d="M570.5,231.5 L593,232.5 L593.5,233.5 L593.5,235 L593,236.5 L592,237 L591,237.5 L125,238 L13,238.5 L12.5,240 L12.5,241.5 L13,242.5 L14,243.5 L27.5,243.5 " />
</svg>
