<?xml version="1.0" encoding="UTF-8" standalone="no"?>
<svg width="309px" height="157px" viewBox="0 0 309 157" version="1.1" xmlns="http://www.w3.org/2000/svg" xmlns:xlink="http://www.w3.org/1999/xlink">
    <!-- Generator: Sketch 43.2 (39069) - http://www.bohemiancoding.com/sketch -->
    <title>Comparison_NewYork</title>
    <desc>Created with Sketch.</desc>
    <defs></defs>
    <g id="Symbols" stroke="none" stroke-width="1" fill="none" fill-rule="evenodd">
        <g id="Comparison_NewYork">
            <g id="Doodle" transform="translate(4.000000, 5.000000)">
                <path d="M230.358829,119.846097 L226.653745,120.585605 L225.770598,120.414382 L223.815059,119.882692 L221.868531,117.575696 L217.443784,111.006164 L216.73186,107.635787 L221.33684,78.8794408 L226.833979,79.5913654 L227.536892,76.2209883 L221.688296,74.7971391 L223.112146,71.9584525 L228.600273,72.1386866 L230.375579,56.8728609 L225.058674,56.169948 L225.770598,51.1954876 L230.907269,51.5559558 L231.258726,45.8695709 L231.258726,42.8596619 L232.141873,31.4959038 L230.015111,31.4959038 L230.195345,27.9452926 L233.55613,28.2873573 L230.358829,119.846097 Z" id="Combined-Shape" fill="#FFBD99"></path>
                <path d="M234.620091,23.8629909 L299.639532,59.8917815 C299.639532,59.8917815 297.575852,71.6610663 297.161313,73.7337581 C296.746775,75.8064499 293.088023,89.116736 292.195865,91.30658 C291.303706,93.4964239 290.249337,95.7403381 290.249337,95.7403381 L288.302809,97.3354096 L270.234343,100.714798 L269.702653,98.7592588 C269.702653,98.7592588 256.707776,101.012185 255.527243,101.246489 C254.34671,101.480793 247.912354,105.680247 247.912354,105.680247 L249.146957,109.050624 L245.073667,112.421001 L243.127139,109.942783 L238.170702,113.84485 L233.917178,117.215228 L230.546801,118.278609 L231.078492,119.702458 L226.653745,120.585605 L225.770598,120.414382 L223.815059,119.882692 L221.868531,117.575696 L217.443784,111.006164 L216.73186,107.635787 L221.33684,78.8794408 L226.833979,79.5913654 L227.536892,76.2209883 L221.688296,74.7971391 L223.112146,71.9584525 L228.600273,72.1386866 L230.375579,56.8728609 L225.058674,56.169948 L225.770598,51.1954876 L230.907269,51.5559558 L231.258726,45.8695709 L231.258726,42.8596619 L232.141873,31.4959038 L230.015111,31.4959038 L230.195345,27.9452926 L233.736944,28.3057607 L234.620091,23.8629909 Z" id="Shape_23_copy" stroke="#FF6819" stroke-width="1.5"></path>
                <path d="M0.80423407,91.0993108 L121.451118,85.3768791" id="Shape_27_copy" stroke="#FF6819" stroke-width="1.5"></path>
                <path d="M7.29986996,93.9560208 L106.59893,91.0993108" id="Shape_28_copy" stroke="#FF6819" stroke-width="1.5"></path>
                <path d="M234.339831,0.711924577 L230.005202,144.854122" id="Shape_26_copy" stroke="#FF6819" stroke-width="1.5" stroke-dasharray="6"></path>
                <path d="M197.275592,126.389142 C181.135631,154.019025 95.9660208,153.027737 80.4658908,97.2813394" id="Shape_4_copy_4" stroke="#FF6819" stroke-width="1.5"></path>
                <path d="M202.159935,133.048791 C198.582289,129.60632 196.563667,126.902809 195.99593,125.740299 C193.552766,127.199588 190.554809,127.387589 187.948479,126.244954" id="Shape_5_copy_9" stroke="#FF6819" stroke-width="1.5" stroke-linecap="round"></path>
            </g>
        </g>
    </g>
</svg>