<?xml version="1.0" encoding="UTF-8" standalone="no"?>
<svg width="120px" height="120px" viewBox="0 0 120 120" version="1.1" xmlns="http://www.w3.org/2000/svg" xmlns:xlink="http://www.w3.org/1999/xlink">
    <!-- Generator: Sketch 43.1 (39012) - http://www.bohemiancoding.com/sketch -->
    <title>Icon_SpaceAllocation_Rail</title>
    <desc>Created with Sketch.</desc>
    <defs></defs>
    <g id="Symbols" stroke="none" stroke-width="1" fill="none" fill-rule="evenodd">
        <g id="Icon_SpaceAllocation_Rail">
            <g id="Group-16">
                <g id="Group-15">
                    <rect id="Rectangle-15" x="0" y="0" width="120" height="120"></rect>
                </g>
            </g>
            <g id="Layer_2" transform="translate(0.000000, 30.000000)" stroke="#0000FF" stroke-width="2" stroke-linejoin="round">
                <ellipse id="Oval" stroke-linecap="round" cx="32.2282718" cy="50.2878356" rx="4.1442953" ry="4.1442953"></ellipse>
                <ellipse id="Oval" stroke-linecap="round" cx="50.6353188" cy="50.2878356" rx="4.1442953" ry="4.1442953"></ellipse>
                <path d="M36.8288591,50 L46.0388591,50" id="Shape" stroke-linecap="round"></path>
                <path d="M24.8163591,49.8479027 L24.8163591,46.1706376 C24.8163591,44.9232246 25.8275871,43.9119966 27.075,43.9119966 L55.6323826,43.9119966 C56.2314114,43.9119966 56.8059055,44.1499599 57.2294829,44.5735373 C57.6530602,44.9971146 57.8910235,45.5716088 57.8910235,46.1706376 L57.8910235,49.8479027" id="Shape" stroke-linecap="round"></path>
                <ellipse id="Oval" stroke-linecap="round" cx="86.5759228" cy="50.2878356" rx="4.1442953" ry="4.1442953"></ellipse>
                <path d="M91.1765101,50 L94.8865101,50" id="Shape" stroke-linecap="round"></path>
                <path d="M79.1624161,49.8479027 L79.1624161,46.1706376 C79.162416,45.5713325 79.400598,44.9965966 79.8245202,44.5729734 C80.2484423,44.1493503 80.8233461,43.9115737 81.422651,43.9119966 L94.8947987,43.9119966" id="Shape" stroke-linecap="round"></path>
                <path d="M57.9388423,50 L79.1640101,50" id="Shape" stroke-linecap="round"></path>
                <path d="M24.5,49.8479027 L7.33699664,49.8479027 C3.28752625,49.8479027 0.00478187919,46.5651583 0.00478187919,42.5156879" id="Shape" stroke-linecap="round"></path>
                <path d="M0,42.510906 C0,38.4590604 0.819295302,35.7509228 19.6901846,16.8800336" id="Shape" stroke-linecap="round"></path>
                <path d="M19.6901846,16.8800336 C24.7510067,11.9387584 29.9313758,11.7395134 36.3741611,11.7395134 L95.0005787,11.7395134" id="Shape" stroke-linecap="round"></path>
                <polyline id="Shape" stroke-linecap="round" points="61 49.8479027 61 19.1514262 74.0008819 19.1514262 74.0008819 50"></polyline>
                <path d="M68,49.8479027 L68,19.1514262" id="Shape" stroke-linecap="round"></path>
                <path d="M4,34 L61.9030201,34" id="Shape"></path>
                <path d="M74.4682047,34 L94.8900168,34" id="Shape" stroke-linecap="round"></path>
                <path d="M36.7423658,26.5952181 L29.4930369,26.5952181 C25.7934564,26.5952181 23.3993289,28.3278523 21.5997483,30.4892617 L12.6225671,30.4892617 C15.9380034,26.5952181 19.6885906,19.1530201 29.9696309,19.1530201 L36.7407718,19.1530201 L36.7423658,26.5952181 Z" id="Shape" stroke-linecap="round"></path>
                <rect id="Rectangle-path" stroke-linecap="round" x="41.4588926" y="19.1514262" width="15.7276007" height="10.9967282" rx="5.49836409"></rect>
                <rect id="Rectangle-path" stroke-linecap="round" x="79.1640101" y="19.1514262" width="15.7276007" height="10.9967282" rx="5.49836409"></rect>
                <rect id="Rectangle-path" stroke-linecap="round" x="41.5816275" y="8.15310403" width="15.8535235" height="3.5864094"></rect>
                <path d="M53.1314597,4.07575503 L49.0557047,8.15310403" id="Shape" stroke-linecap="round"></path>
                <path d="M49.0557047,0 L53.1314597,4.07575503" id="Shape" stroke-linecap="round"></path>
                <rect id="Rectangle-path" stroke-linecap="round" x="79.1002517" y="8.15310403" width="15.8535235" height="3.5864094"></rect>
                <path d="M90.6516779,4.07575503 L86.5759228,8.15310403" id="Shape" stroke-linecap="round"></path>
                <path d="M86.5759228,0 L90.6516779,4.07575503" id="Shape" stroke-linecap="round"></path>
            </g>
        </g>
    </g>
</svg>