<?xml version="1.0" encoding="UTF-8" standalone="no"?>
<svg width="80px" height="60px" viewBox="0 0 80 60" version="1.1" xmlns="http://www.w3.org/2000/svg" xmlns:xlink="http://www.w3.org/1999/xlink">
    <!-- Generator: Sketch 43.2 (39069) - http://www.bohemiancoding.com/sketch -->
    <title>Icon_Label_Rail</title>
    <desc>Created with Sketch.</desc>
    <defs></defs>
    <g id="Symbols" stroke="none" stroke-width="1" fill="none" fill-rule="evenodd" stroke-linecap="round" stroke-linejoin="round">
        <g id="Icon_Label_Rail" stroke="#A6C4FF">
            <g id="Icon---Rail" transform="translate(8.000000, 11.000000)">
                <circle id="Oval" cx="21.7116779" cy="33.8781208" r="2.79194631"></circle>
                <circle id="Oval" cx="34.1122148" cy="33.8781208" r="2.79194631"></circle>
                <path d="M24.5,34 L31,34" id="Shape"></path>
                <path d="M16.7183893,33.581745 L16.7183893,31.1044295 C16.7183893,30.2640671 17.3996376,29.5828188 18.24,29.5828188 L37.4786577,29.5828188 C37.882214,29.5828188 38.2692416,29.7431309 38.554599,30.0284883 C38.8399564,30.3138456 39.0002685,30.7008733 39.0002685,31.1044295 L39.0002685,33.581745" id="Shape"></path>
                <circle id="Oval" cx="58.3248322" cy="33.8781208" r="2.79194631"></circle>
                <path d="M61.4489188,34 L63.9215437,34" id="Shape"></path>
                <path d="M53.3304698,33.581745 L53.3304698,31.1044295 C53.3304697,30.7006872 53.4909292,30.3134967 53.7765189,30.0281084 C54.0621085,29.7427202 54.4494121,29.5825339 54.8531544,29.5828188 L63.9291275,29.5828188" id="Shape"></path>
                <path d="M39.0324832,34 L53.3315436,34" id="Shape"></path>
                <path d="M16.5,33.581745 L4.94281879,33.581745 C2.21475452,33.581745 0.00322147651,31.3702119 0.00322147651,28.6421477" id="Shape"></path>
                <path d="M0,28.6389262 C0,25.9092617 0.551946309,24.0848322 13.2649664,11.3718121" id="Shape"></path>
                <path d="M13.2649664,11.3718121 C16.6743624,8.04295302 20.1642953,7.90872483 24.504698,7.90872483 L64.0001055,7.90872483" id="Shape"></path>
                <polyline id="Shape" points="41 33.581745 41 12.9020134 49.0006001 12.9020134"></polyline>
                <path d="M49,33.581745 L49,12.9020134" id="Shape"></path>
                <path d="M45,33.581745 L45,12.9020134" id="Shape"></path>
                <path d="M3.49666504,22 L40.9799995,22" id="Shape"></path>
                <path d="M49,22 L63.7600002,22" id="Shape"></path>
                <path d="M24.7527517,17.9167785 L19.8689933,17.9167785 C17.3766443,17.9167785 15.7637584,19.0840268 14.5514094,20.5401342 L8.50362416,20.5401342 C10.7371812,17.9167785 13.2638926,12.9030872 20.1900671,12.9030872 L24.7516779,12.9030872 L24.7527517,17.9167785 Z" id="Shape"></path>
                <rect id="Rectangle-path" x="27.9302013" y="12.9020134" width="10.5954362" height="7.40832215" rx="3.70416107"></rect>
                <rect id="Rectangle-path" x="53.3315436" y="12.9020134" width="10.5954362" height="7.40832215" rx="3.70416107"></rect>
                <rect id="Rectangle-path" x="28.0128859" y="5.49261745" width="10.6802685" height="2.41610738"></rect>
                <path d="M35.7938255,2.74577181 L33.0480537,5.49261745" id="Shape"></path>
                <path d="M33.0480537,0 L35.7938255,2.74577181" id="Shape"></path>
                <rect id="Rectangle-path" x="53.2885906" y="5.49261745" width="10.6802685" height="2.41610738"></rect>
                <path d="M61.070604,2.74577181 L58.3248322,5.49261745" id="Shape"></path>
                <path d="M58.3248322,0 L61.070604,2.74577181" id="Shape"></path>
            </g>
        </g>
    </g>
</svg>