<?xml version="1.0" encoding="UTF-8" standalone="no"?>
<svg width="20px" height="20px" viewBox="0 0 20 20" version="1.1" xmlns="http://www.w3.org/2000/svg" xmlns:xlink="http://www.w3.org/1999/xlink">
    <!-- Generator: Sketch 43.2 (39069) - http://www.bohemiancoding.com/sketch -->
    <title>Icon_Share</title>
    <desc>Created with Sketch.</desc>
    <defs></defs>
    <g id="Symbols" stroke="none" stroke-width="1" fill="none" fill-rule="evenodd">
        <g id="Icon_Share" fill="#FFFFFF">
            <g id="Group-2" transform="translate(2.000000, 3.000000)">
                <path d="M14.9113557,7.19787178 C14.9322696,7.12241269 14.9479732,7.04560708 14.9583557,6.96799712 C14.9740723,6.89877035 14.9857586,6.82869084 14.9933557,6.75811157 C14.9933557,6.73812247 15.0003557,6.72812792 15.0003557,6.71813337 C15.0003557,6.70813882 14.9943557,6.69814427 14.9943557,6.68814972 C14.9878961,6.61391902 14.9751844,6.54036501 14.9563557,6.46826961 C14.9481341,6.39375209 14.9330706,6.32014855 14.9113557,6.24838951 C14.9033557,6.22840041 14.8993557,6.19841675 14.8903557,6.17842765 C14.8566771,6.11604856 14.818929,6.05595148 14.7773557,5.99852575 C14.7773557,5.99852575 14.7773557,5.99852575 14.7773557,5.9885312 C14.7504194,5.93356154 14.7203707,5.88017072 14.6873557,5.82861839 L10.2073557,0.441555804 C10.0014913,0.181041519 9.69392366,0.021028489 9.36232657,0.00192668048 C9.03072947,-0.0171751281 8.70680433,0.10646046 8.47235574,0.341610302 C7.96652997,0.852874963 7.9273007,1.66288409 8.38135574,2.22058575 L11.0133557,5.38885818 L6.56935574,5.38885818 C6.54935574,5.38885818 6.53435574,5.39885273 6.51435574,5.39885273 C2.7439953,5.68852015 -0.127367314,8.8977564 0.00435573846,12.6748853 C-0.0304839729,13.1360374 0.195941149,13.5778653 0.590727901,13.8190851 C0.985514654,14.060305 1.48219682,14.060305 1.87698358,13.8190851 C2.27177033,13.5778653 2.49819545,13.1360374 2.46335574,12.6748853 C2.37259078,10.2238681 4.28048075,8.16023538 6.73235574,8.0574031 L11.0133557,8.0574031 L8.38035574,11.2256755 C7.92656819,11.7836268 7.96622917,12.5936487 8.47235574,13.104651 C8.69096773,13.3221883 8.98686699,13.4443644 9.29535574,13.4444657 C9.65008909,13.4413449 9.98489969,13.2800783 10.2083557,13.0047055 L14.6883557,7.60764834 C14.7251808,7.55422597 14.7566654,7.49731684 14.7823557,7.43774099 C14.8251234,7.38152554 14.8622996,7.32127265 14.8933557,7.25783908 C14.8993557,7.23784998 14.9033557,7.21786088 14.9113557,7.19787178 Z" id="Shape_15_copy_4"></path>
            </g>
        </g>
    </g>
</svg>