<?xml version="1.0" encoding="UTF-8" standalone="no"?>
<svg width="80px" height="60px" viewBox="0 0 80 60" version="1.1" xmlns="http://www.w3.org/2000/svg" xmlns:xlink="http://www.w3.org/1999/xlink">
    <!-- Generator: Sketch 43.2 (39069) - http://www.bohemiancoding.com/sketch -->
    <title>Icon_Label_Bike</title>
    <desc>Created with Sketch.</desc>
    <defs></defs>
    <g id="Symbols" stroke="none" stroke-width="1" fill="none" fill-rule="evenodd" stroke-linecap="round" stroke-linejoin="round">
        <g id="Icon_Label_Bike" stroke="#A6C4FF">
            <g id="Group-2" transform="translate(28.000000, 18.000000)">
                <ellipse id="Oval" cx="5.0458498" cy="20.3611858" rx="5.0458498" ry="5.10853755"></ellipse>
                <ellipse id="Oval" cx="20.9274308" cy="20.3611858" rx="5.0458498" ry="5.10853755"></ellipse>
                <polygon id="Shape" points="6.57604743 14.012253 3.51462451 14.012253 2.54656126 10.7473518 7.54411067 10.7473518"></polygon>
                <path d="M20.9274308,20.3611858 C13.8365217,19.5863241 10.1903557,15.7181818 9.50387352,12.6022925" id="Shape"></path>
                <path d="M4.70466403,20.4783399 C8.23675889,17.8485375 9.46482213,14.2095652 9.66418972,11.0895652" id="Shape"></path>
                <ellipse id="Oval" cx="17.4683004" cy="2.0316996" rx="2.00703557" ry="2.0316996"></ellipse>
                <path d="M15.9977075,6.39003953 C16.9359684,4.95747036 18.6439526,5.25960474 18.9779447,6.62023715 L19.1588142,11.8264032 C19.1588142,12.7163636 18.0283794,13.4172332 18.0283794,13.4172332" id="Shape"></path>
                <path d="M9.66521739,11.0895652 L13.8416601,9.67035573" id="Shape"></path>
                <path d="M12.5241897,17.1271146 L18.0242688,13.4162055" id="Shape"></path>
                <path d="M13.8416601,9.67035573 L15.9977075,6.39003953" id="Shape"></path>
                <path d="M13.0241897,22.8173123 L12.5241897,17.1271146" id="Shape"></path>
                <polyline id="Shape" points="16.4694071 5.85667984 16.4694071 11.5479051 10.8336759 15.3728854"></polyline>
                <ellipse id="Oval" cx="5.0458498" cy="20.3611858" rx="5.0458498" ry="5.10853755"></ellipse>
                <ellipse id="Oval" cx="20.9274308" cy="20.3611858" rx="5.0458498" ry="5.10853755"></ellipse>
                <polygon id="Shape" points="6.57604743 14.012253 3.51462451 14.012253 2.54656126 10.7473518 7.54411067 10.7473518"></polygon>
                <path d="M20.9274308,20.3611858 C13.8365217,19.5863241 10.1903557,15.7181818 9.50387352,12.6022925" id="Shape"></path>
                <path d="M4.70466403,20.4783399 C8.23675889,17.8485375 9.46482213,14.2095652 9.66418972,11.0895652" id="Shape"></path>
                <ellipse id="Oval" cx="17.4683004" cy="2.0316996" rx="2.00703557" ry="2.0316996"></ellipse>
                <path d="M15.9977075,6.39003953 C16.9359684,4.95747036 18.6439526,5.25960474 18.9779447,6.62023715 L19.1588142,11.8264032 C19.1588142,12.7163636 18.0283794,13.4172332 18.0283794,13.4172332" id="Shape"></path>
                <path d="M9.66521739,11.0895652 L13.8416601,9.67035573" id="Shape"></path>
                <path d="M12.5241897,17.1271146 L18.0242688,13.4162055" id="Shape"></path>
                <path d="M13.8416601,9.67035573 L15.9977075,6.39003953" id="Shape"></path>
                <path d="M13.0241897,22.8173123 L12.5241897,17.1271146" id="Shape"></path>
                <polyline id="Shape" points="16.4694071 5.85667984 16.4694071 11.5479051 10.8336759 15.3728854"></polyline>
            </g>
        </g>
    </g>
</svg>