<?xml version="1.0" encoding="UTF-8" standalone="no"?>
<svg width="30px" height="30px" viewBox="0 0 30 30" version="1.1" xmlns="http://www.w3.org/2000/svg" xmlns:xlink="http://www.w3.org/1999/xlink">
    <!-- Generator: Sketch 43.2 (39069) - http://www.bohemiancoding.com/sketch -->
    <title>Icon_Social_Facebook_White</title>
    <desc>Created with Sketch.</desc>
    <defs></defs>
    <g id="Symbols" stroke="none" stroke-width="1" fill="none" fill-rule="evenodd">
        <g id="Icon_Social_Facebook_White" fill-rule="nonzero" fill="#FFFFFF">
            <path d="M15,4 C8.92479167,4 4,8.92479167 4,15 C4,21.0752083 8.92479167,26 15,26 C21.0752083,26 26,21.0752083 26,15 C26,8.92479167 21.0752083,4 15,4 Z M18.2589102,10.8342265 L16.2322038,10.8342265 C15.9920328,10.8342265 15.7251761,11.150241 15.7251761,11.5701892 L15.7251761,13.0336875 L18.2603147,13.0336875 L17.8768838,15.1207878 L15.7251761,15.1207878 L15.7251761,21.3863021 L13.3332974,21.3863021 L13.3332974,15.1207878 L11.1633311,15.1207878 L11.1633311,13.0336875 L13.3332974,13.0336875 L13.3332974,11.8061467 C13.3332974,10.0448925 14.5552202,8.61369792 16.2322038,8.61369792 L18.2589102,8.61369792 L18.2589102,10.8342265 Z" id="Shape"></path>
        </g>
    </g>
</svg>