<?xml version="1.0" encoding="UTF-8" standalone="no"?>
<svg width="46px" height="46px" viewBox="0 0 46 46" version="1.1" xmlns="http://www.w3.org/2000/svg" xmlns:xlink="http://www.w3.org/1999/xlink">
    <!-- Generator: Sketch 43.2 (39069) - http://www.bohemiancoding.com/sketch -->
    <title>Icon_AutonomousCarOnParkingSpace</title>
    <desc>Created with Sketch.</desc>
    <defs></defs>
    <g id="Symbols" stroke="none" stroke-width="1" fill="none" fill-rule="evenodd">
        <g id="Icon_AutonomousCarOnParkingSpace">
            <g id="Group-12" fill="#6566CC">
                <rect id="Rectangle-15" x="0" y="0" width="46" height="46" rx="3"></rect>
            </g>
            <g id="Icon---Car-Copy" transform="translate(4.000000, 8.000000)">
                <path d="M1.42131988,20.2945068 C1.15113074,20.8677261 1,21.5086212 1,22.1849744 C1,24.6276873 2.97129025,26.6078974 5.403,26.6078974 C7.58551272,26.6078974 9.39713656,25.012748 9.74551992,22.9197436 L10,23 L29,23 L29.1509174,22.8338359 C29.4633907,24.9689423 31.2945942,26.6078974 33.5068718,26.6078974 C35.9385815,26.6078974 37.9098718,24.6276873 37.9098718,22.1849744 C37.9098718,19.8246349 36.0692921,17.8961311 33.7512505,17.7687487 L33.7573333,17.7620513 C35.0371538,16.3067179 37.6622564,15.5078974 37.6622564,15.5078974 C37.6622564,15.5078974 38.5711282,9.74064103 35.675641,4.78738462 C35.675641,4.78738462 35.1936923,3.94207692 34.6709487,3.86712821 C33.4850513,3.69730769 26.1951026,3.05123077 23.5453333,3.09582051 C20.8955641,3.14041026 18.5493846,3.27607692 17.3255385,3.74948718 C17.3255385,3.74948718 9.97771795,6.32620513 1.97907692,14.315359 C1.97907692,14.315359 1.02466667,15.3191026 1.79976923,16.5704615 C1.79976923,16.5704615 1.13566667,17.7601538 1.42028205,20.2941795 L1.42131988,20.2945068 Z" id="Combined-Shape" stroke="#FFFFFF" fill="#FFFFFF" stroke-linecap="round" stroke-linejoin="round"></path>
                <ellipse id="Oval" stroke="#6566CC" stroke-linecap="round" stroke-linejoin="round" cx="5.403" cy="22.1849744" rx="1.9875641" ry="1.99705128"></ellipse>
                <ellipse id="Oval" stroke="#6566CC" stroke-linecap="round" stroke-linejoin="round" cx="33.5068718" cy="22.1849744" rx="1.9875641" ry="1.99705128"></ellipse>
                <path d="M9.69215385,23 L29.194,23" id="Shape" stroke="#FFFFFF" stroke-linecap="round" stroke-linejoin="round"></path>
                <path d="M8.72635897,12.1475385 C8.72635897,12.1475385 10.2832051,9.69415385 14.1340513,7.11933333 C18.3378205,4.30923077 23.6762564,4.32251282 23.6762564,4.32251282 C23.6762564,4.32251282 31.272641,3.69446154 31.2204615,11.066 C31.1682821,18.4375385 18.2268205,21.1442308 9.80694872,21.7751282" id="Shape" stroke="#6566CC" stroke-linecap="round" stroke-linejoin="round"></path>
                <path d="M8.72635897,12.1475385 C8.72635897,12.1475385 10.2832051,9.69415385 14.1340513,7.11933333 C18.3378205,4.30923077 23.6762564,4.32251282 23.6762564,4.32251282 C23.6762564,4.32251282 30.1103062,3.79056065 31.0949659,9.45190394 C31.1802166,9.94205675 18.4198718,11.3691026 10,12 L8.72635897,12.1475385 Z" id="Shape-Copy" fill="#6566CC"></path>
                <path d="M30,0 L30.7774103,3.4914359 C30.7774103,3.4914359 33.2649487,9.61920513 37.5673846,10.2994359 L41,10.2994359" id="Shape" stroke="#6566CC" stroke-linecap="round" stroke-linejoin="round"></path>
                <path d="M5.63638462,15.9689744 C4.70379487,16.7099231 3.60897436,16.8806923 3.19248718,16.3484615 C2.776,15.8162308 3.19248718,14.7887692 4.12602564,14.0478205 C5.0595641,13.3068718 6.1534359,13.1361026 6.56992308,13.6683333 C6.98641026,14.2005641 6.56897436,15.2280256 5.63638462,15.9689744 Z" id="Shape" fill="#6566CC"></path>
                <path d="M1.77635684e-15,12.3467692 L4.05676923,12.3467692 C4.05676923,12.3467692 18.1253077,12.0839744 31.1028205,9.51294872" id="Shape" stroke="#6566CC" stroke-linecap="round" stroke-linejoin="round"></path>
            </g>
        </g>
    </g>
</svg>