<?xml version="1.0" encoding="UTF-8" standalone="no"?>
<svg width="70px" height="60px" viewBox="0 0 70 60" version="1.1" xmlns="http://www.w3.org/2000/svg" xmlns:xlink="http://www.w3.org/1999/xlink">
    <!-- Generator: Sketch 43.1 (39012) - http://www.bohemiancoding.com/sketch -->
    <title>Icon_Diagram_Car</title>
    <desc>Created with Sketch.</desc>
    <defs></defs>
    <g id="Symbols" stroke="none" stroke-width="1" fill="none" fill-rule="evenodd" stroke-linecap="round" stroke-linejoin="round">
        <g id="Icon_Diagram_Car" stroke="#A6C4FF" stroke-width="2">
            <g id="Icon---Car" transform="translate(8.000000, 14.000000)">
                <ellipse id="Oval" cx="6.545" cy="28.5182051" rx="6.545" ry="6.57461538"></ellipse>
                <ellipse id="Oval" cx="6.545" cy="28.5182051" rx="2.95448718" ry="2.96858974"></ellipse>
                <ellipse id="Oval" cx="48.3210256" cy="28.5182051" rx="6.545" ry="6.57461538"></ellipse>
                <ellipse id="Oval" cx="48.3210256" cy="28.5182051" rx="2.95448718" ry="2.96858974"></ellipse>
                <path d="M48.6933333,21.9435897 C50.5957692,19.7802564 54.4979487,18.5928205 54.4979487,18.5928205 C54.4979487,18.5928205 55.8489744,10.0198718 51.5448718,2.65692308 C51.5448718,2.65692308 50.8284615,1.40038462 50.0514103,1.28897436 C48.2885897,1.03653846 37.4521795,0.0761538462 33.5133333,0.142435897 C29.5744872,0.208717949 26.0869231,0.410384615 24.2676923,1.11410256 C24.2676923,1.11410256 13.3452564,4.94435897 1.45538462,16.8201282 C1.45538462,16.8201282 0.0366666667,18.3121795 1.18884615,20.1723077 C1.18884615,20.1723077 0.201666667,21.9407692 0.62474359,25.7075641" id="Shape"></path>
                <path d="M12.9207692,30 L41.91,30" id="Shape"></path>
                <path d="M4.54384615,13.8938462 C4.54384615,13.8938462 25.4565385,13.5032051 44.7474359,9.68141026" id="Shape"></path>
                <path d="M38.1065385,14.0038462 C39.2883333,13.815812 40.4720085,13.6164957 41.6575641,13.4058974" id="Shape"></path>
                <path d="M11.4851282,13.5976923 C11.4851282,13.5976923 13.799359,9.95076923 19.5235897,6.12333333 C25.7724359,1.94615385 33.7079487,1.96589744 33.7079487,1.96589744 C33.7079487,1.96589744 44.9998718,1.03230769 44.9223077,11.99 C44.8447436,22.9476923 25.6074359,26.9711538 13.0914103,27.9089744" id="Shape"></path>
                <path d="M44.2637179,0.730512821 C44.2637179,0.730512821 47.9614103,9.83935897 54.3569231,10.8505128" id="Shape"></path>
                <path d="M6.89192308,19.2782051 C5.50564103,20.3796154 3.87820513,20.6334615 3.25910256,19.8423077 C2.64,19.0511538 3.25910256,17.5238462 4.64679487,16.4224359 C6.03448718,15.3210256 7.66051282,15.0671795 8.27961538,15.8583333 C8.89871795,16.6494872 8.27820513,18.1767949 6.89192308,19.2782051 Z" id="Shape"></path>
                <path d="M19.860641,12.7698718 L18.4997436,11.4019231 C18.1476484,11.0476956 18.1476484,10.4756377 18.4997436,10.1214103 L18.5744872,10.0466667 C18.92517,9.69664786 19.4930352,9.69664786 19.8437179,10.0466667 L22.5485897,12.7642308" id="Shape"></path>
            </g>
        </g>
    </g>
</svg>