<?xml version="1.0" encoding="UTF-8" standalone="no"?>
<svg width="80px" height="60px" viewBox="0 0 80 60" version="1.1" xmlns="http://www.w3.org/2000/svg" xmlns:xlink="http://www.w3.org/1999/xlink">
    <!-- Generator: Sketch 43.2 (39069) - http://www.bohemiancoding.com/sketch -->
    <title>Icon_Label_Car_Explanation</title>
    <desc>Created with Sketch.</desc>
    <defs></defs>
    <g id="Symbols" stroke="none" stroke-width="1" fill="none" fill-rule="evenodd" stroke-linecap="round" stroke-linejoin="round">
        <g id="Icon_Label_Car_Explanation" stroke="#0000FF">
            <g id="Icon---Car" transform="translate(19.000000, 19.000000)">
                <ellipse id="Oval" cx="4.998" cy="21.5997626" rx="4.998" ry="4.97963077"></ellipse>
                <ellipse id="Oval" cx="4.998" cy="21.5997626" rx="2.25615385" ry="2.24841758"></ellipse>
                <ellipse id="Oval" cx="36.8996923" cy="21.5997626" rx="4.998" ry="4.97963077"></ellipse>
                <ellipse id="Oval" cx="36.8996923" cy="21.5997626" rx="2.25615385" ry="2.24841758"></ellipse>
                <path d="M37.184,16.6201319 C38.6367692,14.9816176 41.6166154,14.0822505 41.6166154,14.0822505 C41.6166154,14.0822505 42.6483077,7.58907692 39.3615385,2.01236044 C39.3615385,2.01236044 38.8144615,1.06065495 38.2210769,0.976272527 C36.8749231,0.785076923 28.5998462,0.0576791209 25.592,0.107881319 C22.5841538,0.158083516 19.9209231,0.310826374 18.5316923,0.843824176 C18.5316923,0.843824176 10.1909231,3.74487033 1.11138462,12.7396088 C1.11138462,12.7396088 0.028,13.8696923 0.907846154,15.2785582 C0.907846154,15.2785582 0.154,16.6179956 0.477076923,19.4709758" id="Shape"></path>
                <path d="M9.86676923,22 L32.004,22" id="Shape"></path>
                <path d="M3.46984615,10.5232352 C3.46984615,10.5232352 19.4395385,10.2273626 34.1707692,7.33272527" id="Shape"></path>
                <path d="M29.0995385,10.6536615 C30.002,10.4964288 30.9058974,10.3297622 31.8112308,10.1536615" id="Shape"></path>
                <path d="M8.77046154,10.2989275 C8.77046154,10.2989275 10.5376923,7.53673846 14.9089231,4.63782857 C19.6807692,1.47402198 25.7406154,1.48897582 25.7406154,1.48897582 C25.7406154,1.48897582 34.3635385,0.781872527 34.3043077,9.08125714 C34.2450769,17.3806418 19.5547692,20.428022 9.99707692,21.1383297" id="Shape"></path>
                <path d="M33.8013846,0.553292308 C33.8013846,0.553292308 36.6250769,7.45235604 41.5089231,8.21820659" id="Shape"></path>
                <path d="M5.26292308,14.6013626 C4.20430769,15.4355736 2.96153846,15.6278374 2.48876923,15.0286154 C2.016,14.4293934 2.48876923,13.2726066 3.54846154,12.4383956 C4.60815385,11.6041846 5.84984615,11.4119209 6.32261538,12.0111429 C6.79538462,12.6103648 6.32153846,13.7671516 5.26292308,14.6013626 Z" id="Shape"></path>
                <path d="M15.1663077,9.67193407 L14.1270769,8.63584615 C13.8582042,8.36755338 13.8582042,7.9342752 14.1270769,7.66598242 L14.1841538,7.60937143 C14.451948,7.34426628 14.8855905,7.34426628 15.1533846,7.60937143 L17.2189231,9.66766154" id="Shape"></path>
            </g>
        </g>
    </g>
</svg>