<?xml version="1.0" encoding="UTF-8" standalone="no"?>
<svg width="20px" height="21px" viewBox="0 0 20 21" version="1.1" xmlns="http://www.w3.org/2000/svg" xmlns:xlink="http://www.w3.org/1999/xlink">
    <!-- Generator: Sketch 43.1 (39012) - http://www.bohemiancoding.com/sketch -->
    <title>Icon_Search</title>
    <desc>Created with Sketch.</desc>
    <defs></defs>
    <g id="Symbols" stroke="none" stroke-width="1" fill="none" fill-rule="evenodd">
        <g id="Icon_Search" fill="#0000FF">
            <path d="M17.4753614,2.52641932 C14.3002553,-0.653153028 9.21405204,-0.856778575 5.79492753,2.05879453 C2.37580302,4.97436764 1.77333409,10.0288665 4.41136141,13.6664193 L0.398361408,17.6764193 C-0.132787136,18.210121 -0.132787136,19.0727176 0.398361408,19.6064193 C0.652874143,19.8623518 0.998920727,20.0062531 1.35986141,20.0062531 C1.72080209,20.0062531 2.06684867,19.8623518 2.32136141,19.6064193 L6.33436141,15.5864193 C9.9709638,18.2232015 15.0235798,17.6212013 17.9388476,14.2037884 C20.8541154,10.7863755 20.6523126,5.70202612 17.4753614,2.52641932 L17.4753614,2.52641932 Z M16.1293614,13.3564193 C13.8651168,15.6215203 10.3159669,15.9713267 7.65308581,14.1918462 C4.99020477,12.4123656 3.95553779,8.99940595 5.18203705,6.04082758 C6.40853631,3.0822492 9.55446847,1.40238601 12.6953258,2.02888562 C15.8361831,2.65538523 18.0968442,5.41368919 18.0943614,8.61641932 C18.0989551,10.3954952 17.3913414,12.1024104 16.1293614,13.3564193 L16.1293614,13.3564193 Z" id="Shape_9_copy"></path>
        </g>
    </g>
</svg>