<?xml version="1.0" encoding="UTF-8" standalone="no"?>
<svg width="120px" height="120px" viewBox="0 0 120 120" version="1.1" xmlns="http://www.w3.org/2000/svg" xmlns:xlink="http://www.w3.org/1999/xlink">
    <!-- Generator: Sketch 43.1 (39012) - http://www.bohemiancoding.com/sketch -->
    <title>Icon_SpaceAllocation_Car</title>
    <desc>Created with Sketch.</desc>
    <defs></defs>
    <g id="Symbols" stroke="none" stroke-width="1" fill="none" fill-rule="evenodd">
        <g id="Icon_SpaceAllocation_Car">
            <g id="Group-16">
                <g id="Group-15">
                    <rect id="Rectangle-15" x="0" y="0" width="120" height="120"></rect>
                </g>
                <g id="Icon---Car" transform="translate(24.000000, 37.000000)" stroke="#0000FF" stroke-width="2" stroke-linecap="round" stroke-linejoin="round">
                    <ellipse id="Oval" cx="8.687" cy="37.8514359" rx="8.687" ry="8.72630769"></ellipse>
                    <ellipse id="Oval" cx="8.687" cy="37.8514359" rx="3.92141026" ry="3.94012821"></ellipse>
                    <ellipse id="Oval" cx="64.1351795" cy="37.8514359" rx="8.687" ry="8.72630769"></ellipse>
                    <ellipse id="Oval" cx="64.1351795" cy="37.8514359" rx="3.92141026" ry="3.94012821"></ellipse>
                    <path d="M64.6293333,29.1251282 C67.1543846,26.2537949 72.333641,24.6777436 72.333641,24.6777436 C72.333641,24.6777436 74.1268205,13.2991026 68.4141026,3.52646154 C68.4141026,3.52646154 67.4632308,1.85869231 66.4318718,1.71082051 C64.0921282,1.37576923 49.7092564,0.101076923 44.4813333,0.189051282 C39.2534103,0.277025641 34.6244615,0.544692308 32.2098462,1.47871795 C32.2098462,1.47871795 17.7127949,6.56251282 1.93169231,22.3248974 C1.93169231,22.3248974 0.0486666667,24.3052564 1.57792308,26.7741538 C1.57792308,26.7741538 0.267666667,29.1213846 0.829205128,34.1209487" id="Shape"></path>
                    <path d="M17.1493846,40 L55.626,40" id="Shape"></path>
                    <path d="M6.03092308,18.4409231 C6.03092308,18.4409231 33.7877692,17.9224359 59.3920513,12.8498718" id="Shape"></path>
                    <path d="M50.5777692,18.5869231 C52.1463333,18.3373504 53.7173932,18.0728034 55.2909487,17.7932821" id="Shape"></path>
                    <path d="M15.2438974,18.0478462 C15.2438974,18.0478462 18.3155128,13.2073846 25.9131282,8.12733333 C34.2070513,2.58307692 44.739641,2.60928205 44.739641,2.60928205 C44.739641,2.60928205 59.7271026,1.37015385 59.6241538,15.914 C59.5212051,30.4578462 33.9880513,35.7980769 17.3758718,37.0428205" id="Shape"></path>
                    <path d="M58.7500256,0.969589744 C58.7500256,0.969589744 63.6578718,13.0595128 72.1464615,14.4015897" id="Shape"></path>
                    <path d="M9.14746154,25.5874359 C7.30748718,27.0493077 5.1474359,27.3862308 4.32571795,26.3361538 C3.504,25.2860769 4.32571795,23.2589231 6.1675641,21.7970513 C8.00941026,20.3351795 10.1675897,19.9982564 10.9893077,21.0483333 C11.8110256,22.0984103 10.9874359,24.1255641 9.14746154,25.5874359 Z" id="Shape"></path>
                    <path d="M26.3604872,16.9491026 L24.5542051,15.1334615 C24.0868788,14.6633051 24.0868788,13.9040282 24.5542051,13.4338718 L24.6534103,13.3346667 C25.1188619,12.8700963 25.872574,12.8700963 26.3380256,13.3346667 L29.9281282,16.9416154" id="Shape"></path>
                </g>
            </g>
        </g>
    </g>
</svg>