<?xml version="1.0" encoding="UTF-8" standalone="no"?>
<svg width="70px" height="60px" viewBox="0 0 70 60" version="1.1" xmlns="http://www.w3.org/2000/svg" xmlns:xlink="http://www.w3.org/1999/xlink">
    <!-- Generator: Sketch 43.1 (39012) - http://www.bohemiancoding.com/sketch -->
    <title>Icon_Diagram_Rail</title>
    <desc>Created with Sketch.</desc>
    <defs></defs>
    <g id="Symbols" stroke="none" stroke-width="1" fill="none" fill-rule="evenodd" stroke-linecap="round" stroke-linejoin="round">
        <g id="Icon_Diagram_Rail" stroke="#A6C4FF" stroke-width="2">
            <g id="Icon---Rail" transform="translate(2.000000, 11.000000)">
                <ellipse id="Oval" cx="22.7294128" cy="35.4661577" rx="2.92281879" ry="2.92281879"></ellipse>
                <ellipse id="Oval" cx="35.7112248" cy="35.4661577" rx="2.92281879" ry="2.92281879"></ellipse>
                <path d="M26.3845638,34.9565217 L32.0545638,34.9565217" id="Shape"></path>
                <path d="M4.99902814,35.1558893 L17.5020638,35.1558893 L17.5020638,32.5624497 C17.5020638,31.6826953 18.2152456,30.9695134 19.095,30.9695134 L39.2354698,30.9695134 C39.6579428,30.9695134 40.0631123,31.1373402 40.3618458,31.4360736 C40.6605793,31.7348071 40.828406,32.1399767 40.828406,32.5624497 L40.828406,35.1599998 L55.5,35.1599998" id="Shape"></path>
                <ellipse id="Oval" cx="61.0588087" cy="35.4661577" rx="2.92281879" ry="2.92281879"></ellipse>
                <path d="M64.7139597,34.9565217 L66.9239598,34.9565217" id="Shape"></path>
                <path d="M55.8303356,35.1558893 L55.8303356,32.5624497 C55.8303355,32.1397819 55.9983165,31.7344418 56.2972932,31.435676 C56.5962698,31.1369102 57.0017283,30.9692151 57.424396,30.9695134 L66.9258054,30.9695134" id="Shape"></path>
                <polyline id="Shape" points="42.6579195 35.0026146 42.6579195 12.6231884 52.5179191 12.6231884 52.5179191 35.0059929"></polyline>
                <path d="M5.17451342,35.1558893 C2.31857114,35.1558893 0.00337248322,32.8406906 0.00337248322,29.9847483" id="Shape"></path>
                <path d="M0,29.9813758 C0,27.1237584 0.577818792,25.2138087 13.8867617,11.9048658" id="Shape"></path>
                <path d="M13.8867617,11.9048658 C17.4559732,8.41996644 21.1094966,8.27944631 25.6533557,8.27944631 L67.0062781,8.27944631" id="Shape"></path>
                <path d="M47.5797101,34 L47.5797101,13.5058896" id="Shape"></path>
                <path d="M3.13590604,24.2753623 L41.6559065,24.2753623" id="Shape"></path>
                <path d="M52.5196812,24.2753623 L66.9224329,24.2753623" id="Shape"></path>
                <path d="M25.9130369,18.7566275 L20.8003523,18.7566275 C18.1911745,18.7566275 16.5026846,19.9785906 15.2335067,21.502953 L8.90223154,21.502953 C11.2404866,18.7566275 13.8856376,13.5079195 21.1364765,13.5079195 L25.9119128,13.5079195 L25.9130369,18.7566275 Z" id="Shape"></path>
                <rect id="Rectangle-path" x="29.2394295" y="13.5067953" width="11.0920973" height="7.75558725" rx="3.87779362"></rect>
                <rect id="Rectangle-path" x="55.8314597" y="13.5067953" width="11.0920973" height="7.75558725" rx="3.87779362"></rect>
                <rect id="Rectangle-path" x="29.3259899" y="5.75008389" width="11.180906" height="2.52936242"></rect>
                <path d="M37.4716611,2.87447987 L34.5971812,5.75008389" id="Shape"></path>
                <path d="M34.5971812,0 L37.4716611,2.87447987" id="Shape"></path>
                <rect id="Rectangle-path" x="55.7864933" y="5.75008389" width="11.180906" height="2.52936242"></rect>
                <path d="M63.9332886,2.87447987 L61.0588087,5.75008389" id="Shape"></path>
                <path d="M61.0588087,0 L63.9332886,2.87447987" id="Shape"></path>
            </g>
        </g>
    </g>
</svg>