<?xml version="1.0" encoding="UTF-8" standalone="no"?>
<svg width="30px" height="30px" viewBox="0 0 30 30" version="1.1" xmlns="http://www.w3.org/2000/svg" xmlns:xlink="http://www.w3.org/1999/xlink">
    <!-- Generator: Sketch 43.2 (39069) - http://www.bohemiancoding.com/sketch -->
    <title>Icon_Social_Twitter</title>
    <desc>Created with Sketch.</desc>
    <defs></defs>
    <g id="Symbols" stroke="none" stroke-width="1" fill="none" fill-rule="evenodd">
        <g id="Icon_Social_Twitter" fill-rule="nonzero" fill="#0000FF">
            <path d="M26.8,8.3 C26,8.7 25.1,8.9 24.1,9 C25.1,8.4 25.8,7.5 26.2,6.4 C25.3,6.9 24.3,7.3 23.2,7.5 C22.3,6.6 21.1,6 19.8,6 C17.2,6 15.1,8.1 15.1,10.7 C15.1,11.1 15.1,11.4 15.2,11.8 C11.3,11.7 7.9,9.8 5.5,7 C5.1,7.7 4.9,8.5 4.9,9.3 C4.9,10.9 5.7,12.4 7,13.2 C6.2,13.2 5.5,13 4.9,12.6 C4.9,12.6 4.9,12.6 4.9,12.7 C4.9,15 6.5,16.9 8.7,17.3 C8.2,17.4 7.8,17.5 7.4,17.5 C7.1,17.5 6.8,17.5 6.5,17.4 C7.1,19.3 8.8,20.6 10.9,20.7 C9.3,22 7.3,22.7 5.1,22.7 C4.7,22.7 4.3,22.7 4,22.6 C6.1,23.9 8.5,24.7 11.2,24.7 C19.8,24.7 24.6,17.5 24.6,11.3 L24.6,10.7 C25.4,10.1 26.2,9.2 26.8,8.3 Z" id="Shape"></path>
        </g>
    </g>
</svg>