<?xml version="1.0" encoding="UTF-8" standalone="no"?>
<svg width="297px" height="195px" viewBox="0 0 297 195" version="1.1" xmlns="http://www.w3.org/2000/svg" xmlns:xlink="http://www.w3.org/1999/xlink">
    <!-- Generator: Sketch 43.1 (39012) - http://www.bohemiancoding.com/sketch -->
    <title>Illustration_Snap</title>
    <desc>Created with Sketch.</desc>
    <defs></defs>
    <g id="Symbols" stroke="none" stroke-width="1" fill="none" fill-rule="evenodd">
        <g id="Illustration_Snap" fill="#FFFFFF">
            <text id="font" transform="translate(148.500000, 97.500000) rotate(-15.000000) translate(-148.500000, -97.500000) " font-family="SignPainterHouseBrush, SignPainter HouseBrush" font-size="127" font-weight="normal">
                <tspan x="12.4195" y="136">snap!</tspan>
            </text>
            <path d="M5.6885,118.22 C5.77316709,116.611325 6.36582783,115.807 7.4665,115.807 C8.05916963,115.807 8.65183037,116.018665 9.2445,116.442 C18.7272141,123.384701 27.4054606,126.856 35.2795,126.856 C39.004852,126.856 40.8675,125.797677 40.8675,123.681 C40.8675,122.834329 40.5288367,121.924172 39.8515,120.9505 C39.1741633,119.976828 36.5918558,117.500353 32.1045,113.521 C27.1938088,109.202978 23.9341747,106.112676 22.3255,104.25 C19.6161531,101.117318 18.2615,97.8153507 18.2615,94.344 C18.2615,91.3806518 19.2774898,88.2903494 21.3095,85.073 C28.5908697,73.3889416 38.7507681,64.3720317 51.7895,58.022 C55.1761836,56.3286582 58.1394873,55.482 60.6795,55.482 C63.0501785,55.482 65.2938228,56.1593266 67.4105,57.514 C71.8131887,60.2233469 75.0304898,63.0173189 77.0625,65.896 C78.1631722,67.5046747 78.7135,69.1979911 78.7135,70.976 C78.7135,72.4153405 78.3325038,74.066324 77.5705,75.929 C74.1838164,84.2263748 68.8922027,92.1849619 61.6955,99.805 C60.764162,100.821005 59.8751709,101.329 59.0285,101.329 C56.9964898,101.329 55.0915089,99.1276887 53.3135,94.725 C53.0594987,94.1323304 52.9325,93.4973367 52.9325,92.82 C52.9325,91.5499936 53.4404949,89.9413431 54.4565,87.994 C56.4038431,84.6919835 58.308824,81.3476836 60.1715,77.961 C62.7961798,73.3889771 64.1085,70.4256734 64.1085,69.071 C64.1085,68.3936633 63.7698367,68.055 63.0925,68.055 C60.9758228,68.055 57.081195,70.2563113 51.4085,74.659 C45.4818037,79.31569 41.121514,83.8453113 38.3275,88.248 C36.6341582,90.7880127 35.7875,92.989324 35.7875,94.852 C35.7875,96.6300089 36.8458228,98.6619886 38.9625,100.948 C42.0105152,103.57268 46.1591404,107.340309 51.4085,112.251 C54.0331798,115.129681 55.3455,117.965986 55.3455,120.76 C55.3455,123.215346 54.3295102,125.670654 52.2975,128.126 C46.8788062,134.730033 40.3595381,138.032 32.7395,138.032 C24.1881239,138.032 16.610533,134.98403 10.0065,128.888 C6.87381767,126.009319 5.43449873,122.453355 5.6885,118.22 Z M95.4775,86.47 C86.2487872,102.980083 77.9515368,119.828581 70.5855,137.016 C70.1621646,138.116672 69.5271709,138.667 68.6805,138.667 C67.5798278,138.667 66.1828418,137.905008 64.4895,136.381 C62.7961582,134.856992 61.6531696,133.544672 61.0605,132.444 C60.0444949,130.665991 59.8328304,128.888009 60.4255,127.11 C63.1348469,119.151294 68.1301303,107.721408 75.4115,92.82 C81.7615318,79.696601 87.772805,68.1397166 93.4455,58.149 C94.376838,56.5403253 95.5621595,55.736 97.0015,55.736 C97.6788367,55.736 98.5678278,55.9053316 99.6685,56.244 C102.885849,57.3446722 106.399481,59.3343189 110.2095,62.213 C111.564173,63.2290051 112.2415,64.4566595 112.2415,65.896 C112.2415,66.5733367 112.072168,67.843324 111.7335,69.706 C109.278154,81.8133939 107.330841,95.3599251 105.8915,110.346 C116.390219,88.8405591 126.507785,71.4417331 136.2445,58.149 C137.006504,57.1329949 137.726163,56.625 138.4035,56.625 C139.165504,56.625 139.885163,57.1329949 140.5625,58.149 C142.171175,60.4350114 142.9755,62.8056544 142.9755,65.261 C142.9755,67.3776772 142.298173,69.7906531 140.9435,72.5 C136.117476,81.8133799 131.333857,91.0842872 126.5925,100.313 C119.734466,113.6904 114.27352,124.993287 110.2095,134.222 C109.447496,135.915342 108.389173,136.762 107.0345,136.762 C106.357163,136.762 105.510505,136.550335 104.4945,136.127 C101.700486,134.941661 98.9700133,133.39651 96.303,131.4915 C93.6359867,129.58649 92.3025,126.771352 92.3025,123.046 C92.2178329,111.446609 93.2761557,99.2547306 95.4775,86.47 Z M163.0415,120.76 C154.151456,121.691338 145.092213,123.257656 135.8635,125.459 C133.662156,128.422348 131.24918,131.93598 128.6245,136 C127.608495,137.608675 126.719504,138.413 125.9575,138.413 C125.36483,138.413 124.666337,137.947338 123.862,137.016 C123.057663,136.084662 122.062839,134.730009 120.8775,132.952 C120.115496,131.766661 119.7345,130.539006 119.7345,129.269 C119.7345,127.660325 120.411827,125.755344 121.7665,123.554 C126.592524,115.764628 134.085449,105.139067 144.2455,91.677 C154.99822,77.2835947 164.099796,65.8960419 171.5505,57.514 C172.989841,55.9053253 174.344494,55.101 175.6145,55.101 C176.545838,55.101 177.688827,55.4396633 179.0435,56.117 C181.583513,57.4716734 184.419818,59.2496557 187.5525,61.451 C189.58451,62.8903405 190.6005,64.4143253 190.6005,66.023 C190.6005,66.6156696 190.30417,67.843324 189.7115,69.706 C181.414125,95.0214599 176.037846,116.611244 173.5825,134.476 C173.413166,136.000008 172.820505,136.762 171.8045,136.762 C171.381165,136.762 170.830837,136.635001 170.1535,136.381 C168.460158,135.78833 166.682176,134.793507 164.8195,133.3965 C162.956824,131.999493 162.152499,129.819348 162.4065,126.856 C162.4065,126.686666 162.618165,124.654686 163.0415,120.76 Z M145.8965,111.489 C153.431871,110.388328 159.82414,109.626335 165.0735,109.203 C167.444179,96.6722707 170.238151,85.6233812 173.4555,76.056 C164.73479,86.8087204 155.548548,98.6196023 145.8965,111.489 Z M207.3645,102.345 C214.476536,100.905659 222.477456,96.0373748 231.3675,87.74 C239.749542,79.8659606 243.9405,74.066352 243.9405,70.341 C243.9405,68.7323253 242.585847,67.928 239.8765,67.928 C236.151148,67.928 231.875524,68.859324 227.0495,70.722 C220.614801,79.9507128 214.0532,90.4916074 207.3645,102.345 Z M204.3165,107.679 C198.643805,118.093052 193.690855,127.66029 189.4575,136.381 C188.780163,137.735673 188.060504,138.413 187.2985,138.413 C186.790497,138.413 185.901506,137.905005 184.6315,136.889 C183.361494,135.872995 181.964508,134.391343 180.4405,132.444 C179.339828,131.089327 178.7895,129.650008 178.7895,128.126 C178.7895,127.194662 179.043497,126.136339 179.5515,124.951 C186.663536,107.763581 195.934443,90.3647547 207.3645,72.754 C205.501824,70.5526557 204.020172,68.6053418 202.9195,66.912 C202.242163,65.8959949 201.9035,65.0493367 201.9035,64.372 C201.9035,63.5253291 202.538494,62.8056696 203.8085,62.213 C213.037213,57.9796455 222.138788,55.7360013 231.1135,55.482 C240.088212,55.2279987 247.792801,58.6992973 254.2275,65.896 C256.682846,68.690014 257.9105,71.5263189 257.9105,74.405 C257.9105,76.4370102 256.640513,79.8659759 254.1005,84.692 C251.306486,89.8566925 246.395868,95.275305 239.3685,100.948 C231.409794,107.298032 223.832203,111.192659 216.6355,112.632 C215.280827,112.886001 214.095505,113.013 213.0795,113.013 C209.692816,113.013 206.771846,111.235018 204.3165,107.679 Z M293.4705,68.182 C282.633112,82.7447395 273.108208,98.4502491 264.8955,115.299 C264.218163,116.653673 263.58317,117.331 262.9905,117.331 C261.635827,117.331 259.603847,115.214355 256.8945,110.981 C255.709161,109.033657 255.624495,106.536015 256.6405,103.488 C258.757177,97.3073024 262.821137,89.0100521 268.8325,78.596 C274.335861,68.9439517 279.288811,61.2393621 283.6915,55.482 C284.707505,54.2119937 285.638829,53.577 286.4855,53.577 C287.162837,53.577 287.967162,53.9579962 288.8985,54.72 C291.269179,56.6673431 293.131827,58.6993227 294.4865,60.816 C295.248504,61.9166722 295.6295,62.8903291 295.6295,63.737 C295.6295,64.8376722 294.909841,66.319324 293.4705,68.182 Z M243.6865,130.031 C243.855834,127.490987 244.871824,125.099178 246.7345,122.8555 C248.597176,120.611822 250.671489,119.405334 252.9575,119.236 C255.243511,119.066666 257.063827,120.019156 258.4185,122.0935 C259.773173,124.167844 260.281168,126.771318 259.9425,129.904 C259.688499,132.359346 258.778341,134.412492 257.212,136.0635 C255.645659,137.714508 253.634846,138.54 251.1795,138.54 C248.978156,138.54 247.136674,137.693342 245.655,136 C244.173326,134.306658 243.517166,132.317011 243.6865,130.031 Z" id="outlines" transform="translate(150.644712, 96.122000) rotate(-15.000000) translate(-150.644712, -96.122000) "></path>
        </g>
    </g>
</svg>