<?xml version="1.0" encoding="UTF-8" standalone="no"?>
<svg width="166px" height="25px" viewBox="0 0 166 25" version="1.1" xmlns="http://www.w3.org/2000/svg" xmlns:xlink="http://www.w3.org/1999/xlink">
    <!-- Generator: Sketch 43.1 (39012) - http://www.bohemiancoding.com/sketch -->
    <title>Logo_LabFooter</title>
    <desc>Created with Sketch.</desc>
    <defs></defs>
    <g id="Symbols" stroke="none" stroke-width="1" fill="none" fill-rule="evenodd">
        <g id="Logo_LabFooter" fill="#FFFFFF">
            <path d="M132.44068,17.3780318 C132.171629,17.3780318 131.953594,17.1520721 131.953594,16.8748564 L131.953594,13.5865295 L131.953594,1.44390399 L129.208579,1.44390399 L129.208579,16.8748564 C129.208579,18.543204 130.403583,19.9177319 131.953594,20.1624614 C132.105939,20.1870065 132.258984,20.208664 132.41692,20.2108298 L132.41692,20.2137174 L133.149296,20.2137174 L133.149296,17.3780318 L132.44068,17.3780318 Z" id="Fill-1"></path>
            <path d="M141.36107,17.6869396 C138.842477,17.6869396 136.792801,15.5818328 136.792801,12.9944862 C136.792801,10.4071396 138.842477,8.30203287 141.36107,8.30203287 C143.879663,8.30203287 145.92934,10.4071396 145.92934,12.9944862 C145.92934,15.5818328 143.879663,17.6869396 141.36107,17.6869396 L141.36107,17.6869396 Z M145.92934,5.77532721 L145.92934,7.06033752 C144.672838,6.03305119 143.087187,5.41436926 141.36107,5.41436926 C137.300153,5.41436926 133.99747,8.81459316 133.99747,12.9944862 C133.99747,17.1743793 137.300153,20.5746032 141.36107,20.5746032 C143.087187,20.5746032 144.672838,19.9559213 145.92934,18.9286349 L145.92934,20.2136452 L148.72467,20.2136452 L148.72467,5.77532721 L145.92934,5.77532721 Z" id="Fill-3"></path>
            <path d="M158.18421,17.6869396 C155.665617,17.6869396 153.616639,15.5818328 153.616639,12.9944862 C153.616639,10.4071396 155.665617,8.30203287 158.18421,8.30203287 C160.702803,8.30203287 162.752479,10.4071396 162.752479,12.9944862 C162.752479,15.5818328 160.702803,17.6869396 158.18421,17.6869396 M158.18421,5.41436926 C156.458792,5.41436926 154.87314,6.03305119 153.616639,7.06033752 L153.616639,1.4438318 L150.821308,1.4438318 L150.821308,20.2136452 L153.616639,20.2136452 L153.616639,18.9286349 C154.87314,19.9559213 156.458792,20.5746032 158.18421,20.5746032 C162.245127,20.5746032 165.54781,17.1743793 165.54781,12.9944862 C165.54781,8.81459316 162.245127,5.41436926 158.18421,5.41436926" id="Fill-5"></path>
            <path d="M58.4342254,6.18111614 C56.4802892,6.18111614 55.1804603,6.8828184 54.2307466,8.6219138 C53.5249256,6.96656064 52.0489909,6.18111614 50.2033737,6.18111614 C48.2228818,6.18111614 46.7231868,7.30369537 46.3409253,8.36924324 L46.3409253,6.18111614 L42.1381453,7.35928289 L42.1381453,20.1704025 L46.3409253,20.1704025 L46.3409253,13.3627355 C46.3409253,11.5947635 46.6372303,9.8838228 48.7539946,9.8838228 C50.6254686,9.8838228 50.5430064,11.9311763 50.5430064,12.9411366 L50.5430064,20.1704025 L54.7450875,20.1704025 L54.7450875,12.9411366 C54.7450875,11.2583507 55.3132385,9.8838228 57.1861102,9.8838228 C58.51529,9.8838228 58.9478675,10.9493707 58.9478675,12.2120016 L58.9478675,20.1704025 L63.1506474,20.1704025 L63.1506474,12.0993827 C63.1506474,8.79012021 62.0150443,6.18111614 58.4342254,6.18111614" id="Fill-7"></path>
            <polygon id="Fill-9" points="101.899244 6.35769677 98.8034155 15.4350673 98.7496054 15.4350673 95.4098838 6.35769677 91.0107318 6.35769677 96.4686154 20.1701137 100.785305 20.1701137 105.998597 6.35769677"></polygon>
            <path d="M112.392497,6.13722365 C108.3197,6.13722365 105.079912,8.94186693 105.079912,13.2899664 C105.079912,17.637344 108.347653,20.4427092 112.42045,20.4427092 C114.538612,20.4427092 116.688222,19.4601816 117.991545,17.7499628 L115.143103,15.5899905 C114.464536,16.5429195 113.569331,17.2633915 112.238055,17.2633915 C110.662886,17.2633915 109.497233,16.2238326 109.172276,14.6450026 L118.54502,14.6450026 L118.54502,13.2899664 C118.54502,8.94186693 116.194147,6.13722365 112.392497,6.13722365 L112.392497,6.13722365 Z M109.172276,11.4880643 C109.280595,10.3041222 110.258262,8.90721497 112.050069,8.90721497 C113.51622,8.90721497 114.575651,10.3041222 114.548396,11.4880643 L109.172276,11.4880643 Z" id="Fill-11"></path>
            <path d="M123.511904,15.1842015 L123.511904,0.000144383181 L119.691386,0.841176408 L119.691386,15.6837673 C119.691386,19.1662897 122.198099,20.1062242 123.686612,20.1062242 C124.347009,20.1062242 125.039552,19.9481246 125.421814,19.6723527 L125.421814,16.3609245 C124.65799,16.7240482 123.511904,16.1291895 123.511904,15.1842015" id="Fill-13"></path>
            <path d="M84.7972704,6.13693489 C81.7804095,6.13693489 79.2128981,7.67678151 78.0828856,10.2410268 C76.9521743,7.67678151 74.3839641,6.13693489 71.3685009,6.13693489 C67.295005,6.13693489 64.0370469,8.94230008 64.0370469,13.2896776 C64.0370469,17.6370552 67.295005,20.4424204 71.3685009,20.4424204 C74.3839641,20.4424204 76.9521743,18.9025738 78.0828856,16.3383285 C79.2128981,18.9025738 81.7804095,20.4424204 84.7972704,20.4424204 C88.8700675,20.4424204 92.1287244,17.6370552 92.1287244,13.2896776 C92.1287244,8.94230008 88.8700675,6.13693489 84.7972704,6.13693489 M71.3685009,16.9375187 C69.2727016,16.9375187 67.9183638,15.5052375 67.9183638,13.2896776 C67.9183638,11.0741177 69.2727016,9.64255851 71.3685009,9.64255851 C73.4636014,9.64255851 74.8179392,11.0741177 74.8179392,13.2896776 C74.8179392,15.5052375 73.4636014,16.9375187 71.3685009,16.9375187 M84.7972704,16.9375187 C82.7021699,16.9375187 81.3485309,15.5052375 81.3485309,13.2896776 C81.3485309,11.0741177 82.7021699,9.64255851 84.7972704,9.64255851 C86.8923709,9.64255851 88.2460098,11.0741177 88.2460098,13.2896776 C88.2460098,15.5052375 86.8923709,16.9375187 84.7972704,16.9375187" id="Fill-15"></path>
            <path d="M25.8923811,2.17123427 C23.1180152,2.17123427 20.5882408,3.24977662 18.6727403,5.02208016 C16.756541,3.24977662 14.2267666,2.17123427 11.4530995,2.17123427 C5.47248912,2.17123427 0.6232889,7.17988679 0.6232889,13.3580431 C0.6232889,19.5369213 5.47248912,24.5448519 11.4530995,24.5448519 C14.2267666,24.5448519 16.756541,23.4670314 18.6727403,21.694006 C20.5882408,23.4670314 23.1180152,24.5448519 25.8923811,24.5448519 C31.8729915,24.5448519 36.7221917,19.5369213 36.7221917,13.3580431 C36.7221917,7.17988679 31.8729915,2.17123427 25.8923811,2.17123427 M30.7632452,14.5131085 C30.7450755,14.5318783 25.6820325,19.7599933 25.6820325,19.7599933 C25.0551795,20.4075519 24.0383779,20.4039423 23.411525,19.7563837 C22.784672,19.1088251 22.784672,18.054106 23.411525,17.4058255 L25.6918161,15.0401071 L8.35727058,15.0401071 C7.47045186,15.0401071 6.75205183,14.3773883 6.75205183,13.461277 C6.75205183,12.5458877 7.47045186,11.8831689 8.35727058,11.8831689 L25.8113165,11.8831689 L23.411525,9.33480576 C22.784672,8.68724719 22.784672,7.56755563 23.411525,6.91999707 C24.0383779,6.2724385 25.0551795,6.2724385 25.6813336,6.91999707 L30.7632452,12.1697695 C31.3900981,12.8173281 31.3900981,13.864828 30.7632452,14.5131085" id="Fill-17"></path>
        </g>
    </g>
</svg>