<?xml version="1.0" encoding="UTF-8" standalone="no"?>
<svg width="603px" height="123px"  viewport="0 0 603 123" version="1.1" xmlns="http://www.w3.org/2000/svg" xmlns:xlink="http://www.w3.org/1999/xlink">
<path id="1" stroke-linecap="round" stroke="#6566CC" stroke-width="1.9727442762116518" fill="none" moovel_neighborhood="Southwest" moovel_area="840.14" moovel_cumulative_area="840.14" moovel_length="193.12" d="M14,4 L128.5,4 " />
<path id="2" stroke-linecap="round" stroke="#6566CC" stroke-width="1.9727442762116518" fill="none" moovel_neighborhood="Southwest" moovel_area="4001.86" moovel_cumulative_area="4842.00" moovel_length="919.90" d="M132,4 L227,4.5 L592,5.5 L592,6.5 L591.5,7.5 L590.5,8 L504,8 " />
<path id="3" stroke-linecap="round" stroke="#6566CC" stroke-width="1.9727442762116518" fill="none" moovel_neighborhood="Southwest" moovel_area="532.57" moovel_cumulative_area="5374.57" moovel_length="122.42" d="M501,8 L428.5,8 " />
<path id="4" stroke-linecap="round" stroke="#6566CC" stroke-width="1.9727442762116518" fill="none" moovel_neighborhood="Southwest" moovel_area="518.57" moovel_cumulative_area="5893.14" moovel_length="119.20" d="M425.5,8 L355,8 " />
<path id="5" stroke-linecap="round" stroke="#6566CC" stroke-width="1.9727442762116518" fill="none" moovel_neighborhood="Southeast" moovel_area="642.63" moovel_cumulative_area="6535.77" moovel_length="147.72" d="M351.5,8 L264.5,8 " />
<path id="6" stroke-linecap="round" stroke="#6566CC" stroke-width="1.9727442762116518" fill="none" moovel_neighborhood="Southeast" moovel_area="3967.50" moovel_cumulative_area="10503.27" moovel_length="912.00" d="M260.5,8 L12.5,8.5 L11.5,9 L11,10 L11.5,11 L12,12 L138.5,11.5 L291,11 L304,11.5 " />
<path id="7" stroke-linecap="round" stroke="#6566CC" stroke-width="1.9727442762116518" fill="none" moovel_neighborhood="Southeast" moovel_area="421.01" moovel_cumulative_area="10924.28" moovel_length="96.78" d="M307.5,12 L364.5,12 " />
<path id="8" stroke-linecap="round" stroke="#6566CC" stroke-width="1.9727442762116518" fill="none" moovel_neighborhood="Southeast" moovel_area="227.91" moovel_cumulative_area="11152.19" moovel_length="52.39" d="M368,12 L398,12 " />
<path id="9" stroke-linecap="round" stroke="#6566CC" stroke-width="1.9727442762116518" fill="none" moovel_neighborhood="Southeast" moovel_area="509.95" moovel_cumulative_area="11662.14" moovel_length="117.22" d="M401.5,12 L470.5,12 " />
<path id="10" stroke-linecap="round" stroke="#6566CC" stroke-width="1.9727442762116518" fill="none" moovel_neighborhood="Southeast" moovel_area="350.86" moovel_cumulative_area="12013.00" moovel_length="80.65" d="M474,12 L521,12 " />
<path id="11" stroke-linecap="round" stroke="#6566CC" stroke-width="1.9727442762116518" fill="none" moovel_neighborhood="Southeast" moovel_area="355.71" moovel_cumulative_area="12368.71" moovel_length="81.77" d="M524,12 L561,11.5 L569,12 L572,12 " />
<path id="12" stroke-linecap="round" stroke="#6566CC" stroke-width="1.9727442762116518" fill="none" moovel_neighborhood="Southeast" moovel_area="433.10" moovel_cumulative_area="12801.81" moovel_length="99.56" d="M575,12 L591.5,13 L592,14 L591.5,15 L590.5,15.5 L589.5,16 L552.5,16 " />
<path id="13" stroke-linecap="round" stroke="#6566CC" stroke-width="1.9727442762116518" fill="none" moovel_neighborhood="Southeast" moovel_area="1005.77" moovel_cumulative_area="13807.58" moovel_length="231.19" d="M549,16 L547.5,15.5 L511.5,16 L411.5,16 " />
<path id="14" stroke-linecap="round" stroke="#6566CC" stroke-width="1.9727442762116518" fill="none" moovel_neighborhood="Central" moovel_area="171.70" moovel_cumulative_area="13979.28" moovel_length="39.47" d="M407.5,16 L385,16 " />
<path id="15" stroke-linecap="round" stroke="#6566CC" stroke-width="1.9727442762116518" fill="none" moovel_neighborhood="Central" moovel_area="177.46" moovel_cumulative_area="14156.74" moovel_length="40.79" d="M381.5,16 L358,16 " />
<path id="16" stroke-linecap="round" stroke="#6566CC" stroke-width="1.9727442762116518" fill="none" moovel_neighborhood="Central" moovel_area="177.92" moovel_cumulative_area="14334.66" moovel_length="40.90" d="M354.5,16 L331,16 " />
<path id="17" stroke-linecap="round" stroke="#6566CC" stroke-width="1.9727442762116518" fill="none" moovel_neighborhood="Central" moovel_area="482.14" moovel_cumulative_area="14816.80" moovel_length="110.83" d="M327.5,16 L262,16 " />
<path id="18" stroke-linecap="round" stroke="#6566CC" stroke-width="1.9727442762116518" fill="none" moovel_neighborhood="Central" moovel_area="393.49" moovel_cumulative_area="15210.29" moovel_length="90.45" d="M258.5,16 L205.5,16 " />
<path id="19" stroke-linecap="round" stroke="#6566CC" stroke-width="1.9727442762116518" fill="none" moovel_neighborhood="Central" moovel_area="739.38" moovel_cumulative_area="15949.67" moovel_length="169.96" d="M201.5,16 L101,16 " />
<path id="20" stroke-linecap="round" stroke="#6566CC" stroke-width="1.9727442762116518" fill="none" moovel_neighborhood="Central" moovel_area="522.05" moovel_cumulative_area="16471.72" moovel_length="120.00" d="M97.5,16 L27,16 " />
<path id="21" stroke-linecap="round" stroke="#6566CC" stroke-width="1.9727442762116518" fill="none" moovel_neighborhood="Central" moovel_area="430.56" moovel_cumulative_area="16902.28" moovel_length="98.97" d="M23.5,16 L11,17 L11,18 L11.5,19 L12.5,19.5 L54.5,19.5 " />
<path id="22" stroke-linecap="round" stroke="#6566CC" stroke-width="1.9727442762116518" fill="none" moovel_neighborhood="Central" moovel_area="2772.95" moovel_cumulative_area="19675.23" moovel_length="637.41" d="M58,19.5 L61,20 L438.5,20 " />
<path id="23" stroke-linecap="round" stroke="#6566CC" stroke-width="1.9727442762116518" fill="none" moovel_neighborhood="Central" moovel_area="1815.87" moovel_cumulative_area="21491.10" moovel_length="417.41" d="M442.5,19.5 L591,20 L591.5,21 L592,22 L591,23 L590.5,23.5 L495,23.5 " />
<path id="24" stroke-linecap="round" stroke="#6566CC" stroke-width="1.9727442762116518" fill="none" moovel_neighborhood="Central" moovel_area="612.15" moovel_cumulative_area="22103.25" moovel_length="140.71" d="M491,23.5 L408,23.5 " />
<path id="25" stroke-linecap="round" stroke="#6566CC" stroke-width="1.9727442762116518" fill="none" moovel_neighborhood="Central" moovel_area="802.71" moovel_cumulative_area="22905.96" moovel_length="184.52" d="M404,23.5 L333.5,24 L304,23.5 L295,23.5 " />
<path id="26" stroke-linecap="round" stroke="#6566CC" stroke-width="1.9727442762116518" fill="none" moovel_neighborhood="Central" moovel_area="196.38" moovel_cumulative_area="23102.34" moovel_length="45.14" d="M291.5,23.5 L265.5,23.5 " />
<path id="27" stroke-linecap="round" stroke="#6566CC" stroke-width="1.9727442762116518" fill="none" moovel_neighborhood="Central" moovel_area="732.63" moovel_cumulative_area="23834.97" moovel_length="168.41" d="M262.5,23.5 L162.5,23.5 " />
<path id="28" stroke-linecap="round" stroke="#6566CC" stroke-width="1.9727442762116518" fill="none" moovel_neighborhood="Central" moovel_area="464.34" moovel_cumulative_area="24299.31" moovel_length="106.74" d="M159.5,23.5 L96.5,23.5 " />
<path id="29" stroke-linecap="round" stroke="#6566CC" stroke-width="1.9727442762116518" fill="none" moovel_neighborhood="Central" moovel_area="360.04" moovel_cumulative_area="24659.35" moovel_length="82.76" d="M93,23.5 L44.5,23.5 " />
<path id="30" stroke-linecap="round" stroke="#6566CC" stroke-width="1.9727442762116518" fill="none" moovel_neighborhood="Central" moovel_area="150.15" moovel_cumulative_area="24809.50" moovel_length="34.52" d="M41.5,23.5 L22,23.5 " />
<path id="31" stroke-linecap="round" stroke="#6566CC" stroke-width="1.9727442762116518" fill="none" moovel_neighborhood="Central" moovel_area="500.77" moovel_cumulative_area="25310.27" moovel_length="115.11" d="M19,23.5 L12,24 L11,25 L11,26 L11.5,27 L12.5,27.5 L69,27.5 " />
<path id="32" stroke-linecap="round" stroke="#6566CC" stroke-width="1.9727442762116518" fill="none" moovel_neighborhood="Central" moovel_area="843.88" moovel_cumulative_area="26154.15" moovel_length="193.98" d="M72,27.5 L187,27.5 " />
<path id="33" stroke-linecap="round" stroke="#6566CC" stroke-width="1.9727442762116518" fill="none" moovel_neighborhood="Central" moovel_area="1670.95" moovel_cumulative_area="27825.10" moovel_length="384.10" d="M190.5,27.5 L419.5,27.5 " />
<path id="34" stroke-linecap="round" stroke="#6566CC" stroke-width="1.9727442762116518" fill="none" moovel_neighborhood="Central" moovel_area="1227.86" moovel_cumulative_area="29052.96" moovel_length="282.25" d="M423,27.5 L591,27.5 " />
<path id="35" stroke-linecap="round" stroke="#6566CC" stroke-width="1.9727442762116518" fill="none" moovel_neighborhood="Central" moovel_area="133.70" moovel_cumulative_area="29186.66" moovel_length="30.73" d="M591,31 L590,31.5 L574,31.5 " />
<path id="36" stroke-linecap="round" stroke="#6566CC" stroke-width="1.9727442762116518" fill="none" moovel_neighborhood="Central" moovel_area="206.02" moovel_cumulative_area="29392.68" moovel_length="47.36" d="M570.5,31.5 L543,31.5 " />
<path id="37" stroke-linecap="round" stroke="#6566CC" stroke-width="1.9727442762116518" fill="none" moovel_neighborhood="Central" moovel_area="963.42" moovel_cumulative_area="30356.10" moovel_length="221.46" d="M539,31.5 L407.5,31.5 " />
<path id="38" stroke-linecap="round" stroke="#6566CC" stroke-width="1.9727442762116518" fill="none" moovel_neighborhood="Central" moovel_area="97.85" moovel_cumulative_area="30453.95" moovel_length="22.49" d="M404,31.5 L391.5,31.5 " />
<path id="39" stroke-linecap="round" stroke="#6566CC" stroke-width="1.9727442762116518" fill="none" moovel_neighborhood="Central" moovel_area="1673.80" moovel_cumulative_area="32127.75" moovel_length="384.75" d="M388,31.5 L158.5,31.5 " />
<path id="40" stroke-linecap="round" stroke="#6566CC" stroke-width="1.9727442762116518" fill="none" moovel_neighborhood="Central" moovel_area="490.00" moovel_cumulative_area="32617.75" moovel_length="112.63" d="M155,31.5 L88.5,31.5 " />
<path id="41" stroke-linecap="round" stroke="#6566CC" stroke-width="1.9727442762116518" fill="none" moovel_neighborhood="Central" moovel_area="382.99" moovel_cumulative_area="33000.74" moovel_length="88.04" d="M85,31.5 L33,31.5 " />
<path id="42" stroke-linecap="round" stroke="#6566CC" stroke-width="1.9727442762116518" fill="none" moovel_neighborhood="Central" moovel_area="265.55" moovel_cumulative_area="33266.29" moovel_length="61.04" d="M29.5,31.5 L12,32 L11,33 L11,34 L11.5,35 L12.5,35.5 L25.5,35.5 " />
<path id="43" stroke-linecap="round" stroke="#6566CC" stroke-width="1.9727442762116518" fill="none" moovel_neighborhood="Central" moovel_area="996.84" moovel_cumulative_area="34263.13" moovel_length="229.14" d="M29,35.5 L165,35.5 " />
<path id="44" stroke-linecap="round" stroke="#6566CC" stroke-width="1.9727442762116518" fill="none" moovel_neighborhood="Central" moovel_area="585.77" moovel_cumulative_area="34848.90" moovel_length="134.65" d="M168.5,35.5 L248,35.5 " />
<path id="45" stroke-linecap="round" stroke="#6566CC" stroke-width="1.9727442762116518" fill="none" moovel_neighborhood="Central" moovel_area="226.80" moovel_cumulative_area="35075.70" moovel_length="52.13" d="M251.5,35.5 L281.5,35.5 " />
<path id="46" stroke-linecap="round" stroke="#6566CC" stroke-width="1.9727442762116518" fill="none" moovel_neighborhood="Central" moovel_area="742.30" moovel_cumulative_area="35818.00" moovel_length="170.63" d="M285,35.5 L386,35.5 " />
<path id="47" stroke-linecap="round" stroke="#6566CC" stroke-width="1.9727442762116518" fill="none" moovel_neighborhood="Central" moovel_area="174.20" moovel_cumulative_area="35992.20" moovel_length="40.04" d="M390,35.5 L412.5,35.5 " />
<path id="48" stroke-linecap="round" stroke="#6566CC" stroke-width="1.9727442762116518" fill="none" moovel_neighborhood="Central" moovel_area="274.33" moovel_cumulative_area="36266.53" moovel_length="63.06" d="M416,35.5 L453,35.5 " />
<path id="49" stroke-linecap="round" stroke="#6566CC" stroke-width="1.9727442762116518" fill="none" moovel_neighborhood="Central" moovel_area="365.94" moovel_cumulative_area="36632.47" moovel_length="84.12" d="M456.5,35.5 L505.5,35.5 " />
<path id="50" stroke-linecap="round" stroke="#6566CC" stroke-width="1.9727442762116518" fill="none" moovel_neighborhood="Central" moovel_area="1665.05" moovel_cumulative_area="38297.52" moovel_length="382.74" d="M509,35.5 L591,36 L592,37 L592,38 L591.5,39 L590.5,39.5 L449,39.5 " />
<path id="51" stroke-linecap="round" stroke="#6566CC" stroke-width="1.9727442762116518" fill="none" moovel_neighborhood="Central" moovel_area="565.07" moovel_cumulative_area="38862.59" moovel_length="129.89" d="M445.5,39.5 L423,39 L373.5,39.5 L369,39.5 " />
<path id="52" stroke-linecap="round" stroke="#6566CC" stroke-width="1.9727442762116518" fill="none" moovel_neighborhood="Central" moovel_area="473.60" moovel_cumulative_area="39336.19" moovel_length="108.87" d="M365.5,39.5 L301,39.5 " />
<path id="53" stroke-linecap="round" stroke="#6566CC" stroke-width="1.9727442762116518" fill="none" moovel_neighborhood="Central" moovel_area="210.88" moovel_cumulative_area="39547.07" moovel_length="48.48" d="M297.5,39.5 L269.5,39.5 " />
<path id="54" stroke-linecap="round" stroke="#6566CC" stroke-width="1.9727442762116518" fill="none" moovel_neighborhood="Central" moovel_area="300.51" moovel_cumulative_area="39847.58" moovel_length="69.08" d="M266.5,39.5 L226.5,39.5 " />
<path id="55" stroke-linecap="round" stroke="#6566CC" stroke-width="1.9727442762116518" fill="none" moovel_neighborhood="Central" moovel_area="422.96" moovel_cumulative_area="40270.54" moovel_length="97.22" d="M223,39.5 L203,39 L169.5,39.5 L165.5,39.5 " />
<path id="56" stroke-linecap="round" stroke="#6566CC" stroke-width="1.9727442762116518" fill="none" moovel_neighborhood="Central" moovel_area="500.66" moovel_cumulative_area="40771.20" moovel_length="115.09" d="M162,39.5 L94,39.5 " />
<path id="57" stroke-linecap="round" stroke="#6566CC" stroke-width="1.9727442762116518" fill="none" moovel_neighborhood="Central" moovel_area="346.32" moovel_cumulative_area="41117.52" moovel_length="79.61" d="M90,39.5 L43.5,39.5 " />
<path id="58" stroke-linecap="round" stroke="#6566CC" stroke-width="1.9727442762116518" fill="none" moovel_neighborhood="Central" moovel_area="270.14" moovel_cumulative_area="41387.66" moovel_length="62.10" d="M39.5,39.5 L12,40 L11,40.5 L11,42 L11.5,42.5 L12.5,43 L16,43 " />
<path id="59" stroke-linecap="round" stroke="#6566CC" stroke-width="1.9727442762116518" fill="none" moovel_neighborhood="Central" moovel_area="472.57" moovel_cumulative_area="41860.23" moovel_length="108.63" d="M19.5,43.5 L83.5,43.5 " />
<path id="60" stroke-linecap="round" stroke="#6566CC" stroke-width="1.9727442762116518" fill="none" moovel_neighborhood="Central" moovel_area="397.07" moovel_cumulative_area="42257.30" moovel_length="91.27" d="M87.5,43 L140.5,43 " />
<path id="61" stroke-linecap="round" stroke="#6566CC" stroke-width="1.9727442762116518" fill="none" moovel_neighborhood="Central" moovel_area="485.05" moovel_cumulative_area="42742.35" moovel_length="111.50" d="M144.5,43.5 L150.5,43 L210.5,43 " />
<path id="62" stroke-linecap="round" stroke="#6566CC" stroke-width="1.9727442762116518" fill="none" moovel_neighborhood="Central" moovel_area="1576.25" moovel_cumulative_area="44318.60" moovel_length="362.33" d="M214,43.5 L430,43.5 " />
<path id="63" stroke-linecap="round" stroke="#6566CC" stroke-width="1.9727442762116518" fill="none" moovel_neighborhood="Central" moovel_area="1147.52" moovel_cumulative_area="45466.12" moovel_length="263.78" d="M434,43 L550,43.5 L588.5,43 L590.5,43.5 " />
<path id="64" stroke-linecap="round" stroke="#6566CC" stroke-width="1.9727442762116518" fill="none" moovel_neighborhood="Central" moovel_area="1919.30" moovel_cumulative_area="47385.42" moovel_length="441.19" d="M591.5,46.5 L591,47 L328.5,47 " />
<path id="65" stroke-linecap="round" stroke="#6566CC" stroke-width="1.9727442762116518" fill="none" moovel_neighborhood="Central" moovel_area="517.51" moovel_cumulative_area="47902.93" moovel_length="118.96" d="M325.5,47 L255.5,47 " />
<path id="66" stroke-linecap="round" stroke="#6566CC" stroke-width="1.9727442762116518" fill="none" moovel_name="North South Line (NS)" moovel_neighborhood="Central" moovel_area="5933.80" moovel_cumulative_area="53836.73" moovel_length="1363.99" d="M251.5,47.5 L12,48 L11.5,48.5 L11.5,49.5 L11.5,50.5 L12.5,51 L291,50.5 L584,50.5 " />
<path id="67" stroke-linecap="round" stroke="#6566CC" stroke-width="1.9727442762116518" fill="none" moovel_neighborhood="Central" moovel_area="1501.95" moovel_cumulative_area="55338.68" moovel_length="345.25" d="M587,51 L591.5,52 L592,53 L591.5,54 L591,55 L393.5,55 " />
<path id="68" stroke-linecap="round" stroke="#6566CC" stroke-width="1.9727442762116518" fill="none" moovel_neighborhood="Central" moovel_area="680.27" moovel_cumulative_area="56018.95" moovel_length="156.37" d="M390,55 L297.5,55 " />
<path id="69" stroke-linecap="round" stroke="#6566CC" stroke-width="1.9727442762116518" fill="none" moovel_neighborhood="Central" moovel_area="1339.66" moovel_cumulative_area="57358.61" moovel_length="307.94" d="M294.5,55 L181,55.5 L111,55.5 " />
<path id="70" stroke-linecap="round" stroke="#6566CC" stroke-width="1.9727442762116518" fill="none" moovel_neighborhood="Central" moovel_area="187.16" moovel_cumulative_area="57545.77" moovel_length="43.02" d="M107.5,55 L83,55 " />
<path id="71" stroke-linecap="round" stroke="#6566CC" stroke-width="1.9727442762116518" fill="none" moovel_neighborhood="Central" moovel_area="549.39" moovel_cumulative_area="58095.16" moovel_length="126.29" d="M79.5,55 L12,55.5 L11,56 L11,57.5 L11.5,58.5 L12.5,59 L15,59 " />
<path id="72" stroke-linecap="round" stroke="#6566CC" stroke-width="1.9727442762116518" fill="none" moovel_neighborhood="Central" moovel_area="229.88" moovel_cumulative_area="58325.04" moovel_length="52.84" d="M18,59 L48.5,59 " />
<path id="73" stroke-linecap="round" stroke="#6566CC" stroke-width="1.9727442762116518" fill="none" moovel_neighborhood="Central" moovel_area="670.41" moovel_cumulative_area="58995.45" moovel_length="154.11" d="M52.5,59 L143.5,59 " />
<path id="74" stroke-linecap="round" stroke="#6566CC" stroke-width="1.9727442762116518" fill="none" moovel_neighborhood="Central" moovel_area="1062.42" moovel_cumulative_area="60057.87" moovel_length="244.22" d="M147,59 L292,59 " />
<path id="75" stroke-linecap="round" stroke="#6566CC" stroke-width="1.9727442762116518" fill="none" moovel_neighborhood="Central" moovel_area="460.60" moovel_cumulative_area="60518.47" moovel_length="105.88" d="M295.5,59 L357.5,59 " />
<path id="76" stroke-linecap="round" stroke="#6566CC" stroke-width="1.9727442762116518" fill="none" moovel_neighborhood="Central" moovel_area="623.90" moovel_cumulative_area="61142.37" moovel_length="143.42" d="M360.5,59 L445.5,59 " />
<path id="77" stroke-linecap="round" stroke="#6566CC" stroke-width="1.9727442762116518" fill="none" moovel_neighborhood="Central" moovel_area="763.98" moovel_cumulative_area="61906.35" moovel_length="175.62" d="M448.5,59 L552.5,59 " />
<path id="78" stroke-linecap="round" stroke="#6566CC" stroke-width="1.9727442762116518" fill="none" moovel_neighborhood="Central" moovel_area="320.57" moovel_cumulative_area="62226.92" moovel_length="73.69" d="M556.5,59 L591,59.5 L591.5,60 L592,61.5 L591.5,62.5 L590.5,63 L587,63 " />
<path id="79" stroke-linecap="round" stroke="#6566CC" stroke-width="1.9727442762116518" fill="none" moovel_neighborhood="Central" moovel_area="591.44" moovel_cumulative_area="62818.36" moovel_length="135.95" d="M583,63 L503,63 " />
<path id="80" stroke-linecap="round" stroke="#6566CC" stroke-width="1.9727442762116518" fill="none" moovel_neighborhood="Central" moovel_area="618.75" moovel_cumulative_area="63437.11" moovel_length="142.23" d="M499,63 L415,63 " />
<path id="81" stroke-linecap="round" stroke="#6566CC" stroke-width="1.9727442762116518" fill="none" moovel_neighborhood="Central" moovel_area="479.16" moovel_cumulative_area="63916.27" moovel_length="110.14" d="M411.5,63 L346.5,63 " />
<path id="82" stroke-linecap="round" stroke="#6566CC" stroke-width="1.9727442762116518" fill="none" moovel_name="North South Line (NS)" moovel_neighborhood="Central" moovel_area="1178.30" moovel_cumulative_area="65094.57" moovel_length="270.85" d="M343,63 L182,63 " />
<path id="83" stroke-linecap="round" stroke="#6566CC" stroke-width="1.9727442762116518" fill="none" moovel_neighborhood="Central" moovel_area="503.10" moovel_cumulative_area="65597.67" moovel_length="115.65" d="M178.5,63 L110.5,63 " />
<path id="84" stroke-linecap="round" stroke="#6566CC" stroke-width="1.9727442762116518" fill="none" moovel_neighborhood="Central" moovel_area="534.69" moovel_cumulative_area="66132.36" moovel_length="122.91" d="M106.5,63 L34,63 " />
<path id="85" stroke-linecap="round" stroke="#6566CC" stroke-width="1.9727442762116518" fill="none" moovel_neighborhood="Central" moovel_area="329.56" moovel_cumulative_area="66461.92" moovel_length="75.76" d="M30.5,63 L11.5,64 L11,65 L11.5,66 L12.5,66.5 L13.5,67 L33.5,67 " />
<path id="86" stroke-linecap="round" stroke="#6566CC" stroke-width="1.9727442762116518" fill="none" moovel_neighborhood="Central" moovel_area="119.33" moovel_cumulative_area="66581.25" moovel_length="27.43" d="M37,67 L52.5,67 " />
<path id="87" stroke-linecap="round" stroke="#6566CC" stroke-width="1.9727442762116518" fill="none" moovel_neighborhood="Central" moovel_area="538.16" moovel_cumulative_area="67119.41" moovel_length="123.71" d="M55.5,67 L128.5,67 " />
<path id="88" stroke-linecap="round" stroke="#6566CC" stroke-width="1.9727442762116518" fill="none" moovel_neighborhood="Central" moovel_area="773.85" moovel_cumulative_area="67893.26" moovel_length="177.88" d="M132.5,67 L237.5,67 " />
<path id="89" stroke-linecap="round" stroke="#6566CC" stroke-width="1.9727442762116518" fill="none" moovel_neighborhood="Central" moovel_area="88.27" moovel_cumulative_area="67981.53" moovel_length="20.29" d="M241,67 L252,67 " />
<path id="90" stroke-linecap="round" stroke="#6566CC" stroke-width="1.9727442762116518" fill="none" moovel_neighborhood="Central" moovel_area="353.48" moovel_cumulative_area="68335.01" moovel_length="81.25" d="M255.5,67 L303,67 " />
<path id="91" stroke-linecap="round" stroke="#6566CC" stroke-width="1.9727442762116518" fill="none" moovel_neighborhood="Central" moovel_area="177.84" moovel_cumulative_area="68512.85" moovel_length="40.88" d="M306.5,67 L329.5,67 " />
<path id="92" stroke-linecap="round" stroke="#6566CC" stroke-width="1.9727442762116518" fill="none" moovel_neighborhood="Central" moovel_area="170.84" moovel_cumulative_area="68683.69" moovel_length="39.27" d="M333.5,67 L355.5,67 " />
<path id="93" stroke-linecap="round" stroke="#6566CC" stroke-width="1.9727442762116518" fill="none" moovel_neighborhood="Central" moovel_area="197.12" moovel_cumulative_area="68880.81" moovel_length="45.31" d="M359,67 L385,67 " />
<path id="94" stroke-linecap="round" stroke="#6566CC" stroke-width="1.9727442762116518" fill="none" moovel_neighborhood="Central" moovel_area="274.60" moovel_cumulative_area="69155.41" moovel_length="63.12" d="M388.5,67 L425,67 " />
<path id="95" stroke-linecap="round" stroke="#6566CC" stroke-width="1.9727442762116518" fill="none" moovel_neighborhood="Central" moovel_area="2275.34" moovel_cumulative_area="71430.75" moovel_length="523.03" d="M428.5,67 L465,66.5 L591.5,67.5 L591.5,68.5 L591.5,70 L590.5,70.5 L589.5,71 L445.5,71 " />
<path id="96" stroke-linecap="round" stroke="#6566CC" stroke-width="1.9727442762116518" fill="none" moovel_neighborhood="Central" moovel_area="374.05" moovel_cumulative_area="71804.80" moovel_length="85.98" d="M442,71 L417.5,70.5 L414,71 L392,70.5 " />
<path id="97" stroke-linecap="round" stroke="#6566CC" stroke-width="1.9727442762116518" fill="none" moovel_neighborhood="Central" moovel_area="384.98" moovel_cumulative_area="72189.78" moovel_length="88.49" d="M388,70.5 L336.5,70.5 " />
<path id="98" stroke-linecap="round" stroke="#6566CC" stroke-width="1.9727442762116518" fill="none" moovel_neighborhood="Central" moovel_area="191.77" moovel_cumulative_area="72381.55" moovel_length="44.08" d="M333.5,70.5 L308,71 " />
<path id="99" stroke-linecap="round" stroke="#6566CC" stroke-width="1.9727442762116518" fill="none" moovel_neighborhood="Central" moovel_area="528.88" moovel_cumulative_area="72910.43" moovel_length="121.57" d="M304,71 L264,70.5 L232,70.5 " />
<path id="100" stroke-linecap="round" stroke="#6566CC" stroke-width="1.9727442762116518" fill="none" moovel_neighborhood="Central" moovel_area="433.73" moovel_cumulative_area="73344.16" moovel_length="99.70" d="M228.5,70.5 L170,70.5 " />
<path id="101" stroke-linecap="round" stroke="#6566CC" stroke-width="1.9727442762116518" fill="none" moovel_neighborhood="Central" moovel_area="101.39" moovel_cumulative_area="73445.55" moovel_length="23.31" d="M166,70.5 L153.5,70.5 " />
<path id="102" stroke-linecap="round" stroke="#6566CC" stroke-width="1.9727442762116518" fill="none" moovel_neighborhood="Southwest" moovel_area="1149.73" moovel_cumulative_area="74595.28" moovel_length="264.29" d="M149.5,71 L11.5,71.5 L11,72.5 L11,73.5 L12,74.5 L27.5,75 " />
<path id="103" stroke-linecap="round" stroke="#6566CC" stroke-width="1.9727442762116518" fill="none" moovel_neighborhood="Southwest" moovel_area="2583.69" moovel_cumulative_area="77178.97" moovel_length="593.91" d="M31.5,75 L386,75 " />
<path id="104" stroke-linecap="round" stroke="#6566CC" stroke-width="1.9727442762116518" fill="none" moovel_neighborhood="Southwest" moovel_area="3775.83" moovel_cumulative_area="80954.80" moovel_length="867.94" d="M389.5,74.5 L537,75 L591.5,75.5 L592,76.5 L592,77.5 L591,78 L590,78.5 L278,78.5 " />
<path id="105" stroke-linecap="round" stroke="#6566CC" stroke-width="1.9727442762116518" fill="none" moovel_neighborhood="Southeast" moovel_area="1825.94" moovel_cumulative_area="82780.74" moovel_length="419.72" d="M274.5,78.5 L238.5,79 L24.5,79 " />
<path id="106" stroke-linecap="round" stroke="#6566CC" stroke-width="1.9727442762116518" fill="none" moovel_name="MRT East West Line (EW) Changi Airport Line" moovel_neighborhood="Southeast" moovel_area="5338.15" moovel_cumulative_area="88118.89" moovel_length="1227.07" d="M20.5,78.5 L11.5,79 L11,80 L11,81 L11.5,82 L12.5,82.5 L47.5,83 L341,83.5 L591.5,84 L592,85 L592,86 L591,87 L453,87 " />
<path id="107" stroke-linecap="round" stroke="#6566CC" stroke-width="1.9727442762116518" fill="none" moovel_neighborhood="Southeast" moovel_area="1258.68" moovel_cumulative_area="89377.57" moovel_length="289.33" d="M449.5,86.5 L277.5,86.5 " />
<path id="108" stroke-linecap="round" stroke="#6566CC" stroke-width="1.9727442762116518" fill="none" moovel_neighborhood="Southeast" moovel_area="1277.63" moovel_cumulative_area="90655.20" moovel_length="293.69" d="M274,86.5 L99,86.5 " />
<path id="109" stroke-linecap="round" stroke="#6566CC" stroke-width="1.9727442762116518" fill="none" moovel_neighborhood="Southeast" moovel_area="277.99" moovel_cumulative_area="90933.19" moovel_length="63.90" d="M95.5,86.5 L58.5,86.5 " />
<path id="110" stroke-linecap="round" stroke="#6566CC" stroke-width="1.9727442762116518" fill="none" moovel_neighborhood="Southeast" moovel_area="572.99" moovel_cumulative_area="91506.18" moovel_length="131.71" d="M55,86.5 L12,87 L11,87.5 L11,89 L11.5,90 L12.5,90.5 L42.5,90.5 " />
<path id="111" stroke-linecap="round" stroke="#6566CC" stroke-width="1.9727442762116518" fill="none" moovel_neighborhood="Southeast" moovel_area="1351.54" moovel_cumulative_area="92857.72" moovel_length="310.68" d="M46.5,90.5 L231,90.5 " />
<path id="112" stroke-linecap="round" stroke="#6566CC" stroke-width="1.9727442762116518" fill="none" moovel_neighborhood="Southeast" moovel_area="1238.13" moovel_cumulative_area="94095.85" moovel_length="284.61" d="M235,90.5 L404,90.5 " />
<path id="113" stroke-linecap="round" stroke="#6566CC" stroke-width="1.9727442762116518" fill="none" moovel_neighborhood="Southeast" moovel_area="3295.92" moovel_cumulative_area="97391.77" moovel_length="757.63" d="M408,90.5 L522,90 L590.5,90.5 L591.5,91 L592,92 L591.5,93 L591,94 L325.5,94 " />
<path id="114" stroke-linecap="round" stroke="#6566CC" stroke-width="1.9727442762116518" fill="none" moovel_neighborhood="Southeast" moovel_area="534.45" moovel_cumulative_area="97926.22" moovel_length="122.85" d="M322,94.5 L249.5,94.5 " />
<path id="115" stroke-linecap="round" stroke="#6566CC" stroke-width="1.9727442762116518" fill="none" moovel_neighborhood="Southeast" moovel_area="1553.90" moovel_cumulative_area="99480.12" moovel_length="357.19" d="M246,94.5 L194,94 L153.5,94.5 L95,94 L33,94 " />
<path id="116" stroke-linecap="round" stroke="#6566CC" stroke-width="1.9727442762116518" fill="none" moovel_neighborhood="Southeast" moovel_area="1263.49" moovel_cumulative_area="100743.61" moovel_length="290.44" d="M30,94.5 L11,95 L11,96.5 L11.5,97.5 L12,98 L13.5,98.5 L162.5,98.5 " />
<path id="117" stroke-linecap="round" stroke="#6566CC" stroke-width="1.9727442762116518" fill="none" moovel_neighborhood="Southeast" moovel_area="1759.40" moovel_cumulative_area="102503.01" moovel_length="404.43" d="M166,98.5 L407,98.5 " />
<path id="118" stroke-linecap="round" stroke="#6566CC" stroke-width="1.9727442762116518" fill="none" moovel_neighborhood="Central" moovel_area="8107.18" moovel_cumulative_area="110610.19" moovel_length="1863.58" d="M410.5,98.5 L412.5,98 L591.5,99 L591.5,100 L591.5,101 L590.5,102 L589.5,102.5 L291,103 L12,103.5 L11.5,104.5 L11.5,105.5 L12,106.5 L261.5,106 L359,106 " />
<path id="119" stroke-linecap="round" stroke="#6566CC" stroke-width="1.9727442762116518" fill="none" moovel_name="Bukit Panjang LRT Depot" moovel_neighborhood="Southwest" moovel_area="383.51" moovel_cumulative_area="110993.70" moovel_length="237.77" d="M362.5,106 L503.5,106 " />
</svg>
