<?xml version="1.0" encoding="UTF-8" standalone="no"?>
<svg width="603px" height="124px"  viewport="0 0 603 124" version="1.1" xmlns="http://www.w3.org/2000/svg" xmlns:xlink="http://www.w3.org/1999/xlink">
<path id="1" stroke-linecap="round" stroke="#6566CC" stroke-width="1.0726197390253187" fill="none" moovel_neighborhood="Southwest" moovel_area="840.14" moovel_cumulative_area="840.14" moovel_length="193.12" d="M13,3.5 L163,3.5 " />
<path id="2" stroke-linecap="round" stroke="#6566CC" stroke-width="1.0726197390253187" fill="none" moovel_neighborhood="Southwest" moovel_area="4001.86" moovel_cumulative_area="4842.00" moovel_length="919.90" d="M165,3.5 L190,4 L408.5,4.5 L588.5,5 L589,5.5 L589,6 L588.5,6.5 L587.5,7 L510.5,6.5 L295,6.5 " />
<path id="3" stroke-linecap="round" stroke="#6566CC" stroke-width="1.0726197390253187" fill="none" moovel_neighborhood="Southwest" moovel_area="532.57" moovel_cumulative_area="5374.57" moovel_length="122.42" d="M293,6.5 L198,6.5 " />
<path id="4" stroke-linecap="round" stroke="#6566CC" stroke-width="1.0726197390253187" fill="none" moovel_neighborhood="Southwest" moovel_area="518.57" moovel_cumulative_area="5893.14" moovel_length="119.20" d="M195.5,6.5 L103,6.5 " />
<path id="5" stroke-linecap="round" stroke="#6566CC" stroke-width="1.0726197390253187" fill="none" moovel_neighborhood="Southeast" moovel_area="642.63" moovel_cumulative_area="6535.77" moovel_length="147.72" d="M101,6.5 L11,7 L10.5,8 L10.5,8.5 L11,9 L11.5,9.5 L33,9.5 " />
<path id="6" stroke-linecap="round" stroke="#6566CC" stroke-width="1.0726197390253187" fill="none" moovel_neighborhood="Southeast" moovel_area="3967.50" moovel_cumulative_area="10503.27" moovel_length="912.00" d="M34.5,9.5 L194.5,9 L512.5,8.5 L588.5,9 L588.5,9.5 L588.5,10.5 L588,11.5 L587,12 L458.5,12.5 L432,12.5 " />
<path id="7" stroke-linecap="round" stroke="#6566CC" stroke-width="1.0726197390253187" fill="none" moovel_neighborhood="Southeast" moovel_area="421.01" moovel_cumulative_area="10924.27" moovel_length="96.78" d="M429,12.5 L354,12.5 " />
<path id="8" stroke-linecap="round" stroke="#6566CC" stroke-width="1.0726197390253187" fill="none" moovel_neighborhood="Southeast" moovel_area="227.91" moovel_cumulative_area="11152.19" moovel_length="52.39" d="M352,12.5 L311.5,12.5 " />
<path id="9" stroke-linecap="round" stroke="#6566CC" stroke-width="1.0726197390253187" fill="none" moovel_neighborhood="Southeast" moovel_area="509.95" moovel_cumulative_area="11662.14" moovel_length="117.22" d="M310,12.5 L219,12.5 " />
<path id="10" stroke-linecap="round" stroke="#6566CC" stroke-width="1.0726197390253187" fill="none" moovel_neighborhood="Southeast" moovel_area="350.86" moovel_cumulative_area="12013.00" moovel_length="80.65" d="M217,12.5 L155,12.5 " />
<path id="11" stroke-linecap="round" stroke="#6566CC" stroke-width="1.0726197390253187" fill="none" moovel_neighborhood="Southeast" moovel_area="355.71" moovel_cumulative_area="12368.71" moovel_length="81.77" d="M153,12.5 L105.5,13 L93,12.5 L90,12.5 " />
<path id="12" stroke-linecap="round" stroke="#6566CC" stroke-width="1.0726197390253187" fill="none" moovel_neighborhood="Southeast" moovel_area="433.10" moovel_cumulative_area="12801.81" moovel_length="99.56" d="M88,12.5 L11.5,13 L11,13 " />
<path id="13" stroke-linecap="round" stroke="#6566CC" stroke-width="1.0726197390253187" fill="none" moovel_neighborhood="Southeast" moovel_area="1005.77" moovel_cumulative_area="13807.57" moovel_length="231.19" d="M11,15.5 L33,16 L44.5,15.5 L191,16 " />
<path id="14" stroke-linecap="round" stroke="#6566CC" stroke-width="1.0726197390253187" fill="none" moovel_neighborhood="Central" moovel_area="171.70" moovel_cumulative_area="13979.27" moovel_length="39.47" d="M193,15.5 L223,15.5 " />
<path id="15" stroke-linecap="round" stroke="#6566CC" stroke-width="1.0726197390253187" fill="none" moovel_neighborhood="Central" moovel_area="177.46" moovel_cumulative_area="14156.74" moovel_length="40.79" d="M225.5,15.5 L257,15.5 " />
<path id="16" stroke-linecap="round" stroke="#6566CC" stroke-width="1.0726197390253187" fill="none" moovel_neighborhood="Central" moovel_area="177.92" moovel_cumulative_area="14334.65" moovel_length="40.90" d="M259,15.5 L290,15.5 " />
<path id="17" stroke-linecap="round" stroke="#6566CC" stroke-width="1.0726197390253187" fill="none" moovel_neighborhood="Central" moovel_area="482.14" moovel_cumulative_area="14816.79" moovel_length="110.83" d="M292.5,15.5 L378.5,15.5 " />
<path id="18" stroke-linecap="round" stroke="#6566CC" stroke-width="1.0726197390253187" fill="none" moovel_neighborhood="Central" moovel_area="393.49" moovel_cumulative_area="15210.27" moovel_length="90.45" d="M380.5,15.5 L450.5,15.5 " />
<path id="19" stroke-linecap="round" stroke="#6566CC" stroke-width="1.0726197390253187" fill="none" moovel_neighborhood="Central" moovel_area="739.38" moovel_cumulative_area="15949.65" moovel_length="169.96" d="M452,15.5 L584.5,15.5 " />
<path id="20" stroke-linecap="round" stroke="#6566CC" stroke-width="1.0726197390253187" fill="none" moovel_neighborhood="Central" moovel_area="522.05" moovel_cumulative_area="16471.70" moovel_length="120.00" d="M586.5,15.5 L588,16 L588.5,16.5 L588.5,17 L588.5,18 L588,18.5 L562.5,19 L499.5,19 " />
<path id="21" stroke-linecap="round" stroke="#6566CC" stroke-width="1.0726197390253187" fill="none" moovel_neighborhood="Central" moovel_area="430.56" moovel_cumulative_area="16902.26" moovel_length="98.97" d="M497.5,18.5 L495.5,19 L421,19 " />
<path id="22" stroke-linecap="round" stroke="#6566CC" stroke-width="1.0726197390253187" fill="none" moovel_neighborhood="Central" moovel_area="2772.95" moovel_cumulative_area="19675.21" moovel_length="637.41" d="M419,18.5 L100,18 L11.5,18.5 L11,19 L10.5,19.5 L10.5,20.5 L11,21 L11.5,21.5 L98.5,21.5 " />
<path id="23" stroke-linecap="round" stroke="#6566CC" stroke-width="1.0726197390253187" fill="none" moovel_neighborhood="Central" moovel_area="1815.87" moovel_cumulative_area="21491.08" moovel_length="417.41" d="M100,21.5 L426,21.5 " />
<path id="24" stroke-linecap="round" stroke="#6566CC" stroke-width="1.0726197390253187" fill="none" moovel_neighborhood="Central" moovel_area="612.15" moovel_cumulative_area="22103.22" moovel_length="140.71" d="M428.5,21.5 L538,21.5 " />
<path id="25" stroke-linecap="round" stroke="#6566CC" stroke-width="1.0726197390253187" fill="none" moovel_neighborhood="Central" moovel_area="802.71" moovel_cumulative_area="22905.94" moovel_length="184.52" d="M540,21.5 L588,22 L588.5,22.5 L588.5,23 L588.5,24 L588,24.5 L587.5,25 L495.5,25 " />
<path id="26" stroke-linecap="round" stroke="#6566CC" stroke-width="1.0726197390253187" fill="none" moovel_neighborhood="Central" moovel_area="196.38" moovel_cumulative_area="23102.32" moovel_length="45.14" d="M493,24.5 L467,25 L458.5,25 " />
<path id="27" stroke-linecap="round" stroke="#6566CC" stroke-width="1.0726197390253187" fill="none" moovel_neighborhood="Central" moovel_area="732.63" moovel_cumulative_area="23834.94" moovel_length="168.41" d="M456.5,25 L325.5,25 " />
<path id="28" stroke-linecap="round" stroke="#6566CC" stroke-width="1.0726197390253187" fill="none" moovel_neighborhood="Central" moovel_area="464.34" moovel_cumulative_area="24299.28" moovel_length="106.74" d="M324,25 L241,25 " />
<path id="29" stroke-linecap="round" stroke="#6566CC" stroke-width="1.0726197390253187" fill="none" moovel_neighborhood="Central" moovel_area="360.04" moovel_cumulative_area="24659.32" moovel_length="82.76" d="M239,25 L175,25 " />
<path id="30" stroke-linecap="round" stroke="#6566CC" stroke-width="1.0726197390253187" fill="none" moovel_neighborhood="Central" moovel_area="150.15" moovel_cumulative_area="24809.47" moovel_length="34.52" d="M172.5,24.5 L146.5,24.5 " />
<path id="31" stroke-linecap="round" stroke="#6566CC" stroke-width="1.0726197390253187" fill="none" moovel_neighborhood="Central" moovel_area="500.77" moovel_cumulative_area="25310.24" moovel_length="115.11" d="M144.5,25 L55.5,25 " />
<path id="32" stroke-linecap="round" stroke="#6566CC" stroke-width="1.0726197390253187" fill="none" moovel_neighborhood="Central" moovel_area="843.88" moovel_cumulative_area="26154.13" moovel_length="193.98" d="M52.5,24.5 L11,25 L10.5,25.5 L10.5,26.5 L10.5,27 L11.5,27.5 L12,28 L117.5,28 " />
<path id="33" stroke-linecap="round" stroke="#6566CC" stroke-width="1.0726197390253187" fill="none" moovel_neighborhood="Central" moovel_area="1670.95" moovel_cumulative_area="27825.07" moovel_length="384.10" d="M119.5,28 L120.5,27.5 L330.5,27 L419.5,27 " />
<path id="34" stroke-linecap="round" stroke="#6566CC" stroke-width="1.0726197390253187" fill="none" moovel_neighborhood="Central" moovel_area="1227.86" moovel_cumulative_area="29052.93" moovel_length="282.25" d="M421.5,27.5 L588.5,28 L588.5,29 L588.5,30 L588,30.5 L587.5,31 L537.5,31 " />
<path id="35" stroke-linecap="round" stroke="#6566CC" stroke-width="1.0726197390253187" fill="none" moovel_neighborhood="Central" moovel_area="133.70" moovel_cumulative_area="29186.63" moovel_length="30.73" d="M535,31 L512,31 " />
<path id="36" stroke-linecap="round" stroke="#6566CC" stroke-width="1.0726197390253187" fill="none" moovel_neighborhood="Central" moovel_area="206.02" moovel_cumulative_area="29392.65" moovel_length="47.36" d="M509.5,31 L473.5,31 " />
<path id="37" stroke-linecap="round" stroke="#6566CC" stroke-width="1.0726197390253187" fill="none" moovel_neighborhood="Central" moovel_area="963.42" moovel_cumulative_area="30356.08" moovel_length="221.46" d="M471.5,31 L299,31 " />
<path id="38" stroke-linecap="round" stroke="#6566CC" stroke-width="1.0726197390253187" fill="none" moovel_neighborhood="Central" moovel_area="97.85" moovel_cumulative_area="30453.92" moovel_length="22.49" d="M296.5,31 L279.5,31 " />
<path id="39" stroke-linecap="round" stroke="#6566CC" stroke-width="1.0726197390253187" fill="none" moovel_neighborhood="Central" moovel_area="1673.80" moovel_cumulative_area="32127.72" moovel_length="384.75" d="M278,31 L11,31.5 L10.5,32 L10.5,33 L11,33.5 L11.5,34 L12,34.5 L41,34 L41.5,34 " />
<path id="40" stroke-linecap="round" stroke="#6566CC" stroke-width="1.0726197390253187" fill="none" moovel_neighborhood="Central" moovel_area="490.00" moovel_cumulative_area="32617.72" moovel_length="112.63" d="M43,34 L130.5,34 " />
<path id="41" stroke-linecap="round" stroke="#6566CC" stroke-width="1.0726197390253187" fill="none" moovel_neighborhood="Central" moovel_area="382.99" moovel_cumulative_area="33000.71" moovel_length="88.04" d="M132.5,34 L201,34 " />
<path id="42" stroke-linecap="round" stroke="#6566CC" stroke-width="1.0726197390253187" fill="none" moovel_neighborhood="Central" moovel_area="265.55" moovel_cumulative_area="33266.26" moovel_length="61.04" d="M203,34 L250,34 " />
<path id="43" stroke-linecap="round" stroke="#6566CC" stroke-width="1.0726197390253187" fill="none" moovel_neighborhood="Central" moovel_area="996.84" moovel_cumulative_area="34263.10" moovel_length="229.14" d="M252.5,34 L254,33.5 L431,33.5 " />
<path id="44" stroke-linecap="round" stroke="#6566CC" stroke-width="1.0726197390253187" fill="none" moovel_neighborhood="Central" moovel_area="585.77" moovel_cumulative_area="34848.87" moovel_length="134.65" d="M433,34 L469,33.5 L537.5,33.5 " />
<path id="45" stroke-linecap="round" stroke="#6566CC" stroke-width="1.0726197390253187" fill="none" moovel_neighborhood="Central" moovel_area="226.80" moovel_cumulative_area="35075.67" moovel_length="52.13" d="M539,34 L579.5,34 " />
<path id="46" stroke-linecap="round" stroke="#6566CC" stroke-width="1.0726197390253187" fill="none" moovel_neighborhood="Central" moovel_area="742.30" moovel_cumulative_area="35817.98" moovel_length="170.63" d="M582,34 L588.5,34.5 L589,35.5 L588.5,36 L588,36.5 L587,37 L571.5,36.5 L464.5,36.5 " />
<path id="47" stroke-linecap="round" stroke="#6566CC" stroke-width="1.0726197390253187" fill="none" moovel_neighborhood="Central" moovel_area="174.20" moovel_cumulative_area="35992.18" moovel_length="40.04" d="M462,37 L431.5,37 " />
<path id="48" stroke-linecap="round" stroke="#6566CC" stroke-width="1.0726197390253187" fill="none" moovel_neighborhood="Central" moovel_area="274.33" moovel_cumulative_area="36266.52" moovel_length="63.06" d="M429.5,37 L381,37 " />
<path id="49" stroke-linecap="round" stroke="#6566CC" stroke-width="1.0726197390253187" fill="none" moovel_neighborhood="Central" moovel_area="365.94" moovel_cumulative_area="36632.45" moovel_length="84.12" d="M379,37 L314,37 " />
<path id="50" stroke-linecap="round" stroke="#6566CC" stroke-width="1.0726197390253187" fill="none" moovel_neighborhood="Central" moovel_area="1665.05" moovel_cumulative_area="38297.50" moovel_length="382.74" d="M312,37 L13,37 " />
<path id="51" stroke-linecap="round" stroke="#6566CC" stroke-width="1.0726197390253187" fill="none" moovel_neighborhood="Central" moovel_area="565.07" moovel_cumulative_area="38862.57" moovel_length="129.89" d="M12,37 L10.5,37.5 L10.5,38.5 L11,39 L11.5,40 L108.5,40 " />
<path id="52" stroke-linecap="round" stroke="#6566CC" stroke-width="1.0726197390253187" fill="none" moovel_neighborhood="Central" moovel_area="473.60" moovel_cumulative_area="39336.17" moovel_length="108.87" d="M110.5,40 L195,40 " />
<path id="53" stroke-linecap="round" stroke="#6566CC" stroke-width="1.0726197390253187" fill="none" moovel_neighborhood="Central" moovel_area="210.88" moovel_cumulative_area="39547.05" moovel_length="48.48" d="M197,40 L234,40 " />
<path id="54" stroke-linecap="round" stroke="#6566CC" stroke-width="1.0726197390253187" fill="none" moovel_neighborhood="Central" moovel_area="300.51" moovel_cumulative_area="39847.56" moovel_length="69.08" d="M236,40 L289,40 " />
<path id="55" stroke-linecap="round" stroke="#6566CC" stroke-width="1.0726197390253187" fill="none" moovel_neighborhood="Central" moovel_area="422.96" moovel_cumulative_area="40270.52" moovel_length="97.22" d="M291,40 L366.5,40 " />
<path id="56" stroke-linecap="round" stroke="#6566CC" stroke-width="1.0726197390253187" fill="none" moovel_neighborhood="Central" moovel_area="500.66" moovel_cumulative_area="40771.18" moovel_length="115.09" d="M368.5,40 L457.5,40 " />
<path id="57" stroke-linecap="round" stroke="#6566CC" stroke-width="1.0726197390253187" fill="none" moovel_neighborhood="Central" moovel_area="346.32" moovel_cumulative_area="41117.50" moovel_length="79.61" d="M460.5,40 L522,40 " />
<path id="58" stroke-linecap="round" stroke="#6566CC" stroke-width="1.0726197390253187" fill="none" moovel_neighborhood="Central" moovel_area="270.14" moovel_cumulative_area="41387.65" moovel_length="62.10" d="M524,40 L572,40 " />
<path id="59" stroke-linecap="round" stroke="#6566CC" stroke-width="1.0726197390253187" fill="none" moovel_neighborhood="Central" moovel_area="472.57" moovel_cumulative_area="41860.22" moovel_length="108.63" d="M574,40 L588.5,40.5 L589,41.5 L588.5,42 L588,42.5 L587.5,43 L521,43 " />
<path id="60" stroke-linecap="round" stroke="#6566CC" stroke-width="1.0726197390253187" fill="none" moovel_neighborhood="Central" moovel_area="397.07" moovel_cumulative_area="42257.29" moovel_length="91.27" d="M518.5,43 L448,43 " />
<path id="61" stroke-linecap="round" stroke="#6566CC" stroke-width="1.0726197390253187" fill="none" moovel_neighborhood="Central" moovel_area="485.05" moovel_cumulative_area="42742.34" moovel_length="111.50" d="M446,43 L359.5,43 " />
<path id="62" stroke-linecap="round" stroke="#6566CC" stroke-width="1.0726197390253187" fill="none" moovel_neighborhood="Central" moovel_area="1576.25" moovel_cumulative_area="44318.59" moovel_length="362.33" d="M358,43 L238.5,42.5 L75,42.5 " />
<path id="63" stroke-linecap="round" stroke="#6566CC" stroke-width="1.0726197390253187" fill="none" moovel_neighborhood="Central" moovel_area="1147.52" moovel_cumulative_area="45466.11" moovel_length="263.78" d="M72.5,43 L11.5,43.5 L10.5,44.5 L11,45 L11,45.5 L12,46 L40,45.5 L94.5,46 L152.5,46 " />
<path id="64" stroke-linecap="round" stroke="#6566CC" stroke-width="1.0726197390253187" fill="none" moovel_neighborhood="Central" moovel_area="1919.30" moovel_cumulative_area="47385.41" moovel_length="441.19" d="M154.5,46 L499,46 " />
<path id="65" stroke-linecap="round" stroke="#6566CC" stroke-width="1.0726197390253187" fill="none" moovel_neighborhood="Central" moovel_area="517.51" moovel_cumulative_area="47902.92" moovel_length="118.96" d="M501,46 L588.5,46.5 L589,47 L589,48 L588.5,48.5 L587.5,49 L586,49 " />
<path id="66" stroke-linecap="round" stroke="#6566CC" stroke-width="1.0726197390253187" fill="none" moovel_name="North South Line (NS)" moovel_neighborhood="Central" moovel_area="5933.80" moovel_cumulative_area="53836.71" moovel_length="1363.99" d="M584,49 L500,49.5 L279.5,50 L58,50.5 L11,51 L11,51.5 L11,52 L11.5,52.5 L210,52 L502,52 " />
<path id="67" stroke-linecap="round" stroke="#6566CC" stroke-width="1.0726197390253187" fill="none" moovel_neighborhood="Central" moovel_area="1501.95" moovel_cumulative_area="55338.67" moovel_length="345.25" d="M503.5,52 L588.5,52.5 L588.5,53.5 L588.5,54 L588,55 L406,55 " />
<path id="68" stroke-linecap="round" stroke="#6566CC" stroke-width="1.0726197390253187" fill="none" moovel_neighborhood="Central" moovel_area="680.27" moovel_cumulative_area="56018.94" moovel_length="156.37" d="M404,55 L282.5,55 " />
<path id="69" stroke-linecap="round" stroke="#6566CC" stroke-width="1.0726197390253187" fill="none" moovel_neighborhood="Central" moovel_area="1339.66" moovel_cumulative_area="57358.60" moovel_length="307.94" d="M280,55 L242,55.5 L40,55.5 " />
<path id="70" stroke-linecap="round" stroke="#6566CC" stroke-width="1.0726197390253187" fill="none" moovel_neighborhood="Central" moovel_area="187.16" moovel_cumulative_area="57545.76" moovel_length="43.02" d="M38,55 L11,55.5 L10.5,56 L10.5,57 L11,57.5 L11.5,58 L14.5,58 " />
<path id="71" stroke-linecap="round" stroke="#6566CC" stroke-width="1.0726197390253187" fill="none" moovel_neighborhood="Central" moovel_area="549.39" moovel_cumulative_area="58095.15" moovel_length="126.29" d="M16.5,58 L114.5,58 " />
<path id="72" stroke-linecap="round" stroke="#6566CC" stroke-width="1.0726197390253187" fill="none" moovel_neighborhood="Central" moovel_area="229.88" moovel_cumulative_area="58325.03" moovel_length="52.84" d="M116,58 L157,58 " />
<path id="73" stroke-linecap="round" stroke="#6566CC" stroke-width="1.0726197390253187" fill="none" moovel_neighborhood="Central" moovel_area="670.41" moovel_cumulative_area="58995.44" moovel_length="154.11" d="M159,58 L279,58 " />
<path id="74" stroke-linecap="round" stroke="#6566CC" stroke-width="1.0726197390253187" fill="none" moovel_neighborhood="Central" moovel_area="1062.42" moovel_cumulative_area="60057.86" moovel_length="244.22" d="M281.5,58 L472,58 " />
<path id="75" stroke-linecap="round" stroke="#6566CC" stroke-width="1.0726197390253187" fill="none" moovel_neighborhood="Central" moovel_area="460.60" moovel_cumulative_area="60518.45" moovel_length="105.88" d="M474,58 L556,58 " />
<path id="76" stroke-linecap="round" stroke="#6566CC" stroke-width="1.0726197390253187" fill="none" moovel_neighborhood="Central" moovel_area="623.90" moovel_cumulative_area="61142.36" moovel_length="143.42" d="M558,58 L588.5,58.5 L588.5,59.5 L588.5,60 L588,61 L510,61 " />
<path id="77" stroke-linecap="round" stroke="#6566CC" stroke-width="1.0726197390253187" fill="none" moovel_neighborhood="Central" moovel_area="763.98" moovel_cumulative_area="61906.34" moovel_length="175.62" d="M507.5,61 L401,61.5 L371.5,61 L370.5,61 " />
<path id="78" stroke-linecap="round" stroke="#6566CC" stroke-width="1.0726197390253187" fill="none" moovel_neighborhood="Central" moovel_area="320.57" moovel_cumulative_area="62226.91" moovel_length="73.69" d="M368.5,61 L311.5,61 " />
<path id="79" stroke-linecap="round" stroke="#6566CC" stroke-width="1.0726197390253187" fill="none" moovel_neighborhood="Central" moovel_area="591.44" moovel_cumulative_area="62818.36" moovel_length="135.95" d="M310,61 L204.5,61 " />
<path id="80" stroke-linecap="round" stroke="#6566CC" stroke-width="1.0726197390253187" fill="none" moovel_neighborhood="Central" moovel_area="618.75" moovel_cumulative_area="63437.10" moovel_length="142.23" d="M202,61 L91.5,61 " />
<path id="81" stroke-linecap="round" stroke="#6566CC" stroke-width="1.0726197390253187" fill="none" moovel_neighborhood="Central" moovel_area="479.16" moovel_cumulative_area="63916.26" moovel_length="110.14" d="M90,61 L11.5,61.5 L11,62 L10.5,62.5 L10.5,63.5 L11,64 L15,64 " />
<path id="82" stroke-linecap="round" stroke="#6566CC" stroke-width="1.0726197390253187" fill="none" moovel_name="North South Line (NS)" moovel_neighborhood="Central" moovel_area="1178.30" moovel_cumulative_area="65094.56" moovel_length="270.85" d="M17,64 L228,64 " />
<path id="83" stroke-linecap="round" stroke="#6566CC" stroke-width="1.0726197390253187" fill="none" moovel_neighborhood="Central" moovel_area="503.10" moovel_cumulative_area="65597.65" moovel_length="115.65" d="M230,64 L320,64 " />
<path id="84" stroke-linecap="round" stroke="#6566CC" stroke-width="1.0726197390253187" fill="none" moovel_neighborhood="Central" moovel_area="534.69" moovel_cumulative_area="66132.35" moovel_length="122.91" d="M322,64 L374.5,64.5 L417.5,64.5 " />
<path id="85" stroke-linecap="round" stroke="#6566CC" stroke-width="1.0726197390253187" fill="none" moovel_neighborhood="Central" moovel_area="329.56" moovel_cumulative_area="66461.91" moovel_length="75.76" d="M419,64 L477.5,64 " />
<path id="86" stroke-linecap="round" stroke="#6566CC" stroke-width="1.0726197390253187" fill="none" moovel_neighborhood="Central" moovel_area="119.33" moovel_cumulative_area="66581.24" moovel_length="27.43" d="M479.5,64 L500.5,64 " />
<path id="87" stroke-linecap="round" stroke="#6566CC" stroke-width="1.0726197390253187" fill="none" moovel_neighborhood="Central" moovel_area="538.16" moovel_cumulative_area="67119.40" moovel_length="123.71" d="M502,64 L557,64.5 L588.5,65 L589,66 L588.5,66.5 L588,67 L581,67 " />
<path id="88" stroke-linecap="round" stroke="#6566CC" stroke-width="1.0726197390253187" fill="none" moovel_neighborhood="Central" moovel_area="773.85" moovel_cumulative_area="67893.25" moovel_length="177.88" d="M579,67.5 L440.5,67.5 " />
<path id="89" stroke-linecap="round" stroke="#6566CC" stroke-width="1.0726197390253187" fill="none" moovel_neighborhood="Central" moovel_area="88.27" moovel_cumulative_area="67981.52" moovel_length="20.29" d="M438.5,67 L423,67 " />
<path id="90" stroke-linecap="round" stroke="#6566CC" stroke-width="1.0726197390253187" fill="none" moovel_neighborhood="Central" moovel_area="353.48" moovel_cumulative_area="68335.00" moovel_length="81.25" d="M421.5,67 L358.5,67 " />
<path id="91" stroke-linecap="round" stroke="#6566CC" stroke-width="1.0726197390253187" fill="none" moovel_neighborhood="Central" moovel_area="177.84" moovel_cumulative_area="68512.84" moovel_length="40.88" d="M356,67 L345.5,67.5 L327,67 L324.5,67 " />
<path id="92" stroke-linecap="round" stroke="#6566CC" stroke-width="1.0726197390253187" fill="none" moovel_neighborhood="Central" moovel_area="170.84" moovel_cumulative_area="68683.68" moovel_length="39.27" d="M322.5,67 L292.5,67 " />
<path id="93" stroke-linecap="round" stroke="#6566CC" stroke-width="1.0726197390253187" fill="none" moovel_neighborhood="Central" moovel_area="197.12" moovel_cumulative_area="68880.80" moovel_length="45.31" d="M290.5,67 L256,67 " />
<path id="94" stroke-linecap="round" stroke="#6566CC" stroke-width="1.0726197390253187" fill="none" moovel_neighborhood="Central" moovel_area="274.60" moovel_cumulative_area="69155.40" moovel_length="63.12" d="M253.5,67 L249,67.5 L205,67 " />
<path id="95" stroke-linecap="round" stroke="#6566CC" stroke-width="1.0726197390253187" fill="none" moovel_neighborhood="Central" moovel_area="2275.34" moovel_cumulative_area="71430.74" moovel_length="523.03" d="M203,67.5 L20.5,68 L11,68.5 L10.5,69 L11,69.5 L11.5,70 L12,70.5 L74,70 L225,70 " />
<path id="96" stroke-linecap="round" stroke="#6566CC" stroke-width="1.0726197390253187" fill="none" moovel_neighborhood="Central" moovel_area="374.05" moovel_cumulative_area="71804.79" moovel_length="85.98" d="M227,70 L293.5,70 " />
<path id="97" stroke-linecap="round" stroke="#6566CC" stroke-width="1.0726197390253187" fill="none" moovel_neighborhood="Central" moovel_area="384.98" moovel_cumulative_area="72189.77" moovel_length="88.49" d="M295.5,70 L330.5,70.5 L364,70 " />
<path id="98" stroke-linecap="round" stroke="#6566CC" stroke-width="1.0726197390253187" fill="none" moovel_neighborhood="Central" moovel_area="191.77" moovel_cumulative_area="72381.54" moovel_length="44.08" d="M365.5,70 L373,70.5 L395,70 L399.5,70 " />
<path id="99" stroke-linecap="round" stroke="#6566CC" stroke-width="1.0726197390253187" fill="none" moovel_neighborhood="Central" moovel_area="528.88" moovel_cumulative_area="72910.42" moovel_length="121.57" d="M401.5,70 L495.5,70 " />
<path id="100" stroke-linecap="round" stroke="#6566CC" stroke-width="1.0726197390253187" fill="none" moovel_neighborhood="Central" moovel_area="433.73" moovel_cumulative_area="73344.16" moovel_length="99.70" d="M498,70 L501,70.5 L575.5,70 " />
<path id="101" stroke-linecap="round" stroke="#6566CC" stroke-width="1.0726197390253187" fill="none" moovel_neighborhood="Central" moovel_area="101.39" moovel_cumulative_area="73445.55" moovel_length="23.31" d="M577.5,70 L587.5,70.5 L588.5,71.5 L588.5,72 L588.5,72.5 L587.5,73 L584,73 " />
<path id="102" stroke-linecap="round" stroke="#6566CC" stroke-width="1.0726197390253187" fill="none" moovel_neighborhood="Southwest" moovel_area="1149.73" moovel_cumulative_area="74595.28" moovel_length="264.29" d="M582.5,73.5 L376,73.5 " />
<path id="103" stroke-linecap="round" stroke="#6566CC" stroke-width="1.0726197390253187" fill="none" moovel_neighborhood="Southwest" moovel_area="2583.69" moovel_cumulative_area="77178.97" moovel_length="593.91" d="M373.5,73 L225,72.5 L11,73 L10.5,73.5 L10.5,74.5 L10.5,75.5 L11.5,76 L109.5,76 " />
<path id="104" stroke-linecap="round" stroke="#6566CC" stroke-width="1.0726197390253187" fill="none" moovel_neighborhood="Southwest" moovel_area="3775.83" moovel_cumulative_area="80954.80" moovel_length="867.94" d="M111.5,76.5 L113,76 L588.5,76.5 L589,77 L589,77.5 L588.5,78.5 L588,79 L389,79 " />
<path id="105" stroke-linecap="round" stroke="#6566CC" stroke-width="1.0726197390253187" fill="none" moovel_neighborhood="Southeast" moovel_area="1825.94" moovel_cumulative_area="82780.73" moovel_length="419.72" d="M386.5,79.5 L185,80 L58.5,80 " />
<path id="106" stroke-linecap="round" stroke="#6566CC" stroke-width="1.0726197390253187" fill="none" moovel_name="MRT East West Line (EW) Changi Airport Line" moovel_neighborhood="Southeast" moovel_area="5338.15" moovel_cumulative_area="88118.88" moovel_length="1227.07" d="M56.5,79.5 L48.5,79 L11,79.5 L10.5,80.5 L10.5,81.5 L11,82 L11.5,82.5 L110.5,83 L349.5,83.5 L588,84 L589,84.5 L589,85 L588.5,85.5 L588,86 L402,85.5 L257,85.5 " />
<path id="107" stroke-linecap="round" stroke="#6566CC" stroke-width="1.0726197390253187" fill="none" moovel_neighborhood="Southeast" moovel_area="1258.68" moovel_cumulative_area="89377.57" moovel_length="289.33" d="M255,85.5 L29.5,85.5 " />
<path id="108" stroke-linecap="round" stroke="#6566CC" stroke-width="1.0726197390253187" fill="none" moovel_neighborhood="Southeast" moovel_area="1277.63" moovel_cumulative_area="90655.20" moovel_length="293.69" d="M27,85.5 L11,86 L10.5,86.5 L10.5,87.5 L11,88 L12,88.5 L50.5,88 L221.5,88 " />
<path id="109" stroke-linecap="round" stroke="#6566CC" stroke-width="1.0726197390253187" fill="none" moovel_neighborhood="Southeast" moovel_area="277.99" moovel_cumulative_area="90933.19" moovel_length="63.90" d="M223.5,88.5 L273,88.5 " />
<path id="110" stroke-linecap="round" stroke="#6566CC" stroke-width="1.0726197390253187" fill="none" moovel_neighborhood="Southeast" moovel_area="572.99" moovel_cumulative_area="91506.18" moovel_length="131.71" d="M275,88.5 L377.5,88.5 " />
<path id="111" stroke-linecap="round" stroke="#6566CC" stroke-width="1.0726197390253187" fill="none" moovel_neighborhood="Southeast" moovel_area="1351.54" moovel_cumulative_area="92857.72" moovel_length="310.68" d="M379.5,88.5 L588.5,89 L589,89.5 L589,90.5 L588.5,91 L587.5,91.5 L557.5,91.5 " />
<path id="112" stroke-linecap="round" stroke="#6566CC" stroke-width="1.0726197390253187" fill="none" moovel_neighborhood="Southeast" moovel_area="1238.13" moovel_cumulative_area="94095.85" moovel_length="284.61" d="M555,91.5 L401,91 L333,91.5 " />
<path id="113" stroke-linecap="round" stroke="#6566CC" stroke-width="1.0726197390253187" fill="none" moovel_neighborhood="Southeast" moovel_area="3295.92" moovel_cumulative_area="97391.78" moovel_length="757.63" d="M331.5,91.5 L11,92 L10.5,92.5 L10.5,93.5 L10.5,94 L11.5,94.5 L12,95 L280,95 " />
<path id="114" stroke-linecap="round" stroke="#6566CC" stroke-width="1.0726197390253187" fill="none" moovel_neighborhood="Southeast" moovel_area="534.45" moovel_cumulative_area="97926.22" moovel_length="122.85" d="M282,94.5 L377.5,94.5 " />
<path id="115" stroke-linecap="round" stroke="#6566CC" stroke-width="1.0726197390253187" fill="none" moovel_neighborhood="Southeast" moovel_area="1553.90" moovel_cumulative_area="99480.13" moovel_length="357.19" d="M379.5,94.5 L588,95 L588.5,95.5 L588.5,96.5 L588.5,97 L587.5,97.5 L587,98 L577,97.5 L520.5,97.5 " />
<path id="116" stroke-linecap="round" stroke="#6566CC" stroke-width="1.0726197390253187" fill="none" moovel_neighborhood="Southeast" moovel_area="1263.49" moovel_cumulative_area="100743.62" moovel_length="290.44" d="M519,97.5 L352,97 L292.5,97 " />
<path id="117" stroke-linecap="round" stroke="#6566CC" stroke-width="1.0726197390253187" fill="none" moovel_neighborhood="Southeast" moovel_area="1759.40" moovel_cumulative_area="102503.01" moovel_length="404.43" d="M290,97.5 L206,97 L11,97.5 L10.5,98 L10.5,99 L11,99.5 L11.5,100 L12.5,100.5 L45,100.5 " />
<path id="118" stroke-linecap="round" stroke="#6566CC" stroke-width="1.0726197390253187" fill="none" moovel_neighborhood="Central" moovel_area="8107.18" moovel_cumulative_area="110610.19" moovel_length="1863.58" d="M47,100.5 L142,100 L346.5,99.5 L553,99 L588,99.5 L588.5,100 L588.5,101 L588.5,102 L588,102.5 L587.5,103 L392.5,103.5 L154,104 L11.5,104.5 L11,105 L11,105.5 L11,106 L11.5,106.5 L166.5,106 L344.5,106 " />
<path id="119" stroke-linecap="round" stroke="#6566CC" stroke-width="1.0726197390253187" fill="none" moovel_name="Bukit Panjang LRT Depot" moovel_neighborhood="Southwest" moovel_area="383.51" moovel_cumulative_area="110993.70" moovel_length="237.77" d="M347.5,106.5 L413.5,106 L532.5,106.5 " />
</svg>
