<?xml version="1.0" encoding="UTF-8" standalone="no"?>
<svg width="603px" height="308px"  viewport="0 0 603 308" version="1.1" xmlns="http://www.w3.org/2000/svg" xmlns:xlink="http://www.w3.org/1999/xlink">
<path id="1" stroke-linecap="round" stroke="#6566CC" stroke-width="14.14817484105172" fill="none" moovel_area="3151.74" moovel_cumulative_area="3151.74" moovel_length="606.06" d="M25.5,10 L154,10.5 L389.5,10.5 " />
<path id="2" stroke-linecap="round" stroke="#6566CC" stroke-width="14.14817484105172" fill="none" moovel_neighborhood="Tebet" moovel_area="4366.64" moovel_cumulative_area="7518.38" moovel_length="839.68" d="M407,10 L445.5,10.5 L604.5,11 L605.5,11.5 L606.5,12 L607,12.5 L608,13 L608.5,13.5 L608.5,14 L609,14.5 L609.5,15 L609.5,15.5 L609.5,16 L610,17 L610,17.5 L610,18 L610,18.5 L610,19 L609.5,19.5 L609.5,20 L609.5,21 L609,21.5 L609,22 L608.5,22.5 L608,23 L607.5,23.5 L607,24 L606.5,24.5 L605.5,25 L604,25.5 L316.5,25.5 " />
<path id="3" stroke-linecap="round" stroke="#6566CC" stroke-width="14.14817484105172" fill="none" moovel_name="Jalur 12" moovel_area="1096.16" moovel_cumulative_area="8614.55" moovel_length="210.79" d="M299,25.5 L172.5,25.5 " />
<path id="4" stroke-linecap="round" stroke="#6566CC" stroke-width="14.14817484105172" fill="none" moovel_name="Jalur 11" moovel_area="1096.76" moovel_cumulative_area="9711.31" moovel_length="210.90" d="M155,25.5 L28.5,25.5 " />
<path id="5" stroke-linecap="round" stroke="#6566CC" stroke-width="14.14817484105172" fill="none" moovel_neighborhood="Tebet" moovel_area="2134.41" moovel_cumulative_area="11845.72" moovel_length="410.44" d="M17,35 L17.5,36 L17.5,36.5 L18,37 L18,37.5 L18.5,38 L19,38.5 L19,39 L19.5,39.5 L20.5,40 L21,40.5 L22,41 L24,41.5 L260.5,41.5 " />
<path id="6" stroke-linecap="round" stroke="#6566CC" stroke-width="14.14817484105172" fill="none" moovel_neighborhood="Tebet" moovel_area="1118.85" moovel_cumulative_area="12964.57" moovel_length="215.15" d="M278,41.5 L407,41.5 " />
<path id="7" stroke-linecap="round" stroke="#6566CC" stroke-width="14.14817484105172" fill="none" moovel_area="709.78" moovel_cumulative_area="13674.35" moovel_length="136.49" d="M424.5,41.5 L441,41 L506,41 " />
<path id="8" stroke-linecap="round" stroke="#6566CC" stroke-width="14.14817484105172" fill="none" moovel_area="1999.40" moovel_cumulative_area="15673.75" moovel_length="384.47" d="M523.5,41.5 L604.5,42 L606,42.5 L606.5,43 L607,43.5 L607.5,44 L608,44.5 L608.5,45 L608.5,45.5 L609,46 L609,46.5 L609.5,47 L609.5,47.5 L609.5,48 L609.5,49 L609.5,49.5 L609.5,50 L609.5,50.5 L609.5,51 L609,51.5 L609,52 L608.5,52.5 L608.5,53.5 L608,54 L607.5,54.5 L607,55 L606.5,55.5 L605.5,56 L604.5,56.5 L602.5,57 L554,56.5 L473.5,56.5 " />
<path id="9" stroke-linecap="round" stroke="#6566CC" stroke-width="14.14817484105172" fill="none" moovel_area="166.25" moovel_cumulative_area="15840.00" moovel_length="31.97" d="M456.5,57 L438,57 " />
<path id="10" stroke-linecap="round" stroke="#6566CC" stroke-width="14.14817484105172" fill="none" moovel_neighborhood="Tebet" moovel_area="1313.70" moovel_cumulative_area="17153.71" moovel_length="252.62" d="M420,57 L269,57 " />
<path id="11" stroke-linecap="round" stroke="#6566CC" stroke-width="14.14817484105172" fill="none" moovel_neighborhood="Tanjung Priok" moovel_area="9606.75" moovel_cumulative_area="26760.46" moovel_length="1847.32" d="M251,57 L144,57.5 L23.5,58 L21.5,58.5 L20.5,59 L20,59.5 L19.5,60 L19,60.5 L18.5,61 L18.5,61.5 L18,62 L18,62.5 L17.5,63 L17.5,63.5 L17.5,64 L17.5,64.5 L17.5,65.5 L17.5,66 L17.5,66.5 L17.5,67 L18,67.5 L18,68 L18.5,68.5 L18.5,69 L19,69.5 L19,70 L19.5,70.5 L20,71 L21,71.5 L21.5,72 L23,72.5 L369,72 L604,72.5 L605.5,73 L606,73.5 L607,74 L607.5,74.5 L607.5,75 L608,75.5 L608.5,76 L608.5,76.5 L609,77 L609,77.5 L609,78 L609.5,79 L609.5,79.5 L609.5,80 L609.5,80.5 L609.5,81.5 L609,82 L609,82.5 L609,83 L608.5,83.5 L608.5,84 L608,84.5 L607.5,85 L607.5,85.5 L607,86 L606.5,86.5 L606,87 L605,87.5 L604,88 L485,88.5 L343,88.5 " />
<path id="12" stroke-linecap="round" stroke="#6566CC" stroke-width="14.14817484105172" fill="none" moovel_area="1218.56" moovel_cumulative_area="27979.01" moovel_length="234.32" d="M325,88 L247.5,88.5 L184.5,88.5 " />
<path id="13" stroke-linecap="round" stroke="#6566CC" stroke-width="14.14817484105172" fill="none" moovel_area="989.20" moovel_cumulative_area="28968.21" moovel_length="190.22" d="M167,88 L109.5,88.5 L53,88 " />
<path id="14" stroke-linecap="round" stroke="#6566CC" stroke-width="14.14817484105172" fill="none" moovel_area="206.19" moovel_cumulative_area="29174.40" moovel_length="39.65" d="M35.5,88 L23,88.5 L21.5,89 L21,89.5 L20,90 L19.5,90.5 L19,91 L18.5,91.5 L18.5,92 L18,92.5 L17.5,93 L17.5,93.5 L17.5,94 L17,94.5 L17,95 L17,95.5 L17,96.5 " />
<path id="15" stroke-linecap="round" stroke="#6566CC" stroke-width="14.14817484105172" fill="none" moovel_area="268.47" moovel_cumulative_area="29442.88" moovel_length="51.63" d="M30,103.5 L60.5,103.5 " />
<path id="16" stroke-linecap="round" stroke="#6566CC" stroke-width="14.14817484105172" fill="none" moovel_area="166.22" moovel_cumulative_area="29609.09" moovel_length="31.96" d="M78.5,103.5 L97,103.5 " />
<path id="17" stroke-linecap="round" stroke="#6566CC" stroke-width="14.14817484105172" fill="none" moovel_neighborhood="Pasar Minggu" moovel_area="2045.85" moovel_cumulative_area="31654.95" moovel_length="393.41" d="M114.5,103.5 L297.5,103 L351,103 " />
<path id="18" stroke-linecap="round" stroke="#6566CC" stroke-width="14.14817484105172" fill="none" moovel_neighborhood="Tebet" moovel_area="2393.70" moovel_cumulative_area="34048.64" moovel_length="460.29" d="M369,103.5 L604.5,104 L605.5,104.5 L606.5,105 L607,105.5 L607.5,106 L608,106.5 L608.5,107.5 L609,108 L609,108.5 L609,109 L609.5,109.5 L609.5,110 L609.5,110.5 L609.5,111.5 L609.5,112 L609.5,112.5 L609.5,113 L609,113.5 L609,114 L609,115 L608.5,115.5 L608,116 L608,116.5 L607,117 L606.5,117.5 L606,118 L605,118.5 L604,119 L583,119 " />
<path id="19" stroke-linecap="round" stroke="#6566CC" stroke-width="14.14817484105172" fill="none" moovel_neighborhood="Tebet" moovel_area="2729.26" moovel_cumulative_area="36777.90" moovel_length="524.82" d="M566,119.5 L365,120 L250.5,120 " />
<path id="20" stroke-linecap="round" stroke="#6566CC" stroke-width="14.14817484105172" fill="none" moovel_neighborhood="Tebet" moovel_area="2844.27" moovel_cumulative_area="39622.17" moovel_length="546.94" d="M233,119.5 L23.5,120 L22,120.5 L21,121 L20,121.5 L19.5,122 L19,122.5 L18.5,123 L18.5,123.5 L18,124 L18,124.5 L17.5,125 L17.5,125.5 L17.5,126 L17,126.5 L17,127 L17,128 L17,128.5 L17.5,129 L17.5,129.5 L17.5,130 L18,130.5 L18,131 L18.5,131.5 L19,132 L19,132.5 L19.5,133 L20,133.5 L21,134 L21.5,134.5 L23.5,135 L121,135 " />
<path id="21" stroke-linecap="round" stroke="#6566CC" stroke-width="14.14817484105172" fill="none" moovel_neighborhood="Tebet" moovel_area="2078.83" moovel_cumulative_area="41700.99" moovel_length="399.75" d="M138.5,135 L192.5,134.5 L378.5,134.5 " />
<path id="22" stroke-linecap="round" stroke="#6566CC" stroke-width="14.14817484105172" fill="none" moovel_neighborhood="Tebet" moovel_area="2500.87" moovel_cumulative_area="44201.86" moovel_length="480.90" d="M396,135 L603,135.5 L605,136 L606.5,136.5 L607,137 L607,137.5 L608,138 L608.5,138.5 L608.5,139 L609,139.5 L609,140 L609.5,141 L609.5,141.5 L609.5,142 L609.5,142.5 L609.5,143 L609.5,143.5 L609.5,144.5 L609.5,145 L609.5,145.5 L609,146 L609,146.5 L608.5,147 L608,147.5 L608,148 L607.5,148.5 L607,149 L606,149.5 L605.5,150 L604.5,150.5 L543,150.5 " />
<path id="23" stroke-linecap="round" stroke="#6566CC" stroke-width="14.14817484105172" fill="none" moovel_neighborhood="Tebet" moovel_area="2109.93" moovel_cumulative_area="46311.80" moovel_length="405.73" d="M525.5,150.5 L282,150.5 " />
<path id="24" stroke-linecap="round" stroke="#6566CC" stroke-width="14.14817484105172" fill="none" moovel_neighborhood="Tebet" moovel_area="3862.80" moovel_cumulative_area="50174.59" moovel_length="742.79" d="M264.5,150.5 L162,151 L22.5,151.5 L21,152 L20.5,152.5 L19.5,153 L19,153.5 L19,154 L18.5,154.5 L18,155 L18,155.5 L17.5,156 L17.5,156.5 L17.5,157 L17.5,158 L17,158.5 L17,159 L17.5,159.5 L17.5,160 L17.5,160.5 L17.5,161.5 L18,162 L18,162.5 L18.5,163 L19,163.5 L19.5,164 L20,164.5 L20.5,165 L21.5,165.5 L22.5,166 L27,166.5 L207.5,166.5 " />
<path id="25" stroke-linecap="round" stroke="#6566CC" stroke-width="14.14817484105172" fill="none" moovel_neighborhood="Tebet" moovel_area="2856.96" moovel_cumulative_area="53031.55" moovel_length="549.38" d="M225,166 L251.5,166.5 L555,166.5 " />
<path id="26" stroke-linecap="round" stroke="#6566CC" stroke-width="14.14817484105172" fill="none" moovel_neighborhood="Tebet" moovel_area="1364.00" moovel_cumulative_area="54395.55" moovel_length="262.29" d="M572.5,166 L603.5,166.5 L605.5,167 L606.5,167.5 L606.5,168 L607.5,168.5 L608,169 L608,169.5 L608.5,170 L609,170.5 L609,171 L609,171.5 L609.5,172 L609.5,172.5 L609.5,173.5 L609.5,174 L609.5,174.5 L609.5,175 L609.5,175.5 L609.5,176 L609,176.5 L609,177.5 L608.5,178 L608.5,178.5 L608,179 L607.5,179.5 L606.5,180 L606,180.5 L605.5,181 L604.5,181.5 L603,182 L498.5,182 " />
<path id="27" stroke-linecap="round" stroke="#6566CC" stroke-width="14.14817484105172" fill="none" moovel_neighborhood="Tebet" moovel_area="1633.01" moovel_cumulative_area="56028.56" moovel_length="314.02" d="M480.5,181.5 L292,181.5 " />
<path id="28" stroke-linecap="round" stroke="#6566CC" stroke-width="14.14817484105172" fill="none" moovel_neighborhood="Tebet" moovel_area="2070.45" moovel_cumulative_area="58099.01" moovel_length="398.14" d="M274.5,181.5 L35.5,181.5 " />
<path id="29" stroke-linecap="round" stroke="#6566CC" stroke-width="14.14817484105172" fill="none" moovel_neighborhood="Tebet" moovel_area="2551.39" moovel_cumulative_area="60650.40" moovel_length="490.62" d="M19,184.5 L18.5,185 L18,185.5 L18,186 L17.5,186.5 L17.5,187 L17.5,188 L17,188.5 L17,189 L17,189.5 L17,190 L17.5,190.5 L17.5,191.5 L17.5,192 L17.5,192.5 L18,193 L18.5,193.5 L18.5,194 L19,194.5 L19.5,195 L20,195.5 L20.5,196 L21,196.5 L22.5,197 L302,197 " />
<path id="30" stroke-linecap="round" stroke="#6566CC" stroke-width="14.14817484105172" fill="none" moovel_neighborhood="Tebet" moovel_area="1522.71" moovel_cumulative_area="62173.11" moovel_length="292.81" d="M319.5,197.5 L331,197 L495.5,197 " />
<path id="31" stroke-linecap="round" stroke="#6566CC" stroke-width="14.14817484105172" fill="none" moovel_neighborhood="Tebet" moovel_area="882.80" moovel_cumulative_area="63055.91" moovel_length="169.76" d="M513,197.5 L522,197 L603,197.5 L605,198 L606,198.5 L607,199 L607.5,199.5 L607.5,200 L608,200.5 L608.5,201 L608.5,201.5 L609,202 L609,202.5 L609.5,203 L609.5,203.5 L609.5,204 L609.5,205 L609.5,205.5 " />
<path id="32" stroke-linecap="round" stroke="#6566CC" stroke-width="14.14817484105172" fill="none" moovel_neighborhood="Tebet" moovel_area="2243.14" moovel_cumulative_area="65299.05" moovel_length="431.34" d="M596.5,213 L456.5,212.5 L337.5,212.5 " />
<path id="33" stroke-linecap="round" stroke="#6566CC" stroke-width="14.14817484105172" fill="none" moovel_neighborhood="Tebet" moovel_area="1494.63" moovel_cumulative_area="66793.68" moovel_length="287.41" d="M320.5,213 L148,213 " />
<path id="34" stroke-linecap="round" stroke="#6566CC" stroke-width="14.14817484105172" fill="none" moovel_neighborhood="Tebet" moovel_area="8641.50" moovel_cumulative_area="75435.18" moovel_length="1661.71" d="M130.5,213 L73.5,213.5 L22.5,214 L21,214.5 L20.5,215 L19.5,215.5 L19.5,216 L19,216.5 L18.5,217 L18.5,217.5 L18,218 L18,218.5 L17.5,219 L17.5,219.5 L17.5,220 L17.5,221 L17.5,221.5 L17.5,222 L17.5,222.5 L17.5,223 L18,223.5 L18,224 L18.5,224.5 L18.5,225 L19,225.5 L19.5,226 L20,226.5 L20.5,227 L21,227.5 L22.5,228 L23.5,228.5 L57.5,228 L153.5,227.5 L248.5,227 L344,226.5 L457,226 L572,225.5 L603.5,226 L605,226.5 L606,227 L606.5,227.5 L607,228 L607.5,228.5 L608,229 L608,229.5 L608.5,230 L609,230.5 L609,231 L609,231.5 L609.5,232 L609.5,232.5 L609.5,233.5 L609.5,234 L609.5,234.5 L609.5,235 L609,236 L609,236.5 L609,237 L608.5,237.5 L608.5,238 L608,238.5 L607.5,239 L607,239.5 L607,240 L606.5,240.5 L605.5,241 L604.5,241.5 L602.5,242 L442,242.5 L351.5,243 L334.5,243 " />
<path id="35" stroke-linecap="round" stroke="#6566CC" stroke-width="14.14817484105172" fill="none" moovel_neighborhood="Tebet" moovel_area="1063.02" moovel_cumulative_area="76498.20" moovel_length="204.41" d="M316.5,244 L194,244 " />
<path id="36" stroke-linecap="round" stroke="#6566CC" stroke-width="14.14817484105172" fill="none" moovel_neighborhood="Tebet" moovel_area="1806.98" moovel_cumulative_area="78305.18" moovel_length="347.47" d="M176.5,244 L22.5,244.5 L21,245 L20,245.5 L19.5,246 L19,246.5 L18.5,247 L18,247.5 L18,248 L17.5,249 L17.5,249.5 L17,250 L17,250.5 L17,251 L17,251.5 L17,252.5 L17,253 L17,253.5 L17.5,254 L17.5,254.5 L17.5,255.5 L18,256 L18.5,256.5 L19,257 L19,257.5 L20,258 L20.5,258.5 L21,259 L22,259.5 L31.5,260 L57.5,259.5 " />
<path id="37" stroke-linecap="round" stroke="#6566CC" stroke-width="14.14817484105172" fill="none" moovel_neighborhood="Tebet" moovel_area="820.15" moovel_cumulative_area="79125.33" moovel_length="157.71" d="M74.5,259.5 L169,259.5 " />
<path id="38" stroke-linecap="round" stroke="#6566CC" stroke-width="14.14817484105172" fill="none" moovel_neighborhood="Tebet" moovel_area="4788.42" moovel_cumulative_area="83913.75" moovel_length="920.79" d="M186.5,259.5 L315.5,259 L562.5,258.5 L603,259 L605,259.5 L606,260 L607,260.5 L607,261 L607.5,261.5 L608,262 L608.5,262.5 L608.5,263 L609,263.5 L609,264 L609,265 L609.5,265.5 L609.5,266 L609.5,266.5 L609.5,267 L609.5,268 L609.5,268.5 L609,269 L609,269.5 L608.5,270 L608.5,271 L608,271.5 L608,272 L607.5,272.5 L606.5,273 L606,273.5 L605.5,274 L604.5,274.5 L602,275 L488,275 " />
<path id="39" stroke-linecap="round" stroke="#6566CC" stroke-width="14.14817484105172" fill="none" moovel_neighborhood="Tebet" moovel_area="1748.56" moovel_cumulative_area="85662.31" moovel_length="336.24" d="M470.5,275.5 L268.5,275.5 " />
<path id="40" stroke-linecap="round" stroke="#6566CC" stroke-width="14.14817484105172" fill="none" moovel_neighborhood="Tebet" moovel_area="2145.58" moovel_cumulative_area="87807.89" moovel_length="412.58" d="M250.5,275.5 L23,276 L21,276.5 L20.5,277 L19.5,277.5 L19,278 L19,278.5 L18.5,279 L18,279.5 L18,280 L17.5,280.5 L17.5,281 L17.5,281.5 L17,282 L17,283 L17,283.5 L17,284 L17,284.5 L17.5,285 L17.5,285.5 L17.5,286.5 L18,287 L18,287.5 L18.5,288 L19,288.5 L19.5,289 L20,289.5 L20.5,290 L22,290.5 L22.5,290.5 " />
<path id="41" stroke-linecap="round" stroke="#6566CC" stroke-width="14.14817484105172" fill="none" moovel_neighborhood="Tebet" moovel_area="1751.90" moovel_cumulative_area="89559.79" moovel_length="336.88" d="M40,291 L242,291 " />
<path id="42" stroke-linecap="round" stroke="#6566CC" stroke-width="14.14817484105172" fill="none" moovel_neighborhood="Tebet" moovel_area="1209.60" moovel_cumulative_area="90769.38" moovel_length="232.60" d="M260,291 L399,291 " />
<path id="43" stroke-linecap="round" stroke="#6566CC" stroke-width="14.14817484105172" fill="none" moovel_neighborhood="Tebet" moovel_area="1021.13" moovel_cumulative_area="91790.52" moovel_length="196.36" d="M417,291 L534.5,291 " />
</svg>
