<?xml version="1.0" encoding="UTF-8" standalone="no"?>
<svg width="603px" height="73298px"  viewport="0 0 603 73298" version="1.1" xmlns="http://www.w3.org/2000/svg" xmlns:xlink="http://www.w3.org/1999/xlink">
<path id="1" stroke-linecap="round" stroke="#6566CC" stroke-width="10.903309307509614" fill="none" moovel_area="2521.40" moovel_cumulative_area="2521.40" moovel_length="606.06" d="M23,8.5 L387,8.5 " />
<path id="2" stroke-linecap="round" stroke="#6566CC" stroke-width="10.903309307509614" fill="none" moovel_neighborhood="Tebet" moovel_area="3493.31" moovel_cumulative_area="6014.71" moovel_length="839.68" d="M401,8.5 L541,9 L602,9.5 L603,10.5 L604,11 L604.5,12 L605,13 L605.5,14 L605.5,15.5 L605.5,16.5 L605,17.5 L604.5,18.5 L603.5,19.5 L602.5,20 L601.5,20.5 L600.5,21 L312,21.5 " />
<path id="3" stroke-linecap="round" stroke="#6566CC" stroke-width="10.903309307509614" fill="none" moovel_name="Jalur 12" moovel_area="876.93" moovel_cumulative_area="6891.64" moovel_length="210.79" d="M297.5,21.5 L239,21 L172,21.5 " />
<path id="4" stroke-linecap="round" stroke="#6566CC" stroke-width="10.903309307509614" fill="none" moovel_name="Jalur 11" moovel_area="877.41" moovel_cumulative_area="7769.05" moovel_length="210.90" d="M157.5,21.5 L98,21 L31.5,21.5 " />
<path id="5" stroke-linecap="round" stroke="#6566CC" stroke-width="10.903309307509614" fill="none" moovel_neighborhood="Tebet" moovel_area="1707.53" moovel_cumulative_area="9476.58" moovel_length="410.44" d="M17.5,23 L17,24 L16,25 L15.5,26 L15.5,27 L15.5,28.5 L15.5,29.5 L16,30.5 L16.5,31.5 L17.5,32.5 L18.5,33.5 L19.5,34 L22,34.5 L252.5,34.5 " />
<path id="6" stroke-linecap="round" stroke="#6566CC" stroke-width="10.903309307509614" fill="none" moovel_neighborhood="Tebet" moovel_area="895.08" moovel_cumulative_area="10371.66" moovel_length="215.15" d="M266.5,34.5 L394.5,34.5 " />
<path id="7" stroke-linecap="round" stroke="#6566CC" stroke-width="10.903309307509614" fill="none" moovel_area="567.82" moovel_cumulative_area="10939.48" moovel_length="136.49" d="M409,34.5 L423,34 L490,34.5 " />
<path id="8" stroke-linecap="round" stroke="#6566CC" stroke-width="10.903309307509614" fill="none" moovel_area="1599.52" moovel_cumulative_area="12539.00" moovel_length="384.47" d="M504.5,34.5 L601.5,35 L602.5,35.5 L603.5,36.5 L604.5,37 L605,38.5 L605.5,39.5 L605.5,40.5 L605.5,41.5 L605,43 L604.5,44 L604,45 L603,45.5 L602,46.5 L601,47 L483,47 " />
<path id="9" stroke-linecap="round" stroke="#6566CC" stroke-width="10.903309307509614" fill="none" moovel_area="133.00" moovel_cumulative_area="12672.00" moovel_length="31.97" d="M468.5,47 L450.5,47 " />
<path id="10" stroke-linecap="round" stroke="#6566CC" stroke-width="10.903309307509614" fill="none" moovel_neighborhood="Tebet" moovel_area="1050.96" moovel_cumulative_area="13722.96" moovel_length="252.62" d="M436,47 L285,47 " />
<path id="11" stroke-linecap="round" stroke="#6566CC" stroke-width="10.903309307509614" fill="none" moovel_neighborhood="Tanjung Priok" moovel_area="7685.40" moovel_cumulative_area="21408.36" moovel_length="1847.32" d="M270.5,47 L268.5,47.5 L62.5,48 L19.5,48.5 L18.5,49 L17.5,49.5 L17,50.5 L16.5,51.5 L16,52.5 L16,54 L16,55 L16,56 L16.5,57 L17.5,58 L18,59 L19,59.5 L20,60 L169.5,59.5 L390,59 L602,59.5 L603,60.5 L604,61 L604.5,62.5 L605,63.5 L605,64.5 L605,66 L605,67 L604.5,68.5 L604,69.5 L603.5,70.5 L602.5,71 L601.5,71.5 L600.5,72 L547.5,72.5 L353.5,72.5 " />
<path id="12" stroke-linecap="round" stroke="#6566CC" stroke-width="10.903309307509614" fill="none" moovel_area="974.84" moovel_cumulative_area="22383.20" moovel_length="234.32" d="M339,73 L199,73 " />
<path id="13" stroke-linecap="round" stroke="#6566CC" stroke-width="10.903309307509614" fill="none" moovel_area="791.36" moovel_cumulative_area="23174.56" moovel_length="190.22" d="M185,73 L71.5,73 " />
<path id="14" stroke-linecap="round" stroke="#6566CC" stroke-width="10.903309307509614" fill="none" moovel_area="164.95" moovel_cumulative_area="23339.51" moovel_length="39.65" d="M57.5,73 L34.5,73 " />
<path id="15" stroke-linecap="round" stroke="#6566CC" stroke-width="10.903309307509614" fill="none" moovel_area="214.78" moovel_cumulative_area="23554.29" moovel_length="51.63" d="M20,73.5 L18,74.5 L17,75 L16.5,76 L16,77 L15.5,78.5 L15.5,79.5 L15.5,80.5 L16,82 L16.5,83 L17,84 L18,84.5 L19,85.5 L21.5,86 L33.5,86 " />
<path id="16" stroke-linecap="round" stroke="#6566CC" stroke-width="10.903309307509614" fill="none" moovel_area="132.97" moovel_cumulative_area="23687.26" moovel_length="31.96" d="M48,86 L66,86 " />
<path id="17" stroke-linecap="round" stroke="#6566CC" stroke-width="10.903309307509614" fill="none" moovel_neighborhood="Pasar Minggu" moovel_area="1636.68" moovel_cumulative_area="25323.94" moovel_length="393.41" d="M80,86 L191,85.5 L316,85.5 " />
<path id="18" stroke-linecap="round" stroke="#6566CC" stroke-width="10.903309307509614" fill="none" moovel_neighborhood="Tebet" moovel_area="1914.96" moovel_cumulative_area="27238.90" moovel_length="460.29" d="M330,86 L601.5,86.5 L602.5,87 L603.5,87.5 L604,88.5 L604.5,89.5 " />
<path id="19" stroke-linecap="round" stroke="#6566CC" stroke-width="10.903309307509614" fill="none" moovel_neighborhood="Tebet" moovel_area="2183.41" moovel_cumulative_area="29422.31" moovel_length="524.82" d="M597,99 L282,99 " />
<path id="20" stroke-linecap="round" stroke="#6566CC" stroke-width="10.903309307509614" fill="none" moovel_neighborhood="Tebet" moovel_area="2275.41" moovel_cumulative_area="31697.72" moovel_length="546.94" d="M268,99 L20,99.5 L19,100 L18,100.5 L17,101.5 L16.5,102.5 L16,103.5 L15.5,104.5 L15.5,105.5 L15.5,107 L16,108 L16.5,109 L17.5,110 L18.5,110.5 L19.5,111.5 L21.5,112 L84,112 " />
<path id="21" stroke-linecap="round" stroke="#6566CC" stroke-width="10.903309307509614" fill="none" moovel_neighborhood="Tebet" moovel_area="1663.06" moovel_cumulative_area="33360.78" moovel_length="399.75" d="M98.5,111.5 L338,111.5 " />
<path id="22" stroke-linecap="round" stroke="#6566CC" stroke-width="10.903309307509614" fill="none" moovel_neighborhood="Tebet" moovel_area="2000.70" moovel_cumulative_area="35361.48" moovel_length="480.90" d="M352.5,112 L601,112.5 L602.5,113 L603.5,113.5 L604,114.5 L604.5,115.5 L605,116.5 L605.5,118 L605.5,119 L605,120 L604.5,121.5 L604,122.5 L603.5,123 L602.5,124 L601,124.5 L599,125 L577,125 " />
<path id="23" stroke-linecap="round" stroke="#6566CC" stroke-width="10.903309307509614" fill="none" moovel_neighborhood="Tebet" moovel_area="1687.95" moovel_cumulative_area="37049.43" moovel_length="405.73" d="M563,124.5 L319.5,124.5 " />
<path id="24" stroke-linecap="round" stroke="#6566CC" stroke-width="10.903309307509614" fill="none" moovel_neighborhood="Tebet" moovel_area="3090.24" moovel_cumulative_area="40139.67" moovel_length="742.79" d="M305,124.5 L298,125 L19.5,125.5 L18.5,126 L17.5,126.5 L17,127.5 L16,128.5 L16,129.5 L15.5,130.5 L15.5,132 L16,133 L16,134 L17,135 L17.5,136 L18.5,136.5 L19.5,137 L21,137.5 L164.5,137.5 " />
<path id="25" stroke-linecap="round" stroke="#6566CC" stroke-width="10.903309307509614" fill="none" moovel_neighborhood="Tebet" moovel_area="2285.57" moovel_cumulative_area="42425.24" moovel_length="549.38" d="M179,137.5 L240.5,138 L509,138 " />
<path id="26" stroke-linecap="round" stroke="#6566CC" stroke-width="10.903309307509614" fill="none" moovel_neighborhood="Tebet" moovel_area="1091.20" moovel_cumulative_area="43516.44" moovel_length="262.29" d="M523.5,137.5 L601,138 L602,138.5 L603,139 L604,140 L604.5,141 L605,142 L605,143.5 L605,144.5 L605,146 L604.5,147 L604,148 L603,149 L602.5,149.5 L601,150 L600,150.5 L538,150.5 " />
<path id="27" stroke-linecap="round" stroke="#6566CC" stroke-width="10.903309307509614" fill="none" moovel_neighborhood="Tebet" moovel_area="1306.41" moovel_cumulative_area="44822.85" moovel_length="314.02" d="M524,150.5 L335.5,150.5 " />
<path id="28" stroke-linecap="round" stroke="#6566CC" stroke-width="10.903309307509614" fill="none" moovel_neighborhood="Tebet" moovel_area="1656.36" moovel_cumulative_area="46479.21" moovel_length="398.14" d="M321.5,150.5 L83,150.5 " />
<path id="29" stroke-linecap="round" stroke="#6566CC" stroke-width="10.903309307509614" fill="none" moovel_neighborhood="Tebet" moovel_area="2041.11" moovel_cumulative_area="48520.32" moovel_length="490.62" d="M68,150.5 L20,151 L18.5,152 L17.5,152.5 L17,153.5 L16,154 L16,155.5 L15.5,156.5 L15.5,157.5 L16,158.5 L16,159.5 L16.5,160.5 L17.5,161.5 L18,162 L19,162.5 L20,163 L22.5,163.5 L34,163 L250,163 " />
<path id="30" stroke-linecap="round" stroke="#6566CC" stroke-width="10.903309307509614" fill="none" moovel_neighborhood="Tebet" moovel_area="1218.17" moovel_cumulative_area="49738.49" moovel_length="292.81" d="M264.5,163.5 L439.5,163.5 " />
<path id="31" stroke-linecap="round" stroke="#6566CC" stroke-width="10.903309307509614" fill="none" moovel_neighborhood="Tebet" moovel_area="706.24" moovel_cumulative_area="50444.73" moovel_length="169.76" d="M454,163.5 L555,163.5 " />
<path id="32" stroke-linecap="round" stroke="#6566CC" stroke-width="10.903309307509614" fill="none" moovel_neighborhood="Tebet" moovel_area="1794.51" moovel_cumulative_area="52239.24" moovel_length="431.34" d="M569,163.5 L601,164 L602,164.5 L603,165 L604,166 L604.5,166.5 L605,168 L605.5,169 L605.5,170 L605.5,171 L605,172.5 L604.5,173.5 L603.5,174.5 L602.5,175 L601.5,175.5 L600.5,176 L390.5,176 " />
<path id="33" stroke-linecap="round" stroke="#6566CC" stroke-width="10.903309307509614" fill="none" moovel_neighborhood="Tebet" moovel_area="1195.71" moovel_cumulative_area="53434.95" moovel_length="287.41" d="M376,176.5 L204,176.5 " />
<path id="34" stroke-linecap="round" stroke="#6566CC" stroke-width="10.903309307509614" fill="none" moovel_neighborhood="Tebet" moovel_area="6913.20" moovel_cumulative_area="60348.15" moovel_length="1661.71" d="M189.5,176.5 L39,177 L18.5,177.5 L18,178.5 L17,179 L16.5,180 L16,181.5 L16,182.5 L16,183.5 L16,184.5 L16.5,185.5 L17,186.5 L18,187.5 L19,188 L20,188.5 L21,189 L157,188.5 L522,188 L600,188.5 L602,189 L603,190 L604,191 L604.5,192 L605,193 L605,194 L605,195.5 L605,196.5 L604.5,198 L604,199 L603,200 L602,200.5 L601,201 L600,201.5 L573.5,201 L531.5,201.5 L383.5,201.5 " />
<path id="35" stroke-linecap="round" stroke="#6566CC" stroke-width="10.903309307509614" fill="none" moovel_neighborhood="Tebet" moovel_area="850.42" moovel_cumulative_area="61198.57" moovel_length="204.41" d="M369.5,202 L247.5,202 " />
<path id="36" stroke-linecap="round" stroke="#6566CC" stroke-width="10.903309307509614" fill="none" moovel_neighborhood="Tebet" moovel_area="1445.58" moovel_cumulative_area="62644.15" moovel_length="347.47" d="M233,202 L25,202 " />
<path id="37" stroke-linecap="round" stroke="#6566CC" stroke-width="10.903309307509614" fill="none" moovel_neighborhood="Tebet" moovel_area="656.12" moovel_cumulative_area="63300.27" moovel_length="157.71" d="M15.5,210 L16,211 L16.5,212 L17,213 L18,213.5 L19,214.5 L21,215 L107,215 " />
<path id="38" stroke-linecap="round" stroke="#6566CC" stroke-width="10.903309307509614" fill="none" moovel_neighborhood="Tebet" moovel_area="3830.74" moovel_cumulative_area="67131.01" moovel_length="920.79" d="M121.5,215 L205,214.5 L601.5,215 L602.5,215.5 L603.5,216.5 L604,217.5 L604.5,218.5 L605,219.5 L605,221 L605,222 L604.5,223.5 L604,224.5 L603.5,225.5 L602.5,226.5 L601.5,227 L600.5,227.5 L543,227.5 " />
<path id="39" stroke-linecap="round" stroke="#6566CC" stroke-width="10.903309307509614" fill="none" moovel_neighborhood="Tebet" moovel_area="1398.85" moovel_cumulative_area="68529.86" moovel_length="336.24" d="M528.5,228 L327,228 " />
<path id="40" stroke-linecap="round" stroke="#6566CC" stroke-width="10.903309307509614" fill="none" moovel_neighborhood="Tebet" moovel_area="1716.46" moovel_cumulative_area="70246.32" moovel_length="412.58" d="M312.5,228 L65,228 " />
<path id="41" stroke-linecap="round" stroke="#6566CC" stroke-width="10.903309307509614" fill="none" moovel_neighborhood="Tebet" moovel_area="1401.52" moovel_cumulative_area="71647.84" moovel_length="336.88" d="M50.5,228 L20.5,228.5 L18.5,229 L17.5,230 L16.5,231 L16,232 L16,233 L15.5,234 L15.5,235 L16,236 L16,237.5 L17,238 L17.5,239 L18.5,240 L19.5,240.5 L22,241 L174.5,241 " />
<path id="42" stroke-linecap="round" stroke="#6566CC" stroke-width="10.903309307509614" fill="none" moovel_neighborhood="Tebet" moovel_area="967.68" moovel_cumulative_area="72615.52" moovel_length="232.60" d="M189,241 L210,240.5 L328,241 " />
<path id="43" stroke-linecap="round" stroke="#6566CC" stroke-width="10.903309307509614" fill="none" moovel_neighborhood="Tebet" moovel_area="816.91" moovel_cumulative_area="73432.43" moovel_length="196.36" d="M342.5,241 L459.5,241 " />
</svg>
