<?xml version="1.0" encoding="UTF-8" standalone="no"?>
<svg width="610px" height="1028px"  viewport="0 0 610 1028" version="1.1" xmlns="http://www.w3.org/2000/svg" xmlns:xlink="http://www.w3.org/1999/xlink">
<path id="1" stroke-linecap="round" stroke="#6566CC" stroke-width="4" fill="none" moovel_area="5313.44" moovel_cumulative_area="5313.44" moovel_length="1058.92" d="M7,2 L23.5,2.5 L255.5,3 L569.5,3.5 L571,4 L571.5,4.5 L572,5 L572.5,5.5 L572.5,6 L573,7 L572.5,7.5 L572.5,8 L572,9 L571.5,9.5 L571,10 L569.5,10.5 L427.5,10 L311,10.5 L307.5,10.5 " />
<path id="2" stroke-linecap="round" stroke="#6566CC" stroke-width="4" fill="none" moovel_area="1121.13" moovel_cumulative_area="6434.57" moovel_length="223.43" d="M302,10 L160.5,9.5 L137,10 L126.5,10 " />
<path id="3" stroke-linecap="round" stroke="#6566CC" stroke-width="4" fill="none" moovel_name="Cambridge Street" moovel_area="7404.09" moovel_cumulative_area="13838.66" moovel_length="379.70" d="M120.5,10 L4.5,10.5 L3,11 L2.5,12 L2,12.5 L2,13.5 L2,14.5 L2,15 L2,16 L2.5,16.5 L3,17.5 L3.5,18 L5,18.5 L99.5,19 L178,19 " />
<path id="4" stroke-linecap="round" stroke="#6566CC" stroke-width="4" fill="none" moovel_name="Riverdale Parkway Bikepath" moovel_area="14270.75" moovel_cumulative_area="28109.41" moovel_length="1169.73" d="M183.5,18.5 L273,19 L395.5,19.5 L569.5,20 L571,20.5 L571.5,21 L572,21.5 L572.5,22 L572.5,23 L572.5,23.5 L572.5,24 L572.5,25 L572,25.5 L571.5,26 L570.5,26.5 L570,27 L472,26.5 L295.5,26 L148.5,25.5 L43,25.5 " />
<path id="5" stroke-linecap="round" stroke="#6566CC" stroke-width="4" fill="none" moovel_name="Muddy River Bikepath" moovel_area="3703.04" moovel_cumulative_area="31812.45" moovel_length="1152.79" d="M38,26.5 L28.5,27 L4,27.5 L3.5,28 L3,28.5 L2.5,29 L2.5,29.5 L2.5,30.5 L2.5,31 L2.5,31.5 L2.5,32.5 L3,33 L3.5,33.5 L4,34 L5.5,34.5 L82.5,34 L452,33.5 L569,34 L570.5,34.5 L571,35 L571.5,36 L571.5,36.5 L572,37.5 L572,38 L572,39 L571.5,40 L571.5,40.5 L571,41.5 L570.5,42 L569.5,42.5 L515,43 L278.5,43 " />
<path id="6" stroke-linecap="round" stroke="#6566CC" stroke-width="4" fill="none" moovel_name="Community Path over Gilmore Bridge" moovel_area="1726.32" moovel_cumulative_area="33538.77" moovel_length="537.42" d="M273,43 L95.5,43.5 L4,44 L3.5,44.5 L3,45 L2.5,45.5 L2.5,46.5 L2.5,47 L2.5,48 L2.5,48.5 L3,49 L3,50 L3.5,50.5 L4.5,51 L149.5,51 " />
<path id="7" stroke-linecap="round" stroke="#6566CC" stroke-width="4" fill="none" moovel_name="Jamaicaway Bikepath" moovel_area="8063.73" moovel_cumulative_area="41602.50" moovel_length="2510.30" d="M155.5,51 L164,50.5 L454,50 L476,50.5 L570,51 L571.5,51.5 L572,52 L572.5,53 L572.5,53.5 L572.5,54 L572.5,55 L572.5,55.5 L572,56 L571.5,56.5 L571,57 L570,57.5 L568.5,58 L411,58.5 L246,59 L204.5,59.5 L38.5,60 L4.5,60.5 L3.5,61 L3,61.5 L2.5,62 L2.5,63 L2.5,63.5 L2.5,64.5 L2.5,65 L3,65.5 L3.5,66.5 L4,67 L5,67.5 L58,67 L282.5,66.5 L410.5,66 L525.5,65.5 L570,66 L571.5,66.5 L572,67 L572.5,67.5 L572.5,68.5 L573,69 L573,69.5 L572.5,70.5 L572,71 L571.5,71.5 L571,72 L570.5,72.5 L568,73 L456,73.5 L352.5,74 L260,74.5 L174.5,75 L170,74.5 L163,74.5 " />
<path id="12" stroke-linecap="round" stroke="#6566CC" stroke-width="4" fill="none" moovel_name="Melnea Cass Bike Path" moovel_area="4916.35" moovel_cumulative_area="46518.85" moovel_length="1530.50" d="M157.5,75.5 L107.5,75 L4.5,75.5 L3,76.5 L2.5,77 L2,77.5 L1.5,78.5 L1.5,79.5 L1.5,80 L2,81 L2.5,82 L3,82.5 L3.5,83 L4,83.5 L5,84 L117.5,84.5 L273.5,85 L433.5,85.5 L570,86 L571.5,86.5 L572,87 L572.5,87.5 L572.5,88.5 L573,89 L573,89.5 L572.5,90.5 L572,91 L571.5,91.5 L571,92 L570.5,92.5 L400.5,92 L100,92 " />
<path id="13" stroke-linecap="round" stroke="#6566CC" stroke-width="4" fill="none" moovel_area="85.99" moovel_cumulative_area="46604.84" moovel_length="17.14" d="M94.5,92 L82,92 " />
<path id="14" stroke-linecap="round" stroke="#6566CC" stroke-width="4" fill="none" moovel_area="3892.60" moovel_cumulative_area="50497.44" moovel_length="775.76" d="M76.5,92 L32,92.5 L4,93 L3.5,93.5 L3,94 L2.5,94.5 L2.5,95 L2.5,96 L2.5,96.5 L2.5,97 L3,98 L3.5,98.5 L4,99 L5,99.5 L141,99 L388.5,98.5 L534.5,98.5 " />
<path id="15" stroke-linecap="round" stroke="#6566CC" stroke-width="4" fill="none" moovel_name="Neponset River Greenway" moovel_area="17683.47" moovel_cumulative_area="68180.92" moovel_length="3524.17" d="M540,100 L555,100.5 L570.5,101 L571.5,101.5 L572,102 L572,102.5 L572.5,103.5 L572.5,104 L572.5,105 L572,105.5 L572,106 L571.5,107 L571,107.5 L569.5,108 L198,107.5 L4,108 L3.5,108.5 L3,109 L2.5,109.5 L2,110.5 L1.5,111 L1.5,112 L1.5,113 L2,114 L2.5,114.5 L3,115 L3.5,115.5 L4.5,116 L5,116.5 L570.5,117 L571,117.5 L572,118 L572.5,118.5 L572.5,119 L573,119.5 L573,120.5 L572.5,121 L572.5,121.5 L572,122 L571.5,122.5 L570.5,123 L570,123.5 L4,124 L3,124.5 L2.5,125 L2,126 L1.5,127 L1.5,127.5 L1.5,128.5 L1.5,129.5 L2,130.5 L2.5,131 L3,131.5 L4,132 L4.5,132.5 L6.5,133 L309,133.5 L569.5,134 L571,134.5 L571.5,135 L572,135.5 L572.5,136 L573,136.5 L573,137 L573,138 L572.5,138.5 L572,139 L571.5,139.5 L571,140 L570,140.5 L292.5,140 L179,139.5 L132.5,139 L128,139 " />
<path id="17" stroke-linecap="round" stroke="#6566CC" stroke-width="4" fill="none" moovel_area="2960.82" moovel_cumulative_area="71141.73" moovel_length="921.73" d="M123,141 L58.5,141.5 L4.5,142 L3.5,142.5 L3,143.5 L2.5,144 L2.5,144.5 L2.5,145.5 L2.5,146 L3,146.5 L3,147.5 L3.5,148 L4,148.5 L5.5,149 L37,148.5 L305.5,148 L570,148.5 L570.5,149 L571,149.5 L571.5,150.5 L572,151 L572,152 L572,152.5 L572,153.5 L571.5,154.5 L571,155 L570.5,155.5 L570,156 L569.5,156.5 L546,156.5 " />
<path id="18" stroke-linecap="round" stroke="#6566CC" stroke-width="4" fill="none" moovel_area="195.72" moovel_cumulative_area="71337.45" moovel_length="60.93" d="M540.5,157.5 L493,157.5 " />
<path id="19" stroke-linecap="round" stroke="#6566CC" stroke-width="4" fill="none" moovel_area="1800.86" moovel_cumulative_area="73138.31" moovel_length="45.51" d="M488,157 L452.5,157.5 " />
<path id="20" stroke-linecap="round" stroke="#6566CC" stroke-width="4" fill="none" moovel_area="134.22" moovel_cumulative_area="73272.53" moovel_length="41.78" d="M446.5,157 L429,157.5 L414.5,157.5 " />
<path id="21" stroke-linecap="round" stroke="#6566CC" stroke-width="4" fill="none" moovel_area="21.80" moovel_cumulative_area="73294.34" moovel_length="6.79" d="M408.5,157.5 L404,157.5 " />
<path id="22" stroke-linecap="round" stroke="#6566CC" stroke-width="4" fill="none" moovel_area="158.91" moovel_cumulative_area="73453.25" moovel_length="49.47" d="M398.5,157.5 L360,157.5 " />
<path id="23" stroke-linecap="round" stroke="#6566CC" stroke-width="4" fill="none" moovel_area="43.78" moovel_cumulative_area="73497.03" moovel_length="13.63" d="M355,157.5 L345,157.5 " />
<path id="24" stroke-linecap="round" stroke="#6566CC" stroke-width="4" fill="none" moovel_area="274.48" moovel_cumulative_area="73771.51" moovel_length="85.45" d="M339.5,157 L272.5,157 " />
<path id="25" stroke-linecap="round" stroke="#6566CC" stroke-width="4" fill="none" moovel_area="8.97" moovel_cumulative_area="73780.48" moovel_length="2.79" d="M267.5,157.5 L266,157.5 " />
<path id="26" stroke-linecap="round" stroke="#6566CC" stroke-width="4" fill="none" moovel_area="67.29" moovel_cumulative_area="73847.77" moovel_length="20.95" d="M260.5,157 L244.5,157.5 " />
<path id="27" stroke-linecap="round" stroke="#6566CC" stroke-width="4" fill="none" moovel_area="56.88" moovel_cumulative_area="73904.65" moovel_length="17.71" d="M239,157.5 L226,157.5 " />
<path id="28" stroke-linecap="round" stroke="#6566CC" stroke-width="4" fill="none" moovel_area="74.01" moovel_cumulative_area="73978.65" moovel_length="23.04" d="M220,157.5 L202.5,157.5 " />
<path id="29" stroke-linecap="round" stroke="#6566CC" stroke-width="4" fill="none" moovel_area="152.72" moovel_cumulative_area="74131.37" moovel_length="47.54" d="M197.5,157 L188.5,157.5 L160.5,157.5 " />
<path id="30" stroke-linecap="round" stroke="#6566CC" stroke-width="4" fill="none" moovel_area="231.94" moovel_cumulative_area="74363.32" moovel_length="72.21" d="M154.5,157 L98.5,157 " />
<path id="31" stroke-linecap="round" stroke="#6566CC" stroke-width="4" fill="none" moovel_area="71.97" moovel_cumulative_area="74435.28" moovel_length="22.40" d="M93,157.5 L76,157.5 " />
<path id="32" stroke-linecap="round" stroke="#6566CC" stroke-width="4" fill="none" moovel_area="1127.38" moovel_cumulative_area="75562.67" moovel_length="350.96" d="M71,157.5 L4.5,158 L4,158.5 L3.5,159 L3,159.5 L2.5,160 L2.5,160.5 L2.5,161.5 L2.5,162 L2.5,163 L3,163.5 L3.5,164 L4,164.5 L4.5,165 L83,165.5 L204.5,165.5 " />
<path id="33" stroke-linecap="round" stroke="#6566CC" stroke-width="4" fill="none" moovel_area="83.63" moovel_cumulative_area="75646.30" moovel_length="26.03" d="M210,165.5 L230,165.5 " />
<path id="34" stroke-linecap="round" stroke="#6566CC" stroke-width="4" fill="none" moovel_area="1421.35" moovel_cumulative_area="77067.64" moovel_length="283.26" d="M235.5,165.5 L243,165 L458,165 " />
<path id="35" stroke-linecap="round" stroke="#6566CC" stroke-width="4" fill="none" moovel_area="261.99" moovel_cumulative_area="77329.63" moovel_length="52.21" d="M463.5,165.5 L504,165.5 " />
<path id="36" stroke-linecap="round" stroke="#6566CC" stroke-width="4" fill="none" moovel_area="643.57" moovel_cumulative_area="77973.20" moovel_length="128.26" d="M509,165.5 L522.5,165 L569.5,165.5 L570.5,166 L571,166.5 L571.5,167 L572,168 L572,168.5 L572,169.5 L572,170 L572,171 L571.5,171.5 L571.5,172 L571,172.5 L570,173 L569.5,173.5 L568,174 L556,173.5 L539.5,173.5 " />
<path id="37" stroke-linecap="round" stroke="#6566CC" stroke-width="4" fill="none" moovel_area="61.20" moovel_cumulative_area="78034.40" moovel_length="12.20" d="M534.5,173.5 L525.5,173.5 " />
<path id="38" stroke-linecap="round" stroke="#6566CC" stroke-width="4" fill="none" moovel_area="67.25" moovel_cumulative_area="78101.65" moovel_length="13.40" d="M520,173.5 L510.5,173.5 " />
<path id="39" stroke-linecap="round" stroke="#6566CC" stroke-width="4" fill="none" moovel_area="1034.61" moovel_cumulative_area="79136.26" moovel_length="322.08" d="M505,173.5 L458,174 L252,174 " />
<path id="40" stroke-linecap="round" stroke="#6566CC" stroke-width="4" fill="none" moovel_area="74.70" moovel_cumulative_area="79210.96" moovel_length="23.25" d="M246.5,173.5 L229,173.5 " />
<path id="41" stroke-linecap="round" stroke="#6566CC" stroke-width="4" fill="none" moovel_area="874.15" moovel_cumulative_area="80085.11" moovel_length="272.13" d="M223.5,173.5 L9.5,173.5 " />
<path id="42" stroke-linecap="round" stroke="#6566CC" stroke-width="4" fill="none" moovel_area="142.51" moovel_cumulative_area="80227.62" moovel_length="44.36" d="M4,174 L3.5,174.5 L3,175 L2.5,175.5 L2,176.5 L2,177 L2,178 L2,178.5 L2.5,179.5 L2.5,180 L3,180.5 L4,181 L4.5,181.5 L5.5,182 L29.5,182 " />
<path id="43" stroke-linecap="round" stroke="#6566CC" stroke-width="4" fill="none" moovel_area="548.93" moovel_cumulative_area="80776.55" moovel_length="170.89" d="M34.5,182 L169,182 " />
<path id="44" stroke-linecap="round" stroke="#6566CC" stroke-width="4" fill="none" moovel_name="Lost Emerald Necklace" moovel_area="8007.32" moovel_cumulative_area="88783.87" moovel_length="2492.74" d="M174.5,182 L235.5,182.5 L365.5,183 L502.5,183.5 L570.5,184 L572,184.5 L572.5,185 L573,185.5 L573,186.5 L573,187 L573,187.5 L572.5,188 L572,188.5 L571.5,189 L571,189.5 L569,190 L511,189.5 L360,189 L214.5,188.5 L71.5,188 L4,188.5 L3,189 L2.5,189.5 L2,190.5 L1.5,191 L1,192 L1,193 L1,194 L1.5,195 L2,196 L2.5,196.5 L3,197 L4,197.5 L5,198 L42.5,198.5 L263,199 L483,199.5 L570.5,200 L572,200.5 L572.5,201 L573,202 L573,202.5 L573,203 L573,203.5 L572.5,204 L572,205 L570.5,205.5 L570,206 L448,205.5 L197.5,205 L166.5,205.5 L158,205.5 " />
<path id="45" stroke-linecap="round" stroke="#6566CC" stroke-width="4" fill="none" moovel_area="107.34" moovel_cumulative_area="88891.22" moovel_length="33.42" d="M152,206.5 L126.5,206.5 " />
<path id="46" stroke-linecap="round" stroke="#6566CC" stroke-width="4" fill="none" moovel_area="419.95" moovel_cumulative_area="89311.17" moovel_length="130.73" d="M121.5,206 L19,206 " />
<path id="47" stroke-linecap="round" stroke="#6566CC" stroke-width="4" fill="none" moovel_area="22312.42" moovel_cumulative_area="111623.59" moovel_length="563.90" d="M13,206 L4.5,206.5 L3,207 L2.5,208 L2,208.5 L2,209.5 L2,210 L2,211 L2,211.5 L2.5,212.5 L2.5,213 L3.5,213.5 L4,214 L4.5,214.5 L11.5,215 L240.5,215.5 L430.5,215.5 " />
<path id="48" stroke-linecap="round" stroke="#6566CC" stroke-width="4" fill="none" moovel_area="5258.64" moovel_cumulative_area="116882.23" moovel_length="132.90" d="M436,214.5 L478.5,214 L531.5,214.5 L540,214.5 " />
<path id="49" stroke-linecap="round" stroke="#6566CC" stroke-width="4" fill="none" moovel_area="507.99" moovel_cumulative_area="117390.22" moovel_length="158.14" d="M545.5,214.5 L570.5,215 L571,215.5 L571.5,216 L572,217 L572,217.5 L572,218.5 L572,219.5 L572,220 L571.5,221 L571,221.5 L570.5,222 L570,222.5 L568.5,223 L479.5,223 " />
<path id="50" stroke-linecap="round" stroke="#6566CC" stroke-width="4" fill="none" moovel_area="384.56" moovel_cumulative_area="117774.78" moovel_length="119.72" d="M474,222.5 L380.5,222.5 " />
<path id="52" stroke-linecap="round" stroke="#6566CC" stroke-width="4" fill="none" moovel_area="602.49" moovel_cumulative_area="118377.27" moovel_length="187.56" d="M375,222.5 L227.5,222.5 " />
<path id="53" stroke-linecap="round" stroke="#6566CC" stroke-width="4" fill="none" moovel_area="1349.53" moovel_cumulative_area="119726.80" moovel_length="34.11" d="M221.5,222.5 L195.5,222.5 " />
<path id="54" stroke-linecap="round" stroke="#6566CC" stroke-width="4" fill="none" moovel_area="15162.56" moovel_cumulative_area="134889.36" moovel_length="383.20" d="M190,222.5 L144,222 L4.5,222.5 L3.5,223 L3,223.5 L2.5,224 L2,225 L1.5,225.5 L1.5,226.5 L1.5,227.5 L2,228 L2.5,229 L3,229.5 L3.5,230 L4,230.5 L5,231 L111,231 " />
<path id="55" stroke-linecap="round" stroke="#6566CC" stroke-width="4" fill="none" moovel_area="3402.66" moovel_cumulative_area="138292.03" moovel_length="85.99" d="M116,231 L117,230.5 L178.5,231 L183,231 " />
<path id="56" stroke-linecap="round" stroke="#6566CC" stroke-width="4" fill="none" moovel_area="1004.72" moovel_cumulative_area="139296.74" moovel_length="25.39" d="M188.5,231 L208,231 " />
<path id="57" stroke-linecap="round" stroke="#6566CC" stroke-width="4" fill="none" moovel_area="3971.07" moovel_cumulative_area="143267.81" moovel_length="100.36" d="M213,231 L225,230.5 L291,231 L291.5,231 " />
<path id="58" stroke-linecap="round" stroke="#6566CC" stroke-width="4" fill="none" moovel_area="2903.97" moovel_cumulative_area="146171.77" moovel_length="73.39" d="M297,231 L354,231 " />
<path id="59" stroke-linecap="round" stroke="#6566CC" stroke-width="4" fill="none" moovel_area="1472.18" moovel_cumulative_area="147643.96" moovel_length="37.21" d="M359,231 L387.5,231 " />
<path id="60" stroke-linecap="round" stroke="#6566CC" stroke-width="4" fill="none" moovel_area="273.28" moovel_cumulative_area="147917.24" moovel_length="6.91" d="M393,231 L397.5,231 " />
<path id="61" stroke-linecap="round" stroke="#6566CC" stroke-width="4" fill="none" moovel_area="151.92" moovel_cumulative_area="148069.16" moovel_length="47.29" d="M403.5,231 L440,231 " />
<path id="62" stroke-linecap="round" stroke="#6566CC" stroke-width="4" fill="none" moovel_area="214.65" moovel_cumulative_area="148283.81" moovel_length="66.82" d="M445,231 L497,231 " />
<path id="64" stroke-linecap="round" stroke="#6566CC" stroke-width="4" fill="none" moovel_area="1095.45" moovel_cumulative_area="149379.26" moovel_length="27.69" d="M502.5,231 L524,231 " />
<path id="65" stroke-linecap="round" stroke="#6566CC" stroke-width="4" fill="none" moovel_area="66.89" moovel_cumulative_area="149446.16" moovel_length="20.82" d="M529.5,231 L545,231 " />
<path id="66" stroke-linecap="round" stroke="#6566CC" stroke-width="4" fill="none" moovel_area="3418.51" moovel_cumulative_area="152864.67" moovel_length="86.40" d="M551,231 L570.5,231.5 L571,232 L571.5,232.5 L572,233.5 L572,234 L572.5,234.5 L572.5,235.5 L572,236 L572,237 L571.5,237.5 L570.5,238 L570,238.5 L569.5,239 L531,239 " />
<path id="67" stroke-linecap="round" stroke="#6566CC" stroke-width="4" fill="none" moovel_area="437.93" moovel_cumulative_area="153302.60" moovel_length="87.28" d="M525.5,239 L457.5,239 " />
<path id="68" stroke-linecap="round" stroke="#6566CC" stroke-width="4" fill="none" moovel_area="428.03" moovel_cumulative_area="153730.63" moovel_length="85.30" d="M452.5,239 L436,238.5 L423.5,239 L386,239 " />
<path id="69" stroke-linecap="round" stroke="#6566CC" stroke-width="4" fill="none" moovel_area="3110.25" moovel_cumulative_area="156840.88" moovel_length="78.60" d="M380.5,239 L319.5,239 " />
<path id="70" stroke-linecap="round" stroke="#6566CC" stroke-width="4" fill="none" moovel_area="1203.30" moovel_cumulative_area="158044.18" moovel_length="60.82" d="M313.5,239 L266,239 " />
<path id="71" stroke-linecap="round" stroke="#6566CC" stroke-width="4" fill="none" moovel_area="1432.90" moovel_cumulative_area="159477.08" moovel_length="446.07" d="M260.5,239 L227.5,238.5 L4.5,239 L3,239.5 L2.5,240.5 L2,241 L2,242 L1.5,242.5 L2,243.5 L2,244.5 L2.5,245 L2.5,245.5 L3.5,246.5 L4,247 L5.5,247.5 L75,247 L90,247 " />
<path id="72" stroke-linecap="round" stroke="#6566CC" stroke-width="4" fill="none" moovel_area="77.41" moovel_cumulative_area="159554.50" moovel_length="24.10" d="M95.5,247 L113.5,247 " />
<path id="73" stroke-linecap="round" stroke="#6566CC" stroke-width="4" fill="none" moovel_area="65.07" moovel_cumulative_area="159619.57" moovel_length="20.26" d="M119,247 L134.5,247 " />
<path id="75" stroke-linecap="round" stroke="#6566CC" stroke-width="4" fill="none" moovel_area="1387.35" moovel_cumulative_area="161006.91" moovel_length="276.49" d="M139.5,247 L327,247.5 L356.5,247 L357,247 " />
<path id="76" stroke-linecap="round" stroke="#6566CC" stroke-width="4" fill="none" moovel_area="214.84" moovel_cumulative_area="161221.76" moovel_length="66.88" d="M363,247 L415,247 " />
<path id="77" stroke-linecap="round" stroke="#6566CC" stroke-width="4" fill="none" moovel_area="93.63" moovel_cumulative_area="161315.38" moovel_length="29.15" d="M420.5,247 L442.5,247 " />
<path id="78" stroke-linecap="round" stroke="#6566CC" stroke-width="4" fill="none" moovel_area="90.62" moovel_cumulative_area="161406.01" moovel_length="18.06" d="M448,247.5 L460,247 L461.5,247 " />
<path id="79" stroke-linecap="round" stroke="#6566CC" stroke-width="4" fill="none" moovel_area="260.53" moovel_cumulative_area="161666.54" moovel_length="51.92" d="M467,247 L507.5,247 " />
<path id="80" stroke-linecap="round" stroke="#6566CC" stroke-width="4" fill="none" moovel_area="1220.46" moovel_cumulative_area="162886.99" moovel_length="243.23" d="M513,247 L513.5,247.5 L570.5,248 L571,248.5 L571.5,249 L572,249.5 L572.5,250 L572.5,251 L572.5,251.5 L572.5,252.5 L572,253 L571.5,253.5 L571,254 L570.5,254.5 L569.5,255 L445,255 " />
<path id="81" stroke-linecap="round" stroke="#6566CC" stroke-width="4" fill="none" moovel_area="53.67" moovel_cumulative_area="162940.66" moovel_length="10.70" d="M440,255.5 L432,255.5 " />
<path id="82" stroke-linecap="round" stroke="#6566CC" stroke-width="4" fill="none" moovel_area="1927.34" moovel_cumulative_area="164868.00" moovel_length="384.10" d="M426.5,255.5 L234.5,255 L144.5,255.5 L124,255.5 " />
<path id="83" stroke-linecap="round" stroke="#6566CC" stroke-width="4" fill="none" moovel_area="1695.59" moovel_cumulative_area="166563.59" moovel_length="337.92" d="M118.5,255.5 L5,256 L4,256.5 L3,257 L2.5,257.5 L2.5,258.5 L2.5,259 L2.5,259.5 L2.5,260 L2.5,261 L3,261.5 L3.5,262 L4,262.5 L4.5,263 L146,263.5 L146.5,263.5 " />
<path id="84" stroke-linecap="round" stroke="#6566CC" stroke-width="4" fill="none" moovel_area="372.38" moovel_cumulative_area="166935.97" moovel_length="74.21" d="M152,263.5 L163,264 L195.5,263.5 L210,263.5 " />
<path id="85" stroke-linecap="round" stroke="#6566CC" stroke-width="4" fill="none" moovel_area="210.44" moovel_cumulative_area="167146.41" moovel_length="41.94" d="M215,263.5 L247.5,263.5 " />
<path id="86" stroke-linecap="round" stroke="#6566CC" stroke-width="4" fill="none" moovel_area="17199.03" moovel_cumulative_area="184345.44" moovel_length="3427.62" d="M253,263.5 L269.5,263 L440.5,262.5 L569.5,263 L570,263.5 L570.5,264 L571,264.5 L571.5,265 L571.5,266 L571.5,267 L571.5,268 L571.5,268.5 L571,269.5 L571,270 L570.5,271 L570,271.5 L568.5,272 L413,272.5 L234,273 L55,273.5 L4.5,274 L3.5,274.5 L3.5,275 L3,275.5 L3,276.5 L3,277 L3,277.5 L3.5,278 L3.5,278.5 L4,279 L5,279.5 L150,279 L349.5,278.5 L540.5,278 L569,278.5 L569.5,279 L570,279.5 L570.5,280 L571,281 L571,282 L571,283 L571,284 L571,285 L571,286 L570.5,286.5 L570,287.5 L569.5,288 L569,288.5 L535.5,289 L332,289.5 L127.5,290 L5,290.5 L4,291 L3.5,291.5 L3.5,292 L3,292.5 L3,293 L3,293.5 L3.5,294 L3.5,294.5 L4,295 L4.5,295.5 L5,296 L138.5,295.5 L309,295 L471,294.5 L570,295 L570.5,295.5 L571,296 L571.5,297 L571.5,297.5 L572,298.5 L572,299 L572,300 L571.5,301 L571,301.5 L571,302.5 L570.5,303 L569,303.5 L536,304 L500,303.5 L499.5,303.5 " />
<path id="87" stroke-linecap="round" stroke="#6566CC" stroke-width="4" fill="none" moovel_area="2156.89" moovel_cumulative_area="186502.33" moovel_length="429.85" d="M494,304.5 L489.5,304 L277.5,303.5 L155.5,303.5 " />
<path id="88" stroke-linecap="round" stroke="#6566CC" stroke-width="4" fill="none" moovel_area="3048.20" moovel_cumulative_area="189550.54" moovel_length="607.48" d="M150,304.5 L145.5,304 L4,304.5 L3.5,305 L3,305.5 L2.5,306 L2,307 L2,307.5 L2,308.5 L2,309.5 L2,310 L2.5,311 L3,311.5 L3.5,312 L4.5,312.5 L40.5,313 L136,313.5 L249,314 L328,314 " />
<path id="89" stroke-linecap="round" stroke="#6566CC" stroke-width="4" fill="none" moovel_area="3324.63" moovel_cumulative_area="192875.17" moovel_length="662.57" d="M333.5,312.5 L384.5,312 L442,312.5 L570,313 L571,313.5 L571.5,314 L572,314.5 L572.5,315 L572.5,315.5 L572.5,316.5 L572.5,317 L572.5,317.5 L572,318.5 L571.5,319 L571,319.5 L570,320 L567,320.5 L547,321 L293.5,321 " />
<path id="95" stroke-linecap="round" stroke="#6566CC" stroke-width="4" fill="none" moovel_name="Dr. Paul Dudley White Path" moovel_area="54365.65" moovel_cumulative_area="247240.82" moovel_length="14374.29" d="M287.5,320.5 L200.5,320 L114,319.5 L30.5,319 L4.5,319.5 L3.5,320 L3,320.5 L2.5,321 L2,322 L1.5,322.5 L1.5,323.5 L1.5,324.5 L1.5,325.5 L2,326 L2.5,327 L3,327.5 L4,328 L5,328.5 L51.5,329 L144.5,329.5 L237,330 L329,330.5 L421.5,331 L513.5,331.5 L570,332 L571.5,332.5 L572,333 L572.5,333.5 L573,334 L573,334.5 L573,335 L573,336 L572.5,336.5 L572,337 L571.5,337.5 L570,338 L497,337.5 L410.5,337 L323.5,336.5 L236.5,336 L149,335.5 L62.5,335 L3.5,335.5 L3,336 L2,337 L1.5,337.5 L1.5,338.5 L1,339.5 L1,340.5 L1.5,341.5 L1.5,342 L2,343 L3,343.5 L3.5,344 L4.5,344.5 L13.5,345 L86.5,345.5 L160.5,346 L234,346.5 L307.5,347 L380.5,347.5 L455,348 L525.5,348.5 L570.5,349 L571,349.5 L572,350 L572.5,350.5 L572.5,351 L573,351.5 L573,352 L572.5,353 L572.5,353.5 L572,354 L571.5,354.5 L570.5,355 L500.5,354.5 L432.5,354 L364,353.5 L297,353 L228,352.5 L158.5,352 L89.5,351.5 L21.5,351 L4,351.5 L3.5,352 L2.5,352.5 L2,353 L1.5,354 L1.5,355 L1,355.5 L1,356.5 L1.5,357.5 L2,358.5 L2.5,359 L3,359.5 L3.5,360 L4.5,360.5 L16.5,361 L75,361.5 L133,362 L191,362.5 L250,363 L309.5,363.5 L367.5,364 L426,364.5 L486,365 L539.5,365.5 L569.5,366 L571,366.5 L571.5,367 L572,367.5 L572,368 L572.5,369 L572.5,369.5 L572,370 L572,371 L571.5,371.5 L571,372 L570,372.5 L568.5,373 L539.5,372.5 L516.5,373 L487,372.5 L435,372 L400.5,371.5 L387,371 L331.5,370.5 L316.5,371 L311,370.5 L281,370 L195,369.5 L131.5,369 L64,368.5 L4,369 L3.5,369.5 L3,370 L2.5,370.5 L2.5,371 L2,371.5 L2,372.5 L2.5,373 L2.5,373.5 L3,374 L3.5,374.5 L4,375 L4.5,375.5 L53,376 L132.5,376.5 L210,377 L288,377.5 L365,378 L443,378.5 L520,379 L568.5,379.5 L570,380 L570.5,380.5 L570.5,381.5 L571,382 L571,383 L571,384 L571,385 L571,386 L570.5,386.5 L570,387.5 L569.5,388 L569,388.5 L568,389 L556.5,388.5 L479.5,388 L401.5,387.5 L324.5,387 L251,386.5 L175.5,386 L100,385.5 L25,385 L4.5,385.5 L3.5,386 L3,386.5 L2.5,387 L2.5,388 L2.5,388.5 L2.5,389 L3,389.5 L3,390 L3.5,390.5 L4.5,391 L5.5,391.5 L74,392 L147.5,392.5 L221,393 L294,393.5 L367,394 L439,394.5 L510.5,395 L568.5,395.5 L569.5,396 L570,396.5 L570.5,397 L570.5,398 L571,398.5 L571,399.5 L571,400.5 L571,401 L570.5,402 L570.5,402.5 L570,403.5 L570,404 L569.5,404.5 L568.5,405 L530,404.5 L462,404 L394,403.5 L325.5,403 L257.5,402.5 L192.5,402 L128,401.5 L64,401 L3.5,401.5 L3,402 L2.5,402.5 L2,403 L2,404 L2,404.5 L2,405 L2.5,406 L3,406.5 L3.5,407 L4.5,407.5 L18.5,408 L81,408.5 L144.5,409 L207,409.5 L226.5,410 L285,410.5 L352.5,411 L422.5,411.5 L492.5,412 L561,412.5 L570,413 L571.5,413.5 L572,414 L572,415 L572.5,415.5 L572.5,416 L572,416.5 L572,417 L571.5,418 L570,418.5 L569,419 L539.5,418.5 L472,418 L403.5,417.5 L335.5,417 L267,416.5 L199.5,416 L131,415.5 L63,415 L2.5,415.5 L2,416.5 L1,417 L0.5,418 L0.5,419 L0.5,420 L0.5,421 L0.5,421.5 L1,422.5 L1.5,423.5 L2.5,424 L3,424.5 L4,425 L37.5,425.5 L102,426 L167,426.5 L233,427 L297,427.5 L360,428 L424,428.5 L487.5,429 L550.5,429.5 L570,430 L571.5,430.5 L572,431 L572.5,431.5 L572.5,432 L572.5,432.5 L572.5,433 L572,433.5 L571.5,434 L571,434.5 L570.5,435 L568.5,435.5 L537,435 L473.5,434.5 L409.5,434 L346,433.5 L282.5,433 L219,432.5 L155,432 L91.5,431.5 L28,431 L3,431.5 L2.5,432 L1.5,432.5 L1,433.5 L0.5,434 L0.5,435 L0,436 L0,437 L0.5,438 L1,439 L1.5,439.5 L2.5,440.5 L3,441 L5,441.5 L66.5,442 L138,442.5 L209,443 L281.5,443.5 L352.5,444 L424.5,444.5 L496,445 L567.5,445.5 L571,446 L571.5,446.5 L572,447 L572,447.5 L572.5,448 L572.5,448.5 L572.5,449 L572,449.5 L571.5,450 L571,450.5 L570,451 L568.5,451.5 L544.5,451 L469,450.5 L394,450 L319,449.5 L246,449 L173,448.5 L99,448 L26,447.5 L3.5,448 L2,448.5 L1.5,449 L1,450 L0.5,451 L0,451.5 L0,452.5 L0,453.5 L0.5,454.5 L1,455.5 L1.5,456 L2,456.5 L3,457 L3.5,457.5 L15,458 L96.5,458.5 L178.5,459 L260,459.5 L342.5,460 L424,460.5 L506,461 L569,461.5 L570.5,462 L571,462.5 L571.5,463 L572,463.5 L572,464 L572,464.5 L572,465 L572,465.5 L571.5,466 L571,466.5 L570.5,467 L569,467.5 L502.5,467 L413,466.5 L323.5,466 L230.5,465.5 L135,465 L71,465.5 L49,465 L3.5,465.5 L2.5,466 L2,466.5 L1.5,467.5 L1.5,468 L1.5,468.5 L1.5,469.5 L1.5,470 L2,470.5 L2.5,471 L3,471.5 L3.5,472 L4.5,472.5 L75,473 L145,473.5 L212,474 L279,474.5 L346,475 L412,475.5 L479,476 L539,476.5 L568.5,477 L569.5,477.5 L570,478.5 L570.5,479 L570.5,480 L570.5,481 L570.5,481.5 L570.5,482.5 L570,483.5 L570,484 L569.5,484.5 L569,485 L568,485.5 L525.5,485 L488.5,484.5 L456,484 L440,484 " />
<path id="96" stroke-linecap="round" stroke="#6566CC" stroke-width="4" fill="none" moovel_area="127.71" moovel_cumulative_area="247368.54" moovel_length="25.45" d="M435.5,484 L416.5,484 " />
<path id="97" stroke-linecap="round" stroke="#6566CC" stroke-width="4" fill="none" moovel_area="11348.53" moovel_cumulative_area="258717.06" moovel_length="286.81" d="M411,484 L372,483.5 L187,484 L185.5,484 " />
<path id="98" stroke-linecap="round" stroke="#6566CC" stroke-width="4" fill="none" moovel_area="1670.04" moovel_cumulative_area="260387.10" moovel_length="42.21" d="M180,484 L147.5,484 " />
<path id="99" stroke-linecap="round" stroke="#6566CC" stroke-width="4" fill="none" moovel_area="4520.19" moovel_cumulative_area="264907.29" moovel_length="114.24" d="M142,484 L141.5,484.5 L52.5,484 " />
<path id="101" stroke-linecap="round" stroke="#6566CC" stroke-width="4" fill="none" moovel_area="2341.18" moovel_cumulative_area="267248.48" moovel_length="59.17" d="M47.5,484 L46.5,484.5 L4,485 L3.5,485.5 L3,486 L2.5,486.5 " />
<path id="102" stroke-linecap="round" stroke="#6566CC" stroke-width="4" fill="none" moovel_area="337.12" moovel_cumulative_area="267585.60" moovel_length="104.95" d="M3.5,491.5 L4,492 L5.5,492.5 L85.5,492.5 " />
<path id="104" stroke-linecap="round" stroke="#6566CC" stroke-width="4" fill="none" moovel_area="1820.84" moovel_cumulative_area="269406.44" moovel_length="46.02" d="M91,492.5 L126.5,492.5 " />
<path id="105" stroke-linecap="round" stroke="#6566CC" stroke-width="4" fill="none" moovel_area="1207.83" moovel_cumulative_area="270614.27" moovel_length="30.53" d="M132,492.5 L155,492.5 " />
<path id="106" stroke-linecap="round" stroke="#6566CC" stroke-width="4" fill="none" moovel_area="2316.02" moovel_cumulative_area="272930.29" moovel_length="58.53" d="M161,492.5 L162.5,492 L206.5,492.5 " />
<path id="107" stroke-linecap="round" stroke="#6566CC" stroke-width="4" fill="none" moovel_area="1359.32" moovel_cumulative_area="274289.61" moovel_length="34.35" d="M212.5,492.5 L238.5,492.5 " />
<path id="108" stroke-linecap="round" stroke="#6566CC" stroke-width="4" fill="none" moovel_area="8094.26" moovel_cumulative_area="282383.86" moovel_length="204.56" d="M244,492.5 L306,492 L341,492.5 L404.5,492.5 " />
<path id="109" stroke-linecap="round" stroke="#6566CC" stroke-width="4" fill="none" moovel_area="6275.42" moovel_cumulative_area="288659.29" moovel_length="158.60" d="M410.5,492.5 L412.5,492 L535,492 " />
<path id="110" stroke-linecap="round" stroke="#6566CC" stroke-width="4" fill="none" moovel_name="Pierre Lallement Bike Path" moovel_area="18527.13" moovel_cumulative_area="307186.41" moovel_length="5428.28" d="M540.5,492.5 L541,492 L570,492.5 L570.5,493 L571,493.5 L571.5,494 L571.5,495 L572,495.5 L572,496.5 L572,497 L571.5,498 L571.5,498.5 L571,499.5 L570.5,500 L570,500.5 L569,501 L241.5,501.5 L4.5,502 L4,502.5 L3,503.5 L2.5,504 L2.5,504.5 L2.5,505 L2.5,506 L3,506.5 L3,507 L3.5,507.5 L4,508 L4.5,508.5 L569.5,509 L570,509.5 L570.5,510 L571,510.5 L571.5,511.5 L571.5,512 L572,513 L571.5,514 L571.5,515 L571.5,515.5 L571,516.5 L570.5,517 L570,517.5 L568.5,518 L5,518.5 L3.5,519 L3.5,519.5 L3,520 L2.5,520.5 L2.5,521.5 L2.5,522 L3,522.5 L3,523.5 L3.5,524 L4,524.5 L5,525 L570,525.5 L571,526.5 L571,527 L571.5,528 L571.5,528.5 L571.5,529.5 L571.5,530.5 L571.5,531 L571,532 L571,532.5 L570.5,533 L569.5,533.5 L569,534 L288,534.5 L4.5,535 L3.5,535.5 L3,536.5 L3,537 L2.5,537.5 L2.5,538 L2.5,539 L3,539.5 L3.5,540 L4,540.5 L4.5,541 L5.5,541.5 L569.5,542 L570.5,542.5 L571,543 L571,543.5 L571.5,544.5 L571.5,545.5 L572,546 L571.5,547 L571.5,548 L571,548.5 L571,549 L570.5,550 L570,550.5 L268,550 L4.5,550.5 L3,551 L2.5,551.5 L2,552.5 L2,553 L1.5,554 L1.5,555 L2,556 L2,556.5 L2.5,557.5 L3,558 L4,558.5 L5.5,559 L138,559.5 L163.5,559 L225,559 " />
<path id="111" stroke-linecap="round" stroke="#6566CC" stroke-width="4" fill="none" moovel_area="302.24" moovel_cumulative_area="307488.65" moovel_length="60.23" d="M230.5,557.5 L277.5,557.5 " />
<path id="114" stroke-linecap="round" stroke="#6566CC" stroke-width="4" fill="none" moovel_area="145.45" moovel_cumulative_area="307634.10" moovel_length="28.99" d="M282.5,557.5 L284,558 L303,557.5 L304.5,557.5 " />
<path id="115" stroke-linecap="round" stroke="#6566CC" stroke-width="4" fill="none" moovel_name="Crosswalk" moovel_area="2639.61" moovel_cumulative_area="310273.71" moovel_length="90.74" d="M310,557.5 L313.5,558 L381,557.5 " />
<path id="116" stroke-linecap="round" stroke="#6566CC" stroke-width="4" fill="none" moovel_area="1729.00" moovel_cumulative_area="312002.71" moovel_length="43.70" d="M386.5,557.5 L420.5,557.5 " />
<path id="117" stroke-linecap="round" stroke="#6566CC" stroke-width="4" fill="none" moovel_name="Arthur Fiedler Footbridge" moovel_area="4502.51" moovel_cumulative_area="316505.22" moovel_length="113.79" d="M426,557.5 L515,557.5 " />
<path id="121" stroke-linecap="round" stroke="#6566CC" stroke-width="4" fill="none" moovel_area="15658.98" moovel_cumulative_area="332164.21" moovel_length="3120.71" d="M521,558 L569.5,558.5 L571,559 L572,559.5 L572.5,560.5 L572.5,561 L573,561.5 L572.5,562 L572.5,562.5 L572.5,563.5 L572,564 L571.5,564.5 L570,565 L568.5,565.5 L545.5,565 L217.5,564.5 L4,565 L3,565.5 L2.5,566 L2,567 L1.5,567.5 L1,568.5 L1,569.5 L1,570 L1.5,571 L1.5,572 L2,572.5 L2.5,573 L3.5,573.5 L4,574 L6,574.5 L215.5,575 L486,575.5 L571,576 L572,576.5 L572.5,577 L573,577.5 L573.5,578 L573.5,578.5 L573,579 L573,579.5 L572.5,580 L572,580.5 L571,581 L569.5,581.5 L450,581 L107.5,580.5 L4.5,581 L3,581.5 L2.5,582.5 L1.5,583 L1.5,584 L1,585 L1,586 L1,587 L1.5,588 L2,588.5 L2.5,589.5 L3,590 L4,590.5 L6,591 L404,591.5 L570.5,592 L571.5,592.5 L572,593 L572.5,593.5 L572.5,594 L573,594.5 L573,595.5 L572.5,596 L572,596.5 L571.5,597 L571,597.5 L570.5,598 L569.5,598.5 L465.5,599 " />
<path id="122" stroke-linecap="round" stroke="#6566CC" stroke-width="4" fill="none" moovel_area="4920.37" moovel_cumulative_area="337084.57" moovel_length="980.59" d="M460,598.5 L436,599 L210.5,599.5 L4.5,600 L3.5,600.5 L3,601 L2.5,602 L2.5,602.5 L2,603 L2.5,604 L2.5,604.5 L2.5,605 L3,606 L3.5,606.5 L5,607 L87,606.5 L211.5,606 L312.5,606 " />
<path id="123" stroke-linecap="round" stroke="#6566CC" stroke-width="4" fill="none" moovel_area="286.02" moovel_cumulative_area="337370.60" moovel_length="57.00" d="M318,607 L362.5,607 " />
<path id="124" stroke-linecap="round" stroke="#6566CC" stroke-width="4" fill="none" moovel_area="2244.57" moovel_cumulative_area="339615.17" moovel_length="447.32" d="M368,607 L472,607.5 L570.5,608 L571,608.5 L572,609 L572.5,610 L572.5,610.5 L573,611 L572.5,611.5 L572.5,612 L572,613 L571.5,613.5 L571,614 L569.5,614.5 L429,614.5 " />
<path id="125" stroke-linecap="round" stroke="#6566CC" stroke-width="4" fill="none" moovel_area="943.09" moovel_cumulative_area="340558.26" moovel_length="187.95" d="M424,615 L276,615 " />
<path id="126" stroke-linecap="round" stroke="#6566CC" stroke-width="4" fill="none" moovel_area="2831.47" moovel_cumulative_area="343389.73" moovel_length="564.29" d="M270.5,615 L269,614.5 L144,615 L108.5,614.5 L40.5,614 L4.5,614.5 L3,615 L2.5,615.5 L2,616.5 L2,617 L1.5,618 L1.5,619 L2,619.5 L2,620.5 L2.5,621 L3,621.5 L4,622.5 L5.5,623 L143,623.5 L173,623 " />
<path id="127" stroke-linecap="round" stroke="#6566CC" stroke-width="4" fill="none" moovel_area="503.86" moovel_cumulative_area="343893.59" moovel_length="100.41" d="M178.5,623 L257,623 " />
<path id="128" stroke-linecap="round" stroke="#6566CC" stroke-width="4" fill="none" moovel_name="Boston HarborWalk" moovel_area="16266.13" moovel_cumulative_area="360159.72" moovel_length="3241.71" d="M262,623 L285,623.5 L454.5,624 L534.5,624.5 L570.5,625 L571.5,625.5 L572,626 L572.5,626.5 L572.5,627 L573,628 L573,628.5 L572.5,629 L572.5,629.5 L571.5,630 L571,630.5 L570.5,631 L569.5,631.5 L535.5,631 L454,630.5 L372,630 L290,629.5 L208.5,629 L126,628.5 L44.5,628 L4,628.5 L3,629 L2.5,629.5 L2,630.5 L1.5,631 L1,632 L1,633 L1,634 L1.5,635 L2,635.5 L2.5,636.5 L3.5,637 L4,637.5 L5,638 L57,638.5 L132.5,639 L206.5,639.5 L276.5,640 L346,640.5 L416,641 L486,641.5 L560.5,642 L570.5,642.5 L571.5,643 L572,643.5 L572.5,644 L572.5,644.5 L573,645 L572.5,646 L572.5,646.5 L572,647 L571.5,647.5 L571,648 L570,648.5 L508,648 L430,647.5 L405.5,648 L333.5,647.5 L242.5,647 L155.5,646.5 L78.5,646 L4,646.5 L3.5,647 L3,647.5 L2.5,648 L2.5,648.5 L2.5,649.5 L2.5,650 L3,650.5 L3,651 L3.5,651.5 L4,652 L5,652.5 L45,653 L121,653.5 L196,654 L271.5,654.5 L348,655 L425.5,655.5 L502,656 L520,656 " />
<path id="129" stroke-linecap="round" stroke="#6566CC" stroke-width="4" fill="none" moovel_name="Miller's River Littoral Way" moovel_area="1849.89" moovel_cumulative_area="362009.61" moovel_length="368.67" d="M526,656 L569.5,656.5 L571,657 L571.5,657.5 L572,658 L572.5,659 L572.5,659.5 L572.5,660 L572.5,661 L572,661.5 L571.5,662 L571,662.5 L570.5,663 L570,663.5 L333,663.5 " />
<path id="130" stroke-linecap="round" stroke="#6566CC" stroke-width="4" fill="none" moovel_area="550.80" moovel_cumulative_area="362560.41" moovel_length="109.77" d="M327.5,664 L241.5,664 " />
<path id="131" stroke-linecap="round" stroke="#6566CC" stroke-width="4" fill="none" moovel_area="41.73" moovel_cumulative_area="362602.14" moovel_length="12.99" d="M236,664 L226.5,664 " />
<path id="132" stroke-linecap="round" stroke="#6566CC" stroke-width="4" fill="none" moovel_area="641.17" moovel_cumulative_area="363243.31" moovel_length="127.78" d="M221,664 L120.5,664 " />
<path id="133" stroke-linecap="round" stroke="#6566CC" stroke-width="4" fill="none" moovel_area="195.33" moovel_cumulative_area="363438.63" moovel_length="38.93" d="M115,664 L85,664 " />
<path id="134" stroke-linecap="round" stroke="#6566CC" stroke-width="4" fill="none" moovel_area="62.73" moovel_cumulative_area="363501.36" moovel_length="12.50" d="M79.5,664 L70.5,664 " />
<path id="135" stroke-linecap="round" stroke="#6566CC" stroke-width="4" fill="none" moovel_area="208.37" moovel_cumulative_area="363709.73" moovel_length="41.53" d="M64.5,664 L32.5,664 " />
<path id="136" stroke-linecap="round" stroke="#6566CC" stroke-width="4" fill="none" moovel_area="641.06" moovel_cumulative_area="364350.80" moovel_length="127.76" d="M26.5,664 L4,664.5 L3.5,665 L3,665.5 L2.5,666.5 L2,667 L2,668 L2,668.5 L2,669.5 L2.5,670 L3,670.5 L3.5,671.5 L5,672 L73,672 " />
<path id="137" stroke-linecap="round" stroke="#6566CC" stroke-width="4" fill="none" moovel_area="2394.42" moovel_cumulative_area="366745.22" moovel_length="477.19" d="M78.5,672 L112.5,671.5 L454.5,672 " />
<path id="139" stroke-linecap="round" stroke="#6566CC" stroke-width="4" fill="none" moovel_area="265.27" moovel_cumulative_area="367010.50" moovel_length="52.87" d="M459.5,672 L500.5,672 " />
<path id="140" stroke-linecap="round" stroke="#6566CC" stroke-width="4" fill="none" moovel_area="88.15" moovel_cumulative_area="367098.65" moovel_length="17.57" d="M506,672 L519,672 " />
<path id="141" stroke-linecap="round" stroke="#6566CC" stroke-width="4" fill="none" moovel_area="244.15" moovel_cumulative_area="367342.79" moovel_length="48.66" d="M525,672 L562.5,672 " />
<path id="142" stroke-linecap="round" stroke="#6566CC" stroke-width="4" fill="none" moovel_area="109.83" moovel_cumulative_area="367452.62" moovel_length="21.89" d="M568.5,672 L569.5,672.5 L571,673 L571.5,673.5 L572,674 L572,674.5 L572,675 L572.5,675.5 L572.5,676 L572.5,676.5 L572,677.5 L572,678 L571.5,678.5 L571,679 L570.5,679.5 L570,680 L564.5,680.5 " />
<path id="143" stroke-linecap="round" stroke="#6566CC" stroke-width="4" fill="none" moovel_area="5063.02" moovel_cumulative_area="372515.63" moovel_length="1009.02" d="M559,680.5 L509.5,681 L372,681.5 L218.5,682 L13,682.5 L4.5,683 L3.5,683.5 L3,684 L3,684.5 L3,685.5 L3,686 L3,686.5 L3,687 L3.5,687.5 L4,688 L4.5,688.5 L5,689 L115,688.5 L229,689 L230,689 " />
<path id="148" stroke-linecap="round" stroke="#6566CC" stroke-width="4" fill="none" moovel_area="4526.06" moovel_cumulative_area="377041.70" moovel_length="902.01" d="M235,688.5 L257.5,688 L375.5,687.5 L533.5,687 L569,687.5 L570.5,688 L571,688.5 L571.5,689 L571.5,690 L572,690.5 L572,691.5 L572,692.5 L571.5,693 L571.5,694 L571,694.5 L570.5,695 L570,695.5 L569.5,696 L508,696.5 L417.5,697 L307.5,697.5 L203,697.5 " />
<path id="149" stroke-linecap="round" stroke="#6566CC" stroke-width="4" fill="none" moovel_area="9644.05" moovel_cumulative_area="386685.75" moovel_length="1921.98" d="M197.5,696.5 L71,696 L5,696.5 L3.5,697 L3,697.5 L2.5,698.5 L2,699 L2,700 L2,700.5 L2,701.5 L2,702 L2.5,703 L3,703.5 L3.5,704 L4.5,704.5 L6,705 L9,704.5 L92,704 L291,703.5 L537,703 L569.5,703.5 L570,704 L570.5,704.5 L571,705 L571.5,706 L571.5,707 L571.5,707.5 L571.5,708.5 L571.5,709.5 L571,710.5 L571,711 L570.5,711.5 L570,712 L569,712.5 L568.5,713 L251,713.5 L5,714 L4,714.5 L3.5,715 L3,715.5 L2.5,716 L2.5,716.5 L2.5,717.5 L2.5,718 L3,718.5 L3,719 L3.5,719.5 L4,720 L4.5,720.5 L6.5,721 L18.5,720.5 L167,721 L168.5,721 " />
<path id="150" stroke-linecap="round" stroke="#6566CC" stroke-width="4" fill="none" moovel_area="1325.43" moovel_cumulative_area="388011.18" moovel_length="264.15" d="M174,721 L197,721.5 L271,721 L382,721 " />
<path id="151" stroke-linecap="round" stroke="#6566CC" stroke-width="4" fill="none" moovel_area="575.11" moovel_cumulative_area="388586.29" moovel_length="114.61" d="M387,721 L477,721 " />
<path id="152" stroke-linecap="round" stroke="#6566CC" stroke-width="4" fill="none" moovel_area="1483.28" moovel_cumulative_area="390069.57" moovel_length="295.61" d="M482.5,721 L570.5,721.5 L571,722 L571.5,723 L571.5,723.5 L572,724.5 L572,725 L572,726 L571.5,726.5 L571.5,727.5 L571,728 L570.5,728.5 L570,729 L569.5,729.5 L434,729.5 " />
<path id="154" stroke-linecap="round" stroke="#6566CC" stroke-width="4" fill="none" moovel_area="686.39" moovel_cumulative_area="390755.96" moovel_length="213.68" d="M428.5,729.5 L388.5,729 L382,729.5 L348,729 L260.5,729 " />
<path id="155" stroke-linecap="round" stroke="#6566CC" stroke-width="4" fill="none" moovel_area="193.78" moovel_cumulative_area="390949.75" moovel_length="38.62" d="M255,729 L225,729.5 " />
<path id="156" stroke-linecap="round" stroke="#6566CC" stroke-width="4" fill="none" moovel_area="73.51" moovel_cumulative_area="391023.26" moovel_length="14.65" d="M219.5,729.5 L208.5,729.5 " />
<path id="157" stroke-linecap="round" stroke="#6566CC" stroke-width="4" fill="none" moovel_area="110.07" moovel_cumulative_area="391133.33" moovel_length="21.94" d="M202.5,729.5 L186,729.5 " />
<path id="158" stroke-linecap="round" stroke="#6566CC" stroke-width="4" fill="none" moovel_area="1286.78" moovel_cumulative_area="392420.11" moovel_length="256.44" d="M180.5,729.5 L178.5,729 L5.5,729.5 L4,730 L3.5,730.5 L3,731 L2.5,731.5 L2.5,732 L2,733 L2,733.5 L2.5,734.5 L2.5,735 L3,735.5 L3.5,736 L4,736.5 L4.5,737 L19,737.5 L20.5,737.5 " />
<path id="159" stroke-linecap="round" stroke="#6566CC" stroke-width="4" fill="none" moovel_area="44.87" moovel_cumulative_area="392464.98" moovel_length="8.94" d="M26.5,737.5 L32.5,737.5 " />
<path id="160" stroke-linecap="round" stroke="#6566CC" stroke-width="4" fill="none" moovel_area="69.34" moovel_cumulative_area="392534.33" moovel_length="13.82" d="M38,737.5 L48.5,737.5 " />
<path id="161" stroke-linecap="round" stroke="#6566CC" stroke-width="4" fill="none" moovel_area="1534.42" moovel_cumulative_area="394068.74" moovel_length="305.80" d="M54,737.5 L68,737 L294,737.5 L294.5,737.5 " />
<path id="162" stroke-linecap="round" stroke="#6566CC" stroke-width="4" fill="none" moovel_area="223.16" moovel_cumulative_area="394291.91" moovel_length="44.47" d="M300,737.5 L334.5,737.5 " />
<path id="163" stroke-linecap="round" stroke="#6566CC" stroke-width="4" fill="none" moovel_area="8733.47" moovel_cumulative_area="403025.38" moovel_length="1740.51" d="M339.5,737.5 L348,737 L454.5,736.5 L563,736 L568.5,736.5 L569.5,737 L570.5,738 L571,738.5 L571.5,739.5 L571.5,740 L571.5,741 L571.5,742 L571.5,742.5 L571,743.5 L570.5,744 L570.5,745 L570,745.5 L568.5,746 L499.5,746.5 L393.5,747 L287.5,747.5 L176.5,748 L66,748.5 L4.5,749 L4,749.5 L3.5,750 L3,750.5 L3,751 L3,751.5 L3,752 L3,753 L3.5,753.5 L3.5,754 L4,754.5 L5,755 L71,754.5 L214,754 L352.5,753.5 L511.5,753 L563,753.5 " />
<path id="164" stroke-linecap="round" stroke="#6566CC" stroke-width="4" fill="none" moovel_area="3115.13" moovel_cumulative_area="406140.51" moovel_length="620.82" d="M568,754 L570.5,754.5 L571,755 L571.5,755.5 L571.5,756 L572,756.5 L572,757.5 L572,758.5 L572,759 L571.5,760 L571.5,760.5 L571,761 L570.5,761.5 L570,762 L498.5,761.5 L322,762 L232.5,761.5 L92,761.5 " />
<path id="165" stroke-linecap="round" stroke="#6566CC" stroke-width="4" fill="none" moovel_area="5935.36" moovel_cumulative_area="412075.86" moovel_length="1182.87" d="M86.5,762 L75.5,762.5 L4.5,763 L3.5,763.5 L3,764 L3,764.5 L2.5,765.5 L2.5,766 L2.5,766.5 L3,767 L3,768 L3.5,768.5 L4,769 L5,769.5 L127.5,769 L303.5,768.5 L548.5,768 L569,768.5 L570,769 L570.5,770 L571,770.5 L571.5,771.5 L571.5,772.5 L571.5,773 L571.5,774 L571.5,775 L571,776 L570.5,776.5 L570,777 L569.5,777.5 L569,778 L372,778.5 L326.5,778 L312,778 " />
<path id="166" stroke-linecap="round" stroke="#6566CC" stroke-width="4" fill="none" moovel_area="6847.61" moovel_cumulative_area="418923.47" moovel_length="1364.67" d="M306.5,778.5 L229,779 L79.5,779.5 L4,780 L3.5,780.5 L3,781 L3,781.5 L2.5,782 L2.5,783 L2.5,783.5 L2.5,784 L3,784.5 L3.5,785 L4,785.5 L4.5,786 L5,786.5 L124.5,786 L268,786.5 L333.5,787 L379,786.5 L570,787 L571.5,787.5 L572,788 L572.5,788.5 L573,789 L573,790 L573,790.5 L572.5,791 L572,791.5 L571.5,792 L571,792.5 L570.5,793 L569.5,793.5 L423.5,794 L402.5,794 " />
<path id="167" stroke-linecap="round" stroke="#6566CC" stroke-width="4" fill="none" moovel_area="4456.53" moovel_cumulative_area="423380.01" moovel_length="888.15" d="M397,795 L306.5,795.5 L167,796 L5.5,796.5 L4,797 L3.5,797.5 L3,798 L3,798.5 L2.5,799 L2.5,800 L3,800.5 L3,801 L3.5,801.5 L3.5,802 L4,802.5 L5,803 L122.5,802.5 L256,802 L303,802 " />
<path id="168" stroke-linecap="round" stroke="#6566CC" stroke-width="4" fill="none" moovel_area="706.12" moovel_cumulative_area="424086.13" moovel_length="140.72" d="M308,803 L378.5,802.5 L417.5,803 L418.5,803 " />
<path id="169" stroke-linecap="round" stroke="#6566CC" stroke-width="4" fill="none" moovel_area="36.79" moovel_cumulative_area="424122.92" moovel_length="7.33" d="M424,803 L429,803 " />
<path id="170" stroke-linecap="round" stroke="#6566CC" stroke-width="4" fill="none" moovel_area="346.70" moovel_cumulative_area="424469.62" moovel_length="69.09" d="M434,803 L437.5,802.5 L486.5,803 " />
<path id="171" stroke-linecap="round" stroke="#6566CC" stroke-width="4" fill="none" moovel_area="1212.39" moovel_cumulative_area="425682.01" moovel_length="241.62" d="M492,803 L569.5,803.5 L571,804 L571.5,804.5 L572,805 L572.5,805.5 L572.5,806 L572.5,807 L572.5,807.5 L572.5,808.5 L572,809 L571.5,809.5 L571,810 L570,810.5 L478.5,811 L467.5,811 " />
<path id="172" stroke-linecap="round" stroke="#6566CC" stroke-width="4" fill="none" moovel_area="145.79" moovel_cumulative_area="425827.80" moovel_length="29.06" d="M461.5,811 L439.5,811 " />
<path id="173" stroke-linecap="round" stroke="#6566CC" stroke-width="4" fill="none" moovel_area="535.34" moovel_cumulative_area="426363.14" moovel_length="106.69" d="M434,811 L414.5,811.5 L356.5,811 L350.5,811 " />
<path id="174" stroke-linecap="round" stroke="#6566CC" stroke-width="4" fill="none" moovel_area="1470.10" moovel_cumulative_area="427833.24" moovel_length="292.98" d="M345,811 L341,811.5 L114.5,811.5 " />
<path id="175" stroke-linecap="round" stroke="#6566CC" stroke-width="4" fill="none" moovel_area="54.29" moovel_cumulative_area="427887.53" moovel_length="16.90" d="M109,811 L96.5,811 " />
<path id="178" stroke-linecap="round" stroke="#6566CC" stroke-width="4" fill="none" moovel_area="800.05" moovel_cumulative_area="428687.58" moovel_length="159.44" d="M91,811 L57.5,810.5 L5,811 L3.5,811.5 L3,812 L2.5,812.5 L2,813.5 L2,814 L1.5,815 L1.5,815.5 L2,816.5 L2.5,817.5 L2.5,818 L3.5,818.5 L4,819 L5,819.5 L33.5,819.5 " />
<path id="179" stroke-linecap="round" stroke="#6566CC" stroke-width="4" fill="none" moovel_name="Salem Street" moovel_area="3175.56" moovel_cumulative_area="431863.14" moovel_length="80.25" d="M38.5,819 L39.5,819.5 L49,819 L101.5,819 " />
<path id="182" stroke-linecap="round" stroke="#6566CC" stroke-width="4" fill="none" moovel_area="644.95" moovel_cumulative_area="432508.08" moovel_length="128.53" d="M106.5,819 L107.5,819.5 L169.5,819 L207.5,819 " />
<path id="183" stroke-linecap="round" stroke="#6566CC" stroke-width="4" fill="none" moovel_area="34.86" moovel_cumulative_area="432542.94" moovel_length="6.95" d="M213,819 L218,819 " />
<path id="184" stroke-linecap="round" stroke="#6566CC" stroke-width="4" fill="none" moovel_area="595.03" moovel_cumulative_area="433137.97" moovel_length="118.58" d="M223.5,819 L316,819 " />
<path id="185" stroke-linecap="round" stroke="#6566CC" stroke-width="4" fill="none" moovel_area="35.21" moovel_cumulative_area="433173.18" moovel_length="10.96" d="M322,819 L330,819 " />
<path id="186" stroke-linecap="round" stroke="#6566CC" stroke-width="4" fill="none" moovel_area="75.81" moovel_cumulative_area="433249.00" moovel_length="23.60" d="M335.5,819 L353.5,819 " />
<path id="187" stroke-linecap="round" stroke="#6566CC" stroke-width="4" fill="none" moovel_area="112.41" moovel_cumulative_area="433361.41" moovel_length="34.99" d="M359,819 L386,819 " />
<path id="188" stroke-linecap="round" stroke="#6566CC" stroke-width="4" fill="none" moovel_area="344.47" moovel_cumulative_area="433705.88" moovel_length="107.24" d="M391.5,819 L475.5,819 " />
<path id="190" stroke-linecap="round" stroke="#6566CC" stroke-width="4" fill="none" moovel_area="1055.02" moovel_cumulative_area="434760.89" moovel_length="210.26" d="M480.5,819 L570,819.5 L571,820.5 L571.5,821 L572,821.5 L572,822.5 L572,823 L572,824 L572,825 L571.5,825.5 L571,826 L570.5,826.5 L570,827 L569,827.5 L503.5,827.5 " />
<path id="191" stroke-linecap="round" stroke="#6566CC" stroke-width="4" fill="none" moovel_area="1038.35" moovel_cumulative_area="435799.25" moovel_length="206.94" d="M498,827.5 L335.5,827.5 " />
<path id="193" stroke-linecap="round" stroke="#6566CC" stroke-width="4" fill="none" moovel_area="339.60" moovel_cumulative_area="436138.84" moovel_length="67.68" d="M330,827.5 L277.5,827.5 " />
<path id="194" stroke-linecap="round" stroke="#6566CC" stroke-width="4" fill="none" moovel_area="1647.24" moovel_cumulative_area="437786.09" moovel_length="83.26" d="M271.5,827.5 L207,827.5 " />
<path id="196" stroke-linecap="round" stroke="#6566CC" stroke-width="4" fill="none" moovel_area="595.67" moovel_cumulative_area="438381.75" moovel_length="30.11" d="M201.5,827.5 L178.5,827.5 " />
<path id="197" stroke-linecap="round" stroke="#6566CC" stroke-width="4" fill="none" moovel_area="7480.49" moovel_cumulative_area="445862.24" moovel_length="378.10" d="M173,827.5 L129,827 L4.5,827.5 L3.5,828 L3,828.5 L2.5,829 L2,829.5 L2,830.5 L2,831.5 L2,832 L2,833 L2.5,833.5 L3,834.5 L3.5,835 L5,835.5 L73.5,836 L124,835.5 " />
<path id="200" stroke-linecap="round" stroke="#6566CC" stroke-width="4" fill="none" moovel_area="129.76" moovel_cumulative_area="445992.00" moovel_length="25.86" d="M129.5,835.5 L149,835.5 " />
<path id="202" stroke-linecap="round" stroke="#6566CC" stroke-width="4" fill="none" moovel_area="417.22" moovel_cumulative_area="446409.22" moovel_length="83.15" d="M154.5,835.5 L219.5,835.5 " />
<path id="203" stroke-linecap="round" stroke="#6566CC" stroke-width="4" fill="none" moovel_area="301.38" moovel_cumulative_area="446710.59" moovel_length="60.06" d="M224.5,835.5 L271.5,835.5 " />
<path id="205" stroke-linecap="round" stroke="#6566CC" stroke-width="4" fill="none" moovel_area="120.82" moovel_cumulative_area="446831.42" moovel_length="6.11" d="M276.5,835.5 L281,835.5 " />
<path id="206" stroke-linecap="round" stroke="#6566CC" stroke-width="4" fill="none" moovel_area="2987.40" moovel_cumulative_area="449818.81" moovel_length="75.50" d="M286.5,835.5 L302,835 L305,835.5 L345,835.5 " />
<path id="207" stroke-linecap="round" stroke="#6566CC" stroke-width="4" fill="none" moovel_name="South Bay Harbor Trail" moovel_area="62931.14" moovel_cumulative_area="512749.96" moovel_length="3180.88" d="M351,835.5 L360,835 L455.5,834.5 L557.5,834 L569,834.5 L570,835 L570.5,835.5 L571,836.5 L571.5,837.5 L571.5,838 L571.5,839 L571.5,840 L571.5,841 L571,841.5 L570.5,842.5 L570,843 L569.5,843.5 L568.5,844 L483,844.5 L384,845 L287,845.5 L195,846 L102.5,846.5 L10,847 L4.5,847.5 L4,848 L3.5,848.5 L3,849.5 L3,850 L3,850.5 L3.5,851 L3.5,851.5 L4,852 L5,852.5 L86.5,852 L181.5,851.5 L277.5,851 L376,850.5 L477,850 L569.5,850.5 L570,851 L570.5,852 L570.5,853 L571,854 L571,855 L571,856 L571,857 L570.5,858 L570.5,858.5 L570,859.5 L569.5,860 L569,860.5 L552,861 L453.5,861.5 L355,862 L246.5,862.5 L130.5,863 L15.5,863.5 L4.5,864 L4,864.5 L3.5,865 L3.5,865.5 L3.5,866 L3.5,866.5 L3.5,867 L3.5,867.5 L4,868 L4.5,868.5 L5,869 L80.5,868.5 L195,868 L310.5,867.5 L423,867 L540,866.5 L554.5,867 L561.5,867 " />
<path id="209" stroke-linecap="round" stroke="#6566CC" stroke-width="4" fill="none" moovel_area="8033.32" moovel_cumulative_area="520783.27" moovel_length="406.05" d="M567,868.5 L570.5,869 L571,869.5 L571.5,870 L572,871 L572.5,871.5 L572.5,872.5 L572.5,873 L572,874 L571.5,874.5 L571,875 L570.5,875.5 L570,876 L569,876.5 L506,876 L262.5,876 " />
<path id="210" stroke-linecap="round" stroke="#6566CC" stroke-width="4" fill="none" moovel_area="2825.89" moovel_cumulative_area="523609.16" moovel_length="142.84" d="M257.5,876.5 L145.5,876.5 " />
<path id="211" stroke-linecap="round" stroke="#6566CC" stroke-width="4" fill="none" moovel_name="Western Ave Bridge (cycle connection)" moovel_area="624.49" moovel_cumulative_area="524233.66" moovel_length="124.46" d="M139.5,876.5 L42,876.5 " />
<path id="212" stroke-linecap="round" stroke="#6566CC" stroke-width="4" fill="none" moovel_area="631.67" moovel_cumulative_area="524865.32" moovel_length="125.89" d="M37,876.5 L4,877 L3.5,877.5 L3,878 L2.5,878.5 L2,879.5 L2,880 L2,881 L2,881.5 L2.5,882.5 L3,883 L3.5,883.5 L4,884 L5,884.5 L60.5,884.5 " />
<path id="213" stroke-linecap="round" stroke="#6566CC" stroke-width="4" fill="none" moovel_area="615.21" moovel_cumulative_area="525480.54" moovel_length="122.61" d="M66.5,884.5 L162.5,884.5 " />
<path id="216" stroke-linecap="round" stroke="#6566CC" stroke-width="4" fill="none" moovel_area="19.15" moovel_cumulative_area="525499.68" moovel_length="5.96" d="M168,884.5 L172,884.5 " />
<path id="217" stroke-linecap="round" stroke="#6566CC" stroke-width="4" fill="none" moovel_area="11.44" moovel_cumulative_area="525511.12" moovel_length="3.56" d="M177.5,884.5 L179.5,884.5 " />
<path id="218" stroke-linecap="round" stroke="#6566CC" stroke-width="4" fill="none" moovel_area="2064.37" moovel_cumulative_area="527575.49" moovel_length="642.65" d="M185.5,884.5 L548,885 L570.5,885.5 L571.5,886 L572,886.5 L572.5,887 L572.5,888 L572.5,888.5 L572.5,889.5 L572,890 L572,890.5 L571.5,891.5 L570.5,892 L569,892.5 L511,893 L497,892.5 L457.5,892.5 " />
<path id="219" stroke-linecap="round" stroke="#6566CC" stroke-width="4" fill="none" moovel_area="158.64" moovel_cumulative_area="527734.13" moovel_length="31.62" d="M451.5,892.5 L427.5,892.5 " />
<path id="220" stroke-linecap="round" stroke="#6566CC" stroke-width="4" fill="none" moovel_area="1180.44" moovel_cumulative_area="528914.56" moovel_length="235.25" d="M421.5,892.5 L391.5,893 L286,892.5 L252.5,893 L238.5,892.5 L236.5,892.5 " />
<path id="221" stroke-linecap="round" stroke="#6566CC" stroke-width="4" fill="none" moovel_area="3280.76" moovel_cumulative_area="532195.32" moovel_length="653.83" d="M231.5,892.5 L218,893 L3.5,893.5 L3,894 L2.5,894.5 L2,895.5 L2,896 L2,897 L2,898 L2,898.5 L2.5,899.5 L3,900 L3.5,900.5 L4.5,901 L6,901.5 L121,901 L283,901 " />
<path id="222" stroke-linecap="round" stroke="#6566CC" stroke-width="4" fill="none" moovel_area="1267.76" moovel_cumulative_area="533463.08" moovel_length="252.65" d="M288.5,901 L293,900.5 L487.5,901 " />
<path id="223" stroke-linecap="round" stroke="#6566CC" stroke-width="4" fill="none" moovel_area="373.05" moovel_cumulative_area="533836.13" moovel_length="74.35" d="M493,901 L505,900.5 L537.5,901 L551,901 " />
<path id="226" stroke-linecap="round" stroke="#6566CC" stroke-width="4" fill="none" moovel_area="3713.88" moovel_cumulative_area="537550.02" moovel_length="740.15" d="M556,901 L570.5,901.5 L571,902 L571.5,902.5 L572,903.5 L572,904 L572,905 L572,905.5 L572,906.5 L571.5,907 L571.5,907.5 L571,908 L570.5,908.5 L569.5,909 L568.5,909.5 L541,909 L432.5,908.5 L9.5,908 " />
<path id="227" stroke-linecap="round" stroke="#6566CC" stroke-width="4" fill="none" moovel_area="409.85" moovel_cumulative_area="537959.87" moovel_length="81.68" d="M4.5,909.5 L3.5,910 L3,910.5 L2.5,911 L2.5,911.5 L2,912.5 L2,913 L2,914 L2.5,914.5 L2.5,915 L3,916 L3.5,916.5 L4.5,917 L27.5,917.5 L58.5,917.5 " />
<path id="228" stroke-linecap="round" stroke="#6566CC" stroke-width="4" fill="none" moovel_area="241.12" moovel_cumulative_area="538200.99" moovel_length="48.05" d="M64.5,917.5 L101.5,917 " />
<path id="229" stroke-linecap="round" stroke="#6566CC" stroke-width="4" fill="none" moovel_name="East Boston Greenway" moovel_area="9681.58" moovel_cumulative_area="547882.57" moovel_length="1929.46" d="M107,917.5 L177.5,917 L570,917.5 L571,918 L571.5,918.5 L571.5,919.5 L572,920 L572,921 L572,922 L572,922.5 L571.5,923.5 L571,924 L571,924.5 L570,925 L569.5,925.5 L385.5,926 L78,926.5 L4.5,927 L3.5,927.5 L3,928 L2.5,929 L2.5,929.5 L2.5,930.5 L2.5,931 L2.5,931.5 L3,932.5 L3.5,933 L4,933.5 L5,934 L216,933.5 L324,934 L479.5,934 " />
<path id="232" stroke-linecap="round" stroke="#6566CC" stroke-width="4" fill="none" moovel_area="302.71" moovel_cumulative_area="548185.28" moovel_length="60.33" d="M484.5,933.5 L490.5,934 L528.5,933.5 L531.5,933.5 " />
<path id="233" stroke-linecap="round" stroke="#6566CC" stroke-width="4" fill="none" moovel_area="71.05" moovel_cumulative_area="548256.33" moovel_length="14.16" d="M536.5,933.5 L547,933.5 " />
<path id="234" stroke-linecap="round" stroke="#6566CC" stroke-width="4" fill="none" moovel_area="59.23" moovel_cumulative_area="548315.56" moovel_length="11.80" d="M552.5,933.5 L561,933.5 " />
<path id="235" stroke-linecap="round" stroke="#6566CC" stroke-width="4" fill="none" moovel_area="58.61" moovel_cumulative_area="548374.17" moovel_length="11.68" d="M566.5,933.5 L570,934 L570.5,934.5 L571.5,935.5 L572,936 L572,937 L572,937.5 L572,938.5 " />
<path id="236" stroke-linecap="round" stroke="#6566CC" stroke-width="4" fill="none" moovel_area="49.69" moovel_cumulative_area="548423.86" moovel_length="9.90" d="M568.5,941.5 L561,942 " />
<path id="237" stroke-linecap="round" stroke="#6566CC" stroke-width="4" fill="none" moovel_area="41.94" moovel_cumulative_area="548465.80" moovel_length="8.36" d="M555.5,942 L549.5,942 " />
<path id="238" stroke-linecap="round" stroke="#6566CC" stroke-width="4" fill="none" moovel_area="475.05" moovel_cumulative_area="548940.85" moovel_length="94.67" d="M544.5,942 L470.5,942 " />
<path id="239" stroke-linecap="round" stroke="#6566CC" stroke-width="4" fill="none" moovel_area="115.82" moovel_cumulative_area="549056.67" moovel_length="23.08" d="M465,942 L447.5,942 " />
<path id="240" stroke-linecap="round" stroke="#6566CC" stroke-width="4" fill="none" moovel_area="744.96" moovel_cumulative_area="549801.64" moovel_length="148.46" d="M442,942 L419,941.5 L325.5,942 " />
<path id="241" stroke-linecap="round" stroke="#6566CC" stroke-width="4" fill="none" moovel_area="341.52" moovel_cumulative_area="550143.15" moovel_length="68.06" d="M319.5,941.5 L266.5,942 " />
<path id="242" stroke-linecap="round" stroke="#6566CC" stroke-width="4" fill="none" moovel_area="235.37" moovel_cumulative_area="550378.52" moovel_length="46.91" d="M261.5,941.5 L225,942 " />
<path id="243" stroke-linecap="round" stroke="#6566CC" stroke-width="4" fill="none" moovel_area="79.43" moovel_cumulative_area="550457.94" moovel_length="15.83" d="M219.5,942 L207.5,942 " />
<path id="244" stroke-linecap="round" stroke="#6566CC" stroke-width="4" fill="none" moovel_area="12557.88" moovel_cumulative_area="563015.82" moovel_length="2502.68" d="M202,941.5 L140.5,941 L16,940.5 L5,941 L3.5,941.5 L2.5,942 L2,942.5 L1.5,943.5 L1.5,944.5 L1,945.5 L1.5,946 L1.5,947 L2,948 L2.5,948.5 L3,949.5 L4,950 L5.5,950.5 L112.5,951 L281,951.5 L449.5,952 L570,952.5 L571.5,953 L572,953.5 L572.5,954 L573,954.5 L573,955 L573,955.5 L573,956 L572.5,956.5 L572,957 L571.5,957.5 L570.5,958 L569,958.5 L535,958 L356.5,957.5 L177.5,957 L4,957.5 L3,958 L2.5,958.5 L1.5,959 L1.5,960 L1,961 L1,962 L1,963 L1.5,964 L2,964.5 L2.5,965.5 L3,966 L4,966.5 L6,967 L174,967.5 L365,968 L500,968 " />
<path id="247" stroke-linecap="round" stroke="#6566CC" stroke-width="4" fill="none" moovel_area="532.21" moovel_cumulative_area="563548.03" moovel_length="106.06" d="M505.5,966.5 L570,967 L571,967.5 L572,968.5 L572,969 L572.5,969.5 L572.5,970.5 L572.5,971 L572.5,971.5 L572,972 L571.5,972.5 L571,973 L570.5,973.5 L570,974 L568.5,974.5 L560.5,974.5 " />
<path id="248" stroke-linecap="round" stroke="#6566CC" stroke-width="4" fill="none" moovel_area="53.53" moovel_cumulative_area="563601.56" moovel_length="10.67" d="M555,974.5 L547.5,974.5 " />
<path id="249" stroke-linecap="round" stroke="#6566CC" stroke-width="4" fill="none" moovel_area="444.26" moovel_cumulative_area="564045.83" moovel_length="11.23" d="M542,974.5 L533.5,974.5 " />
<path id="250" stroke-linecap="round" stroke="#6566CC" stroke-width="4" fill="none" moovel_area="48.44" moovel_cumulative_area="564094.26" moovel_length="15.08" d="M528.5,974.5 L517,974.5 " />
<path id="251" stroke-linecap="round" stroke="#6566CC" stroke-width="4" fill="none" moovel_area="520.65" moovel_cumulative_area="564614.91" moovel_length="162.08" d="M512,974.5 L498.5,974 L385.5,974.5 L384.5,974.5 " />
<path id="252" stroke-linecap="round" stroke="#6566CC" stroke-width="4" fill="none" moovel_area="34.08" moovel_cumulative_area="564648.99" moovel_length="10.61" d="M379,974.5 L371.5,974.5 " />
<path id="253" stroke-linecap="round" stroke="#6566CC" stroke-width="4" fill="none" moovel_area="145.91" moovel_cumulative_area="564794.90" moovel_length="45.42" d="M366,974.5 L330.5,974.5 " />
<path id="254" stroke-linecap="round" stroke="#6566CC" stroke-width="4" fill="none" moovel_area="339.00" moovel_cumulative_area="565133.91" moovel_length="8.57" d="M325.5,974.5 L319.5,974.5 " />
<path id="255" stroke-linecap="round" stroke="#6566CC" stroke-width="4" fill="none" moovel_area="14205.14" moovel_cumulative_area="579339.04" moovel_length="359.00" d="M313.5,974.5 L268.5,975 L31,975 " />
<path id="256" stroke-linecap="round" stroke="#6566CC" stroke-width="4" fill="none" moovel_area="15097.99" moovel_cumulative_area="594437.03" moovel_length="381.57" d="M25.5,974.5 L5,975 L3.5,975.5 L3,976 L2.5,976.5 L2.5,977 L2,978 L2,978.5 L2.5,979.5 L2.5,980 L3,981 L3.5,981.5 L4,982 L5.5,982.5 L81.5,982 L244,982.5 L272,982 L274,982 " />
<path id="257" stroke-linecap="round" stroke="#6566CC" stroke-width="4" fill="none" moovel_area="458.78" moovel_cumulative_area="594895.81" moovel_length="11.59" d="M279.5,982.5 L288,982.5 " />
<path id="258" stroke-linecap="round" stroke="#6566CC" stroke-width="4" fill="none" moovel_area="2250.49" moovel_cumulative_area="597146.30" moovel_length="56.88" d="M294,982.5 L338,982.5 " />
<path id="259" stroke-linecap="round" stroke="#6566CC" stroke-width="4" fill="none" moovel_area="982.50" moovel_cumulative_area="598128.80" moovel_length="24.83" d="M343.5,982.5 L362.5,982.5 " />
<path id="260" stroke-linecap="round" stroke="#6566CC" stroke-width="4" fill="none" moovel_area="550.75" moovel_cumulative_area="598679.55" moovel_length="13.92" d="M368,982.5 L378.5,982.5 " />
<path id="261" stroke-linecap="round" stroke="#6566CC" stroke-width="4" fill="none" moovel_area="364.88" moovel_cumulative_area="599044.43" moovel_length="9.22" d="M384,982.5 L390.5,982.5 " />
<path id="262" stroke-linecap="round" stroke="#6566CC" stroke-width="4" fill="none" moovel_area="3944.20" moovel_cumulative_area="602988.63" moovel_length="99.68" d="M396,982.5 L473.5,982.5 " />
<path id="263" stroke-linecap="round" stroke="#6566CC" stroke-width="4" fill="none" moovel_area="2408.64" moovel_cumulative_area="605397.27" moovel_length="480.02" d="M479.5,982.5 L481.5,983 L534,982.5 L569.5,983 L570.5,983.5 L571,984 L571.5,984.5 L571.5,985 L572,986 L572,986.5 L572,987.5 L572,988.5 L571.5,989 L571,989.5 L570.5,990 L570,990.5 L569,991 L291.5,991 " />
<path id="265" stroke-linecap="round" stroke="#6566CC" stroke-width="4" fill="none" moovel_area="274.48" moovel_cumulative_area="605671.75" moovel_length="54.70" d="M286.5,991 L244,991 " />
<path id="266" stroke-linecap="round" stroke="#6566CC" stroke-width="4" fill="none" moovel_area="611.89" moovel_cumulative_area="606283.64" moovel_length="121.95" d="M238,991 L234.5,990.5 L153.5,991 L142.5,991 " />
<path id="268" stroke-linecap="round" stroke="#6566CC" stroke-width="4" fill="none" moovel_name="Washington Street" moovel_area="1516.24" moovel_cumulative_area="607799.89" moovel_length="71.19" d="M137,991 L82,991 " />
<path id="270" stroke-linecap="round" stroke="#6566CC" stroke-width="4" fill="none" moovel_name="East Boston Greenway Connector" moovel_area="2916.87" moovel_cumulative_area="610716.75" moovel_length="581.31" d="M76.5,990.5 L4.5,991 L3.5,991.5 L3,992 L2.5,992.5 L2,993.5 L2,994 L2,995 L2,995.5 L2,996.5 L2.5,997 L3,998 L3.5,998.5 L5,999 L381,999 " />
<path id="271" stroke-linecap="round" stroke="#6566CC" stroke-width="4" fill="none" moovel_area="3351.85" moovel_cumulative_area="614068.61" moovel_length="668.00" d="M386,999 L523.5,998.5 L569,999 L570.5,999.5 L571,1000 L571.5,1000.5 L572,1001.5 L572,1002.5 L572,1003 L572,1004 L571.5,1005 L571.5,1005.5 L571,1006 L570.5,1006.5 L569.5,1007 L569,1007.5 L236.5,1008 " />
<path id="273" stroke-linecap="round" stroke="#6566CC" stroke-width="4" fill="none" moovel_area="795.42" moovel_cumulative_area="614864.03" moovel_length="158.52" d="M231,1007 L107,1007 " />
</svg>
