<?xml version="1.0" encoding="UTF-8" standalone="no"?>
<svg width="603px" height="833px"  viewport="0 0 603 833" version="1.1" xmlns="http://www.w3.org/2000/svg" xmlns:xlink="http://www.w3.org/1999/xlink">
<path id="1" stroke-linecap="round" stroke="#6566CC" stroke-width="7.221743051697047" fill="none" moovel_name="Lake Merced Bike Path" moovel_neighborhood="Lakeshore" moovel_area="77870.26" moovel_cumulative_area="77870.26" moovel_length="7945.95" d="M19.5,6.5 L29,7 L251.5,7.5 L490.5,8 L596,8.5 L597.5,9 L598.5,10 L599,11.5 L599,12.5 L598.5,14 L597.5,15 L596,15.5 L594.5,16 L475,15.5 L254,15 L33.5,14.5 L17.5,15 L14.5,16 L13.5,17.5 L13,19 L13,21 L13.5,22.5 L14.5,23.5 L15.5,24.5 L17.5,25.5 L189,26 L409,26.5 L595.5,27 L597,27.5 L598,28 L599,29 L599,30 L599,31 L598.5,32 L597.5,33 L596.5,34 L593.5,34.5 L588,34 L381,33.5 L176.5,33 L15.5,33.5 L14,34.5 L13,36 L12.5,37.5 L12.5,39.5 L13.5,41 L14.5,42.5 L15.5,43.5 L17.5,44 L150,44.5 L341.5,45 L532,45.5 L597.5,46 L598.5,47 L599,48 L599.5,49 L599.5,49.5 L599,50.5 L598,51.5 L596.5,52 L595,52.5 L417,52 L225,51.5 L34.5,51 L16.5,51.5 L15,52 L13.5,53.5 L13,55 L12.5,56.5 L13,58.5 L13.5,60 L15,61 L16.5,62 L25.5,62.5 L216,63 L408,63.5 L595.5,64 L597,64.5 L598,65.5 L599,66.5 L599,67.5 L599,68.5 L598.5,69.5 L597.5,70.5 L596.5,71 L593.5,71.5 L566,71 L346,70.5 L125.5,70 L15.5,70.5 L14.5,71.5 L13.5,73 L13,74.5 L13,76 L13.5,77.5 L14.5,79 L15.5,80 L17,80.5 L91,81 L310.5,81.5 L522.5,82 L596.5,82.5 L597.5,83.5 L598.5,84.5 L599,85.5 L598.5,87 L598.5,88 L597.5,89 L596,89.5 L595,90 L431.5,89.5 L241,89 L84,89 " />
<path id="3" stroke-linecap="round" stroke="#6566CC" stroke-width="7.221743051697047" fill="none" moovel_neighborhood="Presidio National Park" moovel_area="332.44" moovel_cumulative_area="78202.70" moovel_length="100.99" d="M75,89.5 L17,90 L16,90.5 L15,91 L14,92 L14,93.5 L13.5,94.5 L14,96 L14.5,96.5 L15,97.5 L16,98 L17,98.5 L20.5,99 " />
<path id="4" stroke-linecap="round" stroke="#6566CC" stroke-width="7.221743051697047" fill="none" moovel_name="14th Street" moovel_neighborhood="Duboce Triangle" moovel_area="2094.54" moovel_cumulative_area="80297.24" moovel_length="212.09" d="M30.5,98.5 L185,98.5 " />
<path id="5" stroke-linecap="round" stroke="#6566CC" stroke-width="7.221743051697047" fill="none" moovel_name="Patten Road" moovel_neighborhood="Presidio National Park" moovel_area="2381.65" moovel_cumulative_area="82678.89" moovel_length="243.03" d="M195,99 L372.5,99 " />
<path id="6" stroke-linecap="round" stroke="#6566CC" stroke-width="7.221743051697047" fill="none" moovel_name="Ocean Avenue" moovel_neighborhood="Sunnyside" moovel_area="23670.00" moovel_cumulative_area="106348.89" moovel_length="3591.59" d="M382.5,99 L595.5,99.5 L597,100 L598,101 L598.5,102.5 L598.5,103.5 L598.5,105 L597.5,106.5 L596.5,107 L595,107.5 L594,108 L431,107.5 L15,108.5 L14,109.5 L13.5,111 L13.5,112.5 L13.5,114 L14.5,115.5 L15.5,116.5 L17,117 L227,117.5 L596,118 L597,118.5 L598,119.5 L598.5,121 L598.5,122.5 L598.5,123.5 L597.5,124.5 L596.5,125.5 L595,126 L102.5,125.5 L17,126 L15.5,126.5 L14.5,127.5 L14,128.5 L13.5,130 L13.5,131.5 L14,133 L15,134 L16,135 L19,135.5 L385,136 L595.5,136.5 L596.5,137 L597.5,138.5 L598,139.5 L598.5,141 L598,142.5 L597.5,144 L596.5,145 L595,145.5 L540,145.5 " />
<path id="7" stroke-linecap="round" stroke="#6566CC" stroke-width="7.221743051697047" fill="none" moovel_name="Park Boulevard Trail" moovel_neighborhood="Presidio National Park" moovel_area="6705.07" moovel_cumulative_area="113053.96" moovel_length="1018.44" d="M530,145 L521,144.5 L134.5,144 L16,144.5 L15,145.5 L14,147 L13.5,148 L13.5,149.5 L14,151 L15,152.5 L16,153 L17.5,153.5 L69.5,154 L240,154 " />
<path id="8" stroke-linecap="round" stroke="#6566CC" stroke-width="7.221743051697047" fill="none" moovel_name="Division Street" moovel_neighborhood="South of Market" moovel_area="515.14" moovel_cumulative_area="113569.10" moovel_length="229.10" d="M250.5,154 L417.5,154 " />
<path id="10" stroke-linecap="round" stroke="#6566CC" stroke-width="7.221743051697047" fill="none" moovel_name="Barneveld Avenue" moovel_neighborhood="Produce Market" moovel_area="1817.40" moovel_cumulative_area="115386.50" moovel_length="276.05" d="M427.5,154 L595.5,154.5 L597,155 L597.5,156.5 L598.5,157.5 L598.5,159 L598,160.5 L597.5,161.5 L596.5,162.5 L595,163 L593.5,163.5 L573,163.5 " />
<path id="11" stroke-linecap="round" stroke="#6566CC" stroke-width="7.221743051697047" fill="none" moovel_name="8th Street" moovel_neighborhood="South of Market" moovel_area="14347.57" moovel_cumulative_area="129734.07" moovel_length="1389.01" d="M563.5,163 L549,163.5 L16.5,164 L15.5,164.5 L14.5,165.5 L14,167 L13.5,168.5 L14,170 L14.5,171 L16,172 L17,172.5 L479,172.5 " />
<path id="12" stroke-linecap="round" stroke="#6566CC" stroke-width="7.221743051697047" fill="none" moovel_name="Chain of Lakes Drive West" moovel_neighborhood="Golden Gate Park" moovel_area="4767.77" moovel_cumulative_area="134501.84" moovel_length="486.51" d="M489.5,172.5 L595.5,173 L596.5,173.5 L597.5,174.5 L598.5,175.5 L598.5,176.5 L598.5,178 L598,179 L597.5,180 L596.5,181 L595.5,181.5 L530,182 L517.5,181.5 L356.5,181.5 " />
<path id="13" stroke-linecap="round" stroke="#6566CC" stroke-width="7.221743051697047" fill="none" moovel_name="Loomis Street" moovel_neighborhood="Produce Market" moovel_area="4405.61" moovel_cumulative_area="138907.45" moovel_length="669.17" d="M346,181.5 L334,182 L16,182.5 L15,183.5 L14,184.5 L14,186 L14,187.5 L14.5,189 L15,190 L16.5,190.5 L17.5,191 L166.5,191 " />
<path id="14" stroke-linecap="round" stroke="#6566CC" stroke-width="7.221743051697047" fill="none" moovel_neighborhood="Treasure Island" moovel_area="6653.97" moovel_cumulative_area="145561.42" moovel_length="678.98" d="M176.5,191 L438,191.5 L596.5,192 L597.5,193 L598.5,194.5 L598.5,195.5 L598.5,197 L597.5,198.5 L596.5,199.5 L595.5,200 L594,200.5 L527.5,200.5 " />
<path id="15" stroke-linecap="round" stroke="#6566CC" stroke-width="7.221743051697047" fill="none" moovel_name="Great Highway" moovel_neighborhood="Golden Gate Park" moovel_area="3692.53" moovel_cumulative_area="149253.95" moovel_length="1628.09" d="M518,200 L15.5,200.5 L14.5,201.5 L14,203 L13.5,204.5 L13.5,206 L14,207 L15,208 L16.5,209 L18,209.5 L495,210 L597,211 L598,212 L598.5,213.5 L598.5,214.5 L598,216 L597.5,217 L596.5,218 L595,218.5 L593.5,219 L502,219 " />
<path id="16" stroke-linecap="round" stroke="#6566CC" stroke-width="7.221743051697047" fill="none" moovel_name="Bayshore Boulevard" moovel_neighborhood="Portola" moovel_area="7523.72" moovel_cumulative_area="156777.67" moovel_length="1588.65" d="M491.5,218.5 L15.5,219.5 L14.5,220.5 L14,221.5 L13.5,223 L14,224.5 L15,225.5 L16,226.5 L17,227 L30,227.5 L406.5,228 L596,228.5 L597.5,229.5 L598,231 L598.5,232.5 L598,234 L597.5,235 L596.5,236.5 L595.5,237 L594,237.5 L504.5,237.5 " />
<path id="17" stroke-linecap="round" stroke="#6566CC" stroke-width="7.221743051697047" fill="none" moovel_name="Steiner Street" moovel_neighborhood="Duboce Triangle" moovel_area="1232.28" moovel_cumulative_area="158009.95" moovel_length="187.17" d="M494.5,237 L358.5,237 " />
<path id="18" stroke-linecap="round" stroke="#6566CC" stroke-width="7.221743051697047" fill="none" moovel_name="Waller Street" moovel_neighborhood="Lower Haight" moovel_area="962.51" moovel_cumulative_area="158972.46" moovel_length="146.20" d="M348.5,237 L242.5,237 " />
<path id="19" stroke-linecap="round" stroke="#6566CC" stroke-width="7.221743051697047" fill="none" moovel_name="Pierce Street" moovel_neighborhood="Lower Haight" moovel_area="692.84" moovel_cumulative_area="159665.30" moovel_length="105.24" d="M232.5,237 L156.5,237 " />
<path id="20" stroke-linecap="round" stroke="#6566CC" stroke-width="7.221743051697047" fill="none" moovel_name="Haight Street" moovel_neighborhood="Lower Haight" moovel_area="964.03" moovel_cumulative_area="160629.33" moovel_length="146.43" d="M146.5,237 L40.5,237 " />
<path id="21" stroke-linecap="round" stroke="#6566CC" stroke-width="7.221743051697047" fill="none" moovel_name="Golden Gate Promenade" moovel_neighborhood="Presidio National Park" moovel_area="12987.66" moovel_cumulative_area="173616.99" moovel_length="1325.27" d="M30,237 L15.5,237.5 L14.5,238.5 L14,240 L13.5,241 L13.5,242.5 L14,244 L15,245 L16.5,246 L17.5,246.5 L486,247 L597,248 L598,249 L598.5,250 L598.5,251.5 L598.5,253 L597.5,254 L596.5,255 L595,255.5 L256,255 L237,255 " />
<path id="23" stroke-linecap="round" stroke="#6566CC" stroke-width="7.221743051697047" fill="none" moovel_neighborhood="Presidio National Park" moovel_area="705.47" moovel_cumulative_area="174322.46" moovel_length="107.15" d="M227,255.5 L149,255.5 " />
<path id="24" stroke-linecap="round" stroke="#6566CC" stroke-width="7.221743051697047" fill="none" moovel_name="Tiffany Avenue" moovel_neighborhood="Bernal Heights" moovel_area="68.22" moovel_cumulative_area="174390.68" moovel_length="6.96" d="M139.5,255.5 L135.5,255.5 " />
<path id="25" stroke-linecap="round" stroke="#6566CC" stroke-width="7.221743051697047" fill="none" moovel_name="Duncan Street" moovel_neighborhood="Bernal Heights" moovel_area="222.33" moovel_cumulative_area="174613.01" moovel_length="22.69" d="M125.5,255.5 L110,255.5 " />
<path id="26" stroke-linecap="round" stroke="#6566CC" stroke-width="7.221743051697047" fill="none" moovel_name="Bay Street" moovel_neighborhood="Marina" moovel_area="2009.01" moovel_cumulative_area="176622.02" moovel_length="380.71" d="M100.5,255.5 L15.5,256 L14.5,257 L14,258.5 L13.5,259.5 L14,261 L14.5,262.5 L15.5,263.5 L16.5,264.5 L200,264.5 " />
<path id="27" stroke-linecap="round" stroke="#6566CC" stroke-width="7.221743051697047" fill="none" moovel_name="3rd Avenue" moovel_neighborhood="Inner Sunset" moovel_area="587.27" moovel_cumulative_area="177209.29" moovel_length="89.20" d="M210.5,264.5 L274.5,264.5 " />
<path id="28" stroke-linecap="round" stroke="#6566CC" stroke-width="7.221743051697047" fill="none" moovel_name="17th Street" moovel_neighborhood="Mission" moovel_area="1821.86" moovel_cumulative_area="179031.15" moovel_length="577.66" d="M284,264.5 L596,265 L597,266 L598,267 L598.5,268.5 L598.5,270 L598,271.5 L597,272.5 L596,273.5 L594.5,274 L494.5,274 " />
<path id="29" stroke-linecap="round" stroke="#6566CC" stroke-width="7.221743051697047" fill="none" moovel_name="John F Kennedy Drive" moovel_neighborhood="Golden Gate Park" moovel_area="5158.28" moovel_cumulative_area="184189.43" moovel_length="2098.24" d="M484,274 L477,273.5 L17,274 L15.5,274.5 L14.5,275.5 L14,276.5 L14,278 L14,279.5 L14.5,280.5 L15.5,281.5 L16.5,282 L18,282.5 L596,283 L597,284 L597.5,285 L598,286.5 L598,288 L598,289.5 L597,290.5 L596,291.5 L595,292 L122.5,292 " />
<path id="31" stroke-linecap="round" stroke="#6566CC" stroke-width="7.221743051697047" fill="none" moovel_name="Lyon Street" moovel_neighborhood="Cow Hollow" moovel_area="1404.38" moovel_cumulative_area="185593.81" moovel_length="199.71" d="M112.5,292.5 L91,292 L17,292.5 L15.5,293 L14.5,294 L14,295.5 L13.5,297 L14,298.5 L14.5,299.5 L15.5,300.5 L17,301.5 L55,301.5 " />
<path id="35" stroke-linecap="round" stroke="#6566CC" stroke-width="7.221743051697047" fill="none" moovel_neighborhood="Central Waterfront" moovel_area="1578.48" moovel_cumulative_area="187172.29" moovel_length="161.07" d="M65.5,301.5 L182.5,301.5 " />
<path id="36" stroke-linecap="round" stroke="#6566CC" stroke-width="7.221743051697047" fill="none" moovel_neighborhood="Central Waterfront" moovel_area="1581.72" moovel_cumulative_area="188754.01" moovel_length="161.40" d="M192,301.5 L309.5,301.5 " />
<path id="37" stroke-linecap="round" stroke="#6566CC" stroke-width="7.221743051697047" fill="none" moovel_neighborhood="Dogpatch" moovel_area="416.91" moovel_cumulative_area="189170.92" moovel_length="42.54" d="M319.5,301.5 L349.5,301.5 " />
<path id="41" stroke-linecap="round" stroke="#6566CC" stroke-width="7.221743051697047" fill="none" moovel_name="Vicente Street" moovel_neighborhood="West Portal" moovel_area="24178.28" moovel_cumulative_area="213349.20" moovel_length="3577.70" d="M359,301.5 L596.5,302 L597.5,303.5 L598,304.5 L598.5,306 L598,307.5 L597.5,309 L596.5,310 L595,310.5 L372.5,311 L16,311.5 L15,312.5 L14,313.5 L14,315 L14,316 L14,317.5 L15,318.5 L16.5,319.5 L17.5,320 L596.5,320.5 L597.5,321.5 L598,323 L598.5,324.5 L598,326 L597.5,327 L596.5,328.5 L595.5,329 L594,329.5 L16,330 L15,331 L14.5,332 L14,333 L14,334.5 L14,335.5 L15,337 L16,338 L17,338.5 L539,338 L594.5,338.5 L597,339.5 L597.5,340.5 L598,341.5 L598.5,343 L598,344.5 L597.5,345.5 L596.5,346.5 L595.5,347.5 L573.5,347.5 " />
<path id="42" stroke-linecap="round" stroke="#6566CC" stroke-width="7.221743051697047" fill="none" moovel_neighborhood="Parkside" moovel_area="20953.35" moovel_cumulative_area="234302.55" moovel_length="3182.62" d="M564.5,347.5 L394.5,348 L130.5,348.5 L16.5,349 L15,349.5 L14.5,351 L14,352 L13.5,353.5 L14,355 L15,356 L16,357 L17,357.5 L145,357 L325,356.5 L488.5,356 L595.5,356.5 L597,357 L597.5,358 L598,359.5 L598.5,361 L598,362 L597.5,363.5 L596.5,364.5 L595,365 L594,365.5 L469.5,366 L336.5,366.5 L198.5,367 L51.5,367.5 L15.5,368.5 L14.5,369.5 L14,370.5 L13.5,372 L14,373.5 L14.5,374.5 L16,375.5 L17,376 L18.5,376.5 L73,376 L257,375.5 L431,375 L596,375.5 L597,376 L598,377 L598.5,378.5 L598.5,379.5 L598,381 L598,382 L597,383 L596,383.5 L594.5,384 L585,384 " />
<path id="43" stroke-linecap="round" stroke="#6566CC" stroke-width="7.221743051697047" fill="none" moovel_neighborhood="Panhandle" moovel_area="4475.01" moovel_cumulative_area="238777.56" moovel_length="456.63" d="M575,384.5 L455.5,384 L240.5,384 " />
<path id="44" stroke-linecap="round" stroke="#6566CC" stroke-width="7.221743051697047" fill="none" moovel_neighborhood="Potrero Hill" moovel_area="647.78" moovel_cumulative_area="239425.34" moovel_length="66.10" d="M230,384.5 L183,384.5 " />
<path id="45" stroke-linecap="round" stroke="#6566CC" stroke-width="7.221743051697047" fill="none" moovel_neighborhood="Potrero Hill" moovel_area="44.15" moovel_cumulative_area="239469.49" moovel_length="4.51" d="M173,384.5 L171,384.5 " />
<path id="46" stroke-linecap="round" stroke="#6566CC" stroke-width="7.221743051697047" fill="none" moovel_neighborhood="Central Waterfront" moovel_area="1843.53" moovel_cumulative_area="241313.02" moovel_length="188.12" d="M161.5,384.5 L24.5,384.5 " />
<path id="47" stroke-linecap="round" stroke="#6566CC" stroke-width="7.221743051697047" fill="none" moovel_neighborhood="Golden Gate Park" moovel_area="8155.12" moovel_cumulative_area="249468.14" moovel_length="832.16" d="M15,386 L14,387 L13.5,388.5 L13.5,389.5 L14,391 L15,392 L16,393 L17,393.5 L579.5,394 L596,394.5 L597,395 L598,396 L598.5,397.5 L598.5,399 L598,400.5 L597,401.5 L596,402 L594.5,402.5 L593.5,403 L584,403 " />
<path id="48" stroke-linecap="round" stroke="#6566CC" stroke-width="7.221743051697047" fill="none" moovel_name="5th Avenue" moovel_neighborhood="Golden Gate Park" moovel_area="727.04" moovel_cumulative_area="250195.18" moovel_length="110.43" d="M573.5,403 L493.5,403 " />
<path id="49" stroke-linecap="round" stroke="#6566CC" stroke-width="7.221743051697047" fill="none" moovel_name="Page Street" moovel_neighborhood="Lower Haight" moovel_area="19508.78" moovel_cumulative_area="269703.96" moovel_length="2963.21" d="M483.5,403 L395.5,402.5 L17,403 L15.5,403.5 L14.5,404.5 L14,405.5 L13.5,407 L13.5,408.5 L14.5,410 L15.5,411 L16.5,411.5 L18,412 L596.5,412.5 L597.5,413.5 L598.5,415 L598.5,416.5 L598.5,418 L597.5,419 L596.5,420 L595.5,420.5 L594,421 L16,421.5 L15,422.5 L14,423.5 L13.5,425 L13.5,426.5 L14,428 L15,429 L16,430 L17.5,430.5 L536.5,430.5 " />
<path id="50" stroke-linecap="round" stroke="#6566CC" stroke-width="7.221743051697047" fill="none" moovel_neighborhood="Treasure Island" moovel_area="369.91" moovel_cumulative_area="270073.87" moovel_length="37.75" d="M546.5,430.5 L573,430.5 " />
<path id="51" stroke-linecap="round" stroke="#6566CC" stroke-width="7.221743051697047" fill="none" moovel_neighborhood="Golden Gate Park" moovel_area="758.88" moovel_cumulative_area="270832.75" moovel_length="77.44" d="M582.5,430.5 L596.5,431 L597.5,432 L598,433.5 L598.5,434.5 L598.5,436 L598,437.5 L597,438.5 L595.5,439.5 L564,439.5 " />
<path id="52" stroke-linecap="round" stroke="#6566CC" stroke-width="7.221743051697047" fill="none" moovel_neighborhood="Golden Gate Park" moovel_area="127.00" moovel_cumulative_area="270959.75" moovel_length="12.96" d="M553.5,439.5 L545.5,439.5 " />
<path id="53" stroke-linecap="round" stroke="#6566CC" stroke-width="7.221743051697047" fill="none" moovel_neighborhood="Golden Gate Park" moovel_area="912.32" moovel_cumulative_area="271872.07" moovel_length="93.09" d="M535.5,439.5 L468.5,439.5 " />
<path id="54" stroke-linecap="round" stroke="#6566CC" stroke-width="7.221743051697047" fill="none" moovel_neighborhood="Golden Gate Park" moovel_area="1320.04" moovel_cumulative_area="273192.11" moovel_length="134.70" d="M458.5,439.5 L448,440 L390.5,439.5 L361,439.5 " />
<path id="55" stroke-linecap="round" stroke="#6566CC" stroke-width="7.221743051697047" fill="none" moovel_neighborhood="Golden Gate Park" moovel_area="2117.92" moovel_cumulative_area="275310.03" moovel_length="216.11" d="M350.5,439.5 L193,439.5 " />
<path id="57" stroke-linecap="round" stroke="#6566CC" stroke-width="7.221743051697047" fill="none" moovel_neighborhood="Inner Richmond" moovel_area="855.58" moovel_cumulative_area="276165.61" moovel_length="87.30" d="M183,439.5 L120,439.5 " />
<path id="59" stroke-linecap="round" stroke="#6566CC" stroke-width="7.221743051697047" fill="none" moovel_neighborhood="Presidio National Park" moovel_area="30.88" moovel_cumulative_area="276196.49" moovel_length="9.38" d="M109.5,439.5 L104,439.5 " />
<path id="61" stroke-linecap="round" stroke="#6566CC" stroke-width="7.221743051697047" fill="none" moovel_name="Hugo Street" moovel_neighborhood="Inner Sunset" moovel_area="2483.18" moovel_cumulative_area="278679.67" moovel_length="377.17" d="M93.5,439.5 L17,440 L15.5,440.5 L14.5,441.5 L14,443 L13.5,444.5 L14,446 L14.5,447 L15.5,448 L17,448.5 L18.5,449 L204.5,449 " />
<path id="62" stroke-linecap="round" stroke="#6566CC" stroke-width="7.221743051697047" fill="none" moovel_name="Octavia Blvd Bike Connector" moovel_neighborhood="South of Market" moovel_area="478.16" moovel_cumulative_area="279157.83" moovel_length="48.79" d="M214,449 L248.5,449 " />
<path id="64" stroke-linecap="round" stroke="#6566CC" stroke-width="7.221743051697047" fill="none" moovel_name="Battery East Road" moovel_neighborhood="Presidio National Park" moovel_area="3099.69" moovel_cumulative_area="282257.52" moovel_length="326.39" d="M259,449 L383.5,448.5 L497.5,449 " />
<path id="65" stroke-linecap="round" stroke="#6566CC" stroke-width="7.221743051697047" fill="none" moovel_neighborhood="Marina" moovel_area="4939.44" moovel_cumulative_area="287196.96" moovel_length="504.02" d="M507.5,449 L580,448.5 L594.5,449 L597,450 L597.5,451 L598,452.5 L598.5,454 L598,455 L597.5,456.5 L596.5,457.5 L595,458 L473,458.5 L325.5,458.5 " />
<path id="66" stroke-linecap="round" stroke="#6566CC" stroke-width="7.221743051697047" fill="none" moovel_neighborhood="Presidio National Park" moovel_area="448.07" moovel_cumulative_area="287645.03" moovel_length="45.72" d="M315.5,458 L283.5,458 " />
<path id="67" stroke-linecap="round" stroke="#6566CC" stroke-width="7.221743051697047" fill="none" moovel_neighborhood="Presidio National Park" moovel_area="290.54" moovel_cumulative_area="287935.57" moovel_length="29.65" d="M273,458 L253,458 " />
<path id="68" stroke-linecap="round" stroke="#6566CC" stroke-width="7.221743051697047" fill="none" moovel_name="5th Street" moovel_neighborhood="South of Market" moovel_area="15572.51" moovel_cumulative_area="303508.08" moovel_length="1353.92" d="M242.5,458 L15.5,459 L14.5,460 L14,461 L13.5,462.5 L14,464 L14.5,465.5 L15.5,466.5 L17,467 L40.5,467.5 L595.5,468 L596.5,468.5 L597.5,469.5 L598.5,471 L598.5,472.5 L598,474 L597.5,475 L596.5,476 L595,476.5 L428,476.5 " />
<path id="71" stroke-linecap="round" stroke="#6566CC" stroke-width="7.221743051697047" fill="none" moovel_neighborhood="Lakeshore" moovel_area="17705.30" moovel_cumulative_area="321213.38" moovel_length="1806.66" d="M419,476.5 L18,477 L15.5,478 L14.5,479 L14,480.5 L14,481.5 L14.5,483 L15,484 L16,485 L17.5,485.5 L227,485 L584.5,484.5 L595,485 L596,485.5 L597.5,486.5 L598,487.5 L598.5,489 L598,490.5 L597.5,492 L596.5,493 L595.5,494 L594,494.5 L312.5,495 L274,494.5 L271.5,494.5 " />
<path id="72" stroke-linecap="round" stroke="#6566CC" stroke-width="7.221743051697047" fill="none" moovel_neighborhood="Lakeshore" moovel_area="165.23" moovel_cumulative_area="321378.61" moovel_length="16.86" d="M260.5,495 L249.5,495 " />
<path id="75" stroke-linecap="round" stroke="#6566CC" stroke-width="7.221743051697047" fill="none" moovel_name="Octavia Street" moovel_neighborhood="Lower Haight" moovel_area="6292.18" moovel_cumulative_area="327670.79" moovel_length="955.72" d="M239.5,495 L16.5,495.5 L15.5,496 L14.5,497.5 L14,498.5 L14,500 L14,501.5 L15,502.5 L16,503.5 L17,504 L484,504 " />
<path id="80" stroke-linecap="round" stroke="#6566CC" stroke-width="7.221743051697047" fill="none" moovel_name="7th Street" moovel_neighborhood="South of Market" moovel_area="16804.54" moovel_cumulative_area="344475.33" moovel_length="1354.67" d="M494,504 L557.5,504.5 L596,505 L597,505.5 L598,507 L598.5,508.5 L598.5,509.5 L598,511 L597,512 L596,513 L594.5,513.5 L357.5,513 L16,513.5 L14.5,514.5 L14,516 L13.5,517 L13.5,518.5 L14,520 L15,521 L16.5,522 L19,522.5 L309,522.5 " />
<path id="85" stroke-linecap="round" stroke="#6566CC" stroke-width="7.221743051697047" fill="none" moovel_neighborhood="Aquatic Park / Ft. Mason" moovel_area="941.68" moovel_cumulative_area="345417.01" moovel_length="96.09" d="M318.5,522.5 L388,522.5 " />
<path id="87" stroke-linecap="round" stroke="#6566CC" stroke-width="7.221743051697047" fill="none" moovel_name="Sunset Blvd Bike Path" moovel_neighborhood="Lakeshore" moovel_area="3224.81" moovel_cumulative_area="348641.82" moovel_length="329.06" d="M398,522.5 L596,523 L597,524 L598,525 L598.5,526 L598.5,527.5 L598,529 L597.5,530 L596,531 L594.5,531.5 L563.5,531.5 " />
<path id="88" stroke-linecap="round" stroke="#6566CC" stroke-width="7.221743051697047" fill="none" moovel_name="Lake Merced BIke Path" moovel_neighborhood="Lakeshore" moovel_area="410.34" moovel_cumulative_area="349052.16" moovel_length="41.87" d="M552.5,532 L523.5,532 " />
<path id="89" stroke-linecap="round" stroke="#6566CC" stroke-width="7.221743051697047" fill="none" moovel_neighborhood="Treasure Island" moovel_area="7193.99" moovel_cumulative_area="356246.15" moovel_length="734.08" d="M513,532 L202,532.5 L16.5,533 L15.5,533.5 L14.5,534 L14,535 L14,536 L13.5,537 L14,538.5 L14.5,539.5 L15.5,540.5 L16.5,541 L17.5,541.5 L47.5,541.5 " />
<path id="91" stroke-linecap="round" stroke="#6566CC" stroke-width="7.221743051697047" fill="none" moovel_neighborhood="Presidio National Park" moovel_area="1284.65" moovel_cumulative_area="357530.80" moovel_length="131.09" d="M57,541 L152,541 " />
<path id="96" stroke-linecap="round" stroke="#6566CC" stroke-width="7.221743051697047" fill="none" moovel_name="McCoppin Street" moovel_neighborhood="South of Market" moovel_area="81.20" moovel_cumulative_area="357612.00" moovel_length="36.11" d="M162,541 L187.5,541 " />
<path id="102" stroke-linecap="round" stroke="#6566CC" stroke-width="7.221743051697047" fill="none" moovel_neighborhood="Potrero Hill" moovel_area="902.65" moovel_cumulative_area="358514.65" moovel_length="92.11" d="M197.5,541 L263.5,541 " />
<path id="109" stroke-linecap="round" stroke="#6566CC" stroke-width="7.221743051697047" fill="none" moovel_neighborhood="Panhandle" moovel_area="4377.74" moovel_cumulative_area="362892.39" moovel_length="446.71" d="M273.5,541 L465,541.5 L529.5,541 L551.5,541.5 L596.5,542.5 L597.5,543 L598,544.5 L598.5,545.5 " />
<path id="110" stroke-linecap="round" stroke="#6566CC" stroke-width="7.221743051697047" fill="none" moovel_neighborhood="Golden Gate Park" moovel_area="6863.91" moovel_cumulative_area="369756.30" moovel_length="700.40" d="M591.5,550 L77.5,550 " />
<path id="111" stroke-linecap="round" stroke="#6566CC" stroke-width="7.221743051697047" fill="none" moovel_neighborhood="Panhandle" moovel_area="1399.17" moovel_cumulative_area="371155.47" moovel_length="142.77" d="M68,550 L16,550.5 L15,551.5 L14,553 L13.5,554 L13.5,555.5 L14,557 L15,558 L16,559 L17.5,559.5 L57.5,559.5 " />
<path id="112" stroke-linecap="round" stroke="#6566CC" stroke-width="7.221743051697047" fill="none" moovel_neighborhood="Golden Gate Park" moovel_area="2369.92" moovel_cumulative_area="373525.39" moovel_length="241.83" d="M67,559.5 L243.5,559.5 " />
<path id="113" stroke-linecap="round" stroke="#6566CC" stroke-width="7.221743051697047" fill="none" moovel_neighborhood="Golden Gate Park" moovel_area="1538.86" moovel_cumulative_area="375064.25" moovel_length="157.03" d="M253.5,559.5 L368,559.5 " />
<path id="114" stroke-linecap="round" stroke="#6566CC" stroke-width="7.221743051697047" fill="none" moovel_name="Laguna Honda Boulevard" moovel_neighborhood="Golden Gate Heights" moovel_area="889.10" moovel_cumulative_area="375953.35" moovel_length="395.40" d="M377.5,559.5 L519,560 L597,561 L598,562 L598.5,563 L598.5,564.5 L598.5,566 L597.5,567 L596.5,568 L595,568.5 L594,569 L543,568.5 L541.5,569 L535,569 " />
<path id="116" stroke-linecap="round" stroke="#6566CC" stroke-width="7.221743051697047" fill="none" moovel_name="Presidio Promenade" moovel_neighborhood="Presidio National Park" moovel_area="10306.94" moovel_cumulative_area="386260.29" moovel_length="1051.73" d="M525,568.5 L516.5,569 L16,569.5 L15,570.5 L14,572 L13.5,573 L14,574.5 L14,575.5 L15,576.5 L15.5,577.5 L16.5,578 L269.5,578 " />
<path id="120" stroke-linecap="round" stroke="#6566CC" stroke-width="7.221743051697047" fill="none" moovel_name="14th Avenue" moovel_neighborhood="West Portal" moovel_area="1902.50" moovel_cumulative_area="388162.79" moovel_length="288.97" d="M279.5,578 L491,578 " />
<path id="122" stroke-linecap="round" stroke="#6566CC" stroke-width="7.221743051697047" fill="none" moovel_neighborhood="South Beach" moovel_area="80.08" moovel_cumulative_area="388242.87" moovel_length="8.17" d="M500.5,578 L505.5,578 " />
<path id="123" stroke-linecap="round" stroke="#6566CC" stroke-width="7.221743051697047" fill="none" moovel_neighborhood="Presidio National Park" moovel_area="3626.83" moovel_cumulative_area="391869.70" moovel_length="370.08" d="M516,578 L596.5,578.5 L597.5,579.5 L598.5,580.5 L598.5,582 L598.5,583.5 L598,584.5 L597,585.5 L596,586.5 L594.5,587 L415.5,587 " />
<path id="124" stroke-linecap="round" stroke="#6566CC" stroke-width="7.221743051697047" fill="none" moovel_neighborhood="Golden Gate Park" moovel_area="1039.10" moovel_cumulative_area="392908.80" moovel_length="106.03" d="M405.5,587 L329,587 " />
<path id="125" stroke-linecap="round" stroke="#6566CC" stroke-width="7.221743051697047" fill="none" moovel_neighborhood="Golden Gate Park" moovel_area="1769.09" moovel_cumulative_area="394677.89" moovel_length="180.52" d="M319,587 L187.5,587 " />
<path id="126" stroke-linecap="round" stroke="#6566CC" stroke-width="7.221743051697047" fill="none" moovel_neighborhood="Golden Gate Park" moovel_area="3874.53" moovel_cumulative_area="398552.42" moovel_length="1177.01" d="M178,587 L77,587.5 L29,587 L16,587.5 L15,588.5 L14,590 L13.5,591 L13.5,592.5 L14,594 L15,595 L16.5,596 L17.5,596.5 L178,596 L489,595.5 L596.5,596.5 L597.5,597.5 L598.5,598.5 L598.5,600 L598.5,601.5 L598,602.5 L596.5,603.5 L595.5,604.5 L493.5,604.5 " />
<path id="131" stroke-linecap="round" stroke="#6566CC" stroke-width="7.221743051697047" fill="none" moovel_neighborhood="Mint Hill" moovel_area="484.79" moovel_cumulative_area="399037.21" moovel_length="49.47" d="M484,605.5 L449,605.5 " />
<path id="132" stroke-linecap="round" stroke="#6566CC" stroke-width="7.221743051697047" fill="none" moovel_neighborhood="Mint Hill" moovel_area="351.42" moovel_cumulative_area="399388.63" moovel_length="35.86" d="M438.5,605.5 L413.5,605.5 " />
<path id="133" stroke-linecap="round" stroke="#6566CC" stroke-width="7.221743051697047" fill="none" moovel_name="Alexander Zuckermann Bay Bridge Trail" moovel_neighborhood="Yerba Buena Island" moovel_area="10973.70" moovel_cumulative_area="410362.33" moovel_length="3321.34" d="M403.5,605.5 L246.5,606 L16.5,606.5 L15.5,607 L14.5,608 L14,609.5 L14,611 L14.5,612 L15,613 L16,614 L17.5,614.5 L596,615 L597,616 L597.5,617 L598,618.5 L598,620 L597.5,621.5 L597,623 L595.5,623.5 L594.5,624 L349.5,624.5 L15.5,625.5 L14.5,626.5 L14,628 L14,629 L14,630.5 L15,631.5 L16,632.5 L17.5,633 L434.5,632.5 L596,633 L597,634 L598,635.5 L598.5,637 L598,638.5 L598,639.5 L597,641 L595.5,642 L475,642.5 L325,642 L322.5,642 " />
<path id="135" stroke-linecap="round" stroke="#6566CC" stroke-width="7.221743051697047" fill="none" moovel_name="Duboce Avenue" moovel_neighborhood="Mint Hill" moovel_area="2358.03" moovel_cumulative_area="412720.36" moovel_length="240.62" d="M313,642.5 L137,642.5 " />
<path id="137" stroke-linecap="round" stroke="#6566CC" stroke-width="7.221743051697047" fill="none" moovel_neighborhood="Mission Bay" moovel_area="146.95" moovel_cumulative_area="412867.31" moovel_length="44.64" d="M127.5,642.5 L96,642.5 " />
<path id="140" stroke-linecap="round" stroke="#6566CC" stroke-width="7.221743051697047" fill="none" moovel_neighborhood="Panhandle" moovel_area="1495.29" moovel_cumulative_area="414362.60" moovel_length="152.58" d="M85.5,642.5 L50.5,642 L30,642.5 L28.5,642 L17.5,642.5 L15,643.5 L14,644.5 L13.5,646 L13.5,647 L14,648.5 L14.5,649.5 L15.5,650.5 L16.5,651.5 L47,651.5 " />
<path id="142" stroke-linecap="round" stroke="#6566CC" stroke-width="7.221743051697047" fill="none" moovel_neighborhood="Presidio National Park" moovel_area="4236.90" moovel_cumulative_area="418599.50" moovel_length="432.34" d="M57.5,651.5 L295,651 L372.5,651.5 L374,651.5 " />
<path id="151" stroke-linecap="round" stroke="#6566CC" stroke-width="7.221743051697047" fill="none" moovel_name="Market Street" moovel_neighborhood="Civic Center" moovel_area="150.84" moovel_cumulative_area="418750.34" moovel_length="67.08" d="M384,651.5 L432,651.5 " />
<path id="153" stroke-linecap="round" stroke="#6566CC" stroke-width="7.221743051697047" fill="none" moovel_neighborhood="Presidio National Park" moovel_area="1087.65" moovel_cumulative_area="419837.99" moovel_length="110.98" d="M441.5,651.5 L522,651.5 " />
<path id="168" stroke-linecap="round" stroke="#6566CC" stroke-width="7.221743051697047" fill="none" moovel_neighborhood="Mission Bay" moovel_area="1370.44" moovel_cumulative_area="421208.43" moovel_length="139.84" d="M532,651.5 L595.5,652 L596.5,652.5 L597.5,653.5 L598.5,655 L598.5,656.5 L598,657.5 L597.5,659 L596.5,660 L595,660.5 L593.5,661 L568.5,661 " />
<path id="169" stroke-linecap="round" stroke="#6566CC" stroke-width="7.221743051697047" fill="none" moovel_neighborhood="Golden Gate Park" moovel_area="1184.71" moovel_cumulative_area="422393.14" moovel_length="120.89" d="M558.5,661 L557,660.5 L475.5,661 L471,661 " />
<path id="170" stroke-linecap="round" stroke="#6566CC" stroke-width="7.221743051697047" fill="none" moovel_name="UPN Bikepath" moovel_neighborhood="Parkmerced" moovel_area="447.15" moovel_cumulative_area="422840.29" moovel_length="91.25" d="M461,661 L455.5,660.5 L447.5,661 L395,661 " />
<path id="171" stroke-linecap="round" stroke="#6566CC" stroke-width="7.221743051697047" fill="none" moovel_neighborhood="Parkmerced" moovel_area="380.14" moovel_cumulative_area="423220.43" moovel_length="38.79" d="M385.5,661 L358,661 " />
<path id="173" stroke-linecap="round" stroke="#6566CC" stroke-width="7.221743051697047" fill="none" moovel_neighborhood="Duboce Triangle" moovel_area="688.66" moovel_cumulative_area="423909.09" moovel_length="70.27" d="M348,661 L297.5,661 " />
<path id="176" stroke-linecap="round" stroke="#6566CC" stroke-width="7.221743051697047" fill="none" moovel_name="Ortega Street" moovel_neighborhood="Outer Sunset" moovel_area="939.03" moovel_cumulative_area="424848.12" moovel_length="417.61" d="M288,661 L16,661.5 L15,662 L14,663.5 L13.5,665 L13.5,666 L14,667.5 L15,668.5 L16,669.5 L17,670 L40,670 " />
<path id="182" stroke-linecap="round" stroke="#6566CC" stroke-width="7.221743051697047" fill="none" moovel_neighborhood="Marina" moovel_area="462.29" moovel_cumulative_area="425310.41" moovel_length="47.17" d="M50,670 L83.5,670 " />
<path id="183" stroke-linecap="round" stroke="#6566CC" stroke-width="7.221743051697047" fill="none" moovel_neighborhood="Marina" moovel_area="1293.57" moovel_cumulative_area="426603.98" moovel_length="132.00" d="M93,670 L189,670 " />
<path id="184" stroke-linecap="round" stroke="#6566CC" stroke-width="7.221743051697047" fill="none" moovel_neighborhood="Aquatic Park / Ft. Mason" moovel_area="377.64" moovel_cumulative_area="426981.62" moovel_length="38.53" d="M199,670 L226,670 " />
<path id="185" stroke-linecap="round" stroke="#6566CC" stroke-width="7.221743051697047" fill="none" moovel_neighborhood="Presidio National Park" moovel_area="58.06" moovel_cumulative_area="427039.68" moovel_length="5.92" d="M235.5,670 L238.5,670 " />
<path id="186" stroke-linecap="round" stroke="#6566CC" stroke-width="7.221743051697047" fill="none" moovel_name="Blue Greenway" moovel_neighborhood="India Basin" moovel_area="10135.35" moovel_cumulative_area="437175.03" moovel_length="1034.22" d="M248.5,670 L595.5,670.5 L597,671 L598,672 L598.5,673.5 L598.5,675 L598.5,676 L597.5,677.5 L596.5,678.5 L595,679 L194,679 " />
<path id="187" stroke-linecap="round" stroke="#6566CC" stroke-width="7.221743051697047" fill="none" moovel_neighborhood="India Basin" moovel_area="48.46" moovel_cumulative_area="437223.49" moovel_length="4.94" d="M184,679.5 L181.5,679.5 " />
<path id="193" stroke-linecap="round" stroke="#6566CC" stroke-width="7.221743051697047" fill="none" moovel_neighborhood="Forest Hill" moovel_area="229.97" moovel_cumulative_area="437453.46" moovel_length="82.13" d="M171.5,679.5 L112.5,679.5 " />
<path id="194" stroke-linecap="round" stroke="#6566CC" stroke-width="7.221743051697047" fill="none" moovel_name="Golden Gate Bridge" moovel_neighborhood="Presidio National Park" moovel_area="44905.20" moovel_cumulative_area="482358.66" moovel_length="5479.77" d="M102.5,679.5 L16,680 L15,681 L14,682 L14,683.5 L14,685 L14.5,686 L15,687 L16,688 L17.5,688.5 L151,688 L596.5,688.5 L597.5,689.5 L598,691 L598.5,692.5 L598,694 L597.5,695.5 L596.5,696.5 L595.5,697 L594,697.5 L17.5,698 L15,699 L14,700 L14,701.5 L14,703 L14.5,704.5 L15,705.5 L16.5,706.5 L532.5,706 L595.5,706.5 L597,707 L598,708.5 L598.5,709.5 L598.5,711 L598,712.5 L597.5,713.5 L596.5,714.5 L595,715 L570.5,715.5 L389.5,716 L169.5,716.5 L16.5,717 L15.5,717.5 L14.5,718.5 L14,720 L14,721.5 L14,722.5 L15,724 L16,725 L17.5,725.5 L101,725 L292,724.5 L483.5,724 L596.5,725 L597.5,726 L598,727 L598.5,728.5 L598,730 L597.5,731.5 L596.5,732.5 L595.5,733 L594,733.5 L460,734 L239.5,734.5 L35,735 L16,735.5 L15,736.5 L14,737.5 L13.5,739 L13.5,740.5 L14,742 L15,743 L16.5,744 L19.5,744.5 L22.5,744 L213.5,743.5 L401,743 L408,743 " />
<path id="196" stroke-linecap="round" stroke="#6566CC" stroke-width="7.221743051697047" fill="none" moovel_name="Broadway" moovel_neighborhood="Northern Waterfront" moovel_area="82.59" moovel_cumulative_area="482441.25" moovel_length="8.43" d="M417.5,743.5 L422.5,743.5 " />
<path id="197" stroke-linecap="round" stroke="#6566CC" stroke-width="7.221743051697047" fill="none" moovel_name="Green Street" moovel_neighborhood="Northern Waterfront" moovel_area="88.45" moovel_cumulative_area="482529.70" moovel_length="9.03" d="M433,743.5 L438,743.5 " />
<path id="198" stroke-linecap="round" stroke="#6566CC" stroke-width="7.221743051697047" fill="none" moovel_name="Lombard Street" moovel_neighborhood="Northern Waterfront" moovel_area="75.02" moovel_cumulative_area="482604.72" moovel_length="7.66" d="M448,744 L452.5,743.5 " />
<path id="199" stroke-linecap="round" stroke="#6566CC" stroke-width="7.221743051697047" fill="none" moovel_name="Battery Street" moovel_neighborhood="Northern Waterfront" moovel_area="63.89" moovel_cumulative_area="482668.61" moovel_length="6.52" d="M462.5,743.5 L466,743.5 " />
<path id="200" stroke-linecap="round" stroke="#6566CC" stroke-width="7.221743051697047" fill="none" moovel_neighborhood="Northern Waterfront" moovel_area="100.31" moovel_cumulative_area="482768.92" moovel_length="10.24" d="M475.5,743.5 L482,743.5 " />
<path id="201" stroke-linecap="round" stroke="#6566CC" stroke-width="7.221743051697047" fill="none" moovel_name="Mission Street" moovel_neighborhood="Financial District" moovel_area="122.47" moovel_cumulative_area="482891.39" moovel_length="12.50" d="M492,743.5 L499.5,743.5 " />
<path id="202" stroke-linecap="round" stroke="#6566CC" stroke-width="7.221743051697047" fill="none" moovel_name="Washington Street" moovel_neighborhood="Northern Waterfront" moovel_area="97.87" moovel_cumulative_area="482989.26" moovel_length="9.99" d="M510,743.5 L516,743.5 " />
<path id="203" stroke-linecap="round" stroke="#6566CC" stroke-width="7.221743051697047" fill="none" moovel_neighborhood="Marina" moovel_area="13231.06" moovel_cumulative_area="496220.32" moovel_length="1350.11" d="M526,743.5 L596,744.5 L597,745 L598,746.5 L598.5,748 L598,749.5 L597.5,751 L597,752 L595.5,752.5 L594,753 L381,753.5 L16.5,754 L15.5,754.5 L14.5,756 L14,757 L14,758.5 L14,760 L15,761 L16,762 L17.5,762.5 L265.5,762 L333.5,762.5 L337.5,762.5 " />
<path id="204" stroke-linecap="round" stroke="#6566CC" stroke-width="7.221743051697047" fill="none" moovel_neighborhood="Presidio National Park" moovel_area="3133.76" moovel_cumulative_area="499354.08" moovel_length="319.77" d="M347,762 L351,762.5 L581,762.5 " />
<path id="205" stroke-linecap="round" stroke="#6566CC" stroke-width="7.221743051697047" fill="none" moovel_neighborhood="Golden Gate Park" moovel_area="160.13" moovel_cumulative_area="499514.21" moovel_length="24.32" d="M591,762 L595.5,762.5 L597,763 L598,764.5 L598.5,765.5 L598.5,767 L598.5,768 L597.5,769.5 L597,770.5 L596,771 L594.5,771.5 " />
<path id="207" stroke-linecap="round" stroke="#6566CC" stroke-width="7.221743051697047" fill="none" moovel_neighborhood="Central Waterfront" moovel_area="231.72" moovel_cumulative_area="499745.93" moovel_length="23.64" d="M584,771.5 L568,771.5 " />
<path id="208" stroke-linecap="round" stroke="#6566CC" stroke-width="7.221743051697047" fill="none" moovel_neighborhood="Central Waterfront" moovel_area="24.19" moovel_cumulative_area="499770.12" moovel_length="2.47" d="M558,771.5 L557.5,771.5 " />
<path id="209" stroke-linecap="round" stroke="#6566CC" stroke-width="7.221743051697047" fill="none" moovel_neighborhood="Central Waterfront" moovel_area="270.09" moovel_cumulative_area="500040.21" moovel_length="27.56" d="M547.5,771.5 L528.5,771.5 " />
<path id="210" stroke-linecap="round" stroke="#6566CC" stroke-width="7.221743051697047" fill="none" moovel_neighborhood="Central Waterfront" moovel_area="430.82" moovel_cumulative_area="500471.03" moovel_length="43.96" d="M519,771.5 L488,771.5 " />
<path id="211" stroke-linecap="round" stroke="#6566CC" stroke-width="7.221743051697047" fill="none" moovel_neighborhood="Central Waterfront" moovel_area="163.01" moovel_cumulative_area="500634.04" moovel_length="16.63" d="M478,771.5 L467.5,771.5 " />
<path id="212" stroke-linecap="round" stroke="#6566CC" stroke-width="7.221743051697047" fill="none" moovel_neighborhood="Central Waterfront" moovel_area="92.33" moovel_cumulative_area="500726.37" moovel_length="9.42" d="M457,771.5 L451.5,771.5 " />
<path id="236" stroke-linecap="round" stroke="#6566CC" stroke-width="7.221743051697047" fill="none" moovel_neighborhood="Golden Gate Park" moovel_area="1629.59" moovel_cumulative_area="502355.96" moovel_length="166.28" d="M441,771.5 L320,771.5 " />
<path id="240" stroke-linecap="round" stroke="#6566CC" stroke-width="7.221743051697047" fill="none" moovel_neighborhood="Lakeshore" moovel_area="244.63" moovel_cumulative_area="502600.59" moovel_length="24.96" d="M310.5,771.5 L293,771.5 " />
<path id="241" stroke-linecap="round" stroke="#6566CC" stroke-width="7.221743051697047" fill="none" moovel_name="John Muir Drive" moovel_neighborhood="Lakeshore" moovel_area="2650.85" moovel_cumulative_area="505251.44" moovel_length="1178.90" d="M283,771.5 L73,772 L15,773 L14.5,774 L14,775.5 L14,777 L14,778 L15,779.5 L16,780 L17.5,780.5 L210.5,780 L415.5,779.5 L596.5,780 L597.5,781 L598,782 L598.5,783 L598.5,784.5 L598,786 L597.5,787 " />
<path id="242" stroke-linecap="round" stroke="#6566CC" stroke-width="7.221743051697047" fill="none" moovel_neighborhood="Lakeshore" moovel_area="225.33" moovel_cumulative_area="505476.77" moovel_length="22.99" d="M588,790 L572.5,790 " />
<path id="244" stroke-linecap="round" stroke="#6566CC" stroke-width="7.221743051697047" fill="none" moovel_neighborhood="Lakeshore" moovel_area="227.12" moovel_cumulative_area="505703.89" moovel_length="23.18" d="M562,790 L546.5,790 " />
<path id="245" stroke-linecap="round" stroke="#6566CC" stroke-width="7.221743051697047" fill="none" moovel_neighborhood="Lakeshore" moovel_area="850.34" moovel_cumulative_area="506554.23" moovel_length="86.77" d="M537,789.5 L474,790 " />
<path id="270" stroke-linecap="round" stroke="#6566CC" stroke-width="7.221743051697047" fill="none" moovel_neighborhood="South of Market" moovel_area="1693.24" moovel_cumulative_area="508247.47" moovel_length="172.78" d="M464,790 L462.5,789.5 L339.5,790 L338.5,790 " />
<path id="285" stroke-linecap="round" stroke="#6566CC" stroke-width="7.221743051697047" fill="none" moovel_neighborhood="Presidio National Park" moovel_area="484.04" moovel_cumulative_area="508731.51" moovel_length="147.04" d="M329,789.5 L286,790 L222,789.5 " />
<path id="286" stroke-linecap="round" stroke="#6566CC" stroke-width="7.221743051697047" fill="none" moovel_neighborhood="Presidio National Park" moovel_area="1020.19" moovel_cumulative_area="509751.70" moovel_length="104.10" d="M211.5,790 L210,789.5 L136,789.5 " />
<path id="287" stroke-linecap="round" stroke="#6566CC" stroke-width="7.221743051697047" fill="none" moovel_neighborhood="Presidio National Park" moovel_area="16815.97" moovel_cumulative_area="526567.67" moovel_length="1715.92" d="M126.5,789.5 L16,790 L15,791 L14,792 L13.5,793.5 L13.5,795 L14,796.5 L15,797.5 L16,798.5 L17.5,799 L148,799.5 L514.5,800 L596.5,800.5 L597.5,801.5 L598,802.5 L598.5,804 L598.5,805.5 L598,806.5 L597,807.5 L595.5,808.5 L594,809 L578,808.5 L220.5,808 L45.5,808 " />
<path id="291" stroke-linecap="round" stroke="#6566CC" stroke-width="7.221743051697047" fill="none" moovel_neighborhood="Glen Park" moovel_area="175.75" moovel_cumulative_area="526743.42" moovel_length="17.93" d="M36,808 L24,808 " />
<path id="292" stroke-linecap="round" stroke="#6566CC" stroke-width="7.221743051697047" fill="none" moovel_neighborhood="Panhandle" moovel_area="123.08" moovel_cumulative_area="526866.50" moovel_length="12.56" d="M14.5,810 L14,811 L13.5,812 L13.5,813.5 L14,815 L15,816 L16,816.5 " />
<path id="294" stroke-linecap="round" stroke="#6566CC" stroke-width="7.221743051697047" fill="none" moovel_neighborhood="Presidio National Park" moovel_area="3039.41" moovel_cumulative_area="529905.91" moovel_length="310.14" d="M25,817.5 L147.5,817 L250.5,817.5 L252,817.5 " />
<path id="295" stroke-linecap="round" stroke="#6566CC" stroke-width="7.221743051697047" fill="none" moovel_neighborhood="Lower Haight" moovel_area="93.57" moovel_cumulative_area="529999.48" moovel_length="41.61" d="M262.5,817.5 L292,817.5 " />
<path id="296" stroke-linecap="round" stroke="#6566CC" stroke-width="7.221743051697047" fill="none" moovel_neighborhood="Lower Haight" moovel_area="814.46" moovel_cumulative_area="530813.94" moovel_length="83.11" d="M302.5,817.5 L362,817.5 " />
<path id="301" stroke-linecap="round" stroke="#6566CC" stroke-width="7.221743051697047" fill="none" moovel_name="Howard Street" moovel_neighborhood="Financial District" moovel_area="114.27" moovel_cumulative_area="530928.21" moovel_length="11.66" d="M372,817.5 L379,817.5 " />
<path id="302" stroke-linecap="round" stroke="#6566CC" stroke-width="7.221743051697047" fill="none" moovel_neighborhood="Northern Waterfront" moovel_area="96.51" moovel_cumulative_area="531024.72" moovel_length="9.85" d="M388.5,817.5 L394.5,817.5 " />
<path id="303" stroke-linecap="round" stroke="#6566CC" stroke-width="7.221743051697047" fill="none" moovel_neighborhood="Northern Waterfront" moovel_area="89.86" moovel_cumulative_area="531114.58" moovel_length="9.17" d="M404,817.5 L409.5,817.5 " />
<path id="305" stroke-linecap="round" stroke="#6566CC" stroke-width="7.221743051697047" fill="none" moovel_neighborhood="Central Waterfront" moovel_area="170.09" moovel_cumulative_area="531284.67" moovel_length="17.36" d="M419,817.5 L430.5,817.5 " />
<path id="306" stroke-linecap="round" stroke="#6566CC" stroke-width="7.221743051697047" fill="none" moovel_neighborhood="Panhandle" moovel_area="68.98" moovel_cumulative_area="531353.65" moovel_length="7.04" d="M440.5,817.5 L444,817.5 " />
<path id="311" stroke-linecap="round" stroke="#6566CC" stroke-width="7.221743051697047" fill="none" moovel_neighborhood="Golden Gate Park" moovel_area="121.12" moovel_cumulative_area="531474.77" moovel_length="12.36" d="M454,817.5 L462,817.5 " />
</svg>
