<?xml version="1.0" encoding="UTF-8" standalone="no"?>
<svg width="610px" height="1171px"  viewport="0 0 610 1171" version="1.1" xmlns="http://www.w3.org/2000/svg" xmlns:xlink="http://www.w3.org/1999/xlink">
<path id="1" stroke-linecap="round" stroke="#6566CC" stroke-width="5" fill="none" moovel_neighborhood="Golden Gate Park" moovel_area="111243.23" moovel_length="7945.95" d="M9.5,3 L15.5,3.5 L34.5,4 L74.5,4.5 L129,5 L185,5.5 L241,6 L298,6.5 L355,7 L412.5,7.5 L469.5,8 L527,8.5 L574,9 L577,9.5 L579,10 L580,10.5 L580,11 L580.5,11.5 L580,12 L579.5,12.5 L578,13 L576,13.5 L523,13 L468,12.5 L413.5,12 L358.5,11.5 L303.5,11 L248,10.5 L193,10 L138,9.5 L83,9 L28,8.5 L6,9 L3.5,9.5 L2.5,10.5 L1.5,11 L0.5,12 L0,13 L-1,14.5 L-1,15.5 L-2,17 L-2,18 L-2,19.5 L-2,20.5 L-2,22 L-1,23 L-1,24.5 L0,25.5 L1,26.5 L2,27.5 L3,28 L4,28.5 L5.5,29 L6.5,29.5 L21.5,30 L87.5,30.5 L152,31 L217.5,31.5 L282.5,32 L347.5,32.5 L412.5,33 L477.5,33.5 L542.5,34 L578,34.5 L581,35 L581.5,35.5 L579.5,36 L515,35.5 L451.5,35 L387.5,34.5 L328.5,34 L270.5,33.5 L213.5,33 L156,32.5 L98.5,32 L41.5,31.5 L5.5,32 L3,33 L1.5,33.5 L0.5,34.5 L-1,35.5 L-1,36.5 L-2,38 L-3,39.5 L-3,41 L-3,42.5 L-3,44 L-3,45.5 L-3,46.5 L-2,48 L-2,49.5 L-1,50.5 L0.5,51.5 L1.5,52.5 L3,53.5 L4,54 L5.5,54.5 L7,55 L63.5,55.5 L133.5,56 L204,56.5 L273.5,57 L343.5,57.5 L413,58 L483,58.5 L553,59 L519,58.5 L447,58 L375,57.5 L304,57 L232,56.5 L160,56 L83,55.5 L4.5,56 L3,56.5 L1.5,57 L0.5,58 L-1,59 L-2,60 L-2,61.5 L-3,62.5 L-4,64 L-4,65.5 L-4,67 L-4,68.5 L-4,70 L-3,71.5 L-3,73 L-2,74.5 L-1,75.5 L0.5,76.5 L1.5,77.5 L3,78.5 L4.5,79 L7,79.5 L63,80 L140,80.5 L217.5,81 L295,81.5 L373,82 L449.5,82.5 L527.5,83 L579,83.5 L581.5,84 L496.5,83.5 L419,83 L341.5,82.5 L264,82 L186.5,81.5 L109,81 L31.5,80.5 L5.5,81 L3,82 L1.5,82.5 L0.5,83.5 L0,84.5 L-1,85.5 L-2,86.5 L-2,88 L-3,89 L-3,90.5 L-3,92 L-3,93 L-3,94.5 L-2,96 L-2,97 L-1,98 L0,99 L1,100 L2,101 L3,101.5 L4.5,102 L5.5,102.5 L13.5,103 L91.5,103.5 L168.5,104 L246.5,104.5 L323.5,105 L401,105.5 L479,106 L555.5,106.5 L576.5,107 L578.5,107.5 L579.5,108 L580,108.5 L580,109 L579,109.5 L578,110 L575,110.5 L514.5,110 L437,109.5 L358.5,109 L287.5,108.5 L220.5,108 L154,107.5 L88,107 L21,106.5 L5.5,107 L4.5,107.5 L3.5,108 L2.5,108.5 L1.5,109 L0.5,110 L0,111 L-1,112 L-1,113 L-1,114.5 L-1,115.5 L-1,116.5 L-1,118 L-1,119 L0,120 L0.5,121 L1,122 L2,122.5 L3,123.5 L4,124 L5,124.5 L8,125 L89.5,125.5 L198,126 L313,126.5 L441.5,126.5 " />
<path id="3" stroke-linecap="round" stroke="#6566CC" stroke-width="5" fill="none" moovel_neighborhood="Golden Gate Park" moovel_area="474.91" moovel_length="100.99" d="M445,124.5 L446.5,124 L462.5,123.5 L502,124 L523.5,124.5 L524,124.5 " />
<path id="4" stroke-linecap="round" stroke="#6566CC" stroke-width="5" fill="none" moovel_neighborhood="Golden Gate Park" moovel_area="2992.20" moovel_length="212.09" d="M526.5,124.5 L573,125 L574.5,125.5 L575,126 L575.5,127 L576,127.5 L576,128 L576.5,129 L576.5,129.5 L576.5,130.5 L576.5,131 L576.5,132 L576.5,133 L576,133.5 L575.5,134 L575,135 L574.5,135.5 L574,136 L572.5,136.5 L571,137 L467.5,137 " />
<path id="5" stroke-linecap="round" stroke="#6566CC" stroke-width="5" fill="none" moovel_neighborhood="Golden Gate Park" moovel_area="3402.36" moovel_length="243.03" d="M465,136.5 L455,136 L280.5,136.5 L274,136.5 " />
<path id="6" stroke-linecap="round" stroke="#6566CC" stroke-width="5" fill="none" moovel_neighborhood="Golden Gate Park" moovel_area="33814.29" moovel_length="3591.59" d="M272,136.5 L225,136 L123.5,135.5 L17.5,135 L7.5,135.5 L5,136 L4.5,136.5 L4,137 L3,137.5 L2.5,138.5 L2,139 L2,140 L1.5,141 L1.5,141.5 L1.5,142.5 L1.5,143.5 L1.5,144.5 L2,145 L2.5,146 L3,147 L3.5,147.5 L4,148 L5,148.5 L6,149 L7.5,149.5 L45.5,150 L111,150.5 L180.5,151 L256.5,151.5 L337.5,152 L426.5,152.5 L516.5,153 L573.5,153.5 L575.5,154 L576,154.5 L577,155 L578,155.5 L578,156 L578.5,157 L578.5,157.5 L578.5,158 L578.5,158.5 L578,159 L577.5,159.5 L577,160 L576.5,160.5 L575,161 L574,161.5 L497,161 L398.5,160.5 L299.5,160 L201,159.5 L102,159 L5.5,159.5 L4,160.5 L3,161 L2.5,161.5 L2,162.5 L1.5,163.5 L1,164 L0.5,165 L0.5,166 L0.5,167 L0.5,168 L1,169 L1.5,170 L2,171 L2.5,171.5 L3,172.5 L4,173 L5,173.5 L5.5,174 L7.5,174.5 L73.5,175 L184.5,175.5 L318.5,176 L454,176.5 L572,177 L574.5,177.5 L575.5,178 L576,178.5 L577,179 L577.5,180 L577.5,180.5 L578,181 L578,181.5 L578,182 L577.5,182.5 L577.5,183 L577,184 L576.5,184.5 L575,185 L574.5,185.5 L573.5,186 L457,185.5 L319.5,185 L242.5,185.5 L234,186 L201.5,185.5 L64,185 L6.5,185.5 L5.5,186 L4.5,186.5 L4,187 L4,187.5 L3.5,188.5 L3.5,189 L3.5,189.5 L3.5,190 L3.5,191 L3.5,191.5 L3.5,192 L4,192.5 L4.5,193 L5,193.5 L5,194 L6,194.5 L7,195 L34.5,195.5 L96,196 L157,196.5 L211,197 L223,197.5 L235,197.5 " />
<path id="7" stroke-linecap="round" stroke="#6566CC" stroke-width="5" fill="none" moovel_neighborhood="Golden Gate Park" moovel_area="9578.67" moovel_length="1018.44" d="M237.5,198 L241.5,198.5 L289.5,199 L572.5,199.5 L574,200 L575.5,200.5 L576,201 L576.5,201.5 L577,202 L577.5,202.5 L577.5,203 L577.5,204 L578,204.5 L577.5,205 L577.5,206 L577,206.5 L577,207 L576.5,207.5 L575.5,208 L575,208.5 L573.5,209 L572,209.5 L505,209 L349,208.5 L244.5,208 L147.5,208.5 L119.5,208.5 " />
<path id="8" stroke-linecap="round" stroke="#6566CC" stroke-width="5" fill="none" moovel_neighborhood="Golden Gate Park" moovel_area="735.92" moovel_length="229.10" d="M117,210 L108,209.5 L6,210 L5,210.5 L4.5,211 L4,211.5 L3.5,212 L3,212.5 L2.5,213.5 L2,214.5 L2,215 L2,216 L2,217 L2,217.5 L2.5,218.5 L2.5,219 L3,220 L3.5,220.5 L4.5,221 L5,221.5 L5.5,222 L6.5,222.5 L61,222.5 " />
<path id="10" stroke-linecap="round" stroke="#6566CC" stroke-width="5" fill="none" moovel_neighborhood="Golden Gate Park" moovel_area="2596.28" moovel_length="276.05" d="M63,222.5 L134,223 L280.5,223 " />
<path id="11" stroke-linecap="round" stroke="#6566CC" stroke-width="5" fill="none" moovel_neighborhood="Golden Gate Park" moovel_area="20496.53" moovel_length="1389.01" d="M282.5,222 L442,221.5 L573,222 L574,222.5 L574.5,223 L575,223.5 L575.5,224.5 L576,225 L576,226 L576.5,226.5 L576.5,227.5 L576.5,228.5 L576.5,229 L576,230 L576,230.5 L575.5,231.5 L575,232 L574.5,232.5 L574,233 L573.5,233.5 L572.5,234 L571,234.5 L413,235 L244,235.5 L114.5,235 L10,235.5 L7,236 L5.5,236.5 L5,237 L4.5,237.5 L4,238 L3.5,238.5 L3.5,239 L3,240 L3,240.5 L3,241.5 L3,242 L3,243 L3.5,243.5 L3.5,244.5 L4,245 L4.5,245.5 L5,246 L5.5,246.5 L7,247 L137.5,246.5 L204.5,247 L215.5,247 " />
<path id="12" stroke-linecap="round" stroke="#6566CC" stroke-width="5" fill="none" moovel_neighborhood="Golden Gate Park" moovel_area="6811.10" moovel_length="486.51" d="M217.5,247 L225.5,247.5 L397,247 L406,246.5 L416.5,246 L454.5,246.5 L464,247 L468.5,247.5 L573.5,248 L574.5,248.5 L575.5,249 L576,249.5 L576.5,250.5 L577,251 L577,251.5 L577.5,252.5 L577.5,253 L577,254 L577,254.5 L576.5,255 L576.5,256 L576,256.5 L575,257 L574.5,257.5 L574,258 L572.5,258.5 L563.5,259 L560,259 " />
<path id="13" stroke-linecap="round" stroke="#6566CC" stroke-width="5" fill="none" moovel_neighborhood="Golden Gate Park" moovel_area="6293.73" moovel_length="669.17" d="M557,259 L547.5,259.5 L456.5,260 L328.5,260.5 L29.5,260 " />
<path id="14" stroke-linecap="round" stroke="#6566CC" stroke-width="5" fill="none" moovel_neighborhood="Golden Gate Park" moovel_area="9505.67" moovel_length="678.98" d="M27.5,258.5 L5.5,259 L4.5,259.5 L4,260 L3.5,260.5 L3,261.5 L2.5,262 L2,263 L2,263.5 L2,264.5 L2,265.5 L2,266.5 L2,267 L2.5,268 L3,268.5 L3.5,269.5 L4,270 L4.5,270.5 L5.5,271 L6,271.5 L8,272 L64,272.5 L224.5,273 L429,273.5 L499.5,273 L505.5,273 " />
<path id="15" stroke-linecap="round" stroke="#6566CC" stroke-width="5" fill="none" moovel_neighborhood="Golden Gate Park" moovel_area="5275.04" moovel_length="1628.09" d="M507.5,271 L508.5,271.5 L572.5,272 L574,272.5 L575,273 L575.5,273.5 L576,274 L576.5,274.5 L576.5,275 L577,275.5 L577,276.5 L577,277 L577,278 L577,278.5 L577,279 L576.5,280 L576,280.5 L575.5,281 L575,281.5 L574,282 L573.5,282.5 L572,283 L518,283.5 L395,283 L367,282.5 L126.5,282 L7,282.5 L5.5,283 L4.5,283.5 L4,284 L3.5,284.5 L3,285.5 L2.5,286 L2,287 L2,288 L2,288.5 L2,289.5 L2,290.5 L2,291 L2.5,292 L3,293 L3.5,293.5 L4,294 L5,294.5 L5.5,295 L6.5,295.5 L23,296 L150.5,296.5 L270,297 L427.5,297.5 L572,298 L574,298.5 L575,299 L576,299.5 L576.5,300 L576.5,301 L577,301.5 L577,302 L577.5,303 L577.5,303.5 L577,304.5 L577,305 L576.5,305.5 L576,306.5 L575.5,307 L575,307.5 L574.5,308 L573,308.5 L547,309 L531,309 " />
<path id="16" stroke-linecap="round" stroke="#6566CC" stroke-width="5" fill="none" moovel_neighborhood="Golden Gate Park" moovel_area="10748.17" moovel_length="1588.65" d="M528.5,307.5 L507.5,307 L374.5,306.5 L328,307 L250.5,307.5 L6,308 L5.5,308.5 L5,309 L4.5,309.5 L4,310 L3.5,310.5 L3.5,311 L3.5,311.5 L3.5,312.5 L3.5,313 L3.5,314 L3.5,314.5 L4,315 L4,315.5 L4.5,316 L5,316.5 L5.5,317 L6.5,317.5 L7.5,318 L134.5,318.5 L298,319 L425.5,319.5 L540.5,320 L572.5,320.5 L574,321 L574.5,321.5 L575,322 L575.5,323 L575.5,323.5 L576,324.5 L576,325 L576,326 L576,327 L576,328 L576,328.5 L575.5,329.5 L575.5,330 L575,331 L574.5,331.5 L574,332 L573,332.5 L572.5,333 L444,332.5 L438,332.5 " />
<path id="17" stroke-linecap="round" stroke="#6566CC" stroke-width="5" fill="none" moovel_neighborhood="Golden Gate Park" moovel_area="1760.40" moovel_length="187.17" d="M435.5,332 L288.5,332 " />
<path id="18" stroke-linecap="round" stroke="#6566CC" stroke-width="5" fill="none" moovel_neighborhood="Golden Gate Park" moovel_area="1375.01" moovel_length="146.20" d="M286.5,332 L172,332 " />
<path id="19" stroke-linecap="round" stroke="#6566CC" stroke-width="5" fill="none" moovel_neighborhood="Golden Gate Park" moovel_area="989.78" moovel_length="105.24" d="M169.5,332 L87.5,332 " />
<path id="20" stroke-linecap="round" stroke="#6566CC" stroke-width="5" fill="none" moovel_neighborhood="Golden Gate Park" moovel_area="1377.19" moovel_length="146.43" d="M85.5,332 L6.5,332.5 L5,333 L4.5,333.5 L4,334 L3.5,334.5 L3,335.5 L3,336 L2.5,337 L2.5,337.5 L2.5,338.5 L2.5,339 L2.5,340 L3,340.5 L3.5,341.5 L4,342 L4.5,342.5 L5,343 L5.5,343.5 L6.5,344 L8,344.5 L27.5,344.5 " />
<path id="21" stroke-linecap="round" stroke="#6566CC" stroke-width="5" fill="none" moovel_neighborhood="Golden Gate Park" moovel_area="18553.81" moovel_length="1325.27" d="M29.5,344.5 L34,345 L86.5,345.5 L187,346 L338.5,346.5 L571.5,347 L574,347.5 L575.5,348 L576.5,348.5 L577,349 L577.5,349.5 L577.5,350 L578,350.5 L578,351 L578,351.5 L578,352 L578,352.5 L577.5,353 L577.5,354 L577,354.5 L575.5,355 L575,355.5 L574,356 L571.5,356.5 L555.5,356 L244.5,355.5 L86,355.5 " />
<path id="23" stroke-linecap="round" stroke="#6566CC" stroke-width="5" fill="none" moovel_neighborhood="Golden Gate Park" moovel_area="1007.81" moovel_length="107.15" d="M83.5,356.5 L82,357 L7,357.5 L5.5,358 L5,358.5 L4.5,359 L4,359.5 L3.5,360 L3.5,360.5 L3,361 L3,361.5 L2.5,362.5 " />
<path id="24" stroke-linecap="round" stroke="#6566CC" stroke-width="5" fill="none" moovel_neighborhood="Golden Gate Park" moovel_area="97.46" moovel_length="6.96" d="M3,364.5 L3,365 L3.5,366 L4,366.5 L4.5,367 L5,367.5 L5.5,368 " />
<path id="25" stroke-linecap="round" stroke="#6566CC" stroke-width="5" fill="none" moovel_neighborhood="Golden Gate Park" moovel_area="317.61" moovel_length="22.69" d="M8,369 L25,368.5 " />
<path id="26" stroke-linecap="round" stroke="#6566CC" stroke-width="5" fill="none" moovel_neighborhood="Golden Gate Park" moovel_area="2870.02" moovel_length="380.71" d="M27.5,369 L325,369.5 L327.5,369.5 " />
<path id="27" stroke-linecap="round" stroke="#6566CC" stroke-width="5" fill="none" moovel_neighborhood="Golden Gate Park" moovel_area="838.95" moovel_length="89.20" d="M330,368.5 L399.5,368.5 " />
<path id="28" stroke-linecap="round" stroke="#6566CC" stroke-width="5" fill="none" moovel_neighborhood="Golden Gate Park" moovel_area="2602.66" moovel_length="577.66" d="M401.5,368.5 L573.5,369 L574,369.5 L574.5,370 L575,370.5 L575.5,371 L576,372 L576,372.5 L576.5,373.5 L576.5,374.5 L576.5,375 L576.5,376 L576,377 L576,377.5 L575.5,378.5 L575,379 L574.5,379.5 L574,380 L573.5,380.5 L573,381 L571.5,381.5 L430,381 L303.5,381 " />
<path id="29" stroke-linecap="round" stroke="#6566CC" stroke-width="5" fill="none" moovel_neighborhood="Golden Gate Park" moovel_area="7368.97" moovel_length="2098.24" d="M301,381 L300.5,380.5 L258,380 L77.5,380.5 L75.5,381 L34,381.5 L6,382 L5.5,382.5 L4.5,383 L4.5,383.5 L4,384.5 L3.5,385 L3.5,385.5 L3.5,386 L3.5,387 L3.5,387.5 L4,388 L4,388.5 L4.5,389 L5,389.5 L5,390 L5.5,390.5 L6.5,391 L7.5,391.5 L58,391 L572.5,391.5 L573,392 L573.5,392.5 L574,393 L574.5,393.5 L575,394.5 L575,395.5 L575,396 L575.5,397 L575.5,398 L575.5,399 L575.5,400 L575,401 L575,401.5 L574.5,402.5 L574,403.5 L573.5,404 L573,404.5 L572.5,405 L572,405.5 L500,406 L7,406.5 L6,407 L5.5,407.5 L4.5,408 L4,408.5 L4,409.5 L4,410 L4,410.5 L4,411 L4,411.5 L4,412 L4,412.5 L4.5,413 L4.5,413.5 L5,414 L5.5,414.5 L6,415 L7,415.5 L115.5,416 L184,416.5 L189,417 L189.5,417 " />
<path id="31" stroke-linecap="round" stroke="#6566CC" stroke-width="5" fill="none" moovel_neighborhood="Golden Gate Park" moovel_area="2006.26" moovel_length="199.71" d="M192,417.5 L237,418 L349,417.5 " />
<path id="35" stroke-linecap="round" stroke="#6566CC" stroke-width="5" fill="none" moovel_neighborhood="Golden Gate Park" moovel_area="2254.97" moovel_length="161.07" d="M351.5,417.5 L353.5,418 L390,417.5 L427.5,418 L433,417.5 L478,417.5 " />
<path id="36" stroke-linecap="round" stroke="#6566CC" stroke-width="5" fill="none" moovel_neighborhood="Golden Gate Park" moovel_area="2259.61" moovel_length="161.40" d="M480,417.5 L515.5,418 L556.5,417.5 L572.5,418 L574,418.5 L574.5,419 L575,419.5 L575.5,420 L576,420.5 L576.5,421 L576.5,422 L577,422.5 L577,423.5 L577,424 L577,425 L576.5,425.5 L576,426.5 L576,427 L575.5,427.5 L574.5,428 L574,428.5 L573.5,429 L572.5,429.5 L554,429.5 " />
<path id="37" stroke-linecap="round" stroke="#6566CC" stroke-width="5" fill="none" moovel_neighborhood="Golden Gate Park" moovel_area="595.58" moovel_length="42.54" d="M552,430 L519,430 " />
<path id="41" stroke-linecap="round" stroke="#6566CC" stroke-width="5" fill="none" moovel_neighborhood="Golden Gate Park" moovel_area="34540.39" moovel_length="3577.70" d="M516.5,430 L404,430.5 L235.5,431 L67,431.5 L6,432 L5.5,432.5 L5,433 L4.5,433.5 L4,434 L3.5,434.5 L3.5,435 L3,436 L3,436.5 L3,437 L3,438 L3.5,438.5 L3.5,439.5 L4,440 L4.5,440.5 L5,441 L5.5,441.5 L6,442 L7.5,442.5 L124.5,442 L329,441.5 L530,441 L572,441.5 L573.5,442 L574,442.5 L574.5,443 L575,444 L575.5,444.5 L575.5,445.5 L576,446 L576,447 L576,448 L576,448.5 L576,449.5 L576,450.5 L575.5,451 L575,452 L574.5,452.5 L574,453 L573.5,453.5 L573,454 L572.5,454.5 L571,455 L404.5,455.5 L225.5,456 L46,456.5 L6.5,457 L5.5,457.5 L5,458 L4.5,458.5 L4,459 L4,460 L3.5,460.5 L3.5,461 L3.5,462 L3.5,462.5 L3.5,463 L4,463.5 L4,464.5 L4.5,465 L5,465.5 L5.5,466 L6.5,466.5 L8,467 L50,466.5 L170,466 L289.5,465.5 L409,465 L532.5,464.5 L572,465 L573.5,465.5 L574,466 L574.5,466.5 L575,467 L575,468 L575.5,468.5 L576,469.5 L576,470.5 L576,471 L576,472 L576,473 L576,474 L575.5,474.5 L575,475.5 L575,476 L574.5,477 L574,477.5 L573,478 L572,478.5 L527,479 L383.5,479.5 L271.5,480 L190.5,480.5 L24,480 L22,479.5 L18.5,479.5 " />
<path id="42" stroke-linecap="round" stroke="#6566CC" stroke-width="5" fill="none" moovel_neighborhood="Golden Gate Park" moovel_area="29933.36" moovel_length="3182.62" d="M16,479 L7,479.5 L5.5,480 L5,480.5 L4.5,481 L4,481.5 L3.5,482 L3.5,482.5 L3,483.5 L3,484 L3,485 L3,485.5 L3,486 L3.5,487 L4,487.5 L4,488 L4.5,488.5 L5,489 L6,489.5 L6.5,490 L10,490.5 L43.5,490 L191,489.5 L278,489 L340.5,488.5 L381.5,488 L432,487.5 L481,487 L531,486.5 L573,487 L574,487.5 L574.5,488.5 L575,489 L575.5,489.5 L576,490.5 L576,491 L576.5,492 L576.5,493 L576.5,493.5 L576,494.5 L576,495.5 L575.5,496 L575.5,497 L575,497.5 L574.5,498 L574,498.5 L573,499 L572,499.5 L551,500 L506.5,500.5 L463,501 L421.5,501.5 L379.5,502 L337,502.5 L296.5,503 L256.5,503.5 L215.5,504 L175.5,504.5 L145.5,505 L112,505.5 L78,506 L48,506.5 L15.5,507 L6.5,507.5 L6,508 L4.5,508.5 L4.5,509 L4,510 L3.5,510.5 L3.5,511 L3.5,512 L3.5,512.5 L3.5,513.5 L3.5,514 L4,514.5 L4,515.5 L4.5,516 L5,516.5 L5.5,517 L6.5,517.5 L7.5,518 L21,517.5 L48,517 L77.5,516.5 L104.5,516 L128.5,515.5 L158,515 L184.5,514.5 L209,514 L236,513.5 L263,513 L286.5,512.5 L311.5,512 L337.5,511.5 L363,511 L389.5,510.5 L414,510 L437.5,509.5 L462.5,509 L488.5,508.5 L516,508 L538.5,507.5 L563,507 L572.5,507.5 L573.5,508 L574.5,508.5 L575,509 L575.5,509.5 L575.5,510 L576,511 L576.5,511.5 L576.5,512.5 L576.5,513.5 L576.5,514 L576.5,515 L576.5,516 L576,516.5 L576,517.5 L575.5,518 L575,518.5 L574.5,519 L573.5,519.5 L573,520 L571.5,520.5 L556,521 L532,521.5 L506.5,522 L483.5,522.5 L460,523 L435.5,523.5 L411.5,524 L389,524.5 L366,525 L340.5,525.5 L317.5,526 L295,526.5 L270,527 L247,527.5 L225,528 L202.5,528.5 L177,529 L154.5,529.5 L131.5,530 L108.5,530.5 L86.5,531 L65.5,531.5 L43.5,532 L20,532.5 L7,533 L6.5,533.5 L5.5,534 L5,534.5 L4.5,535.5 L4.5,536 L4,536.5 L4,537.5 L4,538 L4,538.5 L4,539 L4,540 L4.5,540.5 L5,541 L5,541.5 L5.5,542 L6,542.5 L6.5,543 L8,543.5 L18.5,543 L40,542.5 L62.5,542 L84,541.5 L103,541 L123,540.5 L145.5,540 L167,540.5 L169.5,540.5 " />
<path id="43" stroke-linecap="round" stroke="#6566CC" stroke-width="5" fill="none" moovel_neighborhood="Golden Gate Park" moovel_area="6392.87" moovel_length="456.63" d="M171,539.5 L172.5,540 L247,540.5 L353,541 L415.5,541.5 L531,541.5 " />
<path id="44" stroke-linecap="round" stroke="#6566CC" stroke-width="5" fill="none" moovel_neighborhood="Golden Gate Park" moovel_area="925.41" moovel_length="66.10" d="M533.5,539.5 L552,540 L573,540.5 L574.5,541 L575,541.5 L575.5,542 L576,542.5 L576.5,543.5 L576.5,544 L577,545 L577,545.5 L577,546.5 L576.5,547 L576.5,548 L576,548.5 L576,549 L575.5,550 " />
<path id="45" stroke-linecap="round" stroke="#6566CC" stroke-width="5" fill="none" moovel_neighborhood="Golden Gate Park" moovel_area="63.07" moovel_length="4.51" d="M573.5,551 L573,551.5 L571.5,552 L571,552 " />
<path id="46" stroke-linecap="round" stroke="#6566CC" stroke-width="5" fill="none" moovel_neighborhood="Golden Gate Park" moovel_area="2633.62" moovel_length="188.12" d="M568,551.5 L520,551 L463.5,551.5 L420.5,551.5 " />
<path id="47" stroke-linecap="round" stroke="#6566CC" stroke-width="5" fill="none" moovel_neighborhood="Golden Gate Park" moovel_area="11650.17" moovel_length="832.16" d="M418,552 L398.5,552.5 L200.5,552 L5.5,552.5 L5,553 L4,553.5 L3.5,554 L3,555 L2.5,555.5 L2,556.5 L2,557 L1.5,558 L1.5,559 L1.5,559.5 L2,560.5 L2,561.5 L2.5,562 L3,563 L3.5,563.5 L4,564 L5,564.5 L5.5,565 L6.5,565.5 L8,566 L91,565.5 L126.5,566 L229,565.5 L236,565.5 " />
<path id="48" stroke-linecap="round" stroke="#6566CC" stroke-width="5" fill="none" moovel_neighborhood="Golden Gate Park" moovel_area="1038.63" moovel_length="110.43" d="M238,564 L324.5,564 " />
<path id="49" stroke-linecap="round" stroke="#6566CC" stroke-width="5" fill="none" moovel_neighborhood="Golden Gate Park" moovel_area="27869.69" moovel_length="2963.21" d="M326.5,564 L451.5,564.5 L573,565 L574,565.5 L575,566 L575.5,566.5 L576,567 L576.5,567.5 L576.5,568.5 L577,569 L577,570 L577,570.5 L577,571.5 L576.5,572 L576.5,573 L576,573.5 L575.5,574 L575,575 L573.5,575.5 L573,576 L571.5,576.5 L522,576 L235,575.5 L5.5,576 L5,576.5 L4.5,577 L4,577.5 L3.5,578 L3,579 L2.5,579.5 L2.5,580.5 L2.5,581.5 L2.5,582 L2.5,583 L2.5,583.5 L3,584.5 L3.5,585 L4,586 L4.5,586.5 L5,587 L5.5,587.5 L7,588 L100.5,588.5 L305,589 L510,589.5 L573.5,590 L574,590.5 L575,591 L575.5,591.5 L576,592 L576.5,592.5 L576.5,593 L577,594 L577,594.5 L577,595.5 L577,596 L577,597 L576.5,597.5 L576,598.5 L575.5,599 L575,599.5 L574.5,600 L573.5,600.5 L572,601 L434.5,600.5 L214.5,600 L5.5,600.5 L5,601 L4.5,601.5 L4,602 L3.5,602.5 L3,603 L2.5,604 L2.5,604.5 L2,605.5 L2,606 L2,607 L2.5,608 L2.5,608.5 L3,609.5 L3.5,610 L4,610.5 L4.5,611 L5,611.5 L6,612 L6.5,612.5 L43.5,613 L186.5,613.5 L325.5,614 L339,614 " />
<path id="50" stroke-linecap="round" stroke="#6566CC" stroke-width="5" fill="none" moovel_neighborhood="Golden Gate Park" moovel_area="528.44" moovel_length="37.75" d="M341.5,613 L370.5,613 " />
<path id="51" stroke-linecap="round" stroke="#6566CC" stroke-width="5" fill="none" moovel_neighborhood="Golden Gate Park" moovel_area="1084.11" moovel_length="77.44" d="M373,613 L382.5,613.5 L392,613 L433.5,613 " />
<path id="52" stroke-linecap="round" stroke="#6566CC" stroke-width="5" fill="none" moovel_neighborhood="Golden Gate Park" moovel_area="181.42" moovel_length="12.96" d="M435.5,613 L445,613 " />
<path id="53" stroke-linecap="round" stroke="#6566CC" stroke-width="5" fill="none" moovel_neighborhood="Golden Gate Park" moovel_area="1303.32" moovel_length="93.09" d="M447.5,613 L469,613.5 L515,613 L520,613 " />
<path id="54" stroke-linecap="round" stroke="#6566CC" stroke-width="5" fill="none" moovel_neighborhood="Golden Gate Park" moovel_area="1885.78" moovel_length="134.70" d="M522.5,612.5 L573,613 L573.5,613.5 L574.5,614 L575,614.5 L575.5,615 L575.5,615.5 L576,616.5 L576.5,617 L576.5,618 L576.5,619 L576.5,619.5 L576.5,620.5 L576,621.5 L576,622 L575.5,622.5 L575,623.5 L574.5,624 L574,624.5 L573,625 L571,625.5 L563,625 L533,625 " />
<path id="55" stroke-linecap="round" stroke="#6566CC" stroke-width="5" fill="none" moovel_neighborhood="Golden Gate Park" moovel_area="3025.60" moovel_length="216.11" d="M530,625 L528.5,624.5 L493,624 L378.5,624.5 L360.5,625 " />
<path id="57" stroke-linecap="round" stroke="#6566CC" stroke-width="5" fill="none" moovel_neighborhood="Golden Gate Park" moovel_area="1222.26" moovel_length="87.30" d="M358,625 L356.5,625.5 L341,625 L290,625 " />
<path id="59" stroke-linecap="round" stroke="#6566CC" stroke-width="5" fill="none" moovel_neighborhood="Golden Gate Park" moovel_area="44.11" moovel_length="9.38" d="M288,625 L281.5,625 " />
<path id="61" stroke-linecap="round" stroke="#6566CC" stroke-width="5" fill="none" moovel_neighborhood="Golden Gate Park" moovel_area="3547.40" moovel_length="377.17" d="M279,625 L136,625.5 L77,625 L7.5,625.5 L6,626 L4.5,626.5 L4,627.5 L3.5,628 L3,628.5 L3,629.5 L2.5,630 L2.5,631 L2.5,631.5 L2.5,632.5 L2.5,633 L3,634 L3.5,634.5 L4,635.5 L4.5,636 L5,636.5 L5.5,637 L7,637.5 L15.5,637.5 " />
<path id="62" stroke-linecap="round" stroke="#6566CC" stroke-width="5" fill="none" moovel_neighborhood="Golden Gate Park" moovel_area="683.08" moovel_length="48.79" d="M18,637 L41.5,637.5 L48.5,638 L50.5,637.5 L55.5,637.5 " />
<path id="64" stroke-linecap="round" stroke="#6566CC" stroke-width="5" fill="none" moovel_neighborhood="Golden Gate Park" moovel_area="4428.12" moovel_length="326.39" d="M58,637.5 L62.5,638 L103.5,637.5 L110,637 L147.5,636.5 L312.5,637 L315,637 " />
<path id="65" stroke-linecap="round" stroke="#6566CC" stroke-width="5" fill="none" moovel_neighborhood="Golden Gate Park" moovel_area="7056.35" moovel_length="504.02" d="M317,637 L361.5,636.5 L513.5,637 L573,637.5 L573.5,638 L574.5,638.5 L575,639 L575,640 L575.5,640.5 L576,641.5 L576,642 L576,643 L576,644 L576,644.5 L576,645.5 L575.5,646.5 L575.5,647 L575,648 L574.5,648.5 L574,649 L573.5,649.5 L573,650 L570.5,650.5 L457.5,650 L446.5,649.5 " />
<path id="66" stroke-linecap="round" stroke="#6566CC" stroke-width="5" fill="none" moovel_neighborhood="Golden Gate Park" moovel_area="640.11" moovel_length="45.72" d="M444.5,649.5 L409,649.5 " />
<path id="67" stroke-linecap="round" stroke="#6566CC" stroke-width="5" fill="none" moovel_neighborhood="Golden Gate Park" moovel_area="415.06" moovel_length="29.65" d="M406.5,649.5 L384,649.5 " />
<path id="68" stroke-linecap="round" stroke="#6566CC" stroke-width="5" fill="none" moovel_neighborhood="Golden Gate Park" moovel_area="22246.44" moovel_length="1353.92" d="M381.5,649.5 L367,649 L104,648.5 L6.5,649 L5,649.5 L4.5,650 L4,650.5 L3.5,651.5 L3,652 L2.5,652.5 L2.5,653.5 L2,654.5 L2,655 L2,656 L2.5,656.5 L2.5,657.5 L3,658 L3.5,659 L4,659.5 L4.5,660 L5.5,660.5 L6,661 L7.5,661.5 L574,662 L574.5,662.5 L575,663 L575.5,663.5 L576,664 L576.5,665 L576.5,665.5 L577,666.5 L577,667 L577,668 L577,668.5 L576.5,669.5 L576,670 L576,670.5 L575.5,671 L574.5,671.5 L574,672 L573.5,672.5 L572.5,673 L476,673 " />
<path id="71" stroke-linecap="round" stroke="#6566CC" stroke-width="5" fill="none" moovel_neighborhood="Golden Gate Park" moovel_area="25293.29" moovel_length="1806.66" d="M474,673.5 L435,673 L312,673.5 L288,674 L271.5,674.5 L158.5,675 L21,675.5 L6.5,676 L5.5,676.5 L5,677 L4.5,677.5 L4.5,678 L4,678.5 L4,679 L4,679.5 L4,680 L4,681 L4,681.5 L4.5,682 L4.5,682.5 L5,683 L5.5,683.5 L6,684 L7,684.5 L443,684 L571.5,684.5 L572.5,685 L573.5,685.5 L574,686.5 L574.5,687 L575,688 L575,688.5 L575.5,689.5 L575.5,690.5 L575.5,691.5 L575.5,692.5 L575.5,693.5 L575.5,694 L575,695 L574.5,696 L574.5,696.5 L574,697 L573.5,698 L572.5,698.5 L571.5,699 L349,699.5 L222,699 L211,699 " />
<path id="72" stroke-linecap="round" stroke="#6566CC" stroke-width="5" fill="none" moovel_neighborhood="Golden Gate Park" moovel_area="236.05" moovel_length="16.86" d="M209,698.5 L196.5,698.5 " />
<path id="75" stroke-linecap="round" stroke="#6566CC" stroke-width="5" fill="none" moovel_neighborhood="Golden Gate Park" moovel_area="8988.82" moovel_length="955.72" d="M194,698.5 L171.5,699 L66.5,699.5 L7,700 L5.5,700.5 L5,701 L4.5,701.5 L4.5,702 L4,702.5 L3.5,703 L3.5,703.5 L3.5,704.5 L3.5,705 L3.5,705.5 L3.5,706 L4,707 L4,707.5 L4.5,708 L5,708.5 L5.5,709 L6,709.5 L7.5,710 L63,709.5 L188,709 L445.5,708.5 L557.5,709 " />
<path id="80" stroke-linecap="round" stroke="#6566CC" stroke-width="5" fill="none" moovel_neighborhood="Golden Gate Park" moovel_area="24006.48" moovel_length="1354.67" d="M560,710.5 L572,711 L573.5,711.5 L574.5,712 L575,712.5 L575.5,713 L576,713.5 L576.5,714 L576.5,715 L577,715.5 L577,716.5 L577,717 L577,718 L576.5,718.5 L576.5,719 L576,720 L575.5,720.5 L575,721 L574.5,721.5 L573.5,722 L572,722.5 L294,722 L6,722.5 L5.5,723 L4.5,723.5 L4,724 L3.5,724.5 L3,725 L2.5,726 L2.5,726.5 L2.5,727.5 L2.5,728.5 L2.5,729 L2.5,730 L3,730.5 L3,731.5 L3.5,732 L4,732.5 L4.5,733.5 L6,734 L7,734.5 L75.5,735 L293,735.5 L466,735.5 " />
<path id="85" stroke-linecap="round" stroke="#6566CC" stroke-width="5" fill="none" moovel_neighborhood="Golden Gate Park" moovel_area="1345.26" moovel_length="96.09" d="M468,735 L470.5,734.5 L471,735 L479,735.5 L542,735 L543.5,735 " />
<path id="87" stroke-linecap="round" stroke="#6566CC" stroke-width="5" fill="none" moovel_neighborhood="Golden Gate Park" moovel_area="4606.87" moovel_length="329.06" d="M545.5,734.5 L573,735 L574,735.5 L574.5,736 L575,736.5 L575.5,737.5 L575.5,738 L576,739 L576,739.5 L576.5,740.5 L576.5,741.5 L576,742 L576,743 L576,743.5 L575.5,744.5 L575,745 L574.5,745.5 L574,746 L573.5,746.5 L356,747 " />
<path id="88" stroke-linecap="round" stroke="#6566CC" stroke-width="5" fill="none" moovel_neighborhood="Golden Gate Park" moovel_area="586.20" moovel_length="41.87" d="M354,747 L321.5,747 " />
<path id="89" stroke-linecap="round" stroke="#6566CC" stroke-width="5" fill="none" moovel_neighborhood="Golden Gate Park" moovel_area="10277.13" moovel_length="734.08" d="M319,747.5 L303.5,748 L232.5,748.5 L151.5,749 L27,749.5 L6.5,750 L5.5,750.5 L5,751 L4.5,751.5 L4,752 L4,752.5 L4,753 L4,754 L4,754.5 L4,755 L4,755.5 L4,756.5 L4.5,757 L5,757.5 L5.5,758 L6.5,758.5 L7.5,759 L75,758.5 L200,758 L241.5,758.5 L257.5,759 " />
<path id="91" stroke-linecap="round" stroke="#6566CC" stroke-width="5" fill="none" moovel_neighborhood="Golden Gate Park" moovel_area="1835.21" moovel_length="131.09" d="M259.5,759 L262.5,758.5 L351.5,759 L362.5,759.5 " />
<path id="96" stroke-linecap="round" stroke="#6566CC" stroke-width="5" fill="none" moovel_neighborhood="Golden Gate Park" moovel_area="115.99" moovel_length="36.11" d="M364.5,759.5 L365.5,759 L392,759.5 " />
<path id="102" stroke-linecap="round" stroke="#6566CC" stroke-width="5" fill="none" moovel_neighborhood="Golden Gate Park" moovel_area="1289.50" moovel_length="92.11" d="M394.5,759 L466.5,759.5 " />
<path id="109" stroke-linecap="round" stroke="#6566CC" stroke-width="5" fill="none" moovel_neighborhood="Golden Gate Park" moovel_area="6253.92" moovel_length="446.71" d="M468.5,759.5 L508.5,760 L560.5,759.5 L571.5,760 L573.5,760.5 L574.5,761 L575,761.5 L575.5,762 L576,762.5 L576.5,763 L576.5,764 L577,764.5 L577,765.5 L577,766 L577,767 L576.5,767.5 L576.5,768 L576,769 L575.5,769.5 L575,770 L574,770.5 L573.5,771 L572,771.5 L549.5,771 L490.5,770.5 L420.5,771 L413.5,771.5 L405,771 L385.5,770.5 L340,770.5 " />
<path id="110" stroke-linecap="round" stroke="#6566CC" stroke-width="5" fill="none" moovel_neighborhood="Golden Gate Park" moovel_area="9805.59" moovel_length="700.40" d="M337.5,771.5 L334.5,771 L268,770.5 L110,771 L101,771.5 L6.5,772 L5.5,772.5 L4.5,773 L4,773.5 L4,774 L3.5,775 L3.5,775.5 L3,776 L3,777 L3.5,777.5 L3.5,778 L3.5,779 L4,779.5 L4.5,780 L4.5,780.5 L5,781 L5.5,781.5 L7,782 L50,782.5 L91.5,783 L104.5,783.5 L126,784 L212.5,784 " />
<path id="111" stroke-linecap="round" stroke="#6566CC" stroke-width="5" fill="none" moovel_neighborhood="Golden Gate Park" moovel_area="1998.81" moovel_length="142.77" d="M215,784 L250,784.5 L301,784 L307.5,783.5 L327,784 " />
<path id="112" stroke-linecap="round" stroke="#6566CC" stroke-width="5" fill="none" moovel_neighborhood="Golden Gate Park" moovel_area="3385.60" moovel_length="241.83" d="M329.5,783.5 L377.5,783 L388.5,783.5 L519.5,783.5 " />
<path id="113" stroke-linecap="round" stroke="#6566CC" stroke-width="5" fill="none" moovel_neighborhood="Golden Gate Park" moovel_area="2198.38" moovel_length="157.03" d="M522,783.5 L572.5,784 L574,784.5 L574.5,785 L575,785.5 L575.5,786 L576,787 L576,787.5 L576.5,788.5 L576.5,789 L576.5,790 L576.5,790.5 L576.5,791.5 L576,792 L576,793 L575.5,793.5 L575,794 L574.5,794.5 L574,795 L573,795.5 L572.5,796 L565.5,795.5 L518.5,796 L515.5,796 " />
<path id="114" stroke-linecap="round" stroke="#6566CC" stroke-width="5" fill="none" moovel_neighborhood="Golden Gate Park" moovel_area="1270.14" moovel_length="395.40" d="M513,796 L512.5,795.5 L477,795 L201.5,795.5 " />
<path id="116" stroke-linecap="round" stroke="#6566CC" stroke-width="5" fill="none" moovel_neighborhood="Golden Gate Park" moovel_area="14724.19" moovel_length="1051.73" d="M199,796 L197,796.5 L177,797 L7,797.5 L6,798 L5.5,798.5 L4.5,799 L4.5,799.5 L4,800.5 L4,801 L4,801.5 L3.5,802 L4,803 L4,803.5 L4,804 L4.5,804.5 L5,805 L5,805.5 L5.5,806 L6,806.5 L7.5,807 L355,807.5 L358.5,808 L537.5,807.5 L573.5,808 L575,808.5 L575.5,809 L576.5,809.5 L577,810 L577,810.5 L577.5,811 L577.5,812 L577.5,812.5 L577.5,813 L577.5,814 L577,814.5 L577,815 L576.5,815.5 L576,816 L575,816.5 L574.5,817 L574,817.5 L572,818 L550.5,818.5 L532,818.5 " />
<path id="120" stroke-linecap="round" stroke="#6566CC" stroke-width="5" fill="none" moovel_neighborhood="Golden Gate Park" moovel_area="2717.85" moovel_length="288.97" d="M530,820 L506.5,819.5 L314.5,820 L302.5,820 " />
<path id="122" stroke-linecap="round" stroke="#6566CC" stroke-width="5" fill="none" moovel_neighborhood="Golden Gate Park" moovel_area="114.40" moovel_length="8.17" d="M300.5,820.5 L294.5,820.5 " />
<path id="123" stroke-linecap="round" stroke="#6566CC" stroke-width="5" fill="none" moovel_neighborhood="Golden Gate Park" moovel_area="5181.19" moovel_length="370.08" d="M292.5,820 L286,819.5 L222,819 L114,819.5 L58.5,820 L41.5,820.5 L24,820 L5.5,820.5 L5,821 L4.5,821.5 L4,822 L3.5,822.5 L3,823 L3,823.5 L3,824.5 " />
<path id="124" stroke-linecap="round" stroke="#6566CC" stroke-width="5" fill="none" moovel_neighborhood="Golden Gate Park" moovel_area="1484.43" moovel_length="106.03" d="M2.5,827 L2.5,827.5 L2.5,828.5 L3,829 L3,830 L3.5,830.5 L4,831 L5,831.5 L5.5,832 L6.5,832.5 L8,833 L82,832.5 " />
<path id="125" stroke-linecap="round" stroke="#6566CC" stroke-width="5" fill="none" moovel_neighborhood="Golden Gate Park" moovel_area="2527.26" moovel_length="180.52" d="M84.5,833 L114.5,833.5 L177,833 L226,833 " />
<path id="126" stroke-linecap="round" stroke="#6566CC" stroke-width="5" fill="none" moovel_neighborhood="Golden Gate Park" moovel_area="5535.04" moovel_length="1177.01" d="M229,832.5 L234,832 L392.5,832.5 L402.5,833 L465,832.5 L492,832 L556,831.5 L571.5,832 L573.5,832.5 L574.5,833 L575,833.5 L575.5,834 L576,835 L576,835.5 L576.5,836.5 L576.5,837 L576.5,838 L576.5,838.5 L576.5,839.5 L576,840 L576,841 L575.5,841.5 L575,842.5 L574.5,843 L574,843.5 L573.5,844 L572,844.5 L531,845 L425.5,845.5 L367,845 L214,845.5 L127,846 L55.5,846.5 L6.5,847 L6,847.5 L4.5,848 L4,848.5 " />
<path id="131" stroke-linecap="round" stroke="#6566CC" stroke-width="5" fill="none" moovel_neighborhood="Golden Gate Park" moovel_area="692.55" moovel_length="49.47" d="M3,848.5 L2.5,849.5 L2.5,850 L2.5,851 L2.5,851.5 L2.5,852.5 L2.5,853 L3,854 L3.5,854.5 L4,855.5 L4.5,856 L5,856.5 L6.5,857 L8,857.5 L32.5,857 L35,857 " />
<path id="132" stroke-linecap="round" stroke="#6566CC" stroke-width="5" fill="none" moovel_neighborhood="Golden Gate Park" moovel_area="502.03" moovel_length="35.86" d="M37,857 L37.5,856.5 L63,857 L64.5,857 " />
<path id="133" stroke-linecap="round" stroke="#6566CC" stroke-width="5" fill="none" moovel_neighborhood="Golden Gate Park" moovel_area="15676.72" moovel_length="3321.34" d="M67,857 L67.5,856.5 L88.5,856 L153,855.5 L275.5,855 L423,854.5 L572.5,855 L573,855.5 L573.5,856 L574,857 L574.5,857.5 L574.5,858.5 L575,859.5 L575,860.5 L575,861.5 L575,862.5 L575,863.5 L575,864.5 L575,865 L574.5,866 L574,867 L574,867.5 L573.5,868.5 L573,869 L572.5,869.5 L571.5,870 L459.5,870.5 L300.5,871 L143,871.5 L7.5,872 L6,872.5 L6,873 L5.5,873.5 L5,874 L4.5,874.5 L4.5,875 L4.5,876 L4.5,876.5 L4.5,877 L5,877.5 L5,878 L5.5,878.5 L6,879 L6.5,879.5 L7.5,880 L150.5,879.5 L389.5,879 L572.5,879.5 L573,880 L573.5,880.5 L574,881.5 L574.5,882 L575,883 L575,884 L575,885 L575.5,886 L575.5,887 L575,888 L575,889 L575,890 L574.5,890.5 L574.5,891.5 L574,892 L573.5,893 L573,893.5 L572.5,894 L571.5,894.5 L426.5,895 L222,895.5 L17.5,896 L6.5,896.5 L6,897 L5,897.5 L4.5,898 L4.5,898.5 L4,899.5 L4,900 L4,900.5 L4,901 L4,902 L4,902.5 L4.5,903 L5,903.5 L5,904 L5.5,904.5 L6,905 L7.5,905.5 L303,905 L336,905.5 L358,906 L362.5,906 " />
<path id="135" stroke-linecap="round" stroke="#6566CC" stroke-width="5" fill="none" moovel_neighborhood="Golden Gate Park" moovel_area="3368.62" moovel_length="240.62" d="M364.5,906 L367.5,906.5 L548.5,906 L553.5,906 " />
<path id="137" stroke-linecap="round" stroke="#6566CC" stroke-width="5" fill="none" moovel_neighborhood="Golden Gate Park" moovel_area="209.93" moovel_length="44.64" d="M556.5,906 L573.5,906.5 L574,907 L574.5,907.5 L575.5,908 L576,908.5 L576,909 L576.5,910 L576.5,910.5 L577,911.5 L577,912.5 L576.5,913 L576.5,914 L576,914.5 L576,915.5 L575.5,916 L575,916.5 L574,917 L573.5,917.5 L572,918 L569.5,918 " />
<path id="140" stroke-linecap="round" stroke="#6566CC" stroke-width="5" fill="none" moovel_neighborhood="Golden Gate Park" moovel_area="2136.13" moovel_length="152.58" d="M567,918 L561,917.5 L468.5,918 L464,918.5 L448.5,918 L447.5,918 " />
<path id="142" stroke-linecap="round" stroke="#6566CC" stroke-width="5" fill="none" moovel_neighborhood="Golden Gate Park" moovel_area="6052.71" moovel_length="432.34" d="M445,918.5 L365,919 L272,919.5 L196,920 L115.5,919.5 L104.5,919 " />
<path id="151" stroke-linecap="round" stroke="#6566CC" stroke-width="5" fill="none" moovel_neighborhood="Golden Gate Park" moovel_area="215.49" moovel_length="67.08" d="M102.5,918 L50,918 " />
<path id="153" stroke-linecap="round" stroke="#6566CC" stroke-width="5" fill="none" moovel_neighborhood="Golden Gate Park" moovel_area="1553.79" moovel_length="110.98" d="M48,918.5 L7,919 L6,919.5 L5,920 L4.5,920.5 L4,921.5 L3.5,922 L3.5,922.5 L3,923 L3,924 L3,924.5 L3,925.5 L3.5,926 L3.5,926.5 L4,927 L4.5,928 L5,928.5 L6,929 L6.5,929.5 L8.5,930 L37,930.5 " />
<path id="168" stroke-linecap="round" stroke="#6566CC" stroke-width="5" fill="none" moovel_neighborhood="Golden Gate Park" moovel_area="1957.77" moovel_length="139.84" d="M39.5,930.5 L86,930 L149,930 " />
<path id="169" stroke-linecap="round" stroke="#6566CC" stroke-width="5" fill="none" moovel_neighborhood="Golden Gate Park" moovel_area="1692.45" moovel_length="120.89" d="M151.5,930.5 L156,931 L216.5,930.5 L246,930.5 " />
<path id="170" stroke-linecap="round" stroke="#6566CC" stroke-width="5" fill="none" moovel_neighborhood="Golden Gate Park" moovel_area="638.78" moovel_length="91.25" d="M248.5,930.5 L270.5,930 L319.5,930.5 " />
<path id="171" stroke-linecap="round" stroke="#6566CC" stroke-width="5" fill="none" moovel_neighborhood="Golden Gate Park" moovel_area="543.06" moovel_length="38.79" d="M321.5,930.5 L328,930 L351.5,930.5 " />
<path id="173" stroke-linecap="round" stroke="#6566CC" stroke-width="5" fill="none" moovel_neighborhood="Golden Gate Park" moovel_area="983.80" moovel_length="70.27" d="M354,930 L409,930.5 " />
<path id="176" stroke-linecap="round" stroke="#6566CC" stroke-width="5" fill="none" moovel_neighborhood="Golden Gate Park" moovel_area="1341.48" moovel_length="417.61" d="M411,930.5 L573,931 L574,931.5 L575,932 L575.5,933 L576,933.5 L576.5,934 L576.5,935 L577,935.5 L577,936.5 L577,937 L576.5,938 L576.5,938.5 L576,939.5 L575.5,940 L575,940.5 L574.5,941 L574,941.5 L573.5,942 L572,942.5 L421,942.5 " />
<path id="182" stroke-linecap="round" stroke="#6566CC" stroke-width="5" fill="none" moovel_neighborhood="Golden Gate Park" moovel_area="660.41" moovel_length="47.17" d="M418.5,942.5 L411,943 L392.5,942.5 L382,942.5 " />
<path id="183" stroke-linecap="round" stroke="#6566CC" stroke-width="5" fill="none" moovel_neighborhood="Golden Gate Park" moovel_area="1847.96" moovel_length="132.00" d="M379.5,942.5 L379,942 L277,942.5 L276,942.5 " />
<path id="184" stroke-linecap="round" stroke="#6566CC" stroke-width="5" fill="none" moovel_neighborhood="Golden Gate Park" moovel_area="539.49" moovel_length="38.53" d="M274,942.5 L272.5,943 L245.5,942.5 L244,942.5 " />
<path id="185" stroke-linecap="round" stroke="#6566CC" stroke-width="5" fill="none" moovel_neighborhood="Golden Gate Park" moovel_area="82.94" moovel_length="5.92" d="M241.5,942.5 L237.5,942.5 " />
<path id="186" stroke-linecap="round" stroke="#6566CC" stroke-width="5" fill="none" moovel_neighborhood="Golden Gate Park" moovel_area="14479.07" moovel_length="1034.22" d="M235,942 L216,941.5 L109.5,942 L5.5,942.5 L5,943 L4,943.5 L3.5,944 L3,945 L2.5,945.5 L2,946.5 L2,947 L2,948 L2,949 L2,950 L2,950.5 L2.5,951.5 L3,952 L3.5,953 L4,953.5 L4.5,954 L5.5,954.5 L6.5,955 L8,955.5 L572,956 L573.5,956.5 L575,957 L575.5,957.5 L576,958.5 L576.5,959 L576.5,959.5 " />
<path id="187" stroke-linecap="round" stroke="#6566CC" stroke-width="5" fill="none" moovel_neighborhood="Golden Gate Park" moovel_area="69.22" moovel_length="4.94" d="M576.5,961.5 L576.5,962.5 L576.5,963 L576,964 L575.5,964.5 " />
<path id="193" stroke-linecap="round" stroke="#6566CC" stroke-width="5" fill="none" moovel_neighborhood="Golden Gate Park" moovel_area="328.52" moovel_length="82.13" d="M574,966 L573,966.5 L571.5,967 L510,967 " />
<path id="194" stroke-linecap="round" stroke="#6566CC" stroke-width="5" fill="none" moovel_neighborhood="Golden Gate Park" moovel_area="64150.28" moovel_length="5479.77" d="M507.5,967 L505,967.5 L453,968 L244.5,968.5 L7,969 L6,969.5 L5.5,970 L4.5,970.5 L4,971.5 L4,972 L3.5,972.5 L3.5,973 L3.5,974 L3.5,974.5 L3.5,975 L4,976 L4,976.5 L4.5,977 L5,977.5 L5.5,978 L6,978.5 L7.5,979 L90.5,978.5 L249,978 L408.5,977.5 L568,977 L571,977.5 L573,978 L573.5,978.5 L574,979 L574.5,979.5 L575,980 L575.5,981 L576,981.5 L576,982.5 L576,983.5 L576,984.5 L576,985 L576,986 L575.5,987 L575.5,987.5 L575,988.5 L574.5,989 L574,989.5 L573.5,990 L572.5,990.5 L571.5,991 L481.5,991.5 L351.5,992 L221,992.5 L91,993 L6.5,993.5 L5.5,994 L5,994.5 L4.5,995 L4,995.5 L3.5,996.5 L3,997 L3,998 L3,998.5 L3,999.5 L3,1000 L3,1001 L3.5,1001.5 L4,1002 L4.5,1002.5 L5,1003 L5.5,1003.5 L6,1004 L7,1004.5 L42,1005 L183.5,1004.5 L396,1004 L409,1003.5 L433.5,1003 L503,1002.5 L573,1003 L573.5,1003.5 L574,1004 L574.5,1004.5 L575,1005 L575,1006 L575.5,1006.5 L575.5,1007.5 L575.5,1008.5 L576,1009 L576,1010 L576,1011 L575.5,1011.5 L575.5,1012.5 L575,1013.5 L575,1014 L574.5,1014.5 L574,1015.5 L573.5,1016 L572.5,1016.5 L571,1017 L463.5,1017.5 L304,1018 L144.5,1018.5 L7.5,1019 L6.5,1019.5 L5.5,1020 L5,1020.5 L4.5,1021 L4,1021.5 L4,1022.5 L4,1023 L3.5,1023.5 L3.5,1024.5 L4,1025 L4,1025.5 L4.5,1026 L4.5,1026.5 L5,1027.5 L6,1028 L6.5,1028.5 L8,1029 L44,1028.5 L164,1028 L283,1027.5 L402.5,1027 L521.5,1026.5 L572.5,1027 L574,1027.5 L574.5,1028 L575,1028.5 L575.5,1029 L576,1030 L576,1030.5 L576.5,1031.5 L576.5,1032.5 L576.5,1033 L576.5,1034 L576.5,1035 L576,1035.5 L576,1036.5 L575.5,1037 L575,1038 L574.5,1038.5 L574,1039 L573,1039.5 L572,1040 L491.5,1040.5 L456.5,1040 L400.5,1040.5 L305,1041 L209.5,1041.5 L114,1042 L19,1042.5 L6,1043 L5,1043.5 L4.5,1044 L3.5,1044.5 L3,1045.5 L2.5,1046 L2.5,1047 L2,1048 L2,1048.5 L2,1049.5 L2,1050.5 L2.5,1051.5 L2.5,1052 L3,1053 L3.5,1053.5 L4,1054.5 L5,1055 L5.5,1055.5 L6.5,1056 L82.5,1055.5 L160.5,1055 L229,1054.5 L282.5,1054 L324.5,1053.5 L327.5,1053.5 " />
<path id="196" stroke-linecap="round" stroke="#6566CC" stroke-width="5" fill="none" moovel_neighborhood="Golden Gate Park" moovel_area="117.98" moovel_length="8.43" d="M329,1052.5 L335,1052.5 " />
<path id="197" stroke-linecap="round" stroke="#6566CC" stroke-width="5" fill="none" moovel_neighborhood="Golden Gate Park" moovel_area="126.36" moovel_length="9.03" d="M337,1052.5 L343.5,1052.5 " />
<path id="198" stroke-linecap="round" stroke="#6566CC" stroke-width="5" fill="none" moovel_neighborhood="Golden Gate Park" moovel_area="107.17" moovel_length="7.66" d="M345.5,1052.5 L351,1052.5 " />
<path id="199" stroke-linecap="round" stroke="#6566CC" stroke-width="5" fill="none" moovel_neighborhood="Golden Gate Park" moovel_area="91.28" moovel_length="6.52" d="M353.5,1052.5 L358,1052.5 " />
<path id="200" stroke-linecap="round" stroke="#6566CC" stroke-width="5" fill="none" moovel_neighborhood="Golden Gate Park" moovel_area="143.30" moovel_length="10.24" d="M360.5,1052.5 L368,1052.5 " />
<path id="201" stroke-linecap="round" stroke="#6566CC" stroke-width="5" fill="none" moovel_neighborhood="Golden Gate Park" moovel_area="174.95" moovel_length="12.50" d="M370,1052.5 L379.5,1052.5 " />
<path id="202" stroke-linecap="round" stroke="#6566CC" stroke-width="5" fill="none" moovel_neighborhood="Golden Gate Park" moovel_area="139.81" moovel_length="9.99" d="M382,1052.5 L389,1052.5 " />
<path id="203" stroke-linecap="round" stroke="#6566CC" stroke-width="5" fill="none" moovel_neighborhood="Golden Gate Park" moovel_area="18901.52" moovel_length="1350.11" d="M391.5,1052 L466,1051.5 L569,1051 L571,1051.5 L573,1052 L573.5,1052.5 L574,1053 L574.5,1053.5 L575,1054.5 L575.5,1055 L575.5,1056 L576,1057 L576,1057.5 L576,1058.5 L576,1059.5 L575.5,1060.5 L575.5,1061 L575,1062 L575,1062.5 L574.5,1063.5 L574,1064 L573,1064.5 L572,1065 L547.5,1065.5 L437.5,1066 L328,1066.5 L217.5,1067 L107,1067.5 L7.5,1068 L6,1068.5 L5.5,1069 L5,1069.5 L4.5,1070 L4.5,1070.5 L4,1071 L4,1071.5 L4,1072 L4,1072.5 L4,1073.5 L4,1074 L4.5,1074.5 L4.5,1075 L5,1075.5 L5.5,1076 L6,1076.5 L7,1077 L136,1076.5 L281.5,1077 L292.5,1077.5 L294,1077.5 " />
<path id="204" stroke-linecap="round" stroke="#6566CC" stroke-width="5" fill="none" moovel_neighborhood="Golden Gate Park" moovel_area="4476.80" moovel_length="319.77" d="M296.5,1077 L314.5,1077.5 L548,1077 " />
<path id="205" stroke-linecap="round" stroke="#6566CC" stroke-width="5" fill="none" moovel_neighborhood="Golden Gate Park" moovel_area="228.76" moovel_length="24.32" d="M550.5,1077 L568.5,1076.5 L569,1076.5 " />
<path id="207" stroke-linecap="round" stroke="#6566CC" stroke-width="5" fill="none" moovel_neighborhood="Golden Gate Park" moovel_area="331.03" moovel_length="23.64" d="M571,1076.5 L573,1077 L574,1077.5 L574.5,1078 L575,1078.5 L575.5,1079 L575.5,1079.5 L576,1080 L576,1080.5 L576,1081 L576.5,1082 L576.5,1082.5 L576.5,1083.5 L576,1084.5 L576,1085 L576,1086 L575.5,1086.5 L575,1087 L574.5,1087.5 L574,1088 L573.5,1088.5 L573,1089 L571.5,1089 " />
<path id="208" stroke-linecap="round" stroke="#6566CC" stroke-width="5" fill="none" moovel_neighborhood="Golden Gate Park" moovel_area="34.55" moovel_length="2.47" d="M569,1089 L567.5,1089 " />
<path id="209" stroke-linecap="round" stroke="#6566CC" stroke-width="5" fill="none" moovel_neighborhood="Golden Gate Park" moovel_area="385.85" moovel_length="27.56" d="M565.5,1089 L565,1088.5 L548,1089 L545,1089 " />
<path id="210" stroke-linecap="round" stroke="#6566CC" stroke-width="5" fill="none" moovel_neighborhood="Golden Gate Park" moovel_area="615.45" moovel_length="43.96" d="M542,1089 L533.5,1089.5 L510.5,1089 L508,1089 " />
<path id="211" stroke-linecap="round" stroke="#6566CC" stroke-width="5" fill="none" moovel_neighborhood="Golden Gate Park" moovel_area="232.88" moovel_length="16.63" d="M506,1089 L493.5,1089 " />
<path id="212" stroke-linecap="round" stroke="#6566CC" stroke-width="5" fill="none" moovel_neighborhood="Golden Gate Park" moovel_area="131.90" moovel_length="9.42" d="M491,1089 L490,1088.5 L485.5,1089 L484,1089 " />
<path id="236" stroke-linecap="round" stroke="#6566CC" stroke-width="5" fill="none" moovel_neighborhood="Golden Gate Park" moovel_area="2327.99" moovel_length="166.28" d="M482,1089 L481,1089.5 L476,1089 L471.5,1089.5 L433.5,1089 L432,1088.5 L412.5,1089 L409,1089.5 L371,1089 L351.5,1089 " />
<path id="240" stroke-linecap="round" stroke="#6566CC" stroke-width="5" fill="none" moovel_neighborhood="Golden Gate Park" moovel_area="349.47" moovel_length="24.96" d="M349.5,1089 L330.5,1089 " />
<path id="241" stroke-linecap="round" stroke="#6566CC" stroke-width="5" fill="none" moovel_neighborhood="Golden Gate Park" moovel_area="3786.93" moovel_length="1178.90" d="M328,1089 L326.5,1089.5 L285,1090 L188.5,1090.5 L9,1091 L6.5,1091.5 L5.5,1092 L5,1092.5 L4.5,1093 L4,1093.5 L4,1094 L3.5,1095 L3.5,1095.5 L3.5,1096 L3.5,1096.5 L4,1097.5 L4,1098 L4.5,1098.5 L4.5,1099 L5,1099.5 L5.5,1100 L7,1100.5 L8,1101 L34.5,1100.5 L121.5,1100 L202.5,1099.5 L310,1099 L445,1099.5 L535,1099 L573.5,1099.5 L575,1100 L575.5,1100.5 L576,1101 L576.5,1101.5 L577,1102.5 L577,1103 L577.5,1104 L577.5,1104.5 L577.5,1105 L577,1106 L577,1106.5 L576.5,1107 L576,1107.5 L575.5,1108 L575,1108.5 L574.5,1109 L573.5,1109.5 L572,1110 L563.5,1110.5 L561,1110.5 " />
<path id="242" stroke-linecap="round" stroke="#6566CC" stroke-width="5" fill="none" moovel_neighborhood="Golden Gate Park" moovel_area="321.90" moovel_length="22.99" d="M559,1113.5 L541.5,1113.5 " />
<path id="244" stroke-linecap="round" stroke="#6566CC" stroke-width="5" fill="none" moovel_neighborhood="Golden Gate Park" moovel_area="324.45" moovel_length="23.18" d="M539,1113.5 L521.5,1113.5 " />
<path id="245" stroke-linecap="round" stroke="#6566CC" stroke-width="5" fill="none" moovel_neighborhood="Golden Gate Park" moovel_area="1214.77" moovel_length="86.77" d="M519.5,1113 L500,1112.5 L462.5,1113 L451.5,1113.5 " />
<path id="270" stroke-linecap="round" stroke="#6566CC" stroke-width="5" fill="none" moovel_neighborhood="Golden Gate Park" moovel_area="2418.92" moovel_length="172.78" d="M449.5,1113.5 L448.5,1113 L316,1113.5 L313.5,1113.5 " />
<path id="285" stroke-linecap="round" stroke="#6566CC" stroke-width="5" fill="none" moovel_neighborhood="Golden Gate Park" moovel_area="691.49" moovel_length="147.04" d="M311,1113 L265.5,1113.5 L262.5,1114 L210,1113.5 L196,1113 " />
<path id="286" stroke-linecap="round" stroke="#6566CC" stroke-width="5" fill="none" moovel_neighborhood="Golden Gate Park" moovel_area="1457.41" moovel_length="104.10" d="M193.5,1113.5 L193,1113 L112,1113.5 " />
<path id="287" stroke-linecap="round" stroke="#6566CC" stroke-width="5" fill="none" moovel_neighborhood="Golden Gate Park" moovel_area="24022.81" moovel_length="1715.92" d="M110,1113 L74.5,1112.5 L6.5,1113 L4.5,1113.5 L4,1114 L3.5,1114.5 L3,1115.5 L2.5,1116 L2,1117 L2,1117.5 L1.5,1118.5 L1.5,1119.5 L1.5,1120 L2,1121 L2,1122 L2.5,1122.5 L3,1123.5 L3.5,1124 L4,1124.5 L4.5,1125 L5.5,1125.5 L6,1126 L7,1126.5 L75.5,1127 L185.5,1127.5 L295.5,1128 L471,1128.5 L572,1129 L574.5,1129.5 L575,1130 L576,1130.5 L576.5,1131 L577,1131.5 L577.5,1132 L577.5,1132.5 L577.5,1133 L578,1134 L577.5,1134.5 L577.5,1135 L577,1135.5 L577,1136.5 L576.5,1137 L575.5,1137.5 L575,1138 L573.5,1138.5 L571.5,1139 L554,1138.5 L429.5,1138 L305,1137.5 L180.5,1137 L55.5,1136.5 L6.5,1137 L5,1137.5 L4.5,1138 L3.5,1138.5 L3,1139 L2.5,1140 L2.5,1140.5 L2,1141.5 L2,1142 L1.5,1143 L1.5,1144 L2,1144.5 L2,1145.5 L2.5,1146.5 L3,1147 L3.5,1147.5 L4,1148.5 L4.5,1149 L5.5,1149.5 L7,1150 L79,1150 " />
<path id="291" stroke-linecap="round" stroke="#6566CC" stroke-width="5" fill="none" moovel_neighborhood="Golden Gate Park" moovel_area="251.06" moovel_length="17.93" d="M81,1150 L94.5,1150 " />
<path id="292" stroke-linecap="round" stroke="#6566CC" stroke-width="5" fill="none" moovel_neighborhood="Golden Gate Park" moovel_area="175.82" moovel_length="12.56" d="M97,1150 L106,1150 " />
<path id="294" stroke-linecap="round" stroke="#6566CC" stroke-width="5" fill="none" moovel_neighborhood="Golden Gate Park" moovel_area="4342.02" moovel_length="310.14" d="M109,1150 L110.5,1149.5 L166.5,1149 L348,1149.5 L353,1149.5 " />
<path id="295" stroke-linecap="round" stroke="#6566CC" stroke-width="5" fill="none" moovel_neighborhood="Golden Gate Park" moovel_area="133.67" moovel_length="41.61" d="M355,1150 L365.5,1150.5 L366,1150 L387,1150 " />
<path id="296" stroke-linecap="round" stroke="#6566CC" stroke-width="5" fill="none" moovel_neighborhood="Golden Gate Park" moovel_area="1163.51" moovel_length="83.11" d="M389.5,1150 L454.5,1150 " />
<path id="301" stroke-linecap="round" stroke="#6566CC" stroke-width="5" fill="none" moovel_neighborhood="Golden Gate Park" moovel_area="163.24" moovel_length="11.66" d="M457,1150 L465,1150 " />
<path id="302" stroke-linecap="round" stroke="#6566CC" stroke-width="5" fill="none" moovel_neighborhood="Golden Gate Park" moovel_area="137.87" moovel_length="9.85" d="M468,1150 L475,1150 " />
<path id="303" stroke-linecap="round" stroke="#6566CC" stroke-width="5" fill="none" moovel_neighborhood="Golden Gate Park" moovel_area="128.38" moovel_length="9.17" d="M477,1150 L483.5,1150 " />
<path id="305" stroke-linecap="round" stroke="#6566CC" stroke-width="5" fill="none" moovel_neighborhood="Golden Gate Park" moovel_area="242.98" moovel_length="17.36" d="M486,1150 L499,1150 " />
<path id="306" stroke-linecap="round" stroke="#6566CC" stroke-width="5" fill="none" moovel_neighborhood="Golden Gate Park" moovel_area="98.55" moovel_length="7.04" d="M501,1150 L505.5,1150 " />
<path id="311" stroke-linecap="round" stroke="#6566CC" stroke-width="5" fill="none" moovel_neighborhood="Golden Gate Park" moovel_area="173.02" moovel_length="12.36" d="M508,1150 L517,1150 " />
</svg>
