<?xml version="1.0" encoding="UTF-8" standalone="no"?>
<svg width="610px" height="1723px"  viewport="0 0 610 1723" version="1.1" xmlns="http://www.w3.org/2000/svg" xmlns:xlink="http://www.w3.org/1999/xlink">
<path id="1" stroke-linecap="round" stroke="#6566CC" stroke-width="5" fill="none" moovel_neighborhood="Crocker Amazon" moovel_area="347.65" moovel_length="38.01" d="M6.5,2.5 L7,2 L35,2.5 L35.5,2.5 " />
<path id="2" stroke-linecap="round" stroke="#6566CC" stroke-width="5" fill="none" moovel_neighborhood="Crocker Amazon" moovel_area="17868.33" moovel_length="1953.89" d="M38,2.5 L40,2 L91.5,1.5 L180,1 L272,0.5 L375.5,0 L536.5,-1 L568.5,0 L569,0.5 L569.5,1.5 L569.5,2 L570,3.5 L570,4.5 L569.5,5.5 L569.5,6.5 L569,7 L569,8 L568.5,8.5 L487,9 L366,9.5 L245.5,10 L121,10.5 L5,11 L4,11.5 L4,12 L3.5,12.5 L3.5,13 L3.5,13.5 L3.5,14 L4,14.5 L4.5,15 L5.5,15.5 L27,15 L149.5,14.5 L263.5,14 L435,14 " />
<path id="3" stroke-linecap="round" stroke="#6566CC" stroke-width="5" fill="none" moovel_neighborhood="Crocker Amazon" moovel_area="766.06" moovel_length="83.77" d="M437.5,15.5 L503,15.5 " />
<path id="4" stroke-linecap="round" stroke="#6566CC" stroke-width="5" fill="none" moovel_neighborhood="Crocker Amazon" moovel_area="7546.73" moovel_length="825.23" d="M505.5,15 L569,15.5 L569.5,16 L570,16.5 L570.5,17 L571,18 L571,19 L571,19.5 L570.5,20.5 L570.5,21 L569.5,21.5 L446,21 L286.5,20.5 L127,20 L25,20.5 L4,21 L3,21.5 L2.5,22.5 L2.5,23 L2,24 L2.5,24.5 L2.5,25.5 L3,26 L3.5,26.5 L4,27 L4.5,27.5 L11.5,27.5 " />
<path id="5" stroke-linecap="round" stroke="#6566CC" stroke-width="5" fill="none" moovel_neighborhood="Crocker Amazon" moovel_area="1780.81" moovel_length="194.73" d="M13.5,28.5 L19.5,28 L31.5,28.5 L48.5,29 L165,28.5 L166.5,28.5 " />
<path id="6" stroke-linecap="round" stroke="#6566CC" stroke-width="5" fill="none" moovel_neighborhood="Crocker Amazon" moovel_area="47352.95" moovel_length="5178.02" d="M169,28 L288.5,27.5 L569,28 L569.5,28.5 L570,29.5 L570,30 L570.5,31 L570.5,32 L570,33 L570,34 L569.5,34.5 L569,35 L568.5,35.5 L402,36 L4.5,36.5 L4,37 L3.5,37.5 L3.5,38 L3.5,38.5 L3.5,39 L4,39.5 L4,40 L4.5,40.5 L5.5,41 L53.5,40.5 L569,41 L569,41.5 L569.5,42.5 L570,43 L570,44 L570,45 L570,46 L569.5,47 L569.5,48 L569,48.5 L568.5,49 L229.5,49.5 L4.5,50 L4,50.5 L3.5,51 L3.5,51.5 L4,52 L4,52.5 L4.5,53 L5,53.5 L222,53 L568.5,53.5 L569,54 L569.5,54.5 L569.5,55.5 L570,56.5 L570,57.5 L570,59 L569.5,59.5 L569.5,60.5 L569,61.5 L568,62 L140.5,62.5 L4.5,63 L4,63.5 L4,64 L4,64.5 L4,65 L4,65.5 L4.5,66 L533.5,65.5 L568.5,66 L569,66.5 L569.5,67 L569.5,68 L569.5,69 L569.5,70.5 L569.5,71.5 L569.5,72.5 L569.5,73.5 L569,74 L568.5,74.5 L568,75 L397.5,74.5 L368,74 L338.5,74.5 L324.5,74.5 " />
<path id="7" stroke-linecap="round" stroke="#6566CC" stroke-width="5" fill="none" moovel_neighborhood="Crocker Amazon" moovel_area="167.92" moovel_length="18.36" d="M321.5,74 L308,74 " />
<path id="8" stroke-linecap="round" stroke="#6566CC" stroke-width="5" fill="none" moovel_neighborhood="Crocker Amazon" moovel_area="1914.54" moovel_length="209.35" d="M306,74 L245,74.5 L141.5,74 " />
<path id="9" stroke-linecap="round" stroke="#6566CC" stroke-width="5" fill="none" moovel_neighborhood="Crocker Amazon" moovel_area="896.75" moovel_length="98.06" d="M139.5,73.5 L131.5,73 L89.5,73.5 L63,74 " />
<path id="10" stroke-linecap="round" stroke="#6566CC" stroke-width="5" fill="none" moovel_neighborhood="Crocker Amazon" moovel_area="548.34" moovel_length="59.96" d="M60.5,74 L14,74 " />
<path id="11" stroke-linecap="round" stroke="#6566CC" stroke-width="5" fill="none" moovel_neighborhood="Crocker Amazon" moovel_area="606.23" moovel_length="66.29" d="M11.5,73.5 L4,74 L3.5,74.5 L3,75 L2.5,75.5 L2,76.5 L2,77.5 L2.5,78.5 L2.5,79 L3,80 L4,80.5 L5.5,81 L38.5,80.5 L41.5,80.5 " />
<path id="12" stroke-linecap="round" stroke="#6566CC" stroke-width="5" fill="none" moovel_neighborhood="Crocker Amazon" moovel_area="292.85" moovel_length="32.02" d="M43.5,80 L68,80.5 " />
<path id="13" stroke-linecap="round" stroke="#6566CC" stroke-width="5" fill="none" moovel_neighborhood="Crocker Amazon" moovel_area="307.77" moovel_length="33.65" d="M70,80.5 L75,81 L93.5,80.5 L96,80.5 " />
<path id="14" stroke-linecap="round" stroke="#6566CC" stroke-width="5" fill="none" moovel_neighborhood="Crocker Amazon" moovel_area="1377.43" moovel_length="150.62" d="M98.5,80.5 L216.5,80.5 " />
<path id="15" stroke-linecap="round" stroke="#6566CC" stroke-width="5" fill="none" moovel_neighborhood="Crocker Amazon" moovel_area="8231.90" moovel_length="900.15" d="M219.5,80.5 L221,81 L240.5,81.5 L378,81 L533,80.5 L569.5,81 L570,81.5 L570,82.5 L570.5,83 L570.5,84 L570.5,85 L570.5,86 L570,86.5 L569.5,87 L569,87.5 L568,88 L285.5,87.5 L220.5,87 L216.5,87 " />
<path id="16" stroke-linecap="round" stroke="#6566CC" stroke-width="5" fill="none" moovel_neighborhood="Crocker Amazon" moovel_area="357.31" moovel_length="39.07" d="M215,87 L208.5,87.5 L187.5,87 L184.5,87 " />
<path id="17" stroke-linecap="round" stroke="#6566CC" stroke-width="5" fill="none" moovel_neighborhood="Crocker Amazon" moovel_area="357.67" moovel_length="39.11" d="M182.5,86.5 L152.5,87 " />
<path id="18" stroke-linecap="round" stroke="#6566CC" stroke-width="5" fill="none" moovel_neighborhood="Crocker Amazon" moovel_area="46593.64" moovel_length="5094.99" d="M150,87 L145.5,87.5 L108,88 L29,88.5 L4.5,89 L4,89.5 L4,90 L4,90.5 L4,91 L4,91.5 L5,92 L177.5,91.5 L382.5,91 L569,91.5 L569,92 L569.5,93 L569.5,94 L569.5,95 L569.5,96 L569.5,97 L569.5,98 L569,99 L569,99.5 L568.5,100 L460,100.5 L255,101 L42,101.5 L4.5,102 L4,102.5 L4,103 L4,103.5 L4,104 L4.5,104.5 L5,105 L157,104.5 L377.5,104 L569,104.5 L569,105 L569.5,106 L569.5,107 L570,108 L570,109 L569.5,110 L569.5,111 L569,112 L568.5,112.5 L568.5,113 L463,113.5 L224,114 L5,114.5 L4.5,115 L4,115.5 L4,116 L4,116.5 L4,117 L4.5,117.5 L5,118 L135,117.5 L453.5,117 L568.5,117.5 L569,118 L569.5,119 L569.5,120 L570,121 L570,122 L569.5,123 L569.5,124 L569,125 L569,125.5 L568.5,126 L568,126.5 L294,127 L5.5,127.5 L4.5,128 L4,128.5 L4,129 L4,129.5 L4.5,130 L4.5,130.5 L5.5,131 L134,130.5 L358.5,131 L391,131.5 L396.5,132 L438.5,132 " />
<path id="19" stroke-linecap="round" stroke="#6566CC" stroke-width="5" fill="none" moovel_neighborhood="Crocker Amazon" moovel_area="255.26" moovel_length="27.91" d="M441,132 L446,132.5 L462,132.5 " />
<path id="20" stroke-linecap="round" stroke="#6566CC" stroke-width="5" fill="none" moovel_neighborhood="Crocker Amazon" moovel_area="923.89" moovel_length="101.03" d="M464.5,132 L543.5,132 " />
<path id="21" stroke-linecap="round" stroke="#6566CC" stroke-width="5" fill="none" moovel_neighborhood="Crocker Amazon" moovel_area="26586.35" moovel_length="2907.20" d="M546,132 L547.5,131.5 L565.5,131 L568.5,131.5 L569.5,132 L569.5,133 L570,134 L570,135 L570,136 L570,137 L569.5,138 L569.5,138.5 L569,139.5 L568,140 L471,140.5 L279.5,141 L46.5,141.5 L5,142 L4.5,142.5 L4.5,143 L5,143.5 L224.5,143 L568.5,143.5 L568.5,144 L569,145 L569,146 L569,147 L569,148.5 L569,149.5 L569,151 L568.5,152 L568.5,152.5 L568.5,153 L568,153.5 L213.5,154 L4.5,154.5 L4.5,155 L4,155.5 L4,156 L4.5,156.5 L5,157 L244,156.5 L550,157 L550.5,157 " />
<path id="22" stroke-linecap="round" stroke="#6566CC" stroke-width="5" fill="none" moovel_neighborhood="Crocker Amazon" moovel_area="1770.78" moovel_length="193.63" d="M553,158.5 L562,159 L570,159.5 L571.5,160 L571.5,160.5 L572,161 L572,162 L571.5,162.5 L571,163 L570.5,163.5 L568.5,164 L549,163.5 L459.5,164 L441,164.5 " />
<path id="23" stroke-linecap="round" stroke="#6566CC" stroke-width="5" fill="none" moovel_neighborhood="Crocker Amazon" moovel_area="252.39" moovel_length="27.60" d="M438.5,164.5 L417.5,164.5 " />
<path id="24" stroke-linecap="round" stroke="#6566CC" stroke-width="5" fill="none" moovel_neighborhood="Crocker Amazon" moovel_area="184.78" moovel_length="20.21" d="M414.5,164.5 L399.5,164.5 " />
<path id="25" stroke-linecap="round" stroke="#6566CC" stroke-width="5" fill="none" moovel_neighborhood="Crocker Amazon" moovel_area="5030.34" moovel_length="550.06" d="M397.5,164.5 L4.5,165 L3.5,165.5 L3,166.5 L3,167 L2.5,167.5 L3,168.5 L3,169 L3.5,169.5 L4,170 L5,170.5 L36,171 L37.5,171 " />
<path id="26" stroke-linecap="round" stroke="#6566CC" stroke-width="5" fill="none" moovel_neighborhood="Crocker Amazon" moovel_area="5027.72" moovel_length="549.78" d="M39.5,171 L96,171.5 L430.5,172 L473,172 " />
<path id="27" stroke-linecap="round" stroke="#6566CC" stroke-width="5" fill="none" moovel_neighborhood="Crocker Amazon" moovel_area="1657.35" moovel_length="181.23" d="M475,171 L484,170.5 L569,171 L569.5,171.5 L570,172 L570,173 L570.5,174 L570.5,175 L570.5,175.5 L570,176.5 L569.5,177.5 L569,178 L568,178.5 L553.5,178 L528.5,177.5 " />
<path id="28" stroke-linecap="round" stroke="#6566CC" stroke-width="5" fill="none" moovel_neighborhood="Crocker Amazon" moovel_area="265.73" moovel_length="29.06" d="M526.5,178 L504,177.5 " />
<path id="29" stroke-linecap="round" stroke="#6566CC" stroke-width="5" fill="none" moovel_neighborhood="Crocker Amazon" moovel_area="171.53" moovel_length="18.76" d="M502,177.5 L488,177.5 " />
<path id="30" stroke-linecap="round" stroke="#6566CC" stroke-width="5" fill="none" moovel_neighborhood="Crocker Amazon" moovel_area="331.95" moovel_length="36.30" d="M485.5,178 L457.5,177.5 " />
<path id="31" stroke-linecap="round" stroke="#6566CC" stroke-width="5" fill="none" moovel_neighborhood="Crocker Amazon" moovel_area="576.05" moovel_length="62.99" d="M455.5,177.5 L406.5,177.5 " />
<path id="32" stroke-linecap="round" stroke="#6566CC" stroke-width="5" fill="none" moovel_neighborhood="Crocker Amazon" moovel_area="299.97" moovel_length="32.80" d="M404,177.5 L398,177 L384,177.5 L379,177.5 " />
<path id="33" stroke-linecap="round" stroke="#6566CC" stroke-width="5" fill="none" moovel_neighborhood="Crocker Amazon" moovel_area="655.12" moovel_length="71.64" d="M376.5,177.5 L320.5,177.5 " />
<path id="34" stroke-linecap="round" stroke="#6566CC" stroke-width="5" fill="none" moovel_neighborhood="Crocker Amazon" moovel_area="294.46" moovel_length="32.20" d="M318,177.5 L313,177 L298.5,177.5 L293.5,177.5 " />
<path id="35" stroke-linecap="round" stroke="#6566CC" stroke-width="5" fill="none" moovel_neighborhood="Crocker Amazon" moovel_area="220.67" moovel_length="24.13" d="M291,177.5 L273,177.5 " />
<path id="36" stroke-linecap="round" stroke="#6566CC" stroke-width="5" fill="none" moovel_neighborhood="Crocker Amazon" moovel_area="10522.99" moovel_length="1150.68" d="M270.5,177.5 L269,178 L5,178.5 L3.5,179 L3,179.5 L3,180.5 L2.5,181 L3,182 L3,182.5 L3.5,183 L4,183.5 L4.5,184 L6,184.5 L14.5,184 L216,183.5 L288,183 L357,182.5 L421.5,182 L485,181.5 L542.5,181 L569,181.5 L570,182 L570.5,182.5 L571,183 L571,184 L571,184.5 L571,185.5 L570.5,186 L570,186.5 L569.5,187 L569,187.5 L542,188 L508,188 " />
<path id="37" stroke-linecap="round" stroke="#6566CC" stroke-width="5" fill="none" moovel_neighborhood="Crocker Amazon" moovel_area="10727.39" moovel_length="1173.03" d="M505.5,191 L498,191.5 L5,192 L4,192.5 L3.5,193 L3.5,193.5 L3.5,194 L3.5,194.5 L3.5,195 L4,195.5 L4.5,196 L5,196.5 L377.5,197 L421,197 " />
<path id="38" stroke-linecap="round" stroke="#6566CC" stroke-width="5" fill="none" moovel_neighborhood="Crocker Amazon" moovel_area="5617.40" moovel_length="614.26" d="M423,197.5 L434.5,198 L558.5,197.5 L568.5,198 L570.5,198.5 L571,199 L571.5,199.5 L571.5,200 L571.5,200.5 L571.5,201 L571,202 L570.5,202.5 L569,203 L239,203 " />
<path id="39" stroke-linecap="round" stroke="#6566CC" stroke-width="5" fill="none" moovel_neighborhood="Crocker Amazon" moovel_area="4349.64" moovel_length="475.63" d="M237,203.5 L236,204 L135,204.5 L15.5,205 L4,205.5 L3.5,206 L3,206.5 L3,207.5 L3,208 L3.5,208.5 L4,209 L4.5,209.5 L5,210 L67.5,209.5 L134,210 L139,210.5 " />
<path id="40" stroke-linecap="round" stroke="#6566CC" stroke-width="5" fill="none" moovel_neighborhood="Crocker Amazon" moovel_area="9544.14" moovel_length="1043.65" d="M141.5,210 L178,210.5 L510.5,211 L569.5,211.5 L571,212.5 L571,213 L571.5,213.5 L571,214.5 L571,215 L570.5,216 L570,216.5 L568.5,217 L448,216.5 L189,216 L181,216 " />
<path id="41" stroke-linecap="round" stroke="#6566CC" stroke-width="5" fill="none" moovel_neighborhood="Crocker Amazon" moovel_area="8740.62" moovel_length="955.78" d="M179,216.5 L178,216 L156.5,215.5 L89,215 L3,215.5 L2.5,216.5 L1.5,217 L1,218.5 L1,219.5 L1,220.5 L1.5,221.5 L2,222.5 L3,223.5 L4,224 L5,224.5 L204.5,225 L415,224.5 L553.5,225 L568.5,225.5 L569.5,226 L570,226.5 L570.5,227.5 L570.5,228 L570.5,229 L570.5,230 L570.5,230.5 L570,231 L569.5,231.5 " />
<path id="42" stroke-linecap="round" stroke="#6566CC" stroke-width="5" fill="none" moovel_neighborhood="Crocker Amazon" moovel_area="114.26" moovel_length="12.49" d="M567.5,229.5 L562.5,230 L560,229.5 L558.5,229.5 " />
<path id="43" stroke-linecap="round" stroke="#6566CC" stroke-width="5" fill="none" moovel_neighborhood="Crocker Amazon" moovel_area="202.08" moovel_length="22.10" d="M556.5,229.5 L555,230 L547.5,229.5 L540,229.5 " />
<path id="44" stroke-linecap="round" stroke="#6566CC" stroke-width="5" fill="none" moovel_neighborhood="Crocker Amazon" moovel_area="11792.56" moovel_length="1289.51" d="M537.5,229.5 L525,229 L426.5,228.5 L354,229 L344.5,229.5 L326,230 L4.5,230.5 L4,231 L3.5,231.5 L3.5,232 L3.5,232.5 L3.5,233 L4,233.5 L4.5,234 L5.5,234.5 L221,235 L349,235.5 L449.5,236 L466.5,235.5 L481,235 " />
<path id="45" stroke-linecap="round" stroke="#6566CC" stroke-width="5" fill="none" moovel_neighborhood="Crocker Amazon" moovel_area="9881.58" moovel_length="1080.54" d="M483,236 L489,235.5 L490.5,236 L501.5,236.5 L569.5,237 L571,237.5 L571.5,238 L571.5,238.5 L571.5,239.5 L571.5,240 L571.5,240.5 L570.5,241 L570,241.5 L569,242 L482,242.5 L478.5,243 L419.5,243.5 L65,244 L4,244.5 L3.5,245 L3.5,245.5 L3.5,246 L3.5,246.5 L3.5,247.5 L4,248 L5,248.5 L189,249 L191,249 " />
<path id="46" stroke-linecap="round" stroke="#6566CC" stroke-width="5" fill="none" moovel_neighborhood="Crocker Amazon" moovel_area="168.79" moovel_length="18.46" d="M193,249 L207,249 " />
<path id="47" stroke-linecap="round" stroke="#6566CC" stroke-width="5" fill="none" moovel_neighborhood="Crocker Amazon" moovel_area="15811.78" moovel_length="1729.01" d="M209,249 L301,249.5 L526,250 L570,250.5 L570.5,251 L571,252 L571,252.5 L571,253.5 L571,254 L570.5,254.5 L570,255.5 L568.5,256 L459,255.5 L422,256 L390,255.5 L307,255 L239.5,254.5 L145,254 L49.5,253.5 L4,254 L3,254.5 L2.5,255.5 L2.5,256 L2,257 L2.5,257.5 L2.5,258.5 L3,259 L3.5,260 L5,260.5 L59.5,261 L141.5,261.5 L222.5,262 L304.5,262.5 L386.5,263 L428.5,263 " />
<path id="48" stroke-linecap="round" stroke="#6566CC" stroke-width="5" fill="none" moovel_neighborhood="Crocker Amazon" moovel_area="15814.90" moovel_length="1729.35" d="M431,262 L552,262.5 L570,263 L570.5,263.5 L571,264 L571,264.5 L571.5,265.5 L571,266 L571,267 L570.5,267.5 L569.5,268 L569,268.5 L472.5,268 L231,267.5 L54,267 L4.5,267.5 L3,268 L2.5,269 L2.5,269.5 L2,270.5 L2,271.5 L2.5,272 L3,273 L3.5,273.5 L4.5,274 L5,274.5 L119.5,275 L255.5,275.5 L392.5,276 L529,276.5 L570,277 L570.5,277.5 L571,278 L571.5,278.5 L571.5,279 L571.5,280 L571,280.5 L570.5,281 L570,281.5 L569,282 L495,282 " />
<path id="49" stroke-linecap="round" stroke="#6566CC" stroke-width="5" fill="none" moovel_neighborhood="Crocker Amazon" moovel_area="2614.83" moovel_length="285.93" d="M492.5,281 L472.5,280.5 L357,281 L346,281.5 L340.5,282 L278.5,281.5 L268,281 " />
<path id="50" stroke-linecap="round" stroke="#6566CC" stroke-width="5" fill="none" moovel_neighborhood="Crocker Amazon" moovel_area="3054.53" moovel_length="334.01" d="M265.5,281.5 L261.5,281 L251,281.5 L227.5,281 L108.5,280.5 L5,281 L4,281.5 L3.5,282 L3,282.5 " />
<path id="51" stroke-linecap="round" stroke="#6566CC" stroke-width="5" fill="none" moovel_neighborhood="Crocker Amazon" moovel_area="716.34" moovel_length="78.33" d="M2.5,285 L2.5,286 L3,286.5 L3.5,287 L4,287.5 L5,288 L62,288 " />
<path id="52" stroke-linecap="round" stroke="#6566CC" stroke-width="5" fill="none" moovel_neighborhood="Crocker Amazon" moovel_area="194.59" moovel_length="21.28" d="M64,288 L80,288 " />
<path id="53" stroke-linecap="round" stroke="#6566CC" stroke-width="5" fill="none" moovel_neighborhood="Crocker Amazon" moovel_area="235.01" moovel_length="25.70" d="M82,288 L102,288 " />
<path id="54" stroke-linecap="round" stroke="#6566CC" stroke-width="5" fill="none" moovel_neighborhood="Crocker Amazon" moovel_area="226.30" moovel_length="24.75" d="M104.5,288 L123,288 " />
<path id="55" stroke-linecap="round" stroke="#6566CC" stroke-width="5" fill="none" moovel_neighborhood="Crocker Amazon" moovel_area="226.09" moovel_length="24.72" d="M125.5,288 L144.5,288 " />
<path id="56" stroke-linecap="round" stroke="#6566CC" stroke-width="5" fill="none" moovel_neighborhood="Crocker Amazon" moovel_area="26040.93" moovel_length="2847.56" d="M147,287.5 L569.5,288 L570,288.5 L570,289.5 L570.5,290 L570.5,291 L570.5,292 L570,293 L570,293.5 L569.5,294.5 L569,295 L4.5,295.5 L3.5,296 L3.5,297 L3,297.5 L3,298 L3,298.5 L3.5,299.5 L4,300 L5,300.5 L569.5,301 L570,301.5 L570.5,302.5 L570.5,303.5 L570.5,304 L570.5,305 L570.5,306 L570,306.5 L569.5,307 L568.5,307.5 L291.5,308 L4,308.5 L3.5,309 L3,309.5 L2.5,310 L2.5,311 L2.5,311.5 L3,312.5 L3,313 L4,313.5 L4.5,314 L5,314.5 L104.5,314.5 " />
<path id="57" stroke-linecap="round" stroke="#6566CC" stroke-width="5" fill="none" moovel_neighborhood="Crocker Amazon" moovel_area="324.08" moovel_length="35.44" d="M106.5,314 L110,314.5 L131,314 L134,314 " />
<path id="58" stroke-linecap="round" stroke="#6566CC" stroke-width="5" fill="none" moovel_neighborhood="Crocker Amazon" moovel_area="30285.26" moovel_length="3311.67" d="M136,313.5 L143.5,313 L183.5,312.5 L255,312 L327.5,311.5 L399,311 L488.5,310.5 L568.5,311 L568.5,312 L569,313 L569,314 L569,315.5 L569,316.5 L569,318 L569,319 L568.5,320 L568.5,320.5 L568,321 L498.5,321.5 L383.5,322 L269.5,322.5 L154.5,323 L40,323.5 L4.5,324 L4.5,324.5 L4.5,325 L4.5,325.5 L5,326 L118.5,325.5 L237.5,325 L357,324.5 L476.5,324 L569,325 L569,325.5 L569.5,326.5 L569.5,327.5 L569.5,329 L569.5,330 L569.5,331 L569,332 L569,332.5 L568.5,333.5 L515,334 L395,334.5 L275.5,335 L156.5,335.5 L36.5,336 L4.5,336.5 L4,337 L4,337.5 L4,338 L4,338.5 L4,339 L4.5,339.5 L5.5,340 L56,339.5 L199.5,339 L343,338.5 L460,339 " />
<path id="59" stroke-linecap="round" stroke="#6566CC" stroke-width="5" fill="none" moovel_neighborhood="Crocker Amazon" moovel_area="3373.15" moovel_length="368.85" d="M462.5,339.5 L468,339 L497,338.5 L568.5,339 L569,339.5 L569.5,340 L569.5,341 L570,342 L570,343 L570,344 L569.5,345 L569.5,346 L569,346.5 L568.5,347 L568,347.5 L436,347 L412.5,346.5 L408,346 L395.5,346.5 L393,346.5 " />
<path id="60" stroke-linecap="round" stroke="#6566CC" stroke-width="5" fill="none" moovel_neighborhood="Crocker Amazon" moovel_area="30662.47" moovel_length="3352.92" d="M390.5,346.5 L387.5,347 L362,347.5 L296.5,348 L226.5,348.5 L157.5,349 L87,349.5 L5.5,350 L5,350.5 L4.5,351 L4.5,351.5 L5.5,352 L51.5,351.5 L154,351 L256.5,350.5 L359,350 L460.5,349.5 L563,349 L568,349.5 L568.5,350 L568.5,350.5 L569,351.5 L569,352.5 L569,354 L569,355 L569,356 L569,357.5 L569,358.5 L568.5,359 L568,359.5 L531.5,360 L429.5,360.5 L327,361 L224.5,361.5 L122,362 L20,362.5 L4.5,363 L4.5,363.5 L4,364 L4.5,364.5 L4.5,365 L5,365.5 L53.5,365 L178,364.5 L302.5,364 L427.5,363.5 L552,363 L568.5,363.5 L569,364 L569.5,365 L569.5,366 L570,367 L570,368 L570,369 L569.5,370 L569.5,371 L569,371.5 L568.5,372 L568,372.5 L464,373 L340,373.5 L215.5,374 L90.5,374.5 L35,374 L34,374 " />
<path id="61" stroke-linecap="round" stroke="#6566CC" stroke-width="5" fill="none" moovel_neighborhood="Crocker Amazon" moovel_area="8770.15" moovel_length="959.01" d="M31.5,372 L4.5,372.5 L3,373 L2.5,374 L2.5,374.5 L2.5,375.5 L2.5,376.5 L2.5,377 L3,377.5 L3.5,378.5 L5,379 L145.5,379.5 L366,380 L569,380.5 L570.5,381 L571,381.5 L571.5,382 L571.5,383 L571.5,383.5 L571,384 L570.5,384.5 L570,385 L569.5,385.5 L567.5,386 L556.5,385.5 L420,386 " />
<path id="62" stroke-linecap="round" stroke="#6566CC" stroke-width="5" fill="none" moovel_neighborhood="Crocker Amazon" moovel_area="7189.21" moovel_length="786.14" d="M418,385.5 L347,385 L245.5,384.5 L86,384 L4,384.5 L3,385 L2.5,386 L2,386.5 L1.5,387.5 L2,388.5 L2,389.5 L2.5,390.5 L3,391 L4,391.5 L5,392 L81.5,392.5 L192,392 L203,392 " />
<path id="63" stroke-linecap="round" stroke="#6566CC" stroke-width="5" fill="none" moovel_neighborhood="Crocker Amazon" moovel_area="7521.45" moovel_length="822.47" d="M205,391.5 L272.5,392 L406,392.5 L569.5,393 L571,393.5 L571.5,394 L572,394.5 L572,395.5 L571.5,396 L571,396.5 L570.5,397 L570,397.5 L430,397 L334,397.5 L292.5,397.5 " />
<path id="64" stroke-linecap="round" stroke="#6566CC" stroke-width="5" fill="none" moovel_neighborhood="Crocker Amazon" moovel_area="7167.55" moovel_length="783.77" d="M290,398.5 L226.5,398 L133,397.5 L3.5,398 L2.5,399 L2,399.5 L2,400.5 L2,401.5 L2,402.5 L2.5,403.5 L3,404 L3.5,404.5 L4.5,405 L21.5,405.5 L241.5,406 L312,405.5 L329.5,405 " />
<path id="65" stroke-linecap="round" stroke="#6566CC" stroke-width="5" fill="none" moovel_neighborhood="Crocker Amazon" moovel_area="863.38" moovel_length="94.41" d="M331.5,405 L405.5,405 " />
<path id="66" stroke-linecap="round" stroke="#6566CC" stroke-width="5" fill="none" moovel_neighborhood="Crocker Amazon" moovel_area="1869.16" moovel_length="204.39" d="M407.5,405 L444,405.5 L554,405 L568,405 " />
<path id="67" stroke-linecap="round" stroke="#6566CC" stroke-width="5" fill="none" moovel_neighborhood="Crocker Amazon" moovel_area="716.75" moovel_length="78.38" d="M569.5,405.5 L570,406 L570.5,406.5 L571,407 L571,408 L571,409 L570.5,409.5 L570,410 L569.5,411 L568.5,411.5 L515,411 " />
<path id="68" stroke-linecap="round" stroke="#6566CC" stroke-width="5" fill="none" moovel_neighborhood="Crocker Amazon" moovel_area="243.44" moovel_length="26.62" d="M513,411.5 L492.5,411.5 " />
<path id="69" stroke-linecap="round" stroke="#6566CC" stroke-width="5" fill="none" moovel_neighborhood="Crocker Amazon" moovel_area="2426.88" moovel_length="265.38" d="M490,411 L484.5,411.5 L281,411.5 " />
<path id="70" stroke-linecap="round" stroke="#6566CC" stroke-width="5" fill="none" moovel_neighborhood="Crocker Amazon" moovel_area="188.71" moovel_length="20.64" d="M279,411 L263.5,411 " />
<path id="71" stroke-linecap="round" stroke="#6566CC" stroke-width="5" fill="none" moovel_neighborhood="Crocker Amazon" moovel_area="188.14" moovel_length="20.57" d="M261,411.5 L245.5,411.5 " />
<path id="72" stroke-linecap="round" stroke="#6566CC" stroke-width="5" fill="none" moovel_neighborhood="Crocker Amazon" moovel_area="11237.12" moovel_length="1228.77" d="M243,411.5 L238,412 L5,412.5 L4,413 L4,413.5 L3.5,414 L3.5,414.5 L3.5,415 L3.5,415.5 L4,416 L4.5,416.5 L5.5,417 L569,417.5 L569.5,418 L570,418.5 L570.5,419.5 L570.5,420 L570.5,421 L570.5,422 L570,423 L570,423.5 L569.5,424 L568.5,424.5 L422,424 L418.5,424 " />
<path id="73" stroke-linecap="round" stroke="#6566CC" stroke-width="5" fill="none" moovel_neighborhood="Crocker Amazon" moovel_area="282.59" moovel_length="30.90" d="M416,424.5 L392.5,424 " />
<path id="74" stroke-linecap="round" stroke="#6566CC" stroke-width="5" fill="none" moovel_neighborhood="Crocker Amazon" moovel_area="252.07" moovel_length="27.56" d="M390,424.5 L369,424 " />
<path id="75" stroke-linecap="round" stroke="#6566CC" stroke-width="5" fill="none" moovel_neighborhood="Crocker Amazon" moovel_area="1985.91" moovel_length="217.16" d="M366.5,424 L364,423.5 L200,424 L196,424 " />
<path id="76" stroke-linecap="round" stroke="#6566CC" stroke-width="5" fill="none" moovel_neighborhood="Crocker Amazon" moovel_area="234.63" moovel_length="25.66" d="M193.5,424 L186.5,424.5 L174,424 " />
<path id="77" stroke-linecap="round" stroke="#6566CC" stroke-width="5" fill="none" moovel_neighborhood="Crocker Amazon" moovel_area="517.18" moovel_length="56.55" d="M171.5,424 L127.5,424 " />
<path id="78" stroke-linecap="round" stroke="#6566CC" stroke-width="5" fill="none" moovel_neighborhood="Crocker Amazon" moovel_area="26103.32" moovel_length="2854.38" d="M125,424 L122.5,423.5 L82.5,424 L76.5,424.5 L4.5,425 L4,425.5 L3.5,426 L3,426.5 L3,427 L3,428 L3,428.5 L3.5,429 L4,429.5 L4.5,430 L569,430.5 L569.5,431 L570,431.5 L570.5,432.5 L570.5,433 L570.5,434 L570.5,435 L570.5,435.5 L570,436.5 L569.5,437 L568.5,437.5 L4.5,438 L3.5,438.5 L3,439.5 L3,440 L3,440.5 L3,441.5 L3.5,442 L4,442.5 L4.5,443 L5.5,443.5 L46.5,443 L569.5,443.5 L570,444 L570.5,444.5 L571,445.5 L571,446 L571,447 L570.5,448 L570,448.5 L569.5,449 L569,449.5 L567.5,450 L445.5,449.5 L387,450 L162,450 " />
<path id="79" stroke-linecap="round" stroke="#6566CC" stroke-width="5" fill="none" moovel_neighborhood="Crocker Amazon" moovel_area="1818.78" moovel_length="198.88" d="M160,450 L153.5,449.5 L141.5,450 L72,450.5 L4,450.5 " />
<path id="80" stroke-linecap="round" stroke="#6566CC" stroke-width="5" fill="none" moovel_neighborhood="Crocker Amazon" moovel_area="8728.94" moovel_length="954.50" d="M2.5,453 L2.5,453.5 L2.5,454.5 L3,455 L3.5,455.5 L4,456 L4.5,456.5 L11,457 L248.5,457.5 L486.5,458 L570,458.5 L570.5,459 L571,459.5 L571.5,460 L571.5,461 L571.5,461.5 L571,462 L570.5,462.5 L570,463 L569,463.5 L414,463 L400,463.5 L393,463.5 " />
<path id="81" stroke-linecap="round" stroke="#6566CC" stroke-width="5" fill="none" moovel_neighborhood="Crocker Amazon" moovel_area="1799.74" moovel_length="196.80" d="M390.5,463 L386.5,462.5 L344.5,463 L268.5,463.5 L240,463 L236,463 " />
<path id="82" stroke-linecap="round" stroke="#6566CC" stroke-width="5" fill="none" moovel_neighborhood="Crocker Amazon" moovel_area="6344.43" moovel_length="693.76" d="M234,463 L230,462.5 L203.5,462 L129,461.5 L3,462.5 L2,463 L1.5,464 L1.5,465 L1,466 L1.5,467 L2,468 L2.5,469 L3.5,470 L4.5,470.5 L213.5,471 L283,471.5 L312.5,471 L314.5,471 " />
<path id="83" stroke-linecap="round" stroke="#6566CC" stroke-width="5" fill="none" moovel_neighborhood="Crocker Amazon" moovel_area="6411.37" moovel_length="701.08" d="M317,470 L330.5,470.5 L385.5,471 L465,471.5 L571,472 L571.5,472.5 L572.5,473 L572.5,473.5 L572,474 L571.5,474.5 L571,475 L569,475.5 L519.5,475 L344,474.5 L276.5,475 " />
<path id="84" stroke-linecap="round" stroke="#6566CC" stroke-width="5" fill="none" moovel_neighborhood="Crocker Amazon" moovel_area="786.82" moovel_length="86.04" d="M274.5,476 L273.5,475.5 L208,476 L207,476 " />
<path id="85" stroke-linecap="round" stroke="#6566CC" stroke-width="5" fill="none" moovel_neighborhood="Crocker Amazon" moovel_area="520.65" moovel_length="113.57" d="M205,476 L204,476.5 L116,476 " />
<path id="86" stroke-linecap="round" stroke="#6566CC" stroke-width="5" fill="none" moovel_neighborhood="Crocker Amazon" moovel_area="929.67" moovel_length="202.80" d="M113.5,476 L112,475.5 L3.5,476 L3,477 L2.5,477.5 L2,478.5 L2,479.5 L2,480 L2.5,481 L3,482 L3.5,482.5 L4.5,483 L46.5,482.5 L47.5,482.5 " />
<path id="87" stroke-linecap="round" stroke="#6566CC" stroke-width="5" fill="none" moovel_neighborhood="Crocker Amazon" moovel_area="1160.50" moovel_length="253.15" d="M49.5,482.5 L65,482 L180,481.5 L246,482 L249,482 " />
<path id="88" stroke-linecap="round" stroke="#6566CC" stroke-width="5" fill="none" moovel_neighborhood="Crocker Amazon" moovel_area="691.15" moovel_length="150.77" d="M251,482.5 L369,482.5 " />
<path id="89" stroke-linecap="round" stroke="#6566CC" stroke-width="5" fill="none" moovel_neighborhood="Crocker Amazon" moovel_area="2126.12" moovel_length="463.79" d="M371.5,483 L488,483.5 L570.5,484 L571,484.5 L571.5,485 L571.5,485.5 L571.5,486 L571.5,487 L571,487.5 L570.5,488 L570,488.5 L409.5,489 L409,489 " />
<path id="90" stroke-linecap="round" stroke="#6566CC" stroke-width="5" fill="none" moovel_neighborhood="Crocker Amazon" moovel_area="342.31" moovel_length="74.67" d="M406.5,489 L348.5,489 " />
<path id="91" stroke-linecap="round" stroke="#6566CC" stroke-width="5" fill="none" moovel_neighborhood="Crocker Amazon" moovel_area="201.91" moovel_length="44.04" d="M346,489.5 L311.5,489 " />
<path id="92" stroke-linecap="round" stroke="#6566CC" stroke-width="5" fill="none" moovel_neighborhood="Crocker Amazon" moovel_area="235.64" moovel_length="51.40" d="M309.5,489 L269.5,489 " />
<path id="93" stroke-linecap="round" stroke="#6566CC" stroke-width="5" fill="none" moovel_neighborhood="Crocker Amazon" moovel_area="14722.44" moovel_length="3211.55" d="M267.5,489.5 L241.5,490 L166,490.5 L5,491 L4.5,491.5 L4,492 L4,492.5 L4,493 L4.5,493.5 L5,494 L568.5,494.5 L569,495 L569.5,496 L569.5,497 L569.5,498 L569.5,499 L569.5,500 L569.5,501 L569,502 L568.5,502.5 L568.5,503 L568,503.5 L4.5,504 L4,504.5 L4,505 L4,505.5 L4,506 L4,506.5 L4.5,507 L5.5,507.5 L47,507 L569.5,508 L569.5,508.5 L570,509.5 L570,510.5 L570,511.5 L570,512.5 L569.5,513.5 L569.5,514 L569,515 L568,515.5 L22.5,515.5 " />
<path id="94" stroke-linecap="round" stroke="#6566CC" stroke-width="5" fill="none" moovel_neighborhood="Crocker Amazon" moovel_area="14180.67" moovel_length="3093.37" d="M20,515 L7.5,514.5 L5,515 L3.5,515.5 L3,516 L2.5,517 L2,517.5 L2,518.5 L2.5,519.5 L2.5,520 L3,521 L4,521.5 L5.5,522 L107.5,522.5 L219.5,523 L335,523.5 L448.5,524 L560,524.5 L570.5,525 L571.5,525.5 L572,526 L572,526.5 L572,527 L571.5,527.5 L571,528 L570,528.5 L568,529 L555.5,528.5 L450,528 L336,527.5 L216,527 L94,526.5 L3.5,527 L2.5,527.5 L2,528.5 L1.5,529.5 L1.5,530.5 L1.5,531.5 L1.5,532.5 L2.5,533.5 L3,534 L4,534.5 L5,535 L69.5,535.5 L188.5,536 L306.5,536.5 L426,537 L541.5,537.5 L571,538 L571.5,538.5 L572,539 L572,539.5 L572,540 L571.5,540.5 L571,541 L569.5,541.5 L457.5,541 L340.5,540.5 L231,540 L125,539.5 L3.5,540 L2.5,540.5 L2,541 L1.5,542 L1.5,543 L1.5,544 L1.5,545 L2,546 L3,547 L4,547.5 L6,548 L133,548 " />
<path id="95" stroke-linecap="round" stroke="#6566CC" stroke-width="5" fill="none" moovel_neighborhood="Crocker Amazon" moovel_area="2143.35" moovel_length="467.55" d="M135,547.5 L136,547 L176.5,546.5 L422.5,547 L441,546.5 L503.5,546.5 " />
<path id="96" stroke-linecap="round" stroke="#6566CC" stroke-width="5" fill="none" moovel_neighborhood="Crocker Amazon" moovel_area="221.11" moovel_length="48.23" d="M506,547 L543.5,547.5 " />
<path id="97" stroke-linecap="round" stroke="#6566CC" stroke-width="5" fill="none" moovel_neighborhood="Crocker Amazon" moovel_area="188.92" moovel_length="41.21" d="M545.5,547.5 L547,548 L570,548.5 L571,549 L571,549.5 L571.5,550 L571.5,550.5 L571.5,551.5 L571,552 L570.5,552.5 L570,553 L569.5,553.5 L568.5,554 " />
<path id="98" stroke-linecap="round" stroke="#6566CC" stroke-width="5" fill="none" moovel_neighborhood="Crocker Amazon" moovel_area="449.43" moovel_length="98.04" d="M566.5,554 L556,554.5 L490.5,554 L490,554 " />
<path id="99" stroke-linecap="round" stroke="#6566CC" stroke-width="5" fill="none" moovel_neighborhood="Crocker Amazon" moovel_area="306.83" moovel_length="66.93" d="M487.5,554 L435.5,554 " />
<path id="100" stroke-linecap="round" stroke="#6566CC" stroke-width="5" fill="none" moovel_neighborhood="Crocker Amazon" moovel_area="227.30" moovel_length="49.58" d="M433,554 L411,553.5 L397,554 L395,554 " />
<path id="101" stroke-linecap="round" stroke="#6566CC" stroke-width="5" fill="none" moovel_neighborhood="Crocker Amazon" moovel_area="110.25" moovel_length="24.05" d="M392,554 L390.5,553.5 L384.5,554 L374,554 " />
<path id="102" stroke-linecap="round" stroke="#6566CC" stroke-width="5" fill="none" moovel_neighborhood="Crocker Amazon" moovel_area="267.37" moovel_length="58.33" d="M371.5,554 L338.5,553.5 L334,554 L326.5,554 " />
<path id="103" stroke-linecap="round" stroke="#6566CC" stroke-width="5" fill="none" moovel_neighborhood="Crocker Amazon" moovel_area="2981.68" moovel_length="650.42" d="M324,554 L186.5,553.5 L4,554 L3.5,554.5 L3,555 L2.5,556 L2.5,557 L2.5,557.5 L3,558.5 L3,559 L4,559.5 L4.5,560 L43.5,560.5 L189.5,560.5 " />
<path id="104" stroke-linecap="round" stroke="#6566CC" stroke-width="5" fill="none" moovel_neighborhood="Crocker Amazon" moovel_area="2275.19" moovel_length="496.31" d="M192.5,560.5 L216,560 L271,560.5 L278,561 L570,561.5 L570.5,562 L571,562.5 L571,563.5 L571,564 L571,565 L570.5,565.5 L570,566 L569.5,566.5 L569,567 L562.5,567 " />
<path id="105" stroke-linecap="round" stroke="#6566CC" stroke-width="5" fill="none" moovel_neighborhood="Crocker Amazon" moovel_area="167.84" moovel_length="36.61" d="M560.5,567 L559,567.5 L534.5,567 L532.5,567 " />
<path id="106" stroke-linecap="round" stroke="#6566CC" stroke-width="5" fill="none" moovel_neighborhood="Crocker Amazon" moovel_area="2258.57" moovel_length="492.68" d="M530,567 L470,567.5 L454,567 L447,566.5 L278,567 L178,567.5 L158,567 L141.5,567 " />
<path id="107" stroke-linecap="round" stroke="#6566CC" stroke-width="5" fill="none" moovel_neighborhood="Crocker Amazon" moovel_area="126.33" moovel_length="27.56" d="M139,567 L137.5,567.5 L120.5,567 L118,567 " />
<path id="108" stroke-linecap="round" stroke="#6566CC" stroke-width="5" fill="none" moovel_neighborhood="Crocker Amazon" moovel_area="222.10" moovel_length="48.45" d="M115.5,566.5 L78,567 " />
<path id="109" stroke-linecap="round" stroke="#6566CC" stroke-width="5" fill="none" moovel_neighborhood="Crocker Amazon" moovel_area="286.59" moovel_length="62.52" d="M76,567 L74,567.5 L29,567 L27.5,567 " />
<path id="110" stroke-linecap="round" stroke="#6566CC" stroke-width="5" fill="none" moovel_neighborhood="Crocker Amazon" moovel_area="105.79" moovel_length="23.08" d="M25,566.5 L7.5,567 " />
<path id="111" stroke-linecap="round" stroke="#6566CC" stroke-width="5" fill="none" moovel_neighborhood="Crocker Amazon" moovel_area="165.30" moovel_length="36.06" d="M5,567 L4.5,567.5 L4,568 L3.5,568.5 L3,569 L3,569.5 L3,570 L3,571 L3,571.5 L3.5,572 L4,572.5 L4.5,573 L24,573.5 " />
<path id="112" stroke-linecap="round" stroke="#6566CC" stroke-width="5" fill="none" moovel_neighborhood="Crocker Amazon" moovel_area="296.36" moovel_length="64.65" d="M26,573 L76.5,573.5 " />
<path id="113" stroke-linecap="round" stroke="#6566CC" stroke-width="5" fill="none" moovel_neighborhood="Crocker Amazon" moovel_area="299.99" moovel_length="65.44" d="M79,573.5 L81,574 L127,573.5 L130,573.5 " />
<path id="114" stroke-linecap="round" stroke="#6566CC" stroke-width="5" fill="none" moovel_neighborhood="Crocker Amazon" moovel_area="223.35" moovel_length="48.72" d="M132,573 L169.5,573.5 " />
<path id="115" stroke-linecap="round" stroke="#6566CC" stroke-width="5" fill="none" moovel_neighborhood="Crocker Amazon" moovel_area="214.59" moovel_length="46.81" d="M172,573.5 L174,574 L202,573.5 L208.5,573.5 " />
<path id="116" stroke-linecap="round" stroke="#6566CC" stroke-width="5" fill="none" moovel_neighborhood="Crocker Amazon" moovel_area="136.93" moovel_length="29.87" d="M210.5,573 L233.5,573.5 " />
<path id="117" stroke-linecap="round" stroke="#6566CC" stroke-width="5" fill="none" moovel_neighborhood="Crocker Amazon" moovel_area="248.74" moovel_length="54.26" d="M236,573 L278,573.5 " />
<path id="118" stroke-linecap="round" stroke="#6566CC" stroke-width="5" fill="none" moovel_neighborhood="Crocker Amazon" moovel_area="226.76" moovel_length="49.47" d="M280.5,573.5 L288.5,574 L289.5,573.5 L298.5,573 L318.5,573.5 " />
<path id="119" stroke-linecap="round" stroke="#6566CC" stroke-width="5" fill="none" moovel_neighborhood="Crocker Amazon" moovel_area="188.00" moovel_length="41.01" d="M320.5,573 L352,573.5 " />
<path id="120" stroke-linecap="round" stroke="#6566CC" stroke-width="5" fill="none" moovel_neighborhood="Crocker Amazon" moovel_area="1222.65" moovel_length="266.71" d="M354.5,573.5 L369,573 L551.5,573.5 L564,573.5 " />
<path id="121" stroke-linecap="round" stroke="#6566CC" stroke-width="5" fill="none" moovel_neighborhood="Crocker Amazon" moovel_area="532.30" moovel_length="116.12" d="M566.5,573.5 L569,574 L570.5,574.5 L571,575 L571.5,575.5 L571.5,576 L571.5,577 L571.5,577.5 L571,578 L570.5,578.5 L570,579 L568.5,579.5 L488.5,580 " />
<path id="122" stroke-linecap="round" stroke="#6566CC" stroke-width="5" fill="none" moovel_neighborhood="Crocker Amazon" moovel_area="862.14" moovel_length="188.07" d="M486,580 L338.5,580 " />
<path id="123" stroke-linecap="round" stroke="#6566CC" stroke-width="5" fill="none" moovel_neighborhood="Crocker Amazon" moovel_area="206.07" moovel_length="44.95" d="M336,580 L301.5,580 " />
<path id="124" stroke-linecap="round" stroke="#6566CC" stroke-width="5" fill="none" moovel_neighborhood="Crocker Amazon" moovel_area="206.66" moovel_length="45.08" d="M299,580 L264,580 " />
<path id="125" stroke-linecap="round" stroke="#6566CC" stroke-width="5" fill="none" moovel_neighborhood="Crocker Amazon" moovel_area="3912.10" moovel_length="853.39" d="M262,580 L250.5,580.5 L160,581 L10,581.5 L4,582 L3.5,582.5 L3.5,583.5 L3.5,584 L3.5,584.5 L4,585 L4,585.5 L4.5,586 L124.5,585.5 L272,586 L318,585.5 L385.5,585 L412,585 " />
<path id="126" stroke-linecap="round" stroke="#6566CC" stroke-width="5" fill="none" moovel_neighborhood="Crocker Amazon" moovel_area="2730.77" moovel_length="595.69" d="M415,586 L453,585.5 L568.5,586 L569.5,586.5 L570,587.5 L570.5,588.5 L570.5,589 L570.5,590 L570,591 L570,592 L569.5,592.5 L569,593 L567.5,593.5 L392,593 L266.5,593.5 L261.5,593.5 " />
<path id="127" stroke-linecap="round" stroke="#6566CC" stroke-width="5" fill="none" moovel_neighborhood="Crocker Amazon" moovel_area="14699.85" moovel_length="3206.63" d="M259,593 L256,593.5 L210.5,594 L111,594.5 L4.5,595 L4,595.5 L4,596 L4,596.5 L4.5,597 L5,597.5 L537,597 L568,597.5 L569,598 L569,599 L569.5,599.5 L569.5,600.5 L569.5,601.5 L569.5,603 L569.5,604 L569.5,605 L569,605.5 L568.5,606 L568.5,606.5 L386,607 L4.5,607.5 L4,608 L4,608.5 L4,609 L4,609.5 L4,610 L4.5,610.5 L5,611 L198,610.5 L568.5,611 L569,611.5 L569.5,612 L570,613 L570,614 L570,615 L570,616 L570,616.5 L569.5,617.5 L569,618 L568.5,618.5 L568,619 L32,618.5 L18,618.5 " />
<path id="128" stroke-linecap="round" stroke="#6566CC" stroke-width="5" fill="none" moovel_neighborhood="Crocker Amazon" moovel_area="423.13" moovel_length="92.30" d="M15.5,619 L4,619.5 L3,620 L3,620.5 L2.5,621.5 L2.5,622 L2.5,623 L3,623.5 L3.5,624.5 L4,625 L5.5,625.5 L58,625.5 " />
<path id="129" stroke-linecap="round" stroke="#6566CC" stroke-width="5" fill="none" moovel_neighborhood="Crocker Amazon" moovel_area="10695.52" moovel_length="2333.12" d="M60,625.5 L96,626 L223,626.5 L317.5,627 L369,627.5 L418.5,628 L471.5,628.5 L528,629 L570.5,629.5 L572,630 L572.5,630.5 L572.5,631 L572.5,631.5 L571.5,632 L569.5,632.5 L545.5,632 L479.5,631.5 L411,631 L343,630.5 L275,630 L206.5,629.5 L137,629 L65,628.5 L3.5,629 L2.5,629.5 L1.5,630.5 L1,631.5 L1,633 L1,634 L1.5,635 L2,636 L2.5,637 L3.5,637.5 L4.5,638 L45.5,638.5 L110,639 L175.5,639.5 L241,640 L305.5,640.5 L370.5,641 L436.5,641.5 L502,642 L569,642.5 L571.5,643 L572,643.5 L572,644 L572,644.5 L572,645 L571.5,645.5 L571,646 L569,646.5 L554,646 L482,645.5 L389.5,645.5 " />
<path id="130" stroke-linecap="round" stroke="#6566CC" stroke-width="5" fill="none" moovel_neighborhood="Crocker Amazon" moovel_area="3187.55" moovel_length="695.33" d="M387,644.5 L372.5,644 L59,643.5 L4.5,644 L3.5,644.5 L3,645 L2.5,645.5 L2,646.5 L2,647.5 L2,648.5 L2,649.5 L2.5,650 L3.5,650.5 L4,651 L5,651.5 L130.5,651 L161.5,651.5 L162,651.5 " />
<path id="131" stroke-linecap="round" stroke="#6566CC" stroke-width="5" fill="none" moovel_neighborhood="Crocker Amazon" moovel_area="339.17" moovel_length="73.99" d="M165,651.5 L222.5,651.5 " />
<path id="132" stroke-linecap="round" stroke="#6566CC" stroke-width="5" fill="none" moovel_neighborhood="Crocker Amazon" moovel_area="312.42" moovel_length="68.15" d="M225,651 L256,651.5 L278,651.5 " />
<path id="133" stroke-linecap="round" stroke="#6566CC" stroke-width="5" fill="none" moovel_neighborhood="Crocker Amazon" moovel_area="309.29" moovel_length="67.47" d="M280,651 L301.5,651.5 L332.5,651.5 " />
<path id="134" stroke-linecap="round" stroke="#6566CC" stroke-width="5" fill="none" moovel_neighborhood="Crocker Amazon" moovel_area="1206.14" moovel_length="263.11" d="M334.5,651.5 L392,651 L541.5,651 " />
<path id="135" stroke-linecap="round" stroke="#6566CC" stroke-width="5" fill="none" moovel_neighborhood="Crocker Amazon" moovel_area="1170.95" moovel_length="255.43" d="M543.5,651.5 L569.5,652 L570,652.5 L571,653 L571,653.5 L571.5,654 L571.5,655 L571,655.5 L570.5,656 L570,657 L568.5,657.5 L560,658 L401.5,658 " />
<path id="136" stroke-linecap="round" stroke="#6566CC" stroke-width="5" fill="none" moovel_neighborhood="Crocker Amazon" moovel_area="193.44" moovel_length="42.20" d="M398.5,658 L392.5,658.5 L372,658 L366,657.5 " />
<path id="137" stroke-linecap="round" stroke="#6566CC" stroke-width="5" fill="none" moovel_neighborhood="Crocker Amazon" moovel_area="220.12" moovel_length="48.02" d="M364,657.5 L327,657.5 " />
<path id="138" stroke-linecap="round" stroke="#6566CC" stroke-width="5" fill="none" moovel_neighborhood="Crocker Amazon" moovel_area="1348.23" moovel_length="294.10" d="M324.5,658 L317.5,658.5 L250,659 L98.5,658.5 L93,658 " />
<path id="139" stroke-linecap="round" stroke="#6566CC" stroke-width="5" fill="none" moovel_neighborhood="Crocker Amazon" moovel_area="958.43" moovel_length="209.07" d="M91,657.5 L71.5,657 L4,657.5 L3,658 L2.5,658.5 L2,659.5 L1.5,660.5 L1.5,661 L2,662 L2,663 L2.5,663.5 L3.5,664 L4,664.5 L5,665 L70.5,664.5 L74.5,664.5 " />
<path id="140" stroke-linecap="round" stroke="#6566CC" stroke-width="5" fill="none" moovel_neighborhood="Crocker Amazon" moovel_area="751.38" moovel_length="163.91" d="M77,664 L84,664.5 L97.5,665 L156.5,664.5 L205.5,664.5 " />
<path id="141" stroke-linecap="round" stroke="#6566CC" stroke-width="5" fill="none" moovel_neighborhood="Crocker Amazon" moovel_area="4310.70" moovel_length="940.34" d="M208,664 L307.5,663.5 L468.5,663 L569.5,663.5 L570,664.5 L570,665 L570.5,666 L570.5,667 L570.5,668 L570,668.5 L570,669.5 L569.5,670 L568.5,670.5 L551,671 L442,671.5 L330.5,672 L199,671.5 L196.5,671.5 " />
<path id="142" stroke-linecap="round" stroke="#6566CC" stroke-width="5" fill="none" moovel_neighborhood="Crocker Amazon" moovel_area="1079.12" moovel_length="235.40" d="M194,671 L187,671.5 L70,671 L46.5,670.5 L9,671 " />
<path id="143" stroke-linecap="round" stroke="#6566CC" stroke-width="5" fill="none" moovel_neighborhood="Crocker Amazon" moovel_area="288.57" moovel_length="62.95" d="M7,670.5 L4.5,671 L4,671.5 L3.5,672 L3,672.5 L2.5,673 L2.5,674 L2.5,675 L3,675.5 L3.5,676 L4,676.5 L4.5,677 L43.5,677 " />
<path id="144" stroke-linecap="round" stroke="#6566CC" stroke-width="5" fill="none" moovel_neighborhood="Crocker Amazon" moovel_area="249.34" moovel_length="54.39" d="M45.5,677.5 L55,678 L81.5,677.5 L88,677.5 " />
<path id="145" stroke-linecap="round" stroke="#6566CC" stroke-width="5" fill="none" moovel_neighborhood="Crocker Amazon" moovel_area="6005.26" moovel_length="1309.99" d="M90,677.5 L106.5,678 L191,678.5 L280.5,679 L374.5,679.5 L473,680 L569.5,680.5 L571,681 L572.5,681.5 L572.5,682 L572.5,682.5 L572,683 L571,683.5 L569,684 L545.5,683.5 L436.5,683 L288,682.5 L114,682 L23,682 " />
<path id="146" stroke-linecap="round" stroke="#6566CC" stroke-width="5" fill="none" moovel_neighborhood="Crocker Amazon" moovel_area="129.97" moovel_length="28.35" d="M20.5,683.5 L4.5,684 L4,684.5 L3.5,685 L3,685.5 L2.5,686 L2.5,687 L2.5,687.5 L3,688.5 " />
<path id="147" stroke-linecap="round" stroke="#6566CC" stroke-width="5" fill="none" moovel_neighborhood="Crocker Amazon" moovel_area="3810.68" moovel_length="831.26" d="M4.5,689.5 L5,690 L20,689.5 L337,689 L384.5,688.5 L569,689 L569.5,689.5 L569.5,690 L570,691 L570,692 L570,693 L570,694 L570,695 L569.5,695.5 L569,696 L568.5,696.5 L568,697 L518,696.5 L486.5,696 " />
<path id="148" stroke-linecap="round" stroke="#6566CC" stroke-width="5" fill="none" moovel_neighborhood="Crocker Amazon" moovel_area="6321.18" moovel_length="1378.90" d="M483.5,696.5 L315,697 L4,697.5 L3.5,698 L3,698.5 L2.5,699 L2.5,700 L2.5,700.5 L3,701.5 L3.5,702 L4,702.5 L4.5,703 L5,703.5 L570,704 L570.5,704.5 L571,705.5 L571,706 L571,707 L571,708 L570.5,708.5 L570,709 L569.5,709.5 L568.5,710 L540.5,710 " />
<path id="149" stroke-linecap="round" stroke="#6566CC" stroke-width="5" fill="none" moovel_neighborhood="Crocker Amazon" moovel_area="3810.11" moovel_length="831.14" d="M538.5,709.5 L534.5,710 L504,710.5 L193,711 L84.5,711.5 L32,711 L5,711.5 L4,712 L4,712.5 L3.5,713 L3.5,714 L4,714.5 L4,715 L4.5,715.5 L6,716 L17,715.5 L77.5,716 L112.5,716.5 L118,716.5 " />
<path id="150" stroke-linecap="round" stroke="#6566CC" stroke-width="5" fill="none" moovel_neighborhood="Crocker Amazon" moovel_area="6320.59" moovel_length="1378.77" d="M120,716 L221,716.5 L569,717 L570.5,717.5 L571,718 L571,719 L571,719.5 L571,720.5 L571,721 L570.5,722 L570,722.5 L568,723 L446,722.5 L4,723 L3.5,723.5 L3,724 L2.5,725 L2.5,725.5 L2.5,726.5 L2.5,727 L3,728 L4,728.5 L4.5,729 L63,729 " />
<path id="151" stroke-linecap="round" stroke="#6566CC" stroke-width="5" fill="none" moovel_neighborhood="Crocker Amazon" moovel_area="287.12" moovel_length="62.63" d="M65,729 L114,729 " />
<path id="152" stroke-linecap="round" stroke="#6566CC" stroke-width="5" fill="none" moovel_neighborhood="Crocker Amazon" moovel_area="2983.45" moovel_length="650.81" d="M116.5,729 L286,729.5 L569,730 L570.5,730.5 L571,731.5 L571,732 L571,733 L571,733.5 L570.5,734.5 L570.5,735 L569.5,735.5 L568.5,736 L516.5,736 " />
<path id="153" stroke-linecap="round" stroke="#6566CC" stroke-width="5" fill="none" moovel_neighborhood="Crocker Amazon" moovel_area="1414.17" moovel_length="308.49" d="M514,735.5 L513.5,735 L400.5,735.5 L390,736 L273,735.5 L271.5,735.5 " />
<path id="154" stroke-linecap="round" stroke="#6566CC" stroke-width="5" fill="none" moovel_neighborhood="Crocker Amazon" moovel_area="5967.76" moovel_length="1301.81" d="M268.5,735.5 L265.5,735 L205.5,734.5 L115.5,734 L23,733.5 L4.5,734 L3.5,734.5 L2.5,735 L2,735.5 L1.5,736.5 L1,737.5 L1.5,738.5 L1.5,739.5 L2,740.5 L2.5,741.5 L3.5,742 L4.5,742.5 L25,743 L133.5,743.5 L244,744 L356,744.5 L521,745 L571,745.5 L571.5,746 L572,746.5 L572,747 L572,747.5 L571.5,748 L571,748.5 L569.5,749 L434.5,748.5 L394.5,749 L386.5,749 " />
<path id="155" stroke-linecap="round" stroke="#6566CC" stroke-width="5" fill="none" moovel_neighborhood="Crocker Amazon" moovel_area="1428.28" moovel_length="311.57" d="M384.5,748.5 L383.5,748 L260,748.5 L251.5,749 L142,748.5 L139,748 " />
<path id="156" stroke-linecap="round" stroke="#6566CC" stroke-width="5" fill="none" moovel_neighborhood="Crocker Amazon" moovel_area="3435.36" moovel_length="749.39" d="M136.5,748.5 L133,748 L114.5,748.5 L107,749 L42.5,749.5 L4.5,750 L3.5,750.5 L3.5,751.5 L3.5,752 L3.5,752.5 L3.5,753 L4,753.5 L4.5,754 L6,754.5 L7,754 L116.5,753.5 L227,753 L337.5,752.5 L421,753 L454,753.5 L455.5,753.5 " />
<path id="157" stroke-linecap="round" stroke="#6566CC" stroke-width="5" fill="none" moovel_neighborhood="Crocker Amazon" moovel_area="3898.37" moovel_length="850.39" d="M458,755 L463.5,754.5 L540,754 L569,754.5 L569.5,755 L569.5,755.5 L570,756.5 L570,757.5 L570.5,758.5 L570,759 L570,760 L569.5,761 L569,761.5 L568.5,762 L563.5,762.5 L383,763 L153.5,762.5 L131,763 L50,763.5 L17.5,763.5 " />
<path id="158" stroke-linecap="round" stroke="#6566CC" stroke-width="5" fill="none" moovel_neighborhood="Crocker Amazon" moovel_area="2732.14" moovel_length="595.99" d="M14.5,761.5 L13,762 L4,762.5 L3.5,763 L3.5,763.5 L3,764 L3,764.5 L3,765 L3,766 L3.5,766.5 L4,767 L5,767.5 L214,767 L302,767.5 L454.5,767 L456.5,767 " />
<path id="159" stroke-linecap="round" stroke="#6566CC" stroke-width="5" fill="none" moovel_neighborhood="Crocker Amazon" moovel_area="3158.36" moovel_length="688.97" d="M458.5,768 L459.5,768.5 L501,769 L570,769.5 L571,770 L571.5,770.5 L572,771 L572,771.5 L571.5,772 L571.5,772.5 L571,773 L570,773.5 L568,774 L458.5,773.5 L194.5,774 L171,774.5 L146,774 L144.5,774 " />
<path id="160" stroke-linecap="round" stroke="#6566CC" stroke-width="5" fill="none" moovel_neighborhood="Crocker Amazon" moovel_area="2108.05" moovel_length="459.85" d="M142,775 L115.5,775.5 L81.5,775 L5,775.5 L4,776 L3.5,776.5 L3.5,777 L3,777.5 L3,778.5 L3.5,779 L4,779.5 L4,780 L5.5,780.5 L218.5,781 L221.5,781 " />
<path id="161" stroke-linecap="round" stroke="#6566CC" stroke-width="5" fill="none" moovel_neighborhood="Crocker Amazon" moovel_area="6892.78" moovel_length="1503.59" d="M223.5,781 L226,781.5 L317.5,782 L468.5,782.5 L569.5,783 L571.5,783.5 L572,784 L572,784.5 L572,785 L572,785.5 L571.5,786 L571,786.5 L569,787 L517.5,786.5 L367,786 L213.5,785.5 L57,785 L4.5,785.5 L3.5,786 L2.5,786.5 L2,787 L1.5,788 L1,789.5 L1,790.5 L1.5,791.5 L2,792.5 L2.5,793.5 L3.5,794 L4.5,794.5 L265,794 " />
<path id="162" stroke-linecap="round" stroke="#6566CC" stroke-width="5" fill="none" moovel_neighborhood="Crocker Amazon" moovel_area="6917.27" moovel_length="1508.93" d="M267.5,794 L272,794.5 L373.5,795 L513.5,795.5 L570.5,796 L571.5,796.5 L572,797 L572,797.5 L572,798 L572,798.5 L571.5,799 L570.5,799.5 L569,800 L539.5,799.5 L388.5,799 L238,798.5 L87,798 L3.5,798.5 L3,799 L2,799.5 L1.5,800.5 L1,801.5 L1,802.5 L1,803.5 L1.5,804.5 L2,805.5 L3,806.5 L3.5,807 L4.5,807.5 L313,807 " />
<path id="163" stroke-linecap="round" stroke="#6566CC" stroke-width="5" fill="none" moovel_neighborhood="Crocker Amazon" moovel_area="10699.58" moovel_length="2334.01" d="M315,807 L326,807.5 L446.5,808 L558.5,808.5 L570.5,809 L571.5,809.5 L572,810 L572,810.5 L572,811 L571.5,811.5 L571,812 L570.5,812.5 L569.5,813 L540,812.5 L486.5,812 L430.5,811.5 L369.5,811 L305.5,810.5 L235.5,810 L159.5,809.5 L84.5,809 L9,808.5 L5,809 L3,809.5 L2,810.5 L1.5,811.5 L1,812.5 L1,813.5 L1,815 L1.5,816 L2,817 L3,817.5 L4,818 L5,818.5 L47.5,819 L127.5,819.5 L209,820 L291,820.5 L372.5,821 L455,821.5 L536.5,822 L571,822.5 L572,823 L572.5,823.5 L572.5,824 L572,824.5 L572,825 L570,825.5 L506.5,825 L421,824.5 L316.5,824 L204,823.5 L134,823.5 " />
<path id="164" stroke-linecap="round" stroke="#6566CC" stroke-width="5" fill="none" moovel_neighborhood="Crocker Amazon" moovel_area="1963.96" moovel_length="428.42" d="M131,826.5 L4,827 L3,827.5 L2.5,828.5 L2.5,829 L2.5,830 L2.5,830.5 L2.5,831.5 L3,832 L3.5,832.5 L4.5,833 L5.5,833.5 L117,833 L207.5,833 " />
<path id="165" stroke-linecap="round" stroke="#6566CC" stroke-width="5" fill="none" moovel_neighborhood="Crocker Amazon" moovel_area="3422.32" moovel_length="746.54" d="M210,833 L216,833.5 L226.5,833 L235.5,832.5 L299,832 L409.5,831.5 L519,831 L569,831.5 L569.5,832.5 L569.5,833 L570,834 L570,835 L570,836 L570,837 L569.5,838 L569,839 L569,839.5 L568.5,840 L496,840.5 L366,840 L347.5,839.5 " />
<path id="166" stroke-linecap="round" stroke="#6566CC" stroke-width="5" fill="none" moovel_neighborhood="Crocker Amazon" moovel_area="3743.76" moovel_length="816.66" d="M345,839 L3.5,839.5 L3,840 L2.5,841 L2,842 L2,842.5 L2,843.5 L2.5,844.5 L3,845 L3.5,846 L5,846.5 L287,846 L300.5,846 " />
<path id="167" stroke-linecap="round" stroke="#6566CC" stroke-width="5" fill="none" moovel_neighborhood="Crocker Amazon" moovel_area="3700.17" moovel_length="807.15" d="M303,846 L306.5,846.5 L569.5,847 L571,847.5 L571.5,848.5 L571.5,849 L571.5,849.5 L571,850.5 L571,851 L570,851.5 L568.5,852 L206.5,852 " />
<path id="168" stroke-linecap="round" stroke="#6566CC" stroke-width="5" fill="none" moovel_neighborhood="Crocker Amazon" moovel_area="1943.84" moovel_length="424.03" d="M204.5,852.5 L4.5,853 L3.5,853.5 L3,854.5 L2.5,855 L2.5,856 L2.5,856.5 L3,857 L3.5,858 L4,858.5 L5.5,859 L130.5,859 " />
<path id="169" stroke-linecap="round" stroke="#6566CC" stroke-width="5" fill="none" moovel_neighborhood="Crocker Amazon" moovel_area="15802.70" moovel_length="3447.20" d="M133,858.5 L183,858 L285.5,857.5 L388,857 L490.5,856.5 L569,857.5 L569.5,858 L569.5,859 L570,860 L570,861 L570,862 L569.5,863 L569.5,864 L569,865 L568.5,865.5 L509,866 L390.5,866.5 L261.5,867 L125,867.5 L5,868 L4.5,868.5 L4,869 L4,869.5 L4,870 L4,870.5 L4.5,871 L5,871.5 L42.5,871 L172.5,870.5 L302.5,870 L433.5,869.5 L563.5,869 L568.5,869.5 L569,870 L569.5,870.5 L569.5,871.5 L570,872.5 L570,873.5 L570,874.5 L569.5,875.5 L569.5,876.5 L569,877.5 L568.5,878 L568.5,878.5 L487.5,879 L367.5,879.5 L248.5,880 L128.5,880.5 L9.5,881 L4.5,881.5 L4,882 L4,882.5 L4,883 L4,883.5 L4.5,884 L4.5,884.5 L89.5,884 L192,883.5 L295,883 L412.5,882.5 L560,883 L564,883 " />
<path id="170" stroke-linecap="round" stroke="#6566CC" stroke-width="5" fill="none" moovel_neighborhood="Crocker Amazon" moovel_area="15813.93" moovel_length="3449.65" d="M566,884.5 L569.5,885 L570,885.5 L570.5,886.5 L570.5,887 L571,888 L570.5,889 L570.5,889.5 L570,890.5 L569.5,891 L569,891.5 L557,892 L444.5,892.5 L330.5,893 L215.5,893.5 L98.5,894 L5,894.5 L4,895 L4,895.5 L4,896 L4,896.5 L4.5,897 L4.5,897.5 L5.5,898 L28.5,897.5 L170,897 L321,896.5 L471.5,896 L568.5,896.5 L569,897 L569.5,897.5 L569.5,898.5 L569.5,899.5 L570,901 L569.5,902 L569.5,903 L569,904 L569,904.5 L568.5,905 L547,905.5 L396.5,906 L246,906.5 L94.5,907 L4.5,907.5 L4,908 L4,908.5 L4,909 L4,909.5 L4,910 L5,910.5 L5,911 L44,910.5 L213,910 L381.5,909.5 L549.5,909 L568.5,909.5 L569,910 L569.5,911 L569.5,911.5 L570,912.5 L570,914 L570,915 L569.5,916 L569.5,917 L569,917.5 L568.5,918 L567.5,918.5 L386.5,919 L154,918.5 L150.5,918 L147,918 " />
<path id="171" stroke-linecap="round" stroke="#6566CC" stroke-width="5" fill="none" moovel_neighborhood="Crocker Amazon" moovel_area="161.14" moovel_length="35.15" d="M144.5,917 L117.5,917.5 " />
<path id="172" stroke-linecap="round" stroke="#6566CC" stroke-width="5" fill="none" moovel_neighborhood="Crocker Amazon" moovel_area="160.21" moovel_length="34.95" d="M115.5,917 L88.5,917.5 " />
<path id="173" stroke-linecap="round" stroke="#6566CC" stroke-width="5" fill="none" moovel_neighborhood="Crocker Amazon" moovel_area="4318.24" moovel_length="941.98" d="M86,917.5 L5.5,918 L4,918.5 L3.5,919 L3,919.5 L3,920 L3,920.5 L3,921.5 L3.5,922 L3.5,922.5 L4,923 L5,923.5 L102.5,923 L317.5,922.5 L448,922 L569,922.5 L569.5,923 L570,923.5 L570,924.5 L570.5,925 L570.5,926 L570.5,927 L570,928 L569.5,929 L569,929.5 L568.5,930 L488,929.5 " />
<path id="174" stroke-linecap="round" stroke="#6566CC" stroke-width="5" fill="none" moovel_neighborhood="Crocker Amazon" moovel_area="1483.51" moovel_length="323.61" d="M486,930.5 L425.5,930 L382,929.5 L234,930 L231,930 " />
<path id="175" stroke-linecap="round" stroke="#6566CC" stroke-width="5" fill="none" moovel_neighborhood="Crocker Amazon" moovel_area="1178.48" moovel_length="257.07" d="M228.5,930.5 L168.5,931 L48.5,931.5 L42,931 L26.5,930.5 " />
<path id="176" stroke-linecap="round" stroke="#6566CC" stroke-width="5" fill="none" moovel_neighborhood="Crocker Amazon" moovel_area="5899.59" moovel_length="1286.94" d="M24,930.5 L4,931 L3.5,931.5 L3,932 L2.5,933 L2.5,933.5 L2.5,934.5 L3,935 L3.5,935.5 L4,936 L4.5,936.5 L295.5,936 L569,936.5 L570,937 L570.5,937.5 L570.5,938 L571,939 L571,940 L570.5,940.5 L570.5,941.5 L570,942 L569,942.5 L568.5,943 L314.5,943.5 L158.5,943 L154,943 " />
<path id="177" stroke-linecap="round" stroke="#6566CC" stroke-width="5" fill="none" moovel_neighborhood="Crocker Amazon" moovel_area="5902.19" moovel_length="1287.50" d="M151.5,943 L138.5,943.5 L4.5,944 L4,944.5 L3.5,945 L3,945.5 L2.5,946 L3,947 L3,947.5 L3.5,948.5 L4,949 L4.5,949.5 L236,949 L555,948.5 L569,949 L569.5,949.5 L570,950 L570.5,950.5 L570.5,951.5 L571,952 L570.5,953 L570.5,954 L570,954.5 L569.5,955 L569,955.5 L568.5,956 L365,956.5 L286.5,956 L281,956 " />
<path id="178" stroke-linecap="round" stroke="#6566CC" stroke-width="5" fill="none" moovel_neighborhood="Crocker Amazon" moovel_area="2720.21" moovel_length="593.39" d="M278.5,956.5 L271.5,957 L226.5,957.5 L144,958 L4.5,958.5 L4,959 L4,959.5 L4,960 L4,960.5 L4,961 L4.5,961.5 L5,962 L139.5,961.5 L165.5,962 L190.5,962.5 " />
<path id="179" stroke-linecap="round" stroke="#6566CC" stroke-width="5" fill="none" moovel_neighborhood="Crocker Amazon" moovel_area="94.76" moovel_length="20.67" d="M193,962.5 L208.5,962.5 " />
<path id="180" stroke-linecap="round" stroke="#6566CC" stroke-width="5" fill="none" moovel_neighborhood="Crocker Amazon" moovel_area="518.64" moovel_length="113.14" d="M211.5,963 L300,962.5 " />
<path id="181" stroke-linecap="round" stroke="#6566CC" stroke-width="5" fill="none" moovel_neighborhood="Crocker Amazon" moovel_area="1663.30" moovel_length="362.83" d="M302,962.5 L569,963 L570,963.5 L570.5,964 L571,965 L571,965.5 L571,966.5 L571,967 L570.5,968 L570,968.5 L568.5,969 L558,969 " />
<path id="182" stroke-linecap="round" stroke="#6566CC" stroke-width="5" fill="none" moovel_neighborhood="Crocker Amazon" moovel_area="375.99" moovel_length="82.02" d="M556,969 L547,969.5 L496.5,969 L492,969 " />
<path id="183" stroke-linecap="round" stroke="#6566CC" stroke-width="5" fill="none" moovel_neighborhood="Crocker Amazon" moovel_area="144.01" moovel_length="31.41" d="M489.5,969 L489,969.5 L481,969 L465.5,969 " />
<path id="184" stroke-linecap="round" stroke="#6566CC" stroke-width="5" fill="none" moovel_neighborhood="Crocker Amazon" moovel_area="371.15" moovel_length="80.96" d="M463.5,969 L449,969.5 L409,969 L400.5,969 " />
<path id="185" stroke-linecap="round" stroke="#6566CC" stroke-width="5" fill="none" moovel_neighborhood="Crocker Amazon" moovel_area="864.67" moovel_length="188.62" d="M398,969 L396.5,968.5 L255.5,969 L250,969 " />
<path id="186" stroke-linecap="round" stroke="#6566CC" stroke-width="5" fill="none" moovel_neighborhood="Crocker Amazon" moovel_area="755.11" moovel_length="164.72" d="M247.5,969 L236,968.5 L124,969 L118,969 " />
<path id="187" stroke-linecap="round" stroke="#6566CC" stroke-width="5" fill="none" moovel_neighborhood="Crocker Amazon" moovel_area="159.83" moovel_length="34.86" d="M115.5,969 L115,969.5 L101,969 L89,969 " />
<path id="188" stroke-linecap="round" stroke="#6566CC" stroke-width="5" fill="none" moovel_neighborhood="Crocker Amazon" moovel_area="102.11" moovel_length="22.27" d="M86.5,969 L69.5,969 " />
<path id="189" stroke-linecap="round" stroke="#6566CC" stroke-width="5" fill="none" moovel_neighborhood="Crocker Amazon" moovel_area="158.48" moovel_length="34.57" d="M67.5,969 L50,969.5 L42.5,969 L41,969 " />
<path id="190" stroke-linecap="round" stroke="#6566CC" stroke-width="5" fill="none" moovel_neighborhood="Crocker Amazon" moovel_area="236.32" moovel_length="51.55" d="M38,969 L4.5,969.5 L3.5,970 L3,971 L2.5,971.5 L2.5,972.5 L2.5,973 L3,974 L3.5,974.5 " />
<path id="191" stroke-linecap="round" stroke="#6566CC" stroke-width="5" fill="none" moovel_neighborhood="Crocker Amazon" moovel_area="631.35" moovel_length="137.72" d="M6,975.5 L113.5,975.5 " />
<path id="192" stroke-linecap="round" stroke="#6566CC" stroke-width="5" fill="none" moovel_neighborhood="Crocker Amazon" moovel_area="9742.28" moovel_length="2125.18" d="M116.5,975.5 L118,976 L338,976.5 L569,977 L571,977.5 L571.5,978 L571.5,978.5 L572,979 L572,980 L571.5,980.5 L571,981 L570.5,981.5 L363.5,981 L154.5,980.5 L3.5,981 L2.5,982 L2,982.5 L1.5,983.5 L1.5,984.5 L1.5,985.5 L2,986.5 L2.5,987.5 L3.5,988 L4.5,988.5 L24.5,989 L189,989.5 L342.5,990 L548,990.5 L570.5,991 L571.5,991.5 L572,992 L572,993 L572,993.5 L571.5,994 L571,994.5 L569.5,995 L502.5,995.5 L497.5,995.5 " />
<path id="193" stroke-linecap="round" stroke="#6566CC" stroke-width="5" fill="none" moovel_neighborhood="Crocker Amazon" moovel_area="310.04" moovel_length="67.63" d="M495,995 L442.5,995 " />
<path id="194" stroke-linecap="round" stroke="#6566CC" stroke-width="5" fill="none" moovel_neighborhood="Crocker Amazon" moovel_area="259.00" moovel_length="56.50" d="M440,995 L436,995.5 L422,995 L396,995 " />
<path id="195" stroke-linecap="round" stroke="#6566CC" stroke-width="5" fill="none" moovel_neighborhood="Crocker Amazon" moovel_area="258.90" moovel_length="56.48" d="M393.5,995 L370,995.5 L354,995 L349.5,995 " />
<path id="196" stroke-linecap="round" stroke="#6566CC" stroke-width="5" fill="none" moovel_neighborhood="Crocker Amazon" moovel_area="624.33" moovel_length="136.19" d="M347.5,995 L339.5,994.5 L244.5,995 L241,995 " />
<path id="197" stroke-linecap="round" stroke="#6566CC" stroke-width="5" fill="none" moovel_neighborhood="Crocker Amazon" moovel_area="4449.54" moovel_length="970.62" d="M238.5,995 L113,994.5 L4,995 L3.5,995.5 L3,996 L2.5,996.5 L2,997.5 L2,998.5 L2.5,999 L3,1000 L3.5,1000.5 L4,1001 L5,1001.5 L164.5,1002 L336,1002.5 L484.5,1003 L528,1002.5 " />
<path id="198" stroke-linecap="round" stroke="#6566CC" stroke-width="5" fill="none" moovel_neighborhood="Crocker Amazon" moovel_area="611.71" moovel_length="133.44" d="M530.5,1001.5 L532,1002 L569.5,1002.5 L571,1003 L571.5,1004 L571.5,1004.5 L571.5,1005 L571.5,1006 L571,1006.5 L570.5,1007 L569.5,1007.5 L517,1008 L511,1008 " />
<path id="199" stroke-linecap="round" stroke="#6566CC" stroke-width="5" fill="none" moovel_neighborhood="Crocker Amazon" moovel_area="4624.38" moovel_length="1008.76" d="M509,1008.5 L465,1009 L361.5,1009.5 L225,1010 L39,1009.5 L35.5,1009 L3.5,1009.5 L3,1010.5 L2.5,1011 L2,1012 L2,1013 L2,1013.5 L2.5,1014.5 L3,1015.5 L3.5,1016 L4,1016.5 L157.5,1016 L240.5,1015.5 L288,1015 " />
<path id="200" stroke-linecap="round" stroke="#6566CC" stroke-width="5" fill="none" moovel_neighborhood="Crocker Amazon" moovel_area="2163.60" moovel_length="471.97" d="M290,1014.5 L297,1014 L361.5,1013.5 L569,1014 L569.5,1014.5 L570,1015 L570.5,1015.5 L570.5,1016.5 L571,1017 L571,1018 L570.5,1018.5 L570.5,1019.5 L570,1020 L569,1020.5 L540.5,1021 L491.5,1020.5 L488.5,1021 L484,1021 " />
<path id="201" stroke-linecap="round" stroke="#6566CC" stroke-width="5" fill="none" moovel_neighborhood="Crocker Amazon" moovel_area="479.52" moovel_length="104.60" d="M482,1021 L479,1021.5 L413,1021 L400,1021 " />
<path id="202" stroke-linecap="round" stroke="#6566CC" stroke-width="5" fill="none" moovel_neighborhood="Crocker Amazon" moovel_area="577.18" moovel_length="125.91" d="M397.5,1021 L397,1021.5 L301,1021 L298.5,1021 " />
<path id="203" stroke-linecap="round" stroke="#6566CC" stroke-width="5" fill="none" moovel_neighborhood="Crocker Amazon" moovel_area="515.41" moovel_length="112.43" d="M296.5,1021 L208.5,1021 " />
<path id="204" stroke-linecap="round" stroke="#6566CC" stroke-width="5" fill="none" moovel_neighborhood="Crocker Amazon" moovel_area="657.82" moovel_length="143.50" d="M206.5,1021 L202.5,1021.5 L94,1021 " />
<path id="205" stroke-linecap="round" stroke="#6566CC" stroke-width="5" fill="none" moovel_neighborhood="Crocker Amazon" moovel_area="386.22" moovel_length="84.25" d="M91,1021 L88.5,1021.5 L66,1021 L25.5,1021 " />
<path id="206" stroke-linecap="round" stroke="#6566CC" stroke-width="5" fill="none" moovel_neighborhood="Crocker Amazon" moovel_area="227.61" moovel_length="49.65" d="M23.5,1021 L21,1021.5 L4,1022 L3.5,1022.5 L3,1023 L2.5,1023.5 L2.5,1024.5 L3,1025 L3,1026 L3.5,1026.5 L4,1027 L5.5,1027.5 L16.5,1027.5 " />
<path id="207" stroke-linecap="round" stroke="#6566CC" stroke-width="5" fill="none" moovel_neighborhood="Crocker Amazon" moovel_area="298.74" moovel_length="65.17" d="M19,1027.5 L69.5,1027.5 " />
<path id="208" stroke-linecap="round" stroke="#6566CC" stroke-width="5" fill="none" moovel_neighborhood="Crocker Amazon" moovel_area="707.34" moovel_length="154.30" d="M72,1027.5 L193,1027.5 " />
<path id="209" stroke-linecap="round" stroke="#6566CC" stroke-width="5" fill="none" moovel_neighborhood="Crocker Amazon" moovel_area="108.19" moovel_length="23.60" d="M195,1027.5 L213,1027.5 " />
<path id="210" stroke-linecap="round" stroke="#6566CC" stroke-width="5" fill="none" moovel_neighborhood="Crocker Amazon" moovel_area="768.34" moovel_length="167.61" d="M215.5,1027.5 L218,1028 L346.5,1027.5 L347,1027.5 " />
<path id="211" stroke-linecap="round" stroke="#6566CC" stroke-width="5" fill="none" moovel_neighborhood="Crocker Amazon" moovel_area="665.37" moovel_length="145.14" d="M349.5,1028 L462.5,1027.5 L463.5,1027.5 " />
<path id="212" stroke-linecap="round" stroke="#6566CC" stroke-width="5" fill="none" moovel_neighborhood="Crocker Amazon" moovel_area="133.63" moovel_length="29.15" d="M465.5,1027.5 L488,1027.5 " />
<path id="213" stroke-linecap="round" stroke="#6566CC" stroke-width="5" fill="none" moovel_neighborhood="Crocker Amazon" moovel_area="436.96" moovel_length="95.32" d="M490,1027.5 L494,1028 L564,1027.5 L564.5,1027.5 " />
<path id="214" stroke-linecap="round" stroke="#6566CC" stroke-width="5" fill="none" moovel_neighborhood="Crocker Amazon" moovel_area="5724.71" moovel_length="1248.79" d="M566.5,1027.5 L568,1028 L570.5,1028.5 L571,1029 L571.5,1030 L571.5,1030.5 L571.5,1031 L571.5,1031.5 L571,1032.5 L570.5,1033 L569,1033.5 L507.5,1033 L251.5,1032.5 L3.5,1033 L3,1033.5 L2.5,1034.5 L2,1035.5 L2,1036 L2,1037 L2.5,1038 L3,1039 L3.5,1039.5 L4.5,1040 L41,1040.5 L318.5,1041 L407,1041 " />
<path id="215" stroke-linecap="round" stroke="#6566CC" stroke-width="5" fill="none" moovel_neighborhood="Crocker Amazon" moovel_area="1191.29" moovel_length="259.87" d="M409,1040.5 L411.5,1040 L569,1040.5 L570,1041 L570.5,1041.5 L570.5,1042.5 L570.5,1043.5 L570.5,1044 L570.5,1045 L570,1045.5 L569.5,1046.5 L569,1047 L532.5,1047 " />
<path id="216" stroke-linecap="round" stroke="#6566CC" stroke-width="5" fill="none" moovel_neighborhood="Crocker Amazon" moovel_area="289.91" moovel_length="63.24" d="M530,1047 L481,1047 " />
<path id="217" stroke-linecap="round" stroke="#6566CC" stroke-width="5" fill="none" moovel_neighborhood="Crocker Amazon" moovel_area="316.62" moovel_length="69.07" d="M478.5,1047 L425,1047 " />
<path id="218" stroke-linecap="round" stroke="#6566CC" stroke-width="5" fill="none" moovel_neighborhood="Crocker Amazon" moovel_area="1194.03" moovel_length="260.47" d="M422.5,1047 L421,1047.5 L218,1047 " />
<path id="219" stroke-linecap="round" stroke="#6566CC" stroke-width="5" fill="none" moovel_neighborhood="Crocker Amazon" moovel_area="1448.44" moovel_length="315.96" d="M215,1047 L212,1047.5 L150,1047 L141.5,1046.5 L39,1046 L5,1046.5 L3.5,1047 L2.5,1047.5 L2,1048.5 L2,1049 L1.5,1050 L2,1051 L2,1051.5 L2.5,1052.5 L3,1053 L4,1053.5 L4.5,1054 L34,1053.5 L35,1053.5 " />
<path id="220" stroke-linecap="round" stroke="#6566CC" stroke-width="5" fill="none" moovel_neighborhood="Crocker Amazon" moovel_area="16568.49" moovel_length="3614.25" d="M37,1053.5 L172.5,1054 L487.5,1054.5 L570,1055 L570.5,1055.5 L571,1056 L571.5,1057 L571.5,1057.5 L571.5,1058 L571,1059 L570.5,1059.5 L570,1060 L568,1060.5 L524,1061 L469.5,1060.5 L4,1061 L3.5,1061.5 L3,1062 L3,1063 L3,1063.5 L3,1064.5 L3.5,1065 L4,1065.5 L4.5,1066 L118,1066.5 L569,1067 L570.5,1067.5 L571,1068.5 L571,1069 L571.5,1069.5 L571,1070.5 L571,1071 L570.5,1071.5 L570,1072 L569,1072.5 L5,1073 L3.5,1073.5 L3,1074 L2.5,1075 L2,1076 L2,1076.5 L2.5,1077.5 L3,1078.5 L3.5,1079 L4,1079.5 L5,1080 L570,1080.5 L571,1081 L571,1081.5 L571.5,1082.5 L571.5,1083 L571.5,1083.5 L571,1084.5 L570.5,1085 L569.5,1085.5 L546,1085.5 " />
<path id="221" stroke-linecap="round" stroke="#6566CC" stroke-width="5" fill="none" moovel_neighborhood="Crocker Amazon" moovel_area="8420.60" moovel_length="1836.87" d="M544,1085.5 L521,1085 L439,1084.5 L352.5,1084 L262.5,1083.5 L170,1083 L77.5,1082.5 L3,1083 L2,1084 L1.5,1085 L1,1086 L0.5,1087 L0.5,1088 L1,1089.5 L1.5,1090.5 L2.5,1091.5 L3.5,1092 L4.5,1092.5 L54.5,1093 L205,1093.5 L356,1094 L507,1094.5 L571,1095 L572.5,1095.5 L573,1096 L572.5,1096.5 L572,1097 L570,1097.5 L449,1097 L242.5,1097.5 L239.5,1097.5 " />
<path id="222" stroke-linecap="round" stroke="#6566CC" stroke-width="5" fill="none" moovel_neighborhood="Crocker Amazon" moovel_area="8463.32" moovel_length="1846.19" d="M237.5,1098.5 L211.5,1098 L128.5,1097.5 L44,1097 L4,1097.5 L3,1098 L2.5,1098.5 L1.5,1099.5 L1,1100.5 L1,1101.5 L1,1102.5 L1.5,1104 L2,1104.5 L3,1105.5 L4,1106 L5,1106.5 L68,1107 L150,1107.5 L232,1108 L320.5,1108.5 L433,1109 L547.5,1109.5 L572,1110 L572.5,1110.5 L573,1111 L572.5,1111.5 L571,1112 L453.5,1111.5 L338.5,1111 L220,1110.5 L74.5,1110 L4.5,1110.5 L2.5,1111.5 L2,1112 L1.5,1113 L1.5,1114 L1.5,1115 L1.5,1116 L2,1117 L3,1118 L4,1118.5 L5,1119 L70,1118.5 L75.5,1118.5 " />
<path id="223" stroke-linecap="round" stroke="#6566CC" stroke-width="5" fill="none" moovel_neighborhood="Crocker Amazon" moovel_area="4608.80" moovel_length="1005.36" d="M78.5,1118 L115,1117.5 L189.5,1117 L271.5,1116.5 L363.5,1116 L543,1116.5 L557.5,1117 L570,1117.5 L571.5,1118.5 L571.5,1119 L571.5,1119.5 L571.5,1120 L571.5,1120.5 L571,1121 L570,1121.5 L569.5,1122 L514,1122.5 L434.5,1123 L363,1123.5 L315.5,1124 L277,1124.5 L275,1124.5 " />
<path id="224" stroke-linecap="round" stroke="#6566CC" stroke-width="5" fill="none" moovel_neighborhood="Crocker Amazon" moovel_area="293.13" moovel_length="63.94" d="M272,1125 L222.5,1125 " />
<path id="225" stroke-linecap="round" stroke="#6566CC" stroke-width="5" fill="none" moovel_neighborhood="Crocker Amazon" moovel_area="1665.54" moovel_length="363.32" d="M220,1125 L4,1125.5 L3,1126 L2.5,1126.5 L2.5,1127.5 L2.5,1128.5 L2.5,1129 L2.5,1130 L3,1130.5 L3.5,1131 L4.5,1131.5 L5,1132 L47,1131.5 L67,1131.5 " />
<path id="226" stroke-linecap="round" stroke="#6566CC" stroke-width="5" fill="none" moovel_neighborhood="Crocker Amazon" moovel_area="532.02" moovel_length="116.05" d="M69,1131 L160,1131.5 " />
<path id="227" stroke-linecap="round" stroke="#6566CC" stroke-width="5" fill="none" moovel_neighborhood="Crocker Amazon" moovel_area="197.74" moovel_length="38.02" d="M162.5,1131.5 L191.5,1131.5 " />
<path id="228" stroke-linecap="round" stroke="#6566CC" stroke-width="5" fill="none" moovel_neighborhood="Crocker Amazon" moovel_area="722.96" moovel_length="139.02" d="M194,1131.5 L194.5,1131 L303,1131.5 " />
<path id="229" stroke-linecap="round" stroke="#6566CC" stroke-width="5" fill="none" moovel_neighborhood="Crocker Amazon" moovel_area="5645.57" moovel_length="1085.61" d="M305,1131.5 L569,1132 L570,1132.5 L570.5,1133 L571,1134 L571,1134.5 L571,1135.5 L571,1136 L570.5,1136.5 L570,1137.5 L568.5,1138 L411.5,1137.5 L53,1137 L4.5,1137.5 L3.5,1138 L3,1138.5 L2.5,1139 L2.5,1140 L2.5,1141 L2.5,1141.5 L3,1142.5 L3.5,1143 L4,1143.5 L5,1144 L16.5,1144 " />
<path id="230" stroke-linecap="round" stroke="#6566CC" stroke-width="5" fill="none" moovel_neighborhood="Crocker Amazon" moovel_area="3770.16" moovel_length="724.98" d="M19,1144.5 L569.5,1145 L570,1145.5 L570.5,1146 L571,1146.5 L571,1147.5 L571,1148 L571,1149 L570.5,1149.5 L570,1150 L569.5,1150.5 L569,1151 L555.5,1151 " />
<path id="231" stroke-linecap="round" stroke="#6566CC" stroke-width="5" fill="none" moovel_neighborhood="Crocker Amazon" moovel_area="991.16" moovel_length="190.59" d="M553,1151 L403.5,1151 " />
<path id="232" stroke-linecap="round" stroke="#6566CC" stroke-width="5" fill="none" moovel_neighborhood="Crocker Amazon" moovel_area="986.24" moovel_length="189.65" d="M401,1151 L399.5,1150.5 L364.5,1151 L252,1151 " />
<path id="233" stroke-linecap="round" stroke="#6566CC" stroke-width="5" fill="none" moovel_neighborhood="Crocker Amazon" moovel_area="1719.62" moovel_length="330.67" d="M249.5,1150.5 L4,1151 L3.5,1151.5 L3,1152 L2.5,1152.5 L2.5,1153.5 L2.5,1154 L2.5,1155 L3,1155.5 L3.5,1156.5 L4.5,1157 L12,1157 " />
<path id="234" stroke-linecap="round" stroke="#6566CC" stroke-width="5" fill="none" moovel_neighborhood="Crocker Amazon" moovel_area="521.43" moovel_length="100.27" d="M14.5,1157.5 L93,1157.5 " />
<path id="235" stroke-linecap="round" stroke="#6566CC" stroke-width="5" fill="none" moovel_neighborhood="Crocker Amazon" moovel_area="1217.61" moovel_length="234.14" d="M95,1157.5 L279,1157.5 " />
<path id="236" stroke-linecap="round" stroke="#6566CC" stroke-width="5" fill="none" moovel_neighborhood="Crocker Amazon" moovel_area="167.83" moovel_length="32.27" d="M281.5,1157.5 L306,1157.5 " />
<path id="237" stroke-linecap="round" stroke="#6566CC" stroke-width="5" fill="none" moovel_neighborhood="Crocker Amazon" moovel_area="2299.43" moovel_length="442.17" d="M308.5,1157.5 L323,1157 L569.5,1157.5 L570,1158 L570.5,1158.5 L571,1159.5 L571,1160 L571,1161 L570.5,1162 L570,1162.5 L569.5,1163 L569,1163.5 L489.5,1163.5 " />
<path id="238" stroke-linecap="round" stroke="#6566CC" stroke-width="5" fill="none" moovel_neighborhood="Crocker Amazon" moovel_area="568.64" moovel_length="109.35" d="M487,1164 L401.5,1164 " />
<path id="239" stroke-linecap="round" stroke="#6566CC" stroke-width="5" fill="none" moovel_neighborhood="Crocker Amazon" moovel_area="254.87" moovel_length="49.01" d="M399.5,1164 L361.5,1164 " />
<path id="240" stroke-linecap="round" stroke="#6566CC" stroke-width="5" fill="none" moovel_neighborhood="Crocker Amazon" moovel_area="2071.59" moovel_length="398.36" d="M359.5,1164 L46,1164 " />
<path id="241" stroke-linecap="round" stroke="#6566CC" stroke-width="5" fill="none" moovel_neighborhood="Crocker Amazon" moovel_area="979.73" moovel_length="188.40" d="M44,1164 L4,1164.5 L3,1165 L3,1165.5 L2.5,1166.5 L2.5,1167 L2.5,1168 L3,1168.5 L3.5,1169.5 L4,1170 L5.5,1170.5 L26,1170 L105.5,1170 " />
<path id="242" stroke-linecap="round" stroke="#6566CC" stroke-width="5" fill="none" moovel_neighborhood="Crocker Amazon" moovel_area="278.92" moovel_length="53.63" d="M107.5,1170.5 L109,1170 L149,1170 " />
<path id="243" stroke-linecap="round" stroke="#6566CC" stroke-width="5" fill="none" moovel_neighborhood="Crocker Amazon" moovel_area="121.87" moovel_length="23.43" d="M151.5,1170.5 L169.5,1170.5 " />
<path id="244" stroke-linecap="round" stroke="#6566CC" stroke-width="5" fill="none" moovel_neighborhood="Crocker Amazon" moovel_area="1374.89" moovel_length="264.38" d="M171.5,1170.5 L356.5,1171 L375.5,1170.5 L379.5,1170.5 " />
<path id="245" stroke-linecap="round" stroke="#6566CC" stroke-width="5" fill="none" moovel_neighborhood="Crocker Amazon" moovel_area="9166.68" moovel_length="1762.70" d="M381.5,1170.5 L387,1171 L433,1171.5 L511,1172 L570.5,1172.5 L572,1173 L572.5,1173.5 L572.5,1174 L572.5,1174.5 L571.5,1175 L570.5,1175.5 L521.5,1175 L444,1174.5 L367,1174 L289,1173.5 L205.5,1173 L106.5,1172.5 L3.5,1173 L2.5,1173.5 L1.5,1174.5 L1,1175.5 L0.5,1177 L0.5,1178 L1,1179.5 L1.5,1180.5 L2,1181.5 L3,1182 L4.5,1182.5 L5.5,1183 L127,1183.5 L257.5,1184 L387.5,1184.5 L507,1185 L570,1185.5 L570.5,1186 L571,1186.5 L571.5,1187 L571.5,1187.5 L571.5,1188 L571.5,1189 L571,1189.5 L570,1190 L568.5,1190.5 L559.5,1190 L521.5,1190.5 L518.5,1190.5 " />
<path id="246" stroke-linecap="round" stroke="#6566CC" stroke-width="5" fill="none" moovel_neighborhood="Crocker Amazon" moovel_area="5646.68" moovel_length="1085.83" d="M516.5,1189.5 L55.5,1189 L5,1189.5 L3.5,1190 L3,1191 L2.5,1191.5 L2.5,1192.5 L2.5,1193 L2.5,1194 L3,1194.5 L3.5,1195 L4.5,1195.5 L5,1196 L341,1196 " />
<path id="247" stroke-linecap="round" stroke="#6566CC" stroke-width="5" fill="none" moovel_neighborhood="Crocker Amazon" moovel_area="197.98" moovel_length="38.07" d="M343.5,1196 L361,1196.5 L372.5,1196.5 " />
<path id="248" stroke-linecap="round" stroke="#6566CC" stroke-width="5" fill="none" moovel_neighborhood="Crocker Amazon" moovel_area="2300.64" moovel_length="442.40" d="M375,1196 L569.5,1196.5 L570,1197 L570.5,1197.5 L571,1198 L571,1199 L571,1200 L571,1200.5 L570.5,1201.5 L570,1202 L569.5,1202.5 L467.5,1203 L444,1202.5 L422.5,1202.5 " />
<path id="249" stroke-linecap="round" stroke="#6566CC" stroke-width="5" fill="none" moovel_neighborhood="Crocker Amazon" moovel_area="722.96" moovel_length="139.02" d="M420,1203 L311,1203 " />
<path id="250" stroke-linecap="round" stroke="#6566CC" stroke-width="5" fill="none" moovel_neighborhood="Crocker Amazon" moovel_area="1374.15" moovel_length="264.24" d="M308.5,1202.5 L134,1202 L103,1202.5 L101,1202.5 " />
<path id="251" stroke-linecap="round" stroke="#6566CC" stroke-width="5" fill="none" moovel_neighborhood="Crocker Amazon" moovel_area="126.90" moovel_length="24.40" d="M99,1202.5 L80.5,1202.5 " />
<path id="252" stroke-linecap="round" stroke="#6566CC" stroke-width="5" fill="none" moovel_neighborhood="Crocker Amazon" moovel_area="478.02" moovel_length="91.92" d="M78.5,1202.5 L6.5,1202.5 " />
<path id="253" stroke-linecap="round" stroke="#6566CC" stroke-width="5" fill="none" moovel_neighborhood="Crocker Amazon" moovel_area="982.04" moovel_length="188.84" d="M4,1203 L3.5,1203.5 L3,1204 L2.5,1205 L2.5,1205.5 L2.5,1206.5 L3,1207.5 L3,1208 L3.5,1208.5 L4.5,1209 L23.5,1209.5 L145.5,1209.5 " />
<path id="254" stroke-linecap="round" stroke="#6566CC" stroke-width="5" fill="none" moovel_neighborhood="Crocker Amazon" moovel_area="987.35" moovel_length="189.86" d="M148,1209 L297,1209 " />
<path id="255" stroke-linecap="round" stroke="#6566CC" stroke-width="5" fill="none" moovel_neighborhood="Crocker Amazon" moovel_area="1221.87" moovel_length="234.96" d="M299.5,1209 L311,1209.5 L484,1209.5 " />
<path id="256" stroke-linecap="round" stroke="#6566CC" stroke-width="5" fill="none" moovel_neighborhood="Crocker Amazon" moovel_area="442.14" moovel_length="85.02" d="M486.5,1209 L523,1209.5 L545.5,1209 L553,1209 " />
<path id="257" stroke-linecap="round" stroke="#6566CC" stroke-width="5" fill="none" moovel_neighborhood="Crocker Amazon" moovel_area="164.87" moovel_length="31.70" d="M555,1209 L569,1209.5 L570,1210 L570.5,1210.5 L571,1211 L571,1212 L571,1212.5 L571,1213.5 L570.5,1214 L570,1214.5 L569.5,1215 L569,1215.5 L566.5,1215.5 " />
<path id="258" stroke-linecap="round" stroke="#6566CC" stroke-width="5" fill="none" moovel_neighborhood="Crocker Amazon" moovel_area="993.82" moovel_length="191.11" d="M564,1215.5 L414,1215.5 " />
<path id="259" stroke-linecap="round" stroke="#6566CC" stroke-width="5" fill="none" moovel_neighborhood="Crocker Amazon" moovel_area="274.37" moovel_length="52.76" d="M411.5,1215.5 L371,1215.5 " />
<path id="260" stroke-linecap="round" stroke="#6566CC" stroke-width="5" fill="none" moovel_neighborhood="Crocker Amazon" moovel_area="1714.46" moovel_length="329.68" d="M368,1215.5 L158,1215 L109,1215 " />
<path id="261" stroke-linecap="round" stroke="#6566CC" stroke-width="5" fill="none" moovel_neighborhood="Crocker Amazon" moovel_area="6949.05" moovel_length="1336.26" d="M106.5,1215.5 L104.5,1215 L79,1214.5 L11,1214 L4,1214.5 L3,1215 L2.5,1215.5 L1.5,1216.5 L1,1217.5 L1,1219 L1,1220 L1.5,1221 L2,1222 L3,1222.5 L4,1223 L5,1223.5 L47.5,1224 L128.5,1224.5 L248.5,1225 L399,1225.5 L549.5,1226 L571,1226.5 L572,1227 L572.5,1227.5 L572.5,1228 L572,1228.5 L571.5,1229 L570.5,1229.5 L418.5,1229 L297.5,1228.5 L273,1229 L230,1228.5 L197,1228.5 " />
<path id="262" stroke-linecap="round" stroke="#6566CC" stroke-width="5" fill="none" moovel_neighborhood="Crocker Amazon" moovel_area="567.67" moovel_length="109.16" d="M194.5,1228.5 L109,1228.5 " />
<path id="263" stroke-linecap="round" stroke="#6566CC" stroke-width="5" fill="none" moovel_neighborhood="Crocker Amazon" moovel_area="520.40" moovel_length="100.07" d="M106.5,1228.5 L28.5,1228.5 " />
<path id="264" stroke-linecap="round" stroke="#6566CC" stroke-width="5" fill="none" moovel_neighborhood="Crocker Amazon" moovel_area="260.41" moovel_length="50.08" d="M26.5,1228.5 L4.5,1229 L3.5,1229.5 L3,1230.5 L2.5,1231 L2.5,1232 L2.5,1232.5 L3,1233.5 L3.5,1234 L4,1234.5 L4.5,1235 L14,1235 " />
<path id="265" stroke-linecap="round" stroke="#6566CC" stroke-width="5" fill="none" moovel_neighborhood="Crocker Amazon" moovel_area="3767.66" moovel_length="724.50" d="M16,1235 L147,1235.5 L569,1236 L570.5,1236.5 L571,1237.5 L571,1238 L571,1239 L571,1239.5 L570.5,1240.5 L570.5,1241 L569.5,1241.5 L569,1242 L558.5,1242 " />
<path id="266" stroke-linecap="round" stroke="#6566CC" stroke-width="5" fill="none" moovel_neighborhood="Crocker Amazon" moovel_area="2867.71" moovel_length="551.45" d="M556,1241.5 L549,1242 L387.5,1242.5 L121.5,1242.5 " />
<path id="267" stroke-linecap="round" stroke="#6566CC" stroke-width="5" fill="none" moovel_neighborhood="Crocker Amazon" moovel_area="2867.71" moovel_length="551.45" d="M119,1241.5 L112,1242 L4.5,1242.5 L3.5,1243 L3.5,1243.5 L3,1244 L3,1245 L3,1245.5 L3,1246 L3.5,1246.5 L4,1247 L4.5,1247.5 L5,1248 L25.5,1247.5 L317,1247.5 " />
<path id="268" stroke-linecap="round" stroke="#6566CC" stroke-width="5" fill="none" moovel_neighborhood="Crocker Amazon" moovel_area="2030.17" moovel_length="390.39" d="M319.5,1248 L321,1248.5 L439.5,1249 L569,1249.5 L570.5,1250 L571,1250.5 L571.5,1251.5 L571.5,1252 L571.5,1252.5 L571,1253.5 L570.5,1254 L570,1254.5 L525.5,1255 L519,1255 " />
<path id="269" stroke-linecap="round" stroke="#6566CC" stroke-width="5" fill="none" moovel_neighborhood="Crocker Amazon" moovel_area="2039.93" moovel_length="392.27" d="M516.5,1254.5 L455.5,1254 L207.5,1254 " />
<path id="270" stroke-linecap="round" stroke="#6566CC" stroke-width="5" fill="none" moovel_neighborhood="Crocker Amazon" moovel_area="98.40" moovel_length="18.92" d="M205.5,1254.5 L191.5,1254.5 " />
<path id="271" stroke-linecap="round" stroke="#6566CC" stroke-width="5" fill="none" moovel_neighborhood="Crocker Amazon" moovel_area="520.95" moovel_length="100.18" d="M189,1254.5 L110.5,1254.5 " />
<path id="272" stroke-linecap="round" stroke="#6566CC" stroke-width="5" fill="none" moovel_neighborhood="Crocker Amazon" moovel_area="523.43" moovel_length="100.65" d="M108.5,1254.5 L29.5,1254.5 " />
<path id="273" stroke-linecap="round" stroke="#6566CC" stroke-width="5" fill="none" moovel_neighborhood="Crocker Amazon" moovel_area="16761.77" moovel_length="3223.20" d="M27,1254.5 L21.5,1254 L4.5,1254.5 L3.5,1255 L3,1255.5 L2.5,1256 L2,1257 L2,1258 L2,1259 L2.5,1259.5 L3,1260.5 L3.5,1261 L4.5,1261.5 L7,1262 L110.5,1262.5 L238.5,1263 L368,1263.5 L499,1264 L571,1264.5 L571.5,1265 L572.5,1265.5 L572.5,1266 L572.5,1266.5 L572,1267 L570,1267.5 L443.5,1267 L314,1266.5 L183.5,1266 L53,1265.5 L3.5,1266 L2.5,1267 L1.5,1267.5 L1,1268.5 L1,1270 L1,1271 L1,1272 L1.5,1273.5 L2.5,1274 L3.5,1275 L4.5,1275.5 L68.5,1276 L174.5,1276.5 L280.5,1277 L386.5,1277.5 L493,1278 L570,1278.5 L572,1279 L573,1279.5 L573,1280 L572,1280.5 L570,1281 L503.5,1280.5 L388.5,1280 L269,1279.5 L146.5,1279 L22,1278.5 L4,1279 L3,1279.5 L2,1280.5 L1.5,1281 L1.5,1282 L1,1283.5 L1.5,1284.5 L2,1285.5 L2.5,1286.5 L3,1287 L4,1287.5 L34,1288 L176.5,1288.5 L223,1288 L228.5,1287.5 " />
<path id="274" stroke-linecap="round" stroke="#6566CC" stroke-width="5" fill="none" moovel_neighborhood="Crocker Amazon" moovel_area="16745.29" moovel_length="3220.03" d="M230.5,1287 L231.5,1287.5 L275.5,1288 L408,1288.5 L567.5,1289 L571,1289.5 L571.5,1290 L572,1290.5 L572,1291 L572,1291.5 L571,1292 L570.5,1292.5 L568.5,1293 L528,1292.5 L359.5,1292 L191.5,1291.5 L23,1291 L4.5,1291.5 L2.5,1292.5 L1.5,1293.5 L1,1294.5 L1,1295.5 L1,1296.5 L1,1297.5 L1.5,1299 L2.5,1299.5 L3.5,1300.5 L5.5,1301 L138,1301.5 L297,1302 L456,1302.5 L570.5,1303 L572,1303.5 L573,1304 L572.5,1304.5 L571.5,1305 L569.5,1305.5 L488.5,1305 L319.5,1304.5 L139.5,1304 L3.5,1304.5 L2.5,1305 L1.5,1306 L1,1307 L1,1308.5 L1,1309.5 L1,1310.5 L1.5,1311.5 L2.5,1312.5 L3.5,1313 L4.5,1313.5 L56.5,1314 L216.5,1314.5 L375.5,1315 L481.5,1314.5 L482,1314.5 " />
<path id="275" stroke-linecap="round" stroke="#6566CC" stroke-width="5" fill="none" moovel_neighborhood="Crocker Amazon" moovel_area="909.76" moovel_length="174.94" d="M484.5,1313 L569,1313.5 L570.5,1314 L571,1315 L571,1315.5 L571,1316.5 L571,1317 L571,1318 L570.5,1318.5 L569.5,1319 L569,1319.5 L524,1319.5 " />
<path id="276" stroke-linecap="round" stroke="#6566CC" stroke-width="5" fill="none" moovel_neighborhood="Crocker Amazon" moovel_area="910.63" moovel_length="175.11" d="M521.5,1319.5 L384,1319.5 " />
<path id="277" stroke-linecap="round" stroke="#6566CC" stroke-width="5" fill="none" moovel_neighborhood="Crocker Amazon" moovel_area="3426.93" moovel_length="658.98" d="M382,1319.5 L377.5,1319 L279.5,1318.5 L63,1318 L4.5,1318.5 L3.5,1319 L3,1319.5 L2.5,1320 L2,1321 L2,1322 L2,1323 L2.5,1323.5 L3,1324.5 L3.5,1325 L4.5,1325.5 L10,1326 L138.5,1326 " />
<path id="278" stroke-linecap="round" stroke="#6566CC" stroke-width="5" fill="none" moovel_neighborhood="Crocker Amazon" moovel_area="3427.52" moovel_length="659.09" d="M141,1326 L151,1326.5 L282.5,1327 L569,1327.5 L570.5,1328 L571,1328.5 L571.5,1329 L571.5,1330 L571.5,1330.5 L571,1331 L570.5,1331.5 L570,1332 L569,1332.5 L485.5,1332.5 " />
<path id="279" stroke-linecap="round" stroke="#6566CC" stroke-width="5" fill="none" moovel_neighborhood="Crocker Amazon" moovel_area="602.15" moovel_length="115.79" d="M483.5,1332.5 L454,1332 L403.5,1332.5 L393,1332.5 " />
<path id="280" stroke-linecap="round" stroke="#6566CC" stroke-width="5" fill="none" moovel_neighborhood="Crocker Amazon" moovel_area="1238.38" moovel_length="284.67" d="M390.5,1332.5 L375.5,1333 L166.5,1332.5 " />
<path id="281" stroke-linecap="round" stroke="#6566CC" stroke-width="5" fill="none" moovel_neighborhood="Crocker Amazon" moovel_area="362.40" moovel_length="83.31" d="M164,1332.5 L99,1332.5 " />
<path id="282" stroke-linecap="round" stroke="#6566CC" stroke-width="5" fill="none" moovel_neighborhood="Crocker Amazon" moovel_area="2169.81" moovel_length="498.77" d="M96.5,1332.5 L87.5,1332 L58,1332.5 L5,1333 L3.5,1333.5 L3,1334 L3,1335 L2.5,1335.5 L3,1336.5 L3,1337 L3.5,1337.5 L4,1338 L4.5,1338.5 L144,1338 L297.5,1338 " />
<path id="283" stroke-linecap="round" stroke="#6566CC" stroke-width="5" fill="none" moovel_neighborhood="Crocker Amazon" moovel_area="2382.97" moovel_length="547.77" d="M300,1338.5 L326.5,1338 L416,1337.5 L569,1338 L569,1338.5 L569.5,1339 L570,1340 L570,1341 L570,1342 L570,1343 L570,1344 L569.5,1344.5 L569,1345.5 L568,1346 L415.5,1345.5 L414.5,1345.5 " />
<path id="284" stroke-linecap="round" stroke="#6566CC" stroke-width="5" fill="none" moovel_neighborhood="Crocker Amazon" moovel_area="2943.17" moovel_length="676.54" d="M412,1345.5 L408,1346 L346,1346.5 L225,1347 L15.5,1347.5 L4,1348 L3.5,1348.5 L3.5,1349.5 L3.5,1350 L3.5,1350.5 L4,1351 L4,1351.5 L5,1352 L121.5,1352.5 L122.5,1352.5 " />
<path id="285" stroke-linecap="round" stroke="#6566CC" stroke-width="5" fill="none" moovel_neighborhood="Crocker Amazon" moovel_area="24328.11" moovel_length="5592.26" d="M125,1352 L127.5,1352.5 L167.5,1353 L258.5,1353.5 L353.5,1354 L455.5,1354.5 L557,1355 L571.5,1355.5 L572.5,1356 L573,1356.5 L572.5,1357 L571,1357.5 L478.5,1357 L380.5,1356.5 L281,1356 L182.5,1355.5 L84,1355 L3.5,1355.5 L2,1356 L1,1357 L0.5,1358.5 L0,1359.5 L0,1361 L0.5,1362 L1,1363.5 L2,1364.5 L3,1365 L4.5,1365.5 L5.5,1366 L79,1366.5 L189.5,1367 L299.5,1367.5 L412,1368 L528,1368.5 L573,1369 L573,1369.5 L441.5,1369 L311.5,1368.5 L181.5,1368 L51,1367.5 L3.5,1368 L2.5,1368.5 L1.5,1369.5 L0.5,1370.5 L0,1372 L0,1373.5 L0,1375 L0.5,1376 L1,1377.5 L2,1378.5 L3.5,1379 L5,1379.5 L134,1380 L336,1380.5 L556,1381 L573,1381.5 L573,1382 L568.5,1382.5 L562,1382 L323,1381.5 L84,1381 L3.5,1381.5 L2.5,1382 L1.5,1383 L0.5,1384 L0.5,1385.5 L0,1387 L0.5,1388 L1,1389.5 L1.5,1390.5 L2.5,1391 L4,1391.5 L5,1392 L147.5,1392.5 L367.5,1393 L569,1393.5 L572,1394 L572.5,1394.5 L572.5,1395 L572,1395.5 L571,1396 L567.5,1396.5 L558,1396 L319.5,1395.5 L80.5,1395 L41,1395 " />
<path id="286" stroke-linecap="round" stroke="#6566CC" stroke-width="5" fill="none" moovel_neighborhood="Crocker Amazon" moovel_area="1737.37" moovel_length="399.37" d="M39,1397.5 L5,1398 L4,1398.5 L3.5,1399 L3,1399.5 L3,1400.5 L3,1401 L3,1401.5 L3.5,1402.5 L4,1403 L5,1403.5 L274.5,1404 L277,1404 " />
<path id="287" stroke-linecap="round" stroke="#6566CC" stroke-width="5" fill="none" moovel_neighborhood="Crocker Amazon" moovel_area="30066.59" moovel_length="6911.35" d="M279,1403.5 L309.5,1403 L408,1402.5 L507.5,1402 L569,1402.5 L569.5,1403.5 L569.5,1404.5 L570,1405.5 L570,1406.5 L570,1407.5 L569.5,1408.5 L569.5,1409.5 L569,1410 L568.5,1410.5 L568,1411 L499.5,1411.5 L407.5,1412 L314,1412.5 L222,1413 L129.5,1413.5 L37.5,1414 L5,1414.5 L4.5,1415 L4.5,1415.5 L4.5,1416 L4.5,1416.5 L5.5,1417 L35,1416.5 L133.5,1416 L233,1415.5 L332.5,1415 L437.5,1414.5 L544,1414 L568.5,1414.5 L568.5,1415 L569,1416 L569,1417 L569,1418 L569,1419 L569,1420.5 L569,1421.5 L569,1422.5 L568.5,1423.5 L568.5,1424 L568,1424.5 L537.5,1425 L435,1425.5 L333,1426 L230.5,1426.5 L128,1427 L26.5,1427.5 L5,1428 L4.5,1428.5 L4.5,1429 L5,1429.5 L5.5,1430 L29.5,1429.5 L153.5,1429 L278,1428.5 L402.5,1428 L527.5,1427.5 L568.5,1428 L568.5,1428.5 L569,1429.5 L569,1430.5 L569,1431.5 L569,1433 L569,1434 L569,1435.5 L569,1436.5 L568.5,1437 L568.5,1438 L522.5,1438.5 L398,1439 L273,1439.5 L149.5,1440 L24.5,1440.5 L5,1441 L4.5,1441.5 L4.5,1442 L5,1442.5 L5.5,1443 L26.5,1442.5 L178,1442 L328.5,1441.5 L479.5,1441 L568.5,1441.5 L568.5,1442 L569,1443 L569,1444 L569,1445 L569,1446.5 L569,1447.5 L569,1449 L569,1450 L568.5,1450.5 L568.5,1451 L568,1451.5 L473,1452 L322,1452.5 L171.5,1453 L20.5,1453.5 L5,1454 L4.5,1454.5 L4.5,1455 L5,1455.5 L5,1456 L77.5,1455.5 L232.5,1455 L397.5,1454.5 L569,1455 L569.5,1456 L569.5,1456.5 L569.5,1458 L569.5,1459 L569.5,1460 L569.5,1461 L569.5,1462 L569,1463 L568.5,1463.5 L568.5,1464 L432,1464.5 L253,1465 L73,1465.5 L34.5,1465 L26.5,1464.5 L4.5,1465 L3.5,1465.5 L3,1466 L2.5,1467 L2,1467.5 L2,1468.5 L2.5,1469.5 L2.5,1470.5 L3.5,1471 L4,1471.5 L5,1472 L10.5,1472 " />
<path id="288" stroke-linecap="round" stroke="#6566CC" stroke-width="5" fill="none" moovel_neighborhood="Crocker Amazon" moovel_area="1308.67" moovel_length="300.82" d="M13,1469 L56,1469.5 L247.5,1469 L249.5,1469 " />
<path id="289" stroke-linecap="round" stroke="#6566CC" stroke-width="5" fill="none" moovel_neighborhood="Crocker Amazon" moovel_area="5432.75" moovel_length="1248.82" d="M252,1469 L268.5,1469.5 L348.5,1470 L438,1470.5 L531,1471 L571,1471.5 L572,1472 L572.5,1472.5 L572.5,1473 L572.5,1473.5 L571,1474 L570,1474.5 L507.5,1474 L376.5,1473.5 L212.5,1473 L44,1472.5 L4.5,1473 L3,1474 L2,1474.5 L2,1475.5 L1.5,1476.5 L1.5,1477.5 L2,1478.5 L2.5,1479.5 L3,1480 L4,1480.5 L5,1481 L92.5,1481 " />
<path id="290" stroke-linecap="round" stroke="#6566CC" stroke-width="5" fill="none" moovel_neighborhood="Crocker Amazon" moovel_area="967.18" moovel_length="222.33" d="M94.5,1481.5 L269.5,1481.5 " />
<path id="291" stroke-linecap="round" stroke="#6566CC" stroke-width="5" fill="none" moovel_neighborhood="Crocker Amazon" moovel_area="1631.40" moovel_length="375.01" d="M271.5,1481.5 L306.5,1481 L508.5,1481.5 L566.5,1481.5 " />
<path id="292" stroke-linecap="round" stroke="#6566CC" stroke-width="5" fill="none" moovel_neighborhood="Crocker Amazon" moovel_area="24345.93" moovel_length="5596.35" d="M569,1482 L570,1482.5 L570.5,1483 L571,1483.5 L571.5,1484 L571.5,1485 L571.5,1485.5 L571,1486 L570.5,1486.5 L570,1487 L569.5,1487.5 L521.5,1487 L435.5,1486.5 L349.5,1486 L258,1485.5 L166,1485 L73,1484.5 L3.5,1485 L2.5,1485.5 L1.5,1486.5 L1,1487.5 L0.5,1489 L0.5,1490 L1,1491 L1.5,1492.5 L2,1493.5 L3,1494 L4.5,1494.5 L6.5,1495 L96.5,1495.5 L185.5,1496 L275.5,1496.5 L364.5,1497 L454.5,1497.5 L543.5,1498 L572.5,1498.5 L573.5,1499 L572,1499.5 L503,1499 L416,1498.5 L328,1498 L239,1497.5 L147.5,1497 L55.5,1496.5 L3,1497 L2,1498 L1,1499 L0.5,1500 L0,1501.5 L0,1503 L0,1504 L1,1505.5 L1.5,1506.5 L3,1507.5 L4,1508 L16,1508.5 L98,1509 L180,1509.5 L261,1510 L343,1510.5 L425,1511 L507,1511.5 L571.5,1512 L573.5,1512.5 L569.5,1513 L564.5,1512.5 L486,1512 L404.5,1511.5 L322.5,1511 L240,1510.5 L158.5,1510 L76.5,1509.5 L3,1510 L1.5,1511 L1,1512 L0,1513.5 L0,1514.5 L0,1516 L0.5,1517.5 L1,1518.5 L2,1519.5 L3.5,1520 L4.5,1520.5 L18.5,1521 L111,1521.5 L203,1522 L296,1522.5 L388.5,1523 L481,1523.5 L569,1524 L572.5,1524.5 L573,1525 L572.5,1525.5 L570,1526 L518,1525.5 L425.5,1525 L333.5,1524.5 L241,1524 L148.5,1523.5 L55.5,1523 L4,1523.5 L3,1524 L2,1524.5 L1.5,1525.5 L1,1526.5 L1,1528 L1,1529 L1.5,1530 L2,1531 L3,1532 L4,1532.5 L34.5,1533 L133,1533.5 L231.5,1534 L330.5,1534.5 L407,1534.5 " />
<path id="293" stroke-linecap="round" stroke="#6566CC" stroke-width="5" fill="none" moovel_neighborhood="Crocker Amazon" moovel_area="2929.14" moovel_length="673.32" d="M409.5,1533.5 L412.5,1533 L474.5,1532.5 L569,1533 L569.5,1533.5 L570,1534.5 L570,1535 L570,1536 L570,1537 L570,1538 L569.5,1539 L569.5,1540 L569,1540.5 L568,1541 L360,1541.5 L213.5,1541 L206,1541 " />
<path id="294" stroke-linecap="round" stroke="#6566CC" stroke-width="5" fill="none" moovel_neighborhood="Crocker Amazon" moovel_area="364.19" moovel_length="83.71" d="M203,1540 L138,1540 " />
<path id="295" stroke-linecap="round" stroke="#6566CC" stroke-width="5" fill="none" moovel_neighborhood="Crocker Amazon" moovel_area="1228.70" moovel_length="282.44" d="M135,1540 L130,1540.5 L5.5,1541 L3.5,1541.5 L3.5,1542 L3,1543 L3,1543.5 L3,1544 L3.5,1544.5 L4,1545 L4.5,1545.5 L5,1546 L83.5,1546.5 L88.5,1546.5 " />
<path id="296" stroke-linecap="round" stroke="#6566CC" stroke-width="5" fill="none" moovel_neighborhood="Crocker Amazon" moovel_area="5451.08" moovel_length="1253.03" d="M91,1547 L121,1547.5 L212.5,1548 L304.5,1548.5 L405,1549 L530,1549.5 L571,1550 L572,1550.5 L572.5,1551 L572.5,1551.5 L572,1552 L571,1552.5 L569,1553 L526,1552.5 L350.5,1552 L167,1551.5 L69.5,1552 L66.5,1552 " />
<path id="297" stroke-linecap="round" stroke="#6566CC" stroke-width="5" fill="none" moovel_neighborhood="Crocker Amazon" moovel_area="1316.18" moovel_length="302.55" d="M64.5,1553 L58.5,1552.5 L4,1553 L3.5,1553.5 L2.5,1554 L2,1555 L2,1555.5 L2,1556.5 L2,1557.5 L2.5,1558.5 L3,1559 L4,1559.5 L4.5,1560 L174.5,1559.5 " />
<path id="298" stroke-linecap="round" stroke="#6566CC" stroke-width="5" fill="none" moovel_neighborhood="Crocker Amazon" moovel_area="2171.42" moovel_length="499.14" d="M177.5,1559.5 L191,1560 L212,1559.5 L364,1559 L569,1559.5 L570.5,1560.5 " />
<path id="299" stroke-linecap="round" stroke="#6566CC" stroke-width="5" fill="none" moovel_neighborhood="Crocker Amazon" moovel_area="1841.30" moovel_length="423.26" d="M571,1562.5 L571,1563.5 L571,1564 L570.5,1564.5 L570,1565 L569.5,1565.5 L568.5,1566 L479.5,1565.5 L240,1565.5 " />
<path id="300" stroke-linecap="round" stroke="#6566CC" stroke-width="5" fill="none" moovel_neighborhood="Crocker Amazon" moovel_area="1884.54" moovel_length="433.20" d="M238,1566 L4,1566.5 L3.5,1567 L3,1567.5 L2.5,1568.5 L2.5,1569 L2.5,1570 L3,1570.5 L3.5,1571 L4,1571.5 L4.5,1572 L18,1572.5 L104.5,1572.5 " />
<path id="301" stroke-linecap="round" stroke="#6566CC" stroke-width="5" fill="none" moovel_neighborhood="Crocker Amazon" moovel_area="1839.26" moovel_length="422.79" d="M106.5,1572.5 L149,1572 L349.5,1571.5 L433.5,1572 L439.5,1572 " />
<path id="302" stroke-linecap="round" stroke="#6566CC" stroke-width="5" fill="none" moovel_neighborhood="Crocker Amazon" moovel_area="2305.97" moovel_length="530.07" d="M442,1572 L467,1571.5 L569,1572 L569,1572.5 L569.5,1573 L570,1574 L570,1575 L570,1576 L570,1577 L569.5,1578 L569.5,1578.5 L569,1579.5 L568.5,1580 L286,1579.5 " />
<path id="303" stroke-linecap="round" stroke="#6566CC" stroke-width="5" fill="none" moovel_neighborhood="Crocker Amazon" moovel_area="522.49" moovel_length="120.10" d="M284,1579 L230,1579.5 L197,1579 L190,1579 " />
<path id="304" stroke-linecap="round" stroke="#6566CC" stroke-width="5" fill="none" moovel_neighborhood="Crocker Amazon" moovel_area="531.39" moovel_length="122.15" d="M188,1579 L120.5,1578.5 L114.5,1579 L92,1579 " />
<path id="305" stroke-linecap="round" stroke="#6566CC" stroke-width="5" fill="none" moovel_neighborhood="Crocker Amazon" moovel_area="30050.46" moovel_length="6907.64" d="M90,1579 L88.5,1579.5 L27,1580 L4,1580.5 L3.5,1581 L3.5,1581.5 L3.5,1582 L3.5,1583 L3.5,1583.5 L4,1584 L5,1584.5 L117.5,1584 L242,1583.5 L366.5,1583 L491,1582.5 L568.5,1583 L569,1583.5 L569,1584.5 L569.5,1585.5 L569.5,1586.5 L569.5,1587.5 L569.5,1589 L569,1590 L569,1591 L568.5,1591.5 L568.5,1592 L542.5,1592.5 L428.5,1593 L313,1593.5 L198.5,1594 L84,1594.5 L5,1595 L4.5,1595.5 L4.5,1596 L4.5,1596.5 L5,1597 L103.5,1596.5 L223,1596 L342,1595.5 L462,1595 L568.5,1595.5 L568.5,1596 L569,1597 L569,1598 L569,1599 L569,1600.5 L569,1601.5 L569,1603 L569,1604 L568.5,1604.5 L568.5,1605 L568,1605.5 L452,1606 L327.5,1606.5 L203,1607 L78,1607.5 L5,1608 L4.5,1608.5 L4.5,1609 L4.5,1609.5 L5,1610 L92,1609.5 L242.5,1609 L394,1608.5 L545,1608 L568.5,1608.5 L568.5,1609.5 L569,1610 L569,1611 L569,1612.5 L569,1613.5 L569,1615 L569,1616 L569,1617 L568.5,1618 L568.5,1618.5 L541.5,1619 L405,1619.5 L268.5,1620 L132,1620.5 L5.5,1621 L5,1621.5 L4.5,1622 L4.5,1622.5 L5,1623 L160.5,1622.5 L329,1622 L497.5,1621.5 L568.5,1622 L568.5,1622.5 L569,1623.5 L569,1624.5 L569.5,1625.5 L569.5,1627 L569.5,1628 L569,1629 L569,1630 L568.5,1631 L568.5,1631.5 L568,1632 L454.5,1632.5 L276,1633 L88.5,1633.5 L5,1634 L4.5,1634.5 L4.5,1635 L4.5,1635.5 L5,1636 L5.5,1636.5 L107.5,1636 L327.5,1635.5 L548,1635 L568.5,1635.5 L569.5,1636 L570,1637 L570,1638 L570,1639 L570,1640 L570,1641 L570,1642 L569.5,1642.5 L569,1643.5 L568,1644 L398,1643.5 L361.5,1643.5 " />
<path id="306" stroke-linecap="round" stroke="#6566CC" stroke-width="5" fill="none" moovel_neighborhood="Crocker Amazon" moovel_area="1162.67" moovel_length="267.26" d="M359,1644 L350.5,1644.5 L148.5,1644 " />
<path id="307" stroke-linecap="round" stroke="#6566CC" stroke-width="5" fill="none" moovel_neighborhood="Crocker Amazon" moovel_area="13821.11" moovel_length="3177.03" d="M146.5,1644 L143.5,1644.5 L100.5,1645 L5.5,1645.5 L4,1646 L4,1646.5 L3.5,1647 L3.5,1647.5 L4,1648 L4,1648.5 L5,1649 L130,1648.5 L351,1648 L569,1648.5 L569,1649 L569.5,1650 L569.5,1651 L569.5,1652 L569.5,1653.5 L569.5,1654.5 L569.5,1655.5 L569,1656 L568.5,1656.5 L568,1657 L478.5,1657.5 L257.5,1658 L37.5,1658.5 L4.5,1659 L4,1659.5 L3.5,1660 L3.5,1660.5 L4,1661 L4,1661.5 L4.5,1662 L5,1662.5 L45,1662 L196.5,1661.5 L346.5,1661 L497.5,1660.5 L569,1661 L569,1661.5 L569.5,1662 L570,1663 L570,1664 L570,1665 L570,1666 L570,1667 L569.5,1667.5 L569,1668.5 L568.5,1669 L486,1669.5 L343.5,1670 L200,1670.5 L56.5,1671 L4,1671.5 L3.5,1672 L3.5,1672.5 L3,1673 L3,1674 L3,1674.5 L3.5,1675 L4,1675.5 L4.5,1676 L5,1676.5 L72.5,1676.5 " />
<path id="308" stroke-linecap="round" stroke="#6566CC" stroke-width="5" fill="none" moovel_neighborhood="Crocker Amazon" moovel_area="14696.46" moovel_length="3378.25" d="M75,1676 L85,1675.5 L149,1675 L258,1674.5 L402.5,1674 L568.5,1674.5 L569,1675 L569.5,1676 L569.5,1677 L569.5,1678 L569.5,1679 L569.5,1680.5 L569.5,1681.5 L569,1682 L568.5,1682.5 L568.5,1683 L549,1683.5 L310,1684 L71,1684.5 L4.5,1685 L4,1685.5 L4,1686 L4,1686.5 L4,1687 L4,1687.5 L4.5,1688 L6,1688.5 L11.5,1688 L170.5,1687.5 L330,1687 L489,1686.5 L569,1687 L569.5,1687.5 L569.5,1688.5 L570,1689 L570,1690 L570,1691.5 L570,1692.5 L569.5,1693.5 L569.5,1694 L569,1694.5 L568.5,1695 L561.5,1695.5 L402.5,1696 L243.5,1696.5 L88.5,1697 L4.5,1697.5 L4,1698 L3.5,1698.5 L3.5,1699.5 L3.5,1700 L3.5,1700.5 L4,1701 L4.5,1701.5 L5.5,1702 L29.5,1701.5 L209,1701 L395.5,1700.5 L447,1701 L451.5,1701 " />
<path id="309" stroke-linecap="round" stroke="#6566CC" stroke-width="5" fill="none" moovel_neighborhood="Crocker Amazon" moovel_area="66.09" moovel_length="18.83" d="M453.5,1702.5 L467.5,1702.5 " />
</svg>
