<?xml version="1.0" encoding="UTF-8"?>
<svg width="226px" height="175px" viewBox="0 0 226 175" version="1.1" xmlns="http://www.w3.org/2000/svg" xmlns:xlink="http://www.w3.org/1999/xlink">
    <!-- Generator: Sketch 42 (36781) - http://www.bohemiancoding.com/sketch -->
    <title>Landmark_Portland</title>
    <desc>Created with Sketch.</desc>
    <defs>
        <polygon id="path-1" points="145.817694 117.719512 144.702413 54.6097561 148.048257 54.3292683 148.048257 52.0853659 150 47.8780488 150 42.2682927 143.308311 42.5487805 142.75067 24.597561 150 24.3536585 149.72118 17.5853659 149.163539 17.0243902 147.490617 17.0243902 146.375335 16.7439024 144.981233 16.1829268 143.587131 15.6219512 142.75067 14.7804878 141.914209 13.9390244 106.66214 14.5242719 106.504021 7.20731707 101.764075 7.20731707 86.4289544 3 75.8337802 4.96341463 71.3726542 8.8902439 70.8150134 21.7926829 72.2091153 24.8780488 71.9302949 26.2804878 64.4021448 26.7195122 65.5174263 49.8414634 46 50.402439 46.2788204 84.6219512 80.2949062 84.6219512 81.4101877 118"></polygon>
        <mask id="mask-2" maskContentUnits="userSpaceOnUse" maskUnits="objectBoundingBox" x="0" y="0" width="104" height="115" fill="white">
            <use xlink:href="#path-1"></use>
        </mask>
    </defs>
    <g id="Symbols" stroke="none" stroke-width="1" fill="none" fill-rule="evenodd">
        <g id="Landmark_Portland">
            <use id="Shape" stroke="#6566CC" mask="url(#mask-2)" stroke-width="6" stroke-dasharray="10,5" fill-rule="nonzero" xlink:href="#path-1"></use>
            <path d="M46.9871994,139.676472 C43.9951845,144.75383 41.2525452,150.046444 38.7591994,155.554472 C38.5778652,155.985141 38.3738672,156.200472 38.1471994,156.200472 C37.988532,156.200472 37.7958672,156.104139 37.5691994,155.911472 C37.3425316,155.718804 36.9345357,155.384474 36.3451994,154.908472 C36.0505313,154.681804 35.9031994,154.375807 35.9031994,153.990472 C35.9031994,153.741137 35.9711988,153.423807 36.1071994,153.038472 C36.8098696,150.907794 38.4645197,147.417163 41.0711994,142.566472 C37.3765143,147.145161 34.5205429,151.100455 32.5031994,154.432472 C32.2311981,154.885807 31.970534,155.112472 31.7211994,155.112472 C31.5851988,155.112472 31.392534,155.055806 31.1431994,154.942472 C30.4858628,154.625137 29.8625357,154.256807 29.2731994,153.837472 C28.6838632,153.418136 28.4345323,152.74381 28.5251994,151.814472 C28.774534,149.275792 29.239196,146.55582 29.9191994,143.654472 C27.6071879,147.666492 25.4878757,151.859783 23.5611994,156.234472 C23.4251988,156.52914 23.232534,156.676472 22.9831994,156.676472 C22.824532,156.676472 22.6658669,156.619806 22.5071994,156.506472 C21.9405299,156.121136 21.4532015,155.633808 21.0451994,155.044472 C20.8185316,154.613803 20.7958652,154.137808 20.9771994,153.616472 C21.8612039,151.145793 23.311856,147.995158 25.3291994,144.164472 C27.2785425,140.44712 29.001192,137.534482 30.4971994,135.426472 C30.7918676,134.995803 31.0865313,134.780472 31.3811994,134.780472 C31.5852005,134.780472 31.8231981,134.859804 32.0951994,135.018472 C33.2285384,135.630475 34.0898632,136.242469 34.6791994,136.854472 C35.0645347,137.262474 35.132534,137.897134 34.8831994,138.758472 C34.0898621,141.365151 33.2965367,144.538453 32.5031994,148.278472 C33.7498723,146.261128 35.4611886,143.903819 37.6371994,141.206472 C39.74521,138.577125 41.6151913,136.469146 43.2471994,134.882472 C43.6098679,134.519803 43.9045316,134.338472 44.1311994,134.338472 C44.3352005,134.338472 44.6071977,134.463137 44.9471994,134.712472 C45.7632035,135.279141 46.511196,136.061133 47.1911994,137.058472 C47.440534,137.42114 47.5651994,137.77247 47.5651994,138.112472 C47.5651994,138.497807 47.3725347,139.019135 46.9871994,139.676472 Z M46.1711994,154.262472 C45.1738611,153.265133 44.6751994,152.029812 44.6751994,150.556472 C44.6751994,149.717801 44.8225313,148.777144 45.1171994,147.734472 C45.7065357,145.671795 46.8625242,143.405151 48.5851994,140.934472 C50.3078747,138.463793 52.075857,136.593811 53.8891994,135.324472 C54.8865378,134.621802 55.827195,134.270472 56.7111994,134.270472 C57.4138696,134.270472 58.105196,134.485803 58.7851994,134.916472 C59.8052045,135.551142 60.626863,136.242468 61.2501994,136.990472 C61.8735359,137.738475 62.1851994,138.815131 62.1851994,140.220472 C62.1851994,140.877808 62.1172001,141.569135 61.9811994,142.294472 C61.5958642,144.447816 60.7345395,146.737126 59.3971994,149.162472 C57.7425245,152.19982 55.8045439,154.409798 53.5831994,155.792472 C52.7671954,156.291141 51.9058706,156.540472 50.9991994,156.540472 C50.3418628,156.540472 49.6732028,156.415806 48.9931994,156.166472 C48.0185279,155.803803 47.0778706,155.169143 46.1711994,154.262472 Z M51.3731994,144.538472 C49.4011896,147.802488 48.4151994,150.488461 48.4151994,152.596472 C48.4151994,153.435143 48.6985299,153.854472 49.2651994,153.854472 C49.9452028,153.854472 50.7951943,153.344477 51.8151994,152.324472 C53.0165388,151.145799 54.2291933,149.491149 55.4531994,147.360472 C57.6745439,143.507119 58.7851994,140.571815 58.7851994,138.554472 C58.7851994,137.806468 58.5812015,137.432472 58.1731994,137.432472 C57.5158628,137.432472 56.5298727,138.101132 55.2151994,139.438472 C53.8325259,140.866479 52.551872,142.566462 51.3731994,144.538472 Z M71.5011994,136.174472 C71.7052005,136.491807 71.8071994,136.831803 71.8071994,137.194472 C71.8071994,137.693141 71.6032015,138.248469 71.1951994,138.860472 C69.2458564,141.784486 67.6365391,144.595125 66.3671994,147.292472 C65.1885269,149.831151 64.5991994,151.644466 64.5991994,152.732472 C64.5991994,153.321808 64.8145306,153.616472 65.2451994,153.616472 C66.423872,153.616472 68.225854,152.018488 70.6511994,148.822472 C73.4165466,145.127787 76.0345204,140.435833 78.5051994,134.746472 C78.6638669,134.383803 78.8791981,134.202472 79.1511994,134.202472 C79.3325337,134.202472 79.5251984,134.281804 79.7291994,134.440472 C80.0918679,134.712473 80.5565299,135.177135 81.1231994,135.834472 C81.4632011,136.401141 81.4858676,137.103801 81.1911994,137.942472 C78.9925218,144.447838 75.9212192,149.808451 71.9771994,154.024472 C70.3678581,155.747147 68.7472076,156.608472 67.1151994,156.608472 C66.5031964,156.608472 65.8458696,156.483806 65.1431994,156.234472 C63.8285262,155.758469 62.7178706,155.044476 61.8111994,154.092472 C61.1765296,153.412468 60.8591994,152.505811 60.8591994,151.372472 C60.8591994,150.601801 61.0065313,149.649811 61.3011994,148.516472 C61.7318683,146.90713 62.7518581,144.685819 64.3611994,141.852472 C66.0612079,138.860457 67.6818584,136.537147 69.2231994,134.882472 C69.5178676,134.565137 69.7558652,134.406472 69.9371994,134.406472 C70.1185337,134.406472 70.3281982,134.54247 70.5661994,134.814472 C70.8042006,135.086473 71.1158642,135.539802 71.5011994,136.174472 Z M86.3591994,142.600472 C83.8885204,147.020494 81.6672093,151.531115 79.6951994,156.132472 C79.5818655,156.42714 79.4118672,156.574472 79.1851994,156.574472 C78.8905313,156.574472 78.516535,156.370474 78.0631994,155.962472 C77.6098638,155.55447 77.3038669,155.20314 77.1451994,154.908472 C76.8731981,154.432469 76.816532,153.956474 76.9751994,153.480472 C77.7005364,151.349794 79.0378564,148.289825 80.9871994,144.300472 C82.6872079,140.787121 84.2965252,137.693152 85.8151994,135.018472 C86.064534,134.587803 86.3818642,134.372472 86.7671994,134.372472 C86.9485337,134.372472 87.1865313,134.417805 87.4811994,134.508472 C88.3425371,134.80314 89.2831943,135.335801 90.3031994,136.106472 C90.6658679,136.378473 90.8471994,136.707136 90.8471994,137.092472 C90.8471994,137.273806 90.8018666,137.613803 90.7111994,138.112472 C90.0538628,141.353821 89.5325347,144.980452 89.1471994,148.992472 C91.9578802,143.23511 94.6665197,138.577156 97.2731994,135.018472 C97.4772005,134.74647 97.6698652,134.610472 97.8511994,134.610472 C98.0552005,134.610472 98.2478652,134.74647 98.4291994,135.018472 C98.8598683,135.630475 99.0751994,136.265135 99.0751994,136.922472 C99.0751994,137.489141 98.8938679,138.135135 98.5311994,138.860472 C97.239193,141.353818 95.9585391,143.835793 94.6891994,146.306472 C92.8531903,149.887823 91.3912049,152.913793 90.3031994,155.384472 C90.0991984,155.837807 89.8158679,156.064472 89.4531994,156.064472 C89.2718652,156.064472 89.0452008,156.007806 88.7731994,155.894472 C88.0251957,155.577137 87.294203,155.163474 86.5801994,154.653472 C85.8661959,154.143469 85.5091994,153.38981 85.5091994,152.392472 C85.4865327,149.287123 85.7698632,146.023155 86.3591994,142.600472 Z M105.433199,138.316472 L105.127199,138.316472 C103.449858,138.361805 102.067205,137.817811 100.979199,136.684472 C100.797865,136.503137 100.707199,136.310473 100.707199,136.106472 C100.707199,135.789137 100.911197,135.573806 101.319199,135.460472 C102.837874,135.05247 104.651189,134.712473 106.759199,134.440472 C108.708543,134.213804 110.28386,134.111805 111.485199,134.134472 C113.321209,134.179805 114.703861,134.803132 115.633199,136.004472 C115.859867,136.29914 115.973199,136.537137 115.973199,136.718472 C115.973199,137.01314 115.712535,137.205805 115.191199,137.296472 C114.964532,137.341805 113.491213,137.523137 110.771199,137.840472 C110.680532,138.021806 110.578533,138.191804 110.465199,138.350472 C108.719857,140.775817 106.906542,143.654455 105.025199,146.986472 C103.075856,150.409155 101.568538,153.412459 100.503199,155.996472 C100.367199,156.336473 100.1972,156.506472 99.9931994,156.506472 C99.8571988,156.506472 99.6872005,156.427139 99.4831994,156.268472 C98.9618635,155.905803 98.5085347,155.475141 98.1231994,154.976472 C97.8285313,154.613803 97.6811994,154.25114 97.6811994,153.888472 C97.6811994,153.661804 97.7378655,153.40114 97.8511994,153.106472 C99.5058744,148.709116 102.033182,143.779166 105.433199,138.316472 Z M129.913199,138.316472 L129.607199,138.316472 C127.929858,138.361805 126.547205,137.817811 125.459199,136.684472 C125.277865,136.503137 125.187199,136.310473 125.187199,136.106472 C125.187199,135.789137 125.391197,135.573806 125.799199,135.460472 C127.317874,135.05247 129.131189,134.712473 131.239199,134.440472 C133.188543,134.213804 134.76386,134.111805 135.965199,134.134472 C137.801209,134.179805 139.183861,134.803132 140.113199,136.004472 C140.339867,136.29914 140.453199,136.537137 140.453199,136.718472 C140.453199,137.01314 140.192535,137.205805 139.671199,137.296472 C139.444532,137.341805 137.971213,137.523137 135.251199,137.840472 C135.160532,138.021806 135.058533,138.191804 134.945199,138.350472 C133.199857,140.775817 131.386542,143.654455 129.505199,146.986472 C127.555856,150.409155 126.048538,153.412459 124.983199,155.996472 C124.847199,156.336473 124.6772,156.506472 124.473199,156.506472 C124.337199,156.506472 124.1672,156.427139 123.963199,156.268472 C123.441863,155.905803 122.988535,155.475141 122.603199,154.976472 C122.308531,154.613803 122.161199,154.25114 122.161199,153.888472 C122.161199,153.661804 122.217866,153.40114 122.331199,153.106472 C123.985874,148.709116 126.513182,143.779166 129.913199,138.316472 Z M144.703199,151.780472 C142.323188,152.029806 139.897878,152.449135 137.427199,153.038472 C136.837863,153.831809 136.19187,154.772466 135.489199,155.860472 C135.217198,156.291141 134.9792,156.506472 134.775199,156.506472 C134.616532,156.506472 134.429534,156.381806 134.214199,156.132472 C133.998865,155.883137 133.732534,155.520474 133.415199,155.044472 C133.211198,154.727137 133.109199,154.398473 133.109199,154.058472 C133.109199,153.627803 133.290531,153.117808 133.653199,152.528472 C134.945206,150.443128 136.951186,147.59849 139.671199,143.994472 C142.54988,140.141119 144.986523,137.092483 146.981199,134.848472 C147.366535,134.417803 147.729198,134.202472 148.069199,134.202472 C148.318534,134.202472 148.624531,134.293137 148.987199,134.474472 C149.667203,134.83714 150.426529,135.313135 151.265199,135.902472 C151.809202,136.287807 152.081199,136.695803 152.081199,137.126472 C152.081199,137.285139 152.001867,137.613803 151.843199,138.112472 C149.621855,144.889839 148.182536,150.669781 147.525199,155.452472 C147.479866,155.860474 147.321201,156.064472 147.049199,156.064472 C146.935866,156.064472 146.788534,156.030472 146.607199,155.962472 C146.153864,155.803804 145.677869,155.537474 145.179199,155.163472 C144.68053,154.78947 144.465199,154.205809 144.533199,153.412472 C144.533199,153.367138 144.589866,152.823144 144.703199,151.780472 Z M140.113199,149.298472 C142.130543,149.003804 143.841859,148.799806 145.247199,148.686472 C145.881869,145.331788 146.629862,142.373818 147.491199,139.812472 C145.156521,142.691153 142.697212,145.853121 140.113199,149.298472 Z M163.199199,146.170472 C163.607201,146.510473 164.003864,146.941136 164.389199,147.462472 C164.910535,148.165142 165.171199,148.856468 165.171199,149.536472 C165.171199,150.46581 164.627205,151.457466 163.539199,152.511472 C162.451194,153.565477 160.898543,154.466468 158.881199,155.214472 C156.727855,156.007809 154.574544,156.415805 152.421199,156.438472 C151.877197,156.438472 151.435201,156.268473 151.095199,155.928472 C150.823198,155.679137 150.403869,155.293808 149.837199,154.772472 C149.519865,154.477804 149.361199,154.18314 149.361199,153.888472 C149.361199,153.661804 149.429199,153.40114 149.565199,153.106472 C151.650543,148.165114 154.189184,143.314496 157.181199,138.554472 C156.954532,138.21447 156.625868,137.704475 156.195199,137.024472 C156.036532,136.75247 155.957199,136.537139 155.957199,136.378472 C155.957199,136.151804 156.138531,135.947806 156.501199,135.766472 C158.813211,134.655799 161.227187,134.123138 163.743199,134.168472 C166.327212,134.213805 168.355859,135.256462 169.829199,137.296472 C170.305202,137.953808 170.543199,138.611135 170.543199,139.268472 C170.543199,140.19781 170.055871,141.206466 169.081199,142.294472 C167.81186,143.722479 165.851213,145.014466 163.199199,146.170472 Z M158.507199,144.062472 C160.61521,143.473135 162.58719,142.555145 164.423199,141.308472 C166.191208,140.084466 167.075199,139.053143 167.075199,138.214472 C167.075199,137.783803 166.667204,137.568472 165.851199,137.568472 C164.763194,137.568472 163.561873,137.806469 162.247199,138.282472 C161.249861,139.710479 160.003207,141.637126 158.507199,144.062472 Z M155.991199,148.414472 C155.311196,149.615811 154.506537,151.123129 153.577199,152.936472 C155.526543,152.551136 157.368191,151.87681 159.102199,150.913472 C160.836208,149.950134 161.703199,149.117142 161.703199,148.414472 C161.703199,147.915803 161.193205,147.666472 160.173199,147.666472 C159.062527,147.666472 157.668541,147.915803 155.991199,148.414472 Z M169.387199,154.262472 C168.389861,153.265133 167.891199,152.029812 167.891199,150.556472 C167.891199,149.717801 168.038531,148.777144 168.333199,147.734472 C168.922536,145.671795 170.078524,143.405151 171.801199,140.934472 C173.523875,138.463793 175.291857,136.593811 177.105199,135.324472 C178.102538,134.621802 179.043195,134.270472 179.927199,134.270472 C180.62987,134.270472 181.321196,134.485803 182.001199,134.916472 C183.021205,135.551142 183.842863,136.242468 184.466199,136.990472 C185.089536,137.738475 185.401199,138.815131 185.401199,140.220472 C185.401199,140.877808 185.3332,141.569135 185.197199,142.294472 C184.811864,144.447816 183.950539,146.737126 182.613199,149.162472 C180.958524,152.19982 179.020544,154.409798 176.799199,155.792472 C175.983195,156.291141 175.121871,156.540472 174.215199,156.540472 C173.557863,156.540472 172.889203,156.415806 172.209199,156.166472 C171.234528,155.803803 170.293871,155.169143 169.387199,154.262472 Z M174.589199,144.538472 C172.61719,147.802488 171.631199,150.488461 171.631199,152.596472 C171.631199,153.435143 171.91453,153.854472 172.481199,153.854472 C173.161203,153.854472 174.011194,153.344477 175.031199,152.324472 C176.232539,151.145799 177.445193,149.491149 178.669199,147.360472 C180.890544,143.507119 182.001199,140.571815 182.001199,138.554472 C182.001199,137.806468 181.797201,137.432472 181.389199,137.432472 C180.731863,137.432472 179.745873,138.101132 178.431199,139.438472 C177.048526,140.866479 175.767872,142.566462 174.589199,144.538472 Z M191.725199,145.592472 C193.742543,144.821801 195.816522,143.580814 197.947199,141.869472 C200.077877,140.15813 201.143199,138.905809 201.143199,138.112472 C201.143199,137.749803 200.769203,137.568472 200.021199,137.568472 C198.910527,137.568472 197.686539,137.795136 196.349199,138.248472 C194.762525,140.560483 193.221207,143.008459 191.725199,145.592472 Z M189.243199,150.012472 C188.019193,152.27915 187.02187,154.25113 186.251199,155.928472 C186.092532,156.268473 185.899867,156.438472 185.673199,156.438472 C185.514532,156.438472 185.265201,156.313806 184.925199,156.064472 C184.517197,155.747137 184.165868,155.350474 183.871199,154.874472 C183.576531,154.398469 183.429199,153.990473 183.429199,153.650472 C183.429199,153.401137 183.485866,153.12914 183.599199,152.834472 C185.503209,148.255782 188.04185,143.507163 191.215199,138.588472 C190.988532,138.361804 190.557869,137.885809 189.923199,137.160472 C189.741865,136.933804 189.651199,136.741139 189.651199,136.582472 C189.651199,136.355804 189.821198,136.151806 190.161199,135.970472 C192.450544,134.837133 194.921186,134.270472 197.573199,134.270472 C200.134546,134.270472 202.208525,135.165796 203.795199,136.956472 C204.520536,137.772476 204.883199,138.543135 204.883199,139.268472 C204.883199,139.903142 204.53187,140.685134 203.829199,141.614472 C202.945195,142.793144 201.585209,144.028465 199.749199,145.320472 C197.709189,146.771146 195.646543,147.870468 193.561199,148.618472 C195.079874,150.907816 196.609858,152.732465 198.151199,154.092472 C198.400534,154.296473 198.525199,154.489137 198.525199,154.670472 C198.525199,154.942473 198.219202,155.203137 197.607199,155.452472 C197.176531,155.633806 196.768535,155.758471 196.383199,155.826472 C195.907197,155.917139 195.555867,155.928472 195.329199,155.860472 C195.057198,155.792471 194.683202,155.57714 194.207199,155.214472 C192.665858,154.081133 191.011208,152.34715 189.243199,150.012472 Z" id="Outliness" fill="#6566CC" transform="translate(112.869755, 145.403926) rotate(-6.000000) translate(-112.869755, -145.403926) "></path>
        </g>
    </g>
</svg>