<?xml version="1.0" encoding="UTF-8"?>
<svg width="534px" height="250px" viewBox="0 0 534 250" version="1.1" xmlns="http://www.w3.org/2000/svg" xmlns:xlink="http://www.w3.org/1999/xlink">
    <!-- Generator: Sketch 42 (36781) - http://www.bohemiancoding.com/sketch -->
    <title>Landmark_LosAngeles</title>
    <desc>Created with Sketch.</desc>
    <defs>
        <polyline id="path-1" points="88.9652963 238.59734 103.513081 236.072551 116.941805 234.389359 319.491725 234.108827 397.825948 231.303507 405.09984 231.864571 413.772557 233.267231 418.808329 234.108827 432.796583 235.230955 442.028831 236.072551 461.332621 236.072551 484.832888 235.511487 494.344901 236.072551 505.81527 237.19468 511.970101 238.316808 517.845168 240 524 240 523.44047 91.3180169 521.761879 90.4764208 497.981847 90.7569528 459.374266 91.0374849 423.28457 91.0374849 402.022424 90.7569528 400.064068 91.0374849 397.266418 91.879081 393.349706 93.8428053 390.552056 95.5259976 387.754405 97.2091898 386.915109 97.7702539 385.516284 99.4534462 384.117459 101.697703 382.438868 104.222491 381.040043 106.186215 380.480513 107.027811 379.081687 108.14994 377.962627 108.711004 356.420715 111.235792 346.628938 112.077388 306.902296 117.407497 280.044848 120.773881 273.330486 121.334946 272.211426 121.334946 270.8126 121.054414 269.69354 120.212817 269.13401 119.651753 268.574479 118.810157 268.294714 117.688029 267.455419 111.516324 266.616124 104.503023 266.056594 100.575574 266.336359 99.4534462 266.895889 97.7702539 267.455419 96.9286578 268.294714 96.6481258 269.413775 96.0870617 272.770956 95.5259976 276.967432 94.9649335 283.122264 94.4038694 288.4378 93.5622733 297.110518 92.4401451 305.223705 91.598549 314.176188 90.4764208 323.688201 89.6348247 330.402563 88.7932285 334.039509 88.7932285 338.795515 88.7932285 339.63481 87.9516324 339.914576 87.1100363 340.194341 86.2684401 339.914576 83.4631197 339.914576 71.1197098 340.474106 65.5090689 340.753871 63.5453446 340.753871 61.5816203 341.033636 59.8984281 341.313401 58.7762999 341.872931 57.9347037 342.991991 55.9709794 344.390817 54.8488513 345.509877 54.2877872 346.349172 53.7267231 355.861185 50.9214027 359.777896 49.7992745 363.694608 47.2744861 366.212493 44.4691657 367.611319 41.9443773 368.450614 38.5779927 369.569674 33.528416 369.569674 28.4788392 368.450614 24.2708585 367.051789 20.904474 364.533903 16.9770254 362.295782 14.732769 359.498131 12.4885127 355.861185 10.8053204 352.783769 9.68319226 349.426588 9.12212817 342.152696 9.12212817 334.599039 9.12212817 321.729845 9.40266022 301.027229 9.40266022 284.241324 9.40266022 268.574479 9.40266022 264.378003 9.40266022 243.955152 12.2079807 223.532301 14.452237 198.912974 17.8186215 196.395088 17.5380895 194.436733 16.6964933 192.758142 15.8548972 191.359317 14.452237 190.240256 12.4885127 189.400961 10.5247884 189.121196 8 179.888948 9.12212817 173.454351 10.2442563 164.501869 12.2079807 154.430326 14.452237 147.156434 15.5743652 139.602776 15.8548972 130.370529 15.5743652 123.656167 15.2938331 116.941805 15.2938331 108.548852 16.4159613 93.1617726 18.3796856 78.3342232 20.0628779 63.5066738 22.0266022 55.3934864 22.5876663 44.4826482 22.5876663 35.8099306 21.7460701 26.0181527 21.185006 20.9823812 20.623942 17.9049653 20.3434099 14.8275494 20.623942 11.7501335 20.904474 8.95248265 21.4655381 5.87506674 22.5876663 3.35718099 23.7097944 0 25.3929867 5.31553657 35.2116082 9.23224773 41.9443773 10.9108382 44.1886336 15.9466097 52.6045949 19.0240256 58.4957678 20.9823812 62.9842805 22.6609717 67.4727932 24.0597971 72.52237 24.8990924 78.694075 25.1788574 82.9020556 25.1788574 87.3905683 25.1788574 93.5622733 25.4586225 97.7702539 26.0181527 101.978235 27.137213 106.747279 28.2562734 110.113664 30.7741591 115.443773 33.851575 121.054414 40.565937 135.922612 45.3219434 146.302297 52.3160705 159.767836 60.1494928 176.88029 67.9829151 192.590085 74.9770422 206.897219 79.1735184 215.874244 81.9711692 221.765417 83.6497597 225.973398 85.0485852 230.742443 85.8878804 234.669891 86.4474106 238.036276 87.0069407 239.438936 88.9652963 238.59734"></polyline>
        <mask id="mask-2" maskContentUnits="userSpaceOnUse" maskUnits="objectBoundingBox" x="0" y="0" width="524" height="232" fill="white">
            <use xlink:href="#path-1"></use>
        </mask>
    </defs>
    <g id="Symbols" stroke="none" stroke-width="1" fill="none" fill-rule="evenodd">
        <g id="Landmark_LosAngeles">
            <use id="Shape" stroke="#6566CC" mask="url(#mask-2)" stroke-width="6" stroke-dasharray="10,5" fill-rule="nonzero" xlink:href="#path-1"></use>
            <path d="M74.1252836,113.857729 C75.7572918,113.540394 77.162611,113.359062 78.3412836,113.313729 C78.9759534,113.291062 79.5086148,113.46106 79.9392836,113.823729 C80.7552877,114.526399 81.1632836,115.183726 81.1632836,115.795729 C81.1632836,116.045063 80.9592856,116.215061 80.5512836,116.305729 C78.6699409,116.668397 76.1312996,117.235058 72.9352836,118.005729 C72.277947,118.20973 71.7792853,118.17573 71.4392836,117.903729 C71.0992819,117.631727 70.6232867,117.189732 70.0112836,116.577729 C69.6939487,116.260394 69.5352836,115.93173 69.5352836,115.591729 C69.5352836,115.365061 69.6032829,115.070397 69.7392836,114.707729 C70.8046223,111.942381 72.232608,108.791746 74.0232836,105.255729 C75.9046263,101.561043 77.6499422,98.5464069 79.2592836,96.2117286 C79.4859514,95.8943937 79.7126158,95.7357286 79.9392836,95.7357286 C80.5512867,95.7357286 81.3219456,96.3930553 82.2512836,97.7077286 C82.4552846,98.0023967 82.5572836,98.2630608 82.5572836,98.4897286 C82.5572836,98.7843967 82.3986185,99.158393 82.0812836,99.6117286 C79.769272,102.921078 77.1172986,107.669698 74.1252836,113.857729 Z M85.4472836,115.897729 C84.4499453,114.90039 83.9512836,113.665069 83.9512836,112.191729 C83.9512836,111.353058 84.0986155,110.4124 84.3932836,109.369729 C84.9826199,107.307052 86.1386083,105.040408 87.8612836,102.569729 C89.5839589,100.09905 91.3519412,98.2290683 93.1652836,96.9597286 C94.1626219,96.2570584 95.1032792,95.9057286 95.9872836,95.9057286 C96.6899538,95.9057286 97.3812802,96.1210598 98.0612836,96.5517286 C99.0812887,97.1863984 99.9029472,97.8777248 100.526284,98.6257286 C101.14962,99.3737323 101.461284,100.450388 101.461284,101.855729 C101.461284,102.513065 101.393284,103.204392 101.257284,103.929729 C100.871948,106.083073 100.010624,108.372383 98.6732836,110.797729 C97.0186087,113.835077 95.080628,116.045055 92.8592836,117.427729 C92.0432795,117.926398 91.1819548,118.175729 90.2752836,118.175729 C89.617947,118.175729 88.949287,118.051063 88.2692836,117.801729 C87.2946121,117.43906 86.3539548,116.8044 85.4472836,115.897729 Z M90.6492836,106.173729 C88.6772737,109.437745 87.6912836,112.123718 87.6912836,114.231729 C87.6912836,115.070399 87.9746141,115.489729 88.5412836,115.489729 C89.221287,115.489729 90.0712785,114.979734 91.0912836,113.959729 C92.2926229,112.781056 93.5052775,111.126406 94.7292836,108.995729 C96.950628,105.142376 98.0612836,102.207072 98.0612836,100.189729 C98.0612836,99.4417248 97.8572856,99.0677286 97.4492836,99.0677286 C96.791947,99.0677286 95.8059568,99.7363886 94.4912836,101.073729 C93.10861,102.501736 91.8279562,104.201719 90.6492836,106.173729 Z M99.0132836,112.735729 C99.0359504,112.30506 99.1946155,112.089729 99.4892836,112.089729 C99.6479511,112.089729 99.8066161,112.146395 99.9652836,112.259729 C102.503963,114.118405 104.827273,115.047729 106.935284,115.047729 C107.932622,115.047729 108.431284,114.764398 108.431284,114.197729 C108.431284,113.971061 108.340618,113.727397 108.159284,113.466729 C107.977949,113.206061 107.286623,112.543067 106.085284,111.477729 C104.77061,110.321723 103.897952,109.494398 103.467284,108.995729 C102.741947,108.157058 102.379284,107.273067 102.379284,106.343729 C102.379284,105.550391 102.651281,104.723066 103.195284,103.861729 C105.144627,100.733713 107.864599,98.3197371 111.355284,96.6197286 C112.261955,96.166393 113.05528,95.9397286 113.735284,95.9397286 C114.369953,95.9397286 114.970614,96.1210601 115.537284,96.4837286 C116.715956,97.2090655 117.577281,97.9570581 118.121284,98.7277286 C118.415952,99.1583974 118.563284,99.6117262 118.563284,100.087729 C118.563284,100.473064 118.461285,100.915059 118.257284,101.413729 C117.350612,103.635073 115.93396,105.765718 114.007284,107.805729 C113.757949,108.07773 113.519951,108.213729 113.293284,108.213729 C112.749281,108.213729 112.239286,107.624401 111.763284,106.445729 C111.695283,106.287061 111.661284,106.117063 111.661284,105.935729 C111.661284,105.595727 111.797282,105.165065 112.069284,104.643729 C112.59062,103.759724 113.100614,102.8644 113.599284,101.957729 C114.301954,100.733722 114.653284,99.9403971 114.653284,99.5777286 C114.653284,99.3963943 114.562618,99.3057286 114.381284,99.3057286 C113.814614,99.3057286 112.771958,99.895056 111.253284,101.073729 C109.666609,102.320401 108.499287,103.533056 107.751284,104.711729 C107.297948,105.391732 107.071284,105.981059 107.071284,106.479729 C107.071284,106.955731 107.354614,107.499726 107.921284,108.111729 C108.737288,108.814399 109.847943,109.823055 111.253284,111.137729 C111.955954,111.908399 112.307284,112.667725 112.307284,113.415729 C112.307284,114.073065 112.035286,114.730392 111.491284,115.387729 C110.04061,117.155737 108.295294,118.039729 106.255284,118.039729 C103.965939,118.039729 101.937292,117.223737 100.169284,115.591729 C99.3306127,114.821058 98.9452833,113.869068 99.0132836,112.735729 Z M134.509284,113.415729 C132.129272,113.665063 129.703963,114.084392 127.233284,114.673729 C126.643947,115.467066 125.997954,116.407723 125.295284,117.495729 C125.023282,117.926397 124.785285,118.141729 124.581284,118.141729 C124.422616,118.141729 124.235618,118.017063 124.020284,117.767729 C123.804949,117.518394 123.538619,117.155731 123.221284,116.679729 C123.017283,116.362394 122.915284,116.03373 122.915284,115.693729 C122.915284,115.26306 123.096615,114.753065 123.459284,114.163729 C124.75129,112.078385 126.75727,109.233747 129.477284,105.629729 C132.355965,101.776376 134.792607,98.7277398 136.787284,96.4837286 C137.172619,96.0530598 137.535282,95.8377286 137.875284,95.8377286 C138.124618,95.8377286 138.430615,95.9283943 138.793284,96.1097286 C139.473287,96.4723971 140.232613,96.9483923 141.071284,97.5377286 C141.615286,97.9230638 141.887284,98.3310598 141.887284,98.7617286 C141.887284,98.920396 141.807951,99.2490594 141.649284,99.7477286 C139.427939,106.525096 137.98862,112.305038 137.331284,117.087729 C137.28595,117.495731 137.127285,117.699729 136.855284,117.699729 C136.74195,117.699729 136.594618,117.665729 136.413284,117.597729 C135.959948,117.439061 135.483953,117.17273 134.985284,116.798729 C134.486614,116.424727 134.271283,115.841066 134.339284,115.047729 C134.339284,115.002395 134.39595,114.4584 134.509284,113.415729 Z M129.919284,110.933729 C131.936627,110.63906 133.647943,110.435062 135.053284,110.321729 C135.687953,106.967045 136.435946,104.009075 137.297284,101.447729 C134.962605,104.32641 132.503297,107.488378 129.919284,110.933729 Z M148.585284,104.235729 C146.114605,108.655751 143.893293,113.166372 141.921284,117.767729 C141.80795,118.062397 141.637951,118.209729 141.411284,118.209729 C141.116615,118.209729 140.742619,118.005731 140.289284,117.597729 C139.835948,117.189727 139.529951,116.838397 139.371284,116.543729 C139.099282,116.067726 139.042616,115.591731 139.201284,115.115729 C139.926621,112.985051 141.263941,109.925082 143.213284,105.935729 C144.913292,102.422378 146.522609,99.3284086 148.041284,96.6537286 C148.290618,96.2230598 148.607948,96.0077286 148.993284,96.0077286 C149.174618,96.0077286 149.412615,96.0530615 149.707284,96.1437286 C150.568621,96.4383967 151.509279,96.9710581 152.529284,97.7417286 C152.891952,98.0137299 153.073284,98.3423933 153.073284,98.7277286 C153.073284,98.9090628 153.027951,99.2490594 152.937284,99.7477286 C152.279947,102.989078 151.758619,106.615709 151.373284,110.627729 C154.183964,104.870366 156.892604,100.212413 159.499284,96.6537286 C159.703285,96.3817272 159.895949,96.2457286 160.077284,96.2457286 C160.281285,96.2457286 160.473949,96.3817272 160.655284,96.6537286 C161.085952,97.2657316 161.301284,97.900392 161.301284,98.5577286 C161.301284,99.1243981 161.119952,99.7703916 160.757284,100.495729 C159.465277,102.989074 158.184623,105.47105 156.915284,107.941729 C155.079274,111.52308 153.617289,114.54905 152.529284,117.019729 C152.325283,117.473064 152.041952,117.699729 151.679284,117.699729 C151.497949,117.699729 151.271285,117.643062 150.999284,117.529729 C150.25128,117.212394 149.520287,116.798731 148.806284,116.288729 C148.09228,115.778726 147.735284,115.025067 147.735284,114.027729 C147.712617,110.92238 147.995947,107.658412 148.585284,104.235729 Z M168.645284,111.341729 C168.486616,111.364395 167.931288,111.489061 166.979284,111.715729 C166.344614,111.851729 165.840285,111.74973 165.466284,111.409729 C165.092282,111.069727 164.769285,110.72973 164.497284,110.389729 C164.293283,110.140394 164.191284,109.936396 164.191284,109.777729 C164.191284,109.596394 164.361282,109.426396 164.701284,109.267729 C165.426621,108.927727 166.367278,108.58773 167.523284,108.247729 C168.860624,107.81706 169.823947,107.601729 170.413284,107.601729 C171.00262,107.601729 171.489948,107.936059 171.875284,108.604729 C172.260619,109.273399 172.555283,109.970392 172.759284,110.695729 C172.963285,111.489066 172.827286,112.203059 172.351284,112.837729 C169.653937,116.351079 166.911298,118.107729 164.123284,118.107729 C162.831277,118.107729 161.618623,117.699733 160.485284,116.883729 C158.694608,115.591722 157.799284,114.10707 157.799284,112.429729 C157.799284,111.795059 157.901283,111.092399 158.105284,110.321729 C158.76262,107.98705 160.122607,105.414409 162.185284,102.603729 C164.338628,99.6570472 166.45794,97.6057344 168.543284,96.4497286 C169.449955,95.9510594 170.24328,95.7017286 170.923284,95.7017286 C171.467286,95.7017286 172.022614,95.8377272 172.589284,96.1097286 C173.722623,96.6537313 174.62928,97.3110581 175.309284,98.0817286 C175.694619,98.5123974 175.887284,99.0450587 175.887284,99.6797286 C175.887284,100.01973 175.830618,100.393727 175.717284,100.801729 C175.173281,102.728405 174.209957,104.609719 172.827284,106.445729 C172.577949,106.78573 172.339951,106.955729 172.113284,106.955729 C171.954616,106.955729 171.784618,106.876396 171.603284,106.717729 C171.036614,106.264393 170.605952,105.799731 170.311284,105.323729 C170.039282,104.734392 170.061949,104.077066 170.379284,103.351729 C170.673952,102.717059 170.979949,102.093732 171.297284,101.481729 C171.727952,100.529724 171.943284,99.8610638 171.943284,99.4757286 C171.943284,99.2037272 171.841285,99.0677286 171.637284,99.0677286 C171.138614,99.0677286 170.254623,99.6797225 168.985284,100.903729 C167.60261,102.263735 166.287957,103.907052 165.041284,105.833729 C162.865273,109.165745 161.777284,111.840385 161.777284,113.857729 C161.777284,114.855067 162.105947,115.353729 162.763284,115.353729 C163.42062,115.353729 164.298945,114.968399 165.398284,114.197729 C166.497622,113.427058 167.579945,112.475068 168.645284,111.341729 Z M182.109284,106.071729 C183.310623,105.958395 184.205947,105.901729 184.795284,105.901729 C185.520621,105.901729 186.030615,106.094393 186.325284,106.479729 C186.733286,107.001065 187.027949,107.454393 187.209284,107.839729 C187.277284,107.998396 187.311284,108.134395 187.311284,108.247729 C187.311284,108.497063 187.141285,108.644395 186.801284,108.689729 C185.35061,108.89373 183.083966,109.324392 180.001284,109.981729 C179.547948,110.8884 178.879288,112.214387 177.995284,113.959729 C179.763292,113.619727 181.463275,113.449729 183.095284,113.449729 C183.888621,113.449729 184.466615,113.642393 184.829284,114.027729 C185.599954,114.866399 185.985284,115.512393 185.985284,115.965729 C185.985284,116.23773 185.758619,116.407728 185.305284,116.475729 C181.519931,116.997065 178.754626,117.529726 177.009284,118.073729 C176.578615,118.209729 176.238618,118.277729 175.989284,118.277729 C175.717282,118.277729 175.411285,118.14173 175.071284,117.869729 C174.481947,117.416393 174.073951,117.05373 173.847284,116.781729 C173.529949,116.396393 173.371284,116.056397 173.371284,115.761729 C173.371284,115.557728 173.42795,115.297064 173.541284,114.979729 C175.626627,109.562368 178.119936,104.451086 181.021284,99.6457286 C180.681282,98.7163906 180.511284,98.1270632 180.511284,97.8777286 C180.511284,97.5150601 180.760614,97.2657293 181.259284,97.1297286 C184.115298,96.4043916 187.424598,96.0417286 191.187284,96.0417286 C192.048621,96.0417286 192.717281,96.2797262 193.193284,96.7557286 C193.533285,97.0957303 193.884615,97.6737245 194.247284,98.4897286 C194.26995,98.6030625 194.281284,98.7050615 194.281284,98.7957286 C194.281284,99.1130635 194.02062,99.294395 193.499284,99.3397286 C190.461935,99.6117299 187.730629,100.019726 185.305284,100.563729 C184.48928,101.901069 183.423957,103.73705 182.109284,106.071729 Z M193.091284,113.857729 C194.723292,113.540394 196.128611,113.359062 197.307284,113.313729 C197.941953,113.291062 198.474615,113.46106 198.905284,113.823729 C199.721288,114.526399 200.129284,115.183726 200.129284,115.795729 C200.129284,116.045063 199.925286,116.215061 199.517284,116.305729 C197.635941,116.668397 195.0973,117.235058 191.901284,118.005729 C191.243947,118.20973 190.745285,118.17573 190.405284,117.903729 C190.065282,117.631727 189.589287,117.189732 188.977284,116.577729 C188.659949,116.260394 188.501284,115.93173 188.501284,115.591729 C188.501284,115.365061 188.569283,115.070397 188.705284,114.707729 C189.770622,111.942381 191.198608,108.791746 192.989284,105.255729 C194.870626,101.561043 196.615942,98.5464069 198.225284,96.2117286 C198.451951,95.8943937 198.678616,95.7357286 198.905284,95.7357286 C199.517287,95.7357286 200.287946,96.3930553 201.217284,97.7077286 C201.421285,98.0023967 201.523284,98.2630608 201.523284,98.4897286 C201.523284,98.7843967 201.364619,99.158393 201.047284,99.6117286 C198.735272,102.921078 196.083299,107.669698 193.091284,113.857729 Z M210.159284,106.071729 C211.360623,105.958395 212.255947,105.901729 212.845284,105.901729 C213.570621,105.901729 214.080615,106.094393 214.375284,106.479729 C214.783286,107.001065 215.077949,107.454393 215.259284,107.839729 C215.327284,107.998396 215.361284,108.134395 215.361284,108.247729 C215.361284,108.497063 215.191285,108.644395 214.851284,108.689729 C213.40061,108.89373 211.133966,109.324392 208.051284,109.981729 C207.597948,110.8884 206.929288,112.214387 206.045284,113.959729 C207.813292,113.619727 209.513275,113.449729 211.145284,113.449729 C211.938621,113.449729 212.516615,113.642393 212.879284,114.027729 C213.649954,114.866399 214.035284,115.512393 214.035284,115.965729 C214.035284,116.23773 213.808619,116.407728 213.355284,116.475729 C209.569931,116.997065 206.804626,117.529726 205.059284,118.073729 C204.628615,118.209729 204.288618,118.277729 204.039284,118.277729 C203.767282,118.277729 203.461285,118.14173 203.121284,117.869729 C202.531947,117.416393 202.123951,117.05373 201.897284,116.781729 C201.579949,116.396393 201.421284,116.056397 201.421284,115.761729 C201.421284,115.557728 201.47795,115.297064 201.591284,114.979729 C203.676627,109.562368 206.169936,104.451086 209.071284,99.6457286 C208.731282,98.7163906 208.561284,98.1270632 208.561284,97.8777286 C208.561284,97.5150601 208.810614,97.2657293 209.309284,97.1297286 C212.165298,96.4043916 215.474598,96.0417286 219.237284,96.0417286 C220.098621,96.0417286 220.767281,96.2797262 221.243284,96.7557286 C221.583285,97.0957303 221.934615,97.6737245 222.297284,98.4897286 C222.31995,98.6030625 222.331284,98.7050615 222.331284,98.7957286 C222.331284,99.1130635 222.07062,99.294395 221.549284,99.3397286 C218.511935,99.6117299 215.780629,100.019726 213.355284,100.563729 C212.53928,101.901069 211.473957,103.73705 210.159284,106.071729 Z M216.823284,112.735729 C216.84595,112.30506 217.004615,112.089729 217.299284,112.089729 C217.457951,112.089729 217.616616,112.146395 217.775284,112.259729 C220.313963,114.118405 222.637273,115.047729 224.745284,115.047729 C225.742622,115.047729 226.241284,114.764398 226.241284,114.197729 C226.241284,113.971061 226.150618,113.727397 225.969284,113.466729 C225.787949,113.206061 225.096623,112.543067 223.895284,111.477729 C222.58061,110.321723 221.707952,109.494398 221.277284,108.995729 C220.551947,108.157058 220.189284,107.273067 220.189284,106.343729 C220.189284,105.550391 220.461281,104.723066 221.005284,103.861729 C222.954627,100.733713 225.674599,98.3197371 229.165284,96.6197286 C230.071955,96.166393 230.86528,95.9397286 231.545284,95.9397286 C232.179953,95.9397286 232.780614,96.1210601 233.347284,96.4837286 C234.525956,97.2090655 235.387281,97.9570581 235.931284,98.7277286 C236.225952,99.1583974 236.373284,99.6117262 236.373284,100.087729 C236.373284,100.473064 236.271285,100.915059 236.067284,101.413729 C235.160612,103.635073 233.74396,105.765718 231.817284,107.805729 C231.567949,108.07773 231.329951,108.213729 231.103284,108.213729 C230.559281,108.213729 230.049286,107.624401 229.573284,106.445729 C229.505283,106.287061 229.471284,106.117063 229.471284,105.935729 C229.471284,105.595727 229.607282,105.165065 229.879284,104.643729 C230.40062,103.759724 230.910614,102.8644 231.409284,101.957729 C232.111954,100.733722 232.463284,99.9403971 232.463284,99.5777286 C232.463284,99.3963943 232.372618,99.3057286 232.191284,99.3057286 C231.624614,99.3057286 230.581958,99.895056 229.063284,101.073729 C227.476609,102.320401 226.309287,103.533056 225.561284,104.711729 C225.107948,105.391732 224.881284,105.981059 224.881284,106.479729 C224.881284,106.955731 225.164614,107.499726 225.731284,108.111729 C226.547288,108.814399 227.657943,109.823055 229.063284,111.137729 C229.765954,111.908399 230.117284,112.667725 230.117284,113.415729 C230.117284,114.073065 229.845286,114.730392 229.301284,115.387729 C227.85061,117.155737 226.105294,118.039729 224.065284,118.039729 C221.775939,118.039729 219.747292,117.223737 217.979284,115.591729 C217.140613,114.821058 216.755283,113.869068 216.823284,112.735729 Z M108.567284,147.415729 C106.187272,147.665063 103.761963,148.084392 101.291284,148.673729 C100.701947,149.467066 100.055954,150.407723 99.3532836,151.495729 C99.0812822,151.926397 98.8432846,152.141729 98.6392836,152.141729 C98.4806161,152.141729 98.293618,152.017063 98.0782836,151.767729 C97.8629492,151.518394 97.5966185,151.155731 97.2792836,150.679729 C97.0752826,150.362394 96.9732836,150.03373 96.9732836,149.693729 C96.9732836,149.26306 97.1546151,148.753065 97.5172836,148.163729 C98.8092901,146.078385 100.81527,143.233747 103.535284,139.629729 C106.413965,135.776376 108.850607,132.72774 110.845284,130.483729 C111.230619,130.05306 111.593282,129.837729 111.933284,129.837729 C112.182618,129.837729 112.488615,129.928394 112.851284,130.109729 C113.531287,130.472397 114.290613,130.948392 115.129284,131.537729 C115.673286,131.923064 115.945284,132.33106 115.945284,132.761729 C115.945284,132.920396 115.865951,133.249059 115.707284,133.747729 C113.485939,140.525096 112.04662,146.305038 111.389284,151.087729 C111.34395,151.495731 111.185285,151.699729 110.913284,151.699729 C110.79995,151.699729 110.652618,151.665729 110.471284,151.597729 C110.017948,151.439061 109.541953,151.17273 109.043284,150.798729 C108.544614,150.424727 108.329283,149.841066 108.397284,149.047729 C108.397284,149.002395 108.45395,148.4584 108.567284,147.415729 Z M103.977284,144.933729 C105.994627,144.63906 107.705943,144.435062 109.111284,144.321729 C109.745953,140.967045 110.493946,138.009075 111.355284,135.447729 C109.020605,138.32641 106.561297,141.488378 103.977284,144.933729 Z M113.327284,150.781729 C113.032615,150.464394 112.885284,150.124397 112.885284,149.761729 C112.885284,149.535061 112.953283,149.229064 113.089284,148.843729 C113.995955,146.237049 115.389941,143.075081 117.271284,139.357729 C119.107293,135.776377 120.852609,132.739074 122.507284,130.245729 C122.733951,129.905727 122.971949,129.735729 123.221284,129.735729 C123.425285,129.735729 123.674615,129.860394 123.969284,130.109729 C124.649287,130.699065 125.159282,131.231726 125.499284,131.707729 C125.703285,132.002397 125.805284,132.263061 125.805284,132.489729 C125.805284,132.76173 125.646619,133.147059 125.329284,133.645729 C123.651942,136.275075 121.940626,139.199046 120.195284,142.417729 C118.200607,146.135081 116.727288,149.240383 115.775284,151.733729 C115.66195,152.051064 115.503285,152.209729 115.299284,152.209729 C115.231283,152.209729 115.163284,152.198395 115.095284,152.175729 C114.528614,151.949061 113.939287,151.484399 113.327284,150.781729 Z M128.865284,141.227729 C130.882627,140.457058 132.956606,139.21607 135.087284,137.504729 C137.217961,135.793387 138.283284,134.541066 138.283284,133.747729 C138.283284,133.38506 137.909287,133.203729 137.161284,133.203729 C136.050611,133.203729 134.826624,133.430393 133.489284,133.883729 C131.902609,136.19574 130.361291,138.643716 128.865284,141.227729 Z M126.383284,145.647729 C125.159277,147.914407 124.161954,149.886387 123.391284,151.563729 C123.232616,151.90373 123.039951,152.073729 122.813284,152.073729 C122.654616,152.073729 122.405285,151.949063 122.065284,151.699729 C121.657282,151.382394 121.305952,150.985731 121.011284,150.509729 C120.716615,150.033726 120.569284,149.62573 120.569284,149.285729 C120.569284,149.036394 120.62595,148.764397 120.739284,148.469729 C122.643293,143.891039 125.181934,139.14242 128.355284,134.223729 C128.128616,133.997061 127.697953,133.521066 127.063284,132.795729 C126.881949,132.569061 126.791284,132.376396 126.791284,132.217729 C126.791284,131.991061 126.961282,131.787063 127.301284,131.605729 C129.590628,130.47239 132.06127,129.905729 134.713284,129.905729 C137.27463,129.905729 139.348609,130.801053 140.935284,132.591729 C141.660621,133.407733 142.023284,134.178392 142.023284,134.903729 C142.023284,135.538398 141.671954,136.320391 140.969284,137.249729 C140.085279,138.428401 138.725293,139.663722 136.889284,140.955729 C134.849273,142.406403 132.786627,143.505725 130.701284,144.253729 C132.219958,146.543073 133.749943,148.367722 135.291284,149.727729 C135.540618,149.93173 135.665284,150.124394 135.665284,150.305729 C135.665284,150.57773 135.359287,150.838394 134.747284,151.087729 C134.316615,151.269063 133.908619,151.393728 133.523284,151.461729 C133.047281,151.552396 132.695951,151.563729 132.469284,151.495729 C132.197282,151.427728 131.823286,151.212397 131.347284,150.849729 C129.805943,149.71639 128.151292,147.982407 126.383284,145.647729 Z M145.661284,142.485729 C147.565293,142.100393 149.707272,140.797073 152.087284,138.575729 C154.331295,136.467718 155.453284,134.915067 155.453284,133.917729 C155.453284,133.48706 155.090621,133.271729 154.365284,133.271729 C153.367945,133.271729 152.22329,133.521059 150.931284,134.019729 C149.208608,136.490408 147.451959,139.312379 145.661284,142.485729 Z M144.845284,143.913729 C143.326609,146.701743 142.000623,149.26305 140.867284,151.597729 C140.685949,151.960397 140.493285,152.141729 140.289284,152.141729 C140.153283,152.141729 139.915285,152.00573 139.575284,151.733729 C139.235282,151.461727 138.861286,151.065065 138.453284,150.543729 C138.158615,150.18106 138.011284,149.795731 138.011284,149.387729 C138.011284,149.138394 138.079283,148.855064 138.215284,148.537729 C140.119293,143.936372 142.601268,139.278419 145.661284,134.563729 C145.162614,133.974392 144.765952,133.453064 144.471284,132.999729 C144.289949,132.727727 144.199284,132.501063 144.199284,132.319729 C144.199284,132.093061 144.369282,131.900396 144.709284,131.741729 C147.179963,130.60839 149.616605,130.007729 152.019284,129.939729 C154.421962,129.871728 156.484608,130.801052 158.207284,132.727729 C158.86462,133.475732 159.193284,134.235058 159.193284,135.005729 C159.193284,135.549731 158.853287,136.467722 158.173284,137.759729 C157.42528,139.142402 156.110626,140.593054 154.229284,142.111729 C152.098606,143.811737 150.06996,144.854393 148.143284,145.239729 C147.780615,145.307729 147.463285,145.341729 147.191284,145.341729 C146.284612,145.341729 145.50262,144.865733 144.845284,143.913729 Z M158.037284,149.897729 C157.039945,148.90039 156.541284,147.665069 156.541284,146.191729 C156.541284,145.353058 156.688615,144.4124 156.983284,143.369729 C157.57262,141.307052 158.728608,139.040408 160.451284,136.569729 C162.173959,134.09905 163.941941,132.229068 165.755284,130.959729 C166.752622,130.257058 167.693279,129.905729 168.577284,129.905729 C169.279954,129.905729 169.97128,130.12106 170.651284,130.551729 C171.671289,131.186398 172.492947,131.877725 173.116284,132.625729 C173.73962,133.373732 174.051284,134.450388 174.051284,135.855729 C174.051284,136.513065 173.983284,137.204392 173.847284,137.929729 C173.461948,140.083073 172.600624,142.372383 171.263284,144.797729 C169.608609,147.835077 167.670628,150.045055 165.449284,151.427729 C164.63328,151.926398 163.771955,152.175729 162.865284,152.175729 C162.207947,152.175729 161.539287,152.051063 160.859284,151.801729 C159.884612,151.43906 158.943955,150.8044 158.037284,149.897729 Z M163.239284,140.173729 C161.267274,143.437745 160.281284,146.123718 160.281284,148.231729 C160.281284,149.070399 160.564614,149.489729 161.131284,149.489729 C161.811287,149.489729 162.661279,148.979734 163.681284,147.959729 C164.882623,146.781056 166.095277,145.126406 167.319284,142.995729 C169.540628,139.142376 170.651284,136.207072 170.651284,134.189729 C170.651284,133.441725 170.447286,133.067729 170.039284,133.067729 C169.381947,133.067729 168.395957,133.736389 167.081284,135.073729 C165.69861,136.501736 164.417956,138.201719 163.239284,140.173729 Z M180.375284,141.227729 C182.392627,140.457058 184.466606,139.21607 186.597284,137.504729 C188.727961,135.793387 189.793284,134.541066 189.793284,133.747729 C189.793284,133.38506 189.419287,133.203729 188.671284,133.203729 C187.560611,133.203729 186.336624,133.430393 184.999284,133.883729 C183.412609,136.19574 181.871291,138.643716 180.375284,141.227729 Z M177.893284,145.647729 C176.669277,147.914407 175.671954,149.886387 174.901284,151.563729 C174.742616,151.90373 174.549951,152.073729 174.323284,152.073729 C174.164616,152.073729 173.915285,151.949063 173.575284,151.699729 C173.167282,151.382394 172.815952,150.985731 172.521284,150.509729 C172.226615,150.033726 172.079284,149.62573 172.079284,149.285729 C172.079284,149.036394 172.13595,148.764397 172.249284,148.469729 C174.153293,143.891039 176.691934,139.14242 179.865284,134.223729 C179.638616,133.997061 179.207953,133.521066 178.573284,132.795729 C178.391949,132.569061 178.301284,132.376396 178.301284,132.217729 C178.301284,131.991061 178.471282,131.787063 178.811284,131.605729 C181.100628,130.47239 183.57127,129.905729 186.223284,129.905729 C188.78463,129.905729 190.858609,130.801053 192.445284,132.591729 C193.170621,133.407733 193.533284,134.178392 193.533284,134.903729 C193.533284,135.538398 193.181954,136.320391 192.479284,137.249729 C191.595279,138.428401 190.235293,139.663722 188.399284,140.955729 C186.359273,142.406403 184.296627,143.505725 182.211284,144.253729 C183.729958,146.543073 185.259943,148.367722 186.801284,149.727729 C187.050618,149.93173 187.175284,150.124394 187.175284,150.305729 C187.175284,150.57773 186.869287,150.838394 186.257284,151.087729 C185.826615,151.269063 185.418619,151.393728 185.033284,151.461729 C184.557281,151.552396 184.205951,151.563729 183.979284,151.495729 C183.707282,151.427728 183.333286,151.212397 182.857284,150.849729 C181.315943,149.71639 179.661292,147.982407 177.893284,145.647729 Z M199.959284,133.951729 L199.653284,133.951729 C197.975942,133.997062 196.593289,133.453068 195.505284,132.319729 C195.323949,132.138394 195.233284,131.94573 195.233284,131.741729 C195.233284,131.424394 195.437282,131.209062 195.845284,131.095729 C197.363958,130.687727 199.177273,130.34773 201.285284,130.075729 C203.234627,129.849061 204.809944,129.747062 206.011284,129.769729 C207.847293,129.815062 209.229946,130.438389 210.159284,131.639729 C210.385951,131.934397 210.499284,132.172394 210.499284,132.353729 C210.499284,132.648397 210.23862,132.841061 209.717284,132.931729 C209.490616,132.977062 208.017297,133.158394 205.297284,133.475729 C205.206616,133.657063 205.104618,133.827061 204.991284,133.985729 C203.245942,136.411074 201.432626,139.289712 199.551284,142.621729 C197.601941,146.044412 196.094622,149.047716 195.029284,151.631729 C194.893283,151.97173 194.723285,152.141729 194.519284,152.141729 C194.383283,152.141729 194.213285,152.062396 194.009284,151.903729 C193.487948,151.54106 193.034619,151.110398 192.649284,150.611729 C192.354615,150.24906 192.207284,149.886397 192.207284,149.523729 C192.207284,149.297061 192.26395,149.036397 192.377284,148.741729 C194.031959,144.344373 196.559267,139.414423 199.959284,133.951729 Z" id="Outlines" fill="#6566CC" transform="translate(152.954284, 123.955729) rotate(-11.000000) translate(-152.954284, -123.955729) "></path>
        </g>
    </g>
</svg>