<?xml version="1.0" encoding="UTF-8"?>
<svg width="99px" height="427px" viewBox="0 0 99 427" version="1.1" xmlns="http://www.w3.org/2000/svg" xmlns:xlink="http://www.w3.org/1999/xlink">
    <!-- Generator: Sketch 42 (36781) - http://www.bohemiancoding.com/sketch -->
    <title>Landmark_NewYork</title>
    <desc>Created with Sketch.</desc>
    <defs>
        <polyline id="path-1" points="185.152609 56.8514134 184.702278 56.4018619 184.251947 55.9523103 183.801616 55.5027587 183.351285 54.6036556 183.351285 53.2550009 183.351285 52.8054493 183.351285 52.3558978 182.900953 51.4567946 114.000291 12.7953596 113.54996 13.6944628 113.099629 14.1440143 112.198967 14.5935659 111.298304 15.0431175 110.397642 15.0431175 109.947311 14.5935659 -86.847391 371.537512 -85.9467287 372.436615 -85.4963976 373.335718 -85.0460665 374.234822 -84.5957353 375.133925 -84.5957353 376.482579 -84.5957353 377.831234 -84.5957353 378.280786 -20.1983843 413.79536 -17.4963976 408.400741 -16.1454042 407.951189 -15.244742 408.400741 -11.642093 410.198947 -10.7414307 410.198947 185.152609 56.8514134"></polyline>
        <mask id="mask-2" maskContentUnits="userSpaceOnUse" maskUnits="objectBoundingBox" x="0" y="0" width="272" height="401" fill="white">
            <use xlink:href="#path-1"></use>
        </mask>
    </defs>
    <g id="Symbols" stroke="none" stroke-width="1" fill="none" fill-rule="evenodd">
        <g id="Landmark_NewYork">
            <use id="CentralPark" stroke="#6566CC" mask="url(#mask-2)" stroke-width="6" stroke-dasharray="10,5" fill-rule="nonzero" transform="translate(49.152609, 213.295360) rotate(-29.000000) translate(-49.152609, -213.295360) " xlink:href="#path-1"></use>
            <path d="M-37.9101322,225.148694 C-39.3608061,225.284694 -40.8567912,224.865365 -42.3981322,223.890694 C-44.3928088,222.644021 -45.3901322,221.125369 -45.3901322,219.334694 C-45.3901322,218.700024 -45.2768,218.008697 -45.0501322,217.260694 C-44.3247952,214.903348 -42.9534756,212.330707 -40.9361322,209.542694 C-38.7827881,206.596012 -36.6748092,204.544699 -34.6121322,203.388694 C-33.6601274,202.844691 -32.8441356,202.572694 -32.1641322,202.572694 C-30.8947925,202.572694 -29.4554736,203.377352 -27.8461322,204.986694 C-27.4607969,205.372029 -27.2681322,205.893357 -27.2681322,206.550694 C-27.2681322,206.913362 -27.3247983,207.310025 -27.4381322,207.740694 C-27.9368014,209.59937 -28.9227915,211.480684 -30.3961322,213.384694 C-30.6454668,213.702028 -30.8834644,213.860694 -31.1101322,213.860694 C-31.2687997,213.860694 -31.438798,213.781361 -31.6201322,213.622694 C-31.9828007,213.305359 -32.4021298,212.85203 -32.8781322,212.262694 C-33.1954671,211.628024 -33.1841339,210.959364 -32.8441322,210.256694 C-31.6881264,207.854015 -31.1101322,206.494028 -31.1101322,206.176694 C-31.1101322,205.972693 -31.200798,205.870694 -31.3821322,205.870694 C-31.8808014,205.870694 -32.7647925,206.505354 -34.0341322,207.774694 C-35.394139,209.157367 -36.7201257,210.82335 -38.0121322,212.772694 C-40.1654763,216.03671 -41.2421322,218.71135 -41.2421322,220.796694 C-41.2421322,221.771365 -40.924802,222.258694 -40.2901322,222.258694 C-39.5647952,222.258694 -38.5561387,221.816698 -37.2641322,220.932694 C-35.9721257,220.048689 -34.7254715,218.949367 -33.5241322,217.634694 C-33.2521308,217.340025 -33.0141332,217.192694 -32.8101322,217.192694 C-32.628798,217.192694 -32.4701329,217.317359 -32.3341322,217.566694 C-32.0167973,218.15603 -31.8581322,218.666025 -31.8581322,219.096694 C-31.8581322,220.184699 -32.5947915,221.442686 -34.0681322,222.870694 C-35.5414729,224.298701 -36.8221268,225.058026 -37.9101322,225.148694 Z M-22.3721322,213.044694 C-21.1707929,212.93136 -20.2754685,212.874694 -19.6861322,212.874694 C-18.9607952,212.874694 -18.4508003,213.067358 -18.1561322,213.452694 C-17.7481302,213.974029 -17.4534664,214.427358 -17.2721322,214.812694 C-17.2041319,214.971361 -17.1701322,215.10736 -17.1701322,215.220694 C-17.1701322,215.470028 -17.3401305,215.61736 -17.6801322,215.662694 C-19.1308061,215.866695 -21.3974501,216.297357 -24.4801322,216.954694 C-24.9334678,217.861365 -25.6021278,219.187351 -26.4861322,220.932694 C-24.7181234,220.592692 -23.0181404,220.422694 -21.3861322,220.422694 C-20.5927949,220.422694 -20.0148007,220.615358 -19.6521322,221.000694 C-18.8814617,221.839364 -18.4961322,222.485358 -18.4961322,222.938694 C-18.4961322,223.210695 -18.7227966,223.380693 -19.1761322,223.448694 C-22.9614845,223.970029 -25.7267901,224.502691 -27.4721322,225.046694 C-27.902801,225.182694 -28.2427976,225.250694 -28.4921322,225.250694 C-28.7641336,225.250694 -29.0701305,225.114695 -29.4101322,224.842694 C-29.9994685,224.389358 -30.4074644,224.026695 -30.6341322,223.754694 C-30.9514671,223.369358 -31.1101322,223.029362 -31.1101322,222.734694 C-31.1101322,222.530693 -31.0534661,222.270028 -30.9401322,221.952694 C-28.8547884,216.535333 -26.36148,211.424051 -23.4601322,206.618694 C-23.8001339,205.689356 -23.9701322,205.100028 -23.9701322,204.850694 C-23.9701322,204.488025 -23.7208014,204.238694 -23.2221322,204.102694 C-20.3661179,203.377357 -17.0568177,203.014694 -13.2941322,203.014694 C-12.4327946,203.014694 -11.7641346,203.252691 -11.2881322,203.728694 C-10.9481305,204.068695 -10.5968007,204.646689 -10.2341322,205.462694 C-10.2114654,205.576027 -10.2001322,205.678026 -10.2001322,205.768694 C-10.2001322,206.086028 -10.4607963,206.26736 -10.9821322,206.312694 C-14.0194807,206.584695 -16.7507867,206.992691 -19.1761322,207.536694 C-19.9921363,208.874034 -21.057459,210.710015 -22.3721322,213.044694 Z M-6.18813219,211.208694 C-8.65881121,215.628716 -10.8801223,220.139337 -12.8521322,224.740694 C-12.9654661,225.035362 -13.1354644,225.182694 -13.3621322,225.182694 C-13.6568003,225.182694 -14.0307966,224.978696 -14.4841322,224.570694 C-14.9374678,224.162692 -15.2434647,223.811362 -15.4021322,223.516694 C-15.6741336,223.040691 -15.7307997,222.564696 -15.5721322,222.088694 C-14.8467952,219.958016 -13.5094753,216.898047 -11.5601322,212.908694 C-9.86012369,209.395343 -8.25080645,206.301374 -6.73213219,203.626694 C-6.48279761,203.196025 -6.16546745,202.980694 -5.78013219,202.980694 C-5.59879795,202.980694 -5.36080033,203.026026 -5.06613219,203.116694 C-4.20479455,203.411362 -3.26413729,203.944023 -2.24413219,204.714694 C-1.88146371,204.986695 -1.70013219,205.315358 -1.70013219,205.700694 C-1.70013219,205.882028 -1.74546507,206.222024 -1.83613219,206.720694 C-2.49346881,209.962043 -3.01479693,213.588673 -3.40013219,217.600694 C-0.589451473,211.843331 2.11918811,207.185378 4.72586781,203.626694 C4.92986883,203.354692 5.12253357,203.218694 5.30386781,203.218694 C5.50786883,203.218694 5.70053357,203.354692 5.88186781,203.626694 C6.31253663,204.238697 6.52786781,204.873357 6.52786781,205.530694 C6.52786781,206.097363 6.34653629,206.743357 5.98386781,207.468694 C4.69186135,209.962039 3.41120749,212.444015 2.14186781,214.914694 C0.305858627,218.496045 -1.15612675,221.522015 -2.24413219,223.992694 C-2.44813321,224.446029 -2.73146371,224.672694 -3.09413219,224.672694 C-3.27546643,224.672694 -3.50213083,224.616027 -3.77413219,224.502694 C-4.52213593,224.185359 -5.25312862,223.771696 -5.96713219,223.261694 C-6.68113576,222.751691 -7.03813219,221.998032 -7.03813219,221.000694 C-7.06079897,217.895345 -6.77746847,214.631377 -6.18813219,211.208694 Z M12.8858678,206.924694 L12.5798678,206.924694 C10.9025261,206.970027 9.51987325,206.426033 8.43186781,205.292694 C8.25053357,205.111359 8.15986781,204.918695 8.15986781,204.714694 C8.15986781,204.397359 8.36386577,204.182027 8.77186781,204.068694 C10.2905421,203.660692 12.1038573,203.320695 14.2118678,203.048694 C16.1612109,202.822026 17.7365285,202.720027 18.9378678,202.742694 C20.773877,202.788027 22.1565298,203.411354 23.0858678,204.612694 C23.3125356,204.907362 23.4258678,205.145359 23.4258678,205.326694 C23.4258678,205.621362 23.1652037,205.814026 22.6438678,205.904694 C22.4172,205.950027 20.9438814,206.131359 18.2238678,206.448694 C18.1332007,206.630028 18.0312017,206.800026 17.9178678,206.958694 C16.1725257,209.384039 14.3592105,212.262677 12.4778678,215.594694 C10.5285247,219.017377 9.02120647,222.020681 7.95586781,224.604694 C7.81986713,224.944695 7.64986883,225.114694 7.44586781,225.114694 C7.30986713,225.114694 7.13986883,225.035361 6.93586781,224.876694 C6.41453187,224.514025 5.96120307,224.083363 5.57586781,223.584694 C5.28119967,223.222025 5.13386781,222.859362 5.13386781,222.496694 C5.13386781,222.270026 5.19053391,222.009362 5.30386781,221.714694 C6.95854275,217.317338 9.48585081,212.387388 12.8858678,206.924694 Z M25.5678678,214.200694 C27.5852112,213.430023 29.6591905,212.189035 31.7898678,210.477694 C33.9205451,208.766352 34.9858678,207.514031 34.9858678,206.720694 C34.9858678,206.358025 34.6118715,206.176694 33.8638678,206.176694 C32.7531956,206.176694 31.5292078,206.403358 30.1918678,206.856694 C28.6051932,209.168705 27.0638753,211.616681 25.5678678,214.200694 Z M23.0858678,218.620694 C21.8618617,220.887372 20.8645383,222.859352 20.0938678,224.536694 C19.9352003,224.876695 19.7425356,225.046694 19.5158678,225.046694 C19.3572003,225.046694 19.1078695,224.922028 18.7678678,224.672694 C18.3598658,224.355359 18.0085359,223.958696 17.7138678,223.482694 C17.4191997,223.006691 17.2718678,222.598695 17.2718678,222.258694 C17.2718678,222.009359 17.3285339,221.737362 17.4418678,221.442694 C19.3458773,216.864004 21.8845186,212.115385 25.0578678,207.196694 C24.8312,206.970026 24.4005376,206.494031 23.7658678,205.768694 C23.5845336,205.542026 23.4938678,205.349361 23.4938678,205.190694 C23.4938678,204.964026 23.6638661,204.760028 24.0038678,204.578694 C26.2932126,203.445355 28.7638545,202.878694 31.4158678,202.878694 C33.9772139,202.878694 36.0511932,203.774018 37.6378678,205.564694 C38.3632048,206.380698 38.7258678,207.151357 38.7258678,207.876694 C38.7258678,208.511363 38.374538,209.293356 37.6718678,210.222694 C36.7878634,211.401366 35.427877,212.636687 33.5918678,213.928694 C31.5518576,215.379367 29.4892116,216.47869 27.4038678,217.226694 C28.9225421,219.516038 30.4525268,221.340687 31.9938678,222.700694 C32.2432024,222.904695 32.3678678,223.097359 32.3678678,223.278694 C32.3678678,223.550695 32.0618709,223.811359 31.4498678,224.060694 C31.019199,224.242028 30.6112031,224.366693 30.2258678,224.434694 C29.7498654,224.525361 29.3985356,224.536694 29.1718678,224.468694 C28.8998664,224.400693 28.5258702,224.185362 28.0498678,223.822694 C26.5085268,222.689355 24.8538766,220.955372 23.0858678,218.620694 Z M45.1518678,220.388694 C42.7718559,220.638028 40.3465468,221.057357 37.8758678,221.646694 C37.2865315,222.440031 36.640538,223.380688 35.9378678,224.468694 C35.6658664,224.899362 35.4278688,225.114694 35.2238678,225.114694 C35.0652003,225.114694 34.8782022,224.990028 34.6628678,224.740694 C34.4475334,224.491359 34.1812027,224.128696 33.8638678,223.652694 C33.6598668,223.335359 33.5578678,223.006695 33.5578678,222.666694 C33.5578678,222.236025 33.7391993,221.72603 34.1018678,221.136694 C35.3938743,219.05135 37.3998542,216.206712 40.1198678,212.602694 C42.9985489,208.749341 45.4351912,205.700705 47.4298678,203.456694 C47.8152031,203.026025 48.1778661,202.810694 48.5178678,202.810694 C48.7672024,202.810694 49.0731993,202.901359 49.4358678,203.082694 C50.1158712,203.445362 50.8751969,203.921357 51.7138678,204.510694 C52.2578705,204.896029 52.5298678,205.304025 52.5298678,205.734694 C52.5298678,205.893361 52.4505353,206.222024 52.2918678,206.720694 C50.0705234,213.498061 48.6312044,219.278003 47.9738678,224.060694 C47.9285342,224.468696 47.7698692,224.672694 47.4978678,224.672694 C47.3845339,224.672694 47.237202,224.638694 47.0558678,224.570694 C46.6025322,224.412026 46.126537,224.145695 45.6278678,223.771694 C45.1291986,223.397692 44.9138675,222.814031 44.9818678,222.020694 C44.9818678,221.97536 45.0385339,221.431365 45.1518678,220.388694 Z M40.5618678,217.906694 C42.5792112,217.612025 44.2905274,217.408027 45.6958678,217.294694 C46.3305376,213.94001 47.0785302,210.98204 47.9398678,208.420694 C45.6051895,211.299375 43.1458807,214.461343 40.5618678,217.906694 Z M54.0258678,220.830694 C55.657876,220.513359 57.0631952,220.332027 58.2418678,220.286694 C58.8765376,220.264027 59.409199,220.434025 59.8398678,220.796694 C60.6558719,221.499364 61.0638678,222.15669 61.0638678,222.768694 C61.0638678,223.018028 60.8598698,223.188026 60.4518678,223.278694 C58.5705251,223.641362 56.0318838,224.208023 52.8358678,224.978694 C52.1785312,225.182695 51.6798695,225.148695 51.3398678,224.876694 C50.9998661,224.604692 50.5238709,224.162697 49.9118678,223.550694 C49.5945329,223.233359 49.4358678,222.904695 49.4358678,222.564694 C49.4358678,222.338026 49.5038671,222.043362 49.6398678,221.680694 C50.7052065,218.915346 52.1331922,215.764711 53.9238678,212.228694 C55.8052105,208.534008 57.5505264,205.519372 59.1598678,203.184694 C59.3865356,202.867359 59.6132,202.708694 59.8398678,202.708694 C60.4518709,202.708694 61.2225298,203.36602 62.1518678,204.680694 C62.3558688,204.975362 62.4578678,205.236026 62.4578678,205.462694 C62.4578678,205.757362 62.2992027,206.131358 61.9818678,206.584694 C59.6698562,209.894043 57.0178828,214.642663 54.0258678,220.830694 Z M80.2058678,215.458694 C82.1098773,215.073358 84.2518559,213.770038 86.6318678,211.548694 C88.875879,209.440683 89.9978678,207.888032 89.9978678,206.890694 C89.9978678,206.460025 89.6352048,206.244694 88.9098678,206.244694 C87.9125295,206.244694 86.7678743,206.494024 85.4758678,206.992694 C83.7531925,209.463373 81.9965434,212.285344 80.2058678,215.458694 Z M79.3898678,216.886694 C77.8711935,219.674707 76.5452068,222.236015 75.4118678,224.570694 C75.2305336,224.933362 75.0378688,225.114694 74.8338678,225.114694 C74.6978671,225.114694 74.4598695,224.978695 74.1198678,224.706694 C73.7798661,224.434692 73.4058698,224.038029 72.9978678,223.516694 C72.7031997,223.154025 72.5558678,222.768696 72.5558678,222.360694 C72.5558678,222.111359 72.6238671,221.828028 72.7598678,221.510694 C74.6638773,216.909337 77.1458525,212.251384 80.2058678,207.536694 C79.7071986,206.947357 79.3105359,206.426029 79.0158678,205.972694 C78.8345336,205.700692 78.7438678,205.474028 78.7438678,205.292694 C78.7438678,205.066026 78.9138661,204.873361 79.2538678,204.714694 C81.7245468,203.581355 84.1611891,202.980694 86.5638678,202.912694 C88.9665465,202.844693 91.0291925,203.774017 92.7518678,205.700694 C93.4092044,206.448697 93.7378678,207.208023 93.7378678,207.978694 C93.7378678,208.522696 93.3978712,209.440687 92.7178678,210.732694 C91.9698641,212.115367 90.6552105,213.566019 88.7738678,215.084694 C86.6431905,216.784702 84.6145441,217.827358 82.6878678,218.212694 C82.3251993,218.280694 82.0078692,218.314694 81.7358678,218.314694 C80.8291966,218.314694 80.0472044,217.838698 79.3898678,216.886694 Z M100.537868,220.388694 C98.1578559,220.638028 95.7325468,221.057357 93.2618678,221.646694 C92.6725315,222.440031 92.026538,223.380688 91.3238678,224.468694 C91.0518664,224.899362 90.8138688,225.114694 90.6098678,225.114694 C90.4512003,225.114694 90.2642022,224.990028 90.0488678,224.740694 C89.8335334,224.491359 89.5672027,224.128696 89.2498678,223.652694 C89.0458668,223.335359 88.9438678,223.006695 88.9438678,222.666694 C88.9438678,222.236025 89.1251993,221.72603 89.4878678,221.136694 C90.7798743,219.05135 92.7858542,216.206712 95.5058678,212.602694 C98.3845489,208.749341 100.821191,205.700705 102.815868,203.456694 C103.201203,203.026025 103.563866,202.810694 103.903868,202.810694 C104.153202,202.810694 104.459199,202.901359 104.821868,203.082694 C105.501871,203.445362 106.261197,203.921357 107.099868,204.510694 C107.643871,204.896029 107.915868,205.304025 107.915868,205.734694 C107.915868,205.893361 107.836535,206.222024 107.677868,206.720694 C105.456523,213.498061 104.017204,219.278003 103.359868,224.060694 C103.314534,224.468696 103.155869,224.672694 102.883868,224.672694 C102.770534,224.672694 102.623202,224.638694 102.441868,224.570694 C101.988532,224.412026 101.512537,224.145695 101.013868,223.771694 C100.515199,223.397692 100.299867,222.814031 100.367868,222.020694 C100.367868,221.97536 100.424534,221.431365 100.537868,220.388694 Z M95.9478678,217.906694 C97.9652112,217.612025 99.6765274,217.408027 101.081868,217.294694 C101.716538,213.94001 102.46453,210.98204 103.325868,208.420694 C100.991189,211.299375 98.5318807,214.461343 95.9478678,217.906694 Z M113.865868,214.200694 C115.883211,213.430023 117.95719,212.189035 120.087868,210.477694 C122.218545,208.766352 123.283868,207.514031 123.283868,206.720694 C123.283868,206.358025 122.909872,206.176694 122.161868,206.176694 C121.051196,206.176694 119.827208,206.403358 118.489868,206.856694 C116.903193,209.168705 115.361875,211.616681 113.865868,214.200694 Z M111.383868,218.620694 C110.159862,220.887372 109.162538,222.859352 108.391868,224.536694 C108.2332,224.876695 108.040536,225.046694 107.813868,225.046694 C107.6552,225.046694 107.40587,224.922028 107.065868,224.672694 C106.657866,224.355359 106.306536,223.958696 106.011868,223.482694 C105.7172,223.006691 105.569868,222.598695 105.569868,222.258694 C105.569868,222.009359 105.626534,221.737362 105.739868,221.442694 C107.643877,216.864004 110.182519,212.115385 113.355868,207.196694 C113.1292,206.970026 112.698538,206.494031 112.063868,205.768694 C111.882534,205.542026 111.791868,205.349361 111.791868,205.190694 C111.791868,204.964026 111.961866,204.760028 112.301868,204.578694 C114.591213,203.445355 117.061855,202.878694 119.713868,202.878694 C122.275214,202.878694 124.349193,203.774018 125.935868,205.564694 C126.661205,206.380698 127.023868,207.151357 127.023868,207.876694 C127.023868,208.511363 126.672538,209.293356 125.969868,210.222694 C125.085863,211.401366 123.725877,212.636687 121.889868,213.928694 C119.849858,215.379367 117.787212,216.47869 115.701868,217.226694 C117.220542,219.516038 118.750527,221.340687 120.291868,222.700694 C120.541202,222.904695 120.665868,223.097359 120.665868,223.278694 C120.665868,223.550695 120.359871,223.811359 119.747868,224.060694 C119.317199,224.242028 118.909203,224.366693 118.523868,224.434694 C118.047865,224.525361 117.696536,224.536694 117.469868,224.468694 C117.197866,224.400693 116.82387,224.185362 116.347868,223.822694 C114.806527,222.689355 113.151877,220.955372 111.383868,218.620694 Z M128.315868,218.008694 C127.023861,220.524706 125.992538,222.768684 125.221868,224.740694 C125.085867,225.080695 124.927202,225.250694 124.745868,225.250694 C124.5872,225.250694 124.405869,225.160028 124.201868,224.978694 L122.977868,224.026694 C122.547199,223.596025 122.331868,223.154029 122.331868,222.700694 C122.331868,222.474026 122.388534,222.190695 122.501868,221.850694 C123.476539,219.19868 124.859192,216.121711 126.649868,212.619694 C128.440543,209.117676 130.140526,206.154039 131.749868,203.728694 C131.976536,203.388692 132.214533,203.218694 132.463868,203.218694 C132.826536,203.218694 133.574529,203.887354 134.707868,205.224694 C134.934536,205.496695 135.047868,205.757359 135.047868,206.006694 C135.047868,206.256028 134.889203,206.630024 134.571868,207.128694 C133.597196,208.624701 132.407208,210.585348 131.001868,213.010694 C135.104555,209.474676 139.501844,206.10871 144.193868,202.912694 C144.443202,202.754026 144.6472,202.674694 144.805868,202.674694 C145.14587,202.674694 145.315868,203.094023 145.315868,203.932694 C145.315868,204.907365 144.805873,205.893355 143.785868,206.890694 C141.315189,208.976037 137.55256,212.285338 132.497868,216.818694 C133.744541,218.858704 135.263192,220.898683 137.053868,222.938694 C137.257869,223.165361 137.359868,223.369359 137.359868,223.550694 C137.359868,223.732028 137.223869,223.902026 136.951868,224.060694 C136.589199,224.287361 136.033872,224.502693 135.285868,224.706694 C134.651198,224.888028 133.982538,224.695363 133.279868,224.128694 C132.690532,223.652691 131.880206,222.780033 130.848868,221.510694 C129.817529,220.241354 128.973204,219.074032 128.315868,218.008694 Z" id="Outlines" fill="#6566CC" transform="translate(49.962868, 213.911694) rotate(-87.000000) translate(-49.962868, -213.911694) "></path>
        </g>
    </g>
</svg>