<?xml version="1.0" encoding="UTF-8"?>
<svg width="158px" height="88px" viewBox="0 0 158 88" version="1.1" xmlns="http://www.w3.org/2000/svg" xmlns:xlink="http://www.w3.org/1999/xlink">
    <!-- Generator: Sketch 42 (36781) - http://www.bohemiancoding.com/sketch -->
    <title>Landmark_Stuttgart</title>
    <desc>Created with Sketch.</desc>
    <defs>
        <polyline id="path-1" points="119.3233 115.764803 147.721027 82.0540014 139.607391 75.7613185 138.705876 73.9634091 114.364967 52.8379735 107.603603 45.1968585 100.391482 38.9041756 88.2210274 28.1167192 81.0089062 20.4756042 74.2475425 14.6323986 63.8801183 5.64285158 58.921785 1.59755541 49.4558759 -4.24565016 40.8914819 -9.18990104 36.8346638 -11.4372878 35.482391 -12.3362425 34.1301183 -12.7857199 33.2286032 -12.7857199 31.8763304 -12.7857199 30.5240577 -11.8867651 30.0733001 -11.4372878 29.171785 -10.9878104 28.7210274 -10.0888557 30.5240577 -7.84146898 35.482391 0.698600707 39.0884516 6.99128363 42.2437547 14.1829213 42.6945122 15.5313533 44.4975425 18.2282174 51.7096638 26.3188098 58.0202698 35.7578342 61.6263304 41.1515624 66.1339062 48.3432 69.7399668 54.6358829 75.5998153 64.5243847 79.2058759 70.3675903 83.2626941 78.0087052 86.8687547 82.9529561 92.7286032 90.5940711 98.5884516 97.7857087 105.800573 104.977346 110.758906 109.921597 116.167997 114.416371 118.421785 116.21428 119.3233 115.764803"></polyline>
        <mask id="mask-2" maskContentUnits="userSpaceOnUse" maskUnits="objectBoundingBox" x="0" y="0" width="119" height="129" fill="white">
            <use xlink:href="#path-1"></use>
        </mask>
    </defs>
    <g id="Symbols" stroke="none" stroke-width="1" fill="none" fill-rule="evenodd">
        <g id="Landmark_Stuttgart">
            <use id="Wasen" stroke="#6566CC" mask="url(#mask-2)" stroke-width="6" stroke-dasharray="10,5" fill-rule="nonzero" transform="translate(88.221027, 51.714280) rotate(-41.000000) translate(-88.221027, -51.714280) " xlink:href="#path-1"></use>
            <path d="M44.3637167,21.2180305 C47.1743974,16.3673396 50.5516969,11.7660523 54.4957167,7.4140305 C54.8357184,7.02869524 55.1530485,6.8360305 55.4477167,6.8360305 C55.6743845,6.8360305 55.8897156,6.93802948 56.0937167,7.1420305 C56.6377194,7.68603322 57.0683817,8.23002778 57.3857167,8.7740305 C57.5897177,9.1140322 57.6917167,9.3973627 57.6917167,9.6240305 C57.6917167,9.87336508 57.5783845,10.2700278 57.3517167,10.8140305 C55.6970417,14.8940509 54.5637197,18.554681 53.9517167,21.7960305 C55.1757228,19.5293525 56.9550383,16.7073807 59.2897167,13.3300305 C61.5110611,10.1113477 63.3810424,7.61803934 64.8997167,5.8500305 C65.1263845,5.60069592 65.3417156,5.4760305 65.5457167,5.4760305 C65.7950512,5.4760305 66.0103824,5.7026949 66.1917167,6.1560305 C66.3277173,6.51869898 66.3957167,6.8700288 66.3957167,7.2100305 C66.3957167,7.93536746 66.1010529,8.78535896 65.5117167,9.7600305 L61.0237167,16.6960305 C58.6890383,20.3680489 56.6377255,23.8813471 54.8697167,27.2360305 C54.6657156,27.6213658 54.427718,27.8140305 54.1557167,27.8140305 C53.9743824,27.8140305 53.6797187,27.7233647 53.2717167,27.5420305 C52.61438,27.2473624 51.889054,26.7940336 51.0957167,26.1820305 C50.43838,25.6833613 50.177716,24.8673695 50.3137167,23.7340305 C50.6990519,20.3566803 51.3790451,17.4100431 52.3537167,14.8940305 C49.8150373,18.5887156 47.3557286,22.6460084 44.9757167,27.0660305 C44.7037153,27.5873664 44.3863851,27.8480305 44.0237167,27.8480305 C43.8197156,27.8480305 43.5930512,27.768698 43.3437167,27.6100305 C42.3463783,27.0206942 41.6323855,26.5106993 41.2017167,26.0800305 C40.6577139,25.5360278 40.3857167,24.878701 40.3857167,24.1080305 C40.3857167,23.5866946 40.4650492,22.8840349 40.6237167,22.0000305 C41.6663885,16.5373365 43.1737068,11.3467218 45.1457167,6.4280305 C45.3043841,6.04269524 45.5083821,5.8500305 45.7577167,5.8500305 C45.9163841,5.8500305 46.0863824,5.91802982 46.2677167,6.0540305 C46.7210523,6.3940322 47.2083807,6.93802676 47.7297167,7.6860305 C48.0697184,8.16203288 48.0810516,8.8533593 47.7637167,9.7600305 C46.2450424,14.2933865 45.1117204,18.1126816 44.3637167,21.2180305 Z M71.5977167,23.1560305 C69.2177048,23.4053651 66.7923957,23.8246942 64.3217167,24.4140305 C63.7323804,25.2073678 63.0863868,26.1480251 62.3837167,27.2360305 C62.1117153,27.6666993 61.8737177,27.8820305 61.6697167,27.8820305 C61.5110492,27.8820305 61.3240511,27.7573651 61.1087167,27.5080305 C60.8933823,27.2586959 60.6270516,26.8960329 60.3097167,26.4200305 C60.1057156,26.1026956 60.0037167,25.7740322 60.0037167,25.4340305 C60.0037167,25.0033617 60.1850482,24.4933668 60.5477167,23.9040305 C61.8397231,21.8186867 63.8457031,18.9740485 66.5657167,15.3700305 C69.4443977,11.5166779 71.88104,8.46804172 73.8757167,6.2240305 C74.2610519,5.79336168 74.623715,5.5780305 74.9637167,5.5780305 C75.2130512,5.5780305 75.5190482,5.66869626 75.8817167,5.8500305 C76.5617201,6.21269898 77.3210458,6.68869422 78.1597167,7.2780305 C78.7037194,7.66336576 78.9757167,8.07136168 78.9757167,8.5020305 C78.9757167,8.66069796 78.8963841,8.98936134 78.7377167,9.4880305 C76.5163722,16.2653977 75.0770533,22.0453399 74.4197167,26.8280305 C74.3743831,27.2360325 74.215718,27.4400305 73.9437167,27.4400305 C73.8303828,27.4400305 73.6830509,27.4060308 73.5017167,27.3380305 C73.0483811,27.179363 72.5723858,26.9130324 72.0737167,26.5390305 C71.5750475,26.1650286 71.3597163,25.5813678 71.4277167,24.7880305 C71.4277167,24.7426969 71.4843828,24.1987024 71.5977167,23.1560305 Z M67.0077167,20.6740305 C69.0250601,20.3793624 70.7363763,20.1753644 72.1417167,20.0620305 C72.7763865,16.7073471 73.524379,13.7493766 74.3857167,11.1880305 C72.0510383,14.0667116 69.5917296,17.2286799 67.0077167,20.6740305 Z M76.1537167,22.4760305 C76.1763834,22.0453617 76.3350485,21.8300305 76.6297167,21.8300305 C76.7883841,21.8300305 76.9470492,21.8866966 77.1057167,22.0000305 C79.644396,23.8587065 81.9677061,24.7880305 84.0757167,24.7880305 C85.073055,24.7880305 85.5717167,24.5047 85.5717167,23.9380305 C85.5717167,23.7113627 85.4810509,23.4676985 85.2997167,23.2070305 C85.1183824,22.9463625 84.427056,22.2833692 83.2257167,21.2180305 C81.9110434,20.0620247 81.0383855,19.2346997 80.6077167,18.7360305 C79.8823797,17.8973596 79.5197167,17.0133685 79.5197167,16.0840305 C79.5197167,15.2906932 79.7917139,14.4633681 80.3357167,13.6020305 C82.2850597,10.4740149 85.0050325,8.060039 88.4957167,6.3600305 C89.4023879,5.9066949 90.1957133,5.6800305 90.8757167,5.6800305 C91.5103865,5.6800305 92.1110472,5.86136202 92.6777167,6.2240305 C93.8563892,6.94936746 94.7177139,7.69735998 95.2617167,8.4680305 C95.5563848,8.89869932 95.7037167,9.35202812 95.7037167,9.8280305 C95.7037167,10.2133658 95.6017177,10.6553613 95.3977167,11.1540305 C94.4910455,13.3753749 93.074393,15.5060203 91.1477167,17.5460305 C90.8983821,17.8180319 90.6603845,17.9540305 90.4337167,17.9540305 C89.8897139,17.9540305 89.379719,17.3647031 88.9037167,16.1860305 C88.8357163,16.027363 88.8017167,15.8573647 88.8017167,15.6760305 C88.8017167,15.3360288 88.9377153,14.9053664 89.2097167,14.3840305 C89.7310526,13.5000261 90.2410475,12.6047017 90.7397167,11.6980305 C91.4423868,10.4740244 91.7937167,9.68069898 91.7937167,9.3180305 C91.7937167,9.13669626 91.7030509,9.0460305 91.5217167,9.0460305 C90.9550472,9.0460305 89.9123909,9.63535794 88.3937167,10.8140305 C86.8070421,12.0607034 85.6397204,13.2733579 84.8917167,14.4520305 C84.4383811,15.1320339 84.2117167,15.7213613 84.2117167,16.2200305 C84.2117167,16.6960329 84.4950472,17.2400274 85.0617167,17.8520305 C85.8777207,18.5547007 86.9883763,19.5633573 88.3937167,20.8780305 C89.0963868,21.648701 89.4477167,22.4080268 89.4477167,23.1560305 C89.4477167,23.8133671 89.1757194,24.4706939 88.6317167,25.1280305 C87.1810427,26.8960393 85.4357269,27.7800305 83.3957167,27.7800305 C81.1063719,27.7800305 79.0777255,26.9640387 77.3097167,25.3320305 C76.4710458,24.56136 76.0857163,23.6093695 76.1537167,22.4760305 Z M99.7497167,15.8120305 C100.951056,15.6986966 101.84638,15.6420305 102.435717,15.6420305 C103.161054,15.6420305 103.671049,15.8346952 103.965717,16.2200305 C104.373719,16.7413664 104.668382,17.1946952 104.849717,17.5800305 C104.917717,17.738698 104.951717,17.8746966 104.951717,17.9880305 C104.951717,18.2373651 104.781718,18.3846969 104.441717,18.4300305 C102.991043,18.6340315 100.724399,19.0646939 97.6417167,19.7220305 C97.1883811,20.6287017 96.5197211,21.9546884 95.6357167,23.7000305 C97.4037255,23.3600288 99.1037085,23.1900305 100.735717,23.1900305 C101.529054,23.1900305 102.107048,23.3826952 102.469717,23.7680305 C103.240387,24.6067014 103.625717,25.2526949 103.625717,25.7060305 C103.625717,25.9780319 103.399052,26.1480302 102.945717,26.2160305 C99.1603644,26.7373664 96.3950587,27.2700278 94.6497167,27.8140305 C94.2190478,27.9500312 93.8790512,28.0180305 93.6297167,28.0180305 C93.3577153,28.0180305 93.0517184,27.8820319 92.7117167,27.6100305 C92.1223804,27.1566949 91.7143845,26.7940319 91.4877167,26.5220305 C91.1703817,26.1366952 91.0117167,25.7966986 91.0117167,25.5020305 C91.0117167,25.2980295 91.0683828,25.0373654 91.1817167,24.7200305 C93.2670604,19.3026701 95.7603688,14.1913879 98.6617167,9.3860305 C98.321715,8.45669252 98.1517167,7.86736508 98.1517167,7.6180305 C98.1517167,7.25536202 98.4010475,7.00603118 98.8997167,6.8700305 C101.755731,6.14469354 105.065031,5.7820305 108.827717,5.7820305 C109.689054,5.7820305 110.357714,6.02002812 110.833717,6.4960305 C111.173718,6.8360322 111.525048,7.41402642 111.887717,8.2300305 C111.910383,8.3433644 111.921717,8.44536338 111.921717,8.5360305 C111.921717,8.85336542 111.661053,9.03469694 111.139717,9.0800305 C108.102368,9.35203186 105.371062,9.76002778 102.945717,10.3040305 C102.129713,11.6413705 101.06439,13.4773522 99.7497167,15.8120305 Z M115.933717,13.9760305 C113.463038,18.3960526 111.241727,22.9066742 109.269717,27.5080305 C109.156383,27.8026986 108.986384,27.9500305 108.759717,27.9500305 C108.465049,27.9500305 108.091052,27.7460325 107.637717,27.3380305 C107.184381,26.9300285 106.878384,26.5786986 106.719717,26.2840305 C106.447715,25.8080281 106.391049,25.3320329 106.549717,24.8560305 C107.275054,22.7253532 108.612374,19.6653838 110.561717,15.6760305 C112.261725,12.1626796 113.871042,9.06871054 115.389717,6.3940305 C115.639051,5.96336168 115.956381,5.7480305 116.341717,5.7480305 C116.523051,5.7480305 116.761049,5.79336338 117.055717,5.8840305 C117.917054,6.17869864 118.857712,6.71135998 119.877717,7.4820305 C120.240385,7.75403186 120.421717,8.08269524 120.421717,8.4680305 C120.421717,8.64936474 120.376384,8.98936134 120.285717,9.4880305 C119.62838,12.72938 119.107052,16.3560104 118.721717,20.3680305 C121.532397,14.6106684 124.241037,9.95271496 126.847717,6.3940305 C127.051718,6.12202914 127.244382,5.9860305 127.425717,5.9860305 C127.629718,5.9860305 127.822382,6.12202914 128.003717,6.3940305 C128.434385,7.00603356 128.649717,7.64069388 128.649717,8.2980305 C128.649717,8.8647 128.468385,9.51069354 128.105717,10.2360305 C126.81371,12.7293763 125.533056,15.2113515 124.263717,17.6820305 C122.427707,21.2633817 120.965722,24.2893515 119.877717,26.7600305 C119.673716,27.2133661 119.390385,27.4400305 119.027717,27.4400305 C118.846382,27.4400305 118.619718,27.3833644 118.347717,27.2700305 C117.599713,26.9526956 116.86872,26.5390331 116.154717,26.0290305 C115.440713,25.519028 115.083717,24.7653688 115.083717,23.7680305 C115.06105,20.6626816 115.34438,17.3987143 115.933717,13.9760305 Z" id="Outlines" fill="#6566CC" transform="translate(84.517717, 16.747031) rotate(1.000000) translate(-84.517717, -16.747031) "></path>
        </g>
    </g>
</svg>