<?xml version="1.0" encoding="UTF-8"?>
<svg width="238px" height="163px" viewBox="0 0 238 163" version="1.1" xmlns="http://www.w3.org/2000/svg" xmlns:xlink="http://www.w3.org/1999/xlink">
    <!-- Generator: Sketch 42 (36781) - http://www.bohemiancoding.com/sketch -->
    <title>Landmark_Amsterdam</title>
    <desc>Created with Sketch.</desc>
    <defs>
        <path d="M5.91701821,107.314831 L13.5653483,131.079955 L18.0096053,131.829169 C18.0096053,131.829169 21.8410466,130.281166 24.2568533,130.599494 C26.6726601,130.917823 30.8894924,134.577668 32.2642319,137.071116 C33.6389715,139.564564 29.1431667,143.950585 28.8072477,147.523119 C28.4713288,151.095652 30.5662004,156.893545 32.9700945,157.826526 C35.3739886,158.759507 37.9145136,159.064455 40.6835477,155.240186 C43.4525818,151.415918 37.6680297,142.437583 39.700368,139.459396 C41.7327064,136.481208 44.3916377,134.798704 50.0073915,129.73476 C55.6231453,124.670816 54.2633543,122.288912 59.4553286,118.973194 C64.647303,115.657475 70.7299625,114.285592 73.9274804,114.458821 C77.1249983,114.632051 75.6355469,114.397622 81.0506135,116.731201 C86.4656801,119.064779 90.9919731,122.759618 95.418578,124.122579 C99.8451829,125.485539 102.645898,124.353977 102.645898,124.353977 L103.545702,125.250774 L104.445505,127.044368 L104.895407,127.941165 L107.144916,128.837963 L109.844327,122.560382 L111.194032,122.111984 L108.344031,108.7208 L176.429788,77.7205248 L175.052703,67.3335655 L183.178315,64.2685675 L181.82861,60.2329803 L231.767706,37.8130515 L234.917018,36.0194572 L234.917018,35.12266 L228.618393,31.98387 L198.025073,44.9874287 L195.072383,43.5145387 L185.877725,47.2294216 L179.129199,40.5034429 L175.080083,38.26145 L172.380672,39.1582472 L169.681262,42.7454358 L166.531949,42.2970372 L165.182244,44.5390301 L103.995604,66.0621618 L101.746095,60.6813789 L91.3983542,64.7169661 L93.647863,70.097749 L8.16652705,104.624439 L5.91701821,107.314831 Z" id="path-1"></path>
        <mask id="mask-2" maskContentUnits="userSpaceOnUse" maskUnits="objectBoundingBox" x="0" y="0" width="229" height="126.443034" fill="white">
            <use xlink:href="#path-1"></use>
        </mask>
    </defs>
    <g id="Symbols" stroke="none" stroke-width="1" fill="none" fill-rule="evenodd">
        <g id="Landmark_Amsterdam">
            <use id="Vondelpark" stroke="#6566CC" mask="url(#mask-2)" stroke-width="6" stroke-dasharray="10,5" fill-rule="nonzero" xlink:href="#path-1"></use>
            <path d="M6.40279624,52.1385629 C9.57614544,46.9932038 13.5654389,41.9499209 18.3707962,37.0085629 C18.597464,36.7592283 18.801462,36.6345629 18.9827962,36.6345629 C19.2547976,36.6345629 19.4701288,36.8838937 19.6287962,37.3825629 C19.7647969,37.7905649 19.8327962,38.153228 19.8327962,38.4705629 C19.8327962,39.2185666 19.5267993,40.0005588 18.9147962,40.8165629 C14.0414385,47.3219288 10.1654773,53.0678713 7.28679624,58.0545629 C6.96946132,58.5985656 6.65213116,58.8705629 6.33479624,58.8705629 C6.153462,58.8705629 5.94946404,58.7912304 5.72279624,58.6325629 C5.17879352,58.2698944 4.3741349,57.6579005 3.30879624,56.7965629 C2.92346098,56.4112276 2.68546336,56.1278971 2.59479624,55.9465629 C2.413462,55.6065612 2.32279624,55.1192327 2.32279624,54.4845629 C2.32279624,54.0538941 2.3567959,53.5212327 2.42479624,52.8865629 C3.0367993,47.831871 4.2834535,42.4825911 6.16479624,36.8385629 C6.30079692,36.4305609 6.49346166,36.2265629 6.74279624,36.2265629 C7.0147976,36.2265629 7.40012708,36.4758937 7.89879624,36.9745629 C8.30679828,37.3825649 8.61279522,37.7565612 8.81679624,38.0965629 C9.17946472,38.708566 9.27013048,39.3772259 9.08879624,40.1025629 C8.47679318,42.5052416 8.01213116,44.3978893 7.69479624,45.7805629 C7.12812674,48.2059084 6.69746438,50.3252205 6.40279624,52.1385629 Z M16.8747962,56.6945629 C15.8774579,55.6972246 15.3787962,54.4619036 15.3787962,52.9885629 C15.3787962,52.149892 15.5261281,51.2092348 15.8207962,50.1665629 C16.4101325,48.1038859 17.566121,45.8372419 19.2887962,43.3665629 C21.0114715,40.8958839 22.7794538,39.0259026 24.5927962,37.7565629 C25.5901346,37.0538927 26.5307918,36.7025629 27.4147962,36.7025629 C28.1174664,36.7025629 28.8087928,36.9178941 29.4887962,37.3485629 C30.5088013,37.9832327 31.3304598,38.6745592 31.9537962,39.4225629 C32.5771327,40.1705666 32.8887962,41.2472225 32.8887962,42.6525629 C32.8887962,43.3098995 32.8207969,44.0012259 32.6847962,44.7265629 C32.299461,46.879907 31.4381363,49.1692174 30.1007962,51.5945629 C28.4461213,54.6319114 26.5081407,56.8418893 24.2867962,58.2245629 C23.4707922,58.7232321 22.6094674,58.9725629 21.7027962,58.9725629 C21.0454596,58.9725629 20.3767996,58.8478975 19.6967962,58.5985629 C18.7221247,58.2358944 17.7814674,57.6012341 16.8747962,56.6945629 Z M22.0767962,46.9705629 C20.1047864,50.2345792 19.1187962,52.9205524 19.1187962,55.0285629 C19.1187962,55.8672338 19.4021267,56.2865629 19.9687962,56.2865629 C20.6487996,56.2865629 21.4987911,55.776568 22.5187962,54.7565629 C23.7201356,53.5778903 24.9327901,51.9232402 26.1567962,49.7925629 C28.3781407,45.9392103 29.4887962,43.0039063 29.4887962,40.9865629 C29.4887962,40.2385592 29.2847983,39.8645629 28.8767962,39.8645629 C28.2194596,39.8645629 27.2334695,40.5332229 25.9187962,41.8705629 C24.5361227,43.29857 23.2554688,44.998553 22.0767962,46.9705629 Z M39.9607962,45.0325629 C37.4901172,49.452585 35.2688061,53.9632066 33.2967962,58.5645629 C33.1834623,58.859231 33.013464,59.0065629 32.7867962,59.0065629 C32.4921281,59.0065629 32.1181318,58.8025649 31.6647962,58.3945629 C31.2114606,57.9865609 30.9054637,57.635231 30.7467962,57.3405629 C30.4747949,56.8645605 30.4181288,56.3885653 30.5767962,55.9125629 C31.3021332,53.7818856 32.6394532,50.7219162 34.5887962,46.7325629 C36.2888047,43.219212 37.898122,40.1252429 39.4167962,37.4505629 C39.6661308,37.0198941 39.983461,36.8045629 40.3687962,36.8045629 C40.5501305,36.8045629 40.7881281,36.8498958 41.0827962,36.9405629 C41.9441339,37.235231 42.8847911,37.7678924 43.9047962,38.5385629 C44.2674647,38.8105643 44.4487962,39.1392276 44.4487962,39.5245629 C44.4487962,39.7058971 44.4034634,40.0458937 44.3127962,40.5445629 C43.6554596,43.7859124 43.1341315,47.4125428 42.7487962,51.4245629 C45.559477,45.6672008 48.2681165,41.0092474 50.8747962,37.4505629 C51.0787973,37.1785615 51.271462,37.0425629 51.4527962,37.0425629 C51.6567973,37.0425629 51.849462,37.1785615 52.0307962,37.4505629 C52.4614651,38.062566 52.6767962,38.6972263 52.6767962,39.3545629 C52.6767962,39.9212324 52.4954647,40.5672259 52.1327962,41.2925629 C50.8407898,43.7859087 49.5601359,46.2678839 48.2907962,48.7385629 C46.4547871,52.3199141 44.9928017,55.3458839 43.9047962,57.8165629 C43.7007952,58.2698985 43.4174647,58.4965629 43.0547962,58.4965629 C42.873462,58.4965629 42.6467976,58.4398968 42.3747962,58.3265629 C41.6267925,58.009228 40.8957998,57.5955654 40.1817962,57.0855629 C39.4677927,56.5755603 39.1107962,55.8219012 39.1107962,54.8245629 C39.0881295,51.719214 39.37146,48.4552467 39.9607962,45.0325629 Z M60.9727962,40.9865629 C58.5927843,44.7719152 55.8841448,49.4978679 52.8467962,55.1645629 C56.790816,53.3058869 60.1114494,50.8125785 62.8087962,47.6845629 C65.098141,45.0325496 66.2427962,42.9472372 66.2427962,41.4285629 C66.2427962,40.6352256 65.5401366,40.2385629 64.1347962,40.2385629 C63.024124,40.2385629 61.9701346,40.4878937 60.9727962,40.9865629 Z M56.1787962,40.6805629 C56.0201288,40.4538951 55.7821312,40.1252317 55.4647962,39.6945629 C55.3061288,39.4678951 55.2267962,39.2752304 55.2267962,39.1165629 C55.2267962,38.8672283 55.4081278,38.6405639 55.7707962,38.4365629 C57.0174691,37.7112259 58.3094562,37.2352307 59.6467962,37.0085629 C60.4628003,36.8725622 61.2561257,36.8045629 62.0267962,36.8045629 C63.7268047,36.8045629 65.1094576,37.1332263 66.1747962,37.7905629 C68.7588092,39.3999043 69.9714637,41.2472191 69.8127962,43.3325629 C69.5861284,46.1205768 67.6481478,49.0898805 63.9987962,52.2405629 C60.8934474,54.9152429 57.5388143,57.0005554 53.9347962,58.4965629 C53.2774596,58.7685643 52.8014644,58.9045629 52.5067962,58.9045629 C52.2121281,58.9045629 51.8607983,58.8138971 51.4527962,58.6325629 C50.4327911,58.2018941 49.5827996,57.7032324 48.9027962,57.1365629 C48.4721274,56.7738944 48.2567962,56.4678975 48.2567962,56.2185629 C48.2567962,56.0145619 48.3361288,55.7312314 48.4947962,55.3685629 C50.0134705,51.9005456 52.5747782,47.0045945 56.1787962,40.6805629 Z M75.3887962,46.8685629 C76.5901356,46.755229 77.48546,46.6985629 78.0747962,46.6985629 C78.8001332,46.6985629 79.3101281,46.8912276 79.6047962,47.2765629 C80.0127983,47.7978988 80.307462,48.2512276 80.4887962,48.6365629 C80.5567966,48.7952304 80.5907962,48.931229 80.5907962,49.0445629 C80.5907962,49.2938975 80.4207979,49.4412293 80.0807962,49.4865629 C78.6301223,49.6905639 76.3634783,50.1212263 73.2807962,50.7785629 C72.8274606,51.6852341 72.1588007,53.0112208 71.2747962,54.7565629 C73.0428051,54.4165612 74.7427881,54.2465629 76.3747962,54.2465629 C77.1681335,54.2465629 77.7461278,54.4392276 78.1087962,54.8245629 C78.8794668,55.6632338 79.2647962,56.3092273 79.2647962,56.7625629 C79.2647962,57.0345643 79.0381318,57.2045626 78.5847962,57.2725629 C74.799444,57.7938988 72.0341383,58.3265602 70.2887962,58.8705629 C69.8581274,59.0065636 69.5181308,59.0745629 69.2687962,59.0745629 C68.9967949,59.0745629 68.6907979,58.9385643 68.3507962,58.6665629 C67.76146,58.2132273 67.353464,57.8505643 67.1267962,57.5785629 C66.8094613,57.1932276 66.6507962,56.853231 66.6507962,56.5585629 C66.6507962,56.3545619 66.7074623,56.0938978 66.8207962,55.7765629 C68.90614,50.3592025 71.3994484,45.2479203 74.3007962,40.4425629 C73.9607945,39.5132249 73.7907962,38.9238975 73.7907962,38.6745629 C73.7907962,38.3118944 74.0401271,38.0625636 74.5387962,37.9265629 C77.3948105,37.2012259 80.7041108,36.8385629 84.4667962,36.8385629 C85.3281339,36.8385629 85.9967939,37.0765605 86.4727962,37.5525629 C86.8127979,37.8925646 87.1641278,38.4705588 87.5267962,39.2865629 C87.549463,39.3998968 87.5607962,39.5018958 87.5607962,39.5925629 C87.5607962,39.9098978 87.3001322,40.0912293 86.7787962,40.1365629 C83.7414477,40.4085643 81.0101417,40.8165602 78.5847962,41.3605629 C77.7687922,42.6979029 76.7034695,44.5338846 75.3887962,46.8685629 Z M86.3707962,54.6545629 C88.0028044,54.337228 89.4081237,54.1558965 90.5867962,54.1105629 C91.2214661,54.0878961 91.7541274,54.2578944 92.1847962,54.6205629 C93.0008003,55.3232331 93.4087962,55.9805598 93.4087962,56.5925629 C93.4087962,56.8418975 93.2047983,57.0118958 92.7967962,57.1025629 C90.9154535,57.4652314 88.3768122,58.0318924 85.1807962,58.8025629 C84.5234596,59.0065639 84.0247979,58.9725643 83.6847962,58.7005629 C83.3447945,58.4285615 82.8687993,57.986566 82.2567962,57.3745629 C81.9394613,57.057228 81.7807962,56.7285646 81.7807962,56.3885629 C81.7807962,56.1618951 81.8487956,55.8672314 81.9847962,55.5045629 C83.0501349,52.7392157 84.4781206,49.5885806 86.2687962,46.0525629 C88.150139,42.3578778 89.8954549,39.3432412 91.5047962,37.0085629 C91.731464,36.691228 91.9581284,36.5325629 92.1847962,36.5325629 C92.7967993,36.5325629 93.5674583,37.1898897 94.4967962,38.5045629 C94.7007973,38.799231 94.8027962,39.0598951 94.8027962,39.2865629 C94.8027962,39.581231 94.6441312,39.9552273 94.3267962,40.4085629 C92.0147847,43.7179128 89.3628112,48.466532 86.3707962,54.6545629 Z M102.860796,49.2825629 C104.764806,48.8972276 106.906784,47.5939073 109.286796,45.3725629 C111.530807,43.2645524 112.652796,41.7119012 112.652796,40.7145629 C112.652796,40.2838941 112.290133,40.0685629 111.564796,40.0685629 C110.567458,40.0685629 109.422803,40.3178937 108.130796,40.8165629 C106.408121,43.2872419 104.651472,46.1092137 102.860796,49.2825629 Z M102.044796,50.7105629 C100.526122,53.4985768 99.2001352,56.0598846 98.0667962,58.3945629 C97.885462,58.7572314 97.6927973,58.9385629 97.4887962,58.9385629 C97.3527956,58.9385629 97.1147979,58.8025643 96.7747962,58.5305629 C96.4347945,58.2585615 96.0607983,57.8618988 95.6527962,57.3405629 C95.3581281,56.9778944 95.2107962,56.5925649 95.2107962,56.1845629 C95.2107962,55.9352283 95.2787956,55.6518978 95.4147962,55.3345629 C97.3188058,50.7332066 99.8007809,46.0752531 102.860796,41.3605629 C102.362127,40.7712266 101.965464,40.2498985 101.670796,39.7965629 C101.489462,39.5245615 101.398796,39.2978971 101.398796,39.1165629 C101.398796,38.8898951 101.568795,38.6972304 101.908796,38.5385629 C104.379475,37.4052239 106.816118,36.8045632 109.218796,36.7365629 C111.621475,36.6685626 113.684121,37.5978866 115.406796,39.5245629 C116.064133,40.2725666 116.392796,41.0318924 116.392796,41.8025629 C116.392796,42.3465656 116.0528,43.2645564 115.372796,44.5565629 C114.624792,45.9392365 113.310139,47.3898886 111.428796,48.9085629 C109.298119,50.6085714 107.269473,51.6512276 105.342796,52.0365629 C104.980128,52.1045632 104.662798,52.1385629 104.390796,52.1385629 C103.484125,52.1385629 102.702133,51.6625677 102.044796,50.7105629 Z M123.192796,54.2125629 C120.812784,54.4618975 118.387475,54.8812266 115.916796,55.4705629 C115.32746,56.2639002 114.681466,57.2045575 113.978796,58.2925629 C113.706795,58.7232317 113.468797,58.9385629 113.264796,58.9385629 C113.106129,58.9385629 112.919131,58.8138975 112.703796,58.5645629 C112.488462,58.3152283 112.222131,57.9525653 111.904796,57.4765629 C111.700795,57.159228 111.598796,56.8305646 111.598796,56.4905629 C111.598796,56.0598941 111.780128,55.5498992 112.142796,54.9605629 C113.434803,52.8752191 115.440783,50.0305809 118.160796,46.4265629 C121.039477,42.5732103 123.47612,39.5245741 125.470796,37.2805629 C125.856131,36.8498941 126.218795,36.6345629 126.558796,36.6345629 C126.808131,36.6345629 127.114128,36.7252287 127.476796,36.9065629 C128.1568,37.2692314 128.916125,37.7452266 129.754796,38.3345629 C130.298799,38.7198982 130.570796,39.1278941 130.570796,39.5585629 C130.570796,39.7172304 130.491464,40.0458937 130.332796,40.5445629 C128.111452,47.3219301 126.672133,53.1018723 126.014796,57.8845629 C125.969463,58.2925649 125.810798,58.4965629 125.538796,58.4965629 C125.425462,58.4965629 125.27813,58.4625632 125.096796,58.3945629 C124.643461,58.2358954 124.167465,57.9695648 123.668796,57.5955629 C123.170127,57.221561 122.954796,56.6379002 123.022796,55.8445629 C123.022796,55.7992293 123.079462,55.2552348 123.192796,54.2125629 Z M118.602796,51.7305629 C120.62014,51.4358948 122.331456,51.2318968 123.736796,51.1185629 C124.371466,47.7638795 125.119459,44.805909 125.980796,42.2445629 C123.646118,45.123244 121.186809,48.2852123 118.602796,51.7305629 Z M136.520796,48.0245629 C138.53814,47.2538924 140.612119,46.0129048 142.742796,44.3015629 C144.873474,42.590221 145.938796,41.3379002 145.938796,40.5445629 C145.938796,40.1818944 145.5648,40.0005629 144.816796,40.0005629 C143.706124,40.0005629 142.482136,40.2272273 141.144796,40.6805629 C139.558122,42.9925745 138.016804,45.44055 136.520796,48.0245629 Z M134.038796,52.4445629 C132.81479,54.7112409 131.817467,56.6832212 131.046796,58.3605629 C130.888129,58.7005646 130.695464,58.8705629 130.468796,58.8705629 C130.310129,58.8705629 130.060798,58.7458975 129.720796,58.4965629 C129.312794,58.179228 128.961464,57.7825653 128.666796,57.3065629 C128.372128,56.8305605 128.224796,56.4225646 128.224796,56.0825629 C128.224796,55.8332283 128.281462,55.561231 128.394796,55.2665629 C130.298806,50.6878733 132.837447,45.9392542 136.010796,41.0205629 C135.784128,40.7938951 135.353466,40.3178999 134.718796,39.5925629 C134.537462,39.3658951 134.446796,39.1732304 134.446796,39.0145629 C134.446796,38.7878951 134.616795,38.5838971 134.956796,38.4025629 C137.246141,37.2692239 139.716783,36.7025629 142.368796,36.7025629 C144.930142,36.7025629 147.004122,37.5978873 148.590796,39.3885629 C149.316133,40.204567 149.678796,40.9752259 149.678796,41.7005629 C149.678796,42.3352327 149.327466,43.1172249 148.624796,44.0465629 C147.740792,45.2252355 146.380805,46.4605564 144.544796,47.7525629 C142.504786,49.2032368 140.44214,50.3025592 138.356796,51.0505629 C139.87547,53.3399077 141.405455,55.1645561 142.946796,56.5245629 C143.196131,56.7285639 143.320796,56.9212287 143.320796,57.1025629 C143.320796,57.3745643 143.014799,57.6352283 142.402796,57.8845629 C141.972127,58.0658971 141.564131,58.1905626 141.178796,58.2585629 C140.702794,58.34923 140.351464,58.3605632 140.124796,58.2925629 C139.852795,58.2245626 139.478799,58.0092314 139.002796,57.6465629 C137.461455,56.5132239 135.806805,54.7792412 134.038796,52.4445629 Z M150.970796,51.8325629 C149.67879,54.3485755 148.647467,56.592553 147.876796,58.5645629 C147.740796,58.9045646 147.58213,59.0745629 147.400796,59.0745629 C147.242129,59.0745629 147.060797,58.9838971 146.856796,58.8025629 L145.632796,57.8505629 C145.202127,57.4198941 144.986796,56.9778985 144.986796,56.5245629 C144.986796,56.2978951 145.043462,56.0145646 145.156796,55.6745629 C146.131468,53.0225496 147.514121,49.9455804 149.304796,46.4435629 C151.095472,42.9415454 152.795455,39.9779084 154.404796,37.5525629 C154.631464,37.2125612 154.869462,37.0425629 155.118796,37.0425629 C155.481465,37.0425629 156.229457,37.7112229 157.362796,39.0485629 C157.589464,39.3205643 157.702796,39.5812283 157.702796,39.8305629 C157.702796,40.0798975 157.544131,40.4538937 157.226796,40.9525629 C156.252125,42.4485704 155.062137,44.4092174 153.656796,46.8345629 C157.759483,43.2985452 162.156773,39.9325789 166.848796,36.7365629 C167.098131,36.5778954 167.302129,36.4985629 167.460796,36.4985629 C167.800798,36.4985629 167.970796,36.917892 167.970796,37.7565629 C167.970796,38.7312344 167.460801,39.7172246 166.440796,40.7145629 C163.970117,42.7999067 160.207488,46.1092069 155.152796,50.6425629 C156.399469,52.6825731 157.918121,54.7225527 159.708796,56.7625629 C159.912797,56.9892307 160.014796,57.1932287 160.014796,57.3745629 C160.014796,57.5558971 159.878798,57.7258954 159.606796,57.8845629 C159.244128,58.1112307 158.6888,58.3265619 157.940796,58.5305629 C157.306126,58.7118971 156.637466,58.5192324 155.934796,57.9525629 C155.34546,57.4765605 154.535135,56.6039026 153.503796,55.3345629 C152.472458,54.0652232 151.628133,52.8979016 150.970796,51.8325629 Z" id="Outlines" fill="#6566CC" transform="translate(85.146796, 47.650563) rotate(-20.000000) translate(-85.146796, -47.650563) "></path>
        </g>
    </g>
</svg>