<?xml version="1.0" encoding="UTF-8"?>
<svg width="261px" height="202px" viewBox="0 0 261 202" version="1.1" xmlns="http://www.w3.org/2000/svg" xmlns:xlink="http://www.w3.org/1999/xlink">
    <!-- Generator: Sketch 42 (36781) - http://www.bohemiancoding.com/sketch -->
    <title>Landmark_Berlin</title>
    <desc>Created with Sketch.</desc>
    <defs>
        <polyline id="path-1" points="257.406196 131.075556 259.203098 130.177778 260.550775 127.933333 261 127.035556 259.652324 118.506667 255.160069 117.16 253.812392 116.262222 253.363167 115.364444 252.913941 114.017778 244.827883 68.2311111 243.480207 66.8844444 242.13253 66.4355556 235.394148 64.64 234.046472 55.6622222 233.148021 54.3155556 232.24957 53.4177778 230.452668 52.0711111 220.569707 51.1733333 205.296041 48.48 193.166954 44.8888889 187.776248 42.6444444 181.936317 39.0533333 175.197935 35.0133333 162.619621 22.8933333 154.533563 16.6088889 147.345955 13.0177778 138.361446 9.87555556 129.376936 7.18222222 126.681583 6.73333333 118.146299 5.83555556 106.915663 4.48888889 101.075731 4.04 90.7435456 2.69333333 79.5129088 1.79555556 69.1807229 0.897777778 61.5438898 0 58.3993115 0 49.4148021 0.897777778 41.777969 3.59111111 35.9380379 7.18222222 30.0981067 12.5688889 25.1566265 19.3022222 15.2736661 41.2977778 8.08605852 57.0088889 4.49225473 66.4355556 3.59380379 69.5777778 1.79690189 79.0044444 1.34767642 81.2488889 2.24612737 95.6133333 5.39070568 107.733333 1.79690189 118.506667 0.449225473 124.342222 0.449225473 132.871111 0 137.808889 20.2151463 147.684444 22.9104991 151.724444 32.7934596 162.497778 48.9655766 174.168889 57.9500861 180.453333 68.7314974 186.737778 80.8605852 191.675556 91.1927711 196.164444 96.1342513 197.96 106.466437 200.204444 119.493976 201.551111 128.02926 202 137.91222 201.551111 145.549053 200.204444 154.084337 197.96 161.72117 195.266667 171.154905 190.328889 179.240964 184.942222 184.182444 180.902222 192.717728 172.822222 198.108434 166.986667 201.253012 164.742222 211.585198 159.355556 223.714286 153.071111 224.612737 150.826667 227.757315 146.786667 235.843373 136.911111 246.175559 134.217778 257.406196 131.075556"></polyline>
        <mask id="mask-2" maskContentUnits="userSpaceOnUse" maskUnits="objectBoundingBox" x="0" y="0" width="261" height="202" fill="white">
            <use xlink:href="#path-1"></use>
        </mask>
    </defs>
    <g id="Symbols" stroke="none" stroke-width="1" fill="none" fill-rule="evenodd">
        <g id="Landmark_Berlin">
            <use id="TempelhoferFeld" stroke="#6566CC" mask="url(#mask-2)" stroke-width="6" stroke-dasharray="10,5" fill-rule="nonzero" xlink:href="#path-1"></use>
            <path d="M44.3411388,86.9087293 L44.0351388,86.9087293 C42.357797,86.9540629 40.9751442,86.4100683 39.8871388,85.2767293 C39.7058045,85.0953951 39.6151388,84.9027303 39.6151388,84.6987293 C39.6151388,84.3813944 39.8191367,84.1660632 40.2271388,84.0527293 C41.745813,83.6447273 43.5591282,83.3047307 45.6671388,83.0327293 C47.6164818,82.8060615 49.1917994,82.7040625 50.3931388,82.7267293 C52.2291479,82.7720629 53.6118008,83.39539 54.5411388,84.5967293 C54.7678066,84.8913975 54.8811388,85.1293951 54.8811388,85.3107293 C54.8811388,85.6053975 54.6204747,85.7980622 54.0991388,85.8887293 C53.872471,85.9340629 52.3991524,86.1153944 49.6791388,86.4327293 C49.5884716,86.6140636 49.4864727,86.7840619 49.3731388,86.9427293 C47.6277967,89.3680748 45.8144815,92.2467127 43.9331388,95.5787293 C41.9837957,99.0014131 40.4764774,102.004716 39.4111388,104.588729 C39.2751381,104.928731 39.1051398,105.098729 38.9011388,105.098729 C38.7651381,105.098729 38.5951398,105.019397 38.3911388,104.860729 C37.8698028,104.498061 37.416474,104.067398 37.0311388,103.568729 C36.7364706,103.206061 36.5891388,102.843398 36.5891388,102.480729 C36.5891388,102.254062 36.6458049,101.993397 36.7591388,101.698729 C38.4138137,97.301374 40.9411218,92.3714233 44.3411388,86.9087293 Z M56.9211388,93.0287293 C58.1224781,92.9153954 59.0178025,92.8587293 59.6071388,92.8587293 C60.3324757,92.8587293 60.8424706,93.0513941 61.1371388,93.4367293 C61.5451408,93.9580653 61.8398045,94.4113941 62.0211388,94.7967293 C62.0891391,94.9553968 62.1231388,95.0913954 62.1231388,95.2047293 C62.1231388,95.4540639 61.9531405,95.6013958 61.6131388,95.6467293 C60.1624648,95.8507303 57.8958208,96.2813927 54.8131388,96.9387293 C54.3598032,97.8454005 53.6911432,99.1713873 52.8071388,100.916729 C54.5751476,100.576728 56.2751306,100.406729 57.9071388,100.406729 C58.7004761,100.406729 59.2784703,100.599394 59.6411388,100.984729 C60.4118093,101.8234 60.7971388,102.469394 60.7971388,102.922729 C60.7971388,103.194731 60.5704744,103.364729 60.1171388,103.432729 C56.3317865,103.954065 53.5664808,104.486727 51.8211388,105.030729 C51.3904699,105.16673 51.0504733,105.234729 50.8011388,105.234729 C50.5291374,105.234729 50.2231405,105.098731 49.8831388,104.826729 C49.2938025,104.373394 48.8858066,104.010731 48.6591388,103.738729 C48.3418038,103.353394 48.1831388,103.013397 48.1831388,102.718729 C48.1831388,102.514728 48.2398049,102.254064 48.3531388,101.936729 C50.4384825,96.5193689 52.9317909,91.4080867 55.8331388,86.6027293 C55.4931371,85.6733913 55.3231388,85.0840639 55.3231388,84.8347293 C55.3231388,84.4720608 55.5724696,84.22273 56.0711388,84.0867293 C58.927153,83.3613924 62.2364533,82.9987293 65.9991388,82.9987293 C66.8604764,82.9987293 67.5291364,83.2367269 68.0051388,83.7127293 C68.3451405,84.052731 68.6964703,84.6307252 69.0591388,85.4467293 C69.0818055,85.5600632 69.0931388,85.6620622 69.0931388,85.7527293 C69.0931388,86.0700642 68.8324747,86.2513958 68.3111388,86.2967293 C65.2737902,86.5687307 62.5424842,86.9767266 60.1171388,87.5207293 C59.3011347,88.8580693 58.235812,90.694051 56.9211388,93.0287293 Z M89.4251388,88.2687293 C86.4331238,93.346088 83.6904846,98.6387018 81.1971388,104.146729 C81.0158045,104.577398 80.8118066,104.792729 80.5851388,104.792729 C80.4264713,104.792729 80.2338066,104.696397 80.0071388,104.503729 C79.780471,104.311062 79.372475,103.976732 78.7831388,103.500729 C78.4884706,103.274062 78.3411388,102.968065 78.3411388,102.582729 C78.3411388,102.333395 78.4091381,102.016065 78.5451388,101.630729 C79.2478089,99.500052 80.9024591,96.0094202 83.5091388,91.1587293 C79.8144536,95.7374189 76.9584822,99.6927127 74.9411388,103.024729 C74.6691374,103.478065 74.4084733,103.704729 74.1591388,103.704729 C74.0231381,103.704729 73.8304733,103.648063 73.5811388,103.534729 C72.9238021,103.217394 72.300475,102.849065 71.7111388,102.429729 C71.1218025,102.010394 70.8724716,101.336067 70.9631388,100.406729 C71.2124733,97.86805 71.6771354,95.1480772 72.3571388,92.2467293 C70.0451272,96.2587494 67.9258151,100.452041 65.9991388,104.826729 C65.8631381,105.121397 65.6704733,105.268729 65.4211388,105.268729 C65.2624713,105.268729 65.1038062,105.212063 64.9451388,105.098729 C64.3784693,104.713394 63.8911408,104.226066 63.4831388,103.636729 C63.256471,103.206061 63.2338045,102.730065 63.4151388,102.208729 C64.2991432,99.7380503 65.7497953,96.5874151 67.7671388,92.7567293 C69.7164818,89.0393774 71.4391313,86.1267399 72.9351388,84.0187293 C73.2298069,83.5880605 73.5244706,83.3727293 73.8191388,83.3727293 C74.0231398,83.3727293 74.2611374,83.4520619 74.5331388,83.6107293 C75.6664778,84.2227324 76.5278025,84.8347263 77.1171388,85.4467293 C77.502474,85.8547314 77.5704733,86.4893917 77.3211388,87.3507293 C76.5278015,89.957409 75.7344761,93.1307106 74.9411388,96.8707293 C76.1878117,94.8533859 77.8991279,92.4960761 80.0751388,89.7987293 C82.1831493,87.1693828 84.0531306,85.0614039 85.6851388,83.4747293 C86.0478072,83.1120608 86.342471,82.9307293 86.5691388,82.9307293 C86.7731398,82.9307293 87.0451371,83.0553947 87.3851388,83.3047293 C88.2011428,83.8713988 88.9491354,84.653391 89.6291388,85.6507293 C89.8784733,86.0133978 90.0031388,86.3647276 90.0031388,86.7047293 C90.0031388,87.0900646 89.810474,87.6113927 89.4251388,88.2687293 Z M93.7771388,95.4427293 C95.6811483,95.0573941 97.8231269,93.7540738 100.203139,91.5327293 C102.44715,89.4247188 103.569139,87.8720676 103.569139,86.8747293 C103.569139,86.4440605 103.206476,86.2287293 102.481139,86.2287293 C101.4838,86.2287293 100.339145,86.4780602 99.0471388,86.9767293 C97.3244635,89.4474083 95.5678144,92.2693801 93.7771388,95.4427293 Z M92.9611388,96.8707293 C91.4424645,99.6587433 90.1164778,102.220051 88.9831388,104.554729 C88.8018045,104.917398 88.6091398,105.098729 88.4051388,105.098729 C88.2691381,105.098729 88.0311405,104.962731 87.6911388,104.690729 C87.3511371,104.418728 86.9771408,104.022065 86.5691388,103.500729 C86.2744706,103.138061 86.1271388,102.752731 86.1271388,102.344729 C86.1271388,102.095395 86.1951381,101.812064 86.3311388,101.494729 C88.2351483,96.893373 90.7171235,92.2354196 93.7771388,87.5207293 C93.2784696,86.931393 92.8818069,86.4100649 92.5871388,85.9567293 C92.4058045,85.684728 92.3151388,85.4580636 92.3151388,85.2767293 C92.3151388,85.0500615 92.4851371,84.8573968 92.8251388,84.6987293 C95.2958178,83.5653903 97.7324601,82.9647297 100.135139,82.8967293 C102.537817,82.828729 104.600463,83.758053 106.323139,85.6847293 C106.980475,86.4327331 107.309139,87.1920588 107.309139,87.9627293 C107.309139,88.506732 106.969142,89.4247229 106.289139,90.7167293 C105.541135,92.0994029 104.226482,93.5500551 102.345139,95.0687293 C100.214461,96.7687378 98.1858151,97.8113941 96.2591388,98.1967293 C95.8964703,98.2647297 95.5791401,98.2987293 95.3071388,98.2987293 C94.4004676,98.2987293 93.6184754,97.8227341 92.9611388,96.8707293 Z M111.899139,93.0287293 C113.100478,92.9153954 113.995802,92.8587293 114.585139,92.8587293 C115.310476,92.8587293 115.820471,93.0513941 116.115139,93.4367293 C116.523141,93.9580653 116.817805,94.4113941 116.999139,94.7967293 C117.067139,94.9553968 117.101139,95.0913954 117.101139,95.2047293 C117.101139,95.4540639 116.93114,95.6013958 116.591139,95.6467293 C115.140465,95.8507303 112.873821,96.2813927 109.791139,96.9387293 C109.337803,97.8454005 108.669143,99.1713873 107.785139,100.916729 C109.553148,100.576728 111.253131,100.406729 112.885139,100.406729 C113.678476,100.406729 114.25647,100.599394 114.619139,100.984729 C115.389809,101.8234 115.775139,102.469394 115.775139,102.922729 C115.775139,103.194731 115.548474,103.364729 115.095139,103.432729 C111.309787,103.954065 108.544481,104.486727 106.799139,105.030729 C106.36847,105.16673 106.028473,105.234729 105.779139,105.234729 C105.507137,105.234729 105.20114,105.098731 104.861139,104.826729 C104.271802,104.373394 103.863807,104.010731 103.637139,103.738729 C103.319804,103.353394 103.161139,103.013397 103.161139,102.718729 C103.161139,102.514728 103.217805,102.254064 103.331139,101.936729 C105.416483,96.5193689 107.909791,91.4080867 110.811139,86.6027293 C110.471137,85.6733913 110.301139,85.0840639 110.301139,84.8347293 C110.301139,84.4720608 110.55047,84.22273 111.049139,84.0867293 C113.905153,83.3613924 117.214453,82.9987293 120.977139,82.9987293 C121.838476,82.9987293 122.507136,83.2367269 122.983139,83.7127293 C123.32314,84.052731 123.67447,84.6307252 124.037139,85.4467293 C124.059806,85.5600632 124.071139,85.6620622 124.071139,85.7527293 C124.071139,86.0700642 123.810475,86.2513958 123.289139,86.2967293 C120.25179,86.5687307 117.520484,86.9767266 115.095139,87.5207293 C114.279135,88.8580693 113.213812,90.694051 111.899139,93.0287293 Z M122.881139,100.814729 C124.513147,100.497394 125.918466,100.316063 127.097139,100.270729 C127.731809,100.248063 128.26447,100.418061 128.695139,100.780729 C129.511143,101.4834 129.919139,102.140726 129.919139,102.752729 C129.919139,103.002064 129.715141,103.172062 129.307139,103.262729 C127.425796,103.625398 124.887155,104.192059 121.691139,104.962729 C121.033802,105.16673 120.53514,105.132731 120.195139,104.860729 C119.855137,104.588728 119.379142,104.146732 118.767139,103.534729 C118.449804,103.217394 118.291139,102.888731 118.291139,102.548729 C118.291139,102.322062 118.359138,102.027398 118.495139,101.664729 C119.560477,98.8993822 120.988463,95.748747 122.779139,92.2127293 C124.660482,88.5180442 126.405797,85.5034077 128.015139,83.1687293 C128.241807,82.8513944 128.468471,82.6927293 128.695139,82.6927293 C129.307142,82.6927293 130.077801,83.3500561 131.007139,84.6647293 C131.21114,84.9593975 131.313139,85.2200615 131.313139,85.4467293 C131.313139,85.7413975 131.154474,86.1153937 130.837139,86.5687293 C128.525127,89.8780792 125.873154,94.6266984 122.881139,100.814729 Z M143.825139,94.1167293 C145.887816,89.9007082 147.984461,86.2174117 150.115139,83.0667293 C150.341807,82.7267276 150.579804,82.5567293 150.829139,82.5567293 C151.055807,82.5567293 151.305137,82.6700615 151.577139,82.8967293 C152.189142,83.3953985 152.699137,83.9507263 153.107139,84.5627293 C153.31114,84.8573975 153.413139,85.1180615 153.413139,85.3447293 C153.413139,85.6167307 153.24314,86.0020602 152.903139,86.5007293 C148.46045,93.3687637 145.264482,99.2847045 143.315139,104.248729 C143.179138,104.588731 143.020473,104.758729 142.839139,104.758729 C142.703138,104.758729 142.521807,104.679397 142.295139,104.520729 C141.705802,104.090061 141.24114,103.670731 140.901139,103.262729 C140.606471,102.922728 140.459139,102.605397 140.459139,102.310729 C140.459139,102.106728 140.527138,101.812065 140.663139,101.426729 C141.093808,100.202723 141.603802,98.9334026 142.193139,97.6187293 C140.470463,97.9360642 138.566483,98.4007263 136.481139,99.0127293 C135.506467,101.007406 134.679142,102.900054 133.999139,104.690729 C133.863138,105.030731 133.69314,105.200729 133.489139,105.200729 C133.353138,105.200729 133.18314,105.121397 132.979139,104.962729 C132.412469,104.532061 131.947807,104.135398 131.585139,103.772729 C131.22247,103.410061 131.041139,103.058731 131.041139,102.718729 C131.041139,102.492062 131.109138,102.197398 131.245139,101.834729 C132.174477,99.1827161 133.517463,96.1000802 135.274139,92.5867293 C137.030814,89.0733784 138.713797,86.0927416 140.323139,83.6447293 C140.572473,83.2593941 140.821804,83.0667293 141.071139,83.0667293 C141.252473,83.0667293 141.490471,83.1913947 141.785139,83.4407293 C142.419809,83.984732 142.929804,84.5173934 143.315139,85.0387293 C143.51914,85.3333975 143.621139,85.5940615 143.621139,85.8207293 C143.621139,86.0700639 143.462474,86.4553934 143.145139,86.9767293 C141.490464,89.6514094 139.960479,92.3147161 138.555139,94.9667293 C139.847145,94.7173947 141.603794,94.4340642 143.825139,94.1167293 Z M150.625139,102.854729 C149.6278,101.857391 149.129139,100.62207 149.129139,99.1487293 C149.129139,98.3100585 149.276471,97.3694012 149.571139,96.3267293 C150.160475,94.2640523 151.316463,91.9974083 153.039139,89.5267293 C154.761814,87.0560503 156.529796,85.186069 158.343139,83.9167293 C159.340477,83.2140591 160.281134,82.8627293 161.165139,82.8627293 C161.867809,82.8627293 162.559135,83.0780605 163.239139,83.5087293 C164.259144,84.1433992 165.080802,84.8347256 165.704139,85.5827293 C166.327475,86.3307331 166.639139,87.407389 166.639139,88.8127293 C166.639139,89.4700659 166.571139,90.1613924 166.435139,90.8867293 C166.049804,93.0400734 165.188479,95.3293839 163.851139,97.7547293 C162.196464,100.792078 160.258483,103.002056 158.037139,104.384729 C157.221135,104.883398 156.35981,105.132729 155.453139,105.132729 C154.795802,105.132729 154.127142,105.008064 153.447139,104.758729 C152.472467,104.396061 151.53181,103.761401 150.625139,102.854729 Z M155.827139,93.1307293 C153.855129,96.3947456 152.869139,99.0807188 152.869139,101.188729 C152.869139,102.0274 153.152469,102.446729 153.719139,102.446729 C154.399142,102.446729 155.249134,101.936734 156.269139,100.916729 C157.470478,99.7380568 158.683133,98.0834066 159.907139,95.9527293 C162.128483,92.0993767 163.239139,89.1640727 163.239139,87.1467293 C163.239139,86.3987256 163.035141,86.0247293 162.627139,86.0247293 C161.969802,86.0247293 160.983812,86.6933893 159.669139,88.0307293 C158.286465,89.4587365 157.005811,91.1587195 155.827139,93.1307293 Z M172.759139,93.2327293 C173.73381,93.1420622 174.651801,93.0967293 175.513139,93.0967293 C176.215809,93.0967293 176.725804,93.2553944 177.043139,93.5727293 C177.224473,93.7540636 177.519137,94.241392 177.927139,95.0347293 C177.995139,95.17073 178.029139,95.2840622 178.029139,95.3747293 C178.029139,95.6467307 177.847807,95.8053958 177.485139,95.8507293 C176.034465,96.0547303 173.756488,96.4853927 170.651139,97.1427293 C169.132465,100.044077 167.95381,102.548719 167.115139,104.656729 C166.979138,105.019398 166.80914,105.200729 166.605139,105.200729 C166.469138,105.200729 166.287807,105.110064 166.061139,104.928729 C165.403802,104.407393 164.927807,103.976731 164.633139,103.636729 C164.338471,103.296728 164.191139,102.945398 164.191139,102.582729 C164.191139,102.356062 164.259138,102.061398 164.395139,101.698729 C166.00448,97.2787072 168.452456,92.2467575 171.739139,86.6027293 C171.30847,85.5147239 171.093139,84.8687303 171.093139,84.6647293 C171.093139,84.3247276 171.331136,84.0980632 171.807139,83.9847293 C173.076478,83.6673944 174.719795,83.4067303 176.737139,83.2027293 C178.618482,83.0213951 180.137133,82.9533958 181.293139,82.9987293 C182.19981,83.0213961 182.857137,83.2593937 183.265139,83.7127293 C183.990476,84.4833998 184.353139,85.1747263 184.353139,85.7867293 C184.353139,86.0813975 184.103808,86.2513958 183.605139,86.2967293 C181.338461,86.4553968 178.879152,86.8180598 176.227139,87.3847293 C175.025799,89.2887388 173.869811,91.2380527 172.759139,93.2327293 Z M187.481139,93.0287293 C188.682478,92.9153954 189.577802,92.8587293 190.167139,92.8587293 C190.892476,92.8587293 191.402471,93.0513941 191.697139,93.4367293 C192.105141,93.9580653 192.399805,94.4113941 192.581139,94.7967293 C192.649139,94.9553968 192.683139,95.0913954 192.683139,95.2047293 C192.683139,95.4540639 192.51314,95.6013958 192.173139,95.6467293 C190.722465,95.8507303 188.455821,96.2813927 185.373139,96.9387293 C184.919803,97.8454005 184.251143,99.1713873 183.367139,100.916729 C185.135148,100.576728 186.835131,100.406729 188.467139,100.406729 C189.260476,100.406729 189.83847,100.599394 190.201139,100.984729 C190.971809,101.8234 191.357139,102.469394 191.357139,102.922729 C191.357139,103.194731 191.130474,103.364729 190.677139,103.432729 C186.891787,103.954065 184.126481,104.486727 182.381139,105.030729 C181.95047,105.16673 181.610473,105.234729 181.361139,105.234729 C181.089137,105.234729 180.78314,105.098731 180.443139,104.826729 C179.853802,104.373394 179.445807,104.010731 179.219139,103.738729 C178.901804,103.353394 178.743139,103.013397 178.743139,102.718729 C178.743139,102.514728 178.799805,102.254064 178.913139,101.936729 C180.998483,96.5193689 183.491791,91.4080867 186.393139,86.6027293 C186.053137,85.6733913 185.883139,85.0840639 185.883139,84.8347293 C185.883139,84.4720608 186.13247,84.22273 186.631139,84.0867293 C189.487153,83.3613924 192.796453,82.9987293 196.559139,82.9987293 C197.420476,82.9987293 198.089136,83.2367269 198.565139,83.7127293 C198.90514,84.052731 199.25647,84.6307252 199.619139,85.4467293 C199.641806,85.5600632 199.653139,85.6620622 199.653139,85.7527293 C199.653139,86.0700642 199.392475,86.2513958 198.871139,86.2967293 C195.83379,86.5687307 193.102484,86.9767266 190.677139,87.5207293 C189.861135,88.8580693 188.795812,90.694051 187.481139,93.0287293 Z M202.917139,94.1847293 C204.934482,93.4140588 207.008461,92.1730712 209.139139,90.4617293 C211.269816,88.7503874 212.335139,87.4980666 212.335139,86.7047293 C212.335139,86.3420608 211.961143,86.1607293 211.213139,86.1607293 C210.102467,86.1607293 208.878479,86.3873937 207.541139,86.8407293 C205.954464,89.1527409 204.413146,91.6007164 202.917139,94.1847293 Z M200.435139,98.6047293 C199.211133,100.871407 198.213809,102.843388 197.443139,104.520729 C197.284471,104.860731 197.091807,105.030729 196.865139,105.030729 C196.706471,105.030729 196.45714,104.906064 196.117139,104.656729 C195.709137,104.339394 195.357807,103.942732 195.063139,103.466729 C194.768471,102.990727 194.621139,102.582731 194.621139,102.242729 C194.621139,101.993395 194.677805,101.721397 194.791139,101.426729 C196.695148,96.8480398 199.23379,92.0994206 202.407139,87.1807293 C202.180471,86.9540615 201.749809,86.4780663 201.115139,85.7527293 C200.933805,85.5260615 200.843139,85.3333968 200.843139,85.1747293 C200.843139,84.9480615 201.013137,84.7440636 201.353139,84.5627293 C203.642484,83.4293903 206.113126,82.8627293 208.765139,82.8627293 C211.326485,82.8627293 213.400464,83.7580537 214.987139,85.5487293 C215.712476,86.3647334 216.075139,87.1353924 216.075139,87.8607293 C216.075139,88.4953992 215.723809,89.2773913 215.021139,90.2067293 C214.137134,91.3854019 212.777148,92.6207229 210.941139,93.9127293 C208.901129,95.3634032 206.838483,96.4627256 204.753139,97.2107293 C206.271813,99.5000741 207.801798,101.324723 209.343139,102.684729 C209.592473,102.88873 209.717139,103.081395 209.717139,103.262729 C209.717139,103.534731 209.411142,103.795395 208.799139,104.044729 C208.36847,104.226064 207.960474,104.350729 207.575139,104.418729 C207.099136,104.509396 206.747807,104.52073 206.521139,104.452729 C206.249137,104.384729 205.875141,104.169398 205.399139,103.806729 C203.857798,102.67339 202.203148,100.939408 200.435139,98.6047293 Z M100.492139,127.232729 C101.46681,127.142062 102.384801,127.096729 103.246139,127.096729 C103.948809,127.096729 104.458804,127.255394 104.776139,127.572729 C104.957473,127.754064 105.252137,128.241392 105.660139,129.034729 C105.728139,129.17073 105.762139,129.284062 105.762139,129.374729 C105.762139,129.646731 105.580807,129.805396 105.218139,129.850729 C103.767465,130.05473 101.489488,130.485393 98.3841388,131.142729 C96.8654645,134.044077 95.6868096,136.548719 94.8481388,138.656729 C94.7121381,139.019398 94.5421398,139.200729 94.3381388,139.200729 C94.2021381,139.200729 94.0208066,139.110064 93.7941388,138.928729 C93.1368021,138.407393 92.6608069,137.976731 92.3661388,137.636729 C92.0714706,137.296728 91.9241388,136.945398 91.9241388,136.582729 C91.9241388,136.356062 91.9921381,136.061398 92.1281388,135.698729 C93.7374801,131.278707 96.1854557,126.246758 99.4721388,120.602729 C99.0414699,119.514724 98.8261388,118.86873 98.8261388,118.664729 C98.8261388,118.324728 99.0641364,118.098063 99.5401388,117.984729 C100.809478,117.667394 102.452795,117.40673 104.470139,117.202729 C106.351482,117.021395 107.870133,116.953396 109.026139,116.998729 C109.93281,117.021396 110.590137,117.259394 110.998139,117.712729 C111.723476,118.4834 112.086139,119.174726 112.086139,119.786729 C112.086139,120.081397 111.836808,120.251396 111.338139,120.296729 C109.071461,120.455397 106.612152,120.81806 103.960139,121.384729 C102.758799,123.288739 101.602811,125.238053 100.492139,127.232729 Z M115.214139,127.028729 C116.415478,126.915395 117.310802,126.858729 117.900139,126.858729 C118.625476,126.858729 119.135471,127.051394 119.430139,127.436729 C119.838141,127.958065 120.132805,128.411394 120.314139,128.796729 C120.382139,128.955397 120.416139,129.091395 120.416139,129.204729 C120.416139,129.454064 120.24614,129.601396 119.906139,129.646729 C118.455465,129.85073 116.188821,130.281393 113.106139,130.938729 C112.652803,131.845401 111.984143,133.171387 111.100139,134.916729 C112.868148,134.576728 114.568131,134.406729 116.200139,134.406729 C116.993476,134.406729 117.57147,134.599394 117.934139,134.984729 C118.704809,135.8234 119.090139,136.469394 119.090139,136.922729 C119.090139,137.194731 118.863474,137.364729 118.410139,137.432729 C114.624787,137.954065 111.859481,138.486727 110.114139,139.030729 C109.68347,139.16673 109.343473,139.234729 109.094139,139.234729 C108.822137,139.234729 108.51614,139.098731 108.176139,138.826729 C107.586802,138.373394 107.178807,138.010731 106.952139,137.738729 C106.634804,137.353394 106.476139,137.013397 106.476139,136.718729 C106.476139,136.514728 106.532805,136.254064 106.646139,135.936729 C108.731483,130.519369 111.224791,125.408087 114.126139,120.602729 C113.786137,119.673391 113.616139,119.084064 113.616139,118.834729 C113.616139,118.472061 113.86547,118.22273 114.364139,118.086729 C117.220153,117.361392 120.529453,116.998729 124.292139,116.998729 C125.153476,116.998729 125.822136,117.236727 126.298139,117.712729 C126.63814,118.052731 126.98947,118.630725 127.352139,119.446729 C127.374806,119.560063 127.386139,119.662062 127.386139,119.752729 C127.386139,120.070064 127.125475,120.251396 126.604139,120.296729 C123.56679,120.568731 120.835484,120.976727 118.410139,121.520729 C117.594135,122.858069 116.528812,124.694051 115.214139,127.028729 Z M126.196139,134.814729 C127.828147,134.497394 129.233466,134.316063 130.412139,134.270729 C131.046809,134.248063 131.57947,134.418061 132.010139,134.780729 C132.826143,135.4834 133.234139,136.140726 133.234139,136.752729 C133.234139,137.002064 133.030141,137.172062 132.622139,137.262729 C130.740796,137.625398 128.202155,138.192059 125.006139,138.962729 C124.348802,139.16673 123.85014,139.132731 123.510139,138.860729 C123.170137,138.588728 122.694142,138.146732 122.082139,137.534729 C121.764804,137.217394 121.606139,136.888731 121.606139,136.548729 C121.606139,136.322062 121.674138,136.027398 121.810139,135.664729 C122.875477,132.899382 124.303463,129.748747 126.094139,126.212729 C127.975482,122.518044 129.720797,119.503408 131.330139,117.168729 C131.556807,116.851394 131.783471,116.692729 132.010139,116.692729 C132.622142,116.692729 133.392801,117.350056 134.322139,118.664729 C134.52614,118.959397 134.628139,119.220062 134.628139,119.446729 C134.628139,119.741397 134.469474,120.115394 134.152139,120.568729 C131.840127,123.878079 129.188154,128.626698 126.196139,134.814729 Z M147.412139,121.146729 C145.032127,124.932082 142.323487,129.658034 139.286139,135.324729 C143.230158,133.466053 146.550792,130.972745 149.248139,127.844729 C151.537484,125.192716 152.682139,123.107404 152.682139,121.588729 C152.682139,120.795392 151.979479,120.398729 150.574139,120.398729 C149.463467,120.398729 148.409477,120.64806 147.412139,121.146729 Z M142.618139,120.840729 C142.459471,120.614062 142.221474,120.285398 141.904139,119.854729 C141.745471,119.628062 141.666139,119.435397 141.666139,119.276729 C141.666139,119.027395 141.84747,118.80073 142.210139,118.596729 C143.456812,117.871392 144.748799,117.395397 146.086139,117.168729 C146.902143,117.032729 147.695468,116.964729 148.466139,116.964729 C150.166147,116.964729 151.5488,117.293393 152.614139,117.950729 C155.198152,119.560071 156.410806,121.407386 156.252139,123.492729 C156.025471,126.280743 154.08749,129.250047 150.438139,132.400729 C147.33279,135.075409 143.978157,137.160722 140.374139,138.656729 C139.716802,138.928731 139.240807,139.064729 138.946139,139.064729 C138.651471,139.064729 138.300141,138.974064 137.892139,138.792729 C136.872134,138.362061 136.022142,137.863399 135.342139,137.296729 C134.91147,136.934061 134.696139,136.628064 134.696139,136.378729 C134.696139,136.174728 134.775471,135.891398 134.934139,135.528729 C136.452813,132.060712 139.014121,127.164761 142.618139,120.840729 Z" id="Outlines" fill="#6566CC" transform="translate(126.332139, 110.895729) rotate(-11.000000) translate(-126.332139, -110.895729) "></path>
        </g>
    </g>
</svg>