<?xml version="1.0" encoding="UTF-8"?>
<svg width="130px" height="104px" viewBox="0 0 130 104" version="1.1" xmlns="http://www.w3.org/2000/svg" xmlns:xlink="http://www.w3.org/1999/xlink">
    <!-- Generator: Sketch 42 (36781) - http://www.bohemiancoding.com/sketch -->
    <title>Landmark_Boston</title>
    <desc>Created with Sketch.</desc>
    <defs>
        <polyline id="path-1" points="58.5316431 97.648855 65.6958222 98.0992366 72.4122401 98.5496183 75.9943297 99 77.3376133 99 77.7853744 98.0992366 77.7853744 97.648855 78.6808968 92.6946565 81.367464 83.6870229 84.0540312 76.0305344 87.1883595 68.3740458 89.8749267 64.3206107 93.9047774 58.9160305 96.5913446 55.3129771 98.8301506 52.1603053 97.9346282 51.259542 94.8002998 47.2061069 89.4271655 40 80.0241804 43.6030534 72.8600013 45.8549618 61.2182103 49.4580153 48.2331356 53.5114504 40.6211953 55.7633588 39.725673 56.2137405 38.8301506 56.6641221 38.8301506 57.5648855 40.6211953 62.9694656 41.5167177 63.870229 45.9943297 73.778626 50.9197028 87.2900763 51.367464 89.0916031 53.1585088 93.5954198 54.5017924 95.8473282 54.9495536 97.1984733 58.5316431 97.648855"></polyline>
        <mask id="mask-2" maskContentUnits="userSpaceOnUse" maskUnits="objectBoundingBox" x="0" y="0" width="60" height="59" fill="white">
            <use xlink:href="#path-1"></use>
        </mask>
    </defs>
    <g id="Symbols" stroke="none" stroke-width="1" fill="none" fill-rule="evenodd">
        <g id="Landmark_Boston">
            <use id="Commons" stroke="#6566CC" mask="url(#mask-2)" stroke-width="6" stroke-dasharray="10,5" fill-rule="nonzero" xlink:href="#path-1"></use>
            <path d="M6.104,44.3160314 C4.65332608,44.4520321 3.15734104,44.032703 1.616,43.0580314 C-0.37867664,41.8113585 -1.376,40.292707 -1.376,38.5020314 C-1.376,37.8673616 -1.2626678,37.1760352 -1.036,36.4280314 C-0.31066304,34.0706863 1.06065658,31.4980454 3.078,28.7100314 C5.2313441,25.76335 7.33932302,23.7120372 9.402,22.5560314 C10.3540048,22.0120287 11.1699966,21.7400314 11.85,21.7400314 C13.1193397,21.7400314 14.5586586,22.54469 16.168,24.1540314 C16.5533353,24.5393667 16.746,25.0606948 16.746,25.7180314 C16.746,26.0806999 16.6893339,26.4773626 16.576,26.9080314 C16.0773308,28.7667074 15.0913407,30.6480219 13.618,32.5520314 C13.3686654,32.8693663 13.1306678,33.0280314 12.904,33.0280314 C12.7453325,33.0280314 12.5753342,32.9486989 12.394,32.7900314 C12.0313315,32.4726965 11.6120024,32.0193677 11.136,31.4300314 C10.8186651,30.7953616 10.8299983,30.1267016 11.17,29.4240314 C12.3260058,27.0213527 12.904,25.6613663 12.904,25.3440314 C12.904,25.1400304 12.8133342,25.0380314 12.632,25.0380314 C12.1333308,25.0380314 11.2493397,25.6726917 9.98,26.9420314 C8.6199932,28.324705 7.29400646,29.9906883 6.002,31.9400314 C3.8486559,35.2040477 2.772,37.8786877 2.772,39.9640314 C2.772,40.938703 3.08933016,41.4260314 3.724,41.4260314 C4.44933696,41.4260314 5.45799354,40.9840358 6.75,40.1000314 C8.04200646,39.216027 9.28866066,38.1167047 10.49,36.8020314 C10.7620014,36.5073633 10.999999,36.3600314 11.204,36.3600314 C11.3853342,36.3600314 11.5439993,36.4846968 11.68,36.7340314 C11.9973349,37.3233677 12.156,37.8333626 12.156,38.2640314 C12.156,39.3520369 11.4193407,40.6100243 9.946,42.0380314 C8.4726593,43.4660386 7.19200544,44.2253643 6.104,44.3160314 Z M15.896,42.0380314 C14.8986617,41.0406931 14.4,39.8053721 14.4,38.3320314 C14.4,37.4933606 14.5473319,36.5527033 14.842,35.5100314 C15.4313363,33.4473544 16.5873247,31.1807104 18.31,28.7100314 C20.0326753,26.2393524 21.8006576,24.3693711 23.614,23.1000314 C24.6113383,22.3973612 25.5519956,22.0460314 26.436,22.0460314 C27.1386702,22.0460314 27.8299966,22.2613626 28.51,22.6920314 C29.5300051,23.3267013 30.3516636,24.0180277 30.975,24.7660314 C31.5983365,25.5140352 31.91,26.5906911 31.91,27.9960314 C31.91,28.653368 31.8420007,29.3446945 31.706,30.0700314 C31.3206647,32.2233755 30.45934,34.512686 29.122,36.9380314 C27.4673251,39.9753799 25.5293444,42.1853578 23.308,43.5680314 C22.4919959,44.0667006 21.6306712,44.3160314 20.724,44.3160314 C20.0666634,44.3160314 19.3980034,44.191366 18.718,43.9420314 C17.7433285,43.5793629 16.8026712,42.9447026 15.896,42.0380314 Z M21.098,32.3140314 C19.1259901,35.5780477 18.14,38.2640209 18.14,40.3720314 C18.14,41.2107023 18.4233305,41.6300314 18.99,41.6300314 C19.6700034,41.6300314 20.5199949,41.1200365 21.54,40.1000314 C22.7413393,38.9213589 23.9539939,37.2667087 25.178,35.1360314 C27.3993444,31.2826788 28.51,28.3473748 28.51,26.3300314 C28.51,25.5820277 28.306002,25.2080314 27.898,25.2080314 C27.2406634,25.2080314 26.2546732,25.8766914 24.94,27.2140314 C23.5573264,28.6420386 22.2766726,30.3420216 21.098,32.3140314 Z M55.302,27.4520314 C52.309985,32.5293901 49.5673458,37.8220039 47.074,43.3300314 C46.8926658,43.7607002 46.6886678,43.9760314 46.462,43.9760314 C46.3033325,43.9760314 46.1106678,43.8796991 45.884,43.6870314 C45.6573322,43.4943638 45.2493363,43.1600338 44.66,42.6840314 C44.3653319,42.4573636 44.218,42.1513667 44.218,41.7660314 C44.218,41.5166968 44.2859993,41.1993667 44.422,40.8140314 C45.1246702,38.6833541 46.7793203,35.1927223 49.386,30.3420314 C45.6913149,34.920721 42.8353434,38.8760148 40.818,42.2080314 C40.5459986,42.661367 40.2853346,42.8880314 40.036,42.8880314 C39.8999993,42.8880314 39.7073346,42.8313653 39.458,42.7180314 C38.8006634,42.4006965 38.1773363,42.0323669 37.588,41.6130314 C36.9986637,41.193696 36.7493329,40.5193694 36.84,39.5900314 C37.0893346,37.0513521 37.5539966,34.3313793 38.234,31.4300314 C35.9219884,35.4420515 33.8026763,39.6353429 31.876,44.0100314 C31.7399993,44.3046996 31.5473346,44.4520314 31.298,44.4520314 C31.1393325,44.4520314 30.9806675,44.3953653 30.822,44.2820314 C30.2553305,43.8966962 29.768002,43.4093677 29.36,42.8200314 C29.1333322,42.3893626 29.1106658,41.9133674 29.292,41.3920314 C30.1760044,38.9213524 31.6266566,35.7707172 33.644,31.9400314 C35.5933431,28.2226795 37.3159925,25.310042 38.812,23.2020314 C39.1066681,22.7713626 39.4013319,22.5560314 39.696,22.5560314 C39.900001,22.5560314 40.1379986,22.635364 40.41,22.7940314 C41.543339,23.4060345 42.4046637,24.0180284 42.994,24.6300314 C43.3793353,25.0380335 43.4473346,25.6726938 43.198,26.5340314 C42.4046627,29.1407111 41.6113373,32.3140127 40.818,36.0540314 C42.0646729,34.036688 43.7759891,31.6793782 45.952,28.9820314 C48.0600105,26.3526849 49.9299918,24.244706 51.562,22.6580314 C51.9246685,22.2953629 52.2193322,22.1140314 52.446,22.1140314 C52.650001,22.1140314 52.9219983,22.2386968 53.262,22.4880314 C54.0780041,23.0547009 54.8259966,23.8366931 55.506,24.8340314 C55.7553346,25.1966999 55.88,25.5480297 55.88,25.8880314 C55.88,26.2733667 55.6873353,26.7946948 55.302,27.4520314 Z M77.402,27.4520314 C74.409985,32.5293901 71.6673458,37.8220039 69.174,43.3300314 C68.9926658,43.7607002 68.7886678,43.9760314 68.562,43.9760314 C68.4033325,43.9760314 68.2106678,43.8796991 67.984,43.6870314 C67.7573322,43.4943638 67.3493363,43.1600338 66.76,42.6840314 C66.4653319,42.4573636 66.318,42.1513667 66.318,41.7660314 C66.318,41.5166968 66.3859993,41.1993667 66.522,40.8140314 C67.2246702,38.6833541 68.8793203,35.1927223 71.486,30.3420314 C67.7913149,34.920721 64.9353434,38.8760148 62.918,42.2080314 C62.6459986,42.661367 62.3853346,42.8880314 62.136,42.8880314 C61.9999993,42.8880314 61.8073346,42.8313653 61.558,42.7180314 C60.9006634,42.4006965 60.2773363,42.0323669 59.688,41.6130314 C59.0986637,41.193696 58.8493329,40.5193694 58.94,39.5900314 C59.1893346,37.0513521 59.6539966,34.3313793 60.334,31.4300314 C58.0219884,35.4420515 55.9026763,39.6353429 53.976,44.0100314 C53.8399993,44.3046996 53.6473346,44.4520314 53.398,44.4520314 C53.2393325,44.4520314 53.0806675,44.3953653 52.922,44.2820314 C52.3553305,43.8966962 51.868002,43.4093677 51.46,42.8200314 C51.2333322,42.3893626 51.2106658,41.9133674 51.392,41.3920314 C52.2760044,38.9213524 53.7266566,35.7707172 55.744,31.9400314 C57.6933431,28.2226795 59.4159925,25.310042 60.912,23.2020314 C61.2066681,22.7713626 61.5013319,22.5560314 61.796,22.5560314 C62.000001,22.5560314 62.2379986,22.635364 62.51,22.7940314 C63.643339,23.4060345 64.5046637,24.0180284 65.094,24.6300314 C65.4793353,25.0380335 65.5473346,25.6726938 65.298,26.5340314 C64.5046627,29.1407111 63.7113373,32.3140127 62.918,36.0540314 C64.1646729,34.036688 65.8759891,31.6793782 68.052,28.9820314 C70.1600105,26.3526849 72.0299918,24.244706 73.662,22.6580314 C74.0246685,22.2953629 74.3193322,22.1140314 74.546,22.1140314 C74.750001,22.1140314 75.0219983,22.2386968 75.362,22.4880314 C76.1780041,23.0547009 76.9259966,23.8366931 77.606,24.8340314 C77.8553346,25.1966999 77.98,25.5480297 77.98,25.8880314 C77.98,26.2733667 77.7873353,26.7946948 77.402,27.4520314 Z M76.586,42.0380314 C75.5886617,41.0406931 75.09,39.8053721 75.09,38.3320314 C75.09,37.4933606 75.2373319,36.5527033 75.532,35.5100314 C76.1213363,33.4473544 77.2773247,31.1807104 79,28.7100314 C80.7226753,26.2393524 82.4906576,24.3693711 84.304,23.1000314 C85.3013383,22.3973612 86.2419956,22.0460314 87.126,22.0460314 C87.8286702,22.0460314 88.5199966,22.2613626 89.2,22.6920314 C90.2200051,23.3267013 91.0416636,24.0180277 91.665,24.7660314 C92.2883365,25.5140352 92.6,26.5906911 92.6,27.9960314 C92.6,28.653368 92.5320007,29.3446945 92.396,30.0700314 C92.0106647,32.2233755 91.14934,34.512686 89.812,36.9380314 C88.1573251,39.9753799 86.2193444,42.1853578 83.998,43.5680314 C83.1819959,44.0667006 82.3206712,44.3160314 81.414,44.3160314 C80.7566634,44.3160314 80.0880034,44.191366 79.408,43.9420314 C78.4333285,43.5793629 77.4926712,42.9447026 76.586,42.0380314 Z M81.788,32.3140314 C79.8159901,35.5780477 78.83,38.2640209 78.83,40.3720314 C78.83,41.2107023 79.1133305,41.6300314 79.68,41.6300314 C80.3600034,41.6300314 81.2099949,41.1200365 82.23,40.1000314 C83.4313393,38.9213589 84.6439939,37.2667087 85.868,35.1360314 C88.0893444,31.2826788 89.2,28.3473748 89.2,26.3300314 C89.2,25.5820277 88.996002,25.2080314 88.588,25.2080314 C87.9306634,25.2080314 86.9446732,25.8766914 85.63,27.2140314 C84.2473264,28.6420386 82.9666726,30.3420216 81.788,32.3140314 Z M99.672,30.3760314 C97.201321,34.7960535 94.9800099,39.3066751 93.008,43.9080314 C92.8946661,44.2026996 92.7246678,44.3500314 92.498,44.3500314 C92.2033319,44.3500314 91.8293356,44.1460335 91.376,43.7380314 C90.9226644,43.3300294 90.6166675,42.9786996 90.458,42.6840314 C90.1859986,42.208029 90.1293325,41.7320338 90.288,41.2560314 C91.013337,39.1253541 92.3506569,36.0653847 94.3,32.0760314 C96.0000085,28.5626805 97.6093257,25.4687115 99.128,22.7940314 C99.3773346,22.3633626 99.6946647,22.1480314 100.08,22.1480314 C100.261334,22.1480314 100.499332,22.1933643 100.794,22.2840314 C101.655338,22.5786996 102.595995,23.1113609 103.616,23.8820314 C103.978668,24.1540328 104.16,24.4826962 104.16,24.8680314 C104.16,25.0493657 104.114667,25.3893623 104.024,25.8880314 C103.366663,29.129381 102.845335,32.7560114 102.46,36.7680314 C105.270681,31.0106693 107.97932,26.3527159 110.586,22.7940314 C110.790001,22.5220301 110.982666,22.3860314 111.164,22.3860314 C111.368001,22.3860314 111.560666,22.5220301 111.742,22.7940314 C112.172669,23.4060345 112.388,24.0406948 112.388,24.6980314 C112.388,25.2647009 112.206668,25.9106945 111.844,26.6360314 C110.551994,29.1293772 109.27134,31.6113524 108.002,34.0820314 C106.165991,37.6633827 104.704005,40.6893524 103.616,43.1600314 C103.411999,43.613367 103.128668,43.8400314 102.766,43.8400314 C102.584666,43.8400314 102.358001,43.7833653 102.086,43.6700314 C101.337996,43.3526965 100.607004,42.939034 99.893,42.4290314 C99.1789964,41.9190289 98.822,41.1653697 98.822,40.1680314 C98.7993332,37.0626826 99.0826637,33.7987152 99.672,30.3760314 Z M107.866,38.8760314 C107.888667,38.4453626 108.047332,38.2300314 108.342,38.2300314 C108.500667,38.2300314 108.659333,38.2866975 108.818,38.4000314 C111.356679,40.2587074 113.679989,41.1880314 115.788,41.1880314 C116.785338,41.1880314 117.284,40.9047009 117.284,40.3380314 C117.284,40.1113636 117.193334,39.8676994 117.012,39.6070314 C116.830666,39.3463635 116.139339,38.6833701 114.938,37.6180314 C113.623327,36.4620256 112.750669,35.6347006 112.32,35.1360314 C111.594663,34.2973606 111.232,33.4133694 111.232,32.4840314 C111.232,31.6906941 111.503997,30.8633691 112.048,30.0020314 C113.997343,26.8740158 116.717316,24.4600399 120.208,22.7600314 C121.114671,22.3066958 121.907997,22.0800314 122.588,22.0800314 C123.22267,22.0800314 123.82333,22.2613629 124.39,22.6240314 C125.568673,23.3493684 126.429997,24.0973609 126.974,24.8680314 C127.268668,25.2987002 127.416,25.752029 127.416,26.2280314 C127.416,26.6133667 127.314001,27.0553623 127.11,27.5540314 C126.203329,29.7753759 124.786676,31.9060212 122.86,33.9460314 C122.610665,34.2180328 122.372668,34.3540314 122.146,34.3540314 C121.601997,34.3540314 121.092002,33.764704 120.616,32.5860314 C120.548,32.427364 120.514,32.2573657 120.514,32.0760314 C120.514,31.7360297 120.649999,31.3053674 120.922,30.7840314 C121.443336,29.900027 121.953331,29.0047026 122.452,28.0980314 C123.15467,26.8740253 123.506,26.0806999 123.506,25.7180314 C123.506,25.5366972 123.415334,25.4460314 123.234,25.4460314 C122.66733,25.4460314 121.624674,26.0353589 120.106,27.2140314 C118.519325,28.4607043 117.352004,29.6733589 116.604,30.8520314 C116.150664,31.5320348 115.924,32.1213623 115.924,32.6200314 C115.924,33.0960338 116.20733,33.6400284 116.774,34.2520314 C117.590004,34.9547016 118.70066,35.9633582 120.106,37.2780314 C120.80867,38.0487019 121.16,38.8080277 121.16,39.5560314 C121.16,40.213368 120.888003,40.8706948 120.344,41.5280314 C118.893326,43.2960403 117.14801,44.1800314 115.108,44.1800314 C112.818655,44.1800314 110.790009,43.3640396 109.022,41.7320314 C108.183329,40.9613609 107.798,40.0093704 107.866,38.8760314 Z" id="Outlines" fill="#6566CC" transform="translate(63.020000, 33.096031) rotate(-18.000000) translate(-63.020000, -33.096031) "></path>
        </g>
    </g>
</svg>