<?xml version="1.0" encoding="UTF-8"?>
<svg width="171px" height="178px" viewBox="0 0 171 178" version="1.1" xmlns="http://www.w3.org/2000/svg" xmlns:xlink="http://www.w3.org/1999/xlink">
    <!-- Generator: Sketch 42 (36781) - http://www.bohemiancoding.com/sketch -->
    <title>Landmark_Vienna</title>
    <desc>Created with Sketch.</desc>
    <defs>
        <polygon id="path-1" points="0.88593269 107.044619 -1.3725326 123.539064 7.89204408 128.399653 13.4436423 136.027883 20.6881036 136.836251 21.1388808 133.686251 41.4238549 137.736251 36.0145284 153.036251 96.4186735 171.036251 98.2217823 168.786251 105.57296 171.489414 141.496394 107.136251 138.791731 105.786251 154.568933 62.1362507 161.781368 64.8362507 164.486031 46.8362507 160.429036 45.4862507 164.904782 34.3278828 110.843544 5.43625072 33.7606424 0.486250722 32.4083108 0.936250722 31.0559792 1.38625072 29.2528704 2.73625072 28.351316 3.63625072 27.4497616 4.98625072 25.6466528 8.13625072 23.843544 12.6362507 21.589658 18.0362507 27.4497616 19.8362507 22.4912124 33.3362507 8.93587028 28.0278828 -8.16163737 104.436251"></polygon>
        <mask id="mask-2" maskContentUnits="userSpaceOnUse" maskUnits="objectBoundingBox" x="0" y="0" width="173.06642" height="171.003164" fill="white">
            <use xlink:href="#path-1"></use>
        </mask>
    </defs>
    <g id="Symbols" stroke="none" stroke-width="1" fill="none" fill-rule="evenodd">
        <g id="Landmark_Vienna">
            <use id="Schlosspark" stroke="#6566CC" mask="url(#mask-2)" stroke-width="6" stroke-dasharray="10,5" fill-rule="nonzero" transform="translate(78.371572, 85.987833) rotate(159.000000) translate(-78.371572, -85.987833) " xlink:href="#path-1"></use>
            <path d="M39.9761543,81.5903359 C39.9988211,81.1596671 40.1574862,80.9443359 40.4521543,80.9443359 C40.6108218,80.9443359 40.7694869,81.001002 40.9281543,81.1143359 C43.4668337,82.9730119 45.7901438,83.9023359 47.8981543,83.9023359 C48.8954926,83.9023359 49.3941543,83.6190054 49.3941543,83.0523359 C49.3941543,82.8256681 49.3034886,82.5820039 49.1221543,82.3213359 C48.9408201,82.060668 48.2494937,81.3976746 47.0481543,80.3323359 C45.7334811,79.1763301 44.8608231,78.3490051 44.4301543,77.8503359 C43.7048174,77.0116651 43.3421543,76.1276739 43.3421543,75.1983359 C43.3421543,74.4049986 43.6141516,73.5776736 44.1581543,72.7163359 C46.1074974,69.5883203 48.8274702,67.1743444 52.3181543,65.4743359 C53.2248255,65.0210003 54.0181509,64.7943359 54.6981543,64.7943359 C55.3328242,64.7943359 55.9334848,64.9756674 56.5001543,65.3383359 C57.6788269,66.0636729 58.5401516,66.8116654 59.0841543,67.5823359 C59.3788225,68.0130047 59.5261543,68.4663335 59.5261543,68.9423359 C59.5261543,69.3276712 59.4241553,69.7696668 59.2201543,70.2683359 C58.3134831,72.4896804 56.8968306,74.6203257 54.9701543,76.6603359 C54.7208197,76.9323373 54.4828221,77.0683359 54.2561543,77.0683359 C53.7121516,77.0683359 53.2021567,76.4790085 52.7261543,75.3003359 C52.658154,75.1416685 52.6241543,74.9716702 52.6241543,74.7903359 C52.6241543,74.4503342 52.760153,74.0196719 53.0321543,73.4983359 C53.5534903,72.6143315 54.0634852,71.7190071 54.5621543,70.8123359 C55.2648245,69.5883298 55.6161543,68.7950044 55.6161543,68.4323359 C55.6161543,68.2510017 55.5254886,68.1603359 55.3441543,68.1603359 C54.7774848,68.1603359 53.7348286,68.7496634 52.2161543,69.9283359 C50.6294797,71.1750088 49.4621581,72.3876634 48.7141543,73.5663359 C48.2608187,74.2463393 48.0341543,74.8356668 48.0341543,75.3343359 C48.0341543,75.8103383 48.3174848,76.3543329 48.8841543,76.9663359 C49.7001584,77.6690061 50.810814,78.6776627 52.2161543,79.9923359 C52.9188245,80.7630064 53.2701543,81.5223322 53.2701543,82.2703359 C53.2701543,82.9276725 52.998157,83.5849993 52.4541543,84.2423359 C51.0034804,86.0103448 49.2581645,86.8943359 47.2181543,86.8943359 C44.9288095,86.8943359 42.9001632,86.0783441 41.1321543,84.4463359 C40.2934835,83.6756654 39.908154,82.7236749 39.9761543,81.5903359 Z M63.4021543,87.0303359 C61.9514804,87.1663366 60.4554954,86.7470075 58.9141543,85.7723359 C56.9194777,84.525663 55.9221543,83.0070115 55.9221543,81.2163359 C55.9221543,80.5816661 56.0354865,79.8903397 56.2621543,79.1423359 C56.9874913,76.7849908 58.3588109,74.2123499 60.3761543,71.4243359 C62.5294984,68.4776545 64.6374773,66.4263417 66.7001543,65.2703359 C67.6521591,64.7263332 68.4681509,64.4543359 69.1481543,64.4543359 C70.417494,64.4543359 71.8568129,65.2589945 73.4661543,66.8683359 C73.8514896,67.2536712 74.0441543,67.7749993 74.0441543,68.4323359 C74.0441543,68.7950044 73.9874882,69.1916671 73.8741543,69.6223359 C73.3754852,71.4810119 72.389495,73.3623264 70.9161543,75.2663359 C70.6668197,75.5836708 70.4288221,75.7423359 70.2021543,75.7423359 C70.0434869,75.7423359 69.8734886,75.6630034 69.6921543,75.5043359 C69.3294858,75.187001 68.9101567,74.7336722 68.4341543,74.1443359 C68.1168194,73.5096661 68.1281526,72.8410061 68.4681543,72.1383359 C69.6241601,69.7356572 70.2021543,68.3756708 70.2021543,68.0583359 C70.2021543,67.8543349 70.1114886,67.7523359 69.9301543,67.7523359 C69.4314852,67.7523359 68.547494,68.3869962 67.2781543,69.6563359 C65.9181475,71.0390095 64.5921608,72.7049928 63.3001543,74.6543359 C61.1468102,77.9183522 60.0701543,80.5929922 60.0701543,82.6783359 C60.0701543,83.6530075 60.3874845,84.1403359 61.0221543,84.1403359 C61.7474913,84.1403359 62.7561479,83.6983403 64.0481543,82.8143359 C65.3401608,81.9303315 66.586815,80.8310092 67.7881543,79.5163359 C68.0601557,79.2216678 68.2981533,79.0743359 68.5021543,79.0743359 C68.6834886,79.0743359 68.8421536,79.1990013 68.9781543,79.4483359 C69.2954892,80.0376722 69.4541543,80.5476671 69.4541543,80.9783359 C69.4541543,82.0663414 68.717495,83.3243288 67.2441543,84.7523359 C65.7708136,86.1803431 64.4901598,86.9396688 63.4021543,87.0303359 Z M82.8161543,76.0143359 C84.8788313,71.7983148 86.975477,68.1150183 89.1061543,64.9643359 C89.3328221,64.6243342 89.5708197,64.4543359 89.8201543,64.4543359 C90.0468221,64.4543359 90.296153,64.5676681 90.5681543,64.7943359 C91.1801574,65.2930051 91.6901523,65.8483329 92.0981543,66.4603359 C92.3021553,66.7550041 92.4041543,67.0156681 92.4041543,67.2423359 C92.4041543,67.5143373 92.234156,67.8996668 91.8941543,68.3983359 C87.4514654,75.2663703 84.2554974,81.1823111 82.3061543,86.1463359 C82.1701536,86.4863376 82.0114886,86.6563359 81.8301543,86.6563359 C81.6941536,86.6563359 81.5128221,86.5770034 81.2861543,86.4183359 C80.696818,85.9876671 80.232156,85.568338 79.8921543,85.1603359 C79.5974862,84.8203342 79.4501543,84.5030041 79.4501543,84.2083359 C79.4501543,84.0043349 79.5181536,83.7096712 79.6541543,83.3243359 C80.0848231,82.1003298 80.594818,80.8310092 81.1841543,79.5163359 C79.461479,79.8336708 77.5574981,80.2983329 75.4721543,80.9103359 C74.4974828,82.9050126 73.6701577,84.7976603 72.9901543,86.5883359 C72.8541536,86.9283376 72.6841553,87.0983359 72.4801543,87.0983359 C72.3441536,87.0983359 72.1741553,87.0190034 71.9701543,86.8603359 C71.4034848,86.4296671 70.9388228,86.0330044 70.5761543,85.6703359 C70.2134858,85.3076674 70.0321543,84.9563376 70.0321543,84.6163359 C70.0321543,84.3896681 70.1001536,84.0950044 70.2361543,83.7323359 C71.1654923,81.0803227 72.5084789,77.9976868 74.2651543,74.4843359 C76.0218298,70.970985 77.7048129,67.9903482 79.3141543,65.5423359 C79.5634889,65.1570007 79.8128197,64.9643359 80.0621543,64.9643359 C80.2434886,64.9643359 80.4814862,65.0890013 80.7761543,65.3383359 C81.4108242,65.8823386 81.9208191,66.415 82.3061543,66.9363359 C82.5101553,67.2310041 82.6121543,67.4916681 82.6121543,67.7183359 C82.6121543,67.9676705 82.4534892,68.353 82.1361543,68.8743359 C80.4814794,71.549016 78.9514947,74.2123227 77.5461543,76.8643359 C78.8381608,76.6150013 80.5948099,76.3316708 82.8161543,76.0143359 Z M89.6161543,84.7523359 C88.618816,83.7549976 88.1201543,82.5196766 88.1201543,81.0463359 C88.1201543,80.2076651 88.2674862,79.2670078 88.5621543,78.2243359 C89.1514906,76.1616589 90.307479,73.8950149 92.0301543,71.4243359 C93.7528296,68.9536569 95.5208119,67.0836756 97.3341543,65.8143359 C98.3314926,65.1116657 99.2721499,64.7603359 100.156154,64.7603359 C100.858824,64.7603359 101.550151,64.9756671 102.230154,65.4063359 C103.250159,66.0410058 104.071818,66.7323322 104.695154,67.4803359 C105.318491,68.2283397 105.630154,69.3049956 105.630154,70.7103359 C105.630154,71.3676725 105.562155,72.058999 105.426154,72.7843359 C105.040819,74.93768 104.179494,77.2269905 102.842154,79.6523359 C101.187479,82.6896844 99.2494988,84.8996623 97.0281543,86.2823359 C96.2121502,86.7810051 95.3508255,87.0303359 94.4441543,87.0303359 C93.7868177,87.0303359 93.1181577,86.9056705 92.4381543,86.6563359 C91.4634828,86.2936674 90.5228255,85.6590071 89.6161543,84.7523359 Z M94.8181543,75.0283359 C92.8461445,78.2923522 91.8601543,80.9783254 91.8601543,83.0863359 C91.8601543,83.9250068 92.1434848,84.3443359 92.7101543,84.3443359 C93.3901577,84.3443359 94.2401492,83.834341 95.2601543,82.8143359 C96.4614937,81.6356634 97.6741482,79.9810132 98.8981543,77.8503359 C101.119499,73.9969833 102.230154,71.0616793 102.230154,69.0443359 C102.230154,68.2963322 102.026156,67.9223359 101.618154,67.9223359 C100.960818,67.9223359 99.9748276,68.5909959 98.6601543,69.9283359 C97.2774807,71.3563431 95.9968269,73.0563261 94.8181543,75.0283359 Z M101.992154,61.7343359 C102.173489,61.3036671 102.485152,60.9466707 102.927154,60.6633359 C103.369157,60.3800012 103.771486,60.2723356 104.134154,60.3403359 C104.700824,60.4536698 104.984154,60.8389993 104.984154,61.4963359 C104.984154,61.8363376 104.893489,62.1876674 104.712154,62.5503359 C104.349486,63.2756729 103.816824,63.6383359 103.114154,63.6383359 C102.774153,63.6383359 102.473822,63.5250037 102.213154,63.2983359 C101.952486,63.0716681 101.822154,62.7883376 101.822154,62.4483359 C101.822154,62.2216681 101.87882,61.9836705 101.992154,61.7343359 Z M97.7421543,61.6663359 C97.9461553,61.2356671 98.2634855,60.8956705 98.6941543,60.6463359 C99.1248231,60.3970013 99.4988194,60.3063356 99.8161543,60.3743359 C100.382824,60.4876698 100.666154,60.8843325 100.666154,61.5643359 C100.666154,61.8816708 100.575489,62.2103342 100.394154,62.5503359 C100.031486,63.2756729 99.5101577,63.6383359 98.8301543,63.6383359 C97.9914835,63.6383359 97.5721543,63.23034 97.5721543,62.4143359 C97.5721543,62.1650013 97.6288204,61.9156705 97.7421543,61.6663359 Z M112.702154,73.0903359 C110.231475,77.510358 108.010164,82.0209796 106.038154,86.6223359 C105.92482,86.9170041 105.754822,87.0643359 105.528154,87.0643359 C105.233486,87.0643359 104.85949,86.860338 104.406154,86.4523359 C103.952819,86.0443339 103.646822,85.6930041 103.488154,85.3983359 C103.216153,84.9223335 103.159487,84.4463383 103.318154,83.9703359 C104.043491,81.8396586 105.380811,78.7796892 107.330154,74.7903359 C109.030163,71.276985 110.63948,68.183016 112.158154,65.5083359 C112.407489,65.0776671 112.724819,64.8623359 113.110154,64.8623359 C113.291489,64.8623359 113.529486,64.9076688 113.824154,64.9983359 C114.685492,65.2930041 115.626149,65.8256654 116.646154,66.5963359 C117.008823,66.8683373 117.190154,67.1970007 117.190154,67.5823359 C117.190154,67.7636702 117.144821,68.1036668 117.054154,68.6023359 C116.396818,71.8436855 115.87549,75.4703159 115.490154,79.4823359 C118.300835,73.7249738 121.009475,69.0670204 123.616154,65.5083359 C123.820155,65.2363346 124.01282,65.1003359 124.194154,65.1003359 C124.398155,65.1003359 124.59082,65.2363346 124.772154,65.5083359 C125.202823,66.120339 125.418154,66.7549993 125.418154,67.4123359 C125.418154,67.9790054 125.236823,68.624999 124.874154,69.3503359 C123.582148,71.8436817 122.301494,74.3256569 121.032154,76.7963359 C119.196145,80.3776872 117.73416,83.4036569 116.646154,85.8743359 C116.442153,86.3276715 116.158823,86.5543359 115.796154,86.5543359 C115.61482,86.5543359 115.388156,86.4976698 115.116154,86.3843359 C114.368151,86.067001 113.637158,85.6533385 112.923154,85.1433359 C112.209151,84.6333334 111.852154,83.8796742 111.852154,82.8823359 C111.829488,79.7769871 112.112818,76.5130197 112.702154,73.0903359 Z M50.7711543,110.660336 C51.1791564,111.000338 51.5758191,111.431 51.9611543,111.952336 C52.4824903,112.655006 52.7431543,113.346333 52.7431543,114.026336 C52.7431543,114.955674 52.1991598,115.947331 51.1111543,117.001336 C50.0231489,118.055341 48.4704977,118.956332 46.4531543,119.704336 C44.2998102,120.497673 42.1464984,120.905669 39.9931543,120.928336 C39.4491516,120.928336 39.007156,120.758338 38.6671543,120.418336 C38.395153,120.169001 37.9758238,119.783672 37.4091543,119.262336 C37.0918194,118.967668 36.9331543,118.673004 36.9331543,118.378336 C36.9331543,118.151668 37.0011536,117.891004 37.1371543,117.596336 C39.2224981,112.654978 41.7611394,107.80436 44.7531543,103.044336 C44.5264865,102.704334 44.1978231,102.194339 43.7671543,101.514336 C43.6084869,101.242335 43.5291543,101.027003 43.5291543,100.868336 C43.5291543,100.641668 43.7104858,100.43767 44.0731543,100.256336 C46.3851659,99.1456637 48.7991417,98.6130024 51.3151543,98.6583359 C53.8991672,98.7036695 55.9278136,99.7463257 57.4011543,101.786336 C57.8771567,102.443673 58.1151543,103.100999 58.1151543,103.758336 C58.1151543,104.687674 57.6278259,105.69633 56.6531543,106.784336 C55.3838146,108.212343 53.4231676,109.50433 50.7711543,110.660336 Z M46.0791543,108.552336 C48.1871649,107.963 50.1591451,107.045009 51.9951543,105.798336 C53.7631632,104.57433 54.6471543,103.543007 54.6471543,102.704336 C54.6471543,102.273667 54.2391584,102.058336 53.4231543,102.058336 C52.3351489,102.058336 51.1338276,102.296334 49.8191543,102.772336 C48.821816,104.200343 47.5751618,106.12699 46.0791543,108.552336 Z M43.5631543,112.904336 C42.8831509,114.105675 42.0784923,115.612994 41.1491543,117.426336 C43.0984974,117.041001 44.9401456,116.366674 46.6741543,115.403336 C48.408163,114.439998 49.2751543,113.607006 49.2751543,112.904336 C49.2751543,112.405667 48.7651594,112.156336 47.7451543,112.156336 C46.6344821,112.156336 45.240496,112.405667 43.5631543,112.904336 Z M62.8071543,110.082336 C64.8244977,109.311665 66.898477,108.070678 69.0291543,106.359336 C71.1598316,104.647994 72.2251543,103.395673 72.2251543,102.602336 C72.2251543,102.239667 71.8511581,102.058336 71.1031543,102.058336 C69.9924821,102.058336 68.7684943,102.285 67.4311543,102.738336 C65.8444797,105.050347 64.3031618,107.498323 62.8071543,110.082336 Z M60.3251543,114.502336 C59.1011482,116.769014 58.1038248,118.740994 57.3331543,120.418336 C57.1744869,120.758338 56.9818221,120.928336 56.7551543,120.928336 C56.5964869,120.928336 56.347156,120.803671 56.0071543,120.554336 C55.5991523,120.237001 55.2478225,119.840338 54.9531543,119.364336 C54.6584862,118.888334 54.5111543,118.480338 54.5111543,118.140336 C54.5111543,117.891001 54.5678204,117.619004 54.6811543,117.324336 C56.5851638,112.745646 59.1238051,107.997027 62.2971543,103.078336 C62.0704865,102.851668 61.6398242,102.375673 61.0051543,101.650336 C60.8238201,101.423668 60.7331543,101.231003 60.7331543,101.072336 C60.7331543,100.845668 60.9031526,100.64167 61.2431543,100.460336 C63.5324991,99.3269969 66.0031411,98.7603359 68.6551543,98.7603359 C71.2165005,98.7603359 73.2904797,99.6556603 74.8771543,101.446336 C75.6024913,102.26234 75.9651543,103.032999 75.9651543,103.758336 C75.9651543,104.393006 75.6138245,105.174998 74.9111543,106.104336 C74.0271499,107.283008 72.6671635,108.518329 70.8311543,109.810336 C68.7911441,111.26101 66.7284981,112.360332 64.6431543,113.108336 C66.1618286,115.397681 67.6918133,117.222329 69.2331543,118.582336 C69.4824889,118.786337 69.6071543,118.979002 69.6071543,119.160336 C69.6071543,119.432337 69.3011574,119.693001 68.6891543,119.942336 C68.2584855,120.12367 67.8504896,120.248336 67.4651543,120.316336 C66.9891519,120.407003 66.6378221,120.418336 66.4111543,120.350336 C66.139153,120.282336 65.7651567,120.067004 65.2891543,119.704336 C63.7478133,118.570997 62.0931632,116.837014 60.3251543,114.502336 Z M83.2751543,100.664336 C83.4791553,100.981671 83.5811543,101.321667 83.5811543,101.684336 C83.5811543,102.183005 83.3771564,102.738333 82.9691543,103.350336 C81.0198112,106.274351 79.410494,109.084989 78.1411543,111.782336 C76.9624818,114.321015 76.3731543,116.13433 76.3731543,117.222336 C76.3731543,117.811672 76.5884855,118.106336 77.0191543,118.106336 C78.1978269,118.106336 79.9998089,116.508352 82.4251543,113.312336 C85.1905015,109.617651 87.8084753,104.925698 90.2791543,99.2363359 C90.4378218,98.8736674 90.653153,98.6923359 90.9251543,98.6923359 C91.1064886,98.6923359 91.2991533,98.7716685 91.5031543,98.9303359 C91.8658228,99.2023373 92.3304848,99.6669993 92.8971543,100.324336 C93.237156,100.891005 93.2598225,101.593665 92.9651543,102.432336 C90.7664767,108.937702 87.695174,114.298315 83.7511543,118.514336 C82.1418129,120.237011 80.5211625,121.098336 78.8891543,121.098336 C78.2771513,121.098336 77.6198245,120.973671 76.9171543,120.724336 C75.6024811,120.248334 74.4918255,119.534341 73.5851543,118.582336 C72.9504845,117.902333 72.6331543,116.995675 72.6331543,115.862336 C72.6331543,115.091665 72.7804862,114.139675 73.0751543,113.006336 C73.5058231,111.396995 74.5258129,109.175683 76.1351543,106.342336 C77.8351628,103.350321 79.4558133,101.027011 80.9971543,99.3723359 C81.2918225,99.055001 81.5298201,98.8963359 81.7111543,98.8963359 C81.8924886,98.8963359 82.1021531,99.0323346 82.3401543,99.3043359 C82.5781555,99.5763373 82.8898191,100.029666 83.2751543,100.664336 Z M98.1331543,107.090336 C95.6624753,111.510358 93.4411642,116.02098 91.4691543,120.622336 C91.3558204,120.917004 91.1858221,121.064336 90.9591543,121.064336 C90.6644862,121.064336 90.2904899,120.860338 89.8371543,120.452336 C89.3838187,120.044334 89.0778218,119.693004 88.9191543,119.398336 C88.647153,118.922334 88.5904869,118.446338 88.7491543,117.970336 C89.4744913,115.839659 90.8118112,112.779689 92.7611543,108.790336 C94.4611628,105.276985 96.0704801,102.183016 97.5891543,99.5083359 C97.8384889,99.0776671 98.1558191,98.8623359 98.5411543,98.8623359 C98.7224886,98.8623359 98.9604862,98.9076688 99.2551543,98.9983359 C100.116492,99.2930041 101.057149,99.8256654 102.077154,100.596336 C102.439823,100.868337 102.621154,101.197001 102.621154,101.582336 C102.621154,101.76367 102.575821,102.103667 102.485154,102.602336 C101.827818,105.843685 101.30649,109.470316 100.921154,113.482336 C103.731835,107.724974 106.440475,103.06702 109.047154,99.5083359 C109.251155,99.2363346 109.44382,99.1003359 109.625154,99.1003359 C109.829155,99.1003359 110.02182,99.2363346 110.203154,99.5083359 C110.633823,100.120339 110.849154,100.754999 110.849154,101.412336 C110.849154,101.979005 110.667823,102.624999 110.305154,103.350336 C109.013148,105.843682 107.732494,108.325657 106.463154,110.796336 C104.627145,114.377687 103.16516,117.403657 102.077154,119.874336 C101.873153,120.327672 101.589823,120.554336 101.227154,120.554336 C101.04582,120.554336 100.819156,120.49767 100.547154,120.384336 C99.7991506,120.067001 99.0681579,119.653338 98.3541543,119.143336 C97.6401507,118.633333 97.2831543,117.879674 97.2831543,116.882336 C97.2604875,113.776987 97.543818,110.51302 98.1331543,107.090336 Z M115.847154,107.090336 C113.376475,111.510358 111.155164,116.02098 109.183154,120.622336 C109.06982,120.917004 108.899822,121.064336 108.673154,121.064336 C108.378486,121.064336 108.00449,120.860338 107.551154,120.452336 C107.097819,120.044334 106.791822,119.693004 106.633154,119.398336 C106.361153,118.922334 106.304487,118.446338 106.463154,117.970336 C107.188491,115.839659 108.525811,112.779689 110.475154,108.790336 C112.175163,105.276985 113.78448,102.183016 115.303154,99.5083359 C115.552489,99.0776671 115.869819,98.8623359 116.255154,98.8623359 C116.436489,98.8623359 116.674486,98.9076688 116.969154,98.9983359 C117.830492,99.2930041 118.771149,99.8256654 119.791154,100.596336 C120.153823,100.868337 120.335154,101.197001 120.335154,101.582336 C120.335154,101.76367 120.289821,102.103667 120.199154,102.602336 C119.541818,105.843685 119.02049,109.470316 118.635154,113.482336 C121.445835,107.724974 124.154475,103.06702 126.761154,99.5083359 C126.965155,99.2363346 127.15782,99.1003359 127.339154,99.1003359 C127.543155,99.1003359 127.73582,99.2363346 127.917154,99.5083359 C128.347823,100.120339 128.563154,100.754999 128.563154,101.412336 C128.563154,101.979005 128.381823,102.624999 128.019154,103.350336 C126.727148,105.843682 125.446494,108.325657 124.177154,110.796336 C122.341145,114.377687 120.87916,117.403657 119.791154,119.874336 C119.587153,120.327672 119.303823,120.554336 118.941154,120.554336 C118.75982,120.554336 118.533156,120.49767 118.261154,120.384336 C117.513151,120.067001 116.782158,119.653338 116.068154,119.143336 C115.354151,118.633333 114.997154,117.879674 114.997154,116.882336 C114.974488,113.776987 115.257818,110.51302 115.847154,107.090336 Z" id="Outlines" fill="#6566CC" transform="translate(82.748154, 90.709465) rotate(-11.000000) translate(-82.748154, -90.709465) "></path>
        </g>
    </g>
</svg>