<?xml version="1.0" encoding="UTF-8" standalone="no"?>
<svg width="603px" height="1393px"  viewport="0 0 603 1393" version="1.1" xmlns="http://www.w3.org/2000/svg" xmlns:xlink="http://www.w3.org/1999/xlink">
<path id="1" stroke-linecap="round" stroke="#6566CC" stroke-width="0.9013421519040374" fill="none" moovel_neighborhood="Southeast" moovel_area="4364.34" moovel_cumulative_area="4364.34" moovel_length="952.04" d="M12.5,3.5 L57.5,3 L429.5,2 L587.5,3 L588,4 L588,5 L587.5,5.5 L578.5,6 L421.5,6 " />
<path id="2" stroke-linecap="round" stroke="#6566CC" stroke-width="0.9013421519040374" fill="none" moovel_neighborhood="Southeast" moovel_area="2182.59" moovel_cumulative_area="6546.93" moovel_length="476.11" d="M420,6.5 L48.5,6.5 " />
<path id="3" stroke-linecap="round" stroke="#6566CC" stroke-width="0.9013421519040374" fill="none" moovel_name="Battlestar Galactica: Cylon" moovel_neighborhood="Southwest" moovel_area="4446.10" moovel_cumulative_area="10993.03" moovel_length="969.87" d="M46,6.5 L11,7 L11,7.5 L11,8 L11,8.5 L11.5,9 L79,8.5 L238.5,8 L398,7.5 L556.5,7 L587.5,7.5 L588,8.5 L588,9.5 L588,10 L587.5,10.5 L587,11 L450.5,11 " />
<path id="4" stroke-linecap="round" stroke="#6566CC" stroke-width="0.9013421519040374" fill="none" moovel_name="Battlestar Galactica: Human" moovel_neighborhood="Southwest" moovel_area="3903.95" moovel_cumulative_area="14896.99" moovel_length="851.61" d="M448.5,12 L446,12.5 L294.5,12 L10,13 L10,14 L10.5,15 L11,15.5 L234,15.5 " />
<path id="5" stroke-linecap="round" stroke="#6566CC" stroke-width="0.9013421519040374" fill="none" moovel_neighborhood="Southeast" moovel_area="2416.91" moovel_cumulative_area="17313.90" moovel_length="527.22" d="M236,15 L428.5,14.5 L588,15 L588.5,15.5 L588.5,16.5 L588,17 L587.5,17.5 L530.5,17.5 " />
<path id="6" stroke-linecap="round" stroke="#6566CC" stroke-width="0.9013421519040374" fill="none" moovel_neighborhood="Southeast" moovel_area="2178.36" moovel_cumulative_area="19492.25" moovel_length="475.19" d="M529,18 L257,17.5 L158,17.5 " />
<path id="7" stroke-linecap="round" stroke="#6566CC" stroke-width="0.9013421519040374" fill="none" moovel_neighborhood="Southeast" moovel_area="2177.00" moovel_cumulative_area="21669.26" moovel_length="474.89" d="M156.5,18 L10.5,18.5 L10.5,19.5 L10.5,20 L11.5,20.5 L234,20.5 " />
<path id="8" stroke-linecap="round" stroke="#6566CC" stroke-width="0.9013421519040374" fill="none" moovel_neighborhood="Southeast" moovel_area="2188.22" moovel_cumulative_area="23857.47" moovel_length="477.34" d="M235.5,20.5 L588,21 L588.5,21.5 L588.5,22.5 L588,23 L587.5,23.5 L570.5,23.5 " />
<path id="9" stroke-linecap="round" stroke="#6566CC" stroke-width="0.9013421519040374" fill="none" moovel_neighborhood="Southeast" moovel_area="2219.86" moovel_cumulative_area="26077.33" moovel_length="484.24" d="M569,23.5 L333,23 L190.5,23 " />
<path id="10" stroke-linecap="round" stroke="#6566CC" stroke-width="0.9013421519040374" fill="none" moovel_neighborhood="Southeast" moovel_area="3374.04" moovel_cumulative_area="29451.38" moovel_length="736.01" d="M189,23.5 L72.5,23 L11,23.5 L10.5,24 L10,25 L10.5,26 L11.5,26.5 L93.5,27 L405.5,27 " />
<path id="11" stroke-linecap="round" stroke="#6566CC" stroke-width="0.9013421519040374" fill="none" moovel_neighborhood="Southeast" moovel_area="135.06" moovel_cumulative_area="29586.43" moovel_length="29.46" d="M408,26.5 L430,26.5 " />
<path id="12" stroke-linecap="round" stroke="#6566CC" stroke-width="0.9013421519040374" fill="none" moovel_neighborhood="Southeast" moovel_area="363.85" moovel_cumulative_area="29950.28" moovel_length="79.37" d="M431.5,26.5 L493,26.5 " />
<path id="13" stroke-linecap="round" stroke="#6566CC" stroke-width="0.9013421519040374" fill="none" moovel_neighborhood="Southeast" moovel_area="1485.75" moovel_cumulative_area="31436.03" moovel_length="324.10" d="M495.5,26.5 L588,27 L588.5,27.5 L588.5,28.5 L588,29 L587,29.5 L430.5,29.5 " />
<path id="14" stroke-linecap="round" stroke="#6566CC" stroke-width="0.9013421519040374" fill="none" moovel_neighborhood="Southeast" moovel_area="602.69" moovel_cumulative_area="32038.72" moovel_length="131.47" d="M429,29.5 L326.5,29.5 " />
<path id="15" stroke-linecap="round" stroke="#6566CC" stroke-width="0.9013421519040374" fill="none" moovel_neighborhood="Southeast" moovel_area="899.86" moovel_cumulative_area="32938.59" moovel_length="196.30" d="M325,29.5 L172.5,29.5 " />
<path id="16" stroke-linecap="round" stroke="#6566CC" stroke-width="0.9013421519040374" fill="none" moovel_neighborhood="Southeast" moovel_area="828.13" moovel_cumulative_area="33766.72" moovel_length="180.65" d="M170,29.5 L29.5,29.5 " />
<path id="17" stroke-linecap="round" stroke="#6566CC" stroke-width="0.9013421519040374" fill="none" moovel_neighborhood="Southeast" moovel_area="861.69" moovel_cumulative_area="34628.41" moovel_length="187.97" d="M28,29.5 L10.5,30 L10.5,31 L10.5,32 L11.5,32.5 L137.5,32.5 " />
<path id="18" stroke-linecap="round" stroke="#6566CC" stroke-width="0.9013421519040374" fill="none" moovel_neighborhood="Southeast" moovel_area="164.98" moovel_cumulative_area="34793.39" moovel_length="35.99" d="M139.5,32 L167,32 " />
<path id="19" stroke-linecap="round" stroke="#6566CC" stroke-width="0.9013421519040374" fill="none" moovel_neighborhood="Southeast" moovel_area="136.37" moovel_cumulative_area="34929.76" moovel_length="29.75" d="M168.5,32 L191,32 " />
<path id="20" stroke-linecap="round" stroke="#6566CC" stroke-width="0.9013421519040374" fill="none" moovel_neighborhood="Northeast" moovel_area="3834.03" moovel_cumulative_area="38763.78" moovel_length="836.36" d="M193,32 L588.5,33 L588.5,34 L588,34.5 L587.5,35 L331.5,35 " />
<path id="21" stroke-linecap="round" stroke="#6566CC" stroke-width="0.9013421519040374" fill="none" moovel_neighborhood="Northeast" moovel_area="5396.86" moovel_cumulative_area="44160.65" moovel_length="1177.27" d="M329.5,35 L208,34.5 L10.5,35 L10,35.5 L10.5,36.5 L11,37.5 L15,38 L235,38.5 L455.5,39 L588,39.5 L588.5,40 L588.5,40.5 L588.5,41 L587.5,41.5 L568.5,41.5 " />
<path id="22" stroke-linecap="round" stroke="#6566CC" stroke-width="0.9013421519040374" fill="none" moovel_neighborhood="Northeast" moovel_area="5598.10" moovel_cumulative_area="49758.75" moovel_length="1221.17" d="M567,41 L525.5,40.5 L332.5,40 L114,39.5 L10.5,40.5 L10,41 L10.5,42 L11,42.5 L12,43 L180,43.5 L407,43.5 " />
<path id="23" stroke-linecap="round" stroke="#6566CC" stroke-width="0.9013421519040374" fill="none" moovel_neighborhood="Southwest" moovel_area="1196.33" moovel_cumulative_area="50955.08" moovel_length="260.97" d="M409.5,44 L410,43.5 L583.5,44 L588.5,44.5 L588.5,45.5 L588.5,46 L587.5,46.5 L566,46.5 " />
<path id="24" stroke-linecap="round" stroke="#6566CC" stroke-width="0.9013421519040374" fill="none" moovel_neighborhood="Southwest" moovel_area="1529.80" moovel_cumulative_area="52484.88" moovel_length="333.71" d="M564,46.5 L503.5,47 L308,46.5 " />
<path id="25" stroke-linecap="round" stroke="#6566CC" stroke-width="0.9013421519040374" fill="none" moovel_neighborhood="Northeast" moovel_area="117.78" moovel_cumulative_area="52602.66" moovel_length="25.69" d="M306.5,46.5 L287,46.5 " />
<path id="26" stroke-linecap="round" stroke="#6566CC" stroke-width="0.9013421519040374" fill="none" moovel_neighborhood="Northeast" moovel_area="129.99" moovel_cumulative_area="52732.64" moovel_length="28.36" d="M285,46.5 L263.5,46.5 " />
<path id="27" stroke-linecap="round" stroke="#6566CC" stroke-width="0.9013421519040374" fill="none" moovel_neighborhood="Northeast" moovel_area="1800.34" moovel_cumulative_area="54532.98" moovel_length="392.73" d="M262,46.5 L11,47 L10.5,47.5 L10.5,48 L11,49 L15.5,49.5 L64,49.5 " />
<path id="28" stroke-linecap="round" stroke="#6566CC" stroke-width="0.9013421519040374" fill="none" moovel_neighborhood="Northeast" moovel_area="234.12" moovel_cumulative_area="54767.10" moovel_length="51.07" d="M66,49.5 L105,49.5 " />
<path id="29" stroke-linecap="round" stroke="#6566CC" stroke-width="0.9013421519040374" fill="none" moovel_neighborhood="Northeast" moovel_area="536.38" moovel_cumulative_area="55303.47" moovel_length="117.00" d="M107,49.5 L197.5,49.5 " />
<path id="30" stroke-linecap="round" stroke="#6566CC" stroke-width="0.9013421519040374" fill="none" moovel_neighborhood="Northeast" moovel_area="1426.74" moovel_cumulative_area="56730.21" moovel_length="311.23" d="M199.5,49.5 L442.5,49.5 " />
<path id="31" stroke-linecap="round" stroke="#6566CC" stroke-width="0.9013421519040374" fill="none" moovel_neighborhood="Northeast" moovel_area="148.87" moovel_cumulative_area="56879.08" moovel_length="32.47" d="M444,49.5 L468.5,49.5 " />
<path id="32" stroke-linecap="round" stroke="#6566CC" stroke-width="0.9013421519040374" fill="none" moovel_neighborhood="Northeast" moovel_area="233.83" moovel_cumulative_area="57112.92" moovel_length="51.01" d="M471,49.5 L510,49.5 " />
<path id="33" stroke-linecap="round" stroke="#6566CC" stroke-width="0.9013421519040374" fill="none" moovel_neighborhood="Northeast" moovel_area="635.41" moovel_cumulative_area="57748.33" moovel_length="138.61" d="M512,49.5 L588,50 L588.5,50.5 L588.5,51.5 L588,52 L587.5,52.5 L559,52.5 " />
<path id="34" stroke-linecap="round" stroke="#6566CC" stroke-width="0.9013421519040374" fill="none" moovel_neighborhood="Northeast" moovel_area="177.71" moovel_cumulative_area="57926.04" moovel_length="38.77" d="M557,52.5 L527.5,52.5 " />
<path id="35" stroke-linecap="round" stroke="#6566CC" stroke-width="0.9013421519040374" fill="none" moovel_neighborhood="Northeast" moovel_area="543.66" moovel_cumulative_area="58469.70" moovel_length="118.59" d="M526.5,52.5 L434,52.5 " />
<path id="36" stroke-linecap="round" stroke="#6566CC" stroke-width="0.9013421519040374" fill="none" moovel_neighborhood="Northeast" moovel_area="156.31" moovel_cumulative_area="58626.00" moovel_length="34.10" d="M432,52.5 L406,52.5 " />
<path id="37" stroke-linecap="round" stroke="#6566CC" stroke-width="0.9013421519040374" fill="none" moovel_neighborhood="Northeast" moovel_area="176.79" moovel_cumulative_area="58802.79" moovel_length="38.56" d="M404.5,52.5 L375,52.5 " />
<path id="38" stroke-linecap="round" stroke="#6566CC" stroke-width="0.9013421519040374" fill="none" moovel_neighborhood="Northeast" moovel_area="187.25" moovel_cumulative_area="58990.05" moovel_length="40.85" d="M373.5,52.5 L342.5,52.5 " />
<path id="39" stroke-linecap="round" stroke="#6566CC" stroke-width="0.9013421519040374" fill="none" moovel_neighborhood="Northeast" moovel_area="580.46" moovel_cumulative_area="59570.50" moovel_length="126.62" d="M340.5,52.5 L242,52.5 " />
<path id="40" stroke-linecap="round" stroke="#6566CC" stroke-width="0.9013421519040374" fill="none" moovel_neighborhood="Northeast" moovel_area="682.57" moovel_cumulative_area="60253.07" moovel_length="148.90" d="M241,52.5 L125,52.5 " />
<path id="41" stroke-linecap="round" stroke="#6566CC" stroke-width="0.9013421519040374" fill="none" moovel_neighborhood="Northeast" moovel_area="405.24" moovel_cumulative_area="60658.31" moovel_length="88.40" d="M123,52.5 L54.5,52.5 " />
<path id="42" stroke-linecap="round" stroke="#6566CC" stroke-width="0.9013421519040374" fill="none" moovel_neighborhood="Northeast" moovel_area="125.95" moovel_cumulative_area="60784.26" moovel_length="27.47" d="M52.5,52.5 L31.5,52.5 " />
<path id="43" stroke-linecap="round" stroke="#6566CC" stroke-width="0.9013421519040374" fill="none" moovel_neighborhood="Northeast" moovel_area="609.82" moovel_cumulative_area="61394.08" moovel_length="133.03" d="M30,52.5 L11,53 L10.5,53.5 L10.5,54.5 L11,55 L11.5,55.5 L92.5,55.5 " />
<path id="44" stroke-linecap="round" stroke="#6566CC" stroke-width="0.9013421519040374" fill="none" moovel_neighborhood="Northeast" moovel_area="119.69" moovel_cumulative_area="61513.78" moovel_length="26.11" d="M94,55.5 L114,55.5 " />
<path id="45" stroke-linecap="round" stroke="#6566CC" stroke-width="0.9013421519040374" fill="none" moovel_neighborhood="Northeast" moovel_area="1715.60" moovel_cumulative_area="63229.38" moovel_length="374.24" d="M116.5,55.5 L125.5,55 L408.5,55 " />
<path id="46" stroke-linecap="round" stroke="#6566CC" stroke-width="0.9013421519040374" fill="none" moovel_neighborhood="Northeast" moovel_area="802.56" moovel_cumulative_area="64031.94" moovel_length="175.07" d="M410,55.5 L500.5,55 L546.5,55 " />
<path id="47" stroke-linecap="round" stroke="#6566CC" stroke-width="0.9013421519040374" fill="none" moovel_neighborhood="Northeast" moovel_area="525.73" moovel_cumulative_area="64557.67" moovel_length="114.68" d="M548,55.5 L588.5,56 L588.5,57 L588.5,57.5 L587.5,58 L585.5,58.5 L541.5,58 " />
<path id="48" stroke-linecap="round" stroke="#6566CC" stroke-width="0.9013421519040374" fill="none" moovel_neighborhood="Northeast" moovel_area="231.66" moovel_cumulative_area="64789.33" moovel_length="50.54" d="M540.5,58 L501.5,58 " />
<path id="49" stroke-linecap="round" stroke="#6566CC" stroke-width="0.9013421519040374" fill="none" moovel_neighborhood="Northeast" moovel_area="1903.71" moovel_cumulative_area="66693.04" moovel_length="415.27" d="M499.5,58 L175,58 " />
<path id="50" stroke-linecap="round" stroke="#6566CC" stroke-width="0.9013421519040374" fill="none" moovel_neighborhood="Northeast" moovel_area="725.49" moovel_cumulative_area="67418.53" moovel_length="158.26" d="M173,58 L49.5,58 " />
<path id="51" stroke-linecap="round" stroke="#6566CC" stroke-width="0.9013421519040374" fill="none" moovel_neighborhood="Northeast" moovel_area="523.64" moovel_cumulative_area="67942.17" moovel_length="114.23" d="M48,58 L11,58.5 L10.5,59 L10.5,60 L11,60.5 L11.5,61 L60,61 " />
<path id="52" stroke-linecap="round" stroke="#6566CC" stroke-width="0.9013421519040374" fill="none" moovel_neighborhood="Northeast" moovel_area="1727.58" moovel_cumulative_area="69669.75" moovel_length="376.85" d="M61.5,61 L72.5,61.5 L355.5,61.5 " />
<path id="53" stroke-linecap="round" stroke="#6566CC" stroke-width="0.9013421519040374" fill="none" moovel_neighborhood="Northeast" moovel_area="147.30" moovel_cumulative_area="69817.05" moovel_length="32.13" d="M356.5,61 L381,61 " />
<path id="54" stroke-linecap="round" stroke="#6566CC" stroke-width="0.9013421519040374" fill="none" moovel_neighborhood="Northeast" moovel_area="2413.05" moovel_cumulative_area="72230.10" moovel_length="526.38" d="M383,61 L588.5,61.5 L588.5,62.5 L588.5,63 L588,63.5 L587,64 L384.5,64 " />
<path id="55" stroke-linecap="round" stroke="#6566CC" stroke-width="0.9013421519040374" fill="none" moovel_neighborhood="Northeast" moovel_area="144.26" moovel_cumulative_area="72374.37" moovel_length="31.47" d="M382.5,64 L358.5,64 " />
<path id="56" stroke-linecap="round" stroke="#6566CC" stroke-width="0.9013421519040374" fill="none" moovel_neighborhood="Northeast" moovel_area="448.43" moovel_cumulative_area="72822.80" moovel_length="97.82" d="M357,64 L281.5,64 " />
<path id="57" stroke-linecap="round" stroke="#6566CC" stroke-width="0.9013421519040374" fill="none" moovel_neighborhood="Northeast" moovel_area="1614.59" moovel_cumulative_area="74437.39" moovel_length="352.21" d="M279.5,64 L96,63.5 L11.5,64 L10.5,65 L10.5,65.5 L11,66.5 L15,66.5 " />
<path id="58" stroke-linecap="round" stroke="#6566CC" stroke-width="0.9013421519040374" fill="none" moovel_neighborhood="Northeast" moovel_area="541.18" moovel_cumulative_area="74978.57" moovel_length="118.05" d="M17,67 L109,67 " />
<path id="59" stroke-linecap="round" stroke="#6566CC" stroke-width="0.9013421519040374" fill="none" moovel_neighborhood="Northeast" moovel_area="176.71" moovel_cumulative_area="75155.28" moovel_length="38.55" d="M110.5,67 L140,67 " />
<path id="60" stroke-linecap="round" stroke="#6566CC" stroke-width="0.9013421519040374" fill="none" moovel_name="Bukit Panjang LRT" moovel_neighborhood="Southwest" moovel_area="121.77" moovel_cumulative_area="75277.05" moovel_length="26.56" d="M142,67 L162,67 " />
<path id="61" stroke-linecap="round" stroke="#6566CC" stroke-width="0.9013421519040374" fill="none" moovel_name="Bukit Panjang LRT" moovel_neighborhood="Southwest" moovel_area="94.58" moovel_cumulative_area="75371.63" moovel_length="20.63" d="M163.5,67 L179,67 " />
<path id="62" stroke-linecap="round" stroke="#6566CC" stroke-width="0.9013421519040374" fill="none" moovel_neighborhood="Southwest" moovel_area="52.75" moovel_cumulative_area="75424.38" moovel_length="11.51" d="M181,67 L189.5,67 " />
<path id="63" stroke-linecap="round" stroke="#6566CC" stroke-width="0.9013421519040374" fill="none" moovel_name="MRT East West Line (EW)" moovel_neighborhood="Southwest" moovel_area="36082.30" moovel_cumulative_area="111506.68" moovel_length="6938.42" d="M191.5,67 L302.5,67.5 L523,68 L588.5,68.5 L589,69 L588.5,69.5 L588,70 L479,69.5 L258.5,69 L38,68.5 L11.5,69 L10.5,69.5 L10,70.5 L10,71.5 L10.5,72 L11.5,72.5 L82,73 L302,73.5 L522.5,74 L589,74.5 L589,75 L588.5,75.5 L399,75 L194,74.5 L10,75 L10,76 L10,77.5 L11,78 L12,78.5 L172,79 L351.5,79.5 L530.5,80 L589,80.5 L589,81 L588.5,81.5 L449.5,81 L270.5,80.5 L91,80 L11,80.5 L10,81 L10,82 L10,83 L11,84 L68,84.5 L247.5,85 L426.5,85.5 L588,86 L589,86.5 L589,87 L587.5,87.5 L485.5,87 L306.5,86.5 L127.5,86 L10,87 L10,88 L10.5,89 L11,89.5 L58,90 L233.5,90.5 L402.5,91 L571,91.5 L588.5,92.5 L588.5,93 L588,93.5 L454,93 L285,92.5 L195.5,92.5 " />
<path id="64" stroke-linecap="round" stroke="#6566CC" stroke-width="0.9013421519040374" fill="none" moovel_name="MRT East West Line (EW)" moovel_neighborhood="Southwest" moovel_area="35958.31" moovel_cumulative_area="147464.99" moovel_length="6914.58" d="M194,92.5 L20.5,92 L11,92.5 L10.5,93.5 L10,94 L10.5,95 L11.5,95.5 L25.5,96 L205,96.5 L384,97 L563,97.5 L589,98 L589,98.5 L588.5,99 L435,98.5 L275.5,98 L116,97.5 L10.5,98.5 L10,99.5 L10,100.5 L11,101 L12,101.5 L131.5,102 L282.5,102.5 L433.5,103 L584.5,103.5 L589,104 L589,104.5 L588.5,105 L497.5,104.5 L346.5,104 L195.5,103.5 L44.5,103 L10.5,103.5 L10,104.5 L10,105.5 L10.5,106.5 L11.5,107 L40.5,107.5 L199,108 L359,108.5 L517.5,109 L589,109.5 L589,110 L588.5,110.5 L452.5,110 L293,109.5 L134.5,109 L10.5,109.5 L10,110.5 L10,111.5 L10.5,112.5 L11.5,113 L148,113.5 L316,114 L484.5,114.5 L588.5,115 L589,115.5 L588.5,116 L588,116.5 L497,116 L337.5,115.5 L178.5,115 L26,114.5 L11.5,115 L10.5,115.5 L10,116 L10,117 L11,118 L28,118.5 L171.5,119 L314.5,119.5 L457.5,120 L588,120.5 L588.5,121 L588.5,122 L588,122.5 L587.5,123 L580.5,123 " />
<path id="65" stroke-linecap="round" stroke="#6566CC" stroke-width="0.9013421519040374" fill="none" moovel_name="KTM" moovel_neighborhood="Northwest" moovel_area="3602.31" moovel_cumulative_area="151067.30" moovel_length="692.70" d="M578.5,121.5 L367.5,121 L37,121 " />
<path id="66" stroke-linecap="round" stroke="#6566CC" stroke-width="0.9013421519040374" fill="none" moovel_neighborhood="Central" moovel_area="2032.34" moovel_cumulative_area="153099.64" moovel_length="390.81" d="M35,121.5 L32,122 L10.5,122.5 L10.5,123.5 L11,124 L11.5,124.5 L125.5,124 L164.5,124.5 L197,124.5 " />
<path id="67" stroke-linecap="round" stroke="#6566CC" stroke-width="0.9013421519040374" fill="none" moovel_name="MRT East West Line (EW) Changi Airport Line" moovel_neighborhood="Southeast" moovel_area="19094.97" moovel_cumulative_area="172194.61" moovel_length="4389.33" d="M199,124.5 L325,124 L588,124.5 L588.5,125.5 L588,126.5 L587.5,127 L587,127.5 L59.5,128 L11,128.5 L10.5,129 L11,129.5 L11.5,130 L12,130.5 L51,130 L418,129.5 L588,130 L588,131 L588,132 L588,132.5 L587,133 L439.5,133.5 L121,134 L11,134.5 L11,135 L11,135.5 L11,136 L219.5,135.5 L588,136.5 L588,137.5 L588,138 L587.5,139 L383,139.5 L11.5,140 L10.5,140.5 L11,141.5 L11,142 L155,142 " />
<path id="68" stroke-linecap="round" stroke="#6566CC" stroke-width="0.9013421519040374" fill="none" moovel_name="North South Line (NS)" moovel_neighborhood="Central" moovel_area="29359.91" moovel_cumulative_area="201554.52" moovel_length="6748.91" d="M157,141.5 L312,141 L490,140.5 L588,141.5 L588,142.5 L588,143.5 L587.5,144 L556,144.5 L377,145 L198,145.5 L18.5,146 L11,146.5 L11,147 L11,147.5 L153.5,147 L313,146.5 L474.5,146 L588,146.5 L588,147.5 L588,148.5 L587.5,149.5 L560.5,150 L401.5,150.5 L242,151 L83,151.5 L11,152 L11,152.5 L11,153 L11.5,153.5 L158.5,153 L318,152.5 L486,152 L588,152.5 L588.5,153.5 L588,154.5 L587.5,155 L587,155.5 L412,156 L411,155.5 L369,156 L216,156.5 L65,157 L11,157.5 L10.5,158 L10.5,159 L11,160 L154,159.5 L297,159 L435,158.5 L571.5,158 L588,158.5 L588.5,159 L589,159.5 L588.5,160 L588,160.5 L548.5,161 L398.5,161.5 L247.5,162 L99.5,162.5 L10.5,163.5 L10.5,164 L10.5,165 L11,165.5 L81.5,165 L232.5,164.5 L383.5,164 L537.5,163.5 L588,164 L588.5,164.5 L588.5,165.5 L588,166 L587.5,166.5 L585.5,167 L426,167.5 L378,167.5 " />
<path id="69" stroke-linecap="round" stroke="#6566CC" stroke-width="0.9013421519040374" fill="none" moovel_name="North South Line (NS)" moovel_neighborhood="Northwest" moovel_area="83.95" moovel_cumulative_area="201638.47" moovel_length="19.30" d="M376.5,167.5 L362,167.5 " />
<path id="70" stroke-linecap="round" stroke="#6566CC" stroke-width="0.9013421519040374" fill="none" moovel_name="North South Line (NS)" moovel_neighborhood="Northwest" moovel_area="1147.07" moovel_cumulative_area="202785.54" moovel_length="263.67" d="M360.5,168 L155,168 " />
<path id="71" stroke-linecap="round" stroke="#6566CC" stroke-width="0.9013421519040374" fill="none" moovel_name="North South Line (NS)" moovel_neighborhood="Northwest" moovel_area="784.90" moovel_cumulative_area="203570.43" moovel_length="180.42" d="M152.5,167.5 L12.5,167.5 " />
<path id="72" stroke-linecap="round" stroke="#6566CC" stroke-width="0.9013421519040374" fill="none" moovel_name="North South Line (NS)" moovel_neighborhood="Northwest" moovel_area="717.08" moovel_cumulative_area="204287.52" moovel_length="164.83" d="M11,168 L10.5,169 L10.5,169.5 L11,170.5 L136.5,170.5 " />
<path id="73" stroke-linecap="round" stroke="#6566CC" stroke-width="0.9013421519040374" fill="none" moovel_name="North South Line (NS)" moovel_neighborhood="Southwest" moovel_area="133.30" moovel_cumulative_area="204420.82" moovel_length="30.64" d="M138.5,170.5 L162,170.5 " />
<path id="74" stroke-linecap="round" stroke="#6566CC" stroke-width="0.9013421519040374" fill="none" moovel_name="North South Line (NS)" moovel_neighborhood="Southwest" moovel_area="12772.63" moovel_cumulative_area="217193.44" moovel_length="2936.02" d="M163,170.5 L211,171 L588,171.5 L588.5,172 L588.5,173 L588,173.5 L587.5,174 L322.5,174.5 L11,175 L10.5,175.5 L11,176 L11.5,176.5 L12,177 L23.5,176.5 L588,177.5 L588,178 L588,179 L587.5,179.5 L542.5,180 L65,180.5 L11,181 L10.5,181.5 L10.5,182 L11,182.5 L12,183 L126,182.5 L137.5,183 L141.5,183 " />
<path id="75" stroke-linecap="round" stroke="#6566CC" stroke-width="0.9013421519040374" fill="none" moovel_name="North South Line (NS)" moovel_neighborhood="Southwest" moovel_area="597.02" moovel_cumulative_area="217790.46" moovel_length="137.24" d="M143.5,182 L181.5,182.5 L250,182 " />
<path id="76" stroke-linecap="round" stroke="#6566CC" stroke-width="0.9013421519040374" fill="none" moovel_name="MRT East West Line (EW)" moovel_neighborhood="Southeast" moovel_area="22813.84" moovel_cumulative_area="240604.29" moovel_length="5244.18" d="M252.5,182 L430.5,181.5 L588,182 L588.5,183 L588,183.5 L588,184.5 L587.5,185 L359,185.5 L120.5,186 L11,186.5 L11,187 L11,187.5 L11.5,188 L12,188.5 L27.5,188 L248.5,187.5 L469,187 L588,187.5 L588,188 L588,189 L588,190 L587.5,190.5 L449,191 L244.5,191.5 L40,192 L11,192.5 L11,193.5 L11,194 L204.5,193.5 L425,193 L588,193.5 L588.5,194.5 L588,195.5 L587.5,196 L578.5,196.5 L340,197 L95,197.5 L11,198 L10.5,198.5 L11,199 L11,199.5 L12,200 L108,199.5 L322,199 L520,198.5 L588,199 L588.5,200 L588.5,200.5 L588,201.5 L576.5,202 L366.5,202.5 L301,202.5 " />
<path id="77" stroke-linecap="round" stroke="#6566CC" stroke-width="0.9013421519040374" fill="none" moovel_name="MRT East West Line (EW)" moovel_neighborhood="Southeast" moovel_area="2485.60" moovel_cumulative_area="243089.90" moovel_length="571.36" d="M299,202.5 L265,202 L10.5,203 L10.5,204 L11,204.5 L11.5,205 L166.5,205 " />
<path id="78" stroke-linecap="round" stroke="#6566CC" stroke-width="0.9013421519040374" fill="none" moovel_name="North East Line (NE)" moovel_neighborhood="Northeast" moovel_area="83201.18" moovel_cumulative_area="326291.08" moovel_length="19125.30" d="M168.5,205.5 L404.5,206 L588,206.5 L588.5,207 L589,207.5 L588.5,208 L587,208.5 L552.5,208 L234,207.5 L10.5,208 L10,209 L10.5,210 L11,210.5 L12,211 L169.5,211.5 L488.5,212 L588.5,212.5 L589,213 L588.5,213.5 L588,214 L404,213.5 L46,213 L11.5,213.5 L10.5,214 L10,214.5 L10,215.5 L10.5,216.5 L11.5,217 L306,217.5 L588.5,218 L589,218.5 L588.5,219 L588,219.5 L317,219 L10.5,219.5 L10,220.5 L10,221.5 L11,222.5 L69,223 L474.5,223.5 L588.5,224 L589,224.5 L588.5,225 L588,225.5 L221.5,225 L10.5,225.5 L10,226.5 L10.5,227.5 L11,228 L11.5,228.5 L341.5,229 L588.5,229.5 L589,230 L588.5,231 L36.5,230.5 L11.5,231 L10.5,231.5 L10,232.5 L10,233 L11,234 L11.5,234.5 L588,235 L589,236 L588.5,236.5 L587,237 L503.5,236.5 L11,237 L10,237.5 L10,238.5 L10.5,239.5 L11.5,240 L203,240.5 L588.5,241 L589,241.5 L589,242 L588.5,242.5 L234.5,242 L10.5,242.5 L10,243.5 L10,244.5 L10.5,245 L11.5,245.5 L49,246 L588,246.5 L588.5,247 L589,247.5 L588.5,248 L587.5,248.5 L279,248 L11,248.5 L10.5,249 L10,250 L10.5,250.5 L11,251.5 L588,252 L589,253 L588.5,253.5 L588,254 L124.5,253.5 L11,254 L10.5,254.5 L10,255.5 L10.5,256.5 L11,257 L12,257.5 L588.5,258 L589,258.5 L588.5,259 L588,259.5 L10,260.5 L10,261.5 L10.5,262.5 L11,263 L260,263.5 L588.5,264 L589,264.5 L588.5,265 L588,265.5 L153.5,265 L11.5,265.5 L10.5,266 L10,266.5 L10,267.5 L11,268.5 L103.5,269 L588.5,269.5 L588.5,270.5 L588.5,271 L588,271.5 L334.5,271 L11,271.5 L10.5,272 L10.5,273 L10.5,273.5 L11.5,274 L100,274.5 L588,275 L588.5,275.5 L588.5,276 L588.5,276.5 L587.5,277 L587,277.5 L512,277 L10.5,277.5 L10.5,278 L10.5,279 L11,279.5 L12,280 L63.5,280 " />
<path id="79" stroke-linecap="round" stroke="#6566CC" stroke-width="0.9013421519040374" fill="none" moovel_name="North South Line (NS)" moovel_neighborhood="Central" moovel_area="1799.02" moovel_cumulative_area="328090.09" moovel_length="413.54" d="M66,280 L388.5,280 " />
<path id="80" stroke-linecap="round" stroke="#6566CC" stroke-width="0.9013421519040374" fill="none" moovel_name="MRT East West Line (EW)" moovel_neighborhood="Southeast" moovel_area="384.69" moovel_cumulative_area="328474.78" moovel_length="88.43" d="M390,280 L458.5,280 " />
<path id="81" stroke-linecap="round" stroke="#6566CC" stroke-width="0.9013421519040374" fill="none" moovel_name="MRT East West Line (EW)" moovel_neighborhood="Central" moovel_area="18737.03" moovel_cumulative_area="347211.81" moovel_length="4307.05" d="M461,280 L588,280.5 L588.5,281.5 L588,282.5 L587.5,283 L10.5,283.5 L10.5,284.5 L10.5,285.5 L11,286 L12,286.5 L106.5,286 L587.5,286.5 L588.5,287 L588.5,288 L588.5,288.5 L10,289.5 L10,290.5 L10.5,291.5 L11.5,292 L588.5,292.5 L589,293 L589,293.5 L588.5,294 L587,294.5 L552,294 L11,294.5 L10,295 L10,296 L10.5,297 L11.5,297.5 L352.5,297.5 " />
<path id="82" stroke-linecap="round" stroke="#6566CC" stroke-width="0.9013421519040374" fill="none" moovel_name="MRT East West Line (EW)" moovel_neighborhood="Southeast" moovel_area="41640.16" moovel_cumulative_area="388851.97" moovel_length="9571.75" d="M354,297.5 L454,298 L588.5,298.5 L589,299 L588.5,300 L587,300.5 L523,300 L283.5,299.5 L45,299 L10.5,299.5 L10,300.5 L10,301.5 L10.5,302.5 L11.5,303 L169.5,303.5 L389.5,304 L588,304.5 L589,305 L589,305.5 L588,306 L446,305.5 L226,305 L10,306 L10,307 L10.5,308 L11,308.5 L12,309 L203.5,309.5 L408.5,310 L588,310.5 L589,311 L588.5,311.5 L588,312 L545.5,311.5 L341,311 L136.5,310.5 L10.5,311 L10,312 L10,313 L10.5,314 L11.5,314.5 L68.5,315 L260,315.5 L450.5,316 L588.5,316.5 L589,317 L588.5,317.5 L384,317 L179.5,316.5 L10.5,317 L10,318 L10,319 L10.5,320 L11.5,320.5 L186.5,321 L406.5,321.5 L588,322 L589,322.5 L588.5,323 L588,323.5 L445,323 L224.5,322.5 L10,323.5 L10,324.5 L10.5,325.5 L11.5,326 L180,326.5 L401,327 L588,327.5 L588.5,328 L588.5,328.5 L588.5,329 L587.5,329.5 L466.5,329 L246.5,328.5 L25.5,328 L11,328.5 L10.5,329 L10,330 L10.5,331 L11,331.5 L86.5,332 L347,332.5 L587.5,333 L588.5,333.5 L588.5,334.5 L588,335 L376.5,334.5 L290.5,334.5 " />
<path id="83" stroke-linecap="round" stroke="#6566CC" stroke-width="0.9013421519040374" fill="none" moovel_name="MRT East West Line (EW)" moovel_neighborhood="Central" moovel_area="47542.32" moovel_cumulative_area="436394.29" moovel_length="10928.47" d="M288.5,335 L222.5,334.5 L10.5,335 L10,335.5 L10.5,336.5 L11,337.5 L25.5,338 L285.5,338.5 L546.5,339 L588.5,339.5 L588.5,340.5 L588,341 L384,340.5 L138.5,340 L11,340.5 L10.5,341 L10.5,342 L11,342.5 L11.5,343 L172,343.5 L420.5,344 L588,344.5 L588.5,345.5 L588.5,346 L588,347 L587,347.5 L566.5,347 L426.5,346.5 L235.5,346 L44,345.5 L11,346 L10.5,346.5 L10,347 L10.5,348 L11,349 L46,349.5 L237,350 L428,350.5 L588,351 L589,351.5 L588.5,352 L588,352.5 L587,353 L580,352.5 L389.5,352 L198.5,351.5 L10.5,352 L10,353 L10.5,354 L11,354.5 L12,355 L173.5,355.5 L352,356 L521,356.5 L588.5,357 L588.5,357.5 L588.5,358.5 L587,359 L557,358.5 L388.5,358 L220.5,357.5 L51.5,357 L11,357.5 L10.5,358 L10,359 L10.5,359.5 L11,360.5 L96.5,361 L255.5,361.5 L444,362 L587.5,362.5 L588,363.5 L588,364.5 L588,365 L587,365.5 L489.5,365 L338.5,364.5 L188.5,364 L37,363.5 L11,364 L10.5,364.5 L10.5,365.5 L11,366 L52.5,366.5 L211.5,367 L366.5,367.5 L502.5,368 L588,368.5 L588.5,369 L588.5,370 L588,370.5 L463,370 L326.5,369.5 L194,369 L64.5,368.5 L10.5,369 L10,370 L10,370.5 L10.5,371.5 L11.5,372 L86.5,372.5 L223,373 L359.5,373.5 L496,374 L588,374.5 L588.5,375 L588.5,375.5 L588,376 L587,376.5 L541,376 L405,375.5 L269,375 L132.5,374.5 L10.5,375.5 L10,376 L10.5,377 L11,377.5 L68,378 L166.5,378 " />
<path id="84" stroke-linecap="round" stroke="#6566CC" stroke-width="0.9013421519040374" fill="none" moovel_name="Circle Line MRT" moovel_neighborhood="Central" moovel_area="43395.04" moovel_cumulative_area="479789.33" moovel_length="9975.14" d="M168.5,378 L373,377.5 L588,378 L588,378.5 L588,379.5 L588,380.5 L586.5,381 L283,381.5 L11,382 L11,382.5 L11,383 L11,383.5 L11.5,384 L96,383.5 L382.5,383 L588,383.5 L588,384.5 L588,385.5 L588,386 L587.5,386.5 L473.5,387 L213.5,387.5 L11.5,388 L11,388.5 L11,389 L11,389.5 L11.5,390 L44,389.5 L304.5,389 L565.5,388.5 L588,389 L588,389.5 L588.5,390.5 L588,391.5 L587.5,392 L513.5,392.5 L310,393 L119,393.5 L11,394 L11,394.5 L10.5,395 L11,395.5 L11.5,396 L242.5,395.5 L499.5,395 L588.5,395.5 L589,396 L588.5,396.5 L588,397 L587.5,397.5 L444.5,398 L192,398.5 L11.5,399 L10.5,399.5 L10.5,400 L10.5,401 L11,401.5 L12,402 L56.5,401.5 L193.5,401 L391,400.5 L588,401 L588.5,402 L588,403 L587.5,403.5 L545,404 L171,404.5 L10.5,405 L10,406 L10.5,407 L11,407.5 L12,408 L181,407.5 L589,408.5 L589,409 L587,409.5 L289,410 L10.5,410.5 L10,411.5 L10,412.5 L10.5,413.5 L11.5,414 L95.5,413.5 L504.5,413 L588.5,413.5 L589,414 L589,414.5 L588.5,415 L587.5,415.5 L318.5,416 L160.5,416 " />
<path id="85" stroke-linecap="round" stroke="#6566CC" stroke-width="0.9013421519040374" fill="none" moovel_name="Circle Line MRT" moovel_neighborhood="Southeast" moovel_area="24984.21" moovel_cumulative_area="504773.54" moovel_length="5743.07" d="M159,415.5 L157.5,416 L11,416.5 L11,417 L11,417.5 L11,418 L11.5,418.5 L110.5,418 L371.5,417.5 L588,418.5 L588,419.5 L588,420.5 L587.5,421 L488.5,421.5 L170,422 L11,422.5 L11,423 L11,423.5 L11.5,424 L222.5,423.5 L509.5,423 L588,423.5 L588,424.5 L588,425.5 L588,426.5 L586.5,427 L307,427.5 L20.5,428 L11,428.5 L11,429 L11.5,429.5 L12,430 L51,429.5 L408.5,429 L588,430 L588,431 L588,432 L587.5,432.5 L587,433 L233,433.5 L11,434 L11,434.5 L11,435 L11.5,435.5 L341,435 L588.5,436 L588.5,437 L588,437.5 L587.5,438 L541.5,438.5 L303,438.5 " />
<path id="86" stroke-linecap="round" stroke="#6566CC" stroke-width="0.9013421519040374" fill="none" moovel_name="Circle Line MRT" moovel_neighborhood="Central" moovel_area="19245.26" moovel_cumulative_area="524018.80" moovel_length="4423.87" d="M300.5,438.5 L74,438 L10.5,438.5 L10,439.5 L10.5,440.5 L11,441 L11.5,441.5 L123,442 L313.5,442.5 L505,443 L588.5,443.5 L589,444 L588.5,444.5 L587.5,445 L474.5,444.5 L296,444 L116.5,443.5 L10.5,444.5 L10,445 L10,446 L11,447 L12.5,447.5 L217.5,448 L422,448.5 L588.5,449 L588.5,449.5 L588.5,450.5 L588,451 L483.5,450.5 L304,450 L128.5,449.5 L10.5,450.5 L10,451 L10.5,452 L11.5,452.5 L76,453 L227,453.5 L378,454 L528.5,454.5 L588.5,455 L588.5,455.5 L588.5,456.5 L588,457 L512,456.5 L329,456 L317.5,456 " />
<path id="87" stroke-linecap="round" stroke="#6566CC" stroke-width="0.9013421519040374" fill="none" moovel_name="North South Line (NS)" moovel_neighborhood="Central" moovel_area="2146.75" moovel_cumulative_area="526165.56" moovel_length="493.47" d="M316,456 L10.5,457 L10.5,457.5 L11,458.5 L12,459 L89,459 " />
<path id="88" stroke-linecap="round" stroke="#6566CC" stroke-width="0.9013421519040374" fill="none" moovel_name="North South Line (NS)" moovel_neighborhood="Central" moovel_area="341.71" moovel_cumulative_area="526507.27" moovel_length="78.55" d="M91,459 L151.5,459 " />
<path id="89" stroke-linecap="round" stroke="#6566CC" stroke-width="0.9013421519040374" fill="none" moovel_name="North South Line (NS)" moovel_neighborhood="Central" moovel_area="3705.20" moovel_cumulative_area="530212.47" moovel_length="851.71" d="M154,459 L341,459.5 L588,460 L588.5,460.5 L588.5,461 L588.5,461.5 L587.5,462 L359,462 " />
<path id="90" stroke-linecap="round" stroke="#6566CC" stroke-width="0.9013421519040374" fill="none" moovel_name="North South Line (NS)" moovel_neighborhood="Central" moovel_area="53944.68" moovel_cumulative_area="584157.16" moovel_length="12400.17" d="M357,462 L164,462.5 L11.5,463 L11,464 L11,464.5 L11.5,465 L72,464.5 L332.5,464 L588,464.5 L588,465.5 L588,466.5 L587.5,467 L587,467.5 L377,468 L59.5,468.5 L11,469 L11,469.5 L11,470 L273.5,469.5 L559.5,469 L587.5,469.5 L588,470 L588,471 L588,472 L587.5,472.5 L587.5,473 L560.5,473.5 L274,474 L11.5,474.5 L11,475 L11.5,475.5 L11.5,476 L81.5,475.5 L320.5,475 L559.5,474.5 L587.5,475 L588,475.5 L588,476.5 L588,477.5 L587.5,478.5 L587,479 L417.5,479.5 L196.5,480 L11.5,480.5 L11,481 L11.5,481.5 L191.5,481 L412,480.5 L587.5,481.5 L588,482.5 L588,483.5 L587.5,484.5 L560,485 L321,485.5 L82.5,486 L11.5,486.5 L11.5,487 L12.5,487.5 L20,487 L240.5,486.5 L461,486 L587.5,486.5 L588,487 L588,488.5 L587.5,489.5 L587.5,490 L587,490.5 L414.5,491 L194,491.5 L11.5,492 L11.5,492.5 L11.5,493 L152,492.5 L372.5,492 L588,493 L588,494 L588,495 L587.5,496 L519,496.5 L314,497 L109.5,497.5 L11.5,498 L11.5,498.5 L11.5,499 L117.5,498.5 L322.5,498 L526.5,497.5 L587.5,498 L588,498.5 L588,500 L588,501 L587.5,501.5 L587,502 L396.5,502.5 L205.5,503 L14,503.5 L11,504 L11,504.5 L11.5,505 L107,504.5 L276,504 L443.5,503.5 L588,504 L588,505 L588,506 L588,506.5 L587.5,507 L530.5,507.5 L372,508 L212,508.5 L53,509 L11,510 L11,510.5 L11,511 L12,511.5 L48.5,511 L91,511 " />
<path id="91" stroke-linecap="round" stroke="#6566CC" stroke-width="0.9013421519040374" fill="none" moovel_name="North South Line (NS)" moovel_neighborhood="Southwest" moovel_area="2625.66" moovel_cumulative_area="586782.81" moovel_length="603.55" d="M92.5,510.5 L343.5,510 L564,510 " />
<path id="92" stroke-linecap="round" stroke="#6566CC" stroke-width="0.9013421519040374" fill="none" moovel_neighborhood="Southwest" moovel_area="401.01" moovel_cumulative_area="587183.83" moovel_length="92.18" d="M566,511 L588.5,511.5 L588.5,512 L588.5,513 L588,513.5 L541,513.5 " />
<path id="93" stroke-linecap="round" stroke="#6566CC" stroke-width="0.9013421519040374" fill="none" moovel_name="North South Line (NS)" moovel_neighborhood="Central" moovel_area="1054.16" moovel_cumulative_area="588237.98" moovel_length="242.32" d="M539.5,513.5 L444.5,514 L350.5,514 " />
<path id="94" stroke-linecap="round" stroke="#6566CC" stroke-width="0.9013421519040374" fill="none" moovel_name="North South Line (NS)" moovel_neighborhood="Central" moovel_area="240.00" moovel_cumulative_area="588477.99" moovel_length="55.17" d="M348.5,513.5 L306,513.5 " />
<path id="95" stroke-linecap="round" stroke="#6566CC" stroke-width="0.9013421519040374" fill="none" moovel_name="North South Line (NS)" moovel_neighborhood="Central" moovel_area="1046.36" moovel_cumulative_area="589524.35" moovel_length="240.52" d="M304,513.5 L117,513.5 " />
<path id="96" stroke-linecap="round" stroke="#6566CC" stroke-width="0.9013421519040374" fill="none" moovel_name="North South Line (NS)" moovel_neighborhood="Central" moovel_area="238.85" moovel_cumulative_area="589763.20" moovel_length="54.91" d="M114.5,513.5 L72.5,513.5 " />
<path id="97" stroke-linecap="round" stroke="#6566CC" stroke-width="0.9013421519040374" fill="none" moovel_name="North South Line (NS)" moovel_neighborhood="Central" moovel_area="1786.21" moovel_cumulative_area="591549.41" moovel_length="410.59" d="M70.5,513.5 L11.5,514 L11,514.5 L10.5,515 L10.5,515.5 L11,516 L12,516.5 L202.5,516 L269.5,516 " />
<path id="98" stroke-linecap="round" stroke="#6566CC" stroke-width="0.9013421519040374" fill="none" moovel_name="North South Line (NS)" moovel_neighborhood="Central" moovel_area="22021.28" moovel_cumulative_area="613570.69" moovel_length="5061.99" d="M270.5,516.5 L370.5,516 L588,517 L588,518 L588,518.5 L587.5,519 L583,519.5 L344.5,520 L106,520.5 L11,521 L11,522 L11,522.5 L180,522 L384.5,521.5 L588,522.5 L588,523.5 L588,524 L587.5,525 L429,525.5 L208.5,526 L11.5,526.5 L11,527 L11,527.5 L11,528 L11.5,528.5 L45,528 L265.5,527.5 L486,527 L588,527.5 L588,528.5 L588,529.5 L588,530.5 L550,531 L330,531.5 L109,532 L11,532.5 L11,533 L11,533.5 L11.5,534 L163,533.5 L401,533 L588.5,534 L588.5,535 L588,535.5 L587.5,536 L573.5,536.5 L425.5,536.5 " />
<path id="99" stroke-linecap="round" stroke="#6566CC" stroke-width="0.9013421519040374" fill="none" moovel_name="North South Line (NS)" moovel_neighborhood="Central" moovel_area="21961.33" moovel_cumulative_area="635532.02" moovel_length="5048.21" d="M423,537 L219,537.5 L11,538 L11,538.5 L11,539 L11,539.5 L11.5,540 L127.5,539.5 L366.5,539 L588,539.5 L588,540 L588,541 L588,542 L587.5,542.5 L392,543 L152.5,543.5 L11,544 L11,544.5 L11,545 L11,545.5 L208,545 L446.5,544.5 L588,545 L588,546 L588,547 L587.5,548 L505.5,548.5 L267,549 L28,549.5 L11,550 L11,550.5 L11.5,551 L12,551.5 L89,551 L349.5,550.5 L588,551 L588,551.5 L588,552.5 L588,553.5 L587.5,554 L423.5,554.5 L163,555 L11,555.5 L10.5,556 L10.5,556.5 L11,557.5 L68,557.5 " />
<path id="100" stroke-linecap="round" stroke="#6566CC" stroke-width="0.9013421519040374" fill="none" moovel_name="North South Line (NS)" moovel_neighborhood="Southwest" moovel_area="7580.28" moovel_cumulative_area="643112.30" moovel_length="1742.47" d="M70,557 L188,556.5 L588,557 L588.5,557.5 L588.5,558.5 L588,559 L587,559.5 L165,560 L10.5,561 L10.5,561.5 L11,562 L11.5,562.5 L273.5,562.5 " />
<path id="101" stroke-linecap="round" stroke="#6566CC" stroke-width="0.9013421519040374" fill="none" moovel_name="MRT East West Line (EW)" moovel_neighborhood="Southwest" moovel_area="646.88" moovel_cumulative_area="643759.18" moovel_length="148.70" d="M275,562.5 L391,562.5 " />
<path id="102" stroke-linecap="round" stroke="#6566CC" stroke-width="0.9013421519040374" fill="none" moovel_name="Circle Line Extension" moovel_neighborhood="Central" moovel_area="9433.02" moovel_cumulative_area="653192.20" moovel_length="2168.35" d="M393,562.5 L400.5,563 L588.5,563.5 L588.5,564.5 L588.5,565 L588,565.5 L376,565 L136.5,564.5 L11,565 L10.5,565.5 L10,566.5 L10.5,567.5 L11.5,568 L160.5,568.5 L398,569 L588,569.5 L588.5,570 L588.5,570.5 L588.5,571 L587.5,571.5 L450,571 L249,571 " />
<path id="103" stroke-linecap="round" stroke="#6566CC" stroke-width="0.9013421519040374" fill="none" moovel_name="MRT East West Line (EW)" moovel_neighborhood="Southwest" moovel_area="35646.11" moovel_cumulative_area="688838.31" moovel_length="8193.91" d="M247,571.5 L232.5,571 L10.5,571.5 L10.5,572.5 L10.5,573.5 L11,574 L104.5,574.5 L422.5,575 L588.5,575.5 L588.5,576 L588.5,576.5 L588,577 L587.5,577.5 L465.5,577 L11.5,577.5 L11,578 L11,578.5 L11,579 L11.5,579.5 L588,580 L588,581 L588,582 L588,583 L586.5,583.5 L11,584 L11,584.5 L11,585 L11.5,585.5 L588,586 L588,587 L588,588 L588,588.5 L587.5,589 L11,589.5 L11,590 L11,590.5 L11.5,591 L378,591.5 L588,592 L588,593 L588,594 L587.5,595 L11,595.5 L11,596 L11,596.5 L59,597 L587.5,597.5 L588,598.5 L588,599 L588,600 L587.5,600.5 L587,601 L574.5,600.5 L11,601 L11,601.5 L11,602 L11,602.5 L171.5,603 L387,603 " />
<path id="104" stroke-linecap="round" stroke="#6566CC" stroke-width="0.9013421519040374" fill="none" moovel_neighborhood="Central" moovel_area="325.47" moovel_cumulative_area="689163.78" moovel_length="74.82" d="M388.5,603 L446.5,603 " />
<path id="105" stroke-linecap="round" stroke="#6566CC" stroke-width="0.9013421519040374" fill="none" moovel_name="North South Line (NS)" moovel_neighborhood="Southwest" moovel_area="1612.54" moovel_cumulative_area="690776.32" moovel_length="370.67" d="M448,603 L553,602.5 L588,603 L588.5,603.5 L588.5,604.5 L588,605.5 L587.5,606 L441,606 " />
<path id="106" stroke-linecap="round" stroke="#6566CC" stroke-width="0.9013421519040374" fill="none" moovel_neighborhood="Southwest" moovel_area="490.09" moovel_cumulative_area="691266.42" moovel_length="112.66" d="M439,606 L351.5,606 " />
<path id="107" stroke-linecap="round" stroke="#6566CC" stroke-width="0.9013421519040374" fill="none" moovel_neighborhood="Southwest" moovel_area="469.62" moovel_cumulative_area="691736.04" moovel_length="107.95" d="M349.5,606 L266,606 " />
<path id="108" stroke-linecap="round" stroke="#6566CC" stroke-width="0.9013421519040374" fill="none" moovel_name="North South Line (NS)" moovel_neighborhood="Southwest" moovel_area="3608.23" moovel_cumulative_area="695344.27" moovel_length="829.42" d="M264,606 L118,606.5 L11,607 L10.5,607.5 L10.5,608 L11,608.5 L11.5,609 L75.5,608.5 L389.5,608 L403.5,608.5 " />
<path id="109" stroke-linecap="round" stroke="#6566CC" stroke-width="0.9013421519040374" fill="none" moovel_name="North South Line (NS)" moovel_neighborhood="Southwest" moovel_area="1134.24" moovel_cumulative_area="696478.51" moovel_length="260.73" d="M405.5,609 L409,608.5 L588,609 L588.5,609.5 L588.5,610.5 L588,611 L587.5,611.5 L569.5,611.5 " />
<path id="110" stroke-linecap="round" stroke="#6566CC" stroke-width="0.9013421519040374" fill="none" moovel_name="North South Line (NS)" moovel_neighborhood="Southwest" moovel_area="949.51" moovel_cumulative_area="697428.01" moovel_length="218.26" d="M568,611.5 L397.5,611.5 " />
<path id="111" stroke-linecap="round" stroke="#6566CC" stroke-width="0.9013421519040374" fill="none" moovel_neighborhood="Southwest" moovel_area="226.45" moovel_cumulative_area="697654.47" moovel_length="52.05" d="M396,611.5 L356,611.5 " />
<path id="112" stroke-linecap="round" stroke="#6566CC" stroke-width="0.9013421519040374" fill="none" moovel_neighborhood="Southwest" moovel_area="163.62" moovel_cumulative_area="697818.09" moovel_length="37.61" d="M354.5,611.5 L325.5,611.5 " />
<path id="113" stroke-linecap="round" stroke="#6566CC" stroke-width="0.9013421519040374" fill="none" moovel_name="MRT East West Line (EW)" moovel_neighborhood="Southwest" moovel_area="83853.14" moovel_cumulative_area="781671.23" moovel_length="19275.17" d="M323.5,611.5 L305.5,612 L11.5,612.5 L10.5,613.5 L11,614 L11,614.5 L295.5,614 L588,614.5 L588,615.5 L588,616.5 L587.5,617 L587,617.5 L300.5,618 L14,618.5 L11,619 L11,619.5 L11,620 L247,619.5 L485.5,619 L588,620 L588,621 L588,622 L587.5,622.5 L587,623 L460.5,623.5 L221.5,624 L11.5,624.5 L11,625 L11,625.5 L11.5,626 L101,625.5 L305,625 L510,624.5 L587.5,625 L588,626 L588,627 L587.5,628 L587.5,628.5 L524,629 L303.5,629.5 L83.5,630 L11.5,630.5 L11,631 L11.5,631.5 L149,631 L368.5,630.5 L587.5,631 L588,632 L588,633 L587.5,634 L587.5,634.5 L434.5,635 L195.5,635.5 L11.5,636 L11,636.5 L11.5,637 L244.5,636.5 L505,636 L587.5,636.5 L588,637.5 L588,639 L587.5,640 L587.5,640.5 L349.5,641 L89,641.5 L11,642 L11,642.5 L11.5,643 L153,642.5 L439.5,642 L588,643 L588,644 L588,645 L587.5,646 L506.5,646.5 L246,647 L11.5,647.5 L11,648 L11.5,648.5 L11.5,649 L104.5,648.5 L390.5,648 L587.5,648.5 L588,649.5 L588,650.5 L587.5,651.5 L587.5,652 L422.5,652.5 L136.5,653 L11,653.5 L11,654 L11.5,654.5 L238.5,654 L499,653.5 L587.5,654 L588,654.5 L588,655.5 L588,656.5 L587.5,657.5 L468.5,658 L208,658.5 L11.5,659 L11,659.5 L11,660 L11.5,660.5 L201,660 L487,659.5 L588,660.5 L588,661 L588,662 L587.5,663 L587.5,663.5 L373,664 L87,664.5 L11,665 L11,665.5 L11.5,666 L12,666.5 L43,666 L303,665.5 L563.5,665 L587.5,665.5 L588,666 L588,667 L588,668 L587.5,669 L451,669.5 L190.5,670 L11,670.5 L11,671 L11,671.5 L11.5,672 L172,671.5 L432.5,671 L588,671.5 L588,672.5 L588,673.5 L587.5,674.5 L569,675 L309,675.5 L48.5,676 L11,676.5 L11,677 L11,677.5 L11.5,678 L91.5,677.5 L312.5,677 L532.5,676.5 L588,677 L588,677.5 L588.5,678.5 L588,679.5 L587.5,680 L521.5,680.5 L317,681 L92.5,681.5 L10.5,682.5 L10.5,683 L10.5,684 L11.5,684.5 L120,684 L239,683.5 L375.5,683 L524.5,682.5 L588,683 L588.5,683.5 L588.5,684 L588.5,685 L587,685.5 L470.5,686 L350.5,686.5 L311.5,686.5 " />
<path id="114" stroke-linecap="round" stroke="#6566CC" stroke-width="0.9013421519040374" fill="none" moovel_neighborhood="Southeast" moovel_area="447.26" moovel_cumulative_area="782118.50" moovel_length="102.81" d="M310,686.5 L230,686.5 " />
<path id="115" stroke-linecap="round" stroke="#6566CC" stroke-width="0.9013421519040374" fill="none" moovel_name="MRT East West Line (EW) Changi Airport Line" moovel_neighborhood="Southeast" moovel_area="6564.60" moovel_cumulative_area="788683.09" moovel_length="1508.99" d="M228,686.5 L10.5,687 L10.5,688 L10.5,688.5 L11,689.5 L218,690 L536.5,690.5 L588.5,691 L589,691.5 L588.5,692.5 L293,692 L207.5,692 " />
<path id="116" stroke-linecap="round" stroke="#6566CC" stroke-width="0.9013421519040374" fill="none" moovel_name="MRT East West Line (EW)" moovel_neighborhood="Southeast" moovel_area="4910.13" moovel_cumulative_area="793593.22" moovel_length="1128.68" d="M206,692.5 L127.5,692 L11,692.5 L10.5,693 L10.5,694 L11,695 L46.5,695.5 L560,696 L588.5,696.5 L588.5,697.5 L588,698 L587.5,698.5 L482.5,698.5 " />
<path id="117" stroke-linecap="round" stroke="#6566CC" stroke-width="0.9013421519040374" fill="none" moovel_neighborhood="Northeast" moovel_area="311.93" moovel_cumulative_area="793905.15" moovel_length="71.70" d="M481,698 L425.5,698 " />
<path id="118" stroke-linecap="round" stroke="#6566CC" stroke-width="0.9013421519040374" fill="none" moovel_neighborhood="Southeast" moovel_area="407.07" moovel_cumulative_area="794312.22" moovel_length="93.57" d="M423.5,698 L351,698 " />
<path id="119" stroke-linecap="round" stroke="#6566CC" stroke-width="0.9013421519040374" fill="none" moovel_name="MRT East West Line (EW)" moovel_neighborhood="Southeast" moovel_area="385.67" moovel_cumulative_area="794697.89" moovel_length="88.65" d="M349.5,698 L281,698 " />
<path id="120" stroke-linecap="round" stroke="#6566CC" stroke-width="0.9013421519040374" fill="none" moovel_name="MRT East West Line (EW)" moovel_neighborhood="Southeast" moovel_area="385.37" moovel_cumulative_area="795083.26" moovel_length="88.58" d="M279,698 L210.5,698 " />
<path id="121" stroke-linecap="round" stroke="#6566CC" stroke-width="0.9013421519040374" fill="none" moovel_name="MRT East West Line (EW)" moovel_neighborhood="Southeast" moovel_area="22810.66" moovel_cumulative_area="817893.92" moovel_length="5243.44" d="M209,698 L168.5,698.5 L11,699 L11,699.5 L10.5,700 L11,700.5 L11.5,701 L204.5,700.5 L523,700 L587.5,700.5 L588,701 L588,701.5 L588,702.5 L588,703.5 L503.5,704 L185,704.5 L11,705 L11,705.5 L11,706 L11,706.5 L11.5,707 L60.5,706.5 L321.5,706 L582.5,705.5 L587.5,706 L588,706.5 L588.5,707.5 L588,708.5 L587.5,709 L535,709.5 L275.5,710 L15,710.5 L11,711 L11,712 L11,712.5 L226,712 L486.5,711.5 L588,712 L588.5,713 L588.5,714 L588,714.5 L587.5,715 L373.5,715.5 L155,716 L11,716.5 L10.5,717 L10.5,717.5 L11,718.5 L210.5,718 L435,718 " />
<path id="122" stroke-linecap="round" stroke="#6566CC" stroke-width="0.9013421519040374" fill="none" moovel_name="MRT East West Line (EW)" moovel_neighborhood="Central" moovel_area="964.57" moovel_cumulative_area="818858.49" moovel_length="221.72" d="M436.5,718.5 L588,719 L588.5,719.5 L588.5,720 L588,721 L587,721.5 L569.5,721.5 " />
<path id="123" stroke-linecap="round" stroke="#6566CC" stroke-width="0.9013421519040374" fill="none" moovel_name="MRT East West Line (EW)" moovel_neighborhood="Southeast" moovel_area="502.07" moovel_cumulative_area="819360.56" moovel_length="115.41" d="M567.5,721 L544.5,721.5 L477.5,721 " />
<path id="124" stroke-linecap="round" stroke="#6566CC" stroke-width="0.9013421519040374" fill="none" moovel_name="MRT East West Line (EW)" moovel_neighborhood="Central" moovel_area="975.60" moovel_cumulative_area="820336.17" moovel_length="224.26" d="M476,721 L301.5,721 " />
<path id="125" stroke-linecap="round" stroke="#6566CC" stroke-width="0.9013421519040374" fill="none" moovel_neighborhood="Southeast" moovel_area="718.34" moovel_cumulative_area="821054.51" moovel_length="165.12" d="M300,721 L171.5,721 " />
<path id="126" stroke-linecap="round" stroke="#6566CC" stroke-width="0.9013421519040374" fill="none" moovel_neighborhood="Southeast" moovel_area="491.32" moovel_cumulative_area="821545.83" moovel_length="112.94" d="M169,721 L81.5,721 " />
<path id="127" stroke-linecap="round" stroke="#6566CC" stroke-width="0.9013421519040374" fill="none" moovel_neighborhood="Northeast" moovel_area="168.52" moovel_cumulative_area="821714.35" moovel_length="38.74" d="M79.5,721 L50,721 " />
<path id="128" stroke-linecap="round" stroke="#6566CC" stroke-width="0.9013421519040374" fill="none" moovel_name="MRT East West Line (EW)" moovel_neighborhood="Southeast" moovel_area="41681.06" moovel_cumulative_area="863395.41" moovel_length="9581.15" d="M48,721 L11,721.5 L10.5,722 L10.5,722.5 L10.5,723.5 L11,724 L26,724.5 L265,725 L503.5,725.5 L588.5,726 L589,726.5 L589,727 L588.5,727.5 L428.5,727 L167.5,726.5 L10.5,727 L10,728 L10,729 L10.5,730 L11.5,730.5 L275,731 L561.5,731.5 L589,732 L589,732.5 L588,733 L417,732.5 L156.5,732 L10.5,732.5 L10,733.5 L10,735 L10.5,735.5 L11.5,736 L127,736.5 L414,737 L589,737.5 L589,738 L588,738.5 L317.5,738 L10,739 L10,740 L10,741 L11,742 L201,742.5 L487.5,743 L589,743.5 L589,744 L588,744.5 L372,744 L85.5,743.5 L11,744 L10,744.5 L10,745.5 L10,746.5 L11,747.5 L146.5,748 L464.5,748.5 L588.5,749 L589,749.5 L588.5,750 L588,750.5 L430.5,750 L111.5,749.5 L11,750 L10.5,750.5 L10,751.5 L10.5,752.5 L11,753 L184.5,753.5 L587.5,754 L588.5,754.5 L588.5,755.5 L588,756 L318,755.5 L10.5,756 L10,757 L10.5,758 L11,758.5 L93,759 L502.5,759.5 L512.5,759.5 " />
<path id="129" stroke-linecap="round" stroke="#6566CC" stroke-width="0.9013421519040374" fill="none" moovel_name="North South Line (NS)" moovel_neighborhood="Southwest" moovel_area="948.07" moovel_cumulative_area="864343.47" moovel_length="217.93" d="M514.5,758.5 L588,759 L588.5,759.5 L588.5,760 L588,761 L587.5,761.5 L494.5,761.5 " />
<path id="130" stroke-linecap="round" stroke="#6566CC" stroke-width="0.9013421519040374" fill="none" moovel_neighborhood="Central" moovel_area="145.81" moovel_cumulative_area="864489.28" moovel_length="33.52" d="M492.5,761.5 L467.5,761.5 " />
<path id="131" stroke-linecap="round" stroke="#6566CC" stroke-width="0.9013421519040374" fill="none" moovel_name="North South Line (NS)" moovel_neighborhood="Southwest" moovel_area="2442.45" moovel_cumulative_area="866931.73" moovel_length="561.44" d="M465,761.5 L402.5,762 L26.5,762 " />
<path id="132" stroke-linecap="round" stroke="#6566CC" stroke-width="0.9013421519040374" fill="none" moovel_name="North South Line (NS)" moovel_neighborhood="Southwest" moovel_area="1082.57" moovel_cumulative_area="868014.30" moovel_length="248.85" d="M25,761.5 L11,762 L10.5,762.5 L10.5,763 L10.5,764 L11.5,764.5 L188,764.5 " />
<path id="133" stroke-linecap="round" stroke="#6566CC" stroke-width="0.9013421519040374" fill="none" moovel_name="Downtown Line MRT" moovel_neighborhood="Central" moovel_area="1580.07" moovel_cumulative_area="869594.36" moovel_length="363.21" d="M190,764.5 L473.5,764.5 " />
<path id="134" stroke-linecap="round" stroke="#6566CC" stroke-width="0.9013421519040374" fill="none" moovel_name="North South Line (NS)" moovel_neighborhood="Northwest" moovel_area="743.00" moovel_cumulative_area="870337.36" moovel_length="170.79" d="M476,764.5 L588.5,765 L588.5,766 L588.5,766.5 L587.5,767 L587,767.5 L570,767.5 " />
<path id="135" stroke-linecap="round" stroke="#6566CC" stroke-width="0.9013421519040374" fill="none" moovel_name="North South Line (NS)" moovel_neighborhood="Northwest" moovel_area="29933.31" moovel_cumulative_area="900270.67" moovel_length="6880.71" d="M568,767.5 L338,768 L51.5,768.5 L11,769 L10.5,769.5 L11,770 L11,770.5 L220,770 L458,769.5 L588,770 L588,770.5 L588,771.5 L588,772.5 L587.5,773 L497,773.5 L258.5,774 L19.5,774.5 L11,775 L11,775.5 L11,776 L11.5,776.5 L109.5,776 L348.5,775.5 L588,776.5 L588,777.5 L588,778 L587.5,779 L402,779.5 L163,780 L11,780.5 L11,781 L11,781.5 L11.5,782 L221,781.5 L482,781 L588,781.5 L588,782.5 L588,783.5 L588,784.5 L587.5,785 L379.5,785.5 L119,786 L11,786.5 L11,787 L11,787.5 L11.5,788 L84.5,787.5 L345,787 L588,787.5 L588,788 L588,789 L588,790 L587.5,790.5 L403.5,791 L116.5,791.5 L11,792.5 L11,793 L11,793.5 L11.5,794 L82.5,793.5 L198,793.5 " />
<path id="136" stroke-linecap="round" stroke="#6566CC" stroke-width="0.9013421519040374" fill="none" moovel_name="North South Line (NS)" moovel_neighborhood="Northwest" moovel_area="79.10" moovel_cumulative_area="900349.77" moovel_length="18.18" d="M200,793.5 L213.5,793.5 " />
<path id="137" stroke-linecap="round" stroke="#6566CC" stroke-width="0.9013421519040374" fill="none" moovel_name="North South Line (NS)" moovel_neighborhood="Central" moovel_area="2188.36" moovel_cumulative_area="902538.13" moovel_length="503.03" d="M215,793.5 L585.5,794 L588.5,794.5 L588.5,795 L588.5,796 L588,796.5 L570.5,796.5 " />
<path id="138" stroke-linecap="round" stroke="#6566CC" stroke-width="0.9013421519040374" fill="none" moovel_name="North South Line (NS)" moovel_neighborhood="Northwest" moovel_area="478.52" moovel_cumulative_area="903016.66" moovel_length="110.00" d="M569,796 L483.5,796 " />
<path id="139" stroke-linecap="round" stroke="#6566CC" stroke-width="0.9013421519040374" fill="none" moovel_name="North South Line (NS)" moovel_neighborhood="Central" moovel_area="343.32" moovel_cumulative_area="903359.98" moovel_length="78.92" d="M482,796 L421,796 " />
<path id="140" stroke-linecap="round" stroke="#6566CC" stroke-width="0.9013421519040374" fill="none" moovel_name="North South Line (NS)" moovel_neighborhood="Southwest" moovel_area="132.76" moovel_cumulative_area="903492.74" moovel_length="30.52" d="M419,796 L396,796 " />
<path id="141" stroke-linecap="round" stroke="#6566CC" stroke-width="0.9013421519040374" fill="none" moovel_name="North South Line (NS)" moovel_neighborhood="Northwest" moovel_area="2053.48" moovel_cumulative_area="905546.22" moovel_length="472.03" d="M393.5,796 L349.5,796.5 L25,796.5 " />
<path id="142" stroke-linecap="round" stroke="#6566CC" stroke-width="0.9013421519040374" fill="none" moovel_name="North South Line (NS)" moovel_neighborhood="Southwest" moovel_area="604.24" moovel_cumulative_area="906150.47" moovel_length="138.90" d="M23,796 L11,796.5 L10.5,797 L10.5,798 L11,798.5 L11.5,799 L104,799 " />
<path id="143" stroke-linecap="round" stroke="#6566CC" stroke-width="0.9013421519040374" fill="none" moovel_name="North South Line (NS)" moovel_neighborhood="Northwest" moovel_area="511.88" moovel_cumulative_area="906662.34" moovel_length="117.66" d="M106,799 L197,799 " />
<path id="144" stroke-linecap="round" stroke="#6566CC" stroke-width="0.9013421519040374" fill="none" moovel_name="North South Line (NS)" moovel_neighborhood="Northwest" moovel_area="426.67" moovel_cumulative_area="907089.02" moovel_length="98.08" d="M199.5,799 L275.5,799 " />
<path id="145" stroke-linecap="round" stroke="#6566CC" stroke-width="0.9013421519040374" fill="none" moovel_name="North South Line (NS)" moovel_neighborhood="Northwest" moovel_area="487.98" moovel_cumulative_area="907577.00" moovel_length="112.17" d="M277,799 L364,799 " />
<path id="146" stroke-linecap="round" stroke="#6566CC" stroke-width="0.9013421519040374" fill="none" moovel_name="North South Line (NS)" moovel_neighborhood="Northwest" moovel_area="78.39" moovel_cumulative_area="907655.39" moovel_length="18.02" d="M365.5,799 L379,799 " />
<path id="147" stroke-linecap="round" stroke="#6566CC" stroke-width="0.9013421519040374" fill="none" moovel_name="North South Line (NS)" moovel_neighborhood="Northwest" moovel_area="713.20" moovel_cumulative_area="908368.59" moovel_length="163.94" d="M381,799 L508.5,799 " />
<path id="148" stroke-linecap="round" stroke="#6566CC" stroke-width="0.9013421519040374" fill="none" moovel_name="North South Line (NS)" moovel_neighborhood="Southwest" moovel_area="12783.12" moovel_cumulative_area="921151.71" moovel_length="2938.43" d="M510.5,799 L588,799.5 L588.5,800 L588.5,801 L588,801.5 L587.5,802 L492.5,801.5 L406.5,802 L395.5,801.5 L320.5,802 L11,802.5 L10.5,803 L11,804 L12,804.5 L79,804 L588,804.5 L588,805.5 L588,806.5 L588,807 L587.5,807.5 L401.5,808 L11,808.5 L10.5,809 L11,809.5 L11,810 L12.5,810.5 L88.5,810 L490.5,810.5 " />
<path id="149" stroke-linecap="round" stroke="#6566CC" stroke-width="0.9013421519040374" fill="none" moovel_name="North South Line (NS)" moovel_neighborhood="Southwest" moovel_area="10169.86" moovel_cumulative_area="931321.57" moovel_length="2337.73" d="M492.5,810.5 L588,811 L588.5,812 L588,813 L587.5,813.5 L496,814 L257,814.5 L18,815 L11,815.5 L10.5,816 L11,816.5 L11.5,817 L198,816.5 L437,816 L588,816.5 L588.5,817.5 L588,818.5 L588,819 L571.5,819.5 L351,820 L133,820.5 L16.5,820.5 " />
<path id="150" stroke-linecap="round" stroke="#6566CC" stroke-width="0.9013421519040374" fill="none" moovel_name="North South Line (NS)" moovel_neighborhood="Northwest" moovel_area="790.75" moovel_cumulative_area="932112.32" moovel_length="181.77" d="M15,819 L11,819.5 L10.5,820 L10.5,820.5 L10.5,821.5 L11,822 L81,822.5 L145.5,822.5 " />
<path id="151" stroke-linecap="round" stroke="#6566CC" stroke-width="0.9013421519040374" fill="none" moovel_name="North South Line (NS)" moovel_neighborhood="Central" moovel_area="3717.86" moovel_cumulative_area="935830.18" moovel_length="854.62" d="M147.5,822 L226.5,822.5 L558.5,823 L588.5,824 L588.5,824.5 L588,825 L587.5,825.5 L553.5,825 L363,825 " />
<path id="152" stroke-linecap="round" stroke="#6566CC" stroke-width="0.9013421519040374" fill="none" moovel_name="North South Line (NS)" moovel_neighborhood="Northwest" moovel_area="1549.68" moovel_cumulative_area="937379.86" moovel_length="356.22" d="M361,825 L229,825.5 L83,825.5 " />
<path id="153" stroke-linecap="round" stroke="#6566CC" stroke-width="0.9013421519040374" fill="none" moovel_name="North South Line (NS)" moovel_neighborhood="Northwest" moovel_area="1130.81" moovel_cumulative_area="938510.66" moovel_length="259.94" d="M81.5,825 L11,825.5 L10.5,826.5 L10.5,827 L11,827.5 L12,828 L17.5,827.5 L140.5,827.5 " />
<path id="154" stroke-linecap="round" stroke="#6566CC" stroke-width="0.9013421519040374" fill="none" moovel_name="North South Line (NS)" moovel_neighborhood="Central" moovel_area="2146.17" moovel_cumulative_area="940656.83" moovel_length="493.34" d="M142.5,828 L527.5,828 " />
<path id="155" stroke-linecap="round" stroke="#6566CC" stroke-width="0.9013421519040374" fill="none" moovel_name="North South Line (NS)" moovel_neighborhood="Southwest" moovel_area="29926.81" moovel_cumulative_area="970583.65" moovel_length="6879.22" d="M529,828 L540.5,827.5 L588,828 L588.5,828.5 L588.5,829.5 L588,830 L587.5,830.5 L587,831 L376,831.5 L115,832 L11,832.5 L10.5,833 L11,833.5 L11,834 L11.5,834.5 L36.5,834 L323.5,833.5 L588,834 L588,835 L588,836 L587.5,836.5 L587,837 L378.5,837.5 L91.5,838 L11,838.5 L11,839 L11,839.5 L11,840 L221,839.5 L539,839 L588,839.5 L588,840.5 L588,841.5 L588,842.5 L586.5,843 L348.5,843.5 L88.5,844 L11,844.5 L11,845 L11,845.5 L11.5,846 L113.5,845.5 L352.5,845 L588,845.5 L588,846.5 L588,847.5 L587.5,848.5 L504,849 L265,849.5 L26,850 L11,850.5 L11,851 L11,851.5 L262,851 L522.5,850.5 L587.5,851 L588,851.5 L588,852.5 L588,853.5 L587.5,854 L576,854.5 L316,855 L55.5,855.5 L11,856 L10.5,856.5 L11,857.5 L11.5,858 L78.5,857.5 L115,858 " />
<path id="156" stroke-linecap="round" stroke="#6566CC" stroke-width="0.9013421519040374" fill="none" moovel_name="North South Line (NS)" moovel_neighborhood="Northwest" moovel_area="160.47" moovel_cumulative_area="970744.11" moovel_length="36.89" d="M116.5,856.5 L145,856.5 " />
<path id="157" stroke-linecap="round" stroke="#6566CC" stroke-width="0.9013421519040374" fill="none" moovel_name="North South Line (NS)" moovel_neighborhood="Northwest" moovel_area="750.06" moovel_cumulative_area="971494.17" moovel_length="172.42" d="M146.5,856.5 L281,856.5 " />
<path id="158" stroke-linecap="round" stroke="#6566CC" stroke-width="0.9013421519040374" fill="none" moovel_name="North South Line (NS)" moovel_neighborhood="Northwest" moovel_area="166.31" moovel_cumulative_area="971660.48" moovel_length="38.23" d="M282.5,856.5 L311.5,856.5 " />
<path id="159" stroke-linecap="round" stroke="#6566CC" stroke-width="0.9013421519040374" fill="none" moovel_name="North South Line (NS)" moovel_neighborhood="Northwest" moovel_area="89.25" moovel_cumulative_area="971749.73" moovel_length="20.52" d="M313,856.5 L328.5,856.5 " />
<path id="160" stroke-linecap="round" stroke="#6566CC" stroke-width="0.9013421519040374" fill="none" moovel_name="North South Line (NS)" moovel_neighborhood="Northwest" moovel_area="191.99" moovel_cumulative_area="971941.72" moovel_length="44.13" d="M330.5,856.5 L364.5,856.5 " />
<path id="161" stroke-linecap="round" stroke="#6566CC" stroke-width="0.9013421519040374" fill="none" moovel_name="North South Line (NS)" moovel_neighborhood="Central" moovel_area="53884.92" moovel_cumulative_area="1025826.64" moovel_length="12386.43" d="M366,856.5 L545.5,856 L587.5,856.5 L588,857 L588,857.5 L588,858.5 L588,859 L587,859.5 L489,860 L228.5,860.5 L11,861 L11,861.5 L11,862 L11,862.5 L11.5,863 L50,862.5 L336,862 L588,863 L588,864 L588,865 L587.5,865.5 L541,866 L280,866.5 L19.5,867 L11,867.5 L11,868 L11.5,868.5 L168,868 L429,867.5 L588,868.5 L588,869.5 L588,870.5 L587.5,871 L587,871.5 L458.5,872 L198.5,872.5 L11.5,873 L11,873.5 L11.5,874 L256,873.5 L517,873 L587.5,873.5 L588,874.5 L588,875.5 L587.5,876.5 L587.5,877 L587,877.5 L406.5,878 L167.5,878.5 L11.5,879 L11,879.5 L11.5,880 L148.5,879.5 L408.5,879 L587.5,879.5 L588,880.5 L587.5,882 L587.5,883 L587,883.5 L347.5,884 L88,884.5 L11,885 L11.5,885.5 L12,886 L18,885.5 L278,885 L539,884.5 L587.5,885 L587.5,886 L588,887 L587.5,888 L587.5,889 L458,889.5 L171.5,890 L11.5,890.5 L11.5,891 L11.5,891.5 L113.5,891 L352.5,890.5 L588,891.5 L588,892.5 L588,893.5 L587.5,894.5 L477.5,895 L239,895.5 L11.5,896 L11,896.5 L11.5,897 L11.5,897.5 L53.5,897 L340,896.5 L588,897.5 L588,898.5 L588,899.5 L587.5,900 L587,900.5 L353.5,901 L66.5,901.5 L11,902 L11,902.5 L11,903 L12,903.5 L48,903 L334.5,902.5 L588,903 L588.5,904 L588,905 L587.5,905.5 L583,906 L394.5,906 " />
<path id="162" stroke-linecap="round" stroke="#6566CC" stroke-width="0.9013421519040374" fill="none" moovel_name="Downtown Line MRT" moovel_neighborhood="Central" moovel_area="19426.02" moovel_cumulative_area="1045252.66" moovel_length="4465.42" d="M392.5,905.5 L236,905 L10.5,905.5 L10,906 L10,907 L10.5,908 L11.5,908.5 L200.5,909 L486.5,909.5 L589,910 L589,910.5 L588.5,911 L587,911.5 L573.5,911 L313.5,910.5 L53,910 L11,910.5 L10,911.5 L10,912.5 L10,913.5 L11,914 L54,914.5 L293.5,915 L532,915.5 L589,916 L589,916.5 L588.5,917 L379.5,916.5 L140.5,916 L10.5,916.5 L10,917 L10,918.5 L10.5,919 L11.5,919.5 L12,920 L220,920.5 L458.5,921 L588,921.5 L588.5,922 L588.5,922.5 L588.5,923 L586.5,923.5 L574,923 L376.5,923 " />
<path id="163" stroke-linecap="round" stroke="#6566CC" stroke-width="0.9013421519040374" fill="none" moovel_name="Circle Line MRT" moovel_neighborhood="Southeast" moovel_area="8953.67" moovel_cumulative_area="1054206.33" moovel_length="2058.16" d="M375.5,923 L276.5,923.5 L31.5,924 L11,924.5 L11,925 L11,925.5 L11.5,926 L193,925.5 L453,925 L588,925.5 L588,926 L588.5,927 L588,928 L587.5,928.5 L414.5,929 L128,929.5 L11,930 L10.5,930.5 L10.5,931 L11,931.5 L11.5,932 L94.5,932 " />
<path id="164" stroke-linecap="round" stroke="#6566CC" stroke-width="0.9013421519040374" fill="none" moovel_name="Circle Line MRT" moovel_neighborhood="Central" moovel_area="28104.90" moovel_cumulative_area="1082311.23" moovel_length="6460.42" d="M96.5,931.5 L103,932 L313,932.5 L518,933 L588.5,933.5 L589,934 L588.5,934.5 L588,935 L504.5,934.5 L313.5,934 L122,933.5 L11,934 L10,934.5 L10,935.5 L10.5,936.5 L11,937 L12,937.5 L186.5,938 L391.5,938.5 L588,939 L589,939.5 L588.5,940 L588,940.5 L434.5,940 L230,939.5 L25.5,939 L11,939.5 L10.5,940 L10,941 L10,942 L11,942.5 L12,943 L96,943.5 L288,944 L478.5,944.5 L588.5,945 L589,945.5 L589,946 L588.5,946.5 L478.5,946 L299,945.5 L120.5,945 L10,946 L10,947 L10.5,948 L11,948.5 L59,949 L218,949.5 L376.5,950 L533,950.5 L588.5,951 L588.5,951.5 L588.5,952.5 L464.5,952 L321.5,951.5 L178.5,951 L35,950.5 L10.5,951 L10,952 L10,953 L10.5,953.5 L11.5,954 L48.5,954.5 L194,955 L349,955.5 L514,955.5 " />
<path id="165" stroke-linecap="round" stroke="#6566CC" stroke-width="0.9013421519040374" fill="none" moovel_name="Downtown Line MRT" moovel_neighborhood="Central" moovel_area="54288.48" moovel_cumulative_area="1136599.70" moovel_length="12479.19" d="M516.5,954.5 L523.5,955 L588.5,955.5 L588.5,956 L588.5,957 L587,957.5 L523,957 L284.5,956.5 L27,956 L11.5,956.5 L10,957.5 L10,958.5 L10.5,959.5 L11.5,960 L215.5,960.5 L455,961 L588.5,961.5 L589,962 L588.5,962.5 L588,963 L459,962.5 L220.5,962 L10,963 L10,963.5 L10,964.5 L11,965.5 L83,966 L343.5,966.5 L588,967 L589,967.5 L588.5,968 L588,968.5 L391.5,968 L104.5,967.5 L10.5,968 L10,969 L10,970 L10.5,970.5 L11,971.5 L208.5,972 L526.5,972.5 L588.5,973 L588.5,974 L587,974.5 L562,974 L301,973.5 L40.5,973 L11,973.5 L10,974.5 L10,975.5 L10.5,976.5 L11,977 L195,977.5 L513,978 L588.5,978.5 L589,979 L588.5,979.5 L588,980 L465,979.5 L107,979 L10.5,979.5 L10,980.5 L10,981.5 L10.5,982 L11.5,982.5 L12,983 L256,983.5 L542.5,984 L588.5,984.5 L589,985 L588.5,985.5 L588,986 L463.5,985.5 L144.5,985 L11,985.5 L10,986 L10,987 L10.5,988 L11.5,988.5 L157.5,989 L515.5,989.5 L588.5,990 L588.5,991 L588,991.5 L586.5,992 L578,991.5 L220,991 L11,991.5 L10.5,992 L10.5,993 L11,993.5 L106.5,994 L328,994.5 L498,995 L588,995.5 L588.5,996 L588.5,996.5 L588,997 L587,997.5 L445,997 L109.5,996.5 L11,997 L10.5,998 L10.5,998.5 L11,999 L68,999.5 L351,1000 L588,1000.5 L588,1001 L588.5,1002 L588,1003 L587.5,1003.5 L543.5,1003 L172,1003 " />
<path id="166" stroke-linecap="round" stroke="#6566CC" stroke-width="0.9013421519040374" fill="none" moovel_name="Downtown Line MRT" moovel_neighborhood="Northwest" moovel_area="15707.54" moovel_cumulative_area="1152307.25" moovel_length="3610.66" d="M170,1003.5 L10.5,1004 L10.5,1004.5 L10.5,1005.5 L11,1006.5 L117,1007 L587.5,1007.5 L588,1008 L588.5,1008.5 L588,1009.5 L588,1010 L587,1010.5 L407.5,1010 L14,1009.5 L11.5,1010 L10.5,1010.5 L10.5,1011.5 L11,1012 L65.5,1012.5 L326.5,1013 L557.5,1013.5 L558,1013 L587.5,1013.5 L588,1014 L588.5,1015 L588,1015.5 L587.5,1016 L570.5,1016.5 L49.5,1017 L11,1017.5 L10.5,1018 L10.5,1018.5 L11,1019 L355.5,1019 " />
<path id="167" stroke-linecap="round" stroke="#6566CC" stroke-width="0.9013421519040374" fill="none" moovel_neighborhood="Southwest" moovel_area="2267.06" moovel_cumulative_area="1154574.30" moovel_length="521.12" d="M357.5,1018 L407,1018.5 L588.5,1019.5 L588.5,1020 L588.5,1020.5 L587.5,1021 L414,1021 " />
<path id="168" stroke-linecap="round" stroke="#6566CC" stroke-width="0.9013421519040374" fill="none" moovel_neighborhood="Southwest" moovel_area="1511.21" moovel_cumulative_area="1156085.52" moovel_length="347.38" d="M412,1021 L199,1020.5 L140.5,1020.5 " />
<path id="169" stroke-linecap="round" stroke="#6566CC" stroke-width="0.9013421519040374" fill="none" moovel_neighborhood="Northwest" moovel_area="122.48" moovel_cumulative_area="1156208.00" moovel_length="28.15" d="M139.5,1021 L118,1021 " />
<path id="170" stroke-linecap="round" stroke="#6566CC" stroke-width="0.9013421519040374" fill="none" moovel_name="MRT East West Line (EW)" moovel_neighborhood="Central" moovel_area="1398.16" moovel_cumulative_area="1157606.16" moovel_length="321.39" d="M116,1021 L10.5,1021.5 L10.5,1022.5 L10.5,1023 L11,1023.5 L83.5,1024 L153.5,1024 " />
<path id="171" stroke-linecap="round" stroke="#6566CC" stroke-width="0.9013421519040374" fill="none" moovel_name="MRT East West Line (EW)" moovel_neighborhood="Central" moovel_area="1398.12" moovel_cumulative_area="1159004.28" moovel_length="321.38" d="M155,1024 L406,1024 " />
<path id="172" stroke-linecap="round" stroke="#6566CC" stroke-width="0.9013421519040374" fill="none" moovel_name="North South Line (NS)" moovel_neighborhood="Central" moovel_area="1390.07" moovel_cumulative_area="1160394.35" moovel_length="319.53" d="M408,1024 L588,1024.5 L588.5,1025 L588.5,1026 L588,1026.5 L587,1027 L521,1027 " />
<path id="173" stroke-linecap="round" stroke="#6566CC" stroke-width="0.9013421519040374" fill="none" moovel_name="North South Line (NS)" moovel_neighborhood="Central" moovel_area="1390.07" moovel_cumulative_area="1161784.42" moovel_length="319.53" d="M519,1026.5 L463,1027 L269.5,1027 " />
<path id="174" stroke-linecap="round" stroke="#6566CC" stroke-width="0.9013421519040374" fill="none" moovel_name="MRT East West Line (EW)" moovel_neighborhood="Central" moovel_area="2695.09" moovel_cumulative_area="1164479.51" moovel_length="619.51" d="M268.5,1026.5 L10.5,1027 L10.5,1027.5 L10.5,1028.5 L11,1029 L12,1029.5 L235,1029.5 " />
<path id="175" stroke-linecap="round" stroke="#6566CC" stroke-width="0.9013421519040374" fill="none" moovel_name="MRT East West Line (EW)" moovel_neighborhood="Central" moovel_area="2722.66" moovel_cumulative_area="1167202.17" moovel_length="625.85" d="M237,1029.5 L314.5,1030 L588,1030.5 L588.5,1031 L588.5,1032 L588,1032.5 L452.5,1032.5 " />
<path id="176" stroke-linecap="round" stroke="#6566CC" stroke-width="0.9013421519040374" fill="none" moovel_name="North South Line (NS)" moovel_neighborhood="Central" moovel_area="1845.65" moovel_cumulative_area="1169047.82" moovel_length="424.26" d="M451,1032.5 L291.5,1032 L119.5,1032 " />
<path id="177" stroke-linecap="round" stroke="#6566CC" stroke-width="0.9013421519040374" fill="none" moovel_name="North South Line (NS)" moovel_neighborhood="Central" moovel_area="1845.65" moovel_cumulative_area="1170893.46" moovel_length="424.26" d="M118,1032.5 L10.5,1033 L10.5,1034 L10.5,1035 L11.5,1035.5 L232.5,1035.5 " />
<path id="178" stroke-linecap="round" stroke="#6566CC" stroke-width="0.9013421519040374" fill="none" moovel_name="MRT East West Line (EW)" moovel_neighborhood="Central" moovel_area="2146.43" moovel_cumulative_area="1173039.90" moovel_length="493.40" d="M235,1035.5 L587.5,1036 L588.5,1036.5 L588.5,1037 L588.5,1038 L587.5,1038.5 L558.5,1038.5 " />
<path id="179" stroke-linecap="round" stroke="#6566CC" stroke-width="0.9013421519040374" fill="none" moovel_name="MRT East West Line (EW)" moovel_neighborhood="Southeast" moovel_area="2497.74" moovel_cumulative_area="1175537.64" moovel_length="574.15" d="M557,1038.5 L549,1038 L302.5,1037.5 L108.5,1037.5 " />
<path id="180" stroke-linecap="round" stroke="#6566CC" stroke-width="0.9013421519040374" fill="none" moovel_name="North South Line (NS)" moovel_neighborhood="Central" moovel_area="2956.11" moovel_cumulative_area="1178493.75" moovel_length="679.52" d="M107,1038.5 L10.5,1039.5 L10.5,1040 L11,1040.5 L11.5,1041 L425.5,1040.5 L440.5,1041 L443.5,1041 " />
<path id="181" stroke-linecap="round" stroke="#6566CC" stroke-width="0.9013421519040374" fill="none" moovel_name="MRT East West Line (EW)" moovel_neighborhood="Central" moovel_area="2147.64" moovel_cumulative_area="1180641.38" moovel_length="493.67" d="M445.5,1041 L451,1041.5 L588.5,1042 L588.5,1043 L588.5,1043.5 L587.5,1044 L347.5,1044 " />
<path id="182" stroke-linecap="round" stroke="#6566CC" stroke-width="0.9013421519040374" fill="none" moovel_name="North South Line (NS)" moovel_neighborhood="Central" moovel_area="2943.93" moovel_cumulative_area="1183585.31" moovel_length="676.72" d="M345.5,1044 L178,1044.5 L11,1045 L10.5,1045.5 L11,1046.5 L11.5,1047 L202.5,1047 " />
<path id="183" stroke-linecap="round" stroke="#6566CC" stroke-width="0.9013421519040374" fill="none" moovel_name="MRT East West Line (EW)" moovel_neighborhood="Central" moovel_area="11498.92" moovel_cumulative_area="1195084.23" moovel_length="2643.23" d="M204.5,1047 L231,1046.5 L541.5,1046 L587.5,1046.5 L588,1047 L588.5,1047.5 L588,1048.5 L588,1049 L587,1049.5 L442.5,1050 L84.5,1050.5 L11,1051 L11,1051.5 L11,1052.5 L326,1052 L588,1053 L588.5,1054 L588,1054.5 L587.5,1055 L554,1055.5 L109.5,1056 L66,1055.5 " />
<path id="184" stroke-linecap="round" stroke="#6566CC" stroke-width="0.9013421519040374" fill="none" moovel_name="MRT East West Line (EW)" moovel_neighborhood="Central" moovel_area="11535.43" moovel_cumulative_area="1206619.67" moovel_length="2651.63" d="M64,1055.5 L30.5,1056 L11,1056.5 L10.5,1057 L11,1058 L12,1058.5 L31.5,1058 L371,1057.5 L588,1058 L588.5,1059 L588,1060 L587.5,1060.5 L587,1061 L283.5,1061.5 L11,1062 L11,1062.5 L10.5,1063 L11,1063.5 L11.5,1064 L165.5,1063.5 L451.5,1063 L588,1063.5 L588.5,1064.5 L588,1065.5 L587.5,1066 L587,1066.5 L351,1067 L308.5,1066.5 " />
<path id="185" stroke-linecap="round" stroke="#6566CC" stroke-width="0.9013421519040374" fill="none" moovel_name="North South Line (NS)" moovel_neighborhood="Central" moovel_area="8916.04" moovel_cumulative_area="1215535.71" moovel_length="2049.51" d="M307,1067 L143.5,1066.5 L11,1067 L10.5,1067.5 L10,1068.5 L10.5,1069.5 L12,1070 L234,1070.5 L494.5,1071 L588.5,1071.5 L589,1072 L588.5,1072.5 L587.5,1073 L365.5,1072.5 L54,1072 L11,1072.5 L10.5,1073 L10,1074 L10.5,1075 L11,1075.5 L113.5,1076 L156,1075.5 " />
<path id="186" stroke-linecap="round" stroke="#6566CC" stroke-width="0.9013421519040374" fill="none" moovel_name="MRT East West Line (EW)" moovel_neighborhood="Central" moovel_area="18757.53" moovel_cumulative_area="1234293.24" moovel_length="4311.76" d="M158.5,1075.5 L588.5,1076 L588.5,1076.5 L588.5,1077 L588,1077.5 L587,1078 L286,1078.5 L11,1079 L10.5,1080 L10.5,1080.5 L10.5,1081.5 L11.5,1082 L134,1081.5 L588.5,1082 L588.5,1082.5 L588.5,1083 L588,1083.5 L542.5,1084 L11.5,1084.5 L10.5,1085 L10,1086 L10,1086.5 L11,1087.5 L11.5,1088 L177.5,1087.5 L588.5,1088 L589,1088.5 L588.5,1089 L587.5,1089.5 L158,1090 L10.5,1090.5 L10.5,1091.5 L10.5,1092.5 L11,1093 L54,1093 " />
<path id="187" stroke-linecap="round" stroke="#6566CC" stroke-width="0.9013421519040374" fill="none" moovel_name="North South Line (NS)" moovel_neighborhood="Central" moovel_area="8836.61" moovel_cumulative_area="1243129.84" moovel_length="2031.25" d="M56,1093 L128,1093.5 L389,1094 L588,1094.5 L589,1095.5 L588.5,1096 L588,1096.5 L451.5,1096 L133,1095.5 L11,1096 L10.5,1096.5 L10,1097.5 L10.5,1098.5 L11,1099 L102,1099.5 L485.5,1099.5 " />
<path id="188" stroke-linecap="round" stroke="#6566CC" stroke-width="0.9013421519040374" fill="none" moovel_name="North South Line (NS)" moovel_neighborhood="Central" moovel_area="35849.65" moovel_cumulative_area="1278979.50" moovel_length="8240.69" d="M487.5,1099 L588,1099.5 L588.5,1100 L588.5,1100.5 L588,1101.5 L406,1101 L125,1100.5 L10.5,1101 L10,1102 L10.5,1103 L11,1103.5 L11.5,1104 L209.5,1104.5 L528,1105 L589,1106 L588.5,1106.5 L588,1107 L332.5,1106.5 L61.5,1106 L10.5,1107 L10,1107.5 L10.5,1108.5 L11,1109.5 L62.5,1110 L301,1110.5 L534,1111 L589,1111.5 L589,1112 L588.5,1112.5 L588,1113 L484.5,1112.5 L264,1112 L43.5,1111.5 L10.5,1112 L10,1113 L10,1114 L10.5,1115 L11.5,1115.5 L141.5,1116 L379.5,1116.5 L588.5,1117 L589,1117.5 L589,1118 L587.5,1118.5 L467,1118 L228,1117.5 L10.5,1118 L10,1118.5 L10,1120 L10.5,1121 L11.5,1121.5 L191,1122 L411.5,1122.5 L588.5,1123 L589,1123.5 L589,1124 L587.5,1124.5 L523.5,1124 L284.5,1123.5 L46,1123 L11.5,1123.5 L10.5,1124 L10,1124.5 L10,1126 L10.5,1126.5 L11.5,1127 L120,1127.5 L359,1128 L588.5,1128.5 L589,1129 L589,1129.5 L588.5,1130 L587.5,1130.5 L512.5,1130 L274,1129.5 L39.5,1129.5 " />
<path id="189" stroke-linecap="round" stroke="#6566CC" stroke-width="0.9013421519040374" fill="none" moovel_name="North South Line (NS)" moovel_neighborhood="Central" moovel_area="6454.46" moovel_cumulative_area="1285433.95" moovel_length="1483.67" d="M38,1130.5 L11,1131 L10.5,1131.5 L10.5,1132.5 L11,1133 L11.5,1133.5 L55.5,1133 L293.5,1132.5 L535.5,1132 L588,1132.5 L588,1133.5 L588,1134 L588,1135 L587.5,1135.5 L460,1136 L221.5,1136.5 L37,1136.5 " />
<path id="190" stroke-linecap="round" stroke="#6566CC" stroke-width="0.9013421519040374" fill="none" moovel_name="Circle Line MRT" moovel_neighborhood="Southeast" moovel_area="16053.72" moovel_cumulative_area="1301487.67" moovel_length="3690.24" d="M35.5,1136 L11,1136.5 L10.5,1137 L10.5,1137.5 L10.5,1138.5 L11,1139 L15,1139.5 L373.5,1140 L588.5,1140.5 L589,1141 L588.5,1142 L587,1142.5 L573.5,1142 L287.5,1141.5 L10.5,1142 L10,1143 L10,1144 L10.5,1144.5 L11.5,1145 L156,1145.5 L466.5,1146 L589,1146.5 L589,1147 L588.5,1147.5 L587.5,1148 L445.5,1147.5 L127,1147 L10.5,1147.5 L10,1148.5 L10,1149.5 L11,1150.5 L68,1151 L354,1151.5 L552.5,1151.5 " />
<path id="191" stroke-linecap="round" stroke="#6566CC" stroke-width="0.9013421519040374" fill="none" moovel_name="Circle Line MRT" moovel_neighborhood="Southeast" moovel_area="270.61" moovel_cumulative_area="1301758.28" moovel_length="62.20" d="M554.5,1150.5 L588,1151 L588.5,1151.5 L588.5,1152 L588.5,1153 L587.5,1153.5 L576,1153.5 " />
<path id="192" stroke-linecap="round" stroke="#6566CC" stroke-width="0.9013421519040374" fill="none" moovel_name="Circle Line MRT" moovel_neighborhood="Southeast" moovel_area="140.81" moovel_cumulative_area="1301899.09" moovel_length="32.37" d="M574.5,1153.5 L550,1153.5 " />
<path id="193" stroke-linecap="round" stroke="#6566CC" stroke-width="0.9013421519040374" fill="none" moovel_name="Downtown Line MRT" moovel_neighborhood="Northwest" moovel_area="2680.11" moovel_cumulative_area="1304579.20" moovel_length="616.07" d="M548.5,1153.5 L425,1153 L94.5,1152.5 L67,1153 " />
<path id="194" stroke-linecap="round" stroke="#6566CC" stroke-width="0.9013421519040374" fill="none" moovel_name="Downtown Line MRT" moovel_neighborhood="Northwest" moovel_area="1006.95" moovel_cumulative_area="1305586.15" moovel_length="231.46" d="M64.5,1153.5 L11,1154 L10.5,1155 L10.5,1155.5 L11,1156 L12,1156.5 L135,1156.5 " />
<path id="195" stroke-linecap="round" stroke="#6566CC" stroke-width="0.9013421519040374" fill="none" moovel_name="Downtown Line MRT" moovel_neighborhood="Northwest" moovel_area="2057.27" moovel_cumulative_area="1307643.42" moovel_length="472.90" d="M136.5,1156.5 L383.5,1157 L506,1157 " />
<path id="196" stroke-linecap="round" stroke="#6566CC" stroke-width="0.9013421519040374" fill="none" moovel_neighborhood="Northeast" moovel_area="5916.19" moovel_cumulative_area="1313559.61" moovel_length="3668.06" d="M507.5,1156.5 L587.5,1157 L589,1158 L588.5,1158.5 L588,1159 L419.5,1158.5 L180.5,1158 L10.5,1158.5 L10,1159.5 L10,1160.5 L10.5,1161.5 L11.5,1162 L201,1162.5 L405.5,1163 L588.5,1163.5 L589,1164 L588.5,1164.5 L587.5,1165 L488,1164.5 L283.5,1164 L78.5,1163.5 L11,1164 L10,1164.5 L10,1165.5 L10,1166.5 L11,1167.5 L87,1168 L307.5,1168.5 L528,1169 L589,1169.5 L589,1170 L588.5,1170.5 L587.5,1171 L539,1170.5 L334.5,1170 L120,1170 " />
<path id="197" stroke-linecap="round" stroke="#6566CC" stroke-width="0.9013421519040374" fill="none" moovel_name="Bukit Panjang LRT Depot" moovel_neighborhood="Southwest" moovel_area="64.92" moovel_cumulative_area="1313624.53" moovel_length="40.25" d="M118,1171 L87.5,1171 " />
<path id="198" stroke-linecap="round" stroke="#6566CC" stroke-width="0.9013421519040374" fill="none" moovel_neighborhood="Northeast" moovel_area="8122.87" moovel_cumulative_area="1321747.40" moovel_length="5036.20" d="M86,1171 L11.5,1171.5 L10.5,1172.5 L11,1173 L11,1173.5 L143,1173 L364,1172.5 L584,1172 L587,1172.5 L588,1173.5 L588,1174.5 L588,1175.5 L587.5,1176 L507,1176.5 L302,1177 L97.5,1177.5 L11,1178 L11,1178.5 L11,1179 L228.5,1178.5 L449,1178 L587.5,1179 L588,1180 L588,1181 L587.5,1181.5 L587,1182 L515,1182.5 L295,1183 L74.5,1183.5 L11,1184 L11,1184.5 L11.5,1185 L150,1184.5 L410.5,1184 L587.5,1184.5 L588,1185.5 L588,1186.5 L587.5,1187.5 L587.5,1188 L392,1188.5 L131.5,1189 L11,1189.5 L11,1190 L11,1190.5 L11.5,1191 L147.5,1190.5 L368,1190 L396,1190.5 " />
<path id="199" stroke-linecap="round" stroke="#6566CC" stroke-width="0.9013421519040374" fill="none" moovel_neighborhood="Southwest" moovel_area="162.51" moovel_cumulative_area="1321909.91" moovel_length="100.76" d="M398,1191 L476,1191 " />
<path id="200" stroke-linecap="round" stroke="#6566CC" stroke-width="0.9013421519040374" fill="none" moovel_name="Sentosa Express" moovel_neighborhood="Central" moovel_area="1745.52" moovel_cumulative_area="1323655.43" moovel_length="1082.23" d="M478,1191 L543,1190.5 L587.5,1191 L588,1191.5 L588.5,1192 L588,1193 L588,1193.5 L587,1194 L457.5,1194.5 L171,1195 L11,1195.5 L10.5,1196 L10.5,1197 L11,1197.5 L165,1197.5 " />
<path id="201" stroke-linecap="round" stroke="#6566CC" stroke-width="0.9013421519040374" fill="none" moovel_neighborhood="Southwest" moovel_area="20.69" moovel_cumulative_area="1323676.12" moovel_length="12.83" d="M167,1197 L176.5,1197 " />
<path id="202" stroke-linecap="round" stroke="#6566CC" stroke-width="0.9013421519040374" fill="none" moovel_name="Sentosa Express" moovel_neighborhood="Southwest" moovel_area="221.34" moovel_cumulative_area="1323897.47" moovel_length="137.23" d="M178,1197 L183,1196.5 L264,1197 L285,1197 " />
<path id="203" stroke-linecap="round" stroke="#6566CC" stroke-width="0.9013421519040374" fill="none" moovel_name="Sentosa Express" moovel_neighborhood="Southwest" moovel_area="1122.84" moovel_cumulative_area="1325020.31" moovel_length="696.16" d="M286.5,1197 L290.5,1196.5 L587.5,1197 L588,1197.5 L588.5,1198 L588,1199 L587.5,1199.5 L502.5,1200 L348,1200 " />
<path id="204" stroke-linecap="round" stroke="#6566CC" stroke-width="0.9013421519040374" fill="none" moovel_name="Sentosa Express" moovel_neighborhood="Southwest" moovel_area="225.74" moovel_cumulative_area="1325246.05" moovel_length="139.96" d="M346,1199.5 L341.5,1200 L246,1199.5 L238.5,1200 L237,1200 " />
<path id="205" stroke-linecap="round" stroke="#6566CC" stroke-width="0.9013421519040374" fill="none" moovel_name="Sentosa Express" moovel_neighborhood="Southwest" moovel_area="1765.80" moovel_cumulative_area="1327011.84" moovel_length="1094.80" d="M235,1199.5 L234.5,1200 L11.5,1200.5 L10.5,1201 L11,1202 L11,1202.5 L453.5,1202 L588,1202.5 L588.5,1203 L588.5,1204 L588,1205 L587.5,1205.5 L538.5,1205.5 " />
<path id="206" stroke-linecap="round" stroke="#6566CC" stroke-width="0.9013421519040374" fill="none" moovel_neighborhood="Northeast" moovel_area="9320.71" moovel_cumulative_area="1336332.56" moovel_length="5778.87" d="M537,1205.5 L492,1206 L323.5,1206.5 L155.5,1207 L11.5,1207.5 L11,1208 L11,1208.5 L11.5,1209 L139,1208.5 L329.5,1208 L520,1207.5 L587.5,1208 L588,1208.5 L588,1209.5 L588,1210.5 L587.5,1211.5 L536,1212 L358,1212.5 L179,1213 L11.5,1213.5 L11,1214 L11,1214.5 L12,1215 L22,1214.5 L190.5,1214 L359,1213.5 L527.5,1213 L587.5,1213.5 L587.5,1214 L588,1215 L587.5,1216 L587.5,1217 L587,1217.5 L457.5,1218 L298,1218.5 L139.5,1219 L11.5,1219.5 L11,1220 L11.5,1220.5 L146,1220 L289,1219.5 L432,1219 L575.5,1218.5 L587.5,1219 L588,1220 L588,1221 L587.5,1222 L587.5,1222.5 L586.5,1223 L439.5,1223.5 L289,1224 L138,1224.5 L11,1225 L11,1225.5 L11,1226 L11.5,1226.5 L107,1226 L250,1225.5 L393,1225 L526,1225 " />
<path id="207" stroke-linecap="round" stroke="#6566CC" stroke-width="0.9013421519040374" fill="none" moovel_neighborhood="Northeast" moovel_area="6551.05" moovel_cumulative_area="1342883.61" moovel_length="4061.67" d="M528,1225.5 L588,1226 L588,1227 L588,1228 L587.5,1228.5 L587,1229 L435.5,1229.5 L256.5,1230 L77.5,1230.5 L11,1231 L11,1231.5 L11.5,1232 L199.5,1231.5 L390.5,1231 L581,1230.5 L587.5,1231 L588,1232 L588,1233 L588,1234 L587.5,1234.5 L587,1235 L412,1235.5 L221,1236 L29.5,1236.5 L11,1237 L11,1237.5 L11.5,1238 L72.5,1237.5 L241,1237 L409,1236.5 L578,1236 L587.5,1236.5 L588,1237.5 L588,1238.5 L587.5,1239.5 L587.5,1240 L586.5,1240.5 L398.5,1241 L207,1241.5 L16,1242 L11,1242.5 L11,1243 L11.5,1243.5 L12,1244 L65,1243.5 L228,1243.5 " />
<path id="208" stroke-linecap="round" stroke="#6566CC" stroke-width="0.9013421519040374" fill="none" moovel_neighborhood="Northeast" moovel_area="6532.74" moovel_cumulative_area="1349416.35" moovel_length="4050.32" d="M230,1243 L253.5,1242.5 L422,1242 L587.5,1242.5 L588,1243 L588,1244 L587.5,1245 L587.5,1245.5 L534.5,1246 L365.5,1246.5 L197,1247 L29,1247.5 L11,1248 L11,1248.5 L11,1249 L120,1248.5 L298.5,1248 L477,1247.5 L587.5,1248 L588,1249 L588,1250 L587.5,1251 L587.5,1251.5 L506,1252 L315,1252.5 L124,1253 L11,1253.5 L11,1254 L11.5,1254.5 L162.5,1254 L331,1253.5 L499.5,1253 L587.5,1253.5 L588,1254 L588,1255 L588,1256 L587.5,1256.5 L587,1257 L457.5,1257.5 L288.5,1258 L120.5,1258.5 L98.5,1258 " />
<path id="209" stroke-linecap="round" stroke="#6566CC" stroke-width="0.9013421519040374" fill="none" moovel_name="Bukit Panjang LRT" moovel_neighborhood="Northwest" moovel_area="337.52" moovel_cumulative_area="1349753.87" moovel_length="209.27" d="M96.5,1257.5 L10.5,1258 L10.5,1259 L11,1259.5 L11.5,1260 L86,1260 " />
<path id="210" stroke-linecap="round" stroke="#6566CC" stroke-width="0.9013421519040374" fill="none" moovel_name="Sentosa Express" moovel_neighborhood="Southwest" moovel_area="1116.77" moovel_cumulative_area="1350870.64" moovel_length="692.40" d="M87.5,1260 L426,1259.5 L588,1260 L588.5,1261 L588.5,1261.5 L588,1262 L587,1262.5 L550,1262.5 " />
<path id="211" stroke-linecap="round" stroke="#6566CC" stroke-width="0.9013421519040374" fill="none" moovel_name="Sentosa Express" moovel_neighborhood="Central" moovel_area="47.20" moovel_cumulative_area="1350917.84" moovel_length="29.26" d="M548,1263 L526,1263 " />
<path id="212" stroke-linecap="round" stroke="#6566CC" stroke-width="0.9013421519040374" fill="none" moovel_neighborhood="Northeast" moovel_area="7741.47" moovel_cumulative_area="1358659.30" moovel_length="4799.73" d="M523.5,1263 L420,1262.5 L217.5,1262 L13,1261.5 L11,1262 L10.5,1262.5 L10,1263.5 L10,1264.5 L11,1265 L12,1265.5 L84,1266 L263.5,1266.5 L442,1267 L588.5,1267.5 L589,1268 L589,1268.5 L587.5,1269 L536.5,1268.5 L357.5,1268 L178,1267.5 L10,1268 L10,1269 L10,1270.5 L10.5,1271 L11.5,1271.5 L115,1272 L294.5,1272.5 L473.5,1273 L589,1273.5 L589,1274 L588.5,1274.5 L433.5,1274 L254,1273.5 L75.5,1273 L10.5,1273.5 L10,1274.5 L10,1275.5 L10.5,1276.5 L11.5,1277 L94.5,1277.5 L299,1278 L503.5,1278.5 L588.5,1279 L589,1279.5 L589,1280 L588,1280.5 L488,1280 L290.5,1279.5 L246,1280 " />
<path id="213" stroke-linecap="round" stroke="#6566CC" stroke-width="0.9013421519040374" fill="none" moovel_neighborhood="Northeast" moovel_area="8038.95" moovel_cumulative_area="1366698.26" moovel_length="4984.18" d="M244.5,1280.5 L222.5,1280 L43,1279.5 L10.5,1280 L10,1281 L10,1282 L10.5,1282.5 L11,1283 L12,1283.5 L164.5,1284 L343,1284.5 L522.5,1285 L588.5,1285.5 L589,1286 L588.5,1286.5 L427.5,1286 L268.5,1285.5 L109.5,1285 L10,1286 L10,1287 L10,1288 L10.5,1288.5 L11.5,1289 L65,1289.5 L223.5,1290 L383,1290.5 L542.5,1291 L589,1291.5 L589,1292 L588,1292.5 L519,1292 L350.5,1291.5 L181.5,1291 L13,1290.5 L11.5,1291 L10,1292 L10,1293.5 L10.5,1294 L11.5,1295 L135,1295.5 L294.5,1296 L453.5,1296.5 L588,1297 L589,1297.5 L589,1298 L587.5,1298.5 L508.5,1298 L349.5,1297.5 L190.5,1297 L31.5,1296.5 L11,1297 L10.5,1297.5 L10,1298.5 L10,1299.5 L11,1300 L11.5,1300.5 L143,1301 L196.5,1301 " />
<path id="214" stroke-linecap="round" stroke="#6566CC" stroke-width="0.9013421519040374" fill="none" moovel_neighborhood="Northeast" moovel_area="6368.47" moovel_cumulative_area="1373066.73" moovel_length="3948.47" d="M198.5,1300.5 L228.5,1301 L429,1301.5 L588,1302 L589,1302.5 L588.5,1303 L588,1303.5 L432,1303 L212,1302.5 L10.5,1303 L10,1304 L10,1305 L10.5,1306 L11.5,1306.5 L195,1307 L415.5,1307.5 L588,1308 L589,1308.5 L588.5,1309 L588,1309.5 L532,1309 L272,1308.5 L10,1309 L10,1310 L10,1311 L11,1312 L12,1312.5 L287.5,1313 L574.5,1313.5 L589,1314 L589,1314.5 L588,1315 L326,1314.5 L209.5,1314.5 " />
<path id="215" stroke-linecap="round" stroke="#6566CC" stroke-width="0.9013421519040374" fill="none" moovel_name="Bukit Panjang LRT" moovel_neighborhood="Northwest" moovel_area="4571.39" moovel_cumulative_area="1377638.12" moovel_length="2834.27" d="M207.5,1315 L110,1315.5 L11.5,1316 L11,1316.5 L11,1317 L11,1317.5 L11.5,1318 L80.5,1317.5 L183,1317 L285,1316.5 L387.5,1316 L489.5,1315.5 L588,1316 L588,1317 L588,1318 L587.5,1318.5 L587,1319 L558.5,1319.5 L456,1320 L353.5,1320.5 L251,1321 L149,1321.5 L46.5,1322 L11,1322.5 L11,1323 L11.5,1323.5 L12,1324 L21,1323.5 L123,1323 L226,1322.5 L327.5,1322 L430,1321.5 L532.5,1321 L588,1321.5 L588,1322.5 L588,1323.5 L588,1324 L587.5,1324.5 L557.5,1325 L447.5,1325.5 L345,1326 L309,1326 " />
<path id="216" stroke-linecap="round" stroke="#6566CC" stroke-width="0.9013421519040374" fill="none" moovel_name="Bukit Panjang LRT" moovel_neighborhood="Northwest" moovel_area="2493.08" moovel_cumulative_area="1380131.20" moovel_length="1545.72" d="M307,1326.5 L218.5,1326 L39.5,1325.5 L11,1326 L10.5,1326.5 L10,1327.5 L10.5,1328.5 L11,1329 L39.5,1329.5 L231,1330 L421.5,1330.5 L588,1331 L589,1331.5 L588.5,1332.5 L587,1333 L537,1332.5 L331.5,1332 L257.5,1332.5 " />
<path id="217" stroke-linecap="round" stroke="#6566CC" stroke-width="0.9013421519040374" fill="none" moovel_name="Bukit Panjang LRT" moovel_neighborhood="Northwest" moovel_area="15.13" moovel_cumulative_area="1380146.33" moovel_length="9.38" d="M256,1332.5 L249,1332.5 " />
<path id="218" stroke-linecap="round" stroke="#6566CC" stroke-width="0.9013421519040374" fill="none" moovel_name="Bukit Panjang LRT" moovel_neighborhood="Southwest" moovel_area="3744.26" moovel_cumulative_area="1383890.59" moovel_length="2321.45" d="M248,1332.5 L246,1332 L61,1331.5 L11,1332 L10.5,1332.5 L10,1333 L10.5,1334 L11,1335 L55.5,1335.5 L234,1336 L413.5,1336.5 L587.5,1337 L589,1337.5 L589,1338 L588,1338.5 L587.5,1339 L532.5,1338.5 L353.5,1338 L175,1337.5 L10.5,1338 L10,1339 L10.5,1340 L11,1340.5 L12,1341 L159.5,1341.5 L338,1342 L428,1342 " />
<path id="219" stroke-linecap="round" stroke="#6566CC" stroke-width="0.9013421519040374" fill="none" moovel_name="Bukit Panjang LRT" moovel_neighborhood="Northwest" moovel_area="332.23" moovel_cumulative_area="1384222.82" moovel_length="205.98" d="M430,1341 L588.5,1342 L588.5,1342.5 L588,1343.5 " />
<path id="220" stroke-linecap="round" stroke="#6566CC" stroke-width="0.9013421519040374" fill="none" moovel_name="Bukit Panjang LRT" moovel_neighborhood="Northwest" moovel_area="884.15" moovel_cumulative_area="1385106.96" moovel_length="548.17" d="M586.5,1344 L383.5,1344.5 L372,1344 L284,1344.5 L158.5,1344.5 " />
<path id="221" stroke-linecap="round" stroke="#6566CC" stroke-width="0.9013421519040374" fill="none" moovel_name="Bukit Panjang LRT" moovel_neighborhood="Southwest" moovel_area="26.60" moovel_cumulative_area="1385133.57" moovel_length="16.49" d="M156.5,1344 L144.5,1344 " />
<path id="222" stroke-linecap="round" stroke="#6566CC" stroke-width="0.9013421519040374" fill="none" moovel_name="Bukit Panjang LRT" moovel_neighborhood="Southwest" moovel_area="35.21" moovel_cumulative_area="1385168.77" moovel_length="21.83" d="M142.5,1344 L126,1344 " />
<path id="223" stroke-linecap="round" stroke="#6566CC" stroke-width="0.9013421519040374" fill="none" moovel_name="Bukit Panjang LRT" moovel_neighborhood="Northwest" moovel_area="851.78" moovel_cumulative_area="1386020.55" moovel_length="528.11" d="M125,1344 L11.5,1344.5 L10.5,1345.5 L11,1346 L11.5,1346.5 L307,1346.5 " />
<path id="224" stroke-linecap="round" stroke="#6566CC" stroke-width="0.9013421519040374" fill="none" moovel_name="Bukit Panjang LRT" moovel_neighborhood="Southwest" moovel_area="3717.64" moovel_cumulative_area="1389738.20" moovel_length="2304.95" d="M308.5,1346.5 L309.5,1347 L491,1347.5 L588.5,1348 L589,1348.5 L588.5,1349 L588,1349.5 L405.5,1349 L214,1348.5 L23.5,1348 L11,1348.5 L10.5,1349 L10,1350 L10.5,1351 L11,1351.5 L12,1352 L190,1352.5 L394.5,1353 L587.5,1353.5 L589,1354 L588.5,1354.5 L588,1355 L587.5,1355.5 L491.5,1355 L278,1354.5 L226.5,1354.5 " />
<path id="225" stroke-linecap="round" stroke="#6566CC" stroke-width="0.9013421519040374" fill="none" moovel_name="Bukit Panjang LRT" moovel_neighborhood="Northwest" moovel_area="361.43" moovel_cumulative_area="1390099.63" moovel_length="224.09" d="M224,1355.5 L49.5,1355.5 " />
<path id="226" stroke-linecap="round" stroke="#6566CC" stroke-width="0.9013421519040374" fill="none" moovel_name="Bukit Panjang LRT" moovel_neighborhood="Northwest" moovel_area="4559.65" moovel_cumulative_area="1394659.28" moovel_length="2827.00" d="M48,1355.5 L11,1356 L10.5,1356.5 L10.5,1357.5 L11,1358 L148.5,1357.5 L254.5,1357 L360.5,1356.5 L466.5,1356 L573,1355.5 L587.5,1356 L588,1356.5 L588,1357.5 L588,1358.5 L587.5,1359 L587,1359.5 L527.5,1360 L421.5,1360.5 L315,1361 L209.5,1361.5 L103.5,1362 L11.5,1362.5 L11,1363 L11,1363.5 L11.5,1364 L71.5,1363.5 L174,1363 L276.5,1362.5 L378.5,1362 L481.5,1361.5 L583.5,1361 L587.5,1361.5 L588,1362 L588,1362.5 L588,1363.5 L588,1364.5 L587.5,1365 L535,1365.5 L429,1366 L322.5,1366.5 L219,1367 L155,1367 " />
<path id="227" stroke-linecap="round" stroke="#6566CC" stroke-width="0.9013421519040374" fill="none" moovel_name="Bukit Panjang LRT" moovel_neighborhood="Northwest" moovel_area="360.38" moovel_cumulative_area="1395019.66" moovel_length="223.44" d="M153,1367 L10.5,1367.5 L10.5,1368.5 L11,1369 L11.5,1369.5 L40.5,1369.5 " />
<path id="228" stroke-linecap="round" stroke="#6566CC" stroke-width="0.9013421519040374" fill="none" moovel_name="Bukit Panjang LRT" moovel_neighborhood="Northwest" moovel_area="2510.85" moovel_cumulative_area="1397530.51" moovel_length="1556.73" d="M42.5,1370 L201.5,1370.5 L380.5,1371 L559.5,1371.5 L589,1372 L589,1372.5 L588.5,1373 L587.5,1373.5 L518.5,1373 L340,1372.5 L160.5,1372 L10.5,1373 L10,1374 L10.5,1374.5 L11.5,1375 L13.5,1375.5 L100.5,1375.5 " />
<path id="229" stroke-linecap="round" stroke="#6566CC" stroke-width="0.9013421519040374" fill="none" moovel_name="Bukit Panjang LRT" moovel_neighborhood="Southwest" moovel_area="204.03" moovel_cumulative_area="1397734.54" moovel_length="126.50" d="M102,1375.5 L200.5,1375.5 " />
<path id="230" stroke-linecap="round" stroke="#6566CC" stroke-width="0.9013421519040374" fill="none" moovel_name="Bukit Panjang LRT" moovel_neighborhood="Southwest" moovel_area="68.52" moovel_cumulative_area="1397803.07" moovel_length="42.49" d="M202.5,1375.5 L235,1375.5 " />
</svg>
