<?xml version="1.0" encoding="UTF-8" standalone="no"?>
<svg width="603px" height="228px"  viewport="0 0 603 228" version="1.1" xmlns="http://www.w3.org/2000/svg" xmlns:xlink="http://www.w3.org/1999/xlink">
<path id="1" stroke-linecap="round" stroke="#6566CC" stroke-width="15.226593326747398" fill="none" moovel_name="GG Menara air" moovel_neighborhood="Tebet" moovel_area="461.96" moovel_cumulative_area="461.96" moovel_length="76.99" d="M27.5,10.5 L72.5,10.5 " />
<path id="2" stroke-linecap="round" stroke="#6566CC" stroke-width="15.226593326747398" fill="none" moovel_name="GG Menara Air" moovel_neighborhood="Tebet" moovel_area="332.48" moovel_cumulative_area="794.44" moovel_length="55.41" d="M92,10.5 L124.5,10.5 " />
<path id="3" stroke-linecap="round" stroke="#6566CC" stroke-width="15.226593326747398" fill="none" moovel_name="Sawo Kecik 5" moovel_neighborhood="Tebet" moovel_area="1827.48" moovel_cumulative_area="2621.92" moovel_length="304.58" d="M144,10.5 L248.5,11 L326.5,11 " />
<path id="4" stroke-linecap="round" stroke="#6566CC" stroke-width="15.226593326747398" fill="none" moovel_name="GG Keselamatan 2" moovel_neighborhood="Tebet" moovel_area="1893.73" moovel_cumulative_area="4515.65" moovel_length="315.62" d="M345.5,10.5 L534.5,10.5 " />
<path id="5" stroke-linecap="round" stroke="#6566CC" stroke-width="15.226593326747398" fill="none" moovel_name="jalan menara" moovel_neighborhood="Pasar Minggu" moovel_area="2601.66" moovel_cumulative_area="7117.31" moovel_length="433.61" d="M554,10.5 L605.5,11 L606.5,11.5 L607.5,12 L608.5,12.5 L609.5,13.5 L610.5,14.5 L611,15.5 L611.5,16.5 L611.5,17.5 L612,18.5 L612,20 L611.5,21 L611.5,22 L611,23.5 L610,24.5 L609.5,25 L608.5,26 L607.5,26.5 L606.5,27 L605,27.5 L564,28 L419,28 " />
<path id="6" stroke-linecap="round" stroke="#6566CC" stroke-width="15.226593326747398" fill="none" moovel_name="Kalibata Timur 4" moovel_neighborhood="Pancoran" moovel_area="2151.65" moovel_cumulative_area="9268.96" moovel_length="358.61" d="M399.5,28 L184.5,28 " />
<path id="7" stroke-linecap="round" stroke="#6566CC" stroke-width="15.226593326747398" fill="none" moovel_neighborhood="Jagakarsa" moovel_area="1063.72" moovel_cumulative_area="10332.68" moovel_length="177.29" d="M165.5,28 L159.5,27.5 L101.5,28 L60,27.5 " />
<path id="8" stroke-linecap="round" stroke="#6566CC" stroke-width="15.226593326747398" fill="none" moovel_area="88.89" moovel_cumulative_area="10421.57" moovel_length="53.49" d="M40.5,28 L38.5,27.5 L25,28 L22.5,28.5 L21.5,29 L20.5,30 L20,30.5 L19,31.5 L18.5,32.5 L18,33.5 L17.5,34.5 L17.5,36 L17.5,37 L18,38 L18,39.5 " />
<path id="9" stroke-linecap="round" stroke="#6566CC" stroke-width="15.226593326747398" fill="none" moovel_neighborhood="Cilandak" moovel_area="33.75" moovel_cumulative_area="10455.32" moovel_length="20.31" d="M35.5,45 L46.5,45 " />
<path id="10" stroke-linecap="round" stroke="#6566CC" stroke-width="15.226593326747398" fill="none" moovel_neighborhood="Cilandak" moovel_area="221.11" moovel_cumulative_area="10676.43" moovel_length="133.05" d="M66,45 L145,45 " />
<path id="11" stroke-linecap="round" stroke="#6566CC" stroke-width="15.226593326747398" fill="none" moovel_name="Jalan Harapan 4" moovel_area="90.31" moovel_cumulative_area="10766.74" moovel_length="54.34" d="M164,45 L196,45 " />
<path id="12" stroke-linecap="round" stroke="#6566CC" stroke-width="15.226593326747398" fill="none" moovel_area="104.93" moovel_cumulative_area="10871.67" moovel_length="63.14" d="M215.5,45 L252.5,45 " />
<path id="13" stroke-linecap="round" stroke="#6566CC" stroke-width="15.226593326747398" fill="none" moovel_area="76.77" moovel_cumulative_area="10948.44" moovel_length="46.20" d="M271.5,45 L298.5,45 " />
<path id="14" stroke-linecap="round" stroke="#6566CC" stroke-width="15.226593326747398" fill="none" moovel_area="56.06" moovel_cumulative_area="11004.50" moovel_length="33.73" d="M317.5,45 L337,45 " />
<path id="15" stroke-linecap="round" stroke="#6566CC" stroke-width="15.226593326747398" fill="none" moovel_area="180.11" moovel_cumulative_area="11184.61" moovel_length="30.02" d="M356.5,45 L373.5,45 " />
<path id="16" stroke-linecap="round" stroke="#6566CC" stroke-width="15.226593326747398" fill="none" moovel_area="117.49" moovel_cumulative_area="11302.10" moovel_length="19.58" d="M393,45 L403.5,45 " />
<path id="17" stroke-linecap="round" stroke="#6566CC" stroke-width="15.226593326747398" fill="none" moovel_area="90.03" moovel_cumulative_area="11392.13" moovel_length="15.00" d="M423,45 L431,45 " />
<path id="18" stroke-linecap="round" stroke="#6566CC" stroke-width="15.226593326747398" fill="none" moovel_neighborhood="Ciracas" moovel_area="64.15" moovel_cumulative_area="11456.28" moovel_length="10.69" d="M450.5,45 L456,45 " />
<path id="19" stroke-linecap="round" stroke="#6566CC" stroke-width="15.226593326747398" fill="none" moovel_neighborhood="Ciracas" moovel_area="478.01" moovel_cumulative_area="11934.29" moovel_length="79.67" d="M474.5,45 L521.5,45 " />
<path id="20" stroke-linecap="round" stroke="#6566CC" stroke-width="15.226593326747398" fill="none" moovel_neighborhood="Ciracas" moovel_area="486.03" moovel_cumulative_area="12420.32" moovel_length="81.00" d="M541.5,45 L589,45 " />
<path id="21" stroke-linecap="round" stroke="#6566CC" stroke-width="15.226593326747398" fill="none" moovel_neighborhood="Ciracas" moovel_area="581.63" moovel_cumulative_area="13001.95" moovel_length="96.94" d="M608,46.5 L609,47.5 L610,48 L610.5,49 L611,50 L611.5,51.5 L611.5,52.5 L612,53.5 L611.5,55 L611.5,56 L611,57 L610.5,58 L609.5,59 L609,60 L608,61 L607,61.5 L606,62 L568,62 " />
<path id="22" stroke-linecap="round" stroke="#6566CC" stroke-width="15.226593326747398" fill="none" moovel_name="GG Al Barkah" moovel_neighborhood="Tebet" moovel_area="1157.72" moovel_cumulative_area="14159.67" moovel_length="192.95" d="M548.5,62 L433,62 " />
<path id="23" stroke-linecap="round" stroke="#6566CC" stroke-width="15.226593326747398" fill="none" moovel_name="GG Al Barkah 2" moovel_neighborhood="Tebet" moovel_area="1317.01" moovel_cumulative_area="15476.68" moovel_length="219.50" d="M413.5,62 L394,62.5 L282.5,62 " />
<path id="24" stroke-linecap="round" stroke="#6566CC" stroke-width="15.226593326747398" fill="none" moovel_name="GG Kebon Sayur" moovel_neighborhood="Tebet" moovel_area="332.68" moovel_cumulative_area="15809.36" moovel_length="55.45" d="M263,62 L230.5,62 " />
<path id="25" stroke-linecap="round" stroke="#6566CC" stroke-width="15.226593326747398" fill="none" moovel_name="GG Terajana by PHERMANA" moovel_neighborhood="Tebet" moovel_area="1058.72" moovel_cumulative_area="16868.08" moovel_length="176.45" d="M211.5,62 L106.5,62 " />
<path id="26" stroke-linecap="round" stroke="#6566CC" stroke-width="15.226593326747398" fill="none" moovel_name="GG Barkah 1" moovel_neighborhood="Tebet" moovel_area="545.46" moovel_cumulative_area="17413.54" moovel_length="90.91" d="M87.5,62 L33.5,62 " />
<path id="27" stroke-linecap="round" stroke="#6566CC" stroke-width="15.226593326747398" fill="none" moovel_name="Sawo Kecik 7-8" moovel_neighborhood="Tebet" moovel_area="2017.24" moovel_cumulative_area="19430.78" moovel_length="336.21" d="M18,69.5 L17.5,70.5 L17.5,71.5 L18,73 L18.5,74 L19,75 L19.5,76 L20,76.5 L21,77.5 L22,78 L23,78.5 L24,79 L26.5,79.5 L60.5,79 L212.5,79 " />
<path id="29" stroke-linecap="round" stroke="#6566CC" stroke-width="15.226593326747398" fill="none" moovel_name="GG Hairunh Nissa" moovel_neighborhood="Tebet" moovel_area="498.46" moovel_cumulative_area="19929.24" moovel_length="83.08" d="M232,79.5 L281,79.5 " />
<path id="30" stroke-linecap="round" stroke="#6566CC" stroke-width="15.226593326747398" fill="none" moovel_neighborhood="Tebet" moovel_area="662.29" moovel_cumulative_area="20591.53" moovel_length="110.38" d="M300.5,79.5 L365.5,79.5 " />
<path id="31" stroke-linecap="round" stroke="#6566CC" stroke-width="15.226593326747398" fill="none" moovel_name="GG Manggis 7" moovel_neighborhood="Tebet" moovel_area="1185.87" moovel_cumulative_area="21777.40" moovel_length="197.64" d="M385.5,79.5 L503.5,79.5 " />
<path id="32" stroke-linecap="round" stroke="#6566CC" stroke-width="15.226593326747398" fill="none" moovel_name="GG Barkah" moovel_neighborhood="Tebet" moovel_area="611.75" moovel_cumulative_area="22389.15" moovel_length="101.96" d="M522.5,79.5 L582.5,79.5 " />
<path id="33" stroke-linecap="round" stroke="#6566CC" stroke-width="15.226593326747398" fill="none" moovel_name="GG Damai" moovel_neighborhood="Tebet" moovel_area="1310.08" moovel_cumulative_area="23699.23" moovel_length="218.35" d="M602,79.5 L606.5,80 L608,80.5 L608.5,81.5 L609.5,82 L610.5,83 L611,84 L611.5,85 L612,86.5 L612,87.5 L612,88.5 L611.5,90 L611.5,91 L611,92 L610,93 L609.5,94 L608.5,94.5 L607.5,95.5 L606.5,96 L604,96.5 L501,96.5 " />
<path id="34" stroke-linecap="round" stroke="#6566CC" stroke-width="15.226593326747398" fill="none" moovel_name="GG Lebak" moovel_neighborhood="Tebet" moovel_area="801.83" moovel_cumulative_area="24501.06" moovel_length="133.64" d="M481,96.5 L402,96.5 " />
<path id="35" stroke-linecap="round" stroke="#6566CC" stroke-width="15.226593326747398" fill="none" moovel_name="GG Hanjuang" moovel_neighborhood="Tebet" moovel_area="709.93" moovel_cumulative_area="25210.99" moovel_length="118.32" d="M383,96.5 L312.5,96.5 " />
<path id="36" stroke-linecap="round" stroke="#6566CC" stroke-width="15.226593326747398" fill="none" moovel_neighborhood="Tebet" moovel_area="519.10" moovel_cumulative_area="25730.09" moovel_length="86.52" d="M293.5,96.5 L242.5,96.5 " />
<path id="37" stroke-linecap="round" stroke="#6566CC" stroke-width="15.226593326747398" fill="none" moovel_neighborhood="Tebet" moovel_area="670.44" moovel_cumulative_area="26400.53" moovel_length="111.74" d="M222.5,96.5 L156.5,96.5 " />
<path id="38" stroke-linecap="round" stroke="#6566CC" stroke-width="15.226593326747398" fill="none" moovel_area="584.00" moovel_cumulative_area="26984.53" moovel_length="97.33" d="M137.5,96.5 L86,96.5 " />
<path id="39" stroke-linecap="round" stroke="#6566CC" stroke-width="15.226593326747398" fill="none" moovel_neighborhood="Jagakarsa" moovel_area="8489.35" moovel_cumulative_area="35473.88" moovel_length="1414.89" d="M66.5,96.5 L28,97 L22.5,97.5 L21.5,98 L20.5,99 L20,99.5 L19,100.5 L18.5,101.5 L18,102.5 L18,104 L18,105 L18,106 L18,107 L18.5,108 L19,109 L19.5,110 L20,111 L21,111.5 L22,112.5 L23,113 L25,113.5 L606.5,114 L607.5,114.5 L608.5,115.5 L609.5,116 L610,117 L610.5,118 L611,119 L611.5,120 L611.5,121 L611.5,122.5 L611.5,123.5 L611.5,124.5 L611,125.5 L610.5,126.5 L610,127.5 L609,128.5 L608,129.5 L607,130 L606,130.5 L605,131 L423,131 " />
<path id="40" stroke-linecap="round" stroke="#6566CC" stroke-width="15.226593326747398" fill="none" moovel_neighborhood="Jagakarsa" moovel_area="4631.16" moovel_cumulative_area="40105.04" moovel_length="771.86" d="M403,131 L23.5,131.5 L22.5,132 L21.5,132.5 L20.5,133 L19.5,134 L19,135 L18.5,136 L18,137 L17.5,138.5 L17.5,139.5 L17.5,140.5 L18,142 L18.5,143 L19,144 L19.5,145 L20.5,146 L21,146.5 L22.5,147 L23.5,147.5 L24.5,148 L86.5,148 " />
<path id="41" stroke-linecap="round" stroke="#6566CC" stroke-width="15.226593326747398" fill="none" moovel_neighborhood="Mampang Prapatan" moovel_area="950.01" moovel_cumulative_area="41055.05" moovel_length="158.33" d="M105.5,148 L200,148 " />
<path id="42" stroke-linecap="round" stroke="#6566CC" stroke-width="15.226593326747398" fill="none" moovel_neighborhood="Pancoran" moovel_area="544.84" moovel_cumulative_area="41599.89" moovel_length="90.81" d="M219,148 L273,148 " />
<path id="43" stroke-linecap="round" stroke="#6566CC" stroke-width="15.226593326747398" fill="none" moovel_neighborhood="Jagakarsa" moovel_area="148.15" moovel_cumulative_area="41748.04" moovel_length="24.69" d="M292.5,148 L306,148 " />
<path id="44" stroke-linecap="round" stroke="#6566CC" stroke-width="15.226593326747398" fill="none" moovel_neighborhood="Kebayoran Baru" moovel_area="367.64" moovel_cumulative_area="42115.68" moovel_length="61.27" d="M325,148 L361,148 " />
<path id="45" stroke-linecap="round" stroke="#6566CC" stroke-width="15.226593326747398" fill="none" moovel_neighborhood="Pasar Minggu" moovel_area="1034.98" moovel_cumulative_area="43150.66" moovel_length="172.50" d="M380,148 L483,148 " />
<path id="46" stroke-linecap="round" stroke="#6566CC" stroke-width="15.226593326747398" fill="none" moovel_neighborhood="Kebayoran Baru" moovel_area="339.85" moovel_cumulative_area="43490.51" moovel_length="56.64" d="M502.5,148 L535.5,148 " />
<path id="47" stroke-linecap="round" stroke="#6566CC" stroke-width="15.226593326747398" fill="none" moovel_neighborhood="Kebayoran Baru" moovel_area="295.77" moovel_cumulative_area="43786.28" moovel_length="49.29" d="M554.5,148 L583,148 " />
<path id="48" stroke-linecap="round" stroke="#6566CC" stroke-width="15.226593326747398" fill="none" moovel_neighborhood="Mampang Prapatan" moovel_area="225.82" moovel_cumulative_area="44012.10" moovel_length="37.64" d="M602.5,148 L605.5,148.5 L606.5,149 L607.5,149.5 L608.5,150 L609.5,151 L610,151.5 L611,152.5 L611,153.5 L611.5,155 L611.5,156 L611.5,157 L611.5,158 L611.5,159.5 L611,160.5 L610.5,161.5 L609.5,162.5 L609,163 " />
<path id="49" stroke-linecap="round" stroke="#6566CC" stroke-width="15.226593326747398" fill="none" moovel_name="Jalan Haji Nawi" moovel_neighborhood="Cengkareng" moovel_area="201.84" moovel_cumulative_area="44213.94" moovel_length="67.28" d="M590,165.5 L550.5,165.5 " />
<path id="50" stroke-linecap="round" stroke="#6566CC" stroke-width="15.226593326747398" fill="none" moovel_name="unknown" moovel_neighborhood="Johar Baru" moovel_area="217.41" moovel_cumulative_area="44431.35" moovel_length="130.82" d="M531.5,165.5 L453.5,165.5 " />
<path id="51" stroke-linecap="round" stroke="#6566CC" stroke-width="15.226593326747398" fill="none" moovel_name="Jalan Lamporan" moovel_neighborhood="Kali Deres" moovel_area="1023.71" moovel_cumulative_area="45455.06" moovel_length="170.62" d="M434,165.5 L332.5,165.5 " />
<path id="52" stroke-linecap="round" stroke="#6566CC" stroke-width="15.226593326747398" fill="none" moovel_area="7182.47" moovel_cumulative_area="52637.53" moovel_length="1197.08" d="M312.5,165.5 L25.5,166 L23,166.5 L22,167 L21,167.5 L20,168 L19.5,169 L19,170 L18.5,171 L18,172.5 L18,173.5 L17.5,174.5 L18,176 L18,177 L18.5,178 L19,179 L20,180 L21,180.5 L22,181.5 L23,182 L24,182.5 L433,182.5 " />
<path id="53" stroke-linecap="round" stroke="#6566CC" stroke-width="15.226593326747398" fill="none" moovel_area="7902.61" moovel_cumulative_area="60540.14" moovel_length="1317.10" d="M452,182.5 L590,182 L604.5,182.5 L606.5,183 L607.5,183.5 L608.5,184 L609.5,185 L610,186 L610.5,187 L611,188 L611.5,189.5 L611.5,190.5 L611.5,191.5 L611.5,193 L611,194 L610.5,195 L610,196 L609.5,197 L608.5,198 L607.5,198.5 L606.5,199 L605.5,199.5 L492,200 L24,200.5 L22,201 L21,202 L20,202.5 L19.5,203.5 L18.5,204.5 L18,205.5 L18,207 L17.5,208 L17.5,209 L18,210.5 L18,211.5 L18.5,212.5 L19,213.5 L20,214.5 L21,215.5 L22,216 L23,216.5 L24,217 L36.5,217 " />
<path id="54" stroke-linecap="round" stroke="#6566CC" stroke-width="15.226593326747398" fill="none" moovel_area="559.30" moovel_cumulative_area="61099.44" moovel_length="93.22" d="M55.5,217 L110.5,217 " />
<path id="55" stroke-linecap="round" stroke="#6566CC" stroke-width="15.226593326747398" fill="none" moovel_area="145.33" moovel_cumulative_area="61244.77" moovel_length="24.22" d="M130,217 L143.5,217 " />
<path id="56" stroke-linecap="round" stroke="#6566CC" stroke-width="15.226593326747398" fill="none" moovel_neighborhood="Jatinegara" moovel_area="1017.92" moovel_cumulative_area="62262.69" moovel_length="306.25" d="M162.5,217 L336,217 " />
</svg>
