<?xml version="1.0" encoding="UTF-8" standalone="no"?>
<svg width="603px" height="393px"  viewport="0 0 603 393" version="1.1" xmlns="http://www.w3.org/2000/svg" xmlns:xlink="http://www.w3.org/1999/xlink">
<path id="1" stroke-linecap="round" stroke="#6566CC" stroke-width="26.74404347534142" fill="none" moovel_name="GG Menara air" moovel_neighborhood="Tebet" moovel_area="769.93" moovel_cumulative_area="769.93" moovel_length="76.99" d="M38,16.5 L83.5,16.5 " />
<path id="2" stroke-linecap="round" stroke="#6566CC" stroke-width="26.74404347534142" fill="none" moovel_name="GG Menara Air" moovel_neighborhood="Tebet" moovel_area="554.13" moovel_cumulative_area="1324.06" moovel_length="55.41" d="M116,16.5 L149,16.5 " />
<path id="3" stroke-linecap="round" stroke="#6566CC" stroke-width="26.74404347534142" fill="none" moovel_name="Sawo Kecik 5" moovel_neighborhood="Tebet" moovel_area="3045.80" moovel_cumulative_area="4369.85" moovel_length="304.58" d="M182,16.5 L364.5,16.5 " />
<path id="4" stroke-linecap="round" stroke="#6566CC" stroke-width="26.74404347534142" fill="none" moovel_name="GG Keselamatan 2" moovel_neighborhood="Tebet" moovel_area="3156.22" moovel_cumulative_area="7526.07" moovel_length="315.62" d="M397,16.5 L482.5,16 L586.5,16 " />
<path id="5" stroke-linecap="round" stroke="#6566CC" stroke-width="26.74404347534142" fill="none" moovel_name="jalan menara" moovel_neighborhood="Pasar Minggu" moovel_area="4336.10" moovel_cumulative_area="11862.17" moovel_length="433.61" d="M619,17.5 L620,18 L621,18.5 L622,19 L622.5,19.5 L623.5,20 L624,20.5 L624.5,21 L624.5,21.5 L625.5,22 L626,22.5 L626,23 L626.5,23.5 L626.5,24 L627,24.5 L627,25 L627.5,26 L627.5,26.5 L627.5,27 L628,27.5 L628,28 L628,28.5 L628,29 L628,30 L628,30.5 L628,31 L628,31.5 L628,32 L628,32.5 L627.5,33.5 L627.5,34 L627.5,34.5 L627,35 L627,35.5 L626.5,36 L626.5,36.5 L626,37 L626,37.5 L625.5,38 L625,38.5 L625,39 L624.5,39.5 L624,40 L623.5,40.5 L622.5,41 L622,41.5 L621.5,42 L620.5,42.5 L619.5,43 L618.5,43.5 L616.5,44 L392,44 " />
<path id="6" stroke-linecap="round" stroke="#6566CC" stroke-width="26.74404347534142" fill="none" moovel_name="Kalibata Timur 4" moovel_neighborhood="Pancoran" moovel_area="3586.08" moovel_cumulative_area="15448.25" moovel_length="358.61" d="M359.5,44 L144,44 " />
<path id="7" stroke-linecap="round" stroke="#6566CC" stroke-width="26.74404347534142" fill="none" moovel_neighborhood="Jagakarsa" moovel_area="1772.86" moovel_cumulative_area="17221.11" moovel_length="177.29" d="M112,44 L34,44.5 L32,45 L31,45.5 L30,46 L29.5,46.5 L28.5,47 L28,47.5 L27.5,48 L27,48.5 L26.5,49 L26,49.5 L26,50 L25.5,50.5 L25,51 L25,51.5 L24.5,52 L24.5,52.5 L24,53 L24,54 L24,54.5 L23.5,55 L23.5,55.5 L23.5,56 L23.5,56.5 L23.5,57.5 L23.5,58 L23.5,58.5 L23.5,59 L23.5,59.5 L23.5,60.5 L24,61 L24,61.5 L24,62 L24.5,62.5 L24.5,63 L24.5,63.5 L25,64 L25.5,64.5 L25.5,65.5 L26,66 L26.5,66.5 " />
<path id="8" stroke-linecap="round" stroke="#6566CC" stroke-width="26.74404347534142" fill="none" moovel_area="148.15" moovel_cumulative_area="17369.26" moovel_length="53.49" d="M57.5,71.5 L89.5,71.5 " />
<path id="9" stroke-linecap="round" stroke="#6566CC" stroke-width="26.74404347534142" fill="none" moovel_neighborhood="Cilandak" moovel_area="56.25" moovel_cumulative_area="17425.51" moovel_length="20.31" d="M122.5,71.5 L134,71.5 " />
<path id="10" stroke-linecap="round" stroke="#6566CC" stroke-width="26.74404347534142" fill="none" moovel_neighborhood="Cilandak" moovel_area="368.52" moovel_cumulative_area="17794.03" moovel_length="133.05" d="M166.5,71.5 L246,71.5 " />
<path id="11" stroke-linecap="round" stroke="#6566CC" stroke-width="26.74404347534142" fill="none" moovel_name="Jalan Harapan 4" moovel_area="150.51" moovel_cumulative_area="17944.55" moovel_length="54.34" d="M278.5,71.5 L310.5,71.5 " />
<path id="12" stroke-linecap="round" stroke="#6566CC" stroke-width="26.74404347534142" fill="none" moovel_area="174.88" moovel_cumulative_area="18119.43" moovel_length="63.14" d="M343.5,71.5 L351.5,72 L353.5,71.5 L381,71.5 " />
<path id="13" stroke-linecap="round" stroke="#6566CC" stroke-width="26.74404347534142" fill="none" moovel_area="127.95" moovel_cumulative_area="18247.38" moovel_length="46.20" d="M413.5,71.5 L441,71.5 " />
<path id="14" stroke-linecap="round" stroke="#6566CC" stroke-width="26.74404347534142" fill="none" moovel_area="93.43" moovel_cumulative_area="18340.82" moovel_length="33.73" d="M473.5,71.5 L493,71.5 " />
<path id="15" stroke-linecap="round" stroke="#6566CC" stroke-width="26.74404347534142" fill="none" moovel_area="300.19" moovel_cumulative_area="18641.00" moovel_length="30.02" d="M526,71.5 L543.5,71.5 " />
<path id="16" stroke-linecap="round" stroke="#6566CC" stroke-width="26.74404347534142" fill="none" moovel_area="195.81" moovel_cumulative_area="18836.81" moovel_length="19.58" d="M576,71.5 L587.5,71.5 " />
<path id="17" stroke-linecap="round" stroke="#6566CC" stroke-width="26.74404347534142" fill="none" moovel_area="150.05" moovel_cumulative_area="18986.86" moovel_length="15.00" d="M620,73 L621,73.5 L621.5,74 L622.5,74.5 L623,75 L624,75.5 L624,76 L624.5,76.5 L625,77 L625.5,77.5 L626,78 L626,78.5 " />
<path id="18" stroke-linecap="round" stroke="#6566CC" stroke-width="26.74404347534142" fill="none" moovel_neighborhood="Ciracas" moovel_area="106.91" moovel_cumulative_area="19093.77" moovel_length="10.69" d="M610.5,99.5 L604.5,99.5 " />
<path id="19" stroke-linecap="round" stroke="#6566CC" stroke-width="26.74404347534142" fill="none" moovel_neighborhood="Ciracas" moovel_area="796.68" moovel_cumulative_area="19890.45" moovel_length="79.67" d="M572.5,99.5 L570,99 L525.5,99.5 L525,99.5 " />
<path id="20" stroke-linecap="round" stroke="#6566CC" stroke-width="26.74404347534142" fill="none" moovel_neighborhood="Ciracas" moovel_area="810.05" moovel_cumulative_area="20700.50" moovel_length="81.00" d="M492,99.5 L489,99 L444,99.5 " />
<path id="21" stroke-linecap="round" stroke="#6566CC" stroke-width="26.74404347534142" fill="none" moovel_neighborhood="Ciracas" moovel_area="969.38" moovel_cumulative_area="21669.88" moovel_length="96.94" d="M411,99.5 L353.5,99.5 " />
<path id="22" stroke-linecap="round" stroke="#6566CC" stroke-width="26.74404347534142" fill="none" moovel_name="GG Al Barkah" moovel_neighborhood="Tebet" moovel_area="1929.53" moovel_cumulative_area="23599.41" moovel_length="192.95" d="M320.5,99.5 L318,99 L205,99 " />
<path id="23" stroke-linecap="round" stroke="#6566CC" stroke-width="26.74404347534142" fill="none" moovel_name="GG Al Barkah 2" moovel_neighborhood="Tebet" moovel_area="2195.01" moovel_cumulative_area="25794.42" moovel_length="219.50" d="M172.5,99.5 L41,99.5 " />
<path id="24" stroke-linecap="round" stroke="#6566CC" stroke-width="26.74404347534142" fill="none" moovel_name="GG Kebon Sayur" moovel_neighborhood="Tebet" moovel_area="554.47" moovel_cumulative_area="26348.88" moovel_length="55.45" d="M25.5,120 L25.5,120.5 L26,121 L26.5,121.5 L26.5,122 L27,122.5 L27.5,123 L28,123.5 L28.5,124 L29.5,124.5 L30,125 L31,125.5 L32,126 L33,126.5 L35.5,127 L55.5,127 " />
<path id="25" stroke-linecap="round" stroke="#6566CC" stroke-width="26.74404347534142" fill="none" moovel_name="GG Terajana by PHERMANA" moovel_neighborhood="Tebet" moovel_area="1764.54" moovel_cumulative_area="28113.42" moovel_length="176.45" d="M88,127 L193.5,127 " />
<path id="26" stroke-linecap="round" stroke="#6566CC" stroke-width="26.74404347534142" fill="none" moovel_name="GG Barkah 1" moovel_neighborhood="Tebet" moovel_area="909.10" moovel_cumulative_area="29022.51" moovel_length="90.91" d="M226.5,127 L281,127 " />
<path id="27" stroke-linecap="round" stroke="#6566CC" stroke-width="26.74404347534142" fill="none" moovel_name="Sawo Kecik 7-8" moovel_neighborhood="Tebet" moovel_area="3362.06" moovel_cumulative_area="32384.57" moovel_length="336.21" d="M313.5,127 L387.5,126.5 L515.5,126.5 " />
<path id="29" stroke-linecap="round" stroke="#6566CC" stroke-width="26.74404347534142" fill="none" moovel_name="GG Hairunh Nissa" moovel_neighborhood="Tebet" moovel_area="830.77" moovel_cumulative_area="33215.35" moovel_length="83.08" d="M548,127 L597,127 " />
<path id="30" stroke-linecap="round" stroke="#6566CC" stroke-width="26.74404347534142" fill="none" moovel_neighborhood="Tebet" moovel_area="1103.81" moovel_cumulative_area="34319.16" moovel_length="110.38" d="M626.5,135 L627,135.5 L627,136 L627.5,136.5 L627.5,137 L627.5,137.5 L628,138.5 L628,139 L628,139.5 L628,140 L628,140.5 L628,141 L628,142 L628,142.5 L628,143 L627.5,143.5 L627.5,144 L627.5,145 L627,145.5 L627,146 L627,146.5 L626.5,147 L626,147.5 L626,148 L625.5,148.5 L625.5,149 L625,149.5 L624.5,150 L624,150.5 L623.5,151 L623,151.5 L622.5,152 L622,152.5 L621,153 L620,153.5 L618.5,154 L617,154.5 L576,154.5 " />
<path id="31" stroke-linecap="round" stroke="#6566CC" stroke-width="26.74404347534142" fill="none" moovel_name="GG Manggis 7" moovel_neighborhood="Tebet" moovel_area="1976.45" moovel_cumulative_area="36295.60" moovel_length="197.64" d="M543,154.5 L424.5,154.5 " />
<path id="32" stroke-linecap="round" stroke="#6566CC" stroke-width="26.74404347534142" fill="none" moovel_name="GG Barkah" moovel_neighborhood="Tebet" moovel_area="1019.58" moovel_cumulative_area="37315.18" moovel_length="101.96" d="M392,154.5 L331,154.5 " />
<path id="33" stroke-linecap="round" stroke="#6566CC" stroke-width="26.74404347534142" fill="none" moovel_name="GG Damai" moovel_neighborhood="Tebet" moovel_area="2183.47" moovel_cumulative_area="39498.65" moovel_length="218.35" d="M298.5,154.5 L167.5,154.5 " />
<path id="34" stroke-linecap="round" stroke="#6566CC" stroke-width="26.74404347534142" fill="none" moovel_name="GG Lebak" moovel_neighborhood="Tebet" moovel_area="1336.39" moovel_cumulative_area="40835.04" moovel_length="133.64" d="M134.5,154.5 L54.5,154.5 " />
<path id="35" stroke-linecap="round" stroke="#6566CC" stroke-width="26.74404347534142" fill="none" moovel_name="GG Hanjuang" moovel_neighborhood="Tebet" moovel_area="1183.22" moovel_cumulative_area="42018.26" moovel_length="118.32" d="M25,162.5 L24.5,163 L24.5,163.5 L24,164 L24,164.5 L23.5,165 L23.5,165.5 L23.5,166.5 L23.5,167 L23.5,167.5 L23.5,168 L23.5,168.5 L23.5,169.5 L23.5,170 L23.5,170.5 L23.5,171 L23.5,171.5 L24,172 L24,173 L24,173.5 L24.5,174 L24.5,174.5 L25,175 L25.5,175.5 L25.5,176 L26,176.5 L26.5,177 L26.5,177.5 L27,178 L27.5,178.5 L28,179 L29,179.5 L29.5,180 L30.5,180.5 L31,181 L32,181.5 L33.5,182 L36,182.5 L80,182.5 " />
<path id="36" stroke-linecap="round" stroke="#6566CC" stroke-width="26.74404347534142" fill="none" moovel_neighborhood="Tebet" moovel_area="865.16" moovel_cumulative_area="42883.42" moovel_length="86.52" d="M113,182.5 L141,182 L164.5,182 " />
<path id="37" stroke-linecap="round" stroke="#6566CC" stroke-width="26.74404347534142" fill="none" moovel_neighborhood="Tebet" moovel_area="1117.39" moovel_cumulative_area="44000.81" moovel_length="111.74" d="M196.5,182 L263.5,182 " />
<path id="38" stroke-linecap="round" stroke="#6566CC" stroke-width="26.74404347534142" fill="none" moovel_area="973.34" moovel_cumulative_area="44974.15" moovel_length="97.33" d="M296,182.5 L348.5,182.5 " />
<path id="39" stroke-linecap="round" stroke="#6566CC" stroke-width="26.74404347534142" fill="none" moovel_neighborhood="Jagakarsa" moovel_area="14148.91" moovel_cumulative_area="59123.07" moovel_length="1414.89" d="M381,182 L571,181.5 L616,182 L618.5,182.5 L619.5,183 L620.5,183.5 L621.5,184 L622,184.5 L623,185 L623.5,185.5 L624,186 L624.5,186.5 L624.5,187 L625,187.5 L625.5,188 L625.5,188.5 L626,189 L626.5,189.5 L626.5,190 L627,190.5 L627,191 L627,191.5 L627.5,192 L627.5,193 L627.5,193.5 L627.5,194 L627.5,194.5 L628,195 L628,196 L627.5,196.5 L627.5,197 L627.5,197.5 L627.5,198.5 L627.5,199 L627.5,199.5 L627,200 L627,200.5 L626.5,201 L626.5,201.5 L626,202.5 L626,203 L625.5,203.5 L625.5,204 L625,204.5 L624.5,205 L624,205.5 L623.5,206 L623,206.5 L622.5,207 L622,207.5 L621,208 L620,208.5 L619,209 L617.5,209.5 L615,210 L396.5,210.5 L136,211 L39.5,211 " />
<path id="40" stroke-linecap="round" stroke="#6566CC" stroke-width="26.74404347534142" fill="none" moovel_neighborhood="Jagakarsa" moovel_area="7718.59" moovel_cumulative_area="66841.66" moovel_length="771.86" d="M26,231.5 L26,232 L26.5,232.5 L27,233 L27.5,233.5 L27.5,234 L28.5,234.5 L29,235 L29.5,235.5 L30.5,236 L31.5,236.5 L33,237 L34.5,237.5 L488,237.5 " />
<path id="41" stroke-linecap="round" stroke="#6566CC" stroke-width="26.74404347534142" fill="none" moovel_neighborhood="Mampang Prapatan" moovel_area="1583.34" moovel_cumulative_area="68425.00" moovel_length="158.33" d="M520.5,237.5 L615,237.5 " />
<path id="42" stroke-linecap="round" stroke="#6566CC" stroke-width="26.74404347534142" fill="none" moovel_neighborhood="Pancoran" moovel_area="908.07" moovel_cumulative_area="69333.07" moovel_length="90.81" d="M623,262 L622.5,262.5 L622,263 L621,263.5 L620,264 L619,264.5 L617,265 L569.5,265 " />
<path id="43" stroke-linecap="round" stroke="#6566CC" stroke-width="26.74404347534142" fill="none" moovel_neighborhood="Jagakarsa" moovel_area="246.92" moovel_cumulative_area="69579.99" moovel_length="24.69" d="M537.5,265 L523,265 " />
<path id="44" stroke-linecap="round" stroke="#6566CC" stroke-width="26.74404347534142" fill="none" moovel_neighborhood="Kebayoran Baru" moovel_area="612.73" moovel_cumulative_area="70192.73" moovel_length="61.27" d="M490,265 L454,265 " />
<path id="45" stroke-linecap="round" stroke="#6566CC" stroke-width="26.74404347534142" fill="none" moovel_neighborhood="Pasar Minggu" moovel_area="1724.97" moovel_cumulative_area="71917.70" moovel_length="172.50" d="M421,265 L317.5,265 " />
<path id="46" stroke-linecap="round" stroke="#6566CC" stroke-width="26.74404347534142" fill="none" moovel_neighborhood="Kebayoran Baru" moovel_area="566.41" moovel_cumulative_area="72484.11" moovel_length="56.64" d="M285,265 L251.5,265 " />
<path id="47" stroke-linecap="round" stroke="#6566CC" stroke-width="26.74404347534142" fill="none" moovel_neighborhood="Kebayoran Baru" moovel_area="492.95" moovel_cumulative_area="72977.06" moovel_length="49.29" d="M219,265 L189.5,265 " />
<path id="48" stroke-linecap="round" stroke="#6566CC" stroke-width="26.74404347534142" fill="none" moovel_neighborhood="Mampang Prapatan" moovel_area="376.37" moovel_cumulative_area="73353.42" moovel_length="37.64" d="M156.5,265 L134.5,265 " />
<path id="49" stroke-linecap="round" stroke="#6566CC" stroke-width="26.74404347534142" fill="none" moovel_name="Jalan Haji Nawi" moovel_neighborhood="Cengkareng" moovel_area="336.39" moovel_cumulative_area="73689.82" moovel_length="67.28" d="M102.5,265 L62.5,265 " />
<path id="50" stroke-linecap="round" stroke="#6566CC" stroke-width="26.74404347534142" fill="none" moovel_name="unknown" moovel_neighborhood="Johar Baru" moovel_area="362.35" moovel_cumulative_area="74052.17" moovel_length="130.82" d="M30.5,267 L30,267.5 L29.5,268 L28.5,268.5 L28,269 L27.5,269.5 L26.5,270 L26.5,270.5 L26,271 L25.5,271.5 L25.5,272 L25,272.5 L25,273 L24.5,273.5 L24.5,274 L24,274.5 L24,275.5 L24,276 L23.5,276.5 L23.5,277 L23.5,277.5 L23.5,278 L23.5,278.5 L23.5,279 L23.5,280 L23.5,280.5 L23.5,281 L23.5,281.5 L24,282 L24,282.5 L24,283 L24.5,284 L24.5,284.5 L25,285 L25,285.5 L25.5,286 L25.5,286.5 L26,287 L26.5,287.5 L26.5,288 L27,288.5 L28,289 L28.5,289.5 L29,290 L30,290.5 L30.5,291 L31.5,291.5 L32.5,292 L34,292.5 L79,292.5 " />
<path id="51" stroke-linecap="round" stroke="#6566CC" stroke-width="26.74404347534142" fill="none" moovel_name="Jalan Lamporan" moovel_neighborhood="Kali Deres" moovel_area="1706.19" moovel_cumulative_area="75758.36" moovel_length="170.62" d="M112,293 L182.5,292.5 L214,292.5 " />
<path id="52" stroke-linecap="round" stroke="#6566CC" stroke-width="26.74404347534142" fill="none" moovel_area="11970.78" moovel_cumulative_area="87729.14" moovel_length="1197.08" d="M246.5,293 L281,292.5 L596,292 L615,292.5 L618,293 L619.5,293.5 L620.5,294 L621.5,294.5 L622,295 L622.5,295.5 L623.5,296 L624,296.5 L624.5,297 L625,297.5 L625,298 L625.5,298.5 L626,299 L626,299.5 L626.5,300 L626.5,300.5 L627,301 L627,301.5 L627.5,302 L627.5,303 L627.5,303.5 L627.5,304 L628,304.5 L628,305 L628,306 L628,306.5 L628,307 L628,307.5 L627.5,308 L627.5,309 L627.5,309.5 L627.5,310 L627,310.5 L627,311 L627,311.5 L626.5,312 L626.5,313 L626,313.5 L625.5,314 L625.5,314.5 L625,315 L624.5,315.5 L624,316 L623.5,316.5 L623,317 L622.5,317.5 L621.5,318 L621,318.5 L620,319 L619,319.5 L617,320 L378,320.5 L305.5,320.5 " />
<path id="53" stroke-linecap="round" stroke="#6566CC" stroke-width="26.74404347534142" fill="none" moovel_area="13171.01" moovel_cumulative_area="100900.15" moovel_length="1317.10" d="M273,320.5 L109,321 L33.5,321.5 L32,322 L31,322.5 L30,323 L29.5,323.5 L28.5,324 L28,324.5 L27.5,325 L27,325.5 L26.5,326 L26,326.5 L25.5,327 L25.5,327.5 L25,328 L25,328.5 L24.5,329 L24.5,330 L24,330.5 L24,331 L24,331.5 L23.5,332 L23.5,332.5 L23.5,333 L23.5,334 L23.5,334.5 L23.5,335 L23.5,335.5 L23.5,336 L23.5,337 L24,337.5 L24,338 L24,338.5 L24.5,339 L24.5,339.5 L24.5,340 L25,340.5 L25.5,341.5 L25.5,342 L26,342.5 L26,343 L27,343.5 L27.5,344 L28,344.5 L28,345 L28.5,345.5 L29.5,346 L30,346.5 L31,347 L32.5,347.5 L34,348 L36.5,348.5 L139,349 L247,349.5 L353.5,350 L459,350.5 L550,350.5 " />
<path id="54" stroke-linecap="round" stroke="#6566CC" stroke-width="26.74404347534142" fill="none" moovel_area="932.16" moovel_cumulative_area="101832.31" moovel_length="93.22" d="M583,348 L615.5,348.5 L618.5,349 L619.5,349.5 L621,350 L622,350.5 L622.5,351 L623,351.5 L623.5,352 L624,352.5 L624.5,353 L625,353.5 L625.5,354 L626,354.5 L626.5,355 L626.5,356 L627,356.5 L627,357 L627,357.5 L627.5,358 L627.5,358.5 L627.5,359 L628,359.5 L628,360.5 L628,361 L628,361.5 L628,362 L628,362.5 L628,363.5 L628,364 L627.5,364.5 " />
<path id="55" stroke-linecap="round" stroke="#6566CC" stroke-width="26.74404347534142" fill="none" moovel_area="242.22" moovel_cumulative_area="102074.53" moovel_length="24.22" d="M601,376 L587,376 " />
<path id="56" stroke-linecap="round" stroke="#6566CC" stroke-width="26.74404347534142" fill="none" moovel_neighborhood="Jatinegara" moovel_area="1696.54" moovel_cumulative_area="103771.07" moovel_length="306.25" d="M554.5,375.5 L381,375.5 " />
</svg>
