<?xml version="1.0" encoding="UTF-8" standalone="no"?>
<svg width="603px" height="2729px"  viewport="0 0 603 2729" version="1.1" xmlns="http://www.w3.org/2000/svg" xmlns:xlink="http://www.w3.org/1999/xlink">
<path id="1" stroke-linecap="round" stroke="#6566CC" stroke-width="14.186657960723565" fill="none" moovel_neighborhood="Cipayung" moovel_area="14068.28" moovel_cumulative_area="14068.28" moovel_length="3068.86" d="M25,10 L140,9.5 L400.5,9 L604,9.5 L605,10 L605.5,10.5 L606,11 L607,11.5 L607,12 L607.5,12.5 L608,13.5 L608,14 L608,14.5 L608.5,15 L608.5,15.5 L608.5,16.5 L608.5,17 L608.5,17.5 L608.5,18 L608,19 L608,19.5 L608,20 L607.5,20.5 L607.5,21 L607,21.5 L606.5,22 L606,22.5 L605.5,23 L605.5,23.5 L604.5,24 L603,24.5 L435.5,25 L75,25.5 L22,26 L21,26.5 L20,27 L19.5,27.5 L19,28 L19,28.5 L18.5,29 L18,29.5 L18,30 L18,30.5 L17.5,31 L17.5,31.5 L17.5,32 L17.5,32.5 L17.5,33 L17.5,34 L18,34.5 L18,35 L18,35.5 L18.5,36 L19,36.5 L19,37 L20,37.5 L20.5,38 L21,38.5 L22,39 L23.5,39.5 L60.5,39 L265,38.5 L481,38 L603.5,38.5 L605,39 L605.5,39.5 L606.5,40 L607,40.5 L607,41 L607.5,41.5 L608,42 L608,42.5 L608.5,43 L608.5,43.5 L608.5,44 L609,45 L609,45.5 L609,46 L608.5,46.5 L608.5,47 L608.5,48 L608.5,48.5 L608,49 L608,49.5 L607.5,50 L607,50.5 L606.5,51 L606.5,51.5 L605.5,52 L605,52.5 L604,53 L567.5,53 " />
<path id="2" stroke-linecap="round" stroke="#6566CC" stroke-width="14.186657960723565" fill="none" moovel_name="Jalur 8" moovel_area="1099.52" moovel_cumulative_area="15167.80" moovel_length="211.43" d="M549.5,54.5 L423,54.5 " />
<path id="3" stroke-linecap="round" stroke="#6566CC" stroke-width="14.186657960723565" fill="none" moovel_name="Jalur KA Manggarai - Jakarta Kota" moovel_area="21929.02" moovel_cumulative_area="37096.82" moovel_length="4216.83" d="M405,54.5 L216,54 L22,54.5 L20.5,55 L20,55.5 L19,56 L19,56.5 L18.5,57 L18,57.5 L18,58 L17.5,58.5 L17.5,59 L17,60 L17,60.5 L17,61 L17,61.5 L17,62 L17,63 L17,63.5 L17.5,64 L17.5,64.5 L18,65 L18,65.5 L18.5,66 L19,66.5 L19.5,67 L19.5,67.5 L20,68 L21.5,68.5 L22.5,69 L253,69.5 L604,70 L605.5,70.5 L606,71 L607,71.5 L607.5,72 L607.5,72.5 L608,73 L608.5,73.5 L608.5,74 L609,74.5 L609,75 L609,75.5 L609,76 L609,77 L609,77.5 L609,78 L609,78.5 L608.5,79 L608.5,79.5 L608,80 L608,80.5 L607.5,81 L607,81.5 L606.5,82 L606,82.5 L605,83 L604,83.5 L602.5,84 L494.5,83.5 L22,84 L20.5,84.5 L19.5,85 L19.5,85.5 L19,86 L18.5,86.5 L18,87 L18,87.5 L17.5,88 L17.5,88.5 L17,89 L17,89.5 L17,90.5 L17,91 L17,91.5 L17,92 L17,92.5 L17,93.5 L17.5,94 L17.5,94.5 L18,95 L18.5,95.5 L18.5,96 L19,96.5 L19.5,97 L20.5,97.5 L21,98 L22,98.5 L78.5,99 L270,99.5 L461,100 L603.5,100.5 L605,101 L605.5,101.5 L606.5,102 L607,102.5 L607.5,103 L607.5,103.5 L608,104 L608.5,104.5 L608.5,105 L608.5,105.5 L609,106 L609,106.5 L609,107 L609,108 L609,108.5 L609,109 L608.5,109.5 L608.5,110 L608,110.5 L608,111 L607.5,111.5 L607,112 L607,112.5 L606.5,113 L606,113.5 L605,114 L603.5,114.5 L443.5,114 L269,114 " />
<path id="4" stroke-linecap="round" stroke="#6566CC" stroke-width="14.186657960723565" fill="none" moovel_name="Jatinegara-Cikampek Railway Line" moovel_neighborhood="Tebet" moovel_area="377.39" moovel_cumulative_area="37474.20" moovel_length="72.57" d="M251.5,114 L208.5,114 " />
<path id="5" stroke-linecap="round" stroke="#6566CC" stroke-width="14.186657960723565" fill="none" moovel_name="Jalur KA Ancol-Rajawali" moovel_area="9121.38" moovel_cumulative_area="46595.59" moovel_length="1753.99" d="M191,114 L53,114.5 L22,115 L21,115.5 L20,116 L19.5,116.5 L19,117 L18.5,117.5 L18,118 L18,119 L17.5,119.5 L17.5,120 L17.5,120.5 L17,121 L17,121.5 L17,122.5 L17.5,123 L17.5,123.5 L17.5,124 L18,124.5 L18,125 L18.5,125.5 L18.5,126 L19,126.5 L19.5,127 L20,127.5 L21,128 L21.5,128.5 L23,129 L325,129.5 L603.5,130 L604.5,130.5 L605.5,131 L606,131.5 L607,132 L607.5,132.5 L607.5,133 L608,133.5 L608,134 L608.5,135 L608.5,135.5 L608.5,136 L608.5,136.5 L609,137 L608.5,138 L608.5,138.5 L608.5,139 L608.5,139.5 L608,140 L608,140.5 L607.5,141.5 L607.5,142 L606.5,142.5 L606,143 L605.5,143.5 L604.5,144 L604,144.5 L342.5,144 L336.5,144 " />
<path id="6" stroke-linecap="round" stroke="#6566CC" stroke-width="14.186657960723565" fill="none" moovel_name="Jalur KA Ancol-Tanjung Priok" moovel_area="336.78" moovel_cumulative_area="46932.37" moovel_length="64.76" d="M318.5,143.5 L280,143.5 " />
<path id="7" stroke-linecap="round" stroke="#6566CC" stroke-width="14.186657960723565" fill="none" moovel_area="424.20" moovel_cumulative_area="47356.57" moovel_length="81.57" d="M262.5,143.5 L214,143.5 " />
<path id="8" stroke-linecap="round" stroke="#6566CC" stroke-width="14.186657960723565" fill="none" moovel_name="Jalur KA Jakarta Kota-Ancol" moovel_area="929.48" moovel_cumulative_area="48286.05" moovel_length="178.73" d="M196.5,143.5 L89.5,143.5 " />
<path id="9" stroke-linecap="round" stroke="#6566CC" stroke-width="14.186657960723565" fill="none" moovel_neighborhood="Tebet" moovel_area="2441.09" moovel_cumulative_area="50727.14" moovel_length="469.41" d="M72,143.5 L23,144 L21,144.5 L20.5,145 L19.5,145.5 L19,146 L19,146.5 L18.5,147 L18,147.5 L18,148 L17.5,148.5 L17.5,149 L17,149.5 L17,150 L17,151 L17,151.5 L17,152 L17,152.5 L17.5,153 L17.5,153.5 L18,154.5 L18,155 L18.5,155.5 L19,156 L19.5,156.5 L20,157 L20.5,157.5 L21.5,158 L23,158.5 L126,159 L235.5,159 " />
<path id="10" stroke-linecap="round" stroke="#6566CC" stroke-width="14.186657960723565" fill="none" moovel_name="Jalur KA Rajawali-Jatinegara" moovel_neighborhood="Johar Baru" moovel_area="42945.00" moovel_cumulative_area="93672.14" moovel_length="8258.08" d="M253.5,158.5 L390.5,159 L603.5,159.5 L605,160 L606,160.5 L606.5,161 L607,161.5 L607.5,162 L608,162.5 L608.5,163 L608.5,164 L608.5,164.5 L609,165 L609,165.5 L609,166 L609,166.5 L609,167.5 L609,168 L608.5,168.5 L608.5,169 L608.5,169.5 L608,170 L607.5,170.5 L607.5,171 L607,171.5 L606.5,172 L605.5,172.5 L605,173 L604,173.5 L162,173 L23,173.5 L21,174 L20,174.5 L19.5,175 L19,175.5 L18.5,176 L18.5,176.5 L18,177 L17.5,177.5 L17.5,178 L17,178.5 L17,179 L17,179.5 L17,180 L17,181 L17,181.5 L17,182 L17,182.5 L17.5,183.5 L17.5,184 L18,184.5 L18,185 L18.5,185.5 L19,186 L19.5,186.5 L20,187 L21,187.5 L22,188 L23.5,188.5 L184.5,189 L389,189.5 L593.5,190 L604.5,190.5 L605.5,191 L606.5,191.5 L607,192 L607.5,192.5 L607.5,193 L608,193.5 L608.5,194 L608.5,194.5 L609,195 L609,195.5 L609,196 L609,197 L609,197.5 L609,198 L609,198.5 L608.5,199 L608.5,199.5 L608.5,200 L608,200.5 L607.5,201 L607,201.5 L607,202 L606.5,202.5 L606,203 L605,203.5 L603.5,204 L429.5,203.5 L225,203 L21.5,203.5 L20.5,204 L19.5,204.5 L19,205 L18.5,205.5 L18,206 L18,206.5 L17.5,207 L17.5,207.5 L17,208 L17,208.5 L17,209 L16.5,210 L16.5,210.5 L16.5,211 L17,211.5 L17,212.5 L17,213 L17.5,213.5 L17.5,214 L18,214.5 L18,215 L18.5,215.5 L19,216 L19.5,216.5 L20.5,217 L21,217.5 L22.5,218 L64,218.5 L207.5,219 L351,219.5 L500,220 L603,220.5 L605,221 L606,221.5 L606.5,222 L607,222.5 L607.5,223 L608,223.5 L608.5,224 L608.5,224.5 L608.5,225.5 L609,226 L609,226.5 L609,227 L609,227.5 L609,228 L609,228.5 L608.5,229.5 L608.5,230 L608,230.5 L608,231 L607.5,231.5 L607,232 L607,232.5 L606,233 L605.5,233.5 L604,234 L603,234.5 L534,234 L365.5,233.5 L197,233 L28,232.5 L23.5,233 L21.5,233.5 L20.5,234 L19.5,234.5 L19,235 L18.5,235.5 L18,236 L17.5,236.5 L17.5,237 L17,237.5 L17,238 L17,239 L17,239.5 L16.5,240 L16.5,240.5 L17,241 L17,242 L17,242.5 L17,243 L17.5,243.5 L17.5,244 L18,244.5 L18.5,245 L19,245.5 L19.5,246 L19.5,246.5 L21,247 L21.5,247.5 L23,248 L188.5,248.5 L475,249 L603,249.5 L605,250 L605.5,250.5 L606,251 L606.5,251.5 L607,252 L607.5,252.5 L607.5,253 L608,253.5 L608,254 L608.5,254.5 L608.5,255.5 L608.5,256 L608.5,256.5 L608.5,257 L608.5,257.5 L608.5,258.5 L608,259 L608,259.5 L607.5,260 L607.5,260.5 L607,261 L606.5,261.5 L606.5,262 L606,262.5 L605.5,263 L604.5,263.5 L603.5,264 L455.5,263.5 L276.5,263 L103,262.5 L22,263 L21,263.5 L20,264 L19.5,264.5 L19,265 L18,265.5 L17.5,266 L17.5,266.5 L17,267.5 L17,268 L17,268.5 L16.5,269 L16.5,269.5 L16.5,270.5 L16.5,271 L17,271.5 L17,272 L17,272.5 L17.5,273 L17.5,274 L18,274.5 L18.5,275 L18.5,275.5 L19.5,276 L20,276.5 L21,277 L22.5,277.5 L52.5,278 L172,278.5 L293.5,279 L420.5,279 " />
<path id="11" stroke-linecap="round" stroke="#6566CC" stroke-width="14.186657960723565" fill="none" moovel_name="Jalur KA Ancol-Rajawali" moovel_neighborhood="Sawah Besar" moovel_area="2664.76" moovel_cumulative_area="96336.89" moovel_length="512.42" d="M438,277 L604,277.5 L605,278 L606,278.5 L606.5,279 L607,279.5 L607,280 L607.5,280.5 L608,281 L608,281.5 L608.5,282 L608.5,282.5 L608.5,283 L609,283.5 L609,284.5 L609,285 L609,285.5 L608.5,286 L608.5,286.5 L608.5,287 L608,288 L608,288.5 L607.5,289 L607,289.5 L607,290 L606,290.5 L605.5,291 L604.5,291.5 L603,292 L480.5,292 " />
<path id="12" stroke-linecap="round" stroke="#6566CC" stroke-width="14.186657960723565" fill="none" moovel_neighborhood="Tambora" moovel_area="11373.88" moovel_cumulative_area="107710.77" moovel_length="2187.13" d="M462.5,292 L401.5,292.5 L115,293 L22,293.5 L21,294 L20,294.5 L19.5,295 L19,295.5 L18.5,296 L18,296.5 L18,297 L17.5,298 L17.5,298.5 L17.5,299 L17.5,299.5 L17.5,300 L17.5,300.5 L17.5,301 L17.5,302 L17.5,302.5 L18,303 L18,303.5 L18.5,304 L19,304.5 L19,305 L19.5,305.5 L20.5,306 L21,306.5 L22,307 L23.5,307.5 L481.5,307 L602,307.5 L604.5,308 L605.5,308.5 L606,309 L606.5,309.5 L607,310 L607.5,310.5 L608,311 L608,311.5 L608.5,312.5 L608.5,313 L608.5,313.5 L608.5,314 L608.5,314.5 L608.5,315.5 L608.5,316 L608.5,316.5 L608.5,317 L608,317.5 L608,318.5 L607.5,319 L607.5,319.5 L607,320 L606.5,320.5 L605.5,321 L605.5,321.5 L605,322 L603,322.5 L347.5,322.5 " />
<path id="13" stroke-linecap="round" stroke="#6566CC" stroke-width="14.186657960723565" fill="none" moovel_neighborhood="Tambora" moovel_area="2306.16" moovel_cumulative_area="110016.93" moovel_length="443.46" d="M329.5,322 L63.5,322 " />
<path id="14" stroke-linecap="round" stroke="#6566CC" stroke-width="14.186657960723565" fill="none" moovel_name="Jalur 7" moovel_area="1104.53" moovel_cumulative_area="111121.46" moovel_length="212.39" d="M46,322 L41,321.5 L24,322 L21.5,322.5 L20.5,323 L20,323.5 L19,324 L18.5,324.5 L18.5,325 L18,325.5 L18,326 L17.5,326.5 L17.5,327 L17,327.5 L17,328.5 L17,329 L17,329.5 L17,330 L17,330.5 L17.5,331.5 L17.5,332 L18,332.5 L18,333 L18.5,333.5 L19,334 L19,334.5 L19.5,335 L20.5,335.5 L21,336 L22,336.5 L107,336.5 " />
<path id="15" stroke-linecap="round" stroke="#6566CC" stroke-width="14.186657960723565" fill="none" moovel_area="2527.75" moovel_cumulative_area="113649.20" moovel_length="486.07" d="M124.5,336.5 L416,336.5 " />
<path id="16" stroke-linecap="round" stroke="#6566CC" stroke-width="14.186657960723565" fill="none" moovel_name="Jalur KA Jakarta Kota-Ancol" moovel_area="5910.61" moovel_cumulative_area="119559.81" moovel_length="1136.58" d="M433.5,336.5 L514,337 L604.5,337.5 L605.5,338 L606,338.5 L606.5,339 L607.5,339.5 L607.5,340 L608,340.5 L608,341 L608.5,342 L608.5,342.5 L608.5,343 L609,343.5 L609,344 L609,345 L608.5,345.5 L608.5,346 L608.5,346.5 L608,347 L608,347.5 L607.5,348 L607.5,348.5 L607,349 L606.5,349.5 L606,350 L605.5,350.5 L604.5,351 L603.5,351.5 L325.5,351 L109,351 " />
<path id="17" stroke-linecap="round" stroke="#6566CC" stroke-width="14.186657960723565" fill="none" moovel_name="Jalur KA Jakarta Kota-Rajawali" moovel_area="12573.68" moovel_cumulative_area="132133.49" moovel_length="2417.85" d="M91.5,351.5 L23,352 L21,352.5 L20,353 L20,353.5 L19.5,354 L18.5,354.5 L18.5,355 L18,355.5 L18,356 L17.5,357 L17.5,357.5 L17.5,358 L17.5,358.5 L17.5,359 L17.5,359.5 L17.5,360.5 L17.5,361 L17.5,361.5 L18,362 L18,362.5 L18.5,363 L19,363.5 L19.5,364 L19.5,364.5 L20.5,365 L21,365.5 L23,366 L109.5,365.5 L219.5,365 L330,364.5 L440.5,364 L550.5,363.5 L604,364 L605,364.5 L606,365 L606,365.5 L606.5,366 L607,366.5 L607.5,367 L607.5,367.5 L608,368 L608,368.5 L608.5,369 L608.5,369.5 L608.5,370 L608.5,371 L608.5,371.5 L608.5,372 L608.5,372.5 L608.5,373 L608.5,374 L608,374.5 L608,375 L607.5,375.5 L607,376 L607,376.5 L606.5,377 L606,377.5 L605,378 L604,378.5 L603,379 L550.5,379.5 L448,380 L345.5,380.5 L243.5,381 L141,381.5 L38.5,382 L21.5,382.5 L20.5,383 L20,383.5 L20,384 L19,384.5 L18.5,385 L18.5,385.5 L18,386 L18,386.5 L17.5,387 L17.5,388 L17.5,388.5 L17.5,389 L17.5,389.5 L17.5,390 L17.5,390.5 L18,391.5 L18,392 L18,392.5 L18.5,393 L19,393.5 L19,394 L19.5,394.5 L20.5,395 L21,395.5 L22,396 L24,396.5 L37.5,396 L100,395.5 L156,395 L188.5,395 " />
<path id="18" stroke-linecap="round" stroke="#6566CC" stroke-width="14.186657960723565" fill="none" moovel_area="261.76" moovel_cumulative_area="132395.26" moovel_length="50.34" d="M205.5,396 L235,396 " />
<path id="19" stroke-linecap="round" stroke="#6566CC" stroke-width="14.186657960723565" fill="none" moovel_area="4004.05" moovel_cumulative_area="136399.30" moovel_length="769.96" d="M252.5,396 L384.5,396.5 L603.5,397 L604.5,397.5 L606,398 L606.5,398.5 L607,399 L607.5,399.5 L608,400 L608,400.5 L608.5,401 L608.5,401.5 L609,402 L609,402.5 L609,403.5 L609,404 L609,404.5 L609,405 L609,405.5 L608.5,406 L608.5,407 L608,407.5 L608,408 L607.5,408.5 L607,409 L606,409.5 L605.5,410 L604.5,410.5 L603.5,411 L511,411 " />
<path id="20" stroke-linecap="round" stroke="#6566CC" stroke-width="14.186657960723565" fill="none" moovel_name="Jalur KA Duri-Tanahabang" moovel_neighborhood="Kebon Jeruk" moovel_area="21025.53" moovel_cumulative_area="157424.84" moovel_length="4043.09" d="M493.5,411 L474.5,410.5 L156.5,410 L22,410.5 L21,411 L20,411.5 L19.5,412 L19,412.5 L18.5,413 L18.5,413.5 L18,414 L17.5,414.5 L17.5,415 L17,415.5 L17,416 L17,416.5 L17,417.5 L17,418 L17,418.5 L17,419 L17,419.5 L17.5,420.5 L17.5,421 L18,421.5 L18,422 L18.5,422.5 L19,423 L19.5,423.5 L20.5,424 L21,424.5 L22,425 L24.5,425.5 L242.5,426 L462.5,426.5 L603.5,427 L605,427.5 L606,428 L606.5,428.5 L607.5,429 L607.5,429.5 L608,430 L608.5,430.5 L608.5,431 L609,431.5 L609,432 L609,432.5 L609,433.5 L609,434 L609,434.5 L609,435 L609,435.5 L608.5,436 L608.5,436.5 L608,437 L608,437.5 L607.5,438 L607,438.5 L606.5,439 L606,439.5 L605.5,440 L604.5,440.5 L603,441 L504.5,440.5 L284,440 L64,439.5 L23,440 L21,440.5 L20,441 L19.5,441.5 L19,442 L18.5,442.5 L18,443 L17.5,444 L17.5,444.5 L17,445 L17,445.5 L17,446 L17,446.5 L17,447.5 L17,448 L17,448.5 L17,449 L17,450 L17.5,450.5 L17.5,451 L18,451.5 L18.5,452 L18.5,452.5 L19,453 L19.5,453.5 L20.5,454 L21,454.5 L23,455 L69.5,455.5 L161.5,456 L254,456.5 L346.5,457 L439,457.5 L531.5,458 L603,458.5 L604.5,459 L605.5,459.5 L606.5,460 L607,460.5 L607.5,461 L608,461.5 L608,462 L608.5,462.5 L608.5,463 L609,463.5 L609,464 L609,464.5 L609,465.5 L609,466 L609,466.5 L609,467 L608.5,467.5 L608.5,468 L608,468.5 L608,469 L607.5,469.5 L607,470 L606.5,470.5 L606,471 L605.5,471.5 L604.5,472 L603.5,472.5 L546,472 L461.5,472 " />
<path id="21" stroke-linecap="round" stroke="#6566CC" stroke-width="14.186657960723565" fill="none" moovel_area="218.54" moovel_cumulative_area="157643.38" moovel_length="42.03" d="M444.5,470 L419.5,470 " />
<path id="22" stroke-linecap="round" stroke="#6566CC" stroke-width="14.186657960723565" fill="none" moovel_neighborhood="Tambora" moovel_area="94.05" moovel_cumulative_area="157737.43" moovel_length="18.09" d="M402,470 L391.5,470 " />
<path id="23" stroke-linecap="round" stroke="#6566CC" stroke-width="14.186657960723565" fill="none" moovel_name="Jalur KA Jakarta Kota-Ancol" moovel_area="8441.72" moovel_cumulative_area="166179.15" moovel_length="1623.29" d="M374,470 L363.5,470.5 L74.5,471 L22,471.5 L21,472 L20,472.5 L19.5,473 L19,473.5 L18.5,474 L18.5,474.5 L18,475 L18,475.5 L17.5,476 L17.5,476.5 L17.5,477 L17.5,477.5 L17.5,478 L17.5,479 L17.5,479.5 L17.5,480 L17.5,480.5 L18,481 L18,481.5 L18.5,482 L19,482.5 L19,483 L19.5,483.5 L20,484 L21,484.5 L22,485 L23,485.5 L117.5,485 L468,484.5 L603.5,485 L605,485.5 L606,486 L606.5,486.5 L607,487 L607.5,487.5 L608,488 L608,488.5 L608.5,489 L608.5,490 L608.5,490.5 L609,491 L609,491.5 L609,492 L609,492.5 L609,493.5 L608.5,494 L608.5,494.5 L608.5,495 L608,495.5 L608,496 L607.5,496.5 L607,497 L606.5,497.5 L606,498 L605,498.5 L604.5,499 L603,499.5 L598.5,499.5 " />
<path id="24" stroke-linecap="round" stroke="#6566CC" stroke-width="14.186657960723565" fill="none" moovel_neighborhood="Tambora" moovel_area="150.61" moovel_cumulative_area="166329.76" moovel_length="28.96" d="M580.5,500 L563.5,500 " />
<path id="25" stroke-linecap="round" stroke="#6566CC" stroke-width="14.186657960723565" fill="none" moovel_neighborhood="Sawah Besar" moovel_area="65.04" moovel_cumulative_area="166394.80" moovel_length="12.51" d="M546,500 L539,500 " />
<path id="26" stroke-linecap="round" stroke="#6566CC" stroke-width="14.186657960723565" fill="none" moovel_name="Jalur KA Tanah Abang - Manggarai" moovel_neighborhood="Tanah Abang" moovel_area="51930.10" moovel_cumulative_area="218324.90" moovel_length="9985.87" d="M521,500 L492.5,499.5 L253.5,499 L21.5,499.5 L20.5,500 L20,500.5 L19.5,501 L18.5,501.5 L18,502 L18,502.5 L17.5,503.5 L17.5,504 L17,504.5 L17,505 L17,505.5 L17,506.5 L17,507 L17,507.5 L17,508 L17,508.5 L17.5,509.5 L17.5,510 L18,510.5 L18,511 L18.5,511.5 L19,512 L19.5,512.5 L20.5,513 L21,513.5 L22,514 L114,514.5 L523.5,515 L604.5,515.5 L605.5,516 L606,516.5 L607,517 L607.5,517.5 L608,518 L608,518.5 L608.5,519 L608.5,519.5 L609,520 L609,520.5 L609,521 L609,521.5 L609,522 L609,523 L609,523.5 L609,524 L608.5,524.5 L608.5,525 L608,525.5 L608,526 L607.5,526.5 L607,527 L606,527.5 L605.5,528 L604.5,528.5 L603.5,529 L318,528.5 L22,529 L21,529.5 L20,530 L19.5,530.5 L19,531 L18.5,531.5 L18,532 L17.5,532.5 L17.5,533 L17,533.5 L17,534 L17,535 L16.5,535.5 L16.5,536 L16.5,536.5 L16.5,537.5 L17,538 L17,538.5 L17,539 L17.5,539.5 L18,540.5 L18,541 L18.5,541.5 L19.5,542 L20,542.5 L20.5,543 L21.5,543.5 L22.5,544 L171,543.5 L409.5,543 L604,543.5 L605.5,544 L606.5,544.5 L607,545 L607.5,545.5 L608,546 L608.5,546.5 L608.5,547 L609,547.5 L609,548 L609,549 L609,549.5 L609.5,550 L609,550.5 L609,551 L609,551.5 L609,552 L608.5,552.5 L608.5,553 L608,553.5 L607.5,554 L607,554.5 L607,555 L606.5,555.5 L605.5,556 L604.5,556.5 L603,557 L416.5,557.5 L130.5,558 L22.5,558.5 L20.5,559 L20,559.5 L19,560 L18.5,560.5 L18,561 L18,561.5 L17.5,562 L17.5,563 L17,563.5 L17,564 L17,564.5 L16.5,565 L16.5,566 L16.5,566.5 L17,567 L17,567.5 L17,568.5 L17.5,569 L17.5,569.5 L18,570 L18.5,570.5 L18.5,571 L19,571.5 L19.5,572 L20,572.5 L21,573 L22.5,573.5 L338,573 L604,573.5 L605,574 L606.5,574.5 L607,575 L607.5,575.5 L608,576 L608.5,576.5 L608.5,577 L609,577.5 L609,578 L609,578.5 L609.5,579 L609.5,579.5 L609.5,580.5 L609.5,581 L609,581.5 L609,582 L609,582.5 L608.5,583 L608.5,583.5 L608,584 L607.5,584.5 L607,585 L606,585.5 L605.5,586 L604.5,586.5 L602.5,587 L313,587.5 L23.5,588 L21.5,588.5 L20.5,589 L19.5,589.5 L19,590 L18.5,590.5 L18,591 L17.5,591.5 L17.5,592 L17,593 L17,593.5 L17,594 L16.5,594.5 L16.5,595.5 L16.5,596 L16.5,596.5 L17,597 L17,598 L17,598.5 L17.5,599 L18,599.5 L18,600 L18.5,600.5 L19,601 L19.5,601.5 L20,602 L21,602.5 L21.5,603 L23.5,603.5 L604.5,604 L605.5,604.5 L606.5,605 L607,605.5 L607.5,606 L608,606.5 L608,607 L608.5,607.5 L609,608 L609,608.5 L609,609 L609.5,609.5 L609.5,610 L609.5,610.5 L609.5,611 L609,611.5 L609,612 L609,613 L608.5,613.5 L608.5,614 L608,614.5 L607.5,615 L607,615.5 L606.5,616 L606,616.5 L604.5,617 L603,617.5 L21.5,618 L20.5,618.5 L20,619 L19.5,619.5 L18.5,620 L18,620.5 L18,621 L17.5,621.5 L17.5,622.5 L17,623 L17,623.5 L17,624 L17,624.5 L17,625.5 L17,626 L17,626.5 L17,627 L17.5,628 L17.5,628.5 L18,629 L18,629.5 L18.5,630 L19,630.5 L19.5,631 L20.5,631.5 L21,632 L22,632.5 L23.5,633 L146.5,633.5 L289.5,634 L433,634.5 L575,635 L604.5,635.5 L605.5,636 L606,636.5 L607,637 L607.5,637.5 L607.5,638 L608,638.5 L608.5,639 L608.5,639.5 L608.5,640 L609,640.5 L609,641 L609,642 L609,642.5 L609,643 L609,643.5 L608.5,644 L608.5,644.5 L608.5,645 L608,646 L607.5,646.5 L607,647 L606.5,647.5 L606,648 L605.5,648.5 L604.5,649 L602.5,649.5 L543,649 L514.5,649 " />
<path id="27" stroke-linecap="round" stroke="#6566CC" stroke-width="14.186657960723565" fill="none" moovel_neighborhood="Tambora" moovel_area="503.17" moovel_cumulative_area="218828.07" moovel_length="96.76" d="M497,648 L464.5,648.5 L439.5,648.5 " />
<path id="28" stroke-linecap="round" stroke="#6566CC" stroke-width="14.186657960723565" fill="none" moovel_area="261.76" moovel_cumulative_area="219089.83" moovel_length="50.34" d="M422,648 L401,648.5 L392.5,648.5 " />
<path id="29" stroke-linecap="round" stroke="#6566CC" stroke-width="14.186657960723565" fill="none" moovel_area="225.31" moovel_cumulative_area="219315.14" moovel_length="43.32" d="M375,648 L349.5,648 " />
<path id="30" stroke-linecap="round" stroke="#6566CC" stroke-width="14.186657960723565" fill="none" moovel_name="Jalur KA Ancol-Tanjung Priok" moovel_neighborhood="Tanjung Priok" moovel_area="12298.98" moovel_cumulative_area="231614.12" moovel_length="2365.02" d="M331.5,648 L73,647.5 L23,648 L21.5,648.5 L20.5,649 L20,649.5 L19,650 L18.5,650.5 L18,651 L18,651.5 L17.5,652 L17.5,653 L17,653.5 L17,654 L17,654.5 L17,655 L17,656 L17,656.5 L17,657 L17.5,657.5 L17.5,658 L18,659 L18,659.5 L18.5,660 L19,660.5 L19,661 L20,661.5 L20.5,662 L22,662.5 L23.5,663 L201,663.5 L440,664 L603.5,664.5 L605,665 L605.5,665.5 L606.5,666 L607,666.5 L607.5,667 L608,667.5 L608,668 L608.5,668.5 L608.5,669 L609,669.5 L609,670 L609,670.5 L609,671.5 L609,672 L609,672.5 L609,673 L608.5,673.5 L608.5,674 L608,674.5 L608,675 L607.5,675.5 L607,676 L606.5,676.5 L606.5,677 L606,677.5 L604.5,678 L603.5,678.5 L411.5,678 L173,677.5 L109.5,677.5 " />
<path id="31" stroke-linecap="round" stroke="#6566CC" stroke-width="14.186657960723565" fill="none" moovel_neighborhood="Tanjung Priok" moovel_area="130.79" moovel_cumulative_area="231744.91" moovel_length="25.15" d="M92,678 L77.5,678 " />
<path id="32" stroke-linecap="round" stroke="#6566CC" stroke-width="14.186657960723565" fill="none" moovel_name="Jalur KA Jakarta Kota-Rajawali" moovel_neighborhood="Sawah Besar" moovel_area="2746.93" moovel_cumulative_area="234491.84" moovel_length="528.22" d="M60,678 L22.5,678.5 L21.5,679 L20.5,679.5 L20,680 L19,680.5 L18.5,681 L18.5,681.5 L18,682 L18,682.5 L17.5,683 L17.5,683.5 L17.5,684 L17,685 L17,685.5 L17,686 L17.5,686.5 L17.5,687 L17.5,687.5 L18,688 L18,689 L18.5,689.5 L18.5,690 L19.5,690.5 L20,691 L20.5,691.5 L21.5,692 L22.5,692.5 L283,692.5 " />
<path id="33" stroke-linecap="round" stroke="#6566CC" stroke-width="14.186657960723565" fill="none" moovel_name="Jalur KA Tanahabang - Rangkasbitung" moovel_neighborhood="Tanah Abang" moovel_area="45875.82" moovel_cumulative_area="280367.67" moovel_length="8821.67" d="M301,693 L563,693.5 L604.5,694 L605.5,694.5 L606,695 L607,695.5 L607.5,696 L608,696.5 L608,697 L608.5,697.5 L608.5,698 L609,698.5 L609,699 L609,699.5 L609,700.5 L609,701 L609,701.5 L609,702 L609,702.5 L608.5,703 L608.5,703.5 L608,704 L607.5,704.5 L607.5,705 L607,705.5 L606.5,706 L606,706.5 L605,707 L604,707.5 L602,708 L586,707.5 L299.5,707 L21.5,707.5 L20.5,708 L19.5,708.5 L19,709 L18.5,709.5 L18,710 L18,710.5 L17.5,711 L17.5,711.5 L17,712 L17,713 L17,713.5 L17,714 L17,714.5 L17,715.5 L17,716 L17,716.5 L17.5,717 L17.5,717.5 L18,718 L18,718.5 L18.5,719 L19,719.5 L19.5,720 L20,720.5 L20.5,721 L21.5,721.5 L22.5,722 L122,722.5 L382.5,723 L603,723.5 L604.5,724 L606,724.5 L606.5,725 L607,725.5 L607.5,726 L608,726.5 L608,727 L608.5,727.5 L608.5,728 L609,728.5 L609,729 L609,730 L609,730.5 L609,731 L609,731.5 L609,732 L608.5,732.5 L608.5,733 L608,733.5 L608,734 L607.5,734.5 L607,735 L606.5,735.5 L606,736 L606,736.5 L604.5,737 L603.5,737.5 L449.5,737 L211,736.5 L21.5,737 L20.5,737.5 L20,738 L19,738.5 L18.5,739 L18,739.5 L18,740 L17.5,740.5 L17.5,741 L17,741.5 L17,742.5 L17,743 L17,743.5 L17,744 L17,745 L17,745.5 L17,746 L17.5,746.5 L17.5,747 L18,747.5 L18,748 L18.5,748.5 L19,749 L19.5,749.5 L20,750 L20.5,750.5 L21.5,751 L22.5,751.5 L52.5,752 L144.5,752.5 L237,753 L330,753.5 L422,754 L514.5,754.5 L602.5,755 L604.5,755.5 L605.5,756 L606,756.5 L606.5,757 L607.5,757.5 L607.5,758 L608,758.5 L608.5,759 L608.5,760 L608.5,760.5 L609,761 L609,761.5 L609,762 L609,762.5 L609,763.5 L608.5,764 L608.5,764.5 L608,765 L608,765.5 L607.5,766 L607.5,766.5 L607,767 L606.5,767.5 L605.5,768 L605,768.5 L604,769 L601.5,769.5 L598.5,769 L500,768.5 L401,768 L309.5,767.5 L232.5,767 L165,766.5 L104,766 L43,765.5 L22,766 L21,766.5 L20,767 L19,767.5 L18.5,768 L18.5,768.5 L18,769 L17.5,769.5 L17.5,770 L17,770.5 L17,771 L17,772 L16.5,772.5 L16.5,773 L16.5,773.5 L17,774.5 L17,775 L17,775.5 L17.5,776 L17.5,776.5 L18,777 L18,777.5 L18.5,778 L19,778.5 L19.5,779 L20,779.5 L21,780 L22,780.5 L36.5,781 L162.5,781.5 L276,782 L382,782.5 L488.5,783 L594.5,783.5 L604,784 L605,784.5 L605.5,785 L606.5,785.5 L606.5,786 L607,786.5 L607.5,787 L607.5,787.5 L608,788 L608,788.5 L608,789.5 L608.5,790 L608.5,790.5 L608.5,791 L608.5,791.5 L608.5,792 L608,793 L608,793.5 L607.5,794 L607.5,794.5 L607,795 L607,795.5 L606.5,796 L606,796.5 L605.5,797 L604.5,797.5 L604,798 L602.5,798.5 L542.5,798 L436,797.5 L330,797 L241.5,796.5 L131.5,796 L21,796.5 L20.5,797 L19.5,797.5 L19,798 L18.5,798.5 L18,799 L17.5,799.5 L17.5,800 L17,800.5 L17,801 L16.5,801.5 L16.5,802 L16.5,802.5 L16.5,803.5 L16.5,804 L16.5,804.5 L16.5,805 L17,805.5 L17,806.5 L17.5,807 L17.5,807.5 L18,808 L18.5,808.5 L18.5,809 L19.5,809.5 L20,810 L20.5,810.5 L22.5,811 L54,811.5 L126,812 L197.5,812.5 L269.5,813 L341,813.5 L412.5,814 L484,814.5 L555.5,815 L603,815.5 L604,816 L605.5,816.5 L606.5,817 L606.5,817.5 L607,818 L607.5,818.5 L607.5,819 L608,819.5 L608,820 L608.5,820.5 L608.5,821 L608.5,822 L608.5,822.5 L608.5,823 L608.5,823.5 L608.5,824 L608,824.5 L608,825 L607.5,825.5 L607.5,826.5 L606.5,827 L606,827.5 L605.5,828 L605,828.5 L604,829 L603,829.5 L556.5,829 L485,828.5 L418.5,828.5 " />
<path id="34" stroke-linecap="round" stroke="#6566CC" stroke-width="14.186657960723565" fill="none" moovel_area="6285.28" moovel_cumulative_area="286652.95" moovel_length="1208.62" d="M401,826.5 L364.5,826 L184,825.5 L22,826 L21,826.5 L20,827 L19.5,827.5 L19,828 L18.5,828.5 L18,829 L18,829.5 L17.5,830 L17.5,830.5 L17,831 L17,831.5 L17,832 L17,833 L17,833.5 L17,834 L17,834.5 L17,835 L17.5,836 L17.5,836.5 L18,837 L18.5,837.5 L18.5,838 L19,838.5 L20,839 L20.5,839.5 L21.5,840 L23,840.5 L290.5,841 L351.5,840.5 " />
<path id="35" stroke-linecap="round" stroke="#6566CC" stroke-width="14.186657960723565" fill="none" moovel_area="161.72" moovel_cumulative_area="286814.66" moovel_length="31.10" d="M369.5,841 L387.5,841 " />
<path id="36" stroke-linecap="round" stroke="#6566CC" stroke-width="14.186657960723565" fill="none" moovel_area="1391.44" moovel_cumulative_area="288206.10" moovel_length="267.57" d="M405,841 L565.5,841 " />
<path id="37" stroke-linecap="round" stroke="#6566CC" stroke-width="14.186657960723565" fill="none" moovel_area="160.22" moovel_cumulative_area="288366.32" moovel_length="30.81" d="M583.5,841 L601,841 " />
<path id="38" stroke-linecap="round" stroke="#6566CC" stroke-width="14.186657960723565" fill="none" moovel_name="Jalur KA Manggarai-Jatinegara" moovel_neighborhood="Matraman" moovel_area="355.97" moovel_cumulative_area="288722.29" moovel_length="68.45" d="M607,853.5 L607,854 L606.5,854.5 L605.5,855 L605,855.5 L603,856 L567.5,856 " />
<path id="39" stroke-linecap="round" stroke="#6566CC" stroke-width="14.186657960723565" fill="none" moovel_name="Jalur KA Manggarai-Jatinegara" moovel_neighborhood="Matraman" moovel_area="6094.15" moovel_cumulative_area="294816.44" moovel_length="1171.87" d="M550,856 L480.5,856.5 L23,857 L21,857.5 L20,858 L19.5,858.5 L19,859 L19,859.5 L18,860 L18,861 L17.5,861.5 L17.5,862 L17,862.5 L17,863 L17,863.5 L17,864.5 L17,865 L17,865.5 L17,866 L17.5,866.5 L17.5,867 L18,867.5 L18,868 L18.5,868.5 L19,869 L19.5,869.5 L19.5,870 L20,870.5 L21.5,871 L22.5,871.5 L49,872 L180.5,872 " />
<path id="40" stroke-linecap="round" stroke="#6566CC" stroke-width="14.186657960723565" fill="none" moovel_name="Jalur KA Ancol-Tanjung Priok" moovel_neighborhood="Tanjung Priok" moovel_area="10740.90" moovel_cumulative_area="305557.33" moovel_length="2065.41" d="M198,871 L493,871.5 L604,872 L605.5,872.5 L606.5,873 L606.5,873.5 L607,874 L607.5,874.5 L608,875 L608,875.5 L608.5,876 L608.5,876.5 L609,877 L609,877.5 L609,878 L609,878.5 L609,879.5 L609,880 L609,880.5 L608.5,881 L608.5,881.5 L608,882 L608,882.5 L607.5,883 L607,883.5 L606.5,884 L606,884.5 L605,885 L604.5,885.5 L603,886 L436,885.5 L21.5,886 L20.5,886.5 L20,887 L19.5,887.5 L18.5,888 L18.5,888.5 L18,889 L18,889.5 L17.5,890 L17.5,891 L17,891.5 L17,892 L17,892.5 L17,893 L17,893.5 L17.5,894.5 L17.5,895 L17.5,895.5 L18,896 L18,896.5 L18.5,897 L19,897.5 L19.5,898 L19.5,898.5 L20.5,899 L21,899.5 L23,900 L178,899.5 L239.5,899.5 " />
<path id="41" stroke-linecap="round" stroke="#6566CC" stroke-width="14.186657960723565" fill="none" moovel_name="Jalur KA Jatinegara - Cikampek" moovel_neighborhood="Cakung" moovel_area="4245.92" moovel_cumulative_area="309803.25" moovel_length="816.47" d="M258,900.5 L463.5,901 L604,901.5 L605,902 L606,902.5 L606.5,903 L607.5,903.5 L607.5,904 L608,904.5 L608.5,905 L608.5,905.5 L608.5,906.5 L609,907 L609,907.5 L609,908 L609,908.5 L609,909 L609,910 L608.5,910.5 L608.5,911 L608,911.5 L608,912 L607.5,912.5 L607,913 L607,913.5 L606.5,914 L605.5,914.5 L605,915 L604,915.5 L477.5,915.5 " />
<path id="42" stroke-linecap="round" stroke="#6566CC" stroke-width="14.186657960723565" fill="none" moovel_name="Jatinegara-Cikampek Railway Line" moovel_neighborhood="Cakung" moovel_area="341.10" moovel_cumulative_area="310144.35" moovel_length="65.59" d="M460.5,915.5 L421.5,915.5 " />
<path id="43" stroke-linecap="round" stroke="#6566CC" stroke-width="14.186657960723565" fill="none" moovel_name="Jakarta Bogor Railway Commuter Line" moovel_neighborhood="Jagakarsa" moovel_area="30534.77" moovel_cumulative_area="340679.11" moovel_length="5871.67" d="M403.5,915.5 L23.5,916 L21,916.5 L20.5,917 L19.5,917.5 L19,918 L19,918.5 L18.5,919 L18,919.5 L18,920 L17.5,920.5 L17.5,921 L17.5,921.5 L17,922 L17,922.5 L17,923.5 L17,924 L17.5,924.5 L17.5,925 L17.5,925.5 L18,926 L18,926.5 L18.5,927 L19,927.5 L19,928 L19.5,928.5 L20,929 L21,929.5 L21.5,930 L23.5,930.5 L113.5,930 L472,929.5 L603.5,930 L605,930.5 L606,931 L606.5,931.5 L607,932 L607.5,932.5 L608,933 L608,933.5 L608.5,934 L608.5,935 L609,935.5 L609,936 L609,936.5 L609,937 L609,937.5 L609,938.5 L609,939 L608.5,939.5 L608.5,940 L608,940.5 L608,941 L607.5,941.5 L607,942 L606.5,942.5 L606,943 L605,943.5 L604.5,944 L603,944.5 L233,945 L23.5,945.5 L21.5,946 L20.5,946.5 L19.5,947 L19.5,947.5 L19,948 L18.5,948.5 L18,949 L18,949.5 L17.5,950 L17.5,950.5 L17.5,951 L17.5,951.5 L17.5,952 L17.5,952.5 L17.5,953 L17.5,953.5 L17.5,954 L17.5,954.5 L18,955 L18,955.5 L18.5,956 L18.5,956.5 L19,957 L19.5,957.5 L20,958 L20.5,958.5 L21.5,959 L22.5,959.5 L273.5,959 L533.5,958.5 L603.5,959 L604.5,959.5 L605.5,960 L606.5,960.5 L607,961 L607.5,961.5 L607.5,962 L608,962.5 L608,963 L608.5,963.5 L608.5,964 L608.5,965 L609,965.5 L609,966 L609,966.5 L609,967 L608.5,968 L608.5,968.5 L608.5,969 L608,969.5 L608,970 L607.5,970.5 L607,971 L607,971.5 L606.5,972 L606,972.5 L605,973 L604,973.5 L602,974 L368.5,974.5 L148.5,975 L22.5,975.5 L21.5,976 L20.5,976.5 L20,977 L19,977.5 L18.5,978 L18.5,978.5 L18,979 L18,979.5 L17.5,980 L17.5,981 L17.5,981.5 L17.5,982 L17.5,982.5 L17.5,983 L17.5,983.5 L17.5,984.5 L17.5,985 L18,985.5 L18,986 L18.5,986.5 L19,987 L19.5,987.5 L19.5,988 L20.5,988.5 L21,989 L22,989.5 L272.5,989 L532.5,988.5 L603.5,989 L605,989.5 L606,990 L606.5,990.5 L607,991 L607.5,991.5 L607.5,992 L608,992.5 L608.5,993 L608.5,993.5 L608.5,994 L609,994.5 L609,995 L609,996 L609,996.5 L609,997 L609,997.5 L608.5,998 L608.5,998.5 L608.5,999.5 L608,1000 L607.5,1000.5 L607.5,1001 L607,1001.5 L606,1002 L605.5,1002.5 L604.5,1003 L603.5,1003.5 L525,1004 L472,1004 " />
<path id="44" stroke-linecap="round" stroke="#6566CC" stroke-width="14.186657960723565" fill="none" moovel_name="Jalur KA Manggarai-Jatinegara" moovel_neighborhood="Matraman" moovel_area="379.09" moovel_cumulative_area="341058.20" moovel_length="72.90" d="M454,1004.5 L411,1004.5 " />
<path id="45" stroke-linecap="round" stroke="#6566CC" stroke-width="14.186657960723565" fill="none" moovel_name="Jalur KA Manggarai-Jatinegara" moovel_neighborhood="Matraman" moovel_area="1290.86" moovel_cumulative_area="342349.06" moovel_length="248.23" d="M393,1004.5 L244.5,1004.5 " />
<path id="46" stroke-linecap="round" stroke="#6566CC" stroke-width="14.186657960723565" fill="none" moovel_name="Jalur KA Manggarai-Jatinegara" moovel_neighborhood="Tebet" moovel_area="2688.39" moovel_cumulative_area="345037.45" moovel_length="516.96" d="M227,1004.5 L148,1004 L23,1004.5 L21.5,1005 L20.5,1005.5 L20,1006 L19,1006.5 L18.5,1007 L18,1007.5 L18,1008 L17.5,1008.5 L17.5,1009 L17,1010 L17,1010.5 L17,1011 L17,1011.5 L17,1012 L17,1013 L17,1013.5 L17.5,1014 L17.5,1014.5 L18,1015 L18,1015.5 L18.5,1016 L19,1016.5 L19.5,1017 L19.5,1017.5 L20,1018 L21,1018.5 L22.5,1019 L109.5,1019 " />
<path id="47" stroke-linecap="round" stroke="#6566CC" stroke-width="14.186657960723565" fill="none" moovel_neighborhood="Jagakarsa" moovel_area="405.81" moovel_cumulative_area="345443.26" moovel_length="78.03" d="M127,1019.5 L173.5,1019.5 " />
<path id="48" stroke-linecap="round" stroke="#6566CC" stroke-width="14.186657960723565" fill="none" moovel_name="Jalur KA Manggarai - Bogor" moovel_neighborhood="Tebet" moovel_area="19352.85" moovel_cumulative_area="364796.11" moovel_length="3721.44" d="M191,1019.5 L194.5,1019 L477,1018.5 L603.5,1019 L605,1019.5 L605.5,1020 L606.5,1020.5 L606.5,1021 L607,1021.5 L607.5,1022 L608,1022.5 L608,1023 L608,1023.5 L608.5,1024 L608.5,1024.5 L608.5,1025.5 L608.5,1026 L608.5,1026.5 L608.5,1027 L608.5,1028 L608.5,1028.5 L608,1029 L608,1029.5 L607.5,1030 L607.5,1030.5 L607,1031 L606.5,1031.5 L606,1032 L605.5,1032.5 L604.5,1033 L603.5,1033.5 L602,1034 L182.5,1034.5 L22,1035 L21,1035.5 L20.5,1036 L19.5,1036.5 L19,1037 L18.5,1037.5 L18.5,1038 L18,1038.5 L18,1039 L17.5,1039.5 L17.5,1040 L17.5,1040.5 L17.5,1041 L17.5,1041.5 L17.5,1042.5 L17.5,1043 L17.5,1043.5 L17.5,1044 L18,1044.5 L18,1045 L18.5,1045.5 L19,1046 L19,1046.5 L19.5,1047 L20.5,1047.5 L21,1048 L22,1048.5 L24.5,1049 L369.5,1049.5 L603,1050 L605,1050.5 L605.5,1051 L606.5,1051.5 L606.5,1052 L607,1052.5 L607.5,1053 L608,1053.5 L608,1054 L608.5,1054.5 L608.5,1055 L608.5,1055.5 L608.5,1056.5 L608.5,1057 L608.5,1057.5 L608.5,1058 L608.5,1059 L608.5,1059.5 L608,1060 L608,1060.5 L607.5,1061 L607.5,1061.5 L607,1062 L606.5,1062.5 L606,1063 L605.5,1063.5 L604.5,1064 L604,1064.5 L602,1065 L554.5,1064.5 L196,1064 L22.5,1064.5 L21,1065 L20.5,1065.5 L19.5,1066 L19,1066.5 L18.5,1067 L18.5,1067.5 L18,1068 L18,1068.5 L17.5,1069 L17.5,1069.5 L17,1070 L17,1070.5 L17,1071.5 L17,1072 L17,1072.5 L17.5,1073 L17.5,1073.5 L17.5,1074 L18,1074.5 L18,1075 L18.5,1075.5 L19,1076 L19.5,1076.5 L20,1077 L20.5,1077.5 L21.5,1078 L22.5,1078.5 L27.5,1079 L29,1079 " />
<path id="49" stroke-linecap="round" stroke="#6566CC" stroke-width="14.186657960723565" fill="none" moovel_name="Jakarta Bogor Railway Commuter Line" moovel_neighborhood="Pasar Minggu" moovel_area="36120.39" moovel_cumulative_area="400916.49" moovel_length="6945.75" d="M46,1078.5 L313,1078 L604.5,1078.5 L605.5,1079 L606,1079.5 L606.5,1080 L607,1080.5 L607.5,1081 L608,1081.5 L608,1082.5 L608.5,1083 L608.5,1083.5 L608.5,1084 L608.5,1084.5 L609,1085 L609,1086 L608.5,1086.5 L608.5,1087 L608.5,1087.5 L608.5,1088 L608,1089 L608,1089.5 L607.5,1090 L607,1090.5 L606.5,1091 L606,1091.5 L605.5,1092 L604.5,1092.5 L603,1093 L382.5,1093.5 L23.5,1094 L21.5,1094.5 L20.5,1095 L19.5,1095.5 L19.5,1096 L19,1096.5 L18.5,1097 L18,1097.5 L18,1098 L17.5,1098.5 L17.5,1099 L17.5,1099.5 L17.5,1100 L17.5,1100.5 L17.5,1101.5 L17.5,1102 L17.5,1102.5 L17.5,1103 L18,1103.5 L18,1104 L18.5,1104.5 L18.5,1105 L19,1105.5 L19.5,1106 L20,1106.5 L20.5,1107 L21.5,1107.5 L22.5,1108 L604,1108.5 L605,1109 L606,1109.5 L606.5,1110 L607,1110.5 L607.5,1111 L607.5,1111.5 L608,1112 L608,1112.5 L608.5,1113 L608.5,1113.5 L608.5,1114 L609,1114.5 L609,1115.5 L609,1116 L608.5,1116.5 L608.5,1117 L608.5,1118 L608.5,1118.5 L608,1119 L607.5,1119.5 L607.5,1120 L607,1120.5 L606.5,1121 L606,1121.5 L605.5,1122 L605,1122.5 L603,1123 L433,1123.5 L23.5,1124 L21.5,1124.5 L20.5,1125 L19.5,1125.5 L19.5,1126 L19,1126.5 L18.5,1127 L18,1127.5 L18,1128 L18,1128.5 L17.5,1129 L17.5,1129.5 L17.5,1130 L17.5,1131 L17.5,1131.5 L17.5,1132 L17.5,1132.5 L17.5,1133 L18,1133.5 L18,1134 L18.5,1134.5 L18.5,1135 L19,1135.5 L19.5,1136 L20,1136.5 L20.5,1137 L21.5,1137.5 L22.5,1138 L511.5,1138.5 L604.5,1139 L605.5,1139.5 L606.5,1140 L606.5,1140.5 L607,1141 L607.5,1141.5 L608,1142 L608,1142.5 L608.5,1143 L608.5,1143.5 L608.5,1144 L609,1145 L609,1145.5 L609,1146 L609,1146.5 L608.5,1147 L608.5,1148 L608.5,1148.5 L608,1149 L608,1149.5 L607.5,1150 L607.5,1150.5 L607,1151 L606.5,1151.5 L606,1152 L605,1152.5 L604,1153 L602.5,1153.5 L488.5,1153 L21.5,1153.5 L20.5,1154 L20,1154.5 L19,1155 L18.5,1155.5 L18.5,1156 L18,1156.5 L18,1157 L17.5,1157.5 L17.5,1158 L17,1159 L17,1159.5 L17,1160 L17,1160.5 L17,1161 L17,1162 L17.5,1162.5 L17.5,1163 L17.5,1163.5 L18,1164 L18.5,1164.5 L18.5,1165 L19,1165.5 L19.5,1166 L20,1166.5 L21,1167 L22,1167.5 L24,1168 L604,1168.5 L605,1169 L606,1169.5 L606.5,1170 L607,1170.5 L608,1171 L608,1171.5 L608.5,1172 L608.5,1173 L609,1173.5 L609,1174 L609,1174.5 L609,1175 L609,1175.5 L609,1176.5 L609,1177 L608.5,1177.5 L608.5,1178 L608.5,1178.5 L608,1179 L607.5,1179.5 L607.5,1180 L607,1180.5 L606.5,1181 L605.5,1181.5 L605,1182 L604,1182.5 L602,1182.5 " />
<path id="50" stroke-linecap="round" stroke="#6566CC" stroke-width="14.186657960723565" fill="none" moovel_name="Jakarta Kota - Tanahabang - Manggarai" moovel_neighborhood="Tebet" moovel_area="388.48" moovel_cumulative_area="401304.97" moovel_length="74.70" d="M584.5,1182.5 L540,1182.5 " />
<path id="51" stroke-linecap="round" stroke="#6566CC" stroke-width="14.186657960723565" fill="none" moovel_name="Jalur KA Manggarai-Jatinegara" moovel_neighborhood="Tebet" moovel_area="2946.54" moovel_cumulative_area="404251.51" moovel_length="566.60" d="M522,1182.5 L409,1182 L182,1182 " />
<path id="52" stroke-linecap="round" stroke="#6566CC" stroke-width="14.186657960723565" fill="none" moovel_neighborhood="Tebet" moovel_area="4382.04" moovel_cumulative_area="408633.55" moovel_length="842.64" d="M164.5,1182.5 L22.5,1183 L21,1183.5 L20.5,1184 L19.5,1184.5 L19,1185 L18.5,1185.5 L18,1186 L18,1186.5 L17.5,1187 L17.5,1187.5 L17.5,1188 L17,1189 L17,1189.5 L17,1190 L17,1190.5 L17,1191 L17.5,1192 L17.5,1192.5 L17.5,1193 L18,1193.5 L18.5,1194 L18.5,1194.5 L19,1195 L19.5,1195.5 L20.5,1196 L21,1196.5 L22,1197 L23,1197.5 L367.5,1197.5 " />
<path id="53" stroke-linecap="round" stroke="#6566CC" stroke-width="14.186657960723565" fill="none" moovel_name="Jalur KA Manggarai - Tanah Abang" moovel_area="1804.00" moovel_cumulative_area="410437.55" moovel_length="346.90" d="M385.5,1197.5 L438,1197 L593.5,1197 " />
<path id="54" stroke-linecap="round" stroke="#6566CC" stroke-width="14.186657960723565" fill="none" moovel_neighborhood="Tebet" moovel_area="2929.99" moovel_cumulative_area="413367.54" moovel_length="563.42" d="M608.5,1203 L608.5,1203.5 L609,1204 L609,1204.5 L609,1205 L609,1205.5 L608.5,1206.5 L608.5,1207 L608.5,1207.5 L608,1208 L608,1208.5 L607.5,1209 L607,1209.5 L607,1210 L606.5,1210.5 L606,1211 L605,1211.5 L604,1212 L601.5,1212.5 L276.5,1212.5 " />
<path id="55" stroke-linecap="round" stroke="#6566CC" stroke-width="14.186657960723565" fill="none" moovel_neighborhood="Tebet" moovel_area="2669.41" moovel_cumulative_area="416036.95" moovel_length="513.31" d="M259.5,1212 L22.5,1212.5 L21.5,1213 L20.5,1213.5 L19.5,1214 L19,1214.5 L18.5,1215 L18.5,1215.5 L18,1216 L17.5,1216.5 L17.5,1217 L17.5,1217.5 L17,1218.5 L17,1219 L17,1219.5 L17,1220 L17,1220.5 L17.5,1221.5 L17.5,1222 L17.5,1222.5 L18,1223 L18,1223.5 L18.5,1224 L19,1224.5 L19.5,1225 L20,1225.5 L20.5,1226 L21.5,1226.5 L23,1227 L74.5,1227 " />
<path id="56" stroke-linecap="round" stroke="#6566CC" stroke-width="14.186657960723565" fill="none" moovel_neighborhood="Tebet" moovel_area="2321.09" moovel_cumulative_area="418358.05" moovel_length="446.33" d="M92,1227 L324,1226.5 L360,1227 " />
<path id="57" stroke-linecap="round" stroke="#6566CC" stroke-width="14.186657960723565" fill="none" moovel_name="Jakarta Kota - Tanahabang - Manggarai" moovel_area="157.10" moovel_cumulative_area="418515.14" moovel_length="30.21" d="M378,1227 L395.5,1227 " />
<path id="58" stroke-linecap="round" stroke="#6566CC" stroke-width="14.186657960723565" fill="none" moovel_neighborhood="Tebet" moovel_area="2267.74" moovel_cumulative_area="420782.88" moovel_length="436.07" d="M413.5,1227 L604.5,1227.5 L605,1228 L606,1228.5 L606.5,1229 L607,1229.5 L607.5,1230 L607.5,1230.5 L608,1231 L608,1231.5 L608.5,1232 L608.5,1232.5 L608.5,1233 L609,1233.5 L609,1234.5 L609,1235 L608.5,1235.5 L608.5,1236 L608.5,1236.5 L608,1237 L608,1238 L607.5,1238.5 L607.5,1239 L607,1239.5 L606,1240 L605.5,1240.5 L605,1241 L604,1241.5 L601.5,1242 L551,1242 " />
<path id="59" stroke-linecap="round" stroke="#6566CC" stroke-width="14.186657960723565" fill="none" moovel_neighborhood="Tebet" moovel_area="1500.13" moovel_cumulative_area="422283.01" moovel_length="288.47" d="M533.5,1242 L360.5,1242 " />
<path id="60" stroke-linecap="round" stroke="#6566CC" stroke-width="14.186657960723565" fill="none" moovel_name="Jalur KA Jakarta Kota - Manggarai" moovel_area="155.15" moovel_cumulative_area="422438.16" moovel_length="29.84" d="M342.5,1242 L325,1242 " />
<path id="61" stroke-linecap="round" stroke="#6566CC" stroke-width="14.186657960723565" fill="none" moovel_name="Manggarai-Depo Bukitduri" moovel_neighborhood="Tebet" moovel_area="4239.52" moovel_cumulative_area="426677.67" moovel_length="815.24" d="M307.5,1242 L156,1241.5 L23,1242 L21,1242.5 L20.5,1243 L19.5,1243.5 L19,1244 L18.5,1244.5 L18.5,1245 L18,1245.5 L18,1246 L17.5,1246.5 L17.5,1247 L17,1247.5 L17,1248 L17,1249 L17,1249.5 L17,1250 L17,1250.5 L17.5,1251 L17.5,1252 L18,1252.5 L18,1253 L18.5,1253.5 L18.5,1254 L19,1254.5 L20,1255 L20.5,1255.5 L21,1256 L23,1256.5 L199,1256 L208.5,1256 " />
<path id="62" stroke-linecap="round" stroke="#6566CC" stroke-width="14.186657960723565" fill="none" moovel_neighborhood="Tebet" moovel_area="3769.90" moovel_cumulative_area="430447.57" moovel_length="724.93" d="M225.5,1257 L233.5,1256.5 L298,1257 L604.5,1257.5 L605.5,1258 L606,1258.5 L607,1259 L607.5,1259.5 L607.5,1260 L608,1260.5 L608.5,1261 L608.5,1261.5 L608.5,1262 L609,1263 L609,1263.5 L609,1264 L609,1264.5 L609,1265 L609,1265.5 L608.5,1266.5 L608.5,1267 L608,1267.5 L608,1268 L607.5,1268.5 L607,1269 L607,1269.5 L606,1270 L605.5,1270.5 L604.5,1271 L603,1271.5 L565,1271.5 " />
<path id="63" stroke-linecap="round" stroke="#6566CC" stroke-width="14.186657960723565" fill="none" moovel_neighborhood="Tebet" moovel_area="2249.61" moovel_cumulative_area="432697.19" moovel_length="432.59" d="M547.5,1271.5 L426.5,1272 L287.5,1272 " />
<path id="64" stroke-linecap="round" stroke="#6566CC" stroke-width="14.186657960723565" fill="none" moovel_name="Jalur KA Bogor - Manggarai" moovel_neighborhood="Tebet" moovel_area="86920.21" moovel_cumulative_area="519617.40" moovel_length="16714.27" d="M269.5,1271.5 L230.5,1272 L26.5,1272.5 L21.5,1273 L20.5,1273.5 L20,1274 L19.5,1274.5 L19,1275 L18.5,1275.5 L18.5,1276 L18,1276.5 L18,1277 L17.5,1277.5 L17.5,1278 L17.5,1278.5 L17.5,1279 L17.5,1279.5 L17.5,1280 L17.5,1281 L17.5,1281.5 L18,1282 L18,1282.5 L18.5,1283 L18.5,1283.5 L19,1284 L19.5,1284.5 L20,1285 L20.5,1285.5 L21.5,1286 L23,1286.5 L110.5,1286 L269,1285.5 L428.5,1285 L588,1284.5 L602.5,1285 L604.5,1285.5 L605,1286 L606,1286.5 L606.5,1287 L607,1287.5 L607,1288 L607.5,1288.5 L607.5,1289 L608,1289.5 L608,1290 L608.5,1290.5 L608.5,1291 L608.5,1292 L608.5,1292.5 L608.5,1293 L608.5,1293.5 L608.5,1294.5 L608,1295 L608,1295.5 L608,1296 L607.5,1296.5 L607,1297 L607,1297.5 L606.5,1298 L606,1298.5 L605.5,1299 L605,1299.5 L604,1300 L602.5,1300.5 L497.5,1301 L347,1301.5 L196,1302 L45.5,1302.5 L21.5,1303 L20.5,1303.5 L20.5,1304 L19.5,1304.5 L19,1305 L19,1305.5 L18.5,1306 L18.5,1306.5 L18,1307 L18,1307.5 L18,1308 L17.5,1308.5 L17.5,1309 L17.5,1310 L18,1310.5 L18,1311 L18,1311.5 L18.5,1312 L18.5,1312.5 L19,1313 L19,1313.5 L19.5,1314 L20.5,1314.5 L20.5,1315 L21.5,1315.5 L22.5,1316 L253.5,1315.5 L539.5,1315 L603,1315.5 L604.5,1316 L605.5,1316.5 L606,1317 L606.5,1317.5 L606.5,1318 L607,1318.5 L607.5,1319 L607.5,1319.5 L608,1320 L608,1320.5 L608.5,1321 L608.5,1322 L608.5,1322.5 L608.5,1323 L608.5,1324 L608.5,1324.5 L608.5,1325 L608,1325.5 L608,1326.5 L607.5,1327 L607.5,1327.5 L607,1328 L606.5,1328.5 L606.5,1329 L606,1329.5 L605,1330 L604.5,1330.5 L603.5,1331 L547.5,1331.5 L287,1332 L26,1332.5 L22,1333 L21,1333.5 L20.5,1334 L19.5,1334.5 L19,1335 L19,1335.5 L18.5,1336 L18.5,1336.5 L18,1337 L18,1337.5 L18,1338 L18,1338.5 L18,1339 L18,1339.5 L18,1340 L18,1340.5 L18,1341 L18.5,1341.5 L18.5,1342 L19,1342.5 L19,1343 L19.5,1343.5 L20,1344 L20.5,1344.5 L21.5,1345 L22.5,1345.5 L24,1346 L52,1345.5 L202.5,1345 L353.5,1344.5 L504,1344 L604,1344.5 L605,1345 L605.5,1345.5 L606.5,1346 L606.5,1346.5 L607,1347 L607.5,1347.5 L607.5,1348 L608,1349 L608,1349.5 L608,1350 L608.5,1350.5 L608.5,1351.5 L608.5,1352 L608.5,1352.5 L608.5,1353 L608.5,1354 L608,1354.5 L608,1355 L607.5,1355.5 L607.5,1356.5 L607,1357 L607,1357.5 L606.5,1358 L605.5,1358.5 L605,1359 L604.5,1359.5 L603.5,1360 L559.5,1360.5 L416,1361 L272.5,1361.5 L129.5,1362 L23,1362.5 L21.5,1363 L20.5,1363.5 L20.5,1364 L19.5,1364.5 L19,1365 L19,1365.5 L18.5,1366 L18.5,1366.5 L18.5,1367 L18,1367.5 L18,1368 L18,1368.5 L18,1369 L18,1369.5 L18,1370 L18.5,1370.5 L18.5,1371 L18.5,1371.5 L19,1372 L19.5,1372.5 L19.5,1373 L20,1373.5 L20.5,1374 L21,1374.5 L21.5,1375 L23,1375.5 L89,1375 L199,1374.5 L309.5,1374 L419.5,1373.5 L529.5,1373 L604,1373.5 L605,1374 L605.5,1374.5 L606,1375 L606.5,1375.5 L607,1376 L607,1376.5 L607.5,1377 L608,1377.5 L608,1378 L608,1378.5 L608.5,1379.5 L608.5,1380 L608.5,1380.5 L608.5,1381.5 L608.5,1382 L608.5,1382.5 L608,1383 L608,1384 L608,1384.5 L607.5,1385 L607.5,1385.5 L607,1386 L606.5,1386.5 L606.5,1387 L606,1387.5 L605.5,1388 L604.5,1388.5 L604,1389 L600,1389.5 L493.5,1390 L388,1390.5 L281.5,1391 L175.5,1391.5 L69,1392 L23,1392.5 L21.5,1393 L21,1393.5 L20,1394 L19.5,1394.5 L19.5,1395 L19,1395.5 L19,1396 L18.5,1396.5 L18.5,1397 L18.5,1397.5 L18.5,1398 L18,1398.5 L18,1399 L18.5,1399.5 L18.5,1400 L18.5,1400.5 L18.5,1401 L19,1401.5 L19,1402 L19.5,1402.5 L19.5,1403 L20.5,1403.5 L21,1404 L22,1404.5 L23,1405 L25,1405.5 L28,1405 L126.5,1404.5 L225.5,1404 L324,1403.5 L423,1403 L521.5,1402.5 L604.5,1403 L605.5,1403.5 L606,1404 L606,1404.5 L606.5,1405 L607,1405.5 L607.5,1406 L607.5,1406.5 L608,1407 L608,1407.5 L608.5,1408 L608.5,1409 L608.5,1409.5 L608.5,1410 L608.5,1410.5 L608.5,1411.5 L608.5,1412 L608.5,1412.5 L608,1413 L608,1413.5 L608,1414 L607.5,1414.5 L607.5,1415.5 L607,1416 L606.5,1416.5 L606,1417 L605.5,1417.5 L605,1418 L604,1418.5 L602,1419 L505,1419.5 L403,1420 L300.5,1420.5 L198,1421 L96,1421.5 L23,1422 L21.5,1422.5 L21.5,1423 L20.5,1423.5 L20,1424 L19.5,1424.5 L19,1425 L19,1425.5 L19,1426 L18.5,1426.5 L18.5,1427 L18.5,1427.5 L18.5,1428 L18.5,1428.5 L18.5,1429.5 L18.5,1430 L19,1430.5 L19,1431 L19,1431.5 L20,1432 L20,1432.5 L20.5,1433 L21,1433.5 L21.5,1434 L22.5,1434.5 L24.5,1435 L40.5,1434.5 L183.5,1434 L327,1433.5 L470.5,1433 L604.5,1433.5 L605.5,1434 L606,1434.5 L606.5,1435 L607,1435.5 L607.5,1436 L607.5,1436.5 L608,1437.5 L608,1438 L608.5,1438.5 L608.5,1439 L608.5,1440 L608.5,1440.5 L608.5,1441 L608.5,1442 L608.5,1442.5 L608.5,1443 L608.5,1444 L608,1444.5 L608,1445 L607.5,1445.5 L607.5,1446 L607,1446.5 L606.5,1447 L606,1447.5 L605.5,1448 L605.5,1448.5 L604.5,1449 L603,1449.5 L454,1450 L285.5,1450.5 L116.5,1451 L23,1451.5 L22,1452 L21,1452.5 L20.5,1453 L20,1453.5 L19.5,1454 L19.5,1454.5 L19,1455 L19,1455.5 L19,1456 L18.5,1456.5 L18.5,1457 L18.5,1457.5 L18.5,1458 L18.5,1458.5 L18.5,1459 L19,1459.5 L19,1460 L19,1460.5 L19.5,1461 L20,1461.5 L20,1462 L21,1462.5 L21.5,1463 L22,1463.5 L23,1464 L108.5,1463.5 L215,1463 L321,1462.5 L427.5,1462 L533.5,1461.5 L604,1462 L605.5,1462.5 L606,1463 L606.5,1463.5 L607,1464 L607.5,1464.5 L608,1465.5 L608,1466 L608.5,1466.5 L608.5,1467 L608.5,1467.5 L608.5,1468.5 L609,1469 L609,1469.5 L609,1470.5 L608.5,1471 L608.5,1471.5 L608.5,1472.5 L608.5,1473 L608,1473.5 L608,1474 L607.5,1474.5 L607,1475 L607,1475.5 L606.5,1476 L606,1476.5 L605,1477 L604.5,1477.5 L603,1478 L505,1478.5 L390.5,1479 L276,1479.5 L161,1480 L46.5,1480.5 L23,1481 L21.5,1481.5 L21,1482 L20.5,1482.5 L20,1483 L19.5,1483.5 L19.5,1484 L19,1484.5 L19,1485 L18.5,1485.5 L18.5,1486 L18.5,1486.5 L18.5,1487 L18.5,1487.5 L18.5,1488 L18.5,1488.5 L19,1489 L19,1489.5 L19.5,1490 L19.5,1490.5 L20,1491 L20.5,1491.5 L20.5,1492 L21,1492.5 L22,1493 L23,1493.5 L24.5,1494 L50.5,1493.5 L241.5,1493 L432.5,1492.5 L604.5,1493 L605.5,1493.5 L606.5,1494 L607,1494.5 L607.5,1495 L607.5,1495.5 L608,1496 L608.5,1496.5 L608.5,1497 L608.5,1497.5 L609,1498 L609,1498.5 L609,1499.5 L609,1500 L609,1500.5 L609,1501.5 L609,1502 L609,1502.5 L608.5,1503 L608.5,1503.5 L608.5,1504.5 L608,1505 L607.5,1505.5 L607.5,1506 L606.5,1506.5 L606,1507 L605.5,1507.5 L604.5,1508 L602.5,1508.5 L430.5,1509 L251.5,1509.5 L72.5,1510 L23,1510.5 L22,1511 L21,1511.5 L20.5,1512 L20,1512.5 L19.5,1513 L19,1513.5 L19,1514 L18.5,1514.5 L18.5,1515 L18.5,1516 L18.5,1516.5 L18.5,1517 L18.5,1517.5 L18.5,1518 L18.5,1518.5 L18.5,1519 L19,1519.5 L19,1520 L19.5,1520.5 L19.5,1521 L20,1521.5 L20.5,1522 L21,1522.5 L21.5,1523 L22.5,1523.5 L24,1524 L71.5,1523.5 L161,1523 L211.5,1523 " />
<path id="65" stroke-linecap="round" stroke="#6566CC" stroke-width="14.186657960723565" fill="none" moovel_name="Jalur 10" moovel_area="1038.61" moovel_cumulative_area="520656.00" moovel_length="199.72" d="M228,1524 L347.5,1524 " />
<path id="66" stroke-linecap="round" stroke="#6566CC" stroke-width="14.186657960723565" fill="none" moovel_name="Jalur 5" moovel_area="1134.91" moovel_cumulative_area="521790.91" moovel_length="218.24" d="M365,1524 L496,1524 " />
<path id="67" stroke-linecap="round" stroke="#6566CC" stroke-width="14.186657960723565" fill="none" moovel_name="Jalur 6" moovel_area="1129.08" moovel_cumulative_area="522919.99" moovel_length="217.12" d="M513.5,1524 L603.5,1524.5 L605,1525 L605.5,1525.5 L606.5,1526 L607,1526.5 L607.5,1527 L608,1527.5 L608,1528 L608.5,1528.5 L608.5,1529 L608.5,1529.5 L609,1530 L609,1530.5 L609,1531.5 L609,1532 L609,1532.5 L609,1533 L608.5,1533.5 L608.5,1534 L608,1534.5 L608,1535.5 L607.5,1536 L606.5,1536.5 L606.5,1537 L606,1537.5 L605,1538 L604.5,1538.5 L602,1539 L583,1539 " />
<path id="68" stroke-linecap="round" stroke="#6566CC" stroke-width="14.186657960723565" fill="none" moovel_area="249.28" moovel_cumulative_area="523169.28" moovel_length="47.94" d="M564.5,1538.5 L536.5,1538.5 " />
<path id="69" stroke-linecap="round" stroke="#6566CC" stroke-width="14.186657960723565" fill="none" moovel_name="Jalur KA Manggarai - Jakarta Kota" moovel_neighborhood="Sawah Besar" moovel_area="24703.66" moovel_cumulative_area="547872.94" moovel_length="4750.38" d="M519,1539 L346.5,1539.5 L145,1540 L22.5,1540.5 L21,1541 L20,1541.5 L20,1542 L19,1542.5 L18.5,1543 L18.5,1543.5 L18,1544 L18,1544.5 L17.5,1545 L17.5,1546 L17.5,1546.5 L17.5,1547 L17.5,1547.5 L17.5,1548 L17.5,1548.5 L17.5,1549 L18,1549.5 L18,1550.5 L18.5,1551 L18.5,1551.5 L19.5,1552 L20,1552.5 L20,1553 L21,1553.5 L21.5,1554 L24,1554.5 L59.5,1554 L264.5,1553.5 L469,1553 L604,1553.5 L605,1554 L606,1554.5 L606.5,1555 L607,1555.5 L607,1556 L607.5,1556.5 L608,1557 L608,1557.5 L608.5,1558 L608.5,1558.5 L608.5,1559.5 L608.5,1560 L608.5,1560.5 L608.5,1561 L608.5,1562 L608.5,1562.5 L608.5,1563 L608,1563.5 L608,1564 L607.5,1564.5 L607.5,1565 L607,1565.5 L606.5,1566 L606,1566.5 L605.5,1567 L605,1567.5 L604,1568 L602.5,1568.5 L481.5,1569 L331,1569.5 L180,1570 L29.5,1570.5 L22,1571 L21,1571.5 L20,1572 L19.5,1572.5 L19,1573 L18.5,1573.5 L18,1574 L18,1574.5 L17.5,1575.5 L17.5,1576 L17.5,1576.5 L17.5,1577 L17.5,1577.5 L17.5,1578 L17.5,1578.5 L17.5,1579.5 L18,1580 L18,1580.5 L18.5,1581 L18.5,1581.5 L19,1582 L19.5,1582.5 L20,1583 L20.5,1583.5 L21.5,1584 L22.5,1584.5 L201,1584 L440,1583.5 L604,1584 L605,1584.5 L606,1585 L606.5,1585.5 L607,1586 L607,1586.5 L608,1587 L608,1588 L608.5,1588.5 L608.5,1589 L608.5,1589.5 L608.5,1590 L609,1590.5 L609,1591.5 L608.5,1592 L608.5,1592.5 L608.5,1593 L608.5,1593.5 L608,1594 L608,1594.5 L607.5,1595.5 L607.5,1596 L606.5,1596.5 L606,1597 L605.5,1597.5 L604.5,1598 L603.5,1598.5 L591,1599 L370.5,1599.5 L150,1600 L61.5,1600 " />
<path id="70" stroke-linecap="round" stroke="#6566CC" stroke-width="14.186657960723565" fill="none" moovel_name="Jalur KA Jakarta Kota - Manggarai" moovel_neighborhood="Sawah Besar" moovel_area="45359.26" moovel_cumulative_area="593232.20" moovel_length="8722.33" d="M44,1598 L24,1598.5 L22,1599 L20.5,1599.5 L20,1600 L19.5,1600.5 L19,1601 L18.5,1601.5 L18.5,1602 L18,1602.5 L17.5,1603 L17.5,1603.5 L17.5,1604 L17.5,1604.5 L17,1605 L17,1605.5 L17.5,1606.5 L17.5,1607 L17.5,1607.5 L17.5,1608 L18,1608.5 L18,1609 L18.5,1609.5 L19,1610 L19,1610.5 L19.5,1611 L20,1611.5 L21,1612 L22,1612.5 L24,1613 L35,1612.5 L149.5,1612 L264.5,1611.5 L379,1611 L493.5,1610.5 L604.5,1611 L605.5,1611.5 L606,1612 L606.5,1612.5 L607,1613 L607.5,1613.5 L608,1614 L608,1615 L608.5,1615.5 L608.5,1616 L608.5,1616.5 L608.5,1617 L608.5,1618 L608.5,1618.5 L608.5,1619 L608.5,1619.5 L608.5,1620.5 L608,1621 L608,1621.5 L607.5,1622 L607.5,1622.5 L607,1623 L606.5,1623.5 L606,1624 L605,1624.5 L604.5,1625 L603.5,1625.5 L575.5,1626 L445.5,1626.5 L315.5,1627 L185,1627.5 L55,1628 L22,1628.5 L21,1629 L20,1629.5 L19.5,1630 L19,1630.5 L19,1631 L18.5,1631.5 L18,1632 L18,1632.5 L18,1633 L17.5,1633.5 L17.5,1634 L17.5,1634.5 L17.5,1635 L17.5,1636 L17.5,1636.5 L17.5,1637 L18,1637.5 L18,1638 L18.5,1638.5 L18.5,1639 L19,1639.5 L19.5,1640 L20,1640.5 L20.5,1641 L21,1641.5 L22.5,1642 L113.5,1641.5 L219.5,1641 L325.5,1640.5 L431.5,1640 L538,1639.5 L604,1640 L605,1640.5 L606,1641 L606.5,1641.5 L607,1642 L607.5,1642.5 L607.5,1643 L608,1643.5 L608,1644 L608.5,1644.5 L608.5,1645 L609,1645.5 L609,1646.5 L609,1647 L609,1647.5 L609,1648 L608.5,1648.5 L608.5,1649.5 L608.5,1650 L608,1650.5 L608,1651 L607.5,1651.5 L607,1652 L607,1652.5 L606.5,1653 L605.5,1653.5 L605,1654 L604,1654.5 L581,1655 L466.5,1655.5 L354.5,1656 L244,1656.5 L132.5,1657 L23.5,1657.5 L21.5,1658 L21,1658.5 L20,1659 L19.5,1659.5 L19,1660 L19,1660.5 L18.5,1661.5 L18,1662 L18,1662.5 L17.5,1663 L17.5,1663.5 L17.5,1664 L17.5,1664.5 L17.5,1665.5 L17.5,1666 L18,1666.5 L18,1667 L18,1667.5 L18.5,1668 L18.5,1668.5 L19,1669 L19.5,1669.5 L20,1670 L21,1670.5 L21.5,1671 L22.5,1671.5 L153.5,1671 L177.5,1671.5 L181.5,1671 L319,1670.5 L455.5,1670 L592,1669.5 L602.5,1670 L605,1670.5 L606,1671 L606.5,1671.5 L607.5,1672 L608,1672.5 L608,1673 L608.5,1673.5 L609,1674 L609,1674.5 L609,1675 L609.5,1675.5 L609.5,1676 L609.5,1676.5 L609.5,1677.5 L609.5,1678 L609.5,1678.5 L609,1679 L609,1679.5 L608.5,1680 L608.5,1680.5 L608,1681 L607.5,1681.5 L607,1682 L607,1682.5 L606,1683 L605,1683.5 L604,1684 L568,1684.5 L443.5,1685 L319,1685.5 L194,1686 L70,1686.5 L22.5,1687 L21,1687.5 L20.5,1688 L19.5,1688.5 L19,1689 L18.5,1689.5 L18.5,1690 L18,1690.5 L18,1691 L17.5,1692 L17.5,1692.5 L17.5,1693 L17,1693.5 L17,1694 L17,1695 L17.5,1695.5 L17.5,1696 L17.5,1696.5 L18,1697 L18,1698 L18.5,1698.5 L19,1699 L19,1699.5 L19.5,1700 L20.5,1700.5 L21,1701 L22.5,1701.5 L24,1702 L38.5,1701.5 L198,1701 L356.5,1700.5 L516,1700 L604.5,1700.5 L605.5,1701 L606.5,1701.5 L607,1702 L607.5,1702.5 L608,1703 L608.5,1703.5 L609,1704.5 L609,1705 L609.5,1705.5 L609.5,1706 L609.5,1706.5 L609.5,1707 L609.5,1707.5 L609.5,1708 L609.5,1709 L609,1709.5 L609,1710 L608.5,1710.5 L608.5,1711 L608,1711.5 L607.5,1712 L607.5,1712.5 L606.5,1713 L606,1713.5 L604.5,1714 L603,1714.5 L477,1715 L326.5,1715.5 L175.5,1716 L25,1716.5 L22,1717 L21,1717.5 L20.5,1718 L19.5,1718.5 L19,1719 L18.5,1719.5 L18.5,1720 L18,1720.5 L18,1721 L17.5,1722 L17.5,1722.5 L17.5,1723 L17.5,1723.5 L17.5,1724 L17.5,1725 L17.5,1725.5 L17.5,1726 L18,1726.5 L18,1727 L18.5,1727.5 L19,1728 L19,1728.5 L19.5,1729 L20,1729.5 L20.5,1730 L21,1730.5 L22,1731 L23,1731.5 L87,1731 L237.5,1730.5 L388.5,1730 L429,1730 " />
<path id="71" stroke-linecap="round" stroke="#6566CC" stroke-width="14.186657960723565" fill="none" moovel_name="Jalur 1" moovel_area="1161.56" moovel_cumulative_area="594393.76" moovel_length="223.36" d="M446,1731.5 L580,1731.5 " />
<path id="72" stroke-linecap="round" stroke="#6566CC" stroke-width="14.186657960723565" fill="none" moovel_name="Jalur 3" moovel_area="1149.58" moovel_cumulative_area="595543.34" moovel_length="221.06" d="M597.5,1731.5 L603,1732 L604.5,1732.5 L605.5,1733 L606.5,1733.5 L607,1734 L607.5,1734.5 L607.5,1735 L608,1735.5 L608,1736 L608.5,1736.5 L608.5,1737 L609,1738 L609,1738.5 L609,1739 L609,1739.5 L609,1740 L608.5,1741 L608.5,1741.5 L608.5,1742 L608,1742.5 L608,1743 L607.5,1743.5 L607,1744 L606.5,1744.5 L606,1745 L605.5,1745.5 L604.5,1746 L603,1746.5 L496.5,1746.5 " />
<path id="73" stroke-linecap="round" stroke="#6566CC" stroke-width="14.186657960723565" fill="none" moovel_name="Jalur 2" moovel_area="1156.88" moovel_cumulative_area="596700.22" moovel_length="222.46" d="M479,1746.5 L345.5,1746.5 " />
<path id="74" stroke-linecap="round" stroke="#6566CC" stroke-width="14.186657960723565" fill="none" moovel_name="Jalur 4" moovel_area="1139.37" moovel_cumulative_area="597839.59" moovel_length="219.09" d="M327.5,1746.5 L196.5,1746.5 " />
<path id="75" stroke-linecap="round" stroke="#6566CC" stroke-width="14.186657960723565" fill="none" moovel_name="Jalur 9" moovel_area="1101.33" moovel_cumulative_area="598940.91" moovel_length="211.78" d="M178.5,1746.5 L51.5,1746.5 " />
<path id="76" stroke-linecap="round" stroke="#6566CC" stroke-width="14.186657960723565" fill="none" moovel_name="Jalur KA Jatinegara Cipinang" moovel_neighborhood="Matraman" moovel_area="13139.24" moovel_cumulative_area="612080.15" moovel_length="2526.60" d="M33.5,1746.5 L21.5,1747 L20.5,1747.5 L20,1748 L19,1748.5 L19,1749 L18.5,1749.5 L18,1750 L18,1750.5 L17.5,1751 L17.5,1751.5 L17,1752.5 L17,1753 L17,1753.5 L17,1754 L17,1754.5 L17,1755.5 L17,1756 L17.5,1756.5 L17.5,1757 L18,1757.5 L18,1758 L18.5,1758.5 L19,1759 L19.5,1759.5 L20,1760 L21,1760.5 L21.5,1761 L23,1761.5 L151,1762 L362.5,1762.5 L583,1763 L604.5,1763.5 L605.5,1764 L606,1764.5 L607,1765 L607.5,1765.5 L608,1766 L608,1766.5 L608.5,1767 L608.5,1767.5 L609,1768 L609,1768.5 L609,1769 L609,1770 L609,1770.5 L609,1771 L609,1771.5 L608.5,1772 L608.5,1772.5 L608.5,1773 L608,1773.5 L607.5,1774 L607.5,1774.5 L607,1775 L606.5,1775.5 L606,1776 L605,1776.5 L604,1777 L325.5,1776.5 L39,1776 L23.5,1776.5 L21,1777 L20.5,1777.5 L19.5,1778 L19,1778.5 L19,1779 L18.5,1779.5 L18,1780 L17.5,1780.5 L17.5,1781 L17.5,1781.5 L17,1782 L17,1782.5 L17,1783 L17,1784 L17,1784.5 L17,1785 L17,1785.5 L17.5,1786 L17.5,1787 L18,1787.5 L18,1788 L18.5,1788.5 L19,1789 L19.5,1789.5 L20,1790 L20.5,1790.5 L22,1791 L23.5,1791.5 L204,1792 L311.5,1792 " />
<path id="77" stroke-linecap="round" stroke="#6566CC" stroke-width="14.186657960723565" fill="none" moovel_name="Jalur 8" moovel_area="143.10" moovel_cumulative_area="612223.25" moovel_length="27.52" d="M329,1791 L345,1791 " />
<path id="78" stroke-linecap="round" stroke="#6566CC" stroke-width="14.186657960723565" fill="none" moovel_name="Jalur 8" moovel_area="3563.35" moovel_cumulative_area="615786.60" moovel_length="685.21" d="M363,1791 L533,1791.5 L604.5,1792 L605.5,1792.5 L606,1793 L607,1793.5 L607.5,1794 L607.5,1794.5 L608,1795 L608.5,1795.5 L608.5,1796 L609,1796.5 L609,1797.5 L609,1798 L609,1798.5 L609,1799 L609,1799.5 L609,1800 L608.5,1801 L608.5,1801.5 L608,1802 L608,1802.5 L607.5,1803 L607,1803.5 L607,1804 L606,1804.5 L605.5,1805 L604.5,1805.5 L603,1806 L451.5,1806 " />
<path id="79" stroke-linecap="round" stroke="#6566CC" stroke-width="14.186657960723565" fill="none" moovel_name="Jalur 9" moovel_area="1488.04" moovel_cumulative_area="617274.64" moovel_length="286.14" d="M434.5,1806 L262.5,1806 " />
<path id="80" stroke-linecap="round" stroke="#6566CC" stroke-width="14.186657960723565" fill="none" moovel_name="Jalur 9" moovel_area="147.81" moovel_cumulative_area="617422.45" moovel_length="28.42" d="M245.5,1806 L228.5,1806 " />
<path id="81" stroke-linecap="round" stroke="#6566CC" stroke-width="14.186657960723565" fill="none" moovel_name="Manggarai - Tanahabang - Jakarta Kota" moovel_area="153.51" moovel_cumulative_area="617575.96" moovel_length="29.52" d="M211,1806 L193.5,1806 " />
<path id="82" stroke-linecap="round" stroke="#6566CC" stroke-width="14.186657960723565" fill="none" moovel_name="Manggarai - Gambir - Jakarta Kota" moovel_neighborhood="Tebet" moovel_area="838.90" moovel_cumulative_area="618414.86" moovel_length="161.32" d="M176.5,1806 L80,1806 " />
<path id="83" stroke-linecap="round" stroke="#6566CC" stroke-width="14.186657960723565" fill="none" moovel_name="Jalur 10" moovel_area="142.49" moovel_cumulative_area="618557.35" moovel_length="27.40" d="M62.5,1806 L46.5,1806 " />
<path id="84" stroke-linecap="round" stroke="#6566CC" stroke-width="14.186657960723565" fill="none" moovel_name="Manggarai - Tanahabang - Jakarta Kota" moovel_neighborhood="Tebet" moovel_area="797.11" moovel_cumulative_area="619354.46" moovel_length="153.28" d="M28.5,1806 L22,1806.5 L20.5,1807 L20,1807.5 L19.5,1808 L19,1808.5 L18.5,1809 L18,1809.5 L18,1810 L17.5,1810.5 L17.5,1811 L17.5,1812 L17,1812.5 L17,1813 L17,1813.5 L17,1814 L17,1815 L17.5,1815.5 L17.5,1816 L18,1816.5 L18,1817 L18.5,1817.5 L18.5,1818 L19,1818.5 L19.5,1819 L20.5,1819.5 L21,1820 L22,1820.5 L30.5,1821 L89,1821 " />
<path id="85" stroke-linecap="round" stroke="#6566CC" stroke-width="14.186657960723565" fill="none" moovel_name="Jakarta Kota - Tanahabang - Manggarai" moovel_area="912.06" moovel_cumulative_area="620266.52" moovel_length="175.38" d="M107,1820.5 L212,1820.5 " />
<path id="86" stroke-linecap="round" stroke="#6566CC" stroke-width="14.186657960723565" fill="none" moovel_name="Jalur 10" moovel_area="170.46" moovel_cumulative_area="620436.98" moovel_length="32.78" d="M229,1820.5 L248.5,1820.5 " />
<path id="87" stroke-linecap="round" stroke="#6566CC" stroke-width="14.186657960723565" fill="none" moovel_name="Jalur 12" moovel_area="137.51" moovel_cumulative_area="620574.49" moovel_length="26.44" d="M266,1820.5 L281.5,1820.5 " />
<path id="88" stroke-linecap="round" stroke="#6566CC" stroke-width="14.186657960723565" fill="none" moovel_name="Jalur 12" moovel_area="1610.13" moovel_cumulative_area="622184.62" moovel_length="309.62" d="M299.5,1821 L354,1820.5 L485,1820.5 " />
<path id="89" stroke-linecap="round" stroke="#6566CC" stroke-width="14.186657960723565" fill="none" moovel_name="Jalur 4" moovel_area="155.05" moovel_cumulative_area="622339.67" moovel_length="29.81" d="M502,1820.5 L519.5,1820.5 " />
<path id="90" stroke-linecap="round" stroke="#6566CC" stroke-width="14.186657960723565" fill="none" moovel_name="Jalur 4" moovel_area="156.72" moovel_cumulative_area="622496.39" moovel_length="30.14" d="M537.5,1820.5 L555,1820.5 " />
<path id="91" stroke-linecap="round" stroke="#6566CC" stroke-width="14.186657960723565" fill="none" moovel_name="Jalur 7" moovel_area="1115.20" moovel_cumulative_area="623611.59" moovel_length="214.45" d="M572.5,1820.5 L602.5,1821 L604.5,1821.5 L605,1822 L606,1822.5 L606.5,1823 L607,1823.5 L608,1824 L608,1825 L608.5,1825.5 L608.5,1826 L608.5,1826.5 L609,1827 L609,1827.5 L609,1828 L609,1829 L609,1829.5 L608.5,1830 L608.5,1830.5 L608.5,1831 L608,1831.5 L607.5,1832 L607.5,1832.5 L607,1833 L606.5,1833.5 L606,1834 L605.5,1834.5 L604.5,1835 L603.5,1835.5 L525.5,1835.5 " />
<path id="92" stroke-linecap="round" stroke="#6566CC" stroke-width="14.186657960723565" fill="none" moovel_name="Jalur 7" moovel_area="140.83" moovel_cumulative_area="623752.43" moovel_length="27.08" d="M507.5,1835.5 L492,1835.5 " />
<path id="93" stroke-linecap="round" stroke="#6566CC" stroke-width="14.186657960723565" fill="none" moovel_name="Jalur KA Manggarai - Tanah Abang" moovel_neighborhood="Tanah Abang" moovel_area="32305.29" moovel_cumulative_area="656057.71" moovel_length="6212.13" d="M474.5,1835.5 L348,1835 L143.5,1834.5 L22,1835 L21,1835.5 L20,1836 L19.5,1836.5 L19,1837 L18.5,1837.5 L18,1838 L18,1838.5 L17.5,1839 L17,1839.5 L17,1840 L17,1841 L17,1841.5 L17,1842 L17,1842.5 L17,1843 L17,1844 L17,1844.5 L17.5,1845 L17.5,1845.5 L18,1846 L18.5,1846.5 L18.5,1847 L19,1847.5 L19.5,1848 L20,1848.5 L20.5,1849 L21.5,1849.5 L23.5,1850 L100.5,1850.5 L196,1851 L291.5,1851.5 L387,1852 L482.5,1852.5 L578,1853 L604.5,1853.5 L605.5,1854 L606.5,1854.5 L607,1855 L607.5,1855.5 L607.5,1856 L608,1856.5 L608.5,1857 L608.5,1857.5 L609,1858 L609,1858.5 L609,1859 L609,1859.5 L609,1860 L609,1860.5 L609,1861 L609,1862 L608.5,1862.5 L608.5,1863 L608,1863.5 L608,1864 L607.5,1864.5 L606.5,1865 L606,1865.5 L605.5,1866 L604.5,1866.5 L602.5,1867 L558.5,1866.5 L456,1866 L354,1865.5 L251.5,1865 L149,1864.5 L46.5,1864 L22.5,1864.5 L21,1865 L20.5,1865.5 L19,1866 L19,1866.5 L18.5,1867 L18,1867.5 L17.5,1868 L17.5,1868.5 L17,1869 L17,1869.5 L16.5,1870.5 L16.5,1871 L16.5,1871.5 L16.5,1872 L16.5,1873 L16.5,1873.5 L17,1874 L17,1874.5 L17.5,1875.5 L17.5,1876 L18,1876.5 L18.5,1877 L18.5,1877.5 L19,1878 L20,1878.5 L20.5,1879 L22,1879.5 L24.5,1880 L198.5,1880.5 L377.5,1881 L556.5,1881.5 L604,1882 L605,1882.5 L606.5,1883 L606.5,1883.5 L607,1884 L608,1884.5 L608,1885 L608.5,1885.5 L608.5,1886.5 L609,1887 L609,1887.5 L609,1888 L609,1888.5 L609,1889 L609,1889.5 L609,1890 L608.5,1890.5 L608.5,1891.5 L608,1892 L608,1892.5 L607,1893 L606.5,1893.5 L606,1894 L605.5,1894.5 L604.5,1895 L603,1895.5 L506,1895 L315,1894.5 L124,1894 L21.5,1894.5 L20.5,1895 L19.5,1895.5 L19,1896 L18.5,1896.5 L18,1897 L18,1897.5 L17.5,1898 L17,1898.5 L17,1899 L17,1899.5 L16.5,1900.5 L16.5,1901 L16.5,1901.5 L16.5,1902 L16.5,1903 L16.5,1903.5 L17,1904 L17,1904.5 L17.5,1905 L17.5,1905.5 L18,1906 L18.5,1906.5 L19,1907 L19,1907.5 L19.5,1908 L20,1908.5 L21.5,1909 L23,1909.5 L602.5,1910 L604.5,1910.5 L605.5,1911 L606.5,1911.5 L607,1912 L607.5,1912.5 L607.5,1913 L608,1913.5 L608,1914 L608.5,1914.5 L608.5,1915 L609,1915.5 L609,1916 L609,1916.5 L609,1917 L609,1917.5 L608.5,1918.5 L608.5,1919 L608.5,1919.5 L608,1920 L608,1920.5 L607.5,1921 L607,1921.5 L607,1922 L606,1922.5 L605.5,1923 L604.5,1923.5 L603,1924 L337.5,1924 " />
<path id="94" stroke-linecap="round" stroke="#6566CC" stroke-width="14.186657960723565" fill="none" moovel_name="Jalur KA Jatinegara - Cikampek" moovel_neighborhood="Jatinegara" moovel_area="20756.96" moovel_cumulative_area="676814.67" moovel_length="3991.45" d="M320,1924.5 L249,1925 L21.5,1925.5 L20.5,1926 L20,1926.5 L19,1927 L18.5,1927.5 L18,1928 L18,1928.5 L17.5,1929 L17.5,1929.5 L17,1930.5 L17,1931 L17,1931.5 L17,1932 L17,1932.5 L17,1933.5 L17,1934 L17,1934.5 L17.5,1935 L17.5,1935.5 L18,1936 L18.5,1936.5 L18.5,1937 L19,1937.5 L19.5,1938 L20,1938.5 L20.5,1939 L21.5,1939.5 L23.5,1940 L197.5,1940.5 L483.5,1941 L604,1941.5 L605,1942 L606,1942.5 L607,1943 L607.5,1943.5 L607.5,1944 L608,1944.5 L608.5,1945 L608.5,1945.5 L609,1946 L609,1946.5 L609,1947 L609,1948 L609,1948.5 L609,1949 L609,1949.5 L609,1950 L608.5,1950.5 L608.5,1951 L608,1951.5 L608,1952 L607.5,1952.5 L607,1953 L606.5,1953.5 L606,1954 L605,1954.5 L604.5,1955 L603,1955.5 L547,1955 L287,1954.5 L26.5,1954 L23.5,1954.5 L21.5,1955 L20,1955.5 L19.5,1956 L19,1956.5 L19,1957 L18.5,1957.5 L18,1958 L17.5,1958.5 L17.5,1959 L17,1959.5 L17,1960 L17,1960.5 L17,1961 L17,1962 L17,1962.5 L17,1963 L17,1963.5 L17.5,1964.5 L17.5,1965 L17.5,1965.5 L18,1966 L18.5,1966.5 L19,1967 L19,1967.5 L19.5,1968 L20.5,1968.5 L21.5,1969 L23,1969.5 L221.5,1969 L604,1969.5 L605,1970 L606,1970.5 L606.5,1971 L607.5,1971.5 L608,1972 L608,1972.5 L608.5,1973 L608.5,1974 L608.5,1974.5 L609,1975 L609,1975.5 L609,1976 L609,1976.5 L609,1977.5 L609,1978 L608.5,1978.5 L608.5,1979 L608,1979.5 L608,1980 L607.5,1980.5 L607,1981 L606.5,1981.5 L606,1982 L605,1982.5 L604.5,1983 L603,1983.5 L319.5,1983.5 " />
<path id="95" stroke-linecap="round" stroke="#6566CC" stroke-width="14.186657960723565" fill="none" moovel_name="Jatinegara-Cikampek Railway Line" moovel_neighborhood="Matraman" moovel_area="352.89" moovel_cumulative_area="677167.57" moovel_length="67.86" d="M302,1984 L261.5,1984 " />
<path id="96" stroke-linecap="round" stroke="#6566CC" stroke-width="14.186657960723565" fill="none" moovel_name="Jatinegara-Cikampek Railway Line" moovel_neighborhood="Matraman" moovel_area="1292.27" moovel_cumulative_area="678459.84" moovel_length="248.50" d="M244,1984 L95,1984 " />
<path id="97" stroke-linecap="round" stroke="#6566CC" stroke-width="14.186657960723565" fill="none" moovel_name="Jalur KA Cikampek - Jatinegara" moovel_neighborhood="Jatinegara" moovel_area="9110.47" moovel_cumulative_area="687570.30" moovel_length="1751.89" d="M77,1984 L21.5,1984.5 L20.5,1985 L20,1985.5 L19,1986 L19,1986.5 L18.5,1987 L18,1987.5 L18,1988 L17.5,1988.5 L17.5,1989 L17,1990 L17,1990.5 L17,1991 L17,1991.5 L17,1992 L17,1993 L17.5,1993.5 L17.5,1994 L17.5,1994.5 L18,1995 L18.5,1995.5 L18.5,1996 L19,1996.5 L19.5,1997 L20,1997.5 L21,1998 L22,1998.5 L23.5,1999 L138.5,1999.5 L289.5,2000 L440,2000.5 L595.5,2001 L604.5,2001.5 L605.5,2002 L606.5,2002.5 L607,2003 L607,2003.5 L607.5,2004 L608,2004.5 L608,2005 L608.5,2005.5 L608.5,2006 L609,2006.5 L609,2007 L609,2008 L609,2008.5 L609,2009 L609,2009.5 L608.5,2010 L608.5,2010.5 L608,2011.5 L608,2012 L607.5,2012.5 L607.5,2013 L606.5,2013.5 L606,2014 L605.5,2014.5 L604.5,2015 L603.5,2015.5 L520.5,2015 L369.5,2014.5 L223.5,2014.5 " />
<path id="98" stroke-linecap="round" stroke="#6566CC" stroke-width="14.186657960723565" fill="none" moovel_neighborhood="Tanah Abang" moovel_area="6821.34" moovel_cumulative_area="694391.64" moovel_length="1311.71" d="M206,2013.5 L148,2014 L22,2014.5 L21,2015 L20,2015.5 L19.5,2016 L19,2016.5 L18.5,2017 L18.5,2017.5 L18,2018 L18,2018.5 L17.5,2019 L17.5,2019.5 L17.5,2020 L17,2020.5 L17,2021 L17,2022 L17.5,2022.5 L17.5,2023 L17.5,2023.5 L18,2024 L18,2024.5 L18.5,2025 L18.5,2025.5 L19,2026 L19.5,2026.5 L20,2027 L21,2027.5 L21.5,2028 L23,2028.5 L144,2028 L383,2027.5 L604,2028 L605.5,2028.5 L606,2029 L606.5,2029.5 L607.5,2030 L607.5,2030.5 " />
<path id="99" stroke-linecap="round" stroke="#6566CC" stroke-width="14.186657960723565" fill="none" moovel_area="391.66" moovel_cumulative_area="694783.30" moovel_length="75.31" d="M600,2043.5 L555.5,2043.5 " />
<path id="100" stroke-linecap="round" stroke="#6566CC" stroke-width="14.186657960723565" fill="none" moovel_name="Jalur 6" moovel_neighborhood="Tanah Abang" moovel_area="2385.76" moovel_cumulative_area="697169.05" moovel_length="458.77" d="M538,2043.5 L461,2043 L262.5,2043 " />
<path id="101" stroke-linecap="round" stroke="#6566CC" stroke-width="14.186657960723565" fill="none" moovel_name="Jalur KA Tanahabang - Rangkasbitung" moovel_neighborhood="Pesanggrahan" moovel_area="12733.52" moovel_cumulative_area="709902.57" moovel_length="2448.58" d="M244.5,2043.5 L23,2044 L21,2044.5 L20,2045 L19.5,2045.5 L19,2046 L19,2046.5 L18.5,2047 L18,2047.5 L18,2048 L17.5,2048.5 L17.5,2049 L17,2049.5 L17,2050 L17,2050.5 L17,2051.5 L17,2052 L17,2052.5 L17.5,2053 L17.5,2053.5 L18,2054 L18,2054.5 L18.5,2055 L19,2055.5 L19,2056 L19.5,2056.5 L20,2057 L20.5,2057.5 L21.5,2058 L23.5,2058.5 L179.5,2058 L181.5,2058.5 L604,2059 L605.5,2059.5 L606,2060 L607,2060.5 L607.5,2061 L607.5,2061.5 L608,2062 L608.5,2062.5 L608.5,2063 L608.5,2063.5 L609,2064 L609,2065 L609,2065.5 L609,2066 L609,2066.5 L609,2067 L608.5,2067.5 L608.5,2068.5 L608.5,2069 L608,2069.5 L607.5,2070 L607.5,2070.5 L607,2071 L606,2071.5 L605.5,2072 L605,2072.5 L603.5,2073 L424.5,2073.5 L21.5,2074 L20.5,2074.5 L20,2075 L19.5,2075.5 L18.5,2076 L18.5,2076.5 L18,2077 L18,2077.5 L17.5,2078 L17.5,2079 L17.5,2079.5 L17,2080 L17,2080.5 L17,2081 L17.5,2081.5 L17.5,2082.5 L17.5,2083 L18,2083.5 L18,2084 L18.5,2084.5 L18.5,2085 L19,2085.5 L19.5,2086 L20.5,2086.5 L21,2087 L22,2087.5 L23,2088 L53.5,2088 " />
<path id="102" stroke-linecap="round" stroke="#6566CC" stroke-width="14.186657960723565" fill="none" moovel_name="Jalur KA Tanahabang - Rangkasbitung" moovel_neighborhood="Pesanggrahan" moovel_area="13500.86" moovel_cumulative_area="723403.43" moovel_length="2596.14" d="M71.5,2088 L341.5,2087.5 L604,2088 L605.5,2088.5 L606,2089 L607,2089.5 L607.5,2090 L607.5,2090.5 L608,2091 L608.5,2091.5 L608.5,2092 L608.5,2092.5 L609,2093 L609,2094 L609,2094.5 L609,2095 L609,2095.5 L609,2096 L608.5,2096.5 L608.5,2097 L608.5,2097.5 L608,2098.5 L608,2099 L607,2099.5 L606.5,2100 L606,2100.5 L605.5,2101 L604.5,2101.5 L603.5,2102 L153.5,2102.5 L21.5,2103 L20.5,2103.5 L20,2104 L19.5,2104.5 L19,2105 L18.5,2105.5 L18,2106 L18,2106.5 L18,2107 L17.5,2107.5 L17.5,2108 L17.5,2108.5 L17.5,2109 L17.5,2110 L17.5,2110.5 L17.5,2111 L17.5,2111.5 L17.5,2112 L18,2112.5 L18,2113 L18.5,2113.5 L19,2114 L19.5,2114.5 L19.5,2115 L20,2115.5 L21,2116 L22,2116.5 L24,2117 L433,2117 " />
<path id="103" stroke-linecap="round" stroke="#6566CC" stroke-width="14.186657960723565" fill="none" moovel_name="Jalur KA Cikampek - Jatinegara" moovel_area="5568.54" moovel_cumulative_area="728971.97" moovel_length="1070.80" d="M450.5,2117.5 L603,2118 L604.5,2118.5 L605.5,2119 L606,2119.5 L607,2120 L607.5,2120.5 L607.5,2121 L608,2121.5 L608,2122 L608.5,2122.5 L608.5,2123.5 L608.5,2124 L609,2124.5 L609,2125 L609,2125.5 L608.5,2126.5 L608.5,2127 L608.5,2127.5 L608,2128 L608,2128.5 L607.5,2129 L607.5,2129.5 L607,2130 L606.5,2130.5 L606,2131 L605,2131.5 L604.5,2132 L603.5,2132.5 L132,2132.5 " />
<path id="104" stroke-linecap="round" stroke="#6566CC" stroke-width="14.186657960723565" fill="none" moovel_name="Jalur KA Cikampek - Jatinegara" moovel_neighborhood="Cakung" moovel_area="341.83" moovel_cumulative_area="729313.81" moovel_length="65.73" d="M114.5,2132.5 L75.5,2132.5 " />
<path id="105" stroke-linecap="round" stroke="#6566CC" stroke-width="14.186657960723565" fill="none" moovel_name="Jalur KA Tanahabang - Rangkasbitung" moovel_neighborhood="Kebayoran Lama" moovel_area="220.48" moovel_cumulative_area="729534.29" moovel_length="42.40" d="M57.5,2132.5 L32.5,2132.5 " />
<path id="106" stroke-linecap="round" stroke="#6566CC" stroke-width="14.186657960723565" fill="none" moovel_name="Jalur KA Tanah Abang - Rangkasbitung" moovel_neighborhood="Pesanggrahan" moovel_area="229.14" moovel_cumulative_area="729763.43" moovel_length="44.06" d="M17.5,2137.5 L17.5,2138 L17,2138.5 L17,2139 L17,2140 L17,2140.5 L17,2141 L17.5,2141.5 L17.5,2142 L17.5,2142.5 L18,2143 L18,2143.5 L18.5,2144 L19,2144.5 L19.5,2145 L19.5,2145.5 L20,2146 L21,2146.5 L22.5,2147 L36.5,2147 " />
<path id="107" stroke-linecap="round" stroke="#6566CC" stroke-width="14.186657960723565" fill="none" moovel_name="Jalur KA Jakarta Kota - Manggarai" moovel_area="1168.93" moovel_cumulative_area="730932.35" moovel_length="224.78" d="M54,2147 L188.5,2147 " />
<path id="108" stroke-linecap="round" stroke="#6566CC" stroke-width="14.186657960723565" fill="none" moovel_name="Jalur KA Manggarai - Jakarta Kota" moovel_area="158.66" moovel_cumulative_area="731091.01" moovel_length="30.51" d="M206.5,2147 L224,2147 " />
<path id="109" stroke-linecap="round" stroke="#6566CC" stroke-width="14.186657960723565" fill="none" moovel_name="Jalur KA Cikampek - Jatinegara" moovel_neighborhood="Cakung" moovel_area="4467.48" moovel_cumulative_area="735558.49" moovel_length="859.07" d="M242,2147 L602.5,2147.5 L604.5,2148 L605.5,2148.5 L606,2149 L607,2149.5 L607.5,2150 L608,2150.5 L608,2151 L608.5,2151.5 L608.5,2152 L609,2153 L609,2153.5 L609,2154 L609,2154.5 L609,2155 L609,2155.5 L609,2156.5 L608.5,2157 L608.5,2157.5 L608,2158 L608,2158.5 L607.5,2159 L607,2159.5 L606.5,2160 L606,2160.5 L605,2161 L604,2161.5 L603,2162 L468,2162 " />
<path id="110" stroke-linecap="round" stroke="#6566CC" stroke-width="14.186657960723565" fill="none" moovel_name="Jalur KA Jakarta Kota - Manggarai" moovel_area="1213.38" moovel_cumulative_area="736771.87" moovel_length="233.33" d="M450.5,2162 L310.5,2162 " />
<path id="111" stroke-linecap="round" stroke="#6566CC" stroke-width="14.186657960723565" fill="none" moovel_name="Jalur KA Manggarai - Jakarta Kota" moovel_area="1169.72" moovel_cumulative_area="737941.59" moovel_length="224.93" d="M293,2162 L158.5,2162 " />
<path id="112" stroke-linecap="round" stroke="#6566CC" stroke-width="14.186657960723565" fill="none" moovel_name="Jalur KA Tanah Abang - Rangkasbitung" moovel_neighborhood="Tanah Abang" moovel_area="52319.51" moovel_cumulative_area="790261.10" moovel_length="10060.75" d="M140.5,2162 L21.5,2162.5 L20.5,2163 L20,2163.5 L19,2164 L18.5,2164.5 L18,2165 L18,2165.5 L17.5,2166 L17.5,2167 L17,2167.5 L17,2168 L17,2168.5 L17,2169 L17,2170 L17,2170.5 L17,2171 L17,2171.5 L17.5,2172 L17.5,2172.5 L18,2173.5 L18.5,2174 L18.5,2174.5 L19.5,2175 L20,2175.5 L20.5,2176 L21.5,2176.5 L23,2177 L250,2177.5 L602.5,2178 L605,2178.5 L606,2179 L606.5,2179.5 L607,2180 L607.5,2180.5 L608,2181 L608.5,2181.5 L608.5,2182 L608.5,2182.5 L609,2183 L609,2184 L609,2184.5 L609,2185 L609,2185.5 L609,2186 L609,2186.5 L608.5,2187 L608.5,2188 L608,2188.5 L608,2189 L607.5,2189.5 L606.5,2190 L606,2190.5 L605.5,2191 L604.5,2191.5 L603.5,2192 L347,2191.5 L21.5,2192 L20.5,2192.5 L20,2193 L19,2193.5 L18.5,2194 L18,2194.5 L18,2195 L17.5,2195.5 L17.5,2196.5 L17,2197 L17,2197.5 L17,2198 L17,2198.5 L17,2199.5 L17,2200 L17,2200.5 L17,2201 L17,2201.5 L17.5,2202.5 L18,2203 L18,2203.5 L18.5,2204 L19,2204.5 L20,2205 L20.5,2205.5 L21,2206 L22,2206.5 L46.5,2207 L215,2207.5 L383.5,2208 L552,2208.5 L604,2209 L605,2209.5 L606,2210 L606.5,2210.5 L607.5,2211 L608,2211.5 L608,2212 L608.5,2212.5 L608.5,2213 L609,2213.5 L609,2214.5 L609,2215 L609,2215.5 L609,2216 L609,2216.5 L609,2217 L608.5,2217.5 L608.5,2218 L608.5,2219 L608,2219.5 L607.5,2220 L607,2220.5 L606.5,2221 L606,2221.5 L605,2222 L603.5,2222.5 L416.5,2222 L225.5,2221.5 L34.5,2221 L23.5,2221.5 L21,2222 L20,2222.5 L19.5,2223 L19,2223.5 L18.5,2224 L18,2224.5 L17.5,2225 L17.5,2226 L17,2226.5 L17,2227 L17,2227.5 L16.5,2228 L16.5,2229 L16.5,2229.5 L17,2230 L17,2230.5 L17,2231 L17.5,2232 L17.5,2232.5 L18,2233 L18,2233.5 L18.5,2234 L19,2234.5 L20,2235 L20.5,2235.5 L21,2236 L22.5,2236.5 L83.5,2237 L252,2237.5 L420.5,2238 L589,2238.5 L604,2239 L605,2239.5 L606,2240 L606.5,2240.5 L607,2241 L608,2241.5 L608,2242 L608.5,2242.5 L608.5,2243.5 L609,2244 L609,2244.5 L609,2245 L609,2245.5 L609,2246 L609,2246.5 L608.5,2247.5 L608.5,2248 L608.5,2248.5 L608,2249 L607.5,2249.5 L607.5,2250 L607,2250.5 L606,2251 L605.5,2251.5 L605,2252 L603.5,2252.5 L459,2252 L280,2251.5 L101,2251 L22.5,2251.5 L20.5,2252 L20,2252.5 L19,2253 L18.5,2253.5 L18.5,2254 L18,2254.5 L17.5,2255 L17.5,2255.5 L17,2256 L17,2256.5 L17,2257 L16.5,2258 L16.5,2258.5 L16.5,2259 L16.5,2259.5 L17,2260.5 L17,2261 L17,2261.5 L17.5,2262 L17.5,2262.5 L18,2263 L18.5,2263.5 L19,2264 L19,2264.5 L19.5,2265 L20.5,2265.5 L22,2266 L23.5,2266.5 L173,2267 L341.5,2267.5 L510,2268 L603.5,2268.5 L605,2269 L605.5,2269.5 L606.5,2270 L607,2270.5 L607.5,2271 L607.5,2271.5 L608,2272 L608.5,2272.5 L608.5,2273 L608.5,2273.5 L609,2274 L609,2274.5 L609,2275 L609,2275.5 L609,2276 L608.5,2277 L608.5,2277.5 L608.5,2278 L608,2278.5 L608,2279 L607.5,2279.5 L607,2280 L606,2280.5 L605.5,2281 L605,2281.5 L604,2282 L601.5,2282.5 L586,2282 L417.5,2281.5 L248.5,2281 L80.5,2280.5 L22,2281 L21,2281.5 L19.5,2282 L19,2282.5 L19,2283 L18,2283.5 L17.5,2284.5 L17.5,2285 L17,2285.5 L17,2286 L16.5,2286.5 L16.5,2287 L16.5,2288 L16.5,2288.5 L16.5,2289 L16.5,2289.5 L16.5,2290.5 L17,2291 L17,2291.5 L17.5,2292 L17.5,2292.5 L18,2293 L18.5,2293.5 L19,2294 L19.5,2294.5 L20,2295 L21,2295.5 L22,2296 L69.5,2296.5 L206,2297 L342.5,2297.5 L478.5,2298 L602,2298.5 L604.5,2299 L605.5,2299.5 L606,2300 L606.5,2300.5 L607.5,2301 L607.5,2301.5 L608,2302 L608,2302.5 L608.5,2303 L608.5,2303.5 L608.5,2304 L609,2305 L609,2305.5 L609,2306 L608.5,2306.5 L608.5,2307 L608.5,2307.5 L608,2308 L608,2308.5 L607.5,2309 L607.5,2309.5 L607,2310 L606.5,2310.5 L606,2311 L605,2311.5 L604.5,2312 L603,2312.5 L538,2312 L413.5,2311.5 L289,2311 L163.5,2310.5 L88.5,2310.5 " />
<path id="113" stroke-linecap="round" stroke="#6566CC" stroke-width="14.186657960723565" fill="none" moovel_neighborhood="Tanjung Priok" moovel_area="3555.17" moovel_cumulative_area="793816.27" moovel_length="683.64" d="M71.5,2310.5 L22.5,2311 L21,2311.5 L20.5,2312 L19.5,2312.5 L19,2313 L19,2313.5 L18.5,2314 L18,2314.5 L18,2315 L17.5,2315.5 L17.5,2316 L17.5,2316.5 L17,2317 L17,2318 L17,2318.5 L17,2319 L17.5,2319.5 L17.5,2320 L17.5,2320.5 L18,2321 L18,2322 L18.5,2322.5 L19.5,2323 L20,2323.5 L20,2324 L20.5,2324.5 L22,2325 L24,2325.5 L196.5,2326 L365,2326 " />
<path id="114" stroke-linecap="round" stroke="#6566CC" stroke-width="14.186657960723565" fill="none" moovel_neighborhood="Cipayung" moovel_area="2024.53" moovel_cumulative_area="795840.80" moovel_length="389.31" d="M383,2325.5 L603,2326 L604.5,2326.5 L605.5,2327 L606.5,2327.5 L607,2328 L607.5,2328.5 L607.5,2329 L608,2329.5 L608,2330 L608.5,2330.5 L608.5,2331 L609,2331.5 L609,2332 L609,2332.5 L609,2333 L609,2333.5 L609,2334 L608.5,2335 L608.5,2335.5 L608.5,2336 L608,2336.5 " />
<path id="115" stroke-linecap="round" stroke="#6566CC" stroke-width="14.186657960723565" fill="none" moovel_neighborhood="Cipayung" moovel_area="395.15" moovel_cumulative_area="796235.95" moovel_length="75.99" d="M591.5,2340 L546.5,2340 " />
<path id="116" stroke-linecap="round" stroke="#6566CC" stroke-width="14.186657960723565" fill="none" moovel_neighborhood="Cipayung" moovel_area="64.49" moovel_cumulative_area="796300.44" moovel_length="12.40" d="M529,2340 L522,2340 " />
<path id="117" stroke-linecap="round" stroke="#6566CC" stroke-width="14.186657960723565" fill="none" moovel_neighborhood="Cipayung" moovel_area="2497.64" moovel_cumulative_area="798798.08" moovel_length="480.28" d="M504.5,2340 L501.5,2340.5 L216,2340.5 " />
<path id="118" stroke-linecap="round" stroke="#6566CC" stroke-width="14.186657960723565" fill="none" moovel_neighborhood="Cipayung" moovel_area="773.56" moovel_cumulative_area="799571.64" moovel_length="148.75" d="M198.5,2340 L185,2340.5 L109.5,2340 " />
<path id="119" stroke-linecap="round" stroke="#6566CC" stroke-width="14.186657960723565" fill="none" moovel_name="Jalur KA Jatinegara - Cikampek" moovel_neighborhood="Jatinegara" moovel_area="94.05" moovel_cumulative_area="799665.69" moovel_length="18.08" d="M91.5,2340 L81.5,2340 " />
<path id="120" stroke-linecap="round" stroke="#6566CC" stroke-width="14.186657960723565" fill="none" moovel_name="Jalur KA Cikampek - Jatinegara" moovel_neighborhood="Cakung" moovel_area="30552.99" moovel_cumulative_area="830218.67" moovel_length="5875.17" d="M63.5,2340 L27,2340.5 L21.5,2341 L20.5,2341.5 L20,2342 L19.5,2342.5 L18.5,2343 L18.5,2343.5 L18,2344 L17.5,2344.5 L17.5,2345.5 L17.5,2346 L17,2346.5 L17,2347 L17,2347.5 L17,2348 L17,2349 L17.5,2349.5 L17.5,2350 L17.5,2350.5 L18,2351 L18.5,2351.5 L18.5,2352 L19,2352.5 L19.5,2353 L20,2353.5 L21,2354 L21.5,2354.5 L23,2355 L341.5,2355.5 L604,2356 L605,2356.5 L606,2357 L606.5,2357.5 L607,2358 L607,2358.5 L607.5,2359 L608,2359.5 L608,2360 L608.5,2360.5 L608.5,2361 L608.5,2361.5 L608.5,2362 L609,2363 L608.5,2363.5 L608.5,2364 L608.5,2364.5 L608.5,2365 L608.5,2366 L608,2366.5 L608,2367 L607.5,2367.5 L607,2368 L606.5,2368.5 L606,2369 L605.5,2369.5 L605,2370 L603,2370.5 L81.5,2370 L23.5,2370.5 L21.5,2371 L20.5,2371.5 L19.5,2372 L19.5,2372.5 L19,2373 L18.5,2373.5 L18,2374 L18,2374.5 L17.5,2375 L17.5,2375.5 L17.5,2376 L17.5,2376.5 L17,2377 L17,2377.5 L17,2378.5 L17.5,2379 L17.5,2379.5 L17.5,2380 L18,2380.5 L18,2381 L18.5,2381.5 L19,2382 L19,2382.5 L19.5,2383 L20,2383.5 L21,2384 L22,2384.5 L24.5,2385 L33,2384.5 L319,2384 L604,2384.5 L605,2385 L606,2385.5 L606.5,2386 L607,2386.5 L607.5,2387 L607.5,2387.5 L608,2388 L608,2388.5 L608.5,2389 L608.5,2389.5 L608.5,2390 L609,2391 L609,2391.5 L608.5,2392 L608.5,2392.5 L608.5,2393 L608.5,2394 L608,2394.5 L608,2395 L607.5,2395.5 L607,2396 L607,2396.5 L606.5,2397 L605.5,2397.5 L605,2398 L604,2398.5 L602,2399 L389.5,2399.5 L129.5,2400 L22.5,2400.5 L21,2401 L20,2401.5 L19.5,2402 L19,2402.5 L18.5,2403 L18,2403.5 L18,2404 L17.5,2404.5 L17.5,2405 L17.5,2405.5 L17.5,2406.5 L17,2407 L17,2407.5 L17.5,2408 L17.5,2408.5 L17.5,2409.5 L17.5,2410 L18,2410.5 L18,2411 L18.5,2411.5 L19,2412 L19,2412.5 L20,2413 L20.5,2413.5 L21.5,2414 L23,2414.5 L178,2414 L417,2413.5 L604,2414 L605.5,2414.5 L606,2415 L606.5,2415.5 L607,2416 L607.5,2416.5 L608,2417 L608,2417.5 L608.5,2418 L608.5,2419 L608.5,2419.5 L609,2420 L609,2420.5 L609,2421 L609,2422 L608.5,2422.5 L608.5,2423 L608.5,2423.5 L608,2424 L608,2424.5 L607.5,2425 L607,2425.5 L607,2426 L606.5,2426.5 L606,2427 L605,2427.5 L604.5,2428 L602.5,2428.5 L396,2429 L130,2429 " />
<path id="121" stroke-linecap="round" stroke="#6566CC" stroke-width="14.186657960723565" fill="none" moovel_name="Jalur KA Jatinegara - Cikampek" moovel_neighborhood="Cakung" moovel_area="30549.61" moovel_cumulative_area="860768.28" moovel_length="5874.52" d="M112.5,2429 L106.5,2429.5 L22,2430 L20.5,2430.5 L20,2431 L19,2431.5 L19,2432 L18.5,2432.5 L18,2433 L18,2433.5 L17.5,2434 L17.5,2434.5 L17.5,2435.5 L17,2436 L17,2436.5 L17,2437 L17,2437.5 L17.5,2438 L17.5,2439 L17.5,2439.5 L18,2440 L18,2440.5 L18.5,2441 L19,2441.5 L19.5,2442 L19.5,2442.5 L20.5,2443 L21,2443.5 L23,2444 L291.5,2444.5 L603.5,2445 L605,2445.5 L605.5,2446 L606.5,2446.5 L607,2447 L607.5,2447.5 L607.5,2448 L608,2448.5 L608,2449 L608.5,2449.5 L608.5,2450.5 L608.5,2451 L608.5,2451.5 L608.5,2452 L608.5,2452.5 L608.5,2453.5 L608.5,2454 L608.5,2454.5 L608,2455 L608,2455.5 L607.5,2456 L607,2456.5 L607,2457 L606.5,2457.5 L606,2458 L605.5,2458.5 L604.5,2459 L603.5,2459.5 L306,2459 L22,2459.5 L20.5,2460 L20,2460.5 L19.5,2461 L19,2461.5 L18.5,2462 L18.5,2462.5 L18,2463 L17.5,2463.5 L17.5,2464 L17.5,2464.5 L17.5,2465 L17,2466 L17,2466.5 L17.5,2467 L17.5,2467.5 L17.5,2468 L17.5,2468.5 L18,2469 L18,2469.5 L18.5,2470 L19,2470.5 L19,2471 L19.5,2471.5 L20,2472 L20.5,2472.5 L21.5,2473 L23.5,2473.5 L140.5,2473 L427,2472.5 L603.5,2473 L605,2473.5 L606,2474 L606.5,2474.5 L607,2475 L607.5,2475.5 L608,2476 L608,2476.5 L608.5,2477.5 L608.5,2478 L608.5,2478.5 L608.5,2479 L609,2479.5 L609,2480.5 L608.5,2481 L608.5,2481.5 L608.5,2482 L608.5,2482.5 L608,2483 L608,2484 L607.5,2484.5 L607,2485 L606.5,2485.5 L606,2486 L605.5,2486.5 L604.5,2487 L603,2487.5 L491.5,2488 L231,2488.5 L23,2489 L21,2489.5 L20,2490 L19.5,2490.5 L19.5,2491 L19,2491.5 L18.5,2492 L18,2492.5 L18,2493 L17.5,2493.5 L17.5,2494 L17.5,2494.5 L17.5,2495 L17,2495.5 L17,2496 L17,2497 L17.5,2497.5 L17.5,2498 L17.5,2498.5 L18,2499 L18,2499.5 L18.5,2500 L19,2500.5 L19,2501 L19.5,2501.5 L20,2502 L21,2502.5 L22,2503 L24.5,2503.5 L129,2503 L603,2503.5 L604.5,2504 L606,2504.5 L606,2505 L606.5,2505.5 L607,2506 L607.5,2506.5 L608,2507 L608,2507.5 L608.5,2508 L608.5,2508.5 L608.5,2509 L609,2509.5 L609,2510 L609,2511 L609,2511.5 L608.5,2512 L608.5,2512.5 L608.5,2513 L608,2514 L608,2514.5 L607.5,2515 L607,2515.5 L607,2516 L606,2516.5 L605.5,2517 L605,2517.5 L604,2518 L414.5,2518.5 L179,2518.5 " />
<path id="122" stroke-linecap="round" stroke="#6566CC" stroke-width="14.186657960723565" fill="none" moovel_name="Jalur KA Duri-Tanahabang" moovel_neighborhood="Kebon Jeruk" moovel_area="220.28" moovel_cumulative_area="860988.55" moovel_length="42.36" d="M161,2518.5 L136,2518.5 " />
<path id="123" stroke-linecap="round" stroke="#6566CC" stroke-width="14.186657960723565" fill="none" moovel_name="Jalur KA Duri-Tanahabang" moovel_neighborhood="Cengkareng" moovel_area="75.34" moovel_cumulative_area="861063.89" moovel_length="14.49" d="M119,2518.5 L110.5,2518.5 " />
<path id="124" stroke-linecap="round" stroke="#6566CC" stroke-width="14.186657960723565" fill="none" moovel_name="Jalur KA Cikampek - Jatinegara" moovel_area="107.90" moovel_cumulative_area="861171.79" moovel_length="20.75" d="M93.5,2518.5 L81.5,2518.5 " />
<path id="125" stroke-linecap="round" stroke="#6566CC" stroke-width="14.186657960723565" fill="none" moovel_name="Jalur KA Duri-Tanahabang" moovel_neighborhood="Cengkareng" moovel_area="208.21" moovel_cumulative_area="861380.00" moovel_length="40.04" d="M63.5,2518.5 L40,2518.5 " />
<path id="126" stroke-linecap="round" stroke="#6566CC" stroke-width="14.186657960723565" fill="none" moovel_name="Jalur KA Duri-Tanahabang" moovel_neighborhood="Cengkareng" moovel_area="28756.97" moovel_cumulative_area="890136.97" moovel_length="5529.80" d="M22,2518.5 L21.5,2519 L20.5,2519.5 L20,2520 L19,2520.5 L18.5,2521 L18.5,2521.5 L18,2522 L17.5,2522.5 L17.5,2523 L17.5,2524 L17,2524.5 L17,2525 L17,2525.5 L17,2526 L17,2527 L17,2527.5 L17.5,2528 L17.5,2528.5 L18,2529 L18,2529.5 L18.5,2530 L19,2530.5 L19.5,2531 L19.5,2531.5 L20,2532 L21,2532.5 L22.5,2533 L124.5,2533.5 L533.5,2534 L604.5,2534.5 L605.5,2535 L606.5,2535.5 L607,2536 L607,2536.5 L607.5,2537 L608,2537.5 L608,2538 L608.5,2538.5 L608.5,2539 L609,2539.5 L609,2540 L609,2540.5 L609,2541.5 L609,2542 L609,2542.5 L608.5,2543 L608.5,2543.5 L608.5,2544 L608,2544.5 L607.5,2545 L607.5,2545.5 L607,2546 L606.5,2546.5 L606,2547 L605.5,2547.5 L604.5,2548 L603,2548.5 L402,2548 L21.5,2548.5 L20.5,2549 L20,2549.5 L19.5,2550 L18.5,2550.5 L18,2551 L18,2551.5 L17.5,2552.5 L17.5,2553 L17,2553.5 L17,2554 L17,2554.5 L17,2555 L17,2556 L17,2556.5 L17,2557 L17.5,2557.5 L17.5,2558 L18,2558.5 L18,2559.5 L18.5,2560 L19,2560.5 L19.5,2561 L20,2561.5 L20.5,2562 L21.5,2562.5 L23.5,2563 L492,2563.5 L604.5,2564 L605.5,2564.5 L606.5,2565 L607,2565.5 L607,2566 L607.5,2566.5 L608,2567 L608,2567.5 L608.5,2568 L608.5,2568.5 L609,2569 L609,2569.5 L609,2570.5 L609,2571 L609,2571.5 L609,2572 L608.5,2572.5 L608.5,2573 L608.5,2573.5 L608,2574.5 L607.5,2575 L607,2575.5 L606.5,2576 L606,2576.5 L605.5,2577 L604.5,2577.5 L602.5,2578 L313,2577.5 L22.5,2578 L21,2578.5 L20,2579 L19.5,2579.5 L19,2580 L18.5,2580.5 L18,2581 L18,2581.5 L17.5,2582 L17.5,2582.5 L17,2583 L17,2583.5 L17,2584 L17,2585 L17,2585.5 L17,2586 L17,2586.5 L17,2587 L17.5,2588 L17.5,2588.5 L18,2589 L18,2589.5 L18.5,2590 L19,2590.5 L19.5,2591 L20.5,2591.5 L21,2592 L22,2592.5 L65.5,2593 L270,2593.5 L474.5,2594 L603.5,2594.5 L605,2595 L606,2595.5 L606.5,2596 L607,2596.5 L607.5,2597 L608,2597.5 L608,2598 L608.5,2598.5 L608.5,2599.5 L609,2600 L609,2600.5 L609,2601 L609,2601.5 L609,2602 L609,2603 L608.5,2603.5 L608.5,2604 L608,2604.5 L608,2605 L607.5,2605.5 L607.5,2606 L607,2606.5 L606.5,2607 L605.5,2607.5 L605,2608 L604,2608.5 L447.5,2608 L296,2608 " />
<path id="127" stroke-linecap="round" stroke="#6566CC" stroke-width="14.186657960723565" fill="none" moovel_name="Jalur KA Duri-Tanahabang" moovel_neighborhood="Cengkareng" moovel_area="5821.23" moovel_cumulative_area="895958.20" moovel_length="1119.39" d="M279,2607.5 L57.5,2608 L21.5,2608.5 L20.5,2609 L20,2609.5 L19,2610 L19,2610.5 L18.5,2611 L18,2611.5 L18,2612 L17.5,2612.5 L17.5,2613 L17.5,2614 L17.5,2614.5 L17,2615 L17,2615.5 L17.5,2616 L17.5,2616.5 L17.5,2617.5 L17.5,2618 L18,2618.5 L18.5,2619 L18.5,2619.5 L19,2620 L19.5,2620.5 L20.5,2621 L21,2621.5 L22,2622 L23,2622.5 L387.5,2623 L420,2623 " />
<path id="128" stroke-linecap="round" stroke="#6566CC" stroke-width="14.186657960723565" fill="none" moovel_name="Jalur KA Duri-Tanahabang" moovel_neighborhood="Kembangan" moovel_area="10825.27" moovel_cumulative_area="906783.48" moovel_length="2081.64" d="M438,2622 L604,2622.5 L605.5,2623 L606,2623.5 L606.5,2624 L607,2624.5 L607.5,2625 L608,2625.5 L608,2626 L608.5,2626.5 L608.5,2627 L608.5,2628 L608.5,2628.5 L609,2629 L609,2629.5 L609,2630 L608.5,2631 L608.5,2631.5 L608.5,2632 L608,2632.5 L608,2633 L607.5,2633.5 L607,2634 L607,2634.5 L606.5,2635 L606,2635.5 L605.5,2636 L604.5,2636.5 L603.5,2637 L424,2637.5 L24,2638 L21.5,2638.5 L20.5,2639 L20,2639.5 L19,2640 L19,2640.5 L18.5,2641 L18,2641.5 L18,2642 L17.5,2642.5 L17.5,2643 L17.5,2644 L17.5,2644.5 L17,2645 L17,2645.5 L17.5,2646 L17.5,2646.5 L17.5,2647.5 L18,2648 L18,2648.5 L18.5,2649 L18.5,2649.5 L19,2650 L19.5,2650.5 L20.5,2651 L21,2651.5 L22,2652 L23.5,2652.5 L363.5,2653 L489.5,2653 " />
<path id="129" stroke-linecap="round" stroke="#6566CC" stroke-width="14.186657960723565" fill="none" moovel_area="1576.13" moovel_cumulative_area="908359.60" moovel_length="303.08" d="M507.5,2652 L603.5,2652.5 L605.5,2653 L606,2653.5 L607,2654 L607,2654.5 L607.5,2655 L608,2655.5 L608,2656 L608.5,2656.5 L608.5,2657 L609,2657.5 L609,2658.5 L609,2659 L609,2659.5 L609,2660 L609,2660.5 L608.5,2661 L608.5,2662 L608.5,2662.5 L608,2663 L607.5,2663.5 L607.5,2664 L607,2664.5 L606,2665 L605.5,2665.5 L605,2666 L603.5,2666.5 L537,2666.5 " />
<path id="130" stroke-linecap="round" stroke="#6566CC" stroke-width="14.186657960723565" fill="none" moovel_name="Taman Mini Aeromovel" moovel_neighborhood="Cipayung" moovel_area="5095.68" moovel_cumulative_area="913455.29" moovel_length="3159.34" d="M519.5,2666.5 L398,2666 L229.5,2665.5 L61.5,2665 L23,2665.5 L21,2666 L20.5,2666.5 L19.5,2667 L19,2667.5 L18.5,2668 L18,2668.5 L18,2669 L17.5,2669.5 L17,2670 L17,2670.5 L17,2671.5 L16.5,2672 L16.5,2672.5 L16.5,2673 L16.5,2674 L17,2674.5 L17,2675 L17,2675.5 L17.5,2676 L17.5,2677 L18,2677.5 L18.5,2678 L19,2678.5 L19,2679 L20,2679.5 L21,2680 L22,2680.5 L24,2681 L96,2681.5 L180,2682 L264.5,2682.5 L348.5,2683 L433,2683.5 L516,2684 L597.5,2684.5 L604.5,2685 L605.5,2685.5 L606.5,2686 L607,2686.5 L608,2687 L608,2687.5 L608.5,2688 L608.5,2688.5 L609,2689 L609,2689.5 L609,2690.5 L609,2691 L609.5,2691.5 L609,2692 L609,2692.5 L609,2693 L609,2693.5 L608.5,2694 L608.5,2694.5 L608,2695 L607.5,2695.5 L607,2696 L606.5,2696.5 L606,2697 L605,2697.5 L604,2698 L521,2697.5 L436,2697 L352,2696.5 L268,2696 L183.5,2695.5 L99,2695 L21.5,2695.5 L20.5,2696 L19.5,2696.5 L19,2697 L18.5,2697.5 L18,2698 L18,2698.5 L17.5,2699 L17,2699.5 L17,2700 L17,2701 L16.5,2701.5 L16.5,2702 L16.5,2702.5 L16.5,2703 L16.5,2704 L17,2704.5 L17,2705 L17.5,2705.5 L17.5,2706 L18,2706.5 L18,2707.5 L19,2708 L19.5,2708.5 L20,2709 L20.5,2709.5 L21.5,2710 L25,2710.5 L96.5,2711 L168,2711.5 L186.5,2711.5 " />
</svg>
