<?xml version="1.0" encoding="UTF-8" standalone="no"?>
<svg width="603px" height="2373px"  viewport="0 0 603 2373" version="1.1" xmlns="http://www.w3.org/2000/svg" xmlns:xlink="http://www.w3.org/1999/xlink">
<path id="1" stroke-linecap="round" stroke="#6566CC" stroke-width="10.933801874770184" fill="none" moovel_neighborhood="Cipayung" moovel_area="11254.63" moovel_cumulative_area="11254.63" moovel_length="3068.86" d="M23,8.5 L75,8 L333.5,7.5 L594,7 L600,7.5 L602,8 L603,9 L603.5,10 L604.5,11 L604.5,12 L605,13.5 L605,14.5 L604.5,16 L604.5,17 L604,18 L603,19 L602,20 L601,20.5 L600,21 L468,21.5 L224,22 L20.5,22.5 L18.5,23 L17.5,24 L17,25 L16.5,26 L16,27 L16,28 L16,29 L16,30 L16.5,31 L17.5,32 L18,33 L19,33.5 L20,34 L22.5,34.5 L47.5,34 L601.5,34.5 L602.5,35 L603.5,36 L604,36.5 L604.5,37.5 L605,38.5 L605,40 L605,41 L605,42 L604.5,43 L604,44 L603.5,45 L602.5,46 L602,46.5 L600.5,47 L553.5,47 " />
<path id="2" stroke-linecap="round" stroke="#6566CC" stroke-width="10.933801874770184" fill="none" moovel_name="Jalur 8" moovel_area="879.61" moovel_cumulative_area="12134.24" moovel_length="211.43" d="M539,47 L413,47 " />
<path id="3" stroke-linecap="round" stroke="#6566CC" stroke-width="10.933801874770184" fill="none" moovel_name="Jalur KA Manggarai - Jakarta Kota" moovel_area="17543.21" moovel_cumulative_area="29677.45" moovel_length="4216.83" d="M399,47 L106,46.5 L20,47 L18.5,47.5 L17.5,48 L17,49 L16,50 L15.5,51 L15.5,52.5 L15.5,53.5 L15.5,55 L16,56 L16.5,57 L17.5,58 L18,59 L19.5,59.5 L21.5,60 L322.5,60.5 L601.5,61 L602.5,61.5 L603.5,62 L604,63 L605,64 L605.5,65 L605.5,66 L605.5,67.5 L605.5,68.5 L605,69.5 L604,70.5 L603.5,71.5 L602.5,72 L601.5,72.5 L600,73 L412.5,72.5 L55,72 L20,72.5 L19,73 L18,73.5 L17,74.5 L16,75.5 L15.5,76.5 L15.5,77.5 L15,78.5 L15.5,80 L15.5,81 L16,82 L17,83 L17.5,84 L18.5,84.5 L19.5,85 L21,85.5 L142.5,86 L429.5,86.5 L601.5,87 L602.5,87.5 L603.5,88.5 L604,89 L605,90 L605,91 L605.5,92.5 L605.5,93.5 L605,94.5 L604.5,95.5 L604,96.5 L603.5,97.5 L602.5,98 L601,98.5 L600,99 L405,98.5 L248,98.5 " />
<path id="4" stroke-linecap="round" stroke="#6566CC" stroke-width="10.933801874770184" fill="none" moovel_name="Jatinegara-Cikampek Railway Line" moovel_neighborhood="Tebet" moovel_area="301.91" moovel_cumulative_area="29979.36" moovel_length="72.57" d="M233.5,99 L191,99 " />
<path id="5" stroke-linecap="round" stroke="#6566CC" stroke-width="10.933801874770184" fill="none" moovel_name="Jalur KA Ancol-Rajawali" moovel_area="7297.11" moovel_cumulative_area="37276.47" moovel_length="1753.99" d="M177,99 L20.5,99.5 L18.5,100 L17.5,101 L16.5,102 L16,103 L15.5,104 L15.5,105 L15.5,106.5 L16,107.5 L16.5,108.5 L17,109.5 L18,110.5 L19,111 L20,111.5 L21,112 L56,111.5 L316.5,111 L576.5,110.5 L600,111 L602.5,111.5 L603,112.5 L604,113.5 L604.5,114.5 L605,115.5 L605,116.5 L605,117.5 L605,119 L604.5,120 L604,121 L603.5,122 L602.5,122.5 L601.5,123.5 L599.5,124 L449,124.5 L315.5,124.5 " />
<path id="6" stroke-linecap="round" stroke="#6566CC" stroke-width="10.933801874770184" fill="none" moovel_name="Jalur KA Ancol-Tanjung Priok" moovel_area="269.43" moovel_cumulative_area="37545.90" moovel_length="64.76" d="M301,124.5 L263,124.5 " />
<path id="7" stroke-linecap="round" stroke="#6566CC" stroke-width="10.933801874770184" fill="none" moovel_area="339.36" moovel_cumulative_area="37885.26" moovel_length="81.57" d="M248.5,124.5 L200.5,124.5 " />
<path id="8" stroke-linecap="round" stroke="#6566CC" stroke-width="10.933801874770184" fill="none" moovel_name="Jalur KA Jakarta Kota-Ancol" moovel_area="743.59" moovel_cumulative_area="38628.85" moovel_length="178.73" d="M186.5,124.5 L80,124.5 " />
<path id="9" stroke-linecap="round" stroke="#6566CC" stroke-width="10.933801874770184" fill="none" moovel_neighborhood="Tebet" moovel_area="1952.87" moovel_cumulative_area="40581.72" moovel_length="469.41" d="M65.5,124.5 L20.5,125 L18.5,125.5 L17.5,126.5 L16.5,127.5 L16,128.5 L15.5,129.5 L15.5,131 L15.5,132 L15.5,133 L16,134 L17,135 L17.5,136 L18.5,136.5 L20,137 L21,137.5 L239.5,137.5 " />
<path id="10" stroke-linecap="round" stroke="#6566CC" stroke-width="10.933801874770184" fill="none" moovel_name="Jalur KA Rajawali-Jatinegara" moovel_neighborhood="Johar Baru" moovel_area="34356.00" moovel_cumulative_area="74937.72" moovel_length="8258.08" d="M254,137.5 L343,138 L601,138.5 L602,139 L603,139.5 L604,140.5 L604.5,141.5 L605,142.5 L605.5,143.5 L605.5,144.5 L605.5,146 L605,147 L604,148 L603.5,149 L602.5,149.5 L601.5,150 L600.5,150.5 L189,150 L20,150.5 L19,151 L18,151.5 L17,152 L16,153 L15.5,154.5 L15.5,155.5 L15,156.5 L15.5,158 L15.5,159 L16,160 L17,161 L18,162 L19,162.5 L20,163 L21,163.5 L600.5,164 L602.5,165 L603.5,165.5 L604.5,166.5 L605,167.5 L605.5,168.5 L605.5,169.5 L605.5,171 L605,172 L604.5,173 L604,174 L603,175 L602,175.5 L601,176 L19.5,176.5 L18.5,177 L17.5,178 L16.5,178.5 L16,179.5 L15.5,181 L15,182 L15,183.5 L15.5,184.5 L16,185.5 L16.5,186.5 L17.5,187.5 L18,188.5 L19.5,189 L20.5,189.5 L600.5,190 L602,190.5 L603,191 L604,191.5 L604.5,192.5 L605,193.5 L605.5,195 L605.5,196 L605.5,197 L605,198 L604.5,199 L604,200 L603,201 L602,201.5 L600.5,202 L19.5,202.5 L18,203 L17.5,203.5 L16.5,204.5 L16,205.5 L15.5,207 L15,208 L15.5,209.5 L15.5,210.5 L16,211.5 L16.5,212.5 L17.5,213.5 L18.5,214.5 L19.5,215 L183,215.5 L601,216 L602,216.5 L603,217 L604,218 L604.5,219 L605,220.5 L605,221.5 L605,222.5 L605,224 L604.5,225 L604,226 L603,227 L602,228 L601,228.5 L599,229 L588,228.5 L169,228 L19.5,228.5 L18.5,229 L17.5,229.5 L17,230.5 L16,231.5 L15.5,232.5 L15.5,234 L15.5,235 L15.5,236 L16,237.5 L16.5,238.5 L17.5,239.5 L18,240 L19.5,240.5 L20.5,241 L41,241.5 L232,242 L451,242 " />
<path id="11" stroke-linecap="round" stroke="#6566CC" stroke-width="10.933801874770184" fill="none" moovel_name="Jalur KA Ancol-Rajawali" moovel_neighborhood="Sawah Besar" moovel_area="2131.80" moovel_cumulative_area="77069.52" moovel_length="512.42" d="M465.5,241 L517.5,240.5 L600.5,241 L602.5,242 L603.5,242.5 L604,243.5 L604.5,244.5 L605,246 L605.5,247 L605,248 L605,249.5 L604.5,250.5 L604,251.5 L603,252.5 L602,253 L601,253.5 L598.5,254 L445,254 " />
<path id="12" stroke-linecap="round" stroke="#6566CC" stroke-width="10.933801874770184" fill="none" moovel_neighborhood="Tambora" moovel_area="9099.10" moovel_cumulative_area="86168.62" moovel_length="2187.13" d="M431,254 L164.5,254.5 L20,255 L19,255.5 L18,256 L17,256.5 L16.5,257.5 L16,259 L15.5,260 L15.5,261 L16,262 L16.5,263.5 L17,264.5 L17.5,265 L18.5,266 L19.5,266.5 L20.5,267 L594,266.5 L599.5,267 L602,267.5 L602.5,268 L603.5,269 L604,270 L604.5,271 L605,272.5 L605,273.5 L605,274.5 L604.5,276 L604,277 L603.5,278 L602.5,279 L602,279.5 L600.5,280 L308.5,280 " />
<path id="13" stroke-linecap="round" stroke="#6566CC" stroke-width="10.933801874770184" fill="none" moovel_neighborhood="Tambora" moovel_area="1844.93" moovel_cumulative_area="88013.55" moovel_length="443.46" d="M294.5,279.5 L28.5,279.5 " />
<path id="14" stroke-linecap="round" stroke="#6566CC" stroke-width="10.933801874770184" fill="none" moovel_name="Jalur 7" moovel_area="883.62" moovel_cumulative_area="88897.17" moovel_length="212.39" d="M16,283.5 L15.5,285 L15.5,286 L15.5,287.5 L16,288.5 L16.5,289.5 L17,290.5 L18,291 L19,292 L20,292.5 L136,292.5 " />
<path id="15" stroke-linecap="round" stroke="#6566CC" stroke-width="10.933801874770184" fill="none" moovel_area="2022.20" moovel_cumulative_area="90919.37" moovel_length="486.07" d="M151,292.5 L412.5,292 L440,292.5 L442.5,292.5 " />
<path id="16" stroke-linecap="round" stroke="#6566CC" stroke-width="10.933801874770184" fill="none" moovel_name="Jalur KA Jakarta Kota-Ancol" moovel_area="4728.49" moovel_cumulative_area="95647.86" moovel_length="1136.58" d="M456.5,292.5 L600.5,293 L602.5,294 L603.5,294.5 L604,295.5 L605,296.5 L605,297.5 L605.5,298.5 L605.5,300 L605,301 L604.5,302 L604,303 L603,304 L602,304.5 L601,305 L600,305.5 L77.5,305.5 " />
<path id="17" stroke-linecap="round" stroke="#6566CC" stroke-width="10.933801874770184" fill="none" moovel_name="Jalur KA Jakarta Kota-Rajawali" moovel_area="10058.94" moovel_cumulative_area="105706.80" moovel_length="2417.85" d="M63.5,305.5 L20,306 L19,306.5 L18,307 L17.5,307.5 L16.5,308.5 L16,309.5 L15.5,310.5 L15.5,312 L15.5,313 L16,314 L16.5,315 L17,316 L18,317 L19,317.5 L20,318 L281,317.5 L541,317 L600,317.5 L602,318 L603,319 L604,319.5 L604.5,320.5 L605,322 L605,323 L605,324 L605,325.5 L604.5,326.5 L604,327.5 L603.5,328.5 L602.5,329.5 L601.5,330 L600.5,330.5 L571,331 L333,331.5 L93.5,332 L19.5,332.5 L18.5,333 L17.5,333.5 L17,334.5 L16,335.5 L16,337 L15.5,338 L16,339 L16,340 L16.5,341.5 L17,342 L18,343 L19,343.5 L20,344 L21,344.5 L172,344 L221.5,344 " />
<path id="18" stroke-linecap="round" stroke="#6566CC" stroke-width="10.933801874770184" fill="none" moovel_area="209.41" moovel_cumulative_area="105916.21" moovel_length="50.34" d="M236,344 L265,344 " />
<path id="19" stroke-linecap="round" stroke="#6566CC" stroke-width="10.933801874770184" fill="none" moovel_area="3203.24" moovel_cumulative_area="109119.45" moovel_length="769.96" d="M280,344 L287,344.5 L600,345 L602.5,345.5 L603.5,346.5 L604,347 L605,348 L605,349 L605.5,350.5 L605.5,351.5 L605,352.5 L605,354 L604,355 L603.5,355.5 L602.5,356.5 L601,357 L599,357.5 L530.5,357 L475.5,357.5 " />
<path id="20" stroke-linecap="round" stroke="#6566CC" stroke-width="10.933801874770184" fill="none" moovel_name="Jalur KA Duri-Tanahabang" moovel_neighborhood="Kebon Jeruk" moovel_area="16820.43" moovel_cumulative_area="125939.88" moovel_length="4043.09" d="M461,357 L208.5,356.5 L19.5,357 L18.5,357.5 L17.5,358.5 L16.5,359 L16,360 L15.5,361.5 L15.5,362.5 L15.5,364 L15.5,365 L16,366 L16.5,367 L17.5,368 L18.5,369 L19.5,369.5 L22,370 L368.5,370.5 L600.5,371 L603,372 L603.5,372.5 L604.5,373.5 L605,374.5 L605.5,375.5 L605.5,376.5 L605.5,378 L605,379 L604.5,380 L604,381 L603,381.5 L602,382.5 L601,383 L351.5,382.5 L19.5,383 L18.5,383.5 L17.5,384 L16.5,385 L16,386 L15.5,387 L15,388.5 L15,389.5 L15.5,391 L16,392 L16.5,393 L17.5,394 L18.5,394.5 L19.5,395.5 L23,396 L500.5,396.5 L602,397 L603,398 L604,398.5 L604.5,399.5 L605,400.5 L605.5,401.5 L605.5,403 L605.5,404 L605,405 L604.5,406 L603.5,407 L602.5,407.5 L601.5,408.5 L599,409 L544,408.5 L415,408.5 " />
<path id="21" stroke-linecap="round" stroke="#6566CC" stroke-width="10.933801874770184" fill="none" moovel_area="174.84" moovel_cumulative_area="126114.72" moovel_length="42.03" d="M401,409 L377,409 " />
<path id="22" stroke-linecap="round" stroke="#6566CC" stroke-width="10.933801874770184" fill="none" moovel_neighborhood="Tambora" moovel_area="75.24" moovel_cumulative_area="126189.96" moovel_length="18.09" d="M362.5,409 L353,409 " />
<path id="23" stroke-linecap="round" stroke="#6566CC" stroke-width="10.933801874770184" fill="none" moovel_name="Jalur KA Jakarta Kota-Ancol" moovel_area="6753.37" moovel_cumulative_area="132943.33" moovel_length="1623.29" d="M338.5,409 L20.5,409.5 L18.5,410 L17.5,411 L17,412 L16,413 L16,414 L15.5,415 L15.5,416.5 L16,417.5 L16.5,418.5 L17,419.5 L18,420.5 L19,421 L20,421.5 L22,422 L89.5,421.5 L602,422 L603,423 L604,423.5 L604.5,424.5 L605,425.5 L605,427 L605.5,428 L605,429.5 L605,430.5 L604,431.5 L603.5,432.5 L602.5,433 L601.5,434 L599.5,434.5 L556,434.5 " />
<path id="24" stroke-linecap="round" stroke="#6566CC" stroke-width="10.933801874770184" fill="none" moovel_neighborhood="Tambora" moovel_area="120.49" moovel_cumulative_area="133063.82" moovel_length="28.96" d="M541.5,434.5 L525.5,434.5 " />
<path id="25" stroke-linecap="round" stroke="#6566CC" stroke-width="10.933801874770184" fill="none" moovel_neighborhood="Sawah Besar" moovel_area="52.03" moovel_cumulative_area="133115.85" moovel_length="12.51" d="M511,434.5 L504.5,434.5 " />
<path id="26" stroke-linecap="round" stroke="#6566CC" stroke-width="10.933801874770184" fill="none" moovel_name="Jalur KA Tanah Abang - Manggarai" moovel_neighborhood="Tanah Abang" moovel_area="41544.08" moovel_cumulative_area="174659.93" moovel_length="9985.87" d="M490.5,434.5 L299,434 L19.5,434.5 L18.5,435 L17.5,435.5 L16.5,436.5 L16,437.5 L15.5,438.5 L15,440 L15,441 L15.5,442.5 L16,443.5 L16.5,444.5 L17.5,445.5 L18.5,446 L19.5,447 L22,447.5 L340,448 L600.5,448.5 L603,449.5 L604,450 L604.5,451 L605,452 L605.5,453 L605.5,454 L605.5,455.5 L605.5,456.5 L604.5,457.5 L604,458.5 L603,459 L602,459.5 L601,460 L599.5,460.5 L512,460 L193.5,459.5 L19,460 L18,461 L17,461.5 L16,462.5 L15.5,464 L15,465 L15,466.5 L15,467.5 L15.5,469 L16,470 L17,471 L18,472 L19,472.5 L20,473 L91,473.5 L377.5,474 L600.5,474.5 L602.5,475 L603.5,476 L604.5,476.5 L605,477.5 L605.5,478.5 L605.5,479.5 L605.5,480.5 L605.5,481.5 L605,482.5 L604.5,483.5 L603.5,484.5 L603,485 L601.5,485.5 L600.5,486 L599.5,486.5 L577,486 L337.5,485.5 L99,485 L19.5,485.5 L18.5,486 L17.5,486.5 L16.5,487.5 L16,488.5 L15.5,490 L15,491 L15,492.5 L15,493.5 L15.5,495 L16,496 L17,497 L18,497.5 L19,498.5 L21.5,499 L166.5,499.5 L345.5,500 L524.5,500.5 L602,501 L603,501.5 L604,502.5 L604.5,503.5 L605,504.5 L605.5,505.5 L605.5,506.5 L605.5,507.5 L605,508.5 L604.5,509.5 L604,510.5 L603,511.5 L602,512 L599.5,512.5 L534.5,512 L375.5,511.5 L215.5,511 L57,510.5 L20,511 L18.5,511.5 L17.5,512 L16.5,513 L16,514 L15.5,515 L15,516.5 L15,517.5 L15,519 L15.5,520 L16,521.5 L17,522.5 L17.5,523 L19,524 L21.5,524.5 L132.5,525 L301,525.5 L469,526 L600.5,526.5 L602.5,527 L603.5,528 L604.5,529 L605,530 L605.5,531 L605.5,532 L605.5,533 L605,534 L604.5,535 L604,536 L603,537 L602,537.5 L601,538 L598.5,538.5 L592.5,538 L423.5,537.5 L255.5,537 L86,536.5 L19,537 L18,537.5 L17,538.5 L16,539.5 L15.5,540.5 L15,541.5 L15,543 L15,544 L15,545.5 L15.5,546.5 L16.5,547.5 L17,548.5 L18,549 L19.5,549.5 L20.5,550 L73.5,550.5 L265.5,551 L456,551.5 L600.5,552 L602.5,553 L603.5,553.5 L604,554.5 L604.5,555.5 L605,556.5 L605,557.5 L605,558.5 L605,559.5 L604.5,560.5 L604,561.5 L603,562.5 L602,563 L601,563.5 L600,564 L456.5,563.5 L448,564 L446.5,564 " />
<path id="27" stroke-linecap="round" stroke="#6566CC" stroke-width="10.933801874770184" fill="none" moovel_neighborhood="Tambora" moovel_area="402.54" moovel_cumulative_area="175062.47" moovel_length="96.76" d="M432.5,563.5 L375.5,563.5 " />
<path id="28" stroke-linecap="round" stroke="#6566CC" stroke-width="10.933801874770184" fill="none" moovel_area="209.41" moovel_cumulative_area="175271.88" moovel_length="50.34" d="M361,563.5 L332,563.5 " />
<path id="29" stroke-linecap="round" stroke="#6566CC" stroke-width="10.933801874770184" fill="none" moovel_area="180.24" moovel_cumulative_area="175452.12" moovel_length="43.32" d="M318,563.5 L293,563.5 " />
<path id="30" stroke-linecap="round" stroke="#6566CC" stroke-width="10.933801874770184" fill="none" moovel_name="Jalur KA Ancol-Tanjung Priok" moovel_neighborhood="Tanjung Priok" moovel_area="9839.18" moovel_cumulative_area="185291.30" moovel_length="2365.02" d="M279,563.5 L19,564 L18,564.5 L17,565.5 L16.5,566.5 L16,567.5 L15.5,568.5 L15.5,570 L15.5,571 L15.5,572 L16.5,573.5 L17,574.5 L18,575 L19,576 L20,576.5 L232.5,577 L601,577.5 L602,578 L603,578.5 L604,579.5 L604.5,580.5 L605,581.5 L605.5,582.5 L605.5,583.5 L605.5,585 L605,586 L604.5,587 L603.5,588 L602.5,588.5 L601.5,589 L600.5,589.5 L599,590 L590.5,589.5 L49.5,589.5 " />
<path id="31" stroke-linecap="round" stroke="#6566CC" stroke-width="10.933801874770184" fill="none" moovel_neighborhood="Tanjung Priok" moovel_area="104.64" moovel_cumulative_area="185395.94" moovel_length="25.15" d="M35.5,589.5 L21.5,589.5 " />
<path id="32" stroke-linecap="round" stroke="#6566CC" stroke-width="10.933801874770184" fill="none" moovel_name="Jalur KA Jakarta Kota-Rajawali" moovel_neighborhood="Sawah Besar" moovel_area="2197.55" moovel_cumulative_area="187593.49" moovel_length="528.22" d="M17.5,600.5 L18,601 L19,601.5 L20,602 L21,602.5 L122.5,602 L334,602 " />
<path id="33" stroke-linecap="round" stroke="#6566CC" stroke-width="10.933801874770184" fill="none" moovel_name="Jalur KA Tanahabang - Rangkasbitung" moovel_neighborhood="Tanah Abang" moovel_area="36700.66" moovel_cumulative_area="224294.15" moovel_length="8821.67" d="M348.5,602.5 L504.5,603 L601.5,603.5 L602.5,604 L603.5,604.5 L604,605.5 L605,606.5 L605.5,607.5 L605.5,608.5 L605.5,609.5 L605.5,611 L605,612 L604,613 L603.5,614 L602.5,614.5 L601.5,615 L600,615.5 L472,615 L63,614.5 L20,615 L18.5,615.5 L17.5,616 L17,617 L16,618 L15.5,619 L15.5,620.5 L15,621.5 L15.5,623 L16,624 L16.5,625 L17,626 L18,627 L19,627.5 L20.5,628 L119,628.5 L379.5,629 L600.5,629.5 L601.5,630 L603,630.5 L603.5,631 L604.5,632 L605,633 L605.5,634 L605.5,635.5 L605.5,636.5 L605,637.5 L604.5,638.5 L604,639.5 L603,640.5 L602,641 L600.5,641.5 L401.5,641 L142,640.5 L19,641 L18,641.5 L17,642.5 L16.5,643.5 L16,644.5 L15.5,645.5 L15,647 L15.5,648 L15.5,649.5 L16,650.5 L17,651.5 L17.5,652.5 L18.5,653 L20,653.5 L21,654 L246.5,654.5 L507,655 L601,655.5 L602.5,656 L603.5,656.5 L604,657.5 L605,658.5 L605,659.5 L605.5,660.5 L605.5,662 L605,663 L604.5,664 L604,665 L603,666 L602,666.5 L601,667 L600,667.5 L471.5,667 L247.5,666.5 L105.5,666 L18.5,666.5 L17.5,667.5 L17,668 L16,669 L15.5,670 L15.5,671.5 L15,672.5 L15.5,674 L15.5,675 L16.5,676 L17,677 L18,678 L19,678.5 L20,679 L63.5,679.5 L156,680 L287,680.5 L388,681 L487,681.5 L586.5,682 L602,683 L603,683.5 L603.5,684.5 L604,685.5 L604.5,686.5 L605,688 L605,689 L604.5,690 L604.5,691.5 L603.5,692.5 L603,693.5 L602,694 L601,694.5 L600,695 L522.5,694.5 L420,694 L317,693.5 L231,693 L129.5,692.5 L19,693 L17.5,693.5 L17,694.5 L16,695.5 L15.5,696.5 L15,697.5 L15,699 L15,700 L15.5,701.5 L16,702.5 L16.5,703.5 L17.5,704 L18.5,705 L20,705.5 L74.5,706 L211,706.5 L347.5,707 L484,707.5 L600.5,708 L602,708.5 L603,709 L603.5,710 L604.5,711 L605,712 L605,713 L605,714 L605,715.5 L604.5,716.5 L604,717.5 L603.5,718.5 L602.5,719 L601.5,719.5 L600,720 L475,719.5 L332.5,719.5 " />
<path id="34" stroke-linecap="round" stroke="#6566CC" stroke-width="10.933801874770184" fill="none" moovel_area="5028.22" moovel_cumulative_area="229322.37" moovel_length="1208.62" d="M319,718.5 L113,718 L19.5,718.5 L18.5,719 L17.5,720 L16.5,720.5 L16,721.5 L15.5,723 L15.5,724 L15.5,725.5 L15.5,726.5 L16,727.5 L16.5,728.5 L17.5,729.5 L18.5,730.5 L19.5,731 L22,731.5 L190,732 L381.5,732.5 L432,732.5 " />
<path id="35" stroke-linecap="round" stroke="#6566CC" stroke-width="10.933801874770184" fill="none" moovel_area="129.37" moovel_cumulative_area="229451.74" moovel_length="31.10" d="M446,731.5 L463.5,731.5 " />
<path id="36" stroke-linecap="round" stroke="#6566CC" stroke-width="10.933801874770184" fill="none" moovel_area="1113.15" moovel_cumulative_area="230564.89" moovel_length="267.57" d="M478,731.5 L600.5,732 L602.5,732.5 L603.5,733.5 L604,734.5 L605,735.5 L605,736.5 L605.5,738 L605.5,739 L605,740 L604.5,741 L604,742 L603,743 L602,743.5 L601,744 L600,744.5 L580,744.5 " />
<path id="37" stroke-linecap="round" stroke="#6566CC" stroke-width="10.933801874770184" fill="none" moovel_area="128.18" moovel_cumulative_area="230693.07" moovel_length="30.81" d="M565.5,744.5 L548,744.5 " />
<path id="38" stroke-linecap="round" stroke="#6566CC" stroke-width="10.933801874770184" fill="none" moovel_name="Jalur KA Manggarai-Jatinegara" moovel_neighborhood="Matraman" moovel_area="284.77" moovel_cumulative_area="230977.84" moovel_length="68.45" d="M534,744.5 L493.5,744.5 " />
<path id="39" stroke-linecap="round" stroke="#6566CC" stroke-width="10.933801874770184" fill="none" moovel_name="Jalur KA Manggarai-Jatinegara" moovel_neighborhood="Matraman" moovel_area="4875.32" moovel_cumulative_area="235853.16" moovel_length="1171.87" d="M479.5,744.5 L238.5,745 L135,744.5 L20.5,745 L19,745.5 L18,746 L17,746.5 L16.5,747.5 L16,748.5 L15.5,749.5 L15.5,751 L15.5,752 L15.5,753 L16,754 L16.5,755 L17.5,756 L18,757 L19,757.5 L21.5,758 L249,757.5 " />
<path id="40" stroke-linecap="round" stroke="#6566CC" stroke-width="10.933801874770184" fill="none" moovel_name="Jalur KA Ancol-Tanjung Priok" moovel_neighborhood="Tanjung Priok" moovel_area="8592.72" moovel_cumulative_area="244445.88" moovel_length="2065.41" d="M263,757.5 L487,758 L601.5,758.5 L602.5,759 L603.5,759.5 L604.5,760.5 L605,761.5 L605.5,762.5 L605.5,763.5 L605.5,765 L605,766 L605,767 L604,768 L603.5,769 L602.5,769.5 L601.5,770 L600,770.5 L301,770 L20,770.5 L18.5,771 L17.5,771.5 L17,772.5 L16,773.5 L15.5,774.5 L15.5,776 L15.5,777 L15.5,778 L16,779.5 L16.5,780.5 L17.5,781 L18.5,782 L19.5,782.5 L20.5,783 L303.5,783.5 L312,783.5 " />
<path id="41" stroke-linecap="round" stroke="#6566CC" stroke-width="10.933801874770184" fill="none" moovel_name="Jalur KA Jatinegara - Cikampek" moovel_neighborhood="Cakung" moovel_area="3396.74" moovel_cumulative_area="247842.62" moovel_length="816.47" d="M326,783.5 L602,784 L603,785 L603.5,785.5 L604.5,786.5 L605,787.5 L605.5,789 L605.5,790 L605.5,791 L605,792.5 L604.5,793.5 L603.5,794.5 L602.5,795 L601.5,795.5 L600.5,796 L599.5,796.5 L563.5,796 L401,796 " />
<path id="42" stroke-linecap="round" stroke="#6566CC" stroke-width="10.933801874770184" fill="none" moovel_name="Jatinegara-Cikampek Railway Line" moovel_neighborhood="Cakung" moovel_area="272.88" moovel_cumulative_area="248115.50" moovel_length="65.59" d="M386.5,796 L348,796 " />
<path id="43" stroke-linecap="round" stroke="#6566CC" stroke-width="10.933801874770184" fill="none" moovel_name="Jakarta Bogor Railway Commuter Line" moovel_neighborhood="Jagakarsa" moovel_area="24427.81" moovel_cumulative_area="272543.31" moovel_length="5871.67" d="M333.5,796 L222.5,796.5 L19,797 L18,798 L17,798.5 L16.5,799.5 L16,800.5 L15.5,802 L15.5,803 L15.5,804 L16,805.5 L16.5,806.5 L17.5,807 L18.5,808 L19.5,808.5 L20.5,809 L252.5,808.5 L539.5,808 L600.5,808.5 L602.5,809.5 L603.5,810 L604,811 L605,812 L605,813 L605.5,814.5 L605.5,815.5 L605,816.5 L604.5,818 L604,819 L603,819.5 L602,820.5 L601,821 L576,821.5 L283,822 L44,822.5 L19,823 L18,823.5 L17,824.5 L16.5,825.5 L16,826.5 L15.5,828 L15.5,829 L15.5,830 L16,831.5 L16.5,832.5 L17.5,833 L18,834 L19,834.5 L20.5,835 L186.5,834.5 L354.5,834 L523.5,833.5 L601,834 L602,834.5 L603,835 L603.5,836 L604.5,837 L605,838 L605,839 L605,840.5 L605,841.5 L605,843 L604,844 L603.5,845 L602.5,845.5 L601.5,846 L600.5,846.5 L599.5,847 L454.5,847.5 L298,848 L154.5,848.5 L20.5,849 L19,849.5 L18,850 L17.5,851 L16.5,852 L16,853 L16,854 L15.5,855 L16,856.5 L16,857.5 L16.5,858.5 L17.5,859.5 L18.5,860 L19.5,861 L21.5,861.5 L76,861 L220,860.5 L361,860 L497.5,859.5 L602,860 L603,860.5 L604,861.5 L604.5,862.5 L605,863.5 L605.5,864.5 L605.5,866 L605.5,867 L605,868.5 L604.5,869.5 L604,870.5 L603,871 L602,871.5 L601,872 L599.5,872.5 L505.5,873 L380.5,873 " />
<path id="44" stroke-linecap="round" stroke="#6566CC" stroke-width="10.933801874770184" fill="none" moovel_name="Jalur KA Manggarai-Jatinegara" moovel_neighborhood="Matraman" moovel_area="303.27" moovel_cumulative_area="272846.58" moovel_length="72.90" d="M366,873.5 L323.5,873.5 " />
<path id="45" stroke-linecap="round" stroke="#6566CC" stroke-width="10.933801874770184" fill="none" moovel_name="Jalur KA Manggarai-Jatinegara" moovel_neighborhood="Matraman" moovel_area="1032.69" moovel_cumulative_area="273879.27" moovel_length="248.23" d="M309.5,873.5 L161.5,873.5 " />
<path id="46" stroke-linecap="round" stroke="#6566CC" stroke-width="10.933801874770184" fill="none" moovel_name="Jalur KA Manggarai-Jatinegara" moovel_neighborhood="Tebet" moovel_area="2150.71" moovel_cumulative_area="276029.98" moovel_length="516.96" d="M146.5,873.5 L19,874 L18,874.5 L17,875.5 L16.5,876.5 L16,877.5 L15.5,878.5 L15.5,879.5 L15.5,880.5 L15.5,882 L16,883 L16.5,884 L17.5,884.5 L18,885.5 L19,886 L20,886.5 L106.5,887 L187.5,887 " />
<path id="47" stroke-linecap="round" stroke="#6566CC" stroke-width="10.933801874770184" fill="none" moovel_neighborhood="Jagakarsa" moovel_area="324.65" moovel_cumulative_area="276354.63" moovel_length="78.03" d="M201.5,886.5 L247.5,886.5 " />
<path id="48" stroke-linecap="round" stroke="#6566CC" stroke-width="10.933801874770184" fill="none" moovel_name="Jalur KA Manggarai - Bogor" moovel_neighborhood="Tebet" moovel_area="15482.28" moovel_cumulative_area="291836.91" moovel_length="3721.44" d="M261.5,886.5 L432,886 L601,886.5 L602,887 L603,887.5 L604,888.5 L604.5,889.5 L605,891 L605,892 L605,893.5 L605,894.5 L604.5,895.5 L604,896.5 L603,897.5 L602,898.5 L601,899 L599,899.5 L266.5,900 L19.5,900.5 L18.5,901 L17.5,902 L17,902.5 L16.5,903.5 L16,904.5 L16,906 L16,907 L16,908 L16.5,909 L17,910 L18,911 L18.5,911.5 L19.5,912 L21,912.5 L212.5,912 L601,912.5 L602,913 L603,913.5 L604,914.5 L604.5,915.5 L605,916.5 L605,918 L605,919 L605,920.5 L604.5,921.5 L604,922.5 L603,923.5 L602,924 L601,924.5 L600,925 L528,925.5 L51,926 L19,926.5 L18,927 L17,928 L16.5,929 L16,930 L15.5,931.5 L15.5,932.5 L16,933.5 L16,934.5 L17,936 L17.5,936.5 L18.5,937.5 L19.5,938 L20.5,938.5 L114,938.5 " />
<path id="49" stroke-linecap="round" stroke="#6566CC" stroke-width="10.933801874770184" fill="none" moovel_name="Jakarta Bogor Railway Commuter Line" moovel_neighborhood="Pasar Minggu" moovel_area="28896.31" moovel_cumulative_area="320733.22" moovel_length="6945.75" d="M128,938 L504.5,937.5 L601,938 L602,938.5 L603,939 L603.5,940 L604.5,941 L605,942 L605,943 L605,944.5 L605,945.5 L605,947 L604,948 L603.5,949 L602.5,949.5 L601.5,950 L600.5,950.5 L599.5,951 L256.5,951.5 L19.5,952 L18.5,952.5 L17.5,953 L17,954 L16.5,955 L16,956 L15.5,957.5 L15.5,958.5 L16,959.5 L16.5,960.5 L17,961.5 L18,962.5 L19,963 L20,963.5 L21,964 L254,963.5 L572,963 L600.5,963.5 L601.5,964 L602.5,964.5 L603.5,965 L604,966 L604.5,967 L605,968 L605,969.5 L605,970.5 L605,972 L604.5,973 L604,974 L603,975 L602,975.5 L601,976 L600,976.5 L396.5,977 L20.5,977.5 L19.5,978 L18.5,978.5 L17.5,979 L16.5,980 L16,981 L16,982.5 L15.5,983.5 L16,984.5 L16,985.5 L16.5,987 L17.5,987.5 L18,988.5 L19,989 L20.5,989.5 L501,989 L600,989.5 L602.5,990 L603.5,991 L604,992 L604.5,993 L605,994 L605.5,995.5 L605.5,996.5 L605,997.5 L604.5,999 L604,1000 L603,1000.5 L602,1001.5 L601,1002 L600,1002.5 L65.5,1003 L19,1003.5 L18,1004 L17,1005 L16.5,1006 L16,1007 L15.5,1008.5 L15.5,1009.5 L15.5,1010.5 L16,1012 L16.5,1013 L17.5,1014 L18,1014.5 L19.5,1015.5 L21.5,1016 L547,1015.5 L600.5,1016 L602,1016.5 L603,1017 L604,1017.5 L604.5,1018.5 L605,1019.5 L605.5,1021 L605.5,1022 L605.5,1023 L605,1024.5 L604.5,1025.5 L604,1026.5 L603,1027 L602,1027.5 L601,1028 L599.5,1028.5 L489.5,1028.5 " />
<path id="50" stroke-linecap="round" stroke="#6566CC" stroke-width="10.933801874770184" fill="none" moovel_name="Jakarta Kota - Tanahabang - Manggarai" moovel_neighborhood="Tebet" moovel_area="310.78" moovel_cumulative_area="321044.00" moovel_length="74.70" d="M475,1028.5 L431,1028.5 " />
<path id="51" stroke-linecap="round" stroke="#6566CC" stroke-width="10.933801874770184" fill="none" moovel_name="Jalur KA Manggarai-Jatinegara" moovel_neighborhood="Tebet" moovel_area="2357.24" moovel_cumulative_area="323401.24" moovel_length="566.60" d="M417,1028.5 L206.5,1028 L76.5,1028 " />
<path id="52" stroke-linecap="round" stroke="#6566CC" stroke-width="10.933801874770184" fill="none" moovel_neighborhood="Tebet" moovel_area="3505.63" moovel_cumulative_area="326906.87" moovel_length="842.64" d="M62,1028.5 L19.5,1029 L18.5,1029.5 L17.5,1030 L17,1031 L16,1032 L16,1033 L15.5,1034.5 L15.5,1035.5 L15.5,1036.5 L16,1038 L17,1039 L17.5,1040 L18.5,1040.5 L19.5,1041 L20.5,1041.5 L468,1041.5 " />
<path id="53" stroke-linecap="round" stroke="#6566CC" stroke-width="10.933801874770184" fill="none" moovel_name="Jalur KA Manggarai - Tanah Abang" moovel_area="1443.20" moovel_cumulative_area="328350.07" moovel_length="346.90" d="M482.5,1041.5 L601,1042 L602,1042.5 L603,1043 L604,1044 L604.5,1044.5 L605,1045.5 L605,1047 L605.5,1048 L605,1049 L605,1050 L604.5,1051 L603.5,1052 L603,1053 L602,1053.5 L601,1054 L599.5,1054.5 L528,1054.5 " />
<path id="54" stroke-linecap="round" stroke="#6566CC" stroke-width="10.933801874770184" fill="none" moovel_neighborhood="Tebet" moovel_area="2343.99" moovel_cumulative_area="330694.06" moovel_length="563.42" d="M513.5,1054.5 L305,1055 L175,1055 " />
<path id="55" stroke-linecap="round" stroke="#6566CC" stroke-width="10.933801874770184" fill="none" moovel_neighborhood="Tebet" moovel_area="2135.53" moovel_cumulative_area="332829.59" moovel_length="513.31" d="M160.5,1054.5 L19,1055 L18,1055.5 L17,1056.5 L16.5,1057.5 L16,1058.5 L15.5,1059.5 L15.5,1061 L15.5,1062 L16,1063 L16.5,1064 L17,1065 L18,1066 L19,1066.5 L20,1067 L21,1067.5 L171,1067.5 " />
<path id="56" stroke-linecap="round" stroke="#6566CC" stroke-width="10.933801874770184" fill="none" moovel_neighborhood="Tebet" moovel_area="1856.88" moovel_cumulative_area="334686.47" moovel_length="446.33" d="M185.5,1067.5 L199.5,1067 L453.5,1067 " />
<path id="57" stroke-linecap="round" stroke="#6566CC" stroke-width="10.933801874770184" fill="none" moovel_name="Jakarta Kota - Tanahabang - Manggarai" moovel_area="125.68" moovel_cumulative_area="334812.15" moovel_length="30.21" d="M467.5,1067.5 L484.5,1067.5 " />
<path id="58" stroke-linecap="round" stroke="#6566CC" stroke-width="10.933801874770184" fill="none" moovel_neighborhood="Tebet" moovel_area="1814.19" moovel_cumulative_area="336626.34" moovel_length="436.07" d="M498.5,1067.5 L519,1067 L600.5,1067.5 L602.5,1068.5 L603.5,1069 L604,1070 L604.5,1071 L605,1072 L605,1073 L605.5,1074 L605,1075 L605,1076 L604.5,1077 L603.5,1078 L603,1079 L602,1079.5 L601,1080 L599,1080.5 L458,1080.5 " />
<path id="59" stroke-linecap="round" stroke="#6566CC" stroke-width="10.933801874770184" fill="none" moovel_neighborhood="Tebet" moovel_area="1200.10" moovel_cumulative_area="337826.44" moovel_length="288.47" d="M443,1080.5 L270.5,1080.5 " />
<path id="60" stroke-linecap="round" stroke="#6566CC" stroke-width="10.933801874770184" fill="none" moovel_name="Jalur KA Jakarta Kota - Manggarai" moovel_area="124.12" moovel_cumulative_area="337950.56" moovel_length="29.84" d="M256,1080.5 L239,1080.5 " />
<path id="61" stroke-linecap="round" stroke="#6566CC" stroke-width="10.933801874770184" fill="none" moovel_name="Manggarai-Depo Bukitduri" moovel_neighborhood="Tebet" moovel_area="3391.61" moovel_cumulative_area="341342.17" moovel_length="815.24" d="M224.5,1080.5 L222,1080 L20,1080.5 L19,1081 L18,1081.5 L17,1082.5 L16,1083.5 L15.5,1084.5 L15.5,1086 L15.5,1087 L15.5,1088 L16,1089.5 L16.5,1090.5 L17.5,1091.5 L18.5,1092 L19.5,1092.5 L20.5,1093 L106,1093.5 L289,1093.5 " />
<path id="62" stroke-linecap="round" stroke="#6566CC" stroke-width="10.933801874770184" fill="none" moovel_neighborhood="Tebet" moovel_area="3015.92" moovel_cumulative_area="344358.09" moovel_length="724.93" d="M303,1093 L600,1093.5 L602,1094 L603,1095 L604,1095.5 L604.5,1096.5 L605,1097.5 L605.5,1099 L605.5,1100 L605,1101 L605,1102.5 L604,1103.5 L603.5,1104 L602.5,1105 L601.5,1105.5 L600.5,1106 L479.5,1106 " />
<path id="63" stroke-linecap="round" stroke="#6566CC" stroke-width="10.933801874770184" fill="none" moovel_neighborhood="Tebet" moovel_area="1799.69" moovel_cumulative_area="346157.78" moovel_length="432.59" d="M465,1106 L239.5,1106.5 L207,1106 L205.5,1106 " />
<path id="64" stroke-linecap="round" stroke="#6566CC" stroke-width="10.933801874770184" fill="none" moovel_name="Jalur KA Bogor - Manggarai" moovel_neighborhood="Tebet" moovel_area="69536.17" moovel_cumulative_area="415693.95" moovel_length="16714.27" d="M191,1106 L163.5,1106.5 L19.5,1107 L18.5,1107.5 L18,1108 L17,1109 L16.5,1110 L16,1111 L15.5,1112 L15.5,1113 L16,1114.5 L16.5,1115.5 L17,1116.5 L17.5,1117.5 L18.5,1118 L19.5,1118.5 L21,1119 L103,1118.5 L421.5,1118 L601,1118.5 L602,1119 L603,1119.5 L603.5,1120.5 L604,1121.5 L604.5,1122.5 L605,1124 L605,1125 L605,1126.5 L604.5,1127.5 L604,1128.5 L603.5,1129.5 L602.5,1130.5 L601.5,1131 L600.5,1131.5 L576,1132 L257.5,1132.5 L20.5,1133 L18.5,1133.5 L17.5,1134.5 L17,1135 L16.5,1136 L16,1137 L16,1138.5 L16,1139.5 L16.5,1140.5 L16.5,1141.5 L17.5,1142.5 L18,1143 L19,1143.5 L20,1144 L21,1144.5 L158.5,1144 L397,1143.5 L601.5,1144 L602.5,1144.5 L603,1145.5 L604,1146.5 L604.5,1147.5 L604.5,1149 L605,1150 L605,1151.5 L604.5,1152.5 L604,1154 L603.5,1155 L602.5,1156 L602,1156.5 L601,1157 L599.5,1157.5 L439.5,1158 L219.5,1158.5 L20.5,1159 L18.5,1160 L18,1160.5 L17,1161.5 L16.5,1162.5 L16.5,1163.5 L16,1164.5 L16,1165.5 L16.5,1166.5 L17,1167.5 L17.5,1168.5 L18.5,1169 L19.5,1169.5 L20.5,1170 L21.5,1170.5 L56,1170 L191.5,1169.5 L328.5,1169 L465,1168.5 L601.5,1169 L602.5,1169.5 L603,1170.5 L604,1171.5 L604.5,1172.5 L604.5,1174 L605,1175 L604.5,1176.5 L604.5,1178 L604,1179 L603.5,1180 L602.5,1181 L601.5,1181.5 L600.5,1182 L599.5,1182.5 L528,1183 L392.5,1183.5 L255.5,1184 L119,1184.5 L20.5,1185 L18.5,1185.5 L18,1186.5 L17.5,1187.5 L17,1188 L16.5,1189 L16.5,1190 L16.5,1191.5 L16.5,1192.5 L17,1193.5 L17.5,1194 L18.5,1195 L19.5,1195.5 L20.5,1196 L156.5,1195.5 L336,1195 L514.5,1194.5 L600.5,1195 L601.5,1195.5 L602.5,1196 L603.5,1197 L604,1198 L604.5,1199 L604.5,1200.5 L605,1202 L604.5,1203 L604.5,1204.5 L604,1205.5 L603.5,1206.5 L602.5,1207.5 L601.5,1208 L600.5,1208.5 L599.5,1209 L479,1209.5 L310,1210 L141.5,1210.5 L21,1211 L19,1211.5 L18,1212.5 L17.5,1213 L17,1214 L16.5,1215 L16.5,1216 L16.5,1217 L17,1218 L17.5,1219 L18,1220 L18.5,1220.5 L19.5,1221.5 L21.5,1222 L80,1221.5 L199,1221 L319,1220.5 L438,1220 L557,1219.5 L601,1220 L602,1220.5 L603,1221 L603.5,1222 L604,1223.5 L604.5,1224.5 L605,1226 L605,1227 L604.5,1228.5 L604.5,1230 L604,1231 L603,1232 L602.5,1233 L601.5,1233.5 L600.5,1234 L558.5,1234.5 L449,1235 L338.5,1235.5 L228.5,1236 L118,1236.5 L20.5,1237 L19.5,1237.5 L19,1238 L18,1238.5 L17.5,1239.5 L17,1240.5 L16.5,1241.5 L16.5,1242.5 L17,1243.5 L17,1244.5 L17.5,1245.5 L18,1246 L19,1247 L20,1247.5 L21,1248 L70.5,1247.5 L181,1247 L292,1246.5 L401.5,1246 L511.5,1245.5 L602,1246 L603,1247 L603.5,1248 L604,1249 L604.5,1250 L605,1251.5 L605,1253 L605,1254 L604.5,1255.5 L604,1256.5 L603.5,1258 L602.5,1258.5 L601.5,1259.5 L599.5,1260 L531,1260.5 L421,1261 L309.5,1261.5 L199.5,1262 L90,1262.5 L20,1263 L19,1263.5 L18.5,1264.5 L17.5,1265 L17,1266 L17,1267 L17,1268 L17,1269 L17,1270 L17.5,1271 L18.5,1272 L19,1272.5 L20,1273 L21,1273.5 L23,1274 L24,1273.5 L143.5,1273 L263,1272.5 L382.5,1272 L501.5,1271.5 L601.5,1272 L602.5,1272.5 L603,1273 L604,1274 L604.5,1275.5 L605,1276.5 L605,1278 L605,1279 L605,1280.5 L604.5,1281.5 L604,1283 L603.5,1284 L602.5,1284.5 L601.5,1285.5 L599.5,1286 L511,1286.5 L400,1287 L291,1287.5 L181,1288 L70,1288.5 L20,1289 L19,1289.5 L18,1290.5 L17.5,1291 L17,1292 L17,1293 L17,1294.5 L17,1295.5 L17,1296.5 L17.5,1297.5 L18.5,1298 L19,1299 L20,1299.5 L22,1300 L63.5,1299.5 L163,1299 L262,1298.5 L360,1298 L458.5,1297.5 L557.5,1297 L601,1297.5 L603,1298.5 L603.5,1299 L604.5,1300 L605,1301 L605,1302.5 L605.5,1303.5 L605.5,1305 L605,1306 L605,1307 L604.5,1308.5 L603.5,1309 L602.5,1310 L602,1310.5 L601,1311 L576.5,1311.5 L474,1312 L371,1312.5 L269,1313 L167.5,1313.5 L65,1314 L20,1314.5 L19,1315 L18,1316 L17.5,1317 L17,1317.5 L16.5,1319 L16.5,1320 L16.5,1321 L17,1322 L17.5,1323 L18,1324 L19,1325 L20,1325.5 L21,1326 L87.5,1325.5 L202,1325 L317,1324.5 L347.5,1324.5 " />
<path id="65" stroke-linecap="round" stroke="#6566CC" stroke-width="10.933801874770184" fill="none" moovel_name="Jalur 10" moovel_area="830.89" moovel_cumulative_area="416524.84" moovel_length="199.72" d="M361.5,1325.5 L481,1325.5 " />
<path id="66" stroke-linecap="round" stroke="#6566CC" stroke-width="10.933801874770184" fill="none" moovel_name="Jalur 5" moovel_area="907.93" moovel_cumulative_area="417432.77" moovel_length="218.24" d="M495,1325.5 L600.5,1326 L602,1326.5 L603,1327 L603.5,1327.5 L604.5,1328.5 L605,1329.5 L605,1331 L605.5,1332 L605,1333 L605,1334.5 L604.5,1335.5 L603.5,1336.5 L603,1337 L602,1338 L599.5,1338.5 L592.5,1338.5 " />
<path id="67" stroke-linecap="round" stroke="#6566CC" stroke-width="10.933801874770184" fill="none" moovel_name="Jalur 6" moovel_area="903.26" moovel_cumulative_area="418336.03" moovel_length="217.12" d="M578.5,1338.5 L449,1338.5 " />
<path id="68" stroke-linecap="round" stroke="#6566CC" stroke-width="10.933801874770184" fill="none" moovel_area="199.43" moovel_cumulative_area="418535.46" moovel_length="47.94" d="M434,1338.5 L406.5,1338.5 " />
<path id="69" stroke-linecap="round" stroke="#6566CC" stroke-width="10.933801874770184" fill="none" moovel_name="Jalur KA Manggarai - Jakarta Kota" moovel_neighborhood="Sawah Besar" moovel_area="19762.93" moovel_cumulative_area="438298.39" moovel_length="4750.38" d="M392,1338.5 L319,1339 L47,1339.5 L19,1340 L18,1340.5 L17.5,1341.5 L16.5,1342.5 L16,1343.5 L16,1344.5 L15.5,1345.5 L16,1346.5 L16,1348 L16.5,1349 L17.5,1349.5 L18.5,1350.5 L19.5,1351 L20.5,1351.5 L186,1351 L390,1350.5 L594.5,1350 L600.5,1350.5 L601.5,1351 L602.5,1351.5 L603,1352 L604,1353 L604.5,1354 L605,1355 L605,1356.5 L605,1357.5 L605,1359 L604.5,1360 L604,1361 L603,1362 L602,1362.5 L601,1363.5 L593,1364 L402.5,1364.5 L211,1365 L20.5,1365.5 L18.5,1366.5 L17.5,1367 L17,1368 L16.5,1369 L16,1370 L16,1371 L16,1372 L16,1373.5 L16.5,1374.5 L17,1375.5 L18,1376 L19,1377 L20,1377.5 L226,1377 L486,1376.5 L601,1377 L602,1377.5 L603,1378 L603.5,1379 L604.5,1380 L605,1381 L605,1382 L605,1383.5 L605,1384.5 L604.5,1385.5 L604,1387 L603.5,1388 L602.5,1388.5 L601.5,1389 L600.5,1389.5 L599.5,1390 L432.5,1390.5 L193.5,1391 L20,1391.5 L19,1392 L18,1392.5 L17.5,1393 L16.5,1394 L16,1395 L16,1396 L15.5,1397.5 L16,1398.5 L16,1399.5 L16.5,1400.5 L17.5,1401.5 L18,1402.5 L19,1403 L20,1403.5 L22.5,1404 L34.5,1403.5 L104,1403.5 " />
<path id="70" stroke-linecap="round" stroke="#6566CC" stroke-width="10.933801874770184" fill="none" moovel_name="Jalur KA Jakarta Kota - Manggarai" moovel_neighborhood="Sawah Besar" moovel_area="36287.41" moovel_cumulative_area="474585.80" moovel_length="8722.33" d="M118.5,1403 L274,1402.5 L561,1402 L600,1402.5 L602,1403 L603,1404 L604,1405 L604.5,1406 L605,1407 L605,1408 L605,1409.5 L605,1410.5 L604.5,1412 L604,1413 L603,1414 L602.5,1414.5 L601,1415 L600,1415.5 L535.5,1416 L276,1416.5 L21.5,1417 L19,1417.5 L18,1418 L17.5,1418.5 L16.5,1419.5 L16,1420.5 L16,1421.5 L16,1423 L16,1424 L16,1425 L16.5,1426 L17.5,1427 L18,1428 L19,1428.5 L20,1429 L422.5,1428.5 L600.5,1429 L602.5,1430 L603.5,1430.5 L604,1431.5 L604.5,1433 L605,1434 L605,1435 L605,1436.5 L605,1437.5 L604.5,1439 L603.5,1440 L602.5,1440.5 L601.5,1441 L600.5,1441.5 L599.5,1442 L303.5,1442.5 L20.5,1443 L18.5,1444 L17.5,1444.5 L16.5,1445.5 L16,1446.5 L16,1447.5 L15.5,1448.5 L16,1450 L16,1451 L16.5,1452 L17.5,1453 L18,1454 L19,1454.5 L20,1455 L262.5,1454.5 L328,1455 L356.5,1454.5 L601,1455 L602.5,1455.5 L603.5,1456 L604,1457 L605,1458 L605.5,1459 L605.5,1460 L605.5,1461 L605.5,1462.5 L605,1463.5 L604.5,1464.5 L603.5,1465 L602.5,1466 L601.5,1466.5 L600.5,1467 L386.5,1467.5 L28.5,1468 L19,1468.5 L18,1469 L17,1470 L16.5,1471 L16,1472 L15.5,1473.5 L15.5,1474.5 L15.5,1475.5 L16,1477 L16.5,1478 L17,1479 L18,1480 L19,1480.5 L20.5,1481 L176.5,1480.5 L368,1480 L559.5,1479.5 L600.5,1480 L602.5,1480.5 L603.5,1481.5 L604.5,1482 L605,1483 L605.5,1484 L605.5,1485.5 L605.5,1486.5 L605.5,1487.5 L605,1488.5 L604.5,1489.5 L603.5,1490.5 L602.5,1491 L601.5,1491.5 L600,1492 L526.5,1492.5 L347,1493 L168,1493.5 L20,1494 L19,1494.5 L18,1495 L17,1496 L16.5,1497 L16,1498.5 L15.5,1499.5 L15.5,1500.5 L15.5,1502 L16,1503 L16.5,1504 L17.5,1505 L18.5,1506 L19.5,1506.5 L20.5,1507 L103.5,1506.5 L282.5,1506 L462,1505.5 L595.5,1505.5 " />
<path id="71" stroke-linecap="round" stroke="#6566CC" stroke-width="10.933801874770184" fill="none" moovel_name="Jalur 1" moovel_area="929.25" moovel_cumulative_area="475515.05" moovel_length="223.36" d="M605.5,1513 L605,1514.5 L604.5,1515.5 L604,1516.5 L603.5,1517.5 L602.5,1518.5 L601.5,1519 L599,1519.5 L475.5,1519.5 " />
<path id="72" stroke-linecap="round" stroke="#6566CC" stroke-width="10.933801874770184" fill="none" moovel_name="Jalur 3" moovel_area="919.66" moovel_cumulative_area="476434.71" moovel_length="221.06" d="M461,1519.5 L329,1519.5 " />
<path id="73" stroke-linecap="round" stroke="#6566CC" stroke-width="10.933801874770184" fill="none" moovel_name="Jalur 2" moovel_area="925.51" moovel_cumulative_area="477360.22" moovel_length="222.46" d="M314.5,1519.5 L181.5,1519.5 " />
<path id="74" stroke-linecap="round" stroke="#6566CC" stroke-width="10.933801874770184" fill="none" moovel_name="Jalur 4" moovel_area="911.49" moovel_cumulative_area="478271.71" moovel_length="219.09" d="M167,1519.5 L97,1519 L36,1519 " />
<path id="75" stroke-linecap="round" stroke="#6566CC" stroke-width="10.933801874770184" fill="none" moovel_name="Jalur 9" moovel_area="881.06" moovel_cumulative_area="479152.77" moovel_length="211.78" d="M22,1519.5 L19.5,1520 L18.5,1520.5 L17.5,1521 L16.5,1522 L16,1523 L15.5,1524 L15.5,1525 L15.5,1526.5 L15.5,1527.5 L16,1528.5 L17,1529.5 L17.5,1530.5 L18.5,1531.5 L19.5,1532 L28,1532.5 L128,1532.5 " />
<path id="76" stroke-linecap="round" stroke="#6566CC" stroke-width="10.933801874770184" fill="none" moovel_name="Jalur KA Jatinegara Cipinang" moovel_neighborhood="Matraman" moovel_area="10511.39" moovel_cumulative_area="489664.16" moovel_length="2526.60" d="M142.5,1532 L145,1532.5 L456.5,1533 L601,1533.5 L602,1534 L603.5,1534.5 L604,1535.5 L605,1536.5 L605.5,1537.5 L605.5,1538.5 L605.5,1539.5 L605.5,1541 L605,1542 L604.5,1543 L603.5,1543.5 L602.5,1544.5 L601.5,1545 L600.5,1545.5 L499,1545 L238.5,1544.5 L19,1545 L18,1546 L17,1546.5 L16,1547.5 L15.5,1548.5 L15.5,1550 L15.5,1551 L15.5,1552.5 L16,1553.5 L16.5,1554.5 L17,1555.5 L18,1556.5 L19,1557 L20,1557.5 L119,1558 L378.5,1558.5 L469.5,1558.5 " />
<path id="77" stroke-linecap="round" stroke="#6566CC" stroke-width="10.933801874770184" fill="none" moovel_name="Jalur 8" moovel_area="114.48" moovel_cumulative_area="489778.64" moovel_length="27.52" d="M483.5,1558 L499,1558 " />
<path id="78" stroke-linecap="round" stroke="#6566CC" stroke-width="10.933801874770184" fill="none" moovel_name="Jalur 8" moovel_area="2850.68" moovel_cumulative_area="492629.32" moovel_length="685.21" d="M513.5,1558 L600.5,1558.5 L602.5,1559 L603.5,1560 L604,1561 L605,1562 L605,1563 L605.5,1564 L605.5,1565.5 L605,1566.5 L604.5,1567.5 L604,1568.5 L603,1569.5 L602,1570 L601,1570.5 L600,1571 L436.5,1570.5 L293,1570.5 " />
<path id="79" stroke-linecap="round" stroke="#6566CC" stroke-width="10.933801874770184" fill="none" moovel_name="Jalur 9" moovel_area="1190.43" moovel_cumulative_area="493819.75" moovel_length="286.14" d="M279,1571 L107.5,1571 " />
<path id="80" stroke-linecap="round" stroke="#6566CC" stroke-width="10.933801874770184" fill="none" moovel_name="Jalur 9" moovel_area="118.25" moovel_cumulative_area="493938.00" moovel_length="28.42" d="M93.5,1571 L77.5,1571 " />
<path id="81" stroke-linecap="round" stroke="#6566CC" stroke-width="10.933801874770184" fill="none" moovel_name="Manggarai - Tanahabang - Jakarta Kota" moovel_area="122.81" moovel_cumulative_area="494060.81" moovel_length="29.52" d="M63.5,1571 L47,1571 " />
<path id="82" stroke-linecap="round" stroke="#6566CC" stroke-width="10.933801874770184" fill="none" moovel_name="Manggarai - Gambir - Jakarta Kota" moovel_neighborhood="Tebet" moovel_area="671.12" moovel_cumulative_area="494731.93" moovel_length="161.32" d="M32.5,1571 L19,1571.5 L18,1572.5 L17,1573 L16.5,1574 L16,1575 L15.5,1576.5 L15.5,1577.5 L15.5,1578.5 L16,1580 L16.5,1581 L17,1582 L18,1582.5 L19,1583.5 L21.5,1584 L87.5,1584 " />
<path id="83" stroke-linecap="round" stroke="#6566CC" stroke-width="10.933801874770184" fill="none" moovel_name="Jalur 10" moovel_area="113.99" moovel_cumulative_area="494845.92" moovel_length="27.40" d="M102,1584 L117.5,1584 " />
<path id="84" stroke-linecap="round" stroke="#6566CC" stroke-width="10.933801874770184" fill="none" moovel_name="Manggarai - Tanahabang - Jakarta Kota" moovel_neighborhood="Tebet" moovel_area="637.69" moovel_cumulative_area="495483.61" moovel_length="153.28" d="M131.5,1584 L222.5,1584 " />
<path id="85" stroke-linecap="round" stroke="#6566CC" stroke-width="10.933801874770184" fill="none" moovel_name="Jakarta Kota - Tanahabang - Manggarai" moovel_area="729.65" moovel_cumulative_area="496213.26" moovel_length="175.38" d="M236.5,1584 L341,1584 " />
<path id="86" stroke-linecap="round" stroke="#6566CC" stroke-width="10.933801874770184" fill="none" moovel_name="Jalur 10" moovel_area="136.37" moovel_cumulative_area="496349.63" moovel_length="32.78" d="M355,1584 L374,1584 " />
<path id="87" stroke-linecap="round" stroke="#6566CC" stroke-width="10.933801874770184" fill="none" moovel_name="Jalur 12" moovel_area="110.01" moovel_cumulative_area="496459.64" moovel_length="26.44" d="M388,1584 L403,1584 " />
<path id="88" stroke-linecap="round" stroke="#6566CC" stroke-width="10.933801874770184" fill="none" moovel_name="Jalur 12" moovel_area="1288.11" moovel_cumulative_area="497747.75" moovel_length="309.62" d="M417.5,1584 L601.5,1584.5 L602.5,1585 " />
<path id="89" stroke-linecap="round" stroke="#6566CC" stroke-width="10.933801874770184" fill="none" moovel_name="Jalur 4" moovel_area="124.04" moovel_cumulative_area="497871.79" moovel_length="29.81" d="M600.5,1596.5 L599.5,1597 L584,1597 " />
<path id="90" stroke-linecap="round" stroke="#6566CC" stroke-width="10.933801874770184" fill="none" moovel_name="Jalur 4" moovel_area="125.38" moovel_cumulative_area="497997.17" moovel_length="30.14" d="M570,1597 L553,1597 " />
<path id="91" stroke-linecap="round" stroke="#6566CC" stroke-width="10.933801874770184" fill="none" moovel_name="Jalur 7" moovel_area="892.16" moovel_cumulative_area="498889.33" moovel_length="214.45" d="M538,1597 L454.5,1596.5 L410,1596.5 " />
<path id="92" stroke-linecap="round" stroke="#6566CC" stroke-width="10.933801874770184" fill="none" moovel_name="Jalur 7" moovel_area="112.67" moovel_cumulative_area="499002.00" moovel_length="27.08" d="M395.5,1597 L380.5,1597 " />
<path id="93" stroke-linecap="round" stroke="#6566CC" stroke-width="10.933801874770184" fill="none" moovel_name="Jalur KA Manggarai - Tanah Abang" moovel_neighborhood="Tanah Abang" moovel_area="25844.23" moovel_cumulative_area="524846.23" moovel_length="6212.13" d="M366,1597 L365,1596.5 L65.5,1596 L20,1596.5 L19,1597 L18,1597.5 L17,1598.5 L16,1599.5 L15.5,1600.5 L15.5,1601.5 L15,1603 L15.5,1604 L15.5,1605 L16,1606.5 L17,1607.5 L18,1608 L19,1609 L20,1609.5 L123.5,1610 L410,1610.5 L601,1611 L602,1611.5 L603,1612 L604,1613 L605,1613.5 L605.5,1615 L605.5,1616 L605.5,1617 L605.5,1618 L605,1619 L604.5,1620 L603.5,1621 L602.5,1621.5 L601.5,1622 L600.5,1622.5 L599,1623 L592,1622.5 L304.5,1622 L18.5,1623 L17.5,1623.5 L16.5,1624.5 L16,1625.5 L15.5,1626.5 L15,1628 L15,1629 L15,1630.5 L15.5,1631.5 L16.5,1632.5 L17,1633.5 L18,1634.5 L19,1635 L20.5,1635.5 L164.5,1636 L424.5,1636.5 L600.5,1637 L602.5,1637.5 L603.5,1638.5 L604.5,1639.5 L605,1640.5 L605.5,1641.5 L605.5,1642.5 L605.5,1643.5 L605,1644.5 L604.5,1645.5 L604,1646.5 L603,1647.5 L602,1648 L601,1648.5 L598.5,1649 L590,1648.5 L304,1648 L18.5,1648.5 L17.5,1649.5 L16.5,1650.5 L15.5,1651.5 L15.5,1652.5 L15,1654 L15,1655 L15.5,1656.5 L15.5,1657.5 L16.5,1658.5 L17.5,1659.5 L18.5,1660.5 L19.5,1661 L22,1661.5 L247.5,1662 L508,1662.5 L601.5,1663 L603,1663.5 L603.5,1664.5 L604.5,1665.5 L605,1666.5 L605.5,1667.5 L605.5,1668.5 L605.5,1670 L605,1671 L604.5,1672 L603.5,1673 L602.5,1673.5 L601.5,1674 L600.5,1674.5 L599,1675 L557.5,1674.5 L271.5,1674 L207.5,1674 " />
<path id="94" stroke-linecap="round" stroke="#6566CC" stroke-width="10.933801874770184" fill="none" moovel_name="Jalur KA Jatinegara - Cikampek" moovel_neighborhood="Jatinegara" moovel_area="16605.57" moovel_cumulative_area="541451.80" moovel_length="3991.45" d="M193.5,1674.5 L20,1675 L18,1676 L17.5,1676.5 L16.5,1677.5 L16,1678.5 L15.5,1679.5 L15.5,1680.5 L15.5,1681.5 L16,1682.5 L16,1683.5 L17,1684.5 L17.5,1685.5 L18.5,1686 L19.5,1686.5 L20.5,1687 L34,1687.5 L600.5,1688 L602.5,1688.5 L603.5,1689.5 L604.5,1690 L605,1691 L605.5,1692.5 L605.5,1693.5 L605.5,1694.5 L605.5,1695.5 L605,1697 L604,1697.5 L603.5,1698.5 L602.5,1699 L601,1699.5 L600,1700 L19.5,1700.5 L18,1701 L17.5,1702 L16.5,1702.5 L16,1704 L15.5,1705 L15.5,1706 L15.5,1707.5 L15.5,1708.5 L16,1710 L17,1711 L17.5,1711.5 L18.5,1712.5 L20,1713 L92,1713.5 L600,1714 L602.5,1714.5 L603.5,1715.5 L604,1716 L605,1717 L605,1718 L605.5,1719.5 L605.5,1720.5 L605.5,1721.5 L605,1723 L604,1724 L603.5,1724.5 L602.5,1725.5 L601.5,1726 L599,1726.5 L504.5,1726 L178.5,1726 " />
<path id="95" stroke-linecap="round" stroke="#6566CC" stroke-width="10.933801874770184" fill="none" moovel_name="Jatinegara-Cikampek Railway Line" moovel_neighborhood="Matraman" moovel_area="282.31" moovel_cumulative_area="541734.11" moovel_length="67.86" d="M164.5,1726 L124.5,1726 " />
<path id="96" stroke-linecap="round" stroke="#6566CC" stroke-width="10.933801874770184" fill="none" moovel_name="Jatinegara-Cikampek Railway Line" moovel_neighborhood="Matraman" moovel_area="1033.81" moovel_cumulative_area="542767.92" moovel_length="248.50" d="M110.5,1726 L19,1726.5 L18,1727 L17,1728 L16.5,1729 L16,1730 L15.5,1731 L15.5,1732.5 L15.5,1733.5 L16,1734.5 L16.5,1735.5 L17,1736.5 L18,1737.5 L19,1738 L20,1738.5 L21.5,1739 L62,1739 " />
<path id="97" stroke-linecap="round" stroke="#6566CC" stroke-width="10.933801874770184" fill="none" moovel_name="Jalur KA Cikampek - Jatinegara" moovel_neighborhood="Jatinegara" moovel_area="7288.37" moovel_cumulative_area="550056.29" moovel_length="1751.89" d="M76.5,1739 L601,1739.5 L602,1740 L603,1740.5 L604,1741.5 L604.5,1742.5 L605,1743.5 L605.5,1744.5 L605.5,1745.5 L605,1747 L605,1748 L604.5,1749 L603.5,1750 L602.5,1751 L601.5,1751.5 L600.5,1752 L306.5,1751.5 L87,1751.5 " />
<path id="98" stroke-linecap="round" stroke="#6566CC" stroke-width="10.933801874770184" fill="none" moovel_neighborhood="Tanah Abang" moovel_area="5457.07" moovel_cumulative_area="555513.36" moovel_length="1311.71" d="M73,1751.5 L71,1752 L19.5,1752.5 L18.5,1753 L17.5,1753.5 L17,1754.5 L16,1755.5 L16,1756.5 L15.5,1757.5 L15.5,1758.5 L16,1760 L16,1761 L16.5,1762 L17.5,1762.5 L18.5,1763.5 L19.5,1764 L20.5,1764.5 L547.5,1765 L601.5,1765.5 L602.5,1766 L603.5,1766.5 L604,1767.5 L604.5,1768.5 L605,1769.5 L605,1771 L605,1772 L605,1773.5 L604.5,1774.5 L604,1775.5 L603,1776.5 L602,1777 L601,1777.5 L600,1778 L478.5,1778 " />
<path id="99" stroke-linecap="round" stroke="#6566CC" stroke-width="10.933801874770184" fill="none" moovel_area="313.33" moovel_cumulative_area="555826.69" moovel_length="75.31" d="M464,1777.5 L420,1777.5 " />
<path id="100" stroke-linecap="round" stroke="#6566CC" stroke-width="10.933801874770184" fill="none" moovel_name="Jalur 6" moovel_neighborhood="Tanah Abang" moovel_area="1908.60" moovel_cumulative_area="557735.29" moovel_length="458.77" d="M405.5,1777.5 L130,1777.5 " />
<path id="101" stroke-linecap="round" stroke="#6566CC" stroke-width="10.933801874770184" fill="none" moovel_name="Jalur KA Tanahabang - Rangkasbitung" moovel_neighborhood="Pesanggrahan" moovel_area="10186.81" moovel_cumulative_area="567922.10" moovel_length="2448.58" d="M115.5,1777.5 L20.5,1778 L18.5,1778.5 L17.5,1779.5 L16.5,1780.5 L16,1781.5 L15.5,1782.5 L15.5,1783.5 L15.5,1785 L16,1786 L16.5,1787 L17,1788 L18,1789 L19,1789.5 L20,1790 L21,1790.5 L600.5,1791 L603,1792 L603.5,1792.5 L604.5,1793.5 L605,1794.5 L605.5,1795.5 L605.5,1797 L605.5,1798 L605,1799 L604.5,1800 L604,1801 L603,1802 L602,1802.5 L601,1803 L467,1803.5 L19,1804 L18,1805 L17,1805.5 L16.5,1806.5 L16,1807.5 L15.5,1808.5 L15.5,1810 L16,1811 L16,1812 L16.5,1813 L17.5,1814 L18.5,1815 L19.5,1815.5 L20.5,1816 L187.5,1816 " />
<path id="102" stroke-linecap="round" stroke="#6566CC" stroke-width="10.933801874770184" fill="none" moovel_name="Jalur KA Tanahabang - Rangkasbitung" moovel_neighborhood="Pesanggrahan" moovel_area="10800.69" moovel_cumulative_area="578722.79" moovel_length="2596.14" d="M202,1816.5 L420,1816 L444,1816.5 L463,1816 L601,1816.5 L602,1817 L603,1817.5 L604,1818.5 L604.5,1819.5 L605,1820.5 L605.5,1821.5 L605.5,1823 L605,1824 L605,1825 L604.5,1826 L603.5,1827 L602.5,1828 L601.5,1828.5 L600.5,1829 L363,1828.5 L20,1829 L19,1829.5 L18,1830 L17,1830.5 L16.5,1831.5 L16,1832.5 L15.5,1834 L15.5,1835 L15.5,1836 L16,1837.5 L16.5,1838.5 L17.5,1839 L18,1840 L19,1840.5 L20.5,1841 L151,1841.5 L570.5,1841.5 " />
<path id="103" stroke-linecap="round" stroke="#6566CC" stroke-width="10.933801874770184" fill="none" moovel_name="Jalur KA Cikampek - Jatinegara" moovel_area="4454.83" moovel_cumulative_area="583177.62" moovel_length="1070.80" d="M585,1842 L600.5,1842.5 L602.5,1843 L603.5,1844 L604,1845 L605,1846 L605,1847 L605.5,1848 L605.5,1849.5 L605,1850.5 L604.5,1851.5 L604,1852.5 L603,1853.5 L602.5,1854 L601,1854.5 L600,1855 L20,1855.5 L18,1856.5 L17,1857 L16.5,1858 L16,1859 L15.5,1860.5 L15.5,1861.5 L15.5,1862.5 L16,1864 L16.5,1865 L17,1865.5 L18,1866.5 L19,1867 L20,1867.5 L21.5,1868 L34.5,1868 " />
<path id="104" stroke-linecap="round" stroke="#6566CC" stroke-width="10.933801874770184" fill="none" moovel_name="Jalur KA Cikampek - Jatinegara" moovel_neighborhood="Cakung" moovel_area="273.47" moovel_cumulative_area="583451.09" moovel_length="65.73" d="M48.5,1868 L87,1868 " />
<path id="105" stroke-linecap="round" stroke="#6566CC" stroke-width="10.933801874770184" fill="none" moovel_name="Jalur KA Tanahabang - Rangkasbitung" moovel_neighborhood="Kebayoran Lama" moovel_area="176.38" moovel_cumulative_area="583627.47" moovel_length="42.40" d="M101.5,1868 L126,1868 " />
<path id="106" stroke-linecap="round" stroke="#6566CC" stroke-width="10.933801874770184" fill="none" moovel_name="Jalur KA Tanah Abang - Rangkasbitung" moovel_neighborhood="Pesanggrahan" moovel_area="183.31" moovel_cumulative_area="583810.78" moovel_length="44.06" d="M140.5,1868 L166,1868 " />
<path id="107" stroke-linecap="round" stroke="#6566CC" stroke-width="10.933801874770184" fill="none" moovel_name="Jalur KA Jakarta Kota - Manggarai" moovel_area="935.14" moovel_cumulative_area="584745.92" moovel_length="224.78" d="M180,1868 L314.5,1868 " />
<path id="108" stroke-linecap="round" stroke="#6566CC" stroke-width="10.933801874770184" fill="none" moovel_name="Jalur KA Manggarai - Jakarta Kota" moovel_area="126.93" moovel_cumulative_area="584872.85" moovel_length="30.51" d="M329,1868 L346,1868 " />
<path id="109" stroke-linecap="round" stroke="#6566CC" stroke-width="10.933801874770184" fill="none" moovel_name="Jalur KA Cikampek - Jatinegara" moovel_neighborhood="Cakung" moovel_area="3573.98" moovel_cumulative_area="588446.83" moovel_length="859.07" d="M360.5,1868 L601.5,1868.5 L602.5,1869 L603.5,1869.5 L604,1870.5 L604.5,1871.5 L605,1872.5 L605.5,1873.5 L605.5,1875 L605,1876 L605,1877 L604,1878 L603.5,1879 L602.5,1880 L601.5,1880.5 L599,1881 L341,1881 " />
<path id="110" stroke-linecap="round" stroke="#6566CC" stroke-width="10.933801874770184" fill="none" moovel_name="Jalur KA Jakarta Kota - Manggarai" moovel_area="970.70" moovel_cumulative_area="589417.53" moovel_length="233.33" d="M326.5,1881 L187,1881 " />
<path id="111" stroke-linecap="round" stroke="#6566CC" stroke-width="10.933801874770184" fill="none" moovel_name="Jalur KA Manggarai - Jakarta Kota" moovel_area="935.78" moovel_cumulative_area="590353.31" moovel_length="224.93" d="M173,1881 L38.5,1881 " />
<path id="112" stroke-linecap="round" stroke="#6566CC" stroke-width="10.933801874770184" fill="none" moovel_name="Jalur KA Tanah Abang - Rangkasbitung" moovel_neighborhood="Tanah Abang" moovel_area="41855.61" moovel_cumulative_area="632208.92" moovel_length="10060.75" d="M24,1881 L19.5,1881.5 L18.5,1882 L17.5,1882.5 L16.5,1883.5 L16,1884.5 L15.5,1885.5 L15.5,1886.5 L15.5,1888 L15.5,1889 L16,1890 L16.5,1891 L17.5,1892 L18.5,1893 L19.5,1893.5 L21.5,1894 L317,1894.5 L601.5,1895 L602.5,1895.5 L603.5,1896 L604,1897 L605,1898 L605.5,1899 L605.5,1900 L605.5,1901.5 L605.5,1902.5 L605,1903.5 L604.5,1904.5 L603.5,1905.5 L602.5,1906 L601.5,1906.5 L600.5,1907 L410.5,1906.5 L91.5,1906 L20,1906.5 L19,1907 L18,1907.5 L17,1908.5 L16,1909.5 L15.5,1910.5 L15.5,1911.5 L15,1913 L15.5,1914 L15.5,1915.5 L16,1916.5 L17,1917.5 L18,1918 L19,1919 L20,1919.5 L183,1920 L601,1920.5 L602,1921 L603,1921.5 L604,1922.5 L604.5,1923.5 L605,1924.5 L605.5,1925.5 L605.5,1926.5 L605.5,1927.5 L605,1929 L604.5,1930 L603.5,1930.5 L603,1931.5 L601.5,1932 L600.5,1932.5 L203,1932 L20,1932.5 L19,1933 L18,1933.5 L17,1934.5 L16,1935.5 L15.5,1936.5 L15.5,1937.5 L15,1939 L15.5,1940 L15.5,1941.5 L16.5,1942.5 L17,1943.5 L18,1944 L19,1945 L20,1945.5 L600,1946 L602,1946.5 L603,1947 L604,1948 L604.5,1949 L605,1950 L605.5,1951 L605.5,1952 L605.5,1953 L605,1954 L604.5,1955 L604,1956 L603,1956.5 L602,1957.5 L601,1958 L20,1958.5 L18,1959.5 L17,1960 L16.5,1961 L15.5,1962 L15.5,1963 L15,1964.5 L15.5,1965.5 L15.5,1967 L16,1968 L17,1969 L17.5,1970 L18.5,1970.5 L20,1971 L21,1971.5 L602.5,1972 L603.5,1973 L604,1973.5 L605,1974.5 L605.5,1975.5 L605.5,1977 L605.5,1978 L605.5,1979 L605,1980 L604.5,1981 L603.5,1982 L602.5,1982.5 L601.5,1983 L600.5,1983.5 L326.5,1984 L19,1984.5 L18,1985 L17,1985.5 L16.5,1986.5 L15.5,1988 L15.5,1989 L15,1990 L15,1991.5 L15.5,1992.5 L16,1993.5 L16.5,1995 L17.5,1995.5 L18.5,1996.5 L19.5,1997 L21,1997.5 L602,1998 L603,1998.5 L604,1999 L604.5,2000 L605,2001 L605.5,2002 L605.5,2003.5 L605.5,2004.5 L605,2005.5 L604.5,2006.5 L604,2007.5 L603,2008.5 L602,2009 L601,2009.5 L21,2010 L19,2010.5 L18,2011 L17,2012 L16,2013 L15.5,2014 L15.5,2015 L15.5,2016.5 L15.5,2017.5 L16,2019 L16.5,2020 L17,2021 L18,2021.5 L19,2022 L20,2022.5 L21.5,2023 L84.5,2022.5 L88,2022.5 " />
<path id="113" stroke-linecap="round" stroke="#6566CC" stroke-width="10.933801874770184" fill="none" moovel_neighborhood="Tanjung Priok" moovel_area="2844.14" moovel_cumulative_area="635053.06" moovel_length="683.64" d="M102.5,2023 L513.5,2022.5 " />
<path id="114" stroke-linecap="round" stroke="#6566CC" stroke-width="10.933801874770184" fill="none" moovel_neighborhood="Cipayung" moovel_area="1619.62" moovel_cumulative_area="636672.68" moovel_length="389.31" d="M527.5,2023 L600.5,2023.5 L602.5,2024.5 L603.5,2025 L604.5,2026 L605,2027 L605.5,2028 L605.5,2029 L605.5,2030.5 L605,2031.5 L604.5,2032.5 L604,2033.5 L603,2034 L602.5,2035 L601,2035.5 L457,2035.5 " />
<path id="115" stroke-linecap="round" stroke="#6566CC" stroke-width="10.933801874770184" fill="none" moovel_neighborhood="Cipayung" moovel_area="316.12" moovel_cumulative_area="636988.80" moovel_length="75.99" d="M442,2036 L397.5,2036 " />
<path id="116" stroke-linecap="round" stroke="#6566CC" stroke-width="10.933801874770184" fill="none" moovel_neighborhood="Cipayung" moovel_area="51.59" moovel_cumulative_area="637040.39" moovel_length="12.40" d="M383.5,2036 L377,2036 " />
<path id="117" stroke-linecap="round" stroke="#6566CC" stroke-width="10.933801874770184" fill="none" moovel_neighborhood="Cipayung" moovel_area="1998.11" moovel_cumulative_area="639038.50" moovel_length="480.28" d="M363,2036 L75,2036 " />
<path id="118" stroke-linecap="round" stroke="#6566CC" stroke-width="10.933801874770184" fill="none" moovel_neighborhood="Cipayung" moovel_area="618.85" moovel_cumulative_area="639657.35" moovel_length="148.75" d="M60,2036 L19,2036.5 L18,2037.5 L17,2038 L16.5,2039 L16,2040 L15.5,2041 L15.5,2042 L15.5,2043.5 L16,2044.5 L16.5,2045.5 L17,2046.5 L18,2047 L18.5,2047.5 L19.5,2048 L21,2048.5 L52,2048.5 " />
<path id="119" stroke-linecap="round" stroke="#6566CC" stroke-width="10.933801874770184" fill="none" moovel_name="Jalur KA Jatinegara - Cikampek" moovel_neighborhood="Jatinegara" moovel_area="75.24" moovel_cumulative_area="639732.59" moovel_length="18.08" d="M66.5,2049 L76,2049 " />
<path id="120" stroke-linecap="round" stroke="#6566CC" stroke-width="10.933801874770184" fill="none" moovel_name="Jalur KA Cikampek - Jatinegara" moovel_neighborhood="Cakung" moovel_area="24442.39" moovel_cumulative_area="664174.98" moovel_length="5875.17" d="M90.5,2048.5 L557.5,2048 L600,2048.5 L602,2049 L603,2050 L604,2050.5 L604.5,2052 L605,2053 L605,2054 L605,2055.5 L605,2056.5 L604.5,2057.5 L604,2058.5 L603.5,2059.5 L602.5,2060.5 L601.5,2061 L599,2061.5 L194,2062 L19,2062.5 L18,2063.5 L17,2064 L16.5,2065 L16,2066 L15.5,2067.5 L15.5,2068.5 L16,2069.5 L16,2070.5 L16.5,2071.5 L17.5,2072.5 L18.5,2073.5 L19.5,2074 L20.5,2074.5 L253.5,2074 L601,2074.5 L602,2075 L603,2075.5 L604,2076.5 L604.5,2077.5 L605,2078.5 L605,2080 L605,2081 L605,2082 L604.5,2083.5 L604,2084.5 L603,2085.5 L602.5,2086 L601,2086.5 L600,2087 L436,2087.5 L117,2088 L19,2088.5 L18,2089 L17.5,2090 L16.5,2091 L16,2092 L15.5,2093 L15.5,2094 L15.5,2095.5 L16,2096.5 L16.5,2097.5 L17,2098.5 L18,2099 L19,2100 L20,2100.5 L197.5,2100 L458,2099.5 L601,2100 L603,2101 L603.5,2101.5 L604.5,2102.5 L605,2103.5 L605,2104.5 L605.5,2106 L605,2107 L605,2108 L604.5,2109 L604,2110 L603,2111 L602,2111.5 L601,2112 L600,2112.5 L510,2113 L254,2113.5 L20.5,2114 L19.5,2114.5 L18.5,2115 L17.5,2115.5 L16.5,2116.5 L16,2117.5 L16,2119 L15.5,2120 L15.5,2121 L16,2122 L16.5,2123.5 L17,2124 L18,2125 L19,2125.5 L20,2126 L21,2126.5 L46,2126.5 " />
<path id="121" stroke-linecap="round" stroke="#6566CC" stroke-width="10.933801874770184" fill="none" moovel_name="Jalur KA Jatinegara - Cikampek" moovel_neighborhood="Cakung" moovel_area="24439.69" moovel_cumulative_area="688614.67" moovel_length="5874.52" d="M60,2126 L391,2125.5 L601,2126 L602,2126.5 L603,2127 L604,2128 L604.5,2129 L605,2130.5 L605,2131.5 L605,2133 L605,2134 L604.5,2135 L604,2136 L603,2137 L602,2138 L601,2138.5 L542,2139 L224.5,2139.5 L20,2140 L19,2140.5 L18,2141 L17,2141.5 L16.5,2142.5 L16,2144 L15.5,2145 L15.5,2146 L16,2147 L16,2148.5 L16.5,2149.5 L17.5,2150.5 L18.5,2151 L19.5,2151.5 L20.5,2152 L171,2151.5 L339.5,2151 L508,2150.5 L602,2151 L603,2152 L603.5,2152.5 L604.5,2153.5 L605,2155 L605,2156 L605.5,2157 L605,2158.5 L605,2159.5 L604.5,2160.5 L603.5,2161.5 L602.5,2162.5 L601.5,2163 L600.5,2163.5 L562,2164 L382.5,2164.5 L204.5,2165 L25.5,2165.5 L19.5,2166 L18.5,2166.5 L17.5,2167 L17,2168 L16,2169 L16,2170 L15.5,2171.5 L16,2172.5 L16,2173.5 L16.5,2175 L17,2175.5 L18,2176.5 L19,2177 L20,2177.5 L21.5,2178 L75.5,2177.5 L218.5,2177 L362,2176.5 L505.5,2176 L601.5,2176.5 L602.5,2177 L603.5,2178 L604.5,2178.5 L605,2180 L605,2181 L605.5,2182 L605.5,2183.5 L605,2184.5 L604.5,2185.5 L604,2186.5 L603,2187.5 L602,2188 L601,2188.5 L600,2189 L532.5,2189.5 L389,2190 L247,2190.5 L104,2191 L20.5,2191.5 L18,2192.5 L17.5,2193 L16.5,2194 L16,2195 L16,2196.5 L15.5,2197.5 L16,2198.5 L16,2200 L16.5,2201 " />
<path id="122" stroke-linecap="round" stroke="#6566CC" stroke-width="10.933801874770184" fill="none" moovel_name="Jalur KA Duri-Tanahabang" moovel_neighborhood="Kebon Jeruk" moovel_area="176.22" moovel_cumulative_area="688790.89" moovel_length="42.36" d="M29.5,2203.5 L54,2203.5 " />
<path id="123" stroke-linecap="round" stroke="#6566CC" stroke-width="10.933801874770184" fill="none" moovel_name="Jalur KA Duri-Tanahabang" moovel_neighborhood="Cengkareng" moovel_area="60.27" moovel_cumulative_area="688851.16" moovel_length="14.49" d="M68.5,2203.5 L76,2203.5 " />
<path id="124" stroke-linecap="round" stroke="#6566CC" stroke-width="10.933801874770184" fill="none" moovel_name="Jalur KA Cikampek - Jatinegara" moovel_area="86.32" moovel_cumulative_area="688937.48" moovel_length="20.75" d="M90.5,2203.5 L102,2203.5 " />
<path id="125" stroke-linecap="round" stroke="#6566CC" stroke-width="10.933801874770184" fill="none" moovel_name="Jalur KA Duri-Tanahabang" moovel_neighborhood="Cengkareng" moovel_area="166.56" moovel_cumulative_area="689104.04" moovel_length="40.04" d="M116.5,2203.5 L139.5,2203.5 " />
<path id="126" stroke-linecap="round" stroke="#6566CC" stroke-width="10.933801874770184" fill="none" moovel_name="Jalur KA Duri-Tanahabang" moovel_neighborhood="Cengkareng" moovel_area="23005.57" moovel_cumulative_area="712109.61" moovel_length="5529.80" d="M153.5,2203.5 L185,2204 L600.5,2204.5 L602.5,2205.5 L603.5,2206 L604.5,2207 L605,2208 L605.5,2209 L605.5,2210.5 L605.5,2211.5 L605,2212.5 L604.5,2213.5 L604,2214.5 L603,2215.5 L602,2216 L601,2216.5 L599.5,2217 L287,2216.5 L20.5,2217 L19,2217.5 L18,2218 L17,2218.5 L16.5,2219.5 L16,2220.5 L15.5,2222 L15.5,2223 L15.5,2224.5 L15.5,2225.5 L16.5,2226.5 L17,2227.5 L18,2228.5 L19,2229 L20,2229.5 L22.5,2230 L43,2229.5 L520,2229 L600.5,2229.5 L602.5,2230.5 L603.5,2231 L604.5,2232 L605,2233 L605.5,2234 L605.5,2235.5 L605.5,2236.5 L605,2237.5 L604.5,2238.5 L604,2239.5 L603,2240.5 L602,2241 L601,2241.5 L599.5,2242 L213.5,2242.5 L19,2243 L18,2243.5 L17,2244.5 L16.5,2245.5 L16,2246.5 L15.5,2247.5 L15.5,2249 L15.5,2250 L16,2251.5 L16.5,2252.5 L17,2253.5 L18,2254.5 L19,2255 L20,2255.5 L601.5,2256 L602.5,2256.5 L603.5,2257 L604.5,2258 L605,2259 L605.5,2260.5 L605.5,2261.5 L605.5,2262.5 L605,2264 L604.5,2265 L604,2266 L603,2266.5 L602,2267.5 L599.5,2268 L219,2268.5 L122.5,2268.5 " />
<path id="127" stroke-linecap="round" stroke="#6566CC" stroke-width="10.933801874770184" fill="none" moovel_name="Jalur KA Duri-Tanahabang" moovel_neighborhood="Cengkareng" moovel_area="4656.99" moovel_cumulative_area="716766.60" moovel_length="1119.39" d="M108.5,2268.5 L19.5,2269 L18.5,2269.5 L17.5,2270 L17,2271 L16,2272 L16,2273 L15.5,2274 L15.5,2275.5 L16,2276.5 L16,2277.5 L17,2278.5 L17.5,2279.5 L18.5,2280 L19.5,2280.5 L20.5,2281 L253.5,2280.5 L572,2280 L588.5,2280 " />
<path id="128" stroke-linecap="round" stroke="#6566CC" stroke-width="10.933801874770184" fill="none" moovel_name="Jalur KA Duri-Tanahabang" moovel_neighborhood="Kembangan" moovel_area="8660.22" moovel_cumulative_area="725426.82" moovel_length="2081.64" d="M602.5,2282.5 L603.5,2283 L604.5,2284 L605,2285 L605,2286.5 L605.5,2287.5 L605,2289 L605,2290 L604.5,2291 L603.5,2292 L603,2293 L602,2293.5 L600.5,2294 L527.5,2294.5 L55.5,2295 L19.5,2295.5 L18.5,2296 L17.5,2296.5 L16.5,2297.5 L16,2298.5 L16,2300 L15.5,2301 L15.5,2302 L16,2303.5 L16.5,2304.5 L17,2305.5 L18,2306 L19,2306.5 L20,2307 L21.5,2307.5 L260.5,2307 L601.5,2307.5 L602.5,2308 L603.5,2309 L604.5,2310 L605,2311 L605,2312 L605.5,2313.5 L605.5,2314.5 L605,2316 L604.5,2317 L603.5,2318 L603,2318.5 L602,2319.5 L599.5,2320 L556.5,2320 " />
<path id="129" stroke-linecap="round" stroke="#6566CC" stroke-width="10.933801874770184" fill="none" moovel_area="1260.90" moovel_cumulative_area="726687.72" moovel_length="303.08" d="M542,2320 L361,2320 " />
<path id="130" stroke-linecap="round" stroke="#6566CC" stroke-width="10.933801874770184" fill="none" moovel_name="Taman Mini Aeromovel" moovel_neighborhood="Cipayung" moovel_area="4076.55" moovel_cumulative_area="730764.27" moovel_length="3159.34" d="M346.5,2320 L322.5,2319.5 L102,2319 L19.5,2319.5 L18.5,2320 L17.5,2321 L16.5,2321.5 L16,2323 L15.5,2324 L15,2325 L15,2326.5 L15.5,2327.5 L15.5,2329 L16.5,2330 L17,2331 L18,2331.5 L19.5,2332.5 L22,2333 L166,2333.5 L317.5,2334 L467.5,2334.5 L600,2335 L602.5,2335.5 L603.5,2336 L604.5,2337 L605,2338 L605.5,2339 L605.5,2340 L606,2341 L605.5,2342 L605,2343 L604.5,2344 L604,2345 L603,2345.5 L602,2346 L600.5,2346.5 L455,2346 L296.5,2345.5 L137,2345 L19,2345.5 L18,2346 L17,2347 L16,2348 L15.5,2349 L15,2350.5 L15,2351.5 L15,2353 L15.5,2354 L16,2355 L16.5,2356 L17.5,2357 L18.5,2358 L20,2358.5 L82.5,2359 L242.5,2359.5 L365,2359.5 " />
</svg>
