<?xml version="1.0" encoding="UTF-8" standalone="no"?>
<svg width="603px" height="396px"  viewport="0 0 603 396" version="1.1" xmlns="http://www.w3.org/2000/svg" xmlns:xlink="http://www.w3.org/1999/xlink">
<path id="1" stroke-linecap="round" stroke="#6566CC" stroke-width="2.137377528207969" fill="none" moovel_neighborhood="Ward 96" moovel_area="3525.08" moovel_cumulative_area="3525.08" moovel_length="702.52" d="M14,4 L563,4 " />
<path id="2" stroke-linecap="round" stroke="#6566CC" stroke-width="2.137377528207969" fill="none" moovel_name="MTB" moovel_neighborhood="Ward 96" moovel_area="11500.44" moovel_cumulative_area="15025.52" moovel_length="2291.94" d="M566.5,4 L589.5,4.5 L590,5 L590,5.5 L590,6.5 L590,7 L589.5,8 L588.5,8.5 L387,9 L72,9.5 L11.5,10 L11.5,11 L11.5,11.5 L11.5,12 L12,12.5 L12.5,13 L51.5,12.5 L339,12 L589.5,12.5 L590,13 L590,14 L590,15 L589.5,16 L589,16.5 L577.5,17 L228,17.5 L12,18 L11.5,18.5 L11,19 L11.5,20 L11.5,20.5 L12,21 L12.5,21.5 L32.5,21.5 " />
<path id="3" stroke-linecap="round" stroke="#6566CC" stroke-width="2.137377528207969" fill="none" moovel_neighborhood="Ward 96" moovel_area="3044.29" moovel_cumulative_area="18069.81" moovel_length="606.70" d="M36,20.5 L215,20 L510,20 " />
<path id="4" stroke-linecap="round" stroke="#6566CC" stroke-width="2.137377528207969" fill="none" moovel_name="MTB 2" moovel_neighborhood="Ward 96" moovel_area="2018.53" moovel_cumulative_area="20088.34" moovel_length="402.28" d="M513,20.5 L589.5,21 L590,22 L590.5,22.5 L590,23.5 L590,24 L589.5,24.5 L588.5,25 L356,25 " />
<path id="5" stroke-linecap="round" stroke="#6566CC" stroke-width="2.137377528207969" fill="none" moovel_neighborhood="Ward 96" moovel_area="4294.07" moovel_cumulative_area="24382.41" moovel_length="855.77" d="M353,25 L327,24.5 L11.5,25 L11,25.5 L11,26 L11,27 L11.5,28 L12,28.5 L335.5,29 " />
<path id="6" stroke-linecap="round" stroke="#6566CC" stroke-width="2.137377528207969" fill="none" moovel_neighborhood="Ward 96" moovel_area="8567.52" moovel_cumulative_area="32949.93" moovel_length="1707.44" d="M339,29 L372.5,29.5 L552.5,30 L590,30.5 L590.5,31 L591,31.5 L590.5,32 L590,32.5 L589.5,33 L419,32.5 L235.5,32 L44.5,31.5 L11.5,32 L11,32.5 L10.5,33.5 L10.5,34.5 L11,35.5 L11.5,36 L12.5,36.5 L91.5,37 L313.5,37.5 L511,37.5 " />
<path id="7" stroke-linecap="round" stroke="#6566CC" stroke-width="2.137377528207969" fill="none" moovel_neighborhood="Ward 23" moovel_area="2437.75" moovel_cumulative_area="35387.68" moovel_length="880.11" d="M514.5,37.5 L545,37 L589.5,37.5 L590,38 L590,39 L590,39.5 L590,40.5 L589.5,41 L589,41.5 L527,42 L253,42.5 L12,43 L11.5,43.5 L11.5,44 L11,44.5 L11.5,45.5 L12,46 L12.5,46.5 L39,46.5 " />
<path id="8" stroke-linecap="round" stroke="#6566CC" stroke-width="2.137377528207969" fill="none" moovel_neighborhood="Ward 23" moovel_area="1306.63" moovel_cumulative_area="36694.31" moovel_length="471.73" d="M42,45.5 L123,46 L410.5,46 " />
<path id="9" stroke-linecap="round" stroke="#6566CC" stroke-width="2.137377528207969" fill="none" moovel_neighborhood="Ward 23" moovel_area="1812.56" moovel_cumulative_area="38506.87" moovel_length="654.39" d="M413.5,45.5 L582.5,45 L588.5,45.5 L590,46 L590,47 L590,47.5 L590,48.5 L589.5,49 L589,49.5 L565,50 L343.5,50.5 L258,50.5 " />
<path id="10" stroke-linecap="round" stroke="#6566CC" stroke-width="2.137377528207969" fill="none" moovel_neighborhood="Ward 23" moovel_area="656.90" moovel_cumulative_area="39163.77" moovel_length="237.16" d="M254.5,50 L241,49.5 L69.5,49.5 " />
<path id="11" stroke-linecap="round" stroke="#6566CC" stroke-width="2.137377528207969" fill="none" moovel_neighborhood="Ward 23" moovel_area="12513.36" moovel_cumulative_area="51677.13" moovel_length="4517.72" d="M66.5,50 L51.5,49.5 L12,50 L11.5,50.5 L11,51 L11,52 L11,52.5 L11.5,53.5 L12,54 L80,54.5 L263.5,55 L454,55.5 L590,56 L590.5,56.5 L590.5,57 L590.5,57.5 L590.5,58.5 L589,59 L511.5,58.5 L351,58 L189,57.5 L36,57 L11.5,57.5 L11,58.5 L10.5,59.5 L10.5,60.5 L11,61 L11.5,62 L12.5,62.5 L79.5,63 L243,63.5 L409,64 L578,64.5 L590.5,65 L591,65.5 L591,66 L590.5,66.5 L589.5,67 L469,66.5 L285.5,66 L92.5,65.5 L11.5,66 L10.5,67 L10.5,68 L10.5,69 L11,70 L11.5,70.5 L12.5,71 L144,71.5 L311,72 L472,72.5 L589.5,73 L590.5,73.5 L591,74 L590.5,74.5 L590.5,75 L590,75.5 L588,76 L576.5,75.5 L404.5,75 L218,74.5 L37,74 L25,74.5 L21.5,74.5 " />
<path id="12" stroke-linecap="round" stroke="#6566CC" stroke-width="2.137377528207969" fill="none" moovel_neighborhood="Ward 93" moovel_area="3616.24" moovel_cumulative_area="55293.37" moovel_length="1305.58" d="M18.5,74.5 L12.5,75 L11,76 L11,76.5 L11,77.5 L11.5,78 L12,78.5 L12.5,79 L132.5,79.5 L371.5,80 L589,80.5 L590.5,81 L590.5,82 L590.5,82.5 L590,83 L589.5,84 L395,83.5 L201,83 L161,83 " />
<path id="13" stroke-linecap="round" stroke="#6566CC" stroke-width="2.137377528207969" fill="none" moovel_neighborhood="Ward 93" moovel_area="937.50" moovel_cumulative_area="56230.87" moovel_length="338.47" d="M157.5,83 L123.5,83.5 L11.5,84 L11.5,84.5 L11,85.5 L11.5,86 L11.5,86.5 L12.5,87 L126,87 " />
<path id="14" stroke-linecap="round" stroke="#6566CC" stroke-width="2.137377528207969" fill="none" moovel_neighborhood="Ward 106" moovel_area="5849.00" moovel_cumulative_area="62079.87" moovel_length="2111.67" d="M130,87 L130.5,87.5 L198.5,87 L589.5,87.5 L590,88 L590,89 L590,90 L590,90.5 L589.5,91 L589,91.5 L17,92 L12,92.5 L11.5,93 L11.5,93.5 L11.5,94.5 L11.5,95 L12,95.5 L589,96 L590,96.5 L590,97 L590.5,98 L590,98.5 L590,99.5 L588.5,100 L565,100 " />
<path id="15" stroke-linecap="round" stroke="#6566CC" stroke-width="2.137377528207969" fill="none" moovel_name="Barkston Drive" moovel_neighborhood="Ward 102" moovel_area="46.89" moovel_cumulative_area="62126.76" moovel_length="9.34" d="M562,99.5 L555,99.5 " />
<path id="16" stroke-linecap="round" stroke="#6566CC" stroke-width="2.137377528207969" fill="none" moovel_neighborhood="Ward 23" moovel_area="9179.59" moovel_cumulative_area="71306.35" moovel_length="3314.12" d="M552,99.5 L399,99 L11.5,99.5 L11,100 L10.5,101 L11,102 L11,102.5 L12,103 L12.5,103.5 L58,104 L349.5,104.5 L590,105 L590.5,105.5 L591,106 L591,106.5 L590.5,107 L590,107.5 L283.5,107 L11.5,107.5 L11,108.5 L10.5,109.5 L10.5,110.5 L11,111 L12,112 L71.5,112.5 L356.5,113 L589.5,113.5 L590.5,114 L591,114.5 L591,115 L590.5,115.5 L590,116 L589,116.5 L447,116 L292.5,116 " />
<path id="17" stroke-linecap="round" stroke="#6566CC" stroke-width="2.137377528207969" fill="none" moovel_neighborhood="Ward 102" moovel_area="1492.37" moovel_cumulative_area="72798.72" moovel_length="297.42" d="M289,116.5 L202.5,116 L57,116 " />
<path id="18" stroke-linecap="round" stroke="#6566CC" stroke-width="2.137377528207969" fill="none" moovel_name="Green Route" moovel_neighborhood="Ward 32" moovel_area="82232.19" moovel_cumulative_area="155030.91" moovel_length="14844.21" d="M53.5,116.5 L12,117 L11.5,117.5 L11.5,118 L11.5,118.5 L11.5,119.5 L12,120 L13.5,120.5 L18,120 L250.5,119.5 L489,119 L589.5,119.5 L589.5,120.5 L590,121.5 L590,122.5 L589.5,123 L589,124 L588,124.5 L296,125 L12.5,125.5 L12,126 L11.5,126.5 L12,127 L12,127.5 L12.5,128 L318,127.5 L589,128 L589.5,128.5 L589.5,129.5 L590,130.5 L589.5,131.5 L589.5,132 L589,132.5 L588.5,133 L347,133.5 L12.5,134 L12,134.5 L12,135 L12,135.5 L12.5,136 L13,136.5 L88.5,136 L589,136.5 L589.5,137 L589.5,138 L589.5,139 L589.5,140 L589,141 L589,141.5 L527,142 L13,142.5 L12,143 L12,143.5 L12,144 L12.5,144.5 L589,145 L589.5,145.5 L589.5,146.5 L589.5,148 L589.5,149 L589,149.5 L588.5,150 L588,150.5 L12.5,151 L12,151.5 L12,152 L12,152.5 L13,153 L571,152.5 L588.5,153 L589,153.5 L589.5,154 L589.5,155 L589.5,156 L589.5,157 L589,158 L589,158.5 L13,159 L12,159.5 L12,160 L12,160.5 L12.5,161 L589,161.5 L589.5,162.5 L589.5,163.5 L589.5,164.5 L589.5,165.5 L589,166.5 L589,167 L12.5,167.5 L12,168 L12,168.5 L12.5,169 L12.5,169.5 L589,170 L589.5,170.5 L589.5,171.5 L589.5,172.5 L589.5,173.5 L589.5,174 L589,175 L47,175.5 L12,176 L12,177 L12,177.5 L12.5,178 L589.5,178.5 L590,179.5 L590,180.5 L590,181.5 L589.5,182.5 L589,183 L588.5,183.5 L365.5,183 L12.5,183.5 L12,184 L11.5,184.5 L11.5,185 L11.5,185.5 L12,186 L12.5,186.5 L589.5,187 L591,187.5 L591,188.5 L590.5,189 L590,189.5 L588.5,190 L11.5,190.5 L11,191.5 L10.5,192.5 L10.5,193.5 L11,194.5 L12,195 L589.5,195.5 L590.5,196 L591,196.5 L591,197 L590.5,197.5 L589.5,198 L589,198.5 L75.5,198.5 " />
<path id="19" stroke-linecap="round" stroke="#6566CC" stroke-width="2.137377528207969" fill="none" moovel_neighborhood="Ward 96" moovel_area="665.46" moovel_cumulative_area="155696.37" moovel_length="132.62" d="M72,199.5 L11.5,200 L11,200.5 L11,201.5 L11,202.5 L11.5,203 L12,203.5 L13,204 L50.5,203.5 " />
<path id="20" stroke-linecap="round" stroke="#6566CC" stroke-width="2.137377528207969" fill="none" moovel_neighborhood="Ward 96" moovel_area="5047.06" moovel_cumulative_area="160743.42" moovel_length="1005.84" d="M54,203.5 L297.5,203 L504,202.5 L589.5,203 L590,204 L590,204.5 L590,205.5 L590,206.5 L589.5,207 L588,207.5 L342.5,207.5 " />
<path id="21" stroke-linecap="round" stroke="#6566CC" stroke-width="2.137377528207969" fill="none" moovel_neighborhood="Ward 96" moovel_area="2076.09" moovel_cumulative_area="162819.51" moovel_length="413.75" d="M339.5,208 L16.5,208 " />
<path id="22" stroke-linecap="round" stroke="#6566CC" stroke-width="2.137377528207969" fill="none" moovel_neighborhood="Ward 96" moovel_area="21.78" moovel_cumulative_area="162841.29" moovel_length="4.34" d="M14,208 L11.5,208.5 " />
<path id="23" stroke-linecap="round" stroke="#6566CC" stroke-width="2.137377528207969" fill="none" moovel_neighborhood="Ward 96" moovel_area="22770.72" moovel_cumulative_area="185612.02" moovel_length="4538.02" d="M12,211.5 L12.5,212 L40,211.5 L219.5,211 L403,210.5 L589.5,211 L590,212 L590,213 L590,213.5 L589.5,214.5 L589,215 L588.5,215.5 L475,216 L286,216.5 L94.5,217 L12,217.5 L11.5,218 L11.5,218.5 L12,219.5 L13,220 L125.5,219.5 L346.5,219 L566.5,218.5 L589,219 L589.5,220 L590,221 L590,222 L589.5,222.5 L589.5,223.5 L589,224 L473,224.5 L268.5,225 L64,225.5 L12,226 L11.5,226.5 L11.5,227 L12,227.5 L12,228 L12.5,228.5 L98,228 L277,227.5 L456,227 L589.5,227.5 L590,228 L590,229 L590,230 L590,231 L589.5,231.5 L589,232 L472,232.5 L296.5,233 L133,233.5 L41,234 L12,234.5 L11.5,235 L11.5,236 L11.5,236.5 L12,237 L12.5,237.5 L13,238 L28.5,237.5 L72.5,237.5 " />
<path id="24" stroke-linecap="round" stroke="#6566CC" stroke-width="2.137377528207969" fill="none" moovel_neighborhood="Ward 96" moovel_area="6865.27" moovel_cumulative_area="192477.29" moovel_length="1368.19" d="M76,237 L102.5,236.5 L246,236 L440,235.5 L589.5,236 L590,237 L590,237.5 L590,238.5 L590,239 L589.5,239.5 L588.5,240 L512,240.5 L379,241 L289.5,241.5 L192.5,242 L109.5,242.5 L37,242.5 " />
<path id="25" stroke-linecap="round" stroke="#6566CC" stroke-width="2.137377528207969" fill="none" moovel_neighborhood="Ward 96" moovel_area="5835.49" moovel_cumulative_area="198312.78" moovel_length="1162.96" d="M33.5,241 L12.5,241.5 L11.5,242 L11.5,242.5 L11.5,243.5 L11.5,244 L12,244.5 L12.5,245 L132,244.5 L417.5,244 L498,244.5 L566,244 L589,244.5 L590.5,245 L590.5,245.5 L590.5,246.5 L590.5,247 L590,247.5 L589,248 L544.5,248.5 L420,249 L366.5,248.5 L317.5,249 L287.5,249 " />
<path id="26" stroke-linecap="round" stroke="#6566CC" stroke-width="2.137377528207969" fill="none" moovel_neighborhood="Ward 96" moovel_area="16253.99" moovel_cumulative_area="214566.76" moovel_length="3239.29" d="M284.5,249.5 L180.5,250 L12,250.5 L11.5,251 L11.5,251.5 L11.5,252 L11.5,252.5 L12,253 L12.5,253.5 L526,253 L590,253.5 L590.5,254 L590.5,254.5 L590.5,255.5 L590.5,256 L589.5,256.5 L507,257 L283,257.5 L123,258 L12,258.5 L11.5,259 L11.5,259.5 L11.5,260 L11.5,260.5 L12,261 L12.5,261.5 L385,261 L589.5,261.5 L590,262 L590,263 L590,264 L590,265 L589.5,265.5 L588.5,266 L77,266 " />
<path id="27" stroke-linecap="round" stroke="#6566CC" stroke-width="2.137377528207969" fill="none" moovel_neighborhood="Ward 96" moovel_area="7396.14" moovel_cumulative_area="221962.90" moovel_length="1473.99" d="M74,266 L17,265.5 L13,266 L11.5,266.5 L11,267 L11,268 L11,268.5 L11.5,269.5 L12,270 L12.5,270.5 L182.5,271 L443.5,271.5 L529,271 L589,271.5 L589.5,272 L590,272.5 L590,273.5 L590,274 L590,275 L589.5,275.5 L588,276 L567.5,275.5 L371.5,275 L324.5,275.5 L281,275 L84.5,275 " />
<path id="28" stroke-linecap="round" stroke="#6566CC" stroke-width="2.137377528207969" fill="none" moovel_neighborhood="Ward 60" moovel_area="2945.61" moovel_cumulative_area="224908.51" moovel_length="587.04" d="M80.5,274.5 L11.5,275 L11.5,275.5 L11,276.5 L11.5,277 L11.5,278 L13,278.5 L110,278 L398,278 " />
<path id="29" stroke-linecap="round" stroke="#6566CC" stroke-width="2.137377528207969" fill="none" moovel_neighborhood="Ward 96" moovel_area="5119.54" moovel_cumulative_area="230028.05" moovel_length="1020.28" d="M401,278.5 L583.5,278 L589,278.5 L589.5,279 L590,279.5 L590.5,280 L590.5,281 L590,281.5 L589.5,282 L588.5,282.5 L12,283 L11.5,283.5 L11,284 L11,285 L11.5,285.5 L12,286.5 L13.5,287 L34.5,286.5 L35,286.5 " />
<path id="30" stroke-linecap="round" stroke="#6566CC" stroke-width="2.137377528207969" fill="none" moovel_neighborhood="Ward 96" moovel_area="3170.78" moovel_cumulative_area="233198.82" moovel_length="631.91" d="M38,287 L442,287.5 L532,287 " />
<path id="31" stroke-linecap="round" stroke="#6566CC" stroke-width="2.137377528207969" fill="none" moovel_neighborhood="Ward 96" moovel_area="3227.80" moovel_cumulative_area="236426.63" moovel_length="643.27" d="M535,287 L555,286.5 L589,287 L589.5,287.5 L590,288 L590.5,289 L590,289.5 L590,290.5 L589.5,291 L467,291.5 L170.5,292 L145.5,292 " />
<path id="32" stroke-linecap="round" stroke="#6566CC" stroke-width="2.137377528207969" fill="none" moovel_neighborhood="Ward 96" moovel_area="2740.55" moovel_cumulative_area="239167.18" moovel_length="546.17" d="M141.5,291 L11.5,291.5 L11,292.5 L11,293 L11,294 L11.5,294.5 L12.5,295 L13,295.5 L304.5,295.5 " />
<path id="33" stroke-linecap="round" stroke="#6566CC" stroke-width="2.137377528207969" fill="none" moovel_neighborhood="Ward 96" moovel_area="3904.49" moovel_cumulative_area="243071.66" moovel_length="778.13" d="M307.5,295 L589.5,295.5 L590,296 L590.5,296.5 L590.5,297.5 L590,298 L589.5,298.5 L589,299 L267,299 " />
<path id="34" stroke-linecap="round" stroke="#6566CC" stroke-width="2.137377528207969" fill="none" moovel_neighborhood="Ward 96" moovel_area="2885.01" moovel_cumulative_area="245956.67" moovel_length="574.96" d="M264,299.5 L11.5,300 L11.5,300.5 L11,301.5 L11.5,302 L11.5,302.5 L12.5,303 L13,303.5 L205,303.5 " />
<path id="35" stroke-linecap="round" stroke="#6566CC" stroke-width="2.137377528207969" fill="none" moovel_neighborhood="Ward 96" moovel_area="3188.06" moovel_cumulative_area="249144.73" moovel_length="635.35" d="M208,303.5 L288,303 L574.5,302.5 L589,303 L589.5,303.5 L590,304 L590,305 L590,305.5 L590,306.5 L589,307 L478.5,307.5 " />
<path id="36" stroke-linecap="round" stroke="#6566CC" stroke-width="2.137377528207969" fill="none" moovel_neighborhood="Ward 96" moovel_area="4188.77" moovel_cumulative_area="253333.50" moovel_length="834.79" d="M475,307.5 L457,308 L219.5,308.5 L12,309 L11.5,309.5 L11.5,310 L11.5,311 L11.5,311.5 L12,312 L13.5,312.5 L37,312 L197.5,312 " />
<path id="37" stroke-linecap="round" stroke="#6566CC" stroke-width="2.137377528207969" fill="none" moovel_neighborhood="Ward 96" moovel_area="2298.24" moovel_cumulative_area="255631.75" moovel_length="458.02" d="M200.5,311.5 L558.5,311.5 " />
<path id="38" stroke-linecap="round" stroke="#6566CC" stroke-width="2.137377528207969" fill="none" moovel_neighborhood="Ward 96" moovel_area="1894.19" moovel_cumulative_area="257525.93" moovel_length="377.50" d="M561.5,312 L571,311.5 L589,312 L590,312.5 L590.5,313.5 L590.5,314.5 L590,315 L589.5,315.5 L589,316 L327,316 " />
<path id="39" stroke-linecap="round" stroke="#6566CC" stroke-width="2.137377528207969" fill="none" moovel_neighborhood="Ward 96" moovel_area="6196.01" moovel_cumulative_area="263721.94" moovel_length="1234.81" d="M323.5,316 L192,316.5 L12,317 L11.5,317.5 L11,318.5 L11.5,319 L12,319.5 L12.5,320 L13,320.5 L81.5,320 L144,320.5 L155.5,320 L531,319.5 L589,320 L590.5,320.5 L590.5,321.5 L590.5,322 L590,323 L589.5,323.5 L522.5,324 L521,324 " />
<path id="40" stroke-linecap="round" stroke="#6566CC" stroke-width="2.137377528207969" fill="none" moovel_neighborhood="Ward 96" moovel_area="6192.66" moovel_cumulative_area="269914.60" moovel_length="1234.15" d="M518,324 L391.5,323.5 L165.5,323 L11.5,323.5 L11,324.5 L10.5,325.5 L11,326 L11.5,327 L12,327.5 L13,328 L273,328.5 L467,328.5 " />
<path id="41" stroke-linecap="round" stroke="#6566CC" stroke-width="2.137377528207969" fill="none" moovel_name="MTB 2, 3" moovel_neighborhood="Ward 96" moovel_area="3644.02" moovel_cumulative_area="273558.63" moovel_length="726.22" d="M470,328.5 L483.5,328 L589.5,328.5 L590,329 L590,330 L590,330.5 L590,331.5 L589.5,332 L589,332.5 L145.5,332.5 " />
<path id="42" stroke-linecap="round" stroke="#6566CC" stroke-width="2.137377528207969" fill="none" moovel_neighborhood="Ward 96" moovel_area="5856.05" moovel_cumulative_area="279414.68" moovel_length="1167.06" d="M142,332.5 L80.5,333 L11.5,333.5 L11.5,334 L11.5,335 L11.5,335.5 L12,336 L12.5,336.5 L225.5,336 L289,336.5 L350.5,336 L567.5,335.5 L589.5,336 L590,336.5 L590.5,337 L590.5,337.5 L590.5,338 L590,339 L588.5,339.5 L475.5,340 L393,340 " />
<path id="43" stroke-linecap="round" stroke="#6566CC" stroke-width="2.137377528207969" fill="none" moovel_neighborhood="Ward 96" moovel_area="1831.29" moovel_cumulative_area="281245.97" moovel_length="364.96" d="M389,341 L344.5,340.5 L104,340.5 " />
<path id="44" stroke-linecap="round" stroke="#6566CC" stroke-width="2.137377528207969" fill="none" moovel_neighborhood="Ward 96" moovel_area="2609.79" moovel_cumulative_area="283855.76" moovel_length="520.11" d="M101,341 L12,341.5 L11.5,342 L11.5,342.5 L11.5,343.5 L11.5,344 L12,344.5 L12.5,345 L159.5,344.5 L325,345 " />
<path id="45" stroke-linecap="round" stroke="#6566CC" stroke-width="2.137377528207969" fill="none" moovel_neighborhood="Ward 96" moovel_area="2869.64" moovel_cumulative_area="286725.39" moovel_length="571.90" d="M328.5,345 L416.5,344.5 L589.5,345 L590,345.5 L590,346.5 L590,347.5 L590,348 L589.5,348.5 L588.5,349 L447,349.5 L408,349 " />
<path id="46" stroke-linecap="round" stroke="#6566CC" stroke-width="2.137377528207969" fill="none" moovel_neighborhood="Ward 96" moovel_area="4678.23" moovel_cumulative_area="291403.62" moovel_length="932.33" d="M405,349 L12,349.5 L11.5,350 L11.5,350.5 L11.5,351 L11.5,351.5 L12,352 L12.5,352.5 L173.5,353 L344,353 " />
<path id="47" stroke-linecap="round" stroke="#6566CC" stroke-width="2.137377528207969" fill="none" moovel_neighborhood="Ward 96" moovel_area="5212.75" moovel_cumulative_area="296616.37" moovel_length="1038.86" d="M346.5,353.5 L579,354 L590.5,355 L590.5,355.5 L590.5,356 L590,356.5 L589.5,357 L589,357.5 L451.5,357 L24.5,357 " />
<path id="48" stroke-linecap="round" stroke="#6566CC" stroke-width="2.137377528207969" fill="none" moovel_neighborhood="Ward 96" moovel_area="3026.93" moovel_cumulative_area="299643.30" moovel_length="603.24" d="M21,357.5 L12,358 L11.5,358.5 L11,359 L11,360 L11.5,360.5 L12,361 L12.5,361.5 L197,361 L470,361 " />
<path id="49" stroke-linecap="round" stroke="#6566CC" stroke-width="2.137377528207969" fill="none" moovel_neighborhood="Ward 96" moovel_area="6235.41" moovel_cumulative_area="305878.71" moovel_length="1242.67" d="M474,361.5 L589.5,362 L590,362.5 L590,363.5 L590,364.5 L590,365 L589.5,365.5 L588.5,366 L194.5,366.5 L12,367 L11.5,367.5 L11.5,368 L11.5,368.5 L11.5,369.5 L12,370 L282,370 " />
<path id="50" stroke-linecap="round" stroke="#6566CC" stroke-width="2.137377528207969" fill="none" moovel_neighborhood="Ward 96" moovel_area="29.43" moovel_cumulative_area="305908.14" moovel_length="5.87" d="M285.5,370 L289.5,370 " />
<path id="51" stroke-linecap="round" stroke="#6566CC" stroke-width="2.137377528207969" fill="none" moovel_neighborhood="Ward 96" moovel_area="44.58" moovel_cumulative_area="305952.72" moovel_length="8.88" d="M292.5,370 L299,370 " />
<path id="52" stroke-linecap="round" stroke="#6566CC" stroke-width="2.137377528207969" fill="none" moovel_neighborhood="Ward 96" moovel_area="46.47" moovel_cumulative_area="305999.19" moovel_length="9.26" d="M302.5,370 L309,370 " />
<path id="53" stroke-linecap="round" stroke="#6566CC" stroke-width="2.137377528207969" fill="none" moovel_neighborhood="Ward 96" moovel_area="2887.28" moovel_cumulative_area="308886.47" moovel_length="575.41" d="M312,370 L589.5,370.5 L590,371 L590.5,372 L590,373 L590,373.5 L589.5,374 L588.5,374.5 L464.5,374 L421.5,374 " />
<path id="54" stroke-linecap="round" stroke="#6566CC" stroke-width="2.137377528207969" fill="none" moovel_neighborhood="Ward 96" moovel_area="3043.91" moovel_cumulative_area="311930.38" moovel_length="606.63" d="M418,374 L407,374.5 L11.5,375 L11,375.5 L11,376.5 L11,377 L11.5,378 L12,378.5 L75.5,378.5 " />
<path id="55" stroke-linecap="round" stroke="#6566CC" stroke-width="2.137377528207969" fill="none" moovel_neighborhood="Ward 96" moovel_area="48.11" moovel_cumulative_area="311978.48" moovel_length="9.59" d="M79,378.5 L86,378.5 " />
</svg>
