<?xml version="1.0" encoding="UTF-8" standalone="no"?>
<svg width="603px" height="73298px"  viewport="0 0 603 73298" version="1.1" xmlns="http://www.w3.org/2000/svg" xmlns:xlink="http://www.w3.org/1999/xlink">
<path id="1" stroke-linecap="round" stroke="#6566CC" stroke-width="2.8501727215133537" fill="none" moovel_neighborhood="Ward 96" moovel_area="3525.08" moovel_cumulative_area="3525.08" moovel_length="702.52" d="M15,4.5 L451,4 L482.5,4 " />
<path id="2" stroke-linecap="round" stroke="#6566CC" stroke-width="2.8501727215133537" fill="none" moovel_name="MTB" moovel_neighborhood="Ward 96" moovel_area="11500.44" moovel_cumulative_area="15025.52" moovel_length="2291.94" d="M487.5,4.5 L531.5,4 L591,4.5 L592,5 L592.5,6.5 L592.5,7.5 L591.5,9 L590.5,9.5 L390,10 L31.5,10.5 L12,11.5 L12,12.5 L12,13.5 L13,14.5 L212.5,14 L587.5,13.5 L591,14 L592,15 L592.5,16.5 L592,18 L591,19 L562,19.5 L341.5,19.5 " />
<path id="3" stroke-linecap="round" stroke="#6566CC" stroke-width="2.8501727215133537" fill="none" moovel_neighborhood="Ward 96" moovel_area="3044.29" moovel_cumulative_area="18069.81" moovel_length="606.70" d="M336.5,19 L194.5,19.5 L12.5,20 L11.5,21 L11.5,22 L12,23 L13,23.5 L14,24 L86.5,24 " />
<path id="4" stroke-linecap="round" stroke="#6566CC" stroke-width="2.8501727215133537" fill="none" moovel_name="MTB 2" moovel_neighborhood="Ward 96" moovel_area="2018.53" moovel_cumulative_area="20088.34" moovel_length="402.28" d="M91.5,24 L246,23.5 L358.5,23.5 " />
<path id="5" stroke-linecap="round" stroke="#6566CC" stroke-width="2.8501727215133537" fill="none" moovel_neighborhood="Ward 96" moovel_area="4294.07" moovel_cumulative_area="24382.41" moovel_length="855.77" d="M363.5,24 L590.5,24.5 L592,25 L592.5,26 L592.5,27 L592,28 L591,28.5 L589.5,29 L579,28.5 L503,29 L355.5,28.5 L255,28.5 " />
<path id="6" stroke-linecap="round" stroke="#6566CC" stroke-width="2.8501727215133537" fill="none" moovel_neighborhood="Ward 96" moovel_area="8567.52" moovel_cumulative_area="32949.93" moovel_length="1707.44" d="M250.5,28.5 L37,28 L12.5,28.5 L11.5,29.5 L11,31 L11.5,32 L12.5,33.5 L13.5,34 L302,34.5 L592,35 L592.5,36 L593,37.5 L592,38.5 L591,39 L435.5,38.5 L281,38.5 " />
<path id="7" stroke-linecap="round" stroke="#6566CC" stroke-width="2.8501727215133537" fill="none" moovel_neighborhood="Ward 23" moovel_area="2437.75" moovel_cumulative_area="35387.68" moovel_length="880.11" d="M276,38.5 L136.5,39 L12,40 L11.5,41 L12,42 L12.5,43 L13.5,43.5 L70,43 L329.5,43 " />
<path id="8" stroke-linecap="round" stroke="#6566CC" stroke-width="2.8501727215133537" fill="none" moovel_neighborhood="Ward 23" moovel_area="1306.63" moovel_cumulative_area="36694.31" moovel_length="471.73" d="M334,43.5 L340,43 L357,43.5 L592,44.5 L592.5,46 L592,47.5 L591.5,48.5 L540.5,48.5 " />
<path id="9" stroke-linecap="round" stroke="#6566CC" stroke-width="2.8501727215133537" fill="none" moovel_neighborhood="Ward 23" moovel_area="1812.56" moovel_cumulative_area="38506.87" moovel_length="654.39" d="M536,48 L492,48.5 L482,48 L473.5,48.5 L101,48.5 " />
<path id="10" stroke-linecap="round" stroke="#6566CC" stroke-width="2.8501727215133537" fill="none" moovel_neighborhood="Ward 23" moovel_area="656.90" moovel_cumulative_area="39163.77" moovel_length="237.16" d="M96,48 L12,49 L11.5,50.5 L11.5,51.5 L12.5,52.5 L13.5,53 L81,53 " />
<path id="11" stroke-linecap="round" stroke="#6566CC" stroke-width="2.8501727215133537" fill="none" moovel_neighborhood="Ward 23" moovel_area="12513.36" moovel_cumulative_area="51677.13" moovel_length="4517.72" d="M85.5,53 L206.5,53.5 L481.5,54 L592,54.5 L593,55.5 L593,57 L592,57.5 L590.5,58 L388,57.5 L147,57 L12.5,57.5 L11.5,58.5 L11,60 L11,61.5 L12.5,62.5 L14,63 L182.5,63.5 L422,64 L591.5,64.5 L592.5,65 L593,66 L593,67 L591.5,67.5 L590,68 L563,67.5 L302.5,67 L54,66.5 L12.5,67 L11.5,67.5 L11,69 L11,70.5 L12,71.5 L13,72.5 L168.5,73 L404.5,73.5 L591.5,74 L592.5,75 L593,76 L592.5,77 L591,77.5 L590,78 L521.5,77.5 L426.5,77.5 " />
<path id="12" stroke-linecap="round" stroke="#6566CC" stroke-width="2.8501727215133537" fill="none" moovel_neighborhood="Ward 93" moovel_area="3616.24" moovel_cumulative_area="55293.37" moovel_length="1305.58" d="M422.5,77.5 L405,77 L57.5,76.5 L12.5,77 L11.5,78 L11.5,79.5 L12,81 L13,81.5 L14,82 L315,82.5 L467.5,82.5 " />
<path id="13" stroke-linecap="round" stroke="#6566CC" stroke-width="2.8501727215133537" fill="none" moovel_neighborhood="Ward 93" moovel_area="937.50" moovel_cumulative_area="56230.87" moovel_length="338.47" d="M472,82 L591.5,82.5 L592.5,83.5 L592.5,85 L592,86 L591,87 L491.5,87 " />
<path id="14" stroke-linecap="round" stroke="#6566CC" stroke-width="2.8501727215133537" fill="none" moovel_neighborhood="Ward 106" moovel_area="5849.00" moovel_cumulative_area="62079.87" moovel_length="2111.67" d="M487,87 L95,87.5 L12,88 L11.5,89.5 L12,90.5 L12.5,91.5 L13.5,92 L354,91.5 L591,92 L592,92.5 L592.5,94 L592.5,95 L591.5,96 L590.5,96.5 L589.5,97 L248,97 " />
<path id="15" stroke-linecap="round" stroke="#6566CC" stroke-width="2.8501727215133537" fill="none" moovel_name="Barkston Drive" moovel_neighborhood="Ward 102" moovel_area="46.89" moovel_cumulative_area="62126.76" moovel_length="9.34" d="M244,97 L239,97 " />
<path id="16" stroke-linecap="round" stroke="#6566CC" stroke-width="2.8501727215133537" fill="none" moovel_neighborhood="Ward 23" moovel_area="9179.59" moovel_cumulative_area="71306.35" moovel_length="3314.12" d="M234.5,96.5 L12,97.5 L11.5,98.5 L11.5,100 L12,101 L13.5,101.5 L15,102 L385.5,102.5 L591.5,103 L592.5,103.5 L593,104.5 L592.5,105.5 L591.5,106.5 L398.5,106 L41,105.5 L13,106 L12,106.5 L11,108 L11,109.5 L12,111 L13.5,111.5 L262.5,112 L591.5,112.5 L592.5,113 L593,114.5 L592.5,115.5 L591.5,116 L367,116 " />
<path id="17" stroke-linecap="round" stroke="#6566CC" stroke-width="2.8501727215133537" fill="none" moovel_neighborhood="Ward 102" moovel_area="1492.37" moovel_cumulative_area="72798.72" moovel_length="297.42" d="M362,116 L165,116 " />
<path id="18" stroke-linecap="round" stroke="#6566CC" stroke-width="2.8501727215133537" fill="none" moovel_name="Green Route" moovel_neighborhood="Ward 32" moovel_area="82232.19" moovel_cumulative_area="155030.91" moovel_length="14844.21" d="M160,116.5 L13,117 L12,117.5 L12,118.5 L12,119.5 L12.5,120.5 L13.5,121 L56.5,120.5 L465,120 L591,120.5 L592,121.5 L592,123 L592,124.5 L591,125.5 L590,126 L293.5,126.5 L12.5,127 L12,128 L12,129 L13,130 L13.5,130.5 L30.5,130 L591.5,131 L592,132.5 L592,134 L591.5,135.5 L590.5,136 L57,136.5 L12,137.5 L12,138.5 L12.5,139 L13.5,139.5 L591,140 L591.5,141 L592,143 L591.5,144.5 L591,145.5 L590,146 L12.5,146.5 L12,147.5 L12.5,148.5 L13,149 L13.5,149.5 L591,150 L592,151.5 L592,153 L591.5,154.5 L591,155.5 L13,156 L12.5,156.5 L12,157 L12.5,158 L13,158.5 L13.5,159 L591.5,160 L592,161.5 L592,163 L591.5,164 L591,165 L590,165.5 L12.5,166 L12,167 L12.5,167.5 L13,168.5 L13.5,169 L208,168.5 L591,169 L591.5,170 L592,171.5 L592,173 L591,174 L590.5,174.5 L524.5,175 L12.5,176 L12,177 L12.5,178 L13,178.5 L591,179 L592,180 L592,181.5 L592,183 L591,184 L590,184.5 L149,184 L12,185 L11.5,186 L11,187.5 L12,189 L13,189.5 L409.5,189 L592,189.5 L593,190 L593,191 L592.5,192 L591.5,193 L400,193.5 L42,194 L11.5,195 L11,196.5 L11.5,198 L12.5,199 L13.5,199.5 L167,199 L410.5,199 " />
<path id="19" stroke-linecap="round" stroke="#6566CC" stroke-width="2.8501727215133537" fill="none" moovel_neighborhood="Ward 96" moovel_area="665.46" moovel_cumulative_area="155696.37" moovel_length="132.62" d="M415.5,199 L502.5,199 " />
<path id="20" stroke-linecap="round" stroke="#6566CC" stroke-width="2.8501727215133537" fill="none" moovel_neighborhood="Ward 96" moovel_area="5047.06" moovel_cumulative_area="160743.43" moovel_length="1005.84" d="M507.5,199 L512,198.5 L591,199 L592,199.5 L592.5,201 L592.5,202 L592,203 L591,203.5 L590,204 L572,203.5 L544,204 L12.5,204.5 L11.5,205.5 " />
<path id="21" stroke-linecap="round" stroke="#6566CC" stroke-width="2.8501727215133537" fill="none" moovel_neighborhood="Ward 96" moovel_area="2076.09" moovel_cumulative_area="162819.52" moovel_length="413.75" d="M14,208.5 L158.5,208 L266.5,208.5 L289,208.5 " />
<path id="22" stroke-linecap="round" stroke="#6566CC" stroke-width="2.8501727215133537" fill="none" moovel_neighborhood="Ward 96" moovel_area="21.78" moovel_cumulative_area="162841.30" moovel_length="4.34" d="M292.5,208.5 L294.5,208.5 " />
<path id="23" stroke-linecap="round" stroke="#6566CC" stroke-width="2.8501727215133537" fill="none" moovel_neighborhood="Ward 96" moovel_area="22770.72" moovel_cumulative_area="185612.02" moovel_length="4538.02" d="M299,208.5 L389.5,208 L591.5,208.5 L592,209.5 L592,211 L591.5,212.5 L591,213.5 L443,214 L172.5,214.5 L13,215 L12,215.5 L12,216.5 L12.5,217.5 L13,218.5 L132.5,218 L419.5,217.5 L591.5,218 L592,219.5 L592,221 L591.5,222 L591,223 L590,223.5 L308.5,224 L22.5,224.5 L12.5,225 L12,225.5 L12,226.5 L12.5,227.5 L13.5,228 L249.5,227.5 L502.5,227 L591,227.5 L592,228 L592.5,229.5 L592,231 L591.5,232 L590.5,232.5 L500,233 L326.5,233.5 L213.5,234 L200,233.5 " />
<path id="24" stroke-linecap="round" stroke="#6566CC" stroke-width="2.8501727215133537" fill="none" moovel_neighborhood="Ward 96" moovel_area="6865.27" moovel_cumulative_area="192477.29" moovel_length="1368.19" d="M195.5,233 L13,233.5 L12,234 L11.5,235 L12,236 L12.5,237 L13,237.5 L443.5,237 L591.5,237.5 L592.5,238.5 L592.5,239.5 L592,241 L591,241.5 L590,242 L460,242.5 L452,242.5 " />
<path id="25" stroke-linecap="round" stroke="#6566CC" stroke-width="2.8501727215133537" fill="none" moovel_neighborhood="Ward 96" moovel_area="5835.49" moovel_cumulative_area="198312.78" moovel_length="1162.96" d="M447,242.5 L409,243 L12.5,243.5 L11.5,244 L11.5,245 L11.5,246 L12,247.5 L13,248 L128,247.5 L347,247.5 " />
<path id="26" stroke-linecap="round" stroke="#6566CC" stroke-width="2.8501727215133537" fill="none" moovel_neighborhood="Ward 96" moovel_area="16253.99" moovel_cumulative_area="214566.77" moovel_length="3239.29" d="M351.5,247.5 L393,247 L591.5,247.5 L592,249 L592.5,250 L591.5,251.5 L590.5,252 L589.5,252.5 L40.5,253 L11.5,254 L11,255 L11,256 L11.5,257 L12.5,258 L14,258.5 L27,258 L304,257.5 L591.5,258 L592.5,259.5 L592,261 L591.5,262 L590.5,263 L12.5,263.5 L12,264.5 L11.5,265.5 L12,266.5 L13,267.5 L174.5,267.5 " />
<path id="27" stroke-linecap="round" stroke="#6566CC" stroke-width="2.8501727215133537" fill="none" moovel_neighborhood="Ward 96" moovel_area="7396.14" moovel_cumulative_area="221962.91" moovel_length="1473.99" d="M179.5,267 L336.5,267.5 L592,268 L592.5,269 L593,269.5 L592.5,270.5 L592,271.5 L590.5,272 L266,271.5 L243.5,272 L26.5,272 " />
<path id="28" stroke-linecap="round" stroke="#6566CC" stroke-width="2.8501727215133537" fill="none" moovel_neighborhood="Ward 60" moovel_area="2945.61" moovel_cumulative_area="224908.52" moovel_length="587.04" d="M21.5,272 L11.5,273 L11.5,274.5 L12,275.5 L13,276.5 L358,276 L389,276 " />
<path id="29" stroke-linecap="round" stroke="#6566CC" stroke-width="2.8501727215133537" fill="none" moovel_neighborhood="Ward 96" moovel_area="5119.54" moovel_cumulative_area="230028.06" moovel_length="1020.28" d="M393.5,276.5 L591.5,277 L592.5,278 L592.5,279 L592,280.5 L591,281 L524,281.5 L484.5,281 L115.5,281 " />
<path id="30" stroke-linecap="round" stroke="#6566CC" stroke-width="2.8501727215133537" fill="none" moovel_neighborhood="Ward 96" moovel_area="3170.78" moovel_cumulative_area="233198.84" moovel_length="631.91" d="M111.5,281.5 L12,282 L11.5,283 L11.5,284 L11.5,285 L12.5,286 L13.5,286.5 L329,286.5 " />
<path id="31" stroke-linecap="round" stroke="#6566CC" stroke-width="2.8501727215133537" fill="none" moovel_neighborhood="Ward 96" moovel_area="3227.80" moovel_cumulative_area="236426.64" moovel_length="643.27" d="M333.5,286.5 L341,286 L591.5,286.5 L592.5,288 L592.5,289.5 L592,290.5 L590.5,291 L464,291.5 L426.5,291.5 " />
<path id="32" stroke-linecap="round" stroke="#6566CC" stroke-width="2.8501727215133537" fill="none" moovel_neighborhood="Ward 96" moovel_area="2740.55" moovel_cumulative_area="239167.19" moovel_length="546.17" d="M422.5,291 L59.5,291 " />
<path id="33" stroke-linecap="round" stroke="#6566CC" stroke-width="2.8501727215133537" fill="none" moovel_neighborhood="Ward 96" moovel_area="3904.49" moovel_cumulative_area="243071.68" moovel_length="778.13" d="M55,291 L13,291.5 L12,292 L11.5,293.5 L11.5,294.5 L12.5,295.5 L14,296 L483,296 " />
<path id="34" stroke-linecap="round" stroke="#6566CC" stroke-width="2.8501727215133537" fill="none" moovel_neighborhood="Ward 96" moovel_area="2885.01" moovel_cumulative_area="245956.69" moovel_length="574.96" d="M488,296 L591.5,296.5 L592.5,297.5 L592.5,298.5 L592,300 L591,301 L318,301 " />
<path id="35" stroke-linecap="round" stroke="#6566CC" stroke-width="2.8501727215133537" fill="none" moovel_neighborhood="Ward 96" moovel_area="3188.06" moovel_cumulative_area="249144.75" moovel_length="635.35" d="M313,301 L12.5,301.5 L11.5,302.5 L11.5,304 L12,305 L13,305.5 L14.5,306 L129,306 " />
<path id="36" stroke-linecap="round" stroke="#6566CC" stroke-width="2.8501727215133537" fill="none" moovel_neighborhood="Ward 96" moovel_area="4188.77" moovel_cumulative_area="253333.52" moovel_length="834.79" d="M134,305.5 L428.5,305 L591.5,305.5 L592,306.5 L592.5,308 L592,309 L591,310 L590,310.5 L498.5,310.5 " />
<path id="37" stroke-linecap="round" stroke="#6566CC" stroke-width="2.8501727215133537" fill="none" moovel_neighborhood="Ward 96" moovel_area="2298.24" moovel_cumulative_area="255631.76" moovel_length="458.02" d="M493.5,310.5 L440.5,311 L189.5,311 " />
<path id="38" stroke-linecap="round" stroke="#6566CC" stroke-width="2.8501727215133537" fill="none" moovel_neighborhood="Ward 96" moovel_area="1894.19" moovel_cumulative_area="257525.95" moovel_length="377.50" d="M185,310.5 L12.5,311 L11.5,312 L11.5,313 L11.5,314.5 L12.5,315.5 L85.5,315.5 " />
<path id="39" stroke-linecap="round" stroke="#6566CC" stroke-width="2.8501727215133537" fill="none" moovel_neighborhood="Ward 96" moovel_area="6196.01" moovel_cumulative_area="263721.96" moovel_length="1234.81" d="M90,315.5 L333,315 L470,315.5 L592.5,316.5 L592.5,318 L592,319 L591,319.5 L589.5,320 L276,320 " />
<path id="40" stroke-linecap="round" stroke="#6566CC" stroke-width="2.8501727215133537" fill="none" moovel_neighborhood="Ward 96" moovel_area="6192.66" moovel_cumulative_area="269914.62" moovel_length="1234.15" d="M271.5,320.5 L265,320 L12,320.5 L11,322 L11,323.5 L12,324.5 L13.5,325 L14.5,325.5 L347,326 L570.5,326 " />
<path id="41" stroke-linecap="round" stroke="#6566CC" stroke-width="2.8501727215133537" fill="none" moovel_name="MTB 2, 3" moovel_neighborhood="Ward 96" moovel_area="3644.02" moovel_cumulative_area="273558.64" moovel_length="726.22" d="M575.5,325 L592,326 L592.5,327 L592.5,328.5 L591.5,329.5 L590.5,330 L361.5,330.5 L129.5,330.5 " />
<path id="42" stroke-linecap="round" stroke="#6566CC" stroke-width="2.8501727215133537" fill="none" moovel_neighborhood="Ward 96" moovel_area="5856.05" moovel_cumulative_area="279414.69" moovel_length="1167.06" d="M124.5,330 L54,330.5 L12,331 L11.5,332 L12,333.5 L12.5,334.5 L446,334 L592,334.5 L592.5,335.5 L592.5,337 L592,338 L590.5,338.5 L515.5,338.5 " />
<path id="43" stroke-linecap="round" stroke="#6566CC" stroke-width="2.8501727215133537" fill="none" moovel_neighborhood="Ward 96" moovel_area="1831.29" moovel_cumulative_area="281245.98" moovel_length="364.96" d="M510.5,339.5 L268,339.5 " />
<path id="44" stroke-linecap="round" stroke="#6566CC" stroke-width="2.8501727215133537" fill="none" moovel_neighborhood="Ward 96" moovel_area="2609.79" moovel_cumulative_area="283855.77" moovel_length="520.11" d="M263,340 L12,341 L11.5,342 L12,343 L12.5,344 L13.5,344.5 L102.5,344.5 " />
<path id="45" stroke-linecap="round" stroke="#6566CC" stroke-width="2.8501727215133537" fill="none" moovel_neighborhood="Ward 96" moovel_area="2869.64" moovel_cumulative_area="286725.41" moovel_length="571.90" d="M107.5,344.5 L313.5,344 L487.5,344 " />
<path id="46" stroke-linecap="round" stroke="#6566CC" stroke-width="2.8501727215133537" fill="none" moovel_neighborhood="Ward 96" moovel_area="4678.23" moovel_cumulative_area="291403.64" moovel_length="932.33" d="M492,344.5 L509,345 L592,345.5 L592.5,346.5 L592.5,347.5 L592,348.5 L591,349.5 L218,349 L75.5,349.5 " />
<path id="47" stroke-linecap="round" stroke="#6566CC" stroke-width="2.8501727215133537" fill="none" moovel_neighborhood="Ward 96" moovel_area="5212.75" moovel_cumulative_area="296616.39" moovel_length="1038.86" d="M71.5,349.5 L11.5,350.5 L11.5,352 L11.5,353.5 L12.5,354 L14,354.5 L194.5,355 L592,356 L593,357 L592.5,358.5 L591.5,359 L590.5,359.5 L547.5,359.5 " />
<path id="48" stroke-linecap="round" stroke="#6566CC" stroke-width="2.8501727215133537" fill="none" moovel_neighborhood="Ward 96" moovel_area="3026.93" moovel_cumulative_area="299643.32" moovel_length="603.24" d="M543,359.5 L142,359.5 " />
<path id="49" stroke-linecap="round" stroke="#6566CC" stroke-width="2.8501727215133537" fill="none" moovel_neighborhood="Ward 96" moovel_area="6235.41" moovel_cumulative_area="305878.73" moovel_length="1242.67" d="M137,359.5 L12,360.5 L11.5,361.5 L12,362.5 L12.5,363.5 L13.5,364 L441.5,363.5 L591,364 L592,365 L592.5,366 L592,367.5 L591.5,368.5 L590,369 L477.5,369 " />
<path id="50" stroke-linecap="round" stroke="#6566CC" stroke-width="2.8501727215133537" fill="none" moovel_neighborhood="Ward 96" moovel_area="29.43" moovel_cumulative_area="305908.16" moovel_length="5.87" d="M473,369 L470,369 " />
<path id="51" stroke-linecap="round" stroke="#6566CC" stroke-width="2.8501727215133537" fill="none" moovel_neighborhood="Ward 96" moovel_area="44.58" moovel_cumulative_area="305952.74" moovel_length="8.88" d="M465.5,369 L461,369 " />
<path id="52" stroke-linecap="round" stroke="#6566CC" stroke-width="2.8501727215133537" fill="none" moovel_neighborhood="Ward 96" moovel_area="46.47" moovel_cumulative_area="305999.21" moovel_length="9.26" d="M456.5,369 L452,369 " />
<path id="53" stroke-linecap="round" stroke="#6566CC" stroke-width="2.8501727215133537" fill="none" moovel_neighborhood="Ward 96" moovel_area="2887.28" moovel_cumulative_area="308886.49" moovel_length="575.41" d="M447.5,369 L65,368.5 " />
<path id="54" stroke-linecap="round" stroke="#6566CC" stroke-width="2.8501727215133537" fill="none" moovel_neighborhood="Ward 96" moovel_area="3043.91" moovel_cumulative_area="311930.40" moovel_length="606.63" d="M60.5,369 L12.5,369.5 L11.5,370.5 L11.5,372 L12,373 L13.5,373.5 L216,374 L239,373.5 L363,373.5 " />
<path id="55" stroke-linecap="round" stroke="#6566CC" stroke-width="2.8501727215133537" fill="none" moovel_neighborhood="Ward 96" moovel_area="48.11" moovel_cumulative_area="311978.51" moovel_length="9.59" d="M367.5,374 L373,374 " />
</svg>
