<?xml version="1.0" encoding="UTF-8" standalone="no"?>
<svg width="610px" height="396px"  viewport="0 0 610 396" version="1.1" xmlns="http://www.w3.org/2000/svg" xmlns:xlink="http://www.w3.org/1999/xlink">
<path id="1" stroke-linecap="round" stroke="#6566CC" stroke-width="3" fill="none" moovel_neighborhood="Ward 96" moovel_area="3525.08" moovel_cumulative_area="3525.08" moovel_length="702.52" d="M4.5,1.5 L558,1.5 " />
<path id="2" stroke-linecap="round" stroke="#6566CC" stroke-width="3" fill="none" moovel_name="MTB" moovel_neighborhood="Ward 96" moovel_area="11500.44" moovel_cumulative_area="15025.52" moovel_length="2291.94" d="M565.5,1.5 L567,2 L567.5,2.5 L567.5,3 L567.5,4 L567,5 L566.5,5.5 L548,6 L327.5,6.5 L42,7 L2.5,7.5 L2,8 L2,8.5 L2,9 L2.5,9.5 L3,10 L90,9.5 L448,9 L566.5,9.5 L567,10.5 L567,11.5 L567,12.5 L567,13.5 L566.5,14 L531,14.5 L106,15 L2.5,15.5 L2,16 L2,16.5 L2,17 L2.5,17.5 L3,18 L100,18 " />
<path id="3" stroke-linecap="round" stroke="#6566CC" stroke-width="3" fill="none" moovel_neighborhood="Ward 96" moovel_area="3044.29" moovel_cumulative_area="18069.81" moovel_length="606.70" d="M107,17.5 L211,17 L567,17.5 L567.5,18.5 L567.5,19 L567.5,20 L567,20.5 L566.5,21 L552,21 " />
<path id="4" stroke-linecap="round" stroke="#6566CC" stroke-width="3" fill="none" moovel_name="MTB 2" moovel_neighborhood="Ward 96" moovel_area="2018.53" moovel_cumulative_area="20088.34" moovel_length="402.28" d="M545,21.5 L500.5,22 L228.5,22 " />
<path id="5" stroke-linecap="round" stroke="#6566CC" stroke-width="3" fill="none" moovel_neighborhood="Ward 96" moovel_area="4294.07" moovel_cumulative_area="24382.41" moovel_length="855.77" d="M221.5,21.5 L111,21 L2.5,21.5 L1.5,22 L1.5,23 L1,23.5 L1.5,24.5 L2,25 L3,25.5 L29,26 L161.5,25.5 L315,26 L454,26 " />
<path id="6" stroke-linecap="round" stroke="#6566CC" stroke-width="3" fill="none" moovel_neighborhood="Ward 96" moovel_area="8567.52" moovel_cumulative_area="32949.93" moovel_length="1707.44" d="M461,25.5 L461.5,26 L566,26.5 L567.5,27 L568,27.5 L568,28 L567.5,28.5 L567,29 L566,29.5 L527.5,29 L378.5,28.5 L200,28 L13,27.5 L2.5,28 L1.5,28.5 L1,29.5 L1,30.5 L1,31.5 L1.5,32 L2.5,32.5 L3.5,33 L123,33.5 L316.5,34 L508.5,34.5 L567,35 L567.5,35.5 L568,36 L568,36.5 L567.5,37 L566.5,37.5 L566,38 L548.5,37.5 L466.5,37.5 " />
<path id="7" stroke-linecap="round" stroke="#6566CC" stroke-width="3" fill="none" moovel_neighborhood="Ward 23" moovel_area="2437.75" moovel_cumulative_area="35387.68" moovel_length="880.11" d="M459.5,37.5 L431,38 L284,38.5 L87,39 L2.5,39.5 L2,40 L2,40.5 L2,41 L2.5,41.5 L3,42 L141.5,41.5 L235,41.5 " />
<path id="8" stroke-linecap="round" stroke="#6566CC" stroke-width="3" fill="none" moovel_neighborhood="Ward 23" moovel_area="1306.63" moovel_cumulative_area="36694.31" moovel_length="471.73" d="M242,42 L250,41.5 L269.5,42 L412,42.5 L520,42 L531.5,42.5 L567,43 L567.5,44 L567.5,44.5 L567.5,45.5 L567,46 L566.5,46.5 L524,46.5 " />
<path id="9" stroke-linecap="round" stroke="#6566CC" stroke-width="3" fill="none" moovel_neighborhood="Ward 23" moovel_area="1812.56" moovel_cumulative_area="38506.87" moovel_length="654.39" d="M517,46 L368,46.5 L201,47 L3,47.5 L2,48 L1.5,48.5 " />
<path id="10" stroke-linecap="round" stroke="#6566CC" stroke-width="3" fill="none" moovel_neighborhood="Ward 23" moovel_area="656.90" moovel_cumulative_area="39163.77" moovel_length="237.16" d="M7,50 L110.5,50.5 L193.5,50 " />
<path id="11" stroke-linecap="round" stroke="#6566CC" stroke-width="3" fill="none" moovel_neighborhood="Ward 23" moovel_area="12513.36" moovel_cumulative_area="51677.13" moovel_length="4517.72" d="M200.5,50 L336,50.5 L507,51 L567.5,51.5 L568,52 L568,52.5 L568,53 L567,53.5 L566.5,54 L459,53.5 L298.5,53 L141.5,52.5 L1.5,53.5 L1,54.5 L1,55.5 L1,56.5 L2,57 L2.5,57.5 L3.5,58 L151,58.5 L306,59 L464,59.5 L568,60 L568.5,60.5 L568.5,61 L567.5,61.5 L415.5,61 L224,60.5 L32.5,60 L2,60.5 L1,61.5 L0.5,62.5 L0.5,63.5 L1,64.5 L1.5,65.5 L2.5,66 L39,66.5 L245.5,67 L463,67.5 L567.5,68 L568.5,68.5 L568,69 L567.5,69.5 L567,70 L466.5,69.5 L290,69 L103.5,68.5 L2.5,69 L1.5,69.5 L1,70.5 L1,71.5 L1,72.5 L1.5,73 L2.5,73.5 L5,74 L259.5,74.5 L354,74 L355,74 " />
<path id="12" stroke-linecap="round" stroke="#6566CC" stroke-width="3" fill="none" moovel_neighborhood="Ward 93" moovel_area="3616.24" moovel_cumulative_area="55293.37" moovel_length="1305.58" d="M362,74 L405.5,74.5 L567.5,75 L568,75.5 L568,76 L568,77 L567.5,77.5 L566.5,78 L419,77.5 L2.5,78 L2,78.5 L1.5,79.5 L2,80 L2,80.5 L2.5,81 L66,81.5 L255,81.5 " />
<path id="13" stroke-linecap="round" stroke="#6566CC" stroke-width="3" fill="none" moovel_neighborhood="Ward 93" moovel_area="937.50" moovel_cumulative_area="56230.87" moovel_length="338.47" d="M262,82 L324.5,81.5 L528.5,81.5 " />
<path id="14" stroke-linecap="round" stroke="#6566CC" stroke-width="3" fill="none" moovel_neighborhood="Ward 106" moovel_area="5849.00" moovel_cumulative_area="62079.87" moovel_length="2111.67" d="M535.5,82 L567,82.5 L567.5,83 L567.5,84 L567.5,84.5 L567.5,85 L566.5,85.5 L566,86 L424,86.5 L2.5,87 L2,87.5 L1.5,88 L1.5,88.5 L2,89.5 L2.5,90 L305,89.5 L567,90 L567,90.5 L567.5,91.5 L567,92.5 L567,93 L566.5,93.5 L566,94 L362.5,94.5 L72.5,94.5 " />
<path id="15" stroke-linecap="round" stroke="#6566CC" stroke-width="3" fill="none" moovel_name="Barkston Drive" moovel_neighborhood="Ward 102" moovel_area="46.89" moovel_cumulative_area="62126.76" moovel_length="9.34" d="M66,94 L59.5,94 " />
<path id="16" stroke-linecap="round" stroke="#6566CC" stroke-width="3" fill="none" moovel_neighborhood="Ward 23" moovel_area="9179.59" moovel_cumulative_area="71306.35" moovel_length="3314.12" d="M52.5,94 L2,94.5 L1.5,95 L1,96 L1,97 L1.5,97.5 L2.5,98 L3,98.5 L91.5,99 L363,99.5 L566.5,100 L568,100.5 L568,101 L568,101.5 L567.5,102 L567,102.5 L426,102 L230.5,101.5 L34,101 L2,101.5 L1.5,102 L1,103 L0.5,104 L1,105.5 L1.5,106 L2.5,106.5 L3.5,107 L187.5,107.5 L457,108 L567.5,108.5 L568.5,109 L568,109.5 L567.5,110 L567,110.5 L490.5,110 L168.5,109.5 L1.5,110.5 L1,111 L1,112 L1,113 L1.5,114 L2.5,114.5 L3.5,115 L283,115 " />
<path id="17" stroke-linecap="round" stroke="#6566CC" stroke-width="3" fill="none" moovel_neighborhood="Ward 102" moovel_area="1492.37" moovel_cumulative_area="72798.72" moovel_length="297.42" d="M290.5,114.5 L524.5,114.5 " />
<path id="18" stroke-linecap="round" stroke="#6566CC" stroke-width="3" fill="none" moovel_name="Green Route" moovel_neighborhood="Ward 32" moovel_area="82232.19" moovel_cumulative_area="155030.91" moovel_length="14844.21" d="M531.5,114 L567,114.5 L567,115.5 L567.5,116.5 L567,117 L567,118 L566,118.5 L520.5,119 L342,119.5 L150.5,120 L3,120.5 L2.5,121 L2.5,121.5 L2.5,122 L3,122.5 L132.5,122 L322,121.5 L513.5,121 L566.5,121.5 L566.5,122.5 L567,123.5 L566.5,124.5 L566.5,125.5 L566.5,126.5 L566,127 L427.5,127.5 L222.5,128 L18.5,128.5 L2.5,129 L2.5,129.5 L3,130 L3,130.5 L74.5,130 L279,129.5 L483,129 L566,129.5 L566.5,130.5 L566.5,131.5 L566.5,133 L566.5,134 L566,134.5 L566,135 L554.5,135.5 L363.5,136 L174,136.5 L3.5,137 L2.5,137.5 L2.5,138 L3,138.5 L74.5,138 L265.5,137.5 L456,137 L566,137.5 L566.5,138 L566.5,139 L566.5,140.5 L566.5,141.5 L566,142.5 L566,143.5 L460.5,144 L256.5,144.5 L51.5,145 L3,145.5 L3,146 L3.5,146.5 L29.5,146 L220.5,145.5 L411.5,145 L566.5,146 L566.5,147 L566.5,148.5 L566.5,149.5 L566,150.5 L566,151.5 L451.5,152 L260,152.5 L70,153 L3,153.5 L3,154 L3,154.5 L90,154 L294,153.5 L498.5,153 L566,153.5 L566.5,154 L566.5,155.5 L566.5,156.5 L566.5,157.5 L566,158.5 L566,159.5 L501.5,160 L296.5,160.5 L92,161 L3,161.5 L3,162 L3,162.5 L124,162 L315,161.5 L516.5,161 L566,162 L566.5,162.5 L566.5,164 L566.5,165 L566.5,166.5 L566,167 L566,167.5 L507,168 L295.5,168.5 L91,169 L3,169.5 L3,170 L3,170.5 L183,170 L373.5,169.5 L560,169 L566,169.5 L566.5,170.5 L566.5,171.5 L566.5,172.5 L566.5,173.5 L566.5,174.5 L566,175 L565.5,175.5 L426.5,176 L247.5,176.5 L68.5,177 L3,177.5 L2.5,178 L3,178.5 L3,179 L122,178.5 L290.5,178 L459,177.5 L566.5,178 L567,179 L567,180 L567,181 L567,182 L566.5,182.5 L566,183 L475.5,183.5 L284.5,184 L98.5,184.5 L10,184 L2.5,184.5 L2,185 L1.5,186 L1.5,187 L2,187.5 L2.5,188 L3.5,188.5 L99,188 L218.5,187.5 L335.5,187 L448.5,186.5 L558,186 L567,186.5 L568.5,187 L568.5,187.5 L568.5,188 L567.5,188.5 L566,189 L467.5,189.5 L352.5,190 L238.5,190.5 L124,191 L13.5,191.5 L2,192 L1.5,192.5 L1,193.5 L1,194.5 L1.5,195.5 L2,196.5 L3,197 L27.5,196.5 L151.5,196 L278.5,195.5 L408,195 L534,194.5 L567.5,195 L568,195.5 L568.5,196 L568.5,196.5 L568,197 L566,197.5 L482.5,198 L367.5,198.5 L263.5,198.5 " />
<path id="19" stroke-linecap="round" stroke="#6566CC" stroke-width="3" fill="none" moovel_neighborhood="Ward 96" moovel_area="665.46" moovel_cumulative_area="155696.37" moovel_length="132.62" d="M256,199 L250,198.5 L152,199 " />
<path id="20" stroke-linecap="round" stroke="#6566CC" stroke-width="3" fill="none" moovel_neighborhood="Ward 96" moovel_area="5047.06" moovel_cumulative_area="160743.42" moovel_length="1005.84" d="M144.5,199 L2,199.5 L1.5,200 L1.5,201 L1.5,201.5 L2,202.5 L2.5,203 L49.5,202.5 L377,202 L567,202.5 L567,203.5 L567.5,204 L567.5,205 L567,205.5 L566.5,206.5 L488.5,206.5 " />
<path id="21" stroke-linecap="round" stroke="#6566CC" stroke-width="3" fill="none" moovel_neighborhood="Ward 96" moovel_area="2076.09" moovel_cumulative_area="162819.51" moovel_length="413.75" d="M481.5,207 L434,207.5 L161,207 L155.5,207 " />
<path id="22" stroke-linecap="round" stroke="#6566CC" stroke-width="3" fill="none" moovel_neighborhood="Ward 96" moovel_area="21.78" moovel_cumulative_area="162841.29" moovel_length="4.34" d="M148.5,207 L146,207 " />
<path id="23" stroke-linecap="round" stroke="#6566CC" stroke-width="3" fill="none" moovel_neighborhood="Ward 96" moovel_area="22770.72" moovel_cumulative_area="185612.02" moovel_length="4538.02" d="M139,207 L113.5,207.5 L2.5,208 L2,208.5 L2,209.5 L2,210 L2.5,210.5 L129,210 L292,209.5 L461,209 L566.5,210 L567,210.5 L567,212 L567,213 L566.5,213.5 L566,214.5 L468.5,215 L277,215.5 L98.5,216 L3,216.5 L2.5,217 L2.5,217.5 L2.5,218 L3,218.5 L63,218 L242,217.5 L421,217 L566.5,218 L567,219 L567,220 L567,221 L566.5,222 L566,222.5 L468.5,223 L299.5,223.5 L131,224 L3,224.5 L2.5,225 L2.5,225.5 L2.5,226 L3,226.5 L128,226 L279,225.5 L434.5,225 L566.5,225.5 L567,226.5 L567,227.5 L567,228.5 L567,229 L566.5,230 L520.5,230.5 L380,231 L236.5,231.5 L138,232 L66.5,232.5 L3,233 L2,233.5 L2,234.5 L2,235 L2,236 L3.5,236.5 L32.5,236.5 " />
<path id="24" stroke-linecap="round" stroke="#6566CC" stroke-width="3" fill="none" moovel_neighborhood="Ward 96" moovel_area="6865.27" moovel_cumulative_area="192477.29" moovel_length="1368.19" d="M39,235 L109,234.5 L296.5,234 L445.5,233.5 L567,234 L567,234.5 L567.5,235.5 L567.5,236.5 L567,237 L566.5,237.5 L566,238 L521,238.5 L431.5,239 L409,238.5 L375.5,239 L339,239.5 L255,240 L175.5,240.5 L106,241 L41,241.5 L19.5,241.5 " />
<path id="25" stroke-linecap="round" stroke="#6566CC" stroke-width="3" fill="none" moovel_neighborhood="Ward 96" moovel_area="5835.49" moovel_cumulative_area="198312.78" moovel_length="1162.96" d="M12,239.5 L2,240 L2,240.5 L1.5,241.5 L2,242 L2.5,242.5 L3,243 L72.5,242.5 L287.5,242 L567,242.5 L567.5,243 L568,243.5 L568,244 L567.5,244.5 L567,245 L566.5,245.5 L526,246 L480.5,246.5 L359,247 L312,246.5 L260,247 L231.5,247 " />
<path id="26" stroke-linecap="round" stroke="#6566CC" stroke-width="3" fill="none" moovel_neighborhood="Ward 96" moovel_area="16253.99" moovel_cumulative_area="214566.76" moovel_length="3239.29" d="M225,247.5 L77,248 L2,248.5 L2,249 L2,250 L2,250.5 L2.5,251 L135,250.5 L267.5,251 L322.5,250.5 L559.5,250 L566.5,250.5 L568,251 L568,251.5 L568,252.5 L567.5,253 L565.5,253.5 L386,254 L228,254.5 L85,255 L2.5,255.5 L2,256 L2,256.5 L1.5,257.5 L2,258 L2.5,258.5 L4,259 L32.5,258.5 L366.5,258 L566.5,258.5 L567,259.5 L567,260 L567,261 L567,262 L566.5,262.5 L566,263 L358.5,263.5 L2,264 L2,264.5 L1.5,265.5 L1.5,266 L2,266.5 L2.5,267 L3,267.5 L57,267 L58.5,267 " />
<path id="27" stroke-linecap="round" stroke="#6566CC" stroke-width="3" fill="none" moovel_neighborhood="Ward 96" moovel_area="7396.14" moovel_cumulative_area="221962.90" moovel_length="1473.99" d="M65,267.5 L151,268 L314.5,268.5 L505,269 L567.5,269.5 L568,270 L568,270.5 L567.5,271.5 L566.5,272 L483.5,272.5 L402,272 L228,271.5 L187,271 L161,271.5 L9.5,271 L3,271.5 L2,272 L2,272.5 L2,273 L2,274 L3,274.5 L49.5,275 L91,275 " />
<path id="28" stroke-linecap="round" stroke="#6566CC" stroke-width="3" fill="none" moovel_neighborhood="Ward 60" moovel_area="2945.61" moovel_cumulative_area="224908.51" moovel_length="587.04" d="M97.5,275.5 L170.5,275 L367,274.5 L560.5,274.5 " />
<path id="29" stroke-linecap="round" stroke="#6566CC" stroke-width="3" fill="none" moovel_neighborhood="Ward 96" moovel_area="5119.54" moovel_cumulative_area="230028.05" moovel_length="1020.28" d="M567,276 L567.5,276.5 L567.5,277.5 L567.5,278 L567,279 L566.5,279.5 L381.5,280 L347,279.5 L287.5,280 L146,279.5 L2,280 L1.5,281 L1.5,282 L1.5,282.5 L2,283.5 L2.5,284 L179,284.5 L234,284 L235,284 " />
<path id="30" stroke-linecap="round" stroke="#6566CC" stroke-width="3" fill="none" moovel_neighborhood="Ward 96" moovel_area="3170.78" moovel_cumulative_area="233198.82" moovel_length="631.91" d="M242,283.5 L378,284 L567,284.5 L567.5,285.5 L568,286 L567.5,286.5 L567,287.5 L565.5,288 L527,287.5 L397.5,287.5 " />
<path id="31" stroke-linecap="round" stroke="#6566CC" stroke-width="3" fill="none" moovel_neighborhood="Ward 96" moovel_area="3227.80" moovel_cumulative_area="236426.63" moovel_length="643.27" d="M390.5,287.5 L308,288 L66.5,288.5 L2,289 L2,290 L2,290.5 L2,291 L2.5,291.5 L3,292 L86.5,291.5 L117.5,291.5 " />
<path id="32" stroke-linecap="round" stroke="#6566CC" stroke-width="3" fill="none" moovel_neighborhood="Ward 96" moovel_area="2740.55" moovel_cumulative_area="239167.18" moovel_length="546.17" d="M124,291.5 L332.5,292 L554.5,292 " />
<path id="33" stroke-linecap="round" stroke="#6566CC" stroke-width="3" fill="none" moovel_neighborhood="Ward 96" moovel_area="3904.49" moovel_cumulative_area="243071.66" moovel_length="778.13" d="M561,291.5 L567,292 L567.5,292.5 L567.5,293 L567.5,294 L567.5,294.5 L567,295 L566.5,295.5 L518,296 L314,295.5 L256,296 L2,296.5 L1.5,297.5 L1.5,298 L1.5,299 L2,299.5 L2.5,300 L38,300 " />
<path id="34" stroke-linecap="round" stroke="#6566CC" stroke-width="3" fill="none" moovel_neighborhood="Ward 96" moovel_area="2885.01" moovel_cumulative_area="245956.67" moovel_length="574.96" d="M44.5,299.5 L497.5,299.5 " />
<path id="35" stroke-linecap="round" stroke="#6566CC" stroke-width="3" fill="none" moovel_neighborhood="Ward 96" moovel_area="3188.06" moovel_cumulative_area="249144.73" moovel_length="635.35" d="M504.5,299.5 L567,300 L567.5,301 L567.5,301.5 L567.5,302.5 L567,303 L566,303.5 L540,304 L280,304.5 L215.5,304 L142,304.5 L132,304.5 " />
<path id="36" stroke-linecap="round" stroke="#6566CC" stroke-width="3" fill="none" moovel_neighborhood="Ward 96" moovel_area="4188.77" moovel_cumulative_area="253333.50" moovel_length="834.79" d="M125,303.5 L117.5,304 L2.5,304.5 L2,305 L2,305.5 L2,306 L2,306.5 L2.5,307 L3,307.5 L84,307 L534,307 " />
<path id="37" stroke-linecap="round" stroke="#6566CC" stroke-width="3" fill="none" moovel_neighborhood="Ward 96" moovel_area="2298.24" moovel_cumulative_area="255631.75" moovel_length="458.02" d="M541,307.5 L567,308 L567.5,309 L567.5,309.5 L567.5,310.5 L567,311 L566.5,311.5 L565.5,312 L324,312.5 L235.5,312 " />
<path id="38" stroke-linecap="round" stroke="#6566CC" stroke-width="3" fill="none" moovel_neighborhood="Ward 96" moovel_area="1894.19" moovel_cumulative_area="257525.93" moovel_length="377.50" d="M229,311.5 L198,312 L2.5,312.5 L2,313 L1.5,313.5 L1.5,314.5 L2,315 L2.5,315.5 L3,316 L69,316 " />
<path id="39" stroke-linecap="round" stroke="#6566CC" stroke-width="3" fill="none" moovel_neighborhood="Ward 96" moovel_area="6196.01" moovel_cumulative_area="263721.94" moovel_length="1234.81" d="M76.5,315.5 L254,315 L567,315.5 L567.5,316 L568,317 L567.5,317.5 L567,318 L566.5,318.5 L565.5,319 L246.5,319.5 L87,319.5 " />
<path id="40" stroke-linecap="round" stroke="#6566CC" stroke-width="3" fill="none" moovel_neighborhood="Ward 96" moovel_area="6192.66" moovel_cumulative_area="269914.60" moovel_length="1234.15" d="M80,319.5 L2,320 L1.5,320.5 L1,321.5 L1,322.5 L1.5,323 L2.5,324 L52,324.5 L241,325 L432,325.5 L567.5,326 L568,326.5 L568,327 L568,328 L566.5,328.5 L371.5,328 L243.5,328 " />
<path id="41" stroke-linecap="round" stroke="#6566CC" stroke-width="3" fill="none" moovel_name="MTB 2, 3" moovel_neighborhood="Ward 96" moovel_area="3644.02" moovel_cumulative_area="273558.63" moovel_length="726.22" d="M236.5,328 L3,328.5 L2,329 L2,329.5 L1.5,330 L2,331 L2.5,331.5 L3,332 L149.5,331.5 L337,331.5 " />
<path id="42" stroke-linecap="round" stroke="#6566CC" stroke-width="3" fill="none" moovel_neighborhood="Ward 96" moovel_area="5856.05" moovel_cumulative_area="279414.68" moovel_length="1167.06" d="M343.5,331.5 L478.5,331 L567,332 L567,332.5 L567,333.5 L567,334.5 L567,335 L566.5,335.5 L565.5,336 L243,336.5 L86.5,337 L2.5,337.5 L1.5,338 L1.5,339 L1,339.5 L1.5,340.5 L2,341 L3,341.5 L89.5,341 L127,341 " />
<path id="43" stroke-linecap="round" stroke="#6566CC" stroke-width="3" fill="none" moovel_neighborhood="Ward 96" moovel_area="1831.29" moovel_cumulative_area="281245.97" moovel_length="364.96" d="M134,340 L297.5,340.5 L421.5,340 " />
<path id="44" stroke-linecap="round" stroke="#6566CC" stroke-width="3" fill="none" moovel_neighborhood="Ward 96" moovel_area="2609.79" moovel_cumulative_area="283855.76" moovel_length="520.11" d="M428.5,340 L432,339.5 L567,340.5 L567.5,341 L567.5,342 L567,343 L567,343.5 L566.5,344 L438.5,344.5 L299.5,344 " />
<path id="45" stroke-linecap="round" stroke="#6566CC" stroke-width="3" fill="none" moovel_neighborhood="Ward 96" moovel_area="2869.64" moovel_cumulative_area="286725.39" moovel_length="571.90" d="M292.5,344 L191.5,344.5 L3,345 L2,345.5 L2,346.5 L2,347 L2.5,347.5 L3,348 L158.5,348 " />
<path id="46" stroke-linecap="round" stroke="#6566CC" stroke-width="3" fill="none" moovel_neighborhood="Ward 96" moovel_area="4678.23" moovel_cumulative_area="291403.62" moovel_length="932.33" d="M165.5,348 L222.5,348.5 L361,348 L426,348.5 L566.5,349 L567,349.5 L567,350.5 L567,351 L567,352 L566.5,352.5 L566.5,353 L565.5,353.5 L528,353 L406.5,352.5 L236.5,352.5 " />
<path id="47" stroke-linecap="round" stroke="#6566CC" stroke-width="3" fill="none" moovel_neighborhood="Ward 96" moovel_area="5212.75" moovel_cumulative_area="296616.37" moovel_length="1038.86" d="M229.5,352 L218,351.5 L30.5,351 L2.5,351.5 L2,352 L1.5,352.5 L1,353.5 L1,354.5 L1.5,355 L2.5,355.5 L3.5,356 L127.5,356.5 L424.5,357 L567.5,357.5 L567.5,358.5 L567.5,359 L567.5,359.5 L567,360 L566,360.5 L547,360.5 " />
<path id="48" stroke-linecap="round" stroke="#6566CC" stroke-width="3" fill="none" moovel_neighborhood="Ward 96" moovel_area="3026.93" moovel_cumulative_area="299643.30" moovel_length="603.24" d="M540,360 L461,360.5 L64.5,360.5 " />
<path id="49" stroke-linecap="round" stroke="#6566CC" stroke-width="3" fill="none" moovel_neighborhood="Ward 96" moovel_area="6235.41" moovel_cumulative_area="305878.71" moovel_length="1242.67" d="M58,360 L18.5,360.5 L2,361 L2,361.5 L2,362 L2,363 L2.5,363.5 L355,363 L567,363.5 L567,364.5 L567.5,365 L567,366 L567,367 L566.5,367.5 L488,368 L214.5,368 " />
<path id="50" stroke-linecap="round" stroke="#6566CC" stroke-width="3" fill="none" moovel_neighborhood="Ward 96" moovel_area="29.43" moovel_cumulative_area="305908.14" moovel_length="5.87" d="M207.5,368 L204,368 " />
<path id="51" stroke-linecap="round" stroke="#6566CC" stroke-width="3" fill="none" moovel_neighborhood="Ward 96" moovel_area="44.58" moovel_cumulative_area="305952.72" moovel_length="8.88" d="M196.5,368 L190.5,368 " />
<path id="52" stroke-linecap="round" stroke="#6566CC" stroke-width="3" fill="none" moovel_neighborhood="Ward 96" moovel_area="46.47" moovel_cumulative_area="305999.19" moovel_length="9.26" d="M183.5,368 L176.5,368 " />
<path id="53" stroke-linecap="round" stroke="#6566CC" stroke-width="3" fill="none" moovel_neighborhood="Ward 96" moovel_area="2887.28" moovel_cumulative_area="308886.47" moovel_length="575.41" d="M170,368 L128.5,368.5 L86.5,368 L2,368.5 L1.5,369.5 L1.5,370 L1.5,371 L2,372 L3.5,372.5 L284.5,372.5 " />
<path id="54" stroke-linecap="round" stroke="#6566CC" stroke-width="3" fill="none" moovel_neighborhood="Ward 96" moovel_area="3043.91" moovel_cumulative_area="311930.38" moovel_length="606.63" d="M291.5,372 L567,372.5 L567.5,373 L567.5,374 L567.5,374.5 L567,375.5 L566.5,376 L368,376 " />
<path id="55" stroke-linecap="round" stroke="#6566CC" stroke-width="3" fill="none" moovel_neighborhood="Ward 96" moovel_area="48.11" moovel_cumulative_area="311978.48" moovel_length="9.59" d="M360.5,376 L354,376 " />
</svg>
