<?xml version="1.0" encoding="UTF-8" standalone="no"?>
<svg width="149px" height="490px" viewBox="0 0 149 490" version="1.1" xmlns="http://www.w3.org/2000/svg" xmlns:xlink="http://www.w3.org/1999/xlink">
    <!-- Generator: Sketch 43.1 (39012) - http://www.bohemiancoding.com/sketch -->
    <title>Landmark_SanFrancisco</title>
    <desc>Created with Sketch.</desc>
    <defs>
        <polyline id="path-1" points="315 274.689243 304.648946 209.410359 300.598533 186 270.895509 190.952191 228.141155 197.705179 204.738772 200.856574 184.486709 201.756972 154.333639 203.557769 122.380385 205.808765 76.4757104 208.059761 35.5215399 210.310757 -1.83226398 212.561753 -39.6361137 214.812749 -86.4408799 217.513944 -142.696609 220.665339 -176 222.916335 -175.099908 238.673307 -173.299725 249.928287 -171.949588 258.031873 -170.59945 268.836653 -170.149404 279.641434 -170.149404 285.494024 -170.59945 289.545817 -170.59945 292.697211 -171.049496 296.298805 -170.59945 299 -165.648946 299 -163.398717 299 -160.248396 299 -153.047663 298.549801 -141.796517 298.099602 -131.895509 297.649402 -119.744271 297.199203 -109.393217 296.298805 -99.9422548 295.848606 -92.7415215 295.398406 -77.4399633 294.498008 -58.0879927 293.59761 -41.436297 292.697211 -24.3345555 291.796813 1.31805683 290.446215 22.020165 289.095618 47.6727773 287.74502 71.9752521 286.394422 93.5774519 285.043825 101.228231 284.593625 118.780018 283.693227 135.88176 282.792829 155.683776 281.89243 170.985335 280.541833 187.186984 280.091633 203.388634 279.191235 222.290559 277.840637 241.64253 276.940239 252.893676 276.039841 259.644363 275.589641 268.195234 275.139442 274.04583 277.390438 277.646196 279.191235 280.796517 279.641434 286.647113 278.741036 294.297892 277.840637 303.748854 276.039841 315 274.689243"></polyline>
        <mask id="mask-2" maskContentUnits="userSpaceOnUse" maskUnits="objectBoundingBox" x="0" y="0" width="491" height="113" fill="white">
            <use xlink:href="#path-1"></use>
        </mask>
    </defs>
    <g id="Symbols" stroke="none" stroke-width="1" fill="none" fill-rule="evenodd">
        <g id="Landmark_SanFrancisco">
            <use id="GoldenGatePark" stroke="#6566CC" mask="url(#mask-2)" stroke-width="6" stroke-dasharray="10,5" fill-rule="nonzero" transform="translate(69.500000, 242.500000) rotate(-80.000000) translate(-69.500000, -242.500000) " xlink:href="#path-1"></use>
            <path d="M-39.9553639,253.81029 C-40.1140314,253.832957 -40.6693592,253.957622 -41.6213639,254.18429 C-42.2560338,254.320291 -42.7603621,254.218292 -43.1343639,253.87829 C-43.5083658,253.538288 -43.8313626,253.198292 -44.1033639,252.85829 C-44.307365,252.608956 -44.4093639,252.404958 -44.4093639,252.24629 C-44.4093639,252.064956 -44.2393656,251.894958 -43.8993639,251.73629 C-43.174027,251.396288 -42.2333697,251.056292 -41.0773639,250.71629 C-39.7400239,250.285621 -38.7767002,250.07029 -38.1873639,250.07029 C-37.5980277,250.07029 -37.1106992,250.40462 -36.7253639,251.07329 C-36.3400287,251.74196 -36.045365,252.438953 -35.8413639,253.16429 C-35.6373629,253.957627 -35.7733616,254.67162 -36.2493639,255.30629 C-38.9467108,258.819641 -41.68935,260.57629 -44.4773639,260.57629 C-45.7693704,260.57629 -46.9820249,260.168294 -48.1153639,259.35229 C-49.9060396,258.060284 -50.8013639,256.575632 -50.8013639,254.89829 C-50.8013639,254.26362 -50.699365,253.560961 -50.4953639,252.79029 C-49.8380273,250.455612 -48.4780409,247.882971 -46.4153639,245.07229 C-44.2620198,242.125609 -42.1427077,240.074296 -40.0573639,238.91829 C-39.1506927,238.419621 -38.3573673,238.17029 -37.6773639,238.17029 C-37.1333612,238.17029 -36.5780334,238.306289 -36.0113639,238.57829 C-34.8780249,239.122293 -33.9713673,239.77962 -33.2913639,240.55029 C-32.9060287,240.980959 -32.7133639,241.51362 -32.7133639,242.14829 C-32.7133639,242.488292 -32.77003,242.862288 -32.8833639,243.27029 C-33.4273667,245.196966 -34.3906904,247.078281 -35.7733639,248.91429 C-36.0226985,249.254292 -36.2606961,249.42429 -36.4873639,249.42429 C-36.6460314,249.42429 -36.8160297,249.344958 -36.9973639,249.18629 C-37.5640334,248.732955 -37.9946958,248.268293 -38.2893639,247.79229 C-38.5613653,247.202954 -38.5386989,246.545627 -38.2213639,245.82029 C-37.9266958,245.18562 -37.6206989,244.562293 -37.3033639,243.95029 C-36.8726951,242.998285 -36.6573639,242.329625 -36.6573639,241.94429 C-36.6573639,241.672289 -36.7593629,241.53629 -36.9633639,241.53629 C-37.4620331,241.53629 -38.3460243,242.148284 -39.6153639,243.37229 C-40.9980375,244.732297 -42.312691,246.375614 -43.5593639,248.30229 C-45.7353748,251.634307 -46.8233639,254.308947 -46.8233639,256.32629 C-46.8233639,257.323629 -46.4947006,257.82229 -45.8373639,257.82229 C-45.1800273,257.82229 -44.3017028,257.436961 -43.2023639,256.66629 C-42.1030251,255.89562 -41.0207026,254.943629 -39.9553639,253.81029 Z M-32.2373639,258.36629 C-33.2347023,257.368952 -33.7333639,256.133631 -33.7333639,254.66029 C-33.7333639,253.821619 -33.5860321,252.880962 -33.2913639,251.83829 C-32.7020277,249.775613 -31.5460392,247.508969 -29.8233639,245.03829 C-28.1006887,242.567611 -26.3327063,240.69763 -24.5193639,239.42829 C-23.5220256,238.72562 -22.5813684,238.37429 -21.6973639,238.37429 C-20.9946938,238.37429 -20.3033673,238.589621 -19.6233639,239.02029 C-18.6033588,239.65496 -17.7817004,240.346286 -17.1583639,241.09429 C-16.5350275,241.842294 -16.2233639,242.91895 -16.2233639,244.32429 C-16.2233639,244.981627 -16.2913633,245.672953 -16.4273639,246.39829 C-16.8126992,248.551634 -17.6740239,250.840945 -19.0113639,253.26629 C-20.6660389,256.303639 -22.6040195,258.513617 -24.8253639,259.89629 C-25.641368,260.394959 -26.5026927,260.64429 -27.4093639,260.64429 C-28.0667006,260.64429 -28.7353605,260.519625 -29.4153639,260.27029 C-30.3900355,259.907622 -31.3306927,259.272961 -32.2373639,258.36629 Z M-27.0353639,248.64229 C-29.0073738,251.906307 -29.9933639,254.59228 -29.9933639,256.70029 C-29.9933639,257.538961 -29.7100334,257.95829 -29.1433639,257.95829 C-28.4633605,257.95829 -27.613369,257.448295 -26.5933639,256.42829 C-25.3920246,255.249618 -24.1793701,253.594968 -22.9553639,251.46429 C-20.7340195,247.610938 -19.6233639,244.675634 -19.6233639,242.65829 C-19.6233639,241.910286 -19.8273619,241.53629 -20.2353639,241.53629 C-20.8927006,241.53629 -21.8786907,242.20495 -23.1933639,243.54229 C-24.5760375,244.970297 -25.8566914,246.67028 -27.0353639,248.64229 Z M-14.3533639,256.32629 C-12.7213558,256.008955 -11.3160365,255.827624 -10.1373639,255.78229 C-9.50269409,255.759623 -8.97003275,255.929622 -8.53936393,256.29229 C-7.72335985,256.99496 -7.31536393,257.652287 -7.31536393,258.26429 C-7.31536393,258.513625 -7.51936189,258.683623 -7.92736393,258.77429 C-9.80870667,259.136959 -12.347348,259.70362 -15.5433639,260.47429 C-16.2007006,260.678291 -16.6993622,260.644292 -17.0393639,260.37229 C-17.3793656,260.100289 -17.8553609,259.658293 -18.4673639,259.04629 C-18.7846989,258.728955 -18.9433639,258.400292 -18.9433639,258.06029 C-18.9433639,257.833622 -18.8753646,257.538959 -18.7393639,257.17629 C-17.6740253,254.410943 -16.2460396,251.260308 -14.4553639,247.72429 C-12.5740212,244.029605 -10.8287053,241.014969 -9.21936393,238.68029 C-8.99269613,238.362955 -8.76603173,238.20429 -8.53936393,238.20429 C-7.92736087,238.20429 -7.15670191,238.861617 -6.22736393,240.17629 C-6.02336291,240.470958 -5.92136393,240.731622 -5.92136393,240.95829 C-5.92136393,241.252958 -6.08002901,241.626955 -6.39736393,242.08029 C-8.70937549,245.38964 -11.361349,250.138259 -14.3533639,256.32629 Z M6.86263607,242.65829 C4.48262417,246.443642 1.77398459,251.169595 -1.26336393,256.83629 C2.68065579,254.977614 6.00128925,252.484306 8.69863607,249.35629 C10.9879808,246.704277 12.1326361,244.618964 12.1326361,243.10029 C12.1326361,242.306953 11.4299764,241.91029 10.0246361,241.91029 C8.91396385,241.91029 7.85997439,242.159621 6.86263607,242.65829 Z M2.06863607,242.35229 C1.90996861,242.125622 1.67197099,241.796959 1.35463607,241.36629 C1.19596861,241.139622 1.11663607,240.946958 1.11663607,240.78829 C1.11663607,240.538956 1.29796759,240.312291 1.66063607,240.10829 C2.90730897,239.382953 4.19929605,238.906958 5.53663607,238.68029 C6.35264015,238.54429 7.14596555,238.47629 7.91663607,238.47629 C9.61664457,238.47629 10.9992974,238.804954 12.0646361,239.46229 C14.648649,241.071632 15.8613035,242.918946 15.7026361,245.00429 C15.4759683,247.792304 13.5379876,250.761608 9.88863607,253.91229 C6.78328721,256.58697 3.42865409,258.672283 -0.175363935,260.16829 C-0.832700555,260.440292 -1.30869579,260.57629 -1.60336393,260.57629 C-1.89803207,260.57629 -2.24936189,260.485624 -2.65736393,260.30429 C-3.67736903,259.873621 -4.52736053,259.37496 -5.20736393,258.80829 C-5.63803275,258.445622 -5.85336393,258.139625 -5.85336393,257.89029 C-5.85336393,257.686289 -5.77403139,257.402959 -5.61536393,257.04029 C-4.09668967,253.572273 -1.53538195,248.676322 2.06863607,242.35229 Z M21.2786361,248.54029 C22.4799754,248.426956 23.3752998,248.37029 23.9646361,248.37029 C24.689973,248.37029 25.1999679,248.562955 25.4946361,248.94829 C25.9026381,249.469626 26.1973018,249.922955 26.3786361,250.30829 C26.4466364,250.466958 26.4806361,250.602956 26.4806361,250.71629 C26.4806361,250.965625 26.3106378,251.112957 25.9706361,251.15829 C24.5199621,251.362291 22.2533181,251.792954 19.1706361,252.45029 C18.7173005,253.356961 18.0486405,254.682948 17.1646361,256.42829 C18.9326449,256.088288 20.6326279,255.91829 22.2646361,255.91829 C23.0579734,255.91829 23.6359676,256.110955 23.9986361,256.49629 C24.7693066,257.334961 25.1546361,257.980955 25.1546361,258.43429 C25.1546361,258.706292 24.9279717,258.87629 24.4746361,258.94429 C20.6892838,259.465626 17.9239781,259.998287 16.1786361,260.54229 C15.7479672,260.678291 15.4079706,260.74629 15.1586361,260.74629 C14.8866347,260.74629 14.5806378,260.610292 14.2406361,260.33829 C13.6512998,259.884955 13.2433039,259.522292 13.0166361,259.25029 C12.6993011,258.864955 12.5406361,258.524958 12.5406361,258.23029 C12.5406361,258.026289 12.5973022,257.765625 12.7106361,257.44829 C14.7959798,252.03093 17.2892882,246.919648 20.1906361,242.11429 C19.8506344,241.184952 19.6806361,240.595625 19.6806361,240.34629 C19.6806361,239.983622 19.9299669,239.734291 20.4286361,239.59829 C23.2846503,238.872953 26.5939506,238.51029 30.3566361,238.51029 C31.2179737,238.51029 31.8866337,238.748288 32.3626361,239.22429 C32.7026378,239.564292 33.0539676,240.142286 33.4166361,240.95829 C33.4393028,241.071624 33.4506361,241.173623 33.4506361,241.26429 C33.4506361,241.581625 33.189972,241.762957 32.6686361,241.80829 C29.6312875,242.080292 26.8999815,242.488287 24.4746361,243.03229 C23.658632,244.36963 22.5933093,246.205612 21.2786361,248.54029 Z M37.4626361,246.70429 C34.991957,251.124312 32.7706459,255.634934 30.7986361,260.23629 C30.6853022,260.530958 30.5153039,260.67829 30.2886361,260.67829 C29.9939679,260.67829 29.6199717,260.474292 29.1666361,260.06629 C28.7133005,259.658288 28.4073035,259.306958 28.2486361,259.01229 C27.9766347,258.536288 27.9199686,258.060293 28.0786361,257.58429 C28.803973,255.453613 30.141293,252.393643 32.0906361,248.40429 C33.7906446,244.890939 35.3999618,241.79697 36.9186361,239.12229 C37.1679706,238.691621 37.4853008,238.47629 37.8706361,238.47629 C38.0519703,238.47629 38.2899679,238.521623 38.5846361,238.61229 C39.4459737,238.906958 40.386631,239.43962 41.4066361,240.21029 C41.7693045,240.482292 41.9506361,240.810955 41.9506361,241.19629 C41.9506361,241.377624 41.9053032,241.717621 41.8146361,242.21629 C41.1572994,245.45764 40.6359713,249.08427 40.2506361,253.09629 C43.0613168,247.338928 45.7699564,242.680975 48.3766361,239.12229 C48.5806371,238.850289 48.7733018,238.71429 48.9546361,238.71429 C49.1586371,238.71429 49.3513018,238.850289 49.5326361,239.12229 C49.9633049,239.734293 50.1786361,240.368954 50.1786361,241.02629 C50.1786361,241.59296 49.9973045,242.238953 49.6346361,242.96429 C48.3426296,245.457636 47.0619757,247.939611 45.7926361,250.41029 C43.9566269,253.991641 42.4946415,257.017611 41.4066361,259.48829 C41.202635,259.941626 40.9193045,260.16829 40.5566361,260.16829 C40.3753018,260.16829 40.1486374,260.111624 39.8766361,259.99829 C39.1286323,259.680955 38.3976396,259.267293 37.6836361,258.75729 C36.9696325,258.247288 36.6126361,257.493629 36.6126361,256.49629 C36.5899693,253.390941 36.8732998,250.126974 37.4626361,246.70429 Z M67.2126361,253.81029 C67.0539686,253.832957 66.4986408,253.957622 65.5466361,254.18429 C64.9119662,254.320291 64.4076379,254.218292 64.0336361,253.87829 C63.6596342,253.538288 63.3366374,253.198292 63.0646361,252.85829 C62.860635,252.608956 62.7586361,252.404958 62.7586361,252.24629 C62.7586361,252.064956 62.9286344,251.894958 63.2686361,251.73629 C63.993973,251.396288 64.9346303,251.056292 66.0906361,250.71629 C67.4279761,250.285621 68.3912998,250.07029 68.9806361,250.07029 C69.5699723,250.07029 70.0573008,250.40462 70.4426361,251.07329 C70.8279713,251.74196 71.122635,252.438953 71.3266361,253.16429 C71.5306371,253.957627 71.3946384,254.67162 70.9186361,255.30629 C68.2212892,258.819641 65.47865,260.57629 62.6906361,260.57629 C61.3986296,260.57629 60.1859751,260.168294 59.0526361,259.35229 C57.2619604,258.060284 56.3666361,256.575632 56.3666361,254.89829 C56.3666361,254.26362 56.468635,253.560961 56.6726361,252.79029 C57.3299727,250.455612 58.6899591,247.882971 60.7526361,245.07229 C62.9059802,242.125609 65.0252923,240.074296 67.1106361,238.91829 C68.0173073,238.419621 68.8106327,238.17029 69.4906361,238.17029 C70.0346388,238.17029 70.5899666,238.306289 71.1566361,238.57829 C72.2899751,239.122293 73.1966327,239.77962 73.8766361,240.55029 C74.2619713,240.980959 74.4546361,241.51362 74.4546361,242.14829 C74.4546361,242.488292 74.39797,242.862288 74.2846361,243.27029 C73.7406333,245.196966 72.7773096,247.078281 71.3946361,248.91429 C71.1453015,249.254292 70.9073039,249.42429 70.6806361,249.42429 C70.5219686,249.42429 70.3519703,249.344958 70.1706361,249.18629 C69.6039666,248.732955 69.1733042,248.268293 68.8786361,247.79229 C68.6066347,247.202954 68.6293011,246.545627 68.9466361,245.82029 C69.2413042,245.18562 69.5473011,244.562293 69.8646361,243.95029 C70.2953049,242.998285 70.5106361,242.329625 70.5106361,241.94429 C70.5106361,241.672289 70.4086371,241.53629 70.2046361,241.53629 C69.7059669,241.53629 68.8219757,242.148284 67.5526361,243.37229 C66.1699625,244.732297 64.855309,246.375614 63.6086361,248.30229 C61.4326252,251.634307 60.3446361,254.308947 60.3446361,256.32629 C60.3446361,257.323629 60.6732994,257.82229 61.3306361,257.82229 C61.9879727,257.82229 62.8662972,257.436961 63.9656361,256.66629 C65.0649749,255.89562 66.1472974,254.943629 67.2126361,253.81029 Z M82.8866361,255.88429 C80.5066242,256.133625 78.0813151,256.552954 75.6106361,257.14229 C75.0212998,257.935627 74.3753062,258.876285 73.6726361,259.96429 C73.4006347,260.394959 73.1626371,260.61029 72.9586361,260.61029 C72.7999686,260.61029 72.6129705,260.485625 72.3976361,260.23629 C72.1823017,259.986956 71.915971,259.624293 71.5986361,259.14829 C71.394635,258.830955 71.2926361,258.502292 71.2926361,258.16229 C71.2926361,257.731621 71.4739676,257.221626 71.8366361,256.63229 C73.1286425,254.546946 75.1346225,251.702308 77.8546361,248.09829 C80.7333171,244.244938 83.1699594,241.196301 85.1646361,238.95229 C85.5499713,238.521621 85.9126344,238.30629 86.2526361,238.30629 C86.5019706,238.30629 86.8079676,238.396956 87.1706361,238.57829 C87.8506395,238.940959 88.6099652,239.416954 89.4486361,240.00629 C89.9926388,240.391625 90.2646361,240.799621 90.2646361,241.23029 C90.2646361,241.388958 90.1853035,241.717621 90.0266361,242.21629 C87.8052916,248.993657 86.3659727,254.7736 85.7086361,259.55629 C85.6633025,259.964292 85.5046374,260.16829 85.2326361,260.16829 C85.1193022,260.16829 84.9719703,260.134291 84.7906361,260.06629 C84.3373005,259.907623 83.8613052,259.641292 83.3626361,259.26729 C82.8639669,258.893288 82.6486357,258.309627 82.7166361,257.51629 C82.7166361,257.470957 82.7733022,256.926962 82.8866361,255.88429 Z M78.2966361,253.40229 C80.3139795,253.107622 82.0252957,252.903624 83.4306361,252.79029 C84.0653059,249.435607 84.8132984,246.477636 85.6746361,243.91629 C83.3399577,246.794971 80.880649,249.95694 78.2966361,253.40229 Z M98.3226361,242.42029 L98.0166361,242.42029 C96.3392943,242.465624 94.9566415,241.921629 93.8686361,240.78829 C93.6873018,240.606956 93.5966361,240.414291 93.5966361,240.21029 C93.5966361,239.892955 93.800634,239.677624 94.2086361,239.56429 C95.7273103,239.156288 97.5406255,238.816292 99.6486361,238.54429 C101.597979,238.317622 103.173297,238.215623 104.374636,238.23829 C106.210645,238.283624 107.593298,238.906951 108.522636,240.10829 C108.749304,240.402958 108.862636,240.640956 108.862636,240.82229 C108.862636,241.116958 108.601972,241.309623 108.080636,241.40029 C107.853968,241.445624 106.38065,241.626955 103.660636,241.94429 C103.569969,242.125624 103.46797,242.295623 103.354636,242.45429 C101.609294,244.879636 99.7959788,247.758274 97.9146361,251.09029 C95.965293,254.512974 94.4579747,257.516277 93.3926361,260.10029 C93.2566354,260.440292 93.0866371,260.61029 92.8826361,260.61029 C92.7466354,260.61029 92.5766371,260.530958 92.3726361,260.37229 C91.8513001,260.009622 91.3979713,259.578959 91.0126361,259.08029 C90.7179679,258.717622 90.5706361,258.354959 90.5706361,257.99229 C90.5706361,257.765622 90.6273022,257.504958 90.7406361,257.21029 C92.395311,252.812935 94.9226191,247.882984 98.3226361,242.42029 Z M110.902636,248.54029 C112.103975,248.426956 112.9993,248.37029 113.588636,248.37029 C114.313973,248.37029 114.823968,248.562955 115.118636,248.94829 C115.526638,249.469626 115.821302,249.922955 116.002636,250.30829 C116.070636,250.466958 116.104636,250.602956 116.104636,250.71629 C116.104636,250.965625 115.934638,251.112957 115.594636,251.15829 C114.143962,251.362291 111.877318,251.792954 108.794636,252.45029 C108.3413,253.356961 107.67264,254.682948 106.788636,256.42829 C108.556645,256.088288 110.256628,255.91829 111.888636,255.91829 C112.681973,255.91829 113.259968,256.110955 113.622636,256.49629 C114.393307,257.334961 114.778636,257.980955 114.778636,258.43429 C114.778636,258.706292 114.551972,258.87629 114.098636,258.94429 C110.313284,259.465626 107.547978,259.998287 105.802636,260.54229 C105.371967,260.678291 105.031971,260.74629 104.782636,260.74629 C104.510635,260.74629 104.204638,260.610292 103.864636,260.33829 C103.2753,259.884955 102.867304,259.522292 102.640636,259.25029 C102.323301,258.864955 102.164636,258.524958 102.164636,258.23029 C102.164636,258.026289 102.221302,257.765625 102.334636,257.44829 C104.41998,252.03093 106.913288,246.919648 109.814636,242.11429 C109.474634,241.184952 109.304636,240.595625 109.304636,240.34629 C109.304636,239.983622 109.553967,239.734291 110.052636,239.59829 C112.90865,238.872953 116.217951,238.51029 119.980636,238.51029 C120.841974,238.51029 121.510634,238.748288 121.986636,239.22429 C122.326638,239.564292 122.677968,240.142286 123.040636,240.95829 C123.063303,241.071624 123.074636,241.173623 123.074636,241.26429 C123.074636,241.581625 122.813972,241.762957 122.292636,241.80829 C119.255288,242.080292 116.523982,242.488287 114.098636,243.03229 C113.282632,244.36963 112.217309,246.205612 110.902636,248.54029 Z M135.348636,250.95429 C137.252646,250.568955 139.394624,249.265635 141.774636,247.04429 C144.018647,244.93628 145.140636,243.383629 145.140636,242.38629 C145.140636,241.955621 144.777973,241.74029 144.052636,241.74029 C143.055298,241.74029 141.910643,241.989621 140.618636,242.48829 C138.895961,244.958969 137.139312,247.780941 135.348636,250.95429 Z M134.532636,252.38229 C133.013962,255.170304 131.687975,257.731612 130.554636,260.06629 C130.373302,260.428959 130.180637,260.61029 129.976636,260.61029 C129.840635,260.61029 129.602638,260.474292 129.262636,260.20229 C128.922634,259.930289 128.548638,259.533626 128.140636,259.01229 C127.845968,258.649622 127.698636,258.264292 127.698636,257.85629 C127.698636,257.606956 127.766635,257.323625 127.902636,257.00629 C129.806646,252.404934 132.288621,247.74698 135.348636,243.03229 C134.849967,242.442954 134.453304,241.921626 134.158636,241.46829 C133.977302,241.196289 133.886636,240.969624 133.886636,240.78829 C133.886636,240.561622 134.056634,240.368958 134.396636,240.21029 C136.867315,239.076951 139.303957,238.476291 141.706636,238.40829 C144.109315,238.34029 146.171961,239.269614 147.894636,241.19629 C148.551973,241.944294 148.880636,242.70362 148.880636,243.47429 C148.880636,244.018293 148.540639,244.936284 147.860636,246.22829 C147.112632,247.610964 145.797979,249.061616 143.916636,250.58029 C141.785959,252.280299 139.757312,253.322955 137.830636,253.70829 C137.467968,253.776291 137.150637,253.81029 136.878636,253.81029 C135.971965,253.81029 135.189973,253.334295 134.532636,252.38229 Z M155.680636,255.88429 C153.300624,256.133625 150.875315,256.552954 148.404636,257.14229 C147.8153,257.935627 147.169306,258.876285 146.466636,259.96429 C146.194635,260.394959 145.956637,260.61029 145.752636,260.61029 C145.593969,260.61029 145.40697,260.485625 145.191636,260.23629 C144.976302,259.986956 144.709971,259.624293 144.392636,259.14829 C144.188635,258.830955 144.086636,258.502292 144.086636,258.16229 C144.086636,257.731621 144.267968,257.221626 144.630636,256.63229 C145.922643,254.546946 147.928622,251.702308 150.648636,248.09829 C153.527317,244.244938 155.963959,241.196301 157.958636,238.95229 C158.343971,238.521621 158.706634,238.30629 159.046636,238.30629 C159.295971,238.30629 159.601968,238.396956 159.964636,238.57829 C160.644639,238.940959 161.403965,239.416954 162.242636,240.00629 C162.786639,240.391625 163.058636,240.799621 163.058636,241.23029 C163.058636,241.388958 162.979304,241.717621 162.820636,242.21629 C160.599292,248.993657 159.159973,254.7736 158.502636,259.55629 C158.457303,259.964292 158.298637,260.16829 158.026636,260.16829 C157.913302,260.16829 157.76597,260.134291 157.584636,260.06629 C157.1313,259.907623 156.655305,259.641292 156.156636,259.26729 C155.657967,258.893288 155.442636,258.309627 155.510636,257.51629 C155.510636,257.470957 155.567302,256.926962 155.680636,255.88429 Z M151.090636,253.40229 C153.107979,253.107622 154.819296,252.903624 156.224636,252.79029 C156.859306,249.435607 157.607298,246.477636 158.468636,243.91629 C156.133958,246.794971 153.674649,249.95694 151.090636,253.40229 Z M169.008636,249.69629 C171.025979,248.92562 173.099959,247.684632 175.230636,245.97329 C177.361313,244.261948 178.426636,243.009627 178.426636,242.21629 C178.426636,241.853622 178.05264,241.67229 177.304636,241.67229 C176.193964,241.67229 174.969976,241.898955 173.632636,242.35229 C172.045961,244.664302 170.504644,247.112277 169.008636,249.69629 Z M166.526636,254.11629 C165.30263,256.382968 164.305307,258.354948 163.534636,260.03229 C163.375969,260.372292 163.183304,260.54229 162.956636,260.54229 C162.797969,260.54229 162.548638,260.417625 162.208636,260.16829 C161.800634,259.850955 161.449304,259.454293 161.154636,258.97829 C160.859968,258.502288 160.712636,258.094292 160.712636,257.75429 C160.712636,257.504956 160.769302,257.232958 160.882636,256.93829 C162.786646,252.359601 165.325287,247.610981 168.498636,242.69229 C168.271968,242.465622 167.841306,241.989627 167.206636,241.26429 C167.025302,241.037622 166.934636,240.844958 166.934636,240.68629 C166.934636,240.459622 167.104634,240.255624 167.444636,240.07429 C169.733981,238.940951 172.204623,238.37429 174.856636,238.37429 C177.417982,238.37429 179.491961,239.269615 181.078636,241.06029 C181.803973,241.876294 182.166636,242.646953 182.166636,243.37229 C182.166636,244.00696 181.815306,244.788952 181.112636,245.71829 C180.228632,246.896963 178.868645,248.132284 177.032636,249.42429 C174.992626,250.874964 172.92998,251.974286 170.844636,252.72229 C172.36331,255.011635 173.893295,256.836283 175.434636,258.19629 C175.683971,258.400291 175.808636,258.592956 175.808636,258.77429 C175.808636,259.046292 175.502639,259.306956 174.890636,259.55629 C174.459967,259.737624 174.051971,259.86229 173.666636,259.93029 C173.190634,260.020957 172.839304,260.032291 172.612636,259.96429 C172.340635,259.89629 171.966638,259.680959 171.490636,259.31829 C169.949295,258.184951 168.294645,256.450969 166.526636,254.11629 Z M183.458636,253.50429 C182.16663,256.020303 181.135307,258.26428 180.364636,260.23629 C180.228635,260.576292 180.06997,260.74629 179.888636,260.74629 C179.729969,260.74629 179.548637,260.655624 179.344636,260.47429 L178.120636,259.52229 C177.689967,259.091621 177.474636,258.649626 177.474636,258.19629 C177.474636,257.969622 177.531302,257.686292 177.644636,257.34629 C178.619308,254.694277 180.00196,251.617308 181.792636,248.11529 C183.583312,244.613273 185.283295,241.649636 186.892636,239.22429 C187.119304,238.884288 187.357301,238.71429 187.606636,238.71429 C187.969305,238.71429 188.717297,239.38295 189.850636,240.72029 C190.077304,240.992292 190.190636,241.252956 190.190636,241.50229 C190.190636,241.751625 190.031971,242.125621 189.714636,242.62429 C188.739965,244.120298 187.549976,246.080945 186.144636,248.50629 C190.247323,244.970273 194.644613,241.604306 199.336636,238.40829 C199.585971,238.249623 199.789969,238.17029 199.948636,238.17029 C200.288638,238.17029 200.458636,238.589619 200.458636,239.42829 C200.458636,240.402962 199.948641,241.388952 198.928636,242.38629 C196.457957,244.471634 192.695328,247.780934 187.640636,252.31429 C188.887309,254.3543 190.40596,256.39428 192.196636,258.43429 C192.400637,258.660958 192.502636,258.864956 192.502636,259.04629 C192.502636,259.227624 192.366637,259.397623 192.094636,259.55629 C191.731968,259.782958 191.17664,259.998289 190.428636,260.20229 C189.793966,260.383624 189.125306,260.19096 188.422636,259.62429 C187.8333,259.148288 187.022975,258.27563 185.991636,257.00629 C184.960298,255.736951 184.115973,254.569629 183.458636,253.50429 Z" id="Outlines" fill="#6566CC" transform="translate(74.828636, 249.458290) rotate(277.000000) translate(-74.828636, -249.458290) "></path>
        </g>
    </g>
</svg>